<svg version="1.1" xmlns="http://www.w3.org/2000/svg" style="display: block;" viewBox="0 0 1385 2048" width="376" height="556" preserveAspectRatio="none">
<path transform="translate(0,0)" fill="rgb(253,253,253)" d="M 194.875 80.4154 C 214.168 79.6826 238.772 80.3953 258.384 80.4271 L 378.245 80.4591 L 771.5 80.7075 L 1026.63 80.6245 L 1100.15 80.3028 C 1138.74 80.0162 1167.25 76.5468 1200.9 99.9428 C 1227.99 119.086 1246.3 148.252 1251.78 180.96 C 1255.05 199.39 1254.01 231.884 1253.98 251.608 L 1253.93 360.252 L 1253.42 781.027 L 1253.99 1486.62 L 1253.94 1700.69 L 1254.19 1765.33 C 1254.32 1779.09 1254.93 1794.98 1254.11 1808.56 C 1252.77 1832.22 1244.8 1855.03 1231.12 1874.38 C 1210.26 1903.72 1181.46 1916.98 1146.98 1922.64 C 1127.9 1924.03 1101.93 1923.29 1082.25 1923.28 L 970.592 1923.18 L 617.5 1923.25 L 329.419 1923.29 L 247.438 1923.41 C 230.801 1923.49 209.974 1924.16 193.818 1922.67 C 172.826 1920.73 148.621 1911.44 132.721 1897.83 C 106.962 1875.78 88.5754 1851.03 86.2882 1815.91 C 85.4073 1802.38 85.8961 1789.25 85.9315 1775.76 L 85.8073 1710.08 L 85.4587 1468.25 L 86.2274 862.817 L 85.9321 416.57 L 85.5491 270.999 C 85.4342 218.172 77.6906 164.413 114.895 121.282 C 135.029 97.5275 163.828 82.8124 194.875 80.4154 z"/>
<path transform="translate(0,0)" fill="rgb(240,197,58)" d="M 835.235 140.505 L 1025.43 140.692 C 1056.43 140.734 1095.2 139.327 1125.66 143.097 C 1141.69 146.447 1155.74 156.442 1167.07 167.029 C 1199.41 197.227 1194.69 231.907 1194.53 272.315 L 1194.21 360.966 L 1193.96 666.467 L 1194.5 1696.99 C 1194.5 1725.09 1194.79 1753.37 1193.44 1781.43 C 1192.37 1803.56 1181.73 1821.25 1166.87 1836.93 C 1135.81 1869.71 1093.95 1863.72 1053.15 1863.57 L 947.1 1863.58 L 508.5 1863.37 L 311.044 1863.68 C 281.626 1863.69 244.295 1865.02 215.211 1861.27 C 202.504 1859.63 180.255 1846.29 171.113 1836.61 C 144.513 1808.42 145.699 1785.17 145.348 1750.69 L 144.765 687.974 L 144.897 369.463 L 144.701 272.345 C 144.597 230.269 138.939 200.607 171.935 166.97 C 204.245 134.034 237.505 140.838 280.512 140.81 L 392.884 140.716 L 835.235 140.505 z"/>
<path transform="translate(0,0)" fill="rgb(253,253,253)" d="M 271.63 1089.4 C 289.028 1088.76 309.416 1089.29 327.087 1089.3 L 431.373 1089.33 L 750.536 1089.25 L 963.697 1089.25 L 1027.98 1089.03 C 1058.39 1088.88 1084.89 1086.04 1110.89 1105.46 C 1126.01 1116.84 1136.07 1133.68 1138.91 1152.38 C 1141.68 1171.67 1140.43 1213.04 1140.35 1234.04 L 1139.82 1384.2 L 1139.92 1628.57 L 1140.02 1696.81 C 1140.08 1724.21 1142.74 1753.1 1124.43 1776.4 C 1109.39 1795.54 1092.9 1802.94 1069.25 1805.89 C 1047.94 1807.18 1024.52 1806.78 1003.03 1806.8 L 902.87 1806.79 L 602.021 1806.84 L 371.648 1806.82 L 306.814 1806.89 C 293.956 1806.95 277.893 1807.64 265.474 1806.33 C 235.14 1803.12 202.845 1772.31 200.625 1741.32 C 199.655 1727.77 199.707 1714.65 199.746 1701.27 L 199.929 1642.04 L 199.851 1451.35 L 199.207 1262.68 L 198.839 1200.34 C 198.795 1186.63 198.454 1173.21 199.623 1159.54 C 203.042 1119.57 232.732 1093.59 271.63 1089.4 z"/>
<path transform="translate(0,0)" fill="rgb(240,197,58)" d="M 386.093 1591.51 L 459.115 1591.41 C 481.545 1591.39 519.822 1584.67 519.943 1616.18 C 520.093 1655.36 521.472 1694.94 519.486 1734.05 C 518.578 1751.93 505.778 1754.88 491.146 1755.63 L 420.097 1755.74 C 392.909 1755.81 354.114 1763.33 355.481 1726.56 C 356.276 1705.17 354.5 1682.71 355.256 1661.17 C 355.811 1645.36 354.341 1629.23 356.184 1613.46 C 358.256 1593.85 369.603 1592.05 386.093 1591.51 z"/>
<path transform="translate(0,0)" fill="rgb(253,253,253)" d="M 425.608 1620.75 L 428.876 1622.28 C 430.867 1625.24 429.685 1627.52 430.679 1631.33 C 433.639 1633.46 432.589 1633.35 435.695 1633.42 C 439.002 1629.64 435.165 1624.12 440.947 1621.28 C 449.468 1623.69 443.875 1630.53 446.874 1631.88 C 467.149 1641.05 477.347 1657.28 453.048 1671.09 C 475.214 1679.13 476.129 1701.95 455.213 1712.58 C 452.734 1713.28 450.679 1713.95 448.245 1714.79 C 445.562 1717.72 445.291 1720.94 444.373 1724.92 C 441.974 1726.71 443.132 1726.3 439.556 1725.91 C 437.042 1722.56 438.163 1721.05 436.797 1716.03 C 434.085 1714.32 435.235 1714.57 432.203 1714.5 C 429.247 1717.47 431.77 1721.39 428.395 1725.82 C 425.354 1726.45 426.666 1726.73 424.261 1725.43 C 422.185 1714.66 421.33 1715.59 411.769 1713.09 C 410.598 1690.55 410.896 1657.25 411.667 1634.6 C 429.702 1630.96 417.033 1629.5 425.608 1620.75 z"/>
<path transform="translate(0,0)" fill="rgb(240,197,58)" d="M 423.084 1677.14 C 433.526 1677.19 446.915 1676.26 455.604 1683.06 C 461.948 1688.03 457.991 1696.88 453.505 1701.63 C 443.672 1706.14 433.744 1705.16 422.95 1705.15 L 423.084 1677.14 z"/>
<path transform="translate(0,0)" fill="rgb(240,197,58)" d="M 423.101 1642.15 C 434.824 1642.39 466.702 1642.86 450.416 1663.76 C 441.542 1668.64 433.297 1667.45 422.975 1667.52 L 423.101 1642.15 z"/>
<path transform="translate(0,0)" fill="rgb(0,0,0)" d="M 804.463 1605.17 C 868.659 1597.66 862.927 1714.88 797.074 1729 C 739.924 1736.38 741.137 1664.6 764.246 1631.39 C 775.369 1615.41 785.603 1608.9 804.463 1605.17 z"/>
<path transform="translate(0,0)" fill="rgb(253,253,253)" d="M 800.997 1631.88 C 831.482 1630.21 821.408 1691.67 796.511 1703.24 C 767.763 1702.73 778.362 1643.55 800.997 1631.88 z"/>
<path transform="translate(0,0)" fill="rgb(0,0,0)" d="M 906.552 1605.18 C 971.743 1598.72 964.406 1714.68 899.191 1729.03 C 875.263 1732.37 857.013 1720.4 853.072 1696.42 C 846.576 1656.9 864.592 1613.21 906.552 1605.18 z"/>
<path transform="translate(0,0)" fill="rgb(253,253,253)" d="M 902.934 1631.95 C 925.106 1631.23 922.914 1655.56 919.899 1671.05 C 917.464 1683.56 911.783 1695.68 900.67 1702.64 C 871.695 1708.49 877.943 1645.97 902.934 1631.95 z"/>
<path transform="translate(0,0)" fill="rgb(0,0,0)" d="M 703.302 1605.24 C 742.469 1601.95 752.564 1637.66 725.412 1662.49 C 741.491 1671.24 742.697 1688.94 734.601 1703.85 C 716.728 1736.75 656.057 1742.25 646.882 1699.2 C 646.133 1695.69 645.254 1691.59 647.235 1688.4 L 649.75 1687.85 L 676.626 1687.94 C 677.475 1694.95 680.819 1703.96 688.633 1704.4 C 709.49 1705.58 721.594 1671.08 690.678 1673.6 C 691.717 1667.3 692.6 1660.97 693.324 1654.62 C 701.694 1653.03 714.459 1649.33 711.307 1637.74 C 710.448 1634.68 708.28 1632.16 705.383 1630.85 C 695.626 1626.42 690.398 1635.39 687.374 1642.78 L 659.485 1642.77 C 669.139 1619.57 678.16 1609.79 703.302 1605.24 z"/>
<path transform="translate(0,0)" fill="rgb(0,0,0)" d="M 528.663 1434.77 C 543.597 1434.7 565.287 1432.57 577.551 1441.73 C 600.139 1458.6 599.153 1498.93 583.422 1520.17 C 569.681 1534.36 546.924 1533.45 528.532 1531.4 C 528.972 1499.42 527.743 1466.49 528.663 1434.77 z"/>
<path transform="translate(0,0)" fill="rgb(253,253,253)" d="M 549.455 1453.17 C 578.637 1452.26 576.43 1490.41 566.755 1507.72 C 561.867 1511.65 555.816 1512.44 549.775 1513.69 C 549.414 1495.65 548.363 1470.73 549.455 1453.17 z"/>
<path transform="translate(0,0)" fill="rgb(0,0,0)" d="M 383.134 1293.29 C 403.078 1294.24 446.735 1288.81 442.28 1322.23 C 441.326 1329.39 438.094 1333.48 434.229 1339.43 C 434.824 1346.4 455.967 1349.22 442.086 1378.41 C 427.174 1395.81 404.862 1391.59 383.629 1391.41 C 384.108 1358.94 382.892 1325.97 383.134 1293.29 z"/>
<path transform="translate(0,0)" fill="rgb(253,253,253)" d="M 403.324 1349.87 C 421.893 1350.18 427.732 1351.1 422.168 1371.08 C 416.53 1372.31 409.687 1372.56 403.847 1372.96 L 403.324 1349.87 z"/>
<path transform="translate(0,0)" fill="rgb(253,253,253)" d="M 404.317 1311.08 C 415.073 1313.31 429.337 1315.83 418.805 1330.12 C 413.372 1332.14 409.545 1332.4 403.78 1333.14 C 403.573 1324.94 403.797 1319.23 404.317 1311.08 z"/>
<path transform="translate(0,0)" fill="rgb(0,0,0)" d="M 717.428 1293.76 C 740.301 1293.66 789.305 1289.36 773.56 1331.41 C 772.588 1334 769.281 1336.13 767.778 1339.81 C 769.907 1345.42 776.518 1347.02 778.906 1353.53 C 781.689 1361.12 778.897 1370.1 776.142 1377.14 C 763.341 1395.16 738.045 1390.55 717.915 1390.3 C 717.18 1358.12 717.017 1325.94 717.428 1293.76 z"/>
<path transform="translate(0,0)" fill="rgb(253,253,253)" d="M 737.924 1350.41 C 744.745 1350.66 752.454 1349.32 756.747 1355.11 C 758.495 1360.19 756.732 1365.65 755.166 1370.58 C 752.031 1371.39 741.781 1371.73 738.043 1371.95 L 737.924 1350.41 z"/>
<path transform="translate(0,0)" fill="rgb(253,253,253)" d="M 738.534 1311.07 C 750.801 1312.83 759.934 1315.16 753.562 1329.79 C 747.494 1331.87 744.311 1331.81 737.835 1332.19 C 737.852 1324.92 737.767 1318.33 738.534 1311.07 z"/>
<path transform="translate(0,0)" fill="rgb(0,0,0)" d="M 866.151 1293.86 C 881.991 1293.78 910.544 1291.27 920.599 1304.76 C 933.587 1322.17 928.259 1340.2 913.573 1352.95 C 918.464 1364.67 924.468 1380.25 930.291 1391.2 C 922.549 1391.4 914.855 1391.66 907.109 1391.51 L 900.433 1375.07 C 898.333 1369.95 894.456 1358.29 889.86 1356.37 C 885.671 1360.45 887.053 1384.33 887.097 1390.81 L 865.876 1390.58 L 866.151 1293.86 z"/>
<path transform="translate(0,0)" fill="rgb(253,253,253)" d="M 887.683 1312.54 C 891.643 1312.65 896.627 1312.45 900.177 1314.35 C 908.93 1319.04 908.271 1328.94 903.101 1336.26 C 898.846 1337.88 892.394 1338.63 887.723 1339.35 C 887.192 1330.46 887.519 1321.45 887.683 1312.54 z"/>
<path transform="translate(0,0)" fill="rgb(0,0,0)" d="M 606.007 1434.76 C 622.305 1434.78 651.012 1432.08 660.454 1446.46 C 671.488 1463.25 667.618 1482.23 652.298 1493.8 C 657.497 1506.77 663.293 1519.02 669.18 1531.67 C 661.466 1531.88 654.319 1532.06 646.586 1531.85 C 643.584 1524.33 635.572 1501.81 629.635 1497.69 L 627.878 1498.43 C 624.601 1505.37 625.867 1522.8 626.049 1531.3 C 619.299 1531.81 611.863 1531.65 605.045 1531.66 C 605.062 1505.54 603.752 1459.29 606.007 1434.76 z"/>
<path transform="translate(0,0)" fill="rgb(253,253,253)" d="M 626.514 1452.96 C 644.967 1453.51 649.818 1460.71 642.657 1478.02 C 636.403 1479.69 632.641 1479.61 626.261 1479.8 C 626.014 1470.83 626.307 1461.92 626.514 1452.96 z"/>
<path transform="translate(0,0)" fill="rgb(0,0,0)" d="M 518.076 1293.26 C 542.759 1293.21 580.128 1289.84 579.352 1325.53 C 579.08 1338.02 573.387 1344.02 564.787 1352.37 C 568.78 1365.27 575.342 1378.68 582.025 1390.42 C 575.108 1390.49 567.724 1390.92 560.774 1391.21 C 554.47 1382.91 548.71 1357.76 540.994 1356.59 C 538.131 1360.45 539.042 1384.36 539.036 1390.83 C 532.157 1390.77 525.111 1390.86 518.219 1390.88 C 517.989 1359.77 517.047 1324.12 518.076 1293.26 z"/>
<path transform="translate(0,0)" fill="rgb(253,253,253)" d="M 539.134 1312.02 C 556.807 1313.72 562.002 1318.35 554.766 1335.91 C 549.928 1338.42 544.403 1338.13 538.967 1338.3 C 538.851 1329.54 538.907 1320.78 539.134 1312.02 z"/>
<path transform="translate(0,0)" fill="rgb(0,0,0)" d="M 788.908 1294.02 L 809.193 1293.91 C 809.515 1306.07 807.182 1361.21 812.119 1367.64 C 813.87 1369.92 817.084 1372.22 819.99 1372.57 C 822.46 1372.86 824.773 1372.04 826.556 1370.32 C 835.513 1361.68 831.87 1308.47 831.79 1294.08 L 852.012 1294.11 L 852.247 1312.71 C 852.409 1332.67 856.822 1369.36 842.802 1384.3 C 828.78 1399.24 793.031 1392.5 790.282 1369.42 C 787.368 1344.95 788.851 1318.89 788.908 1294.02 z"/>
<path transform="translate(0,0)" fill="rgb(0,0,0)" d="M 456.04 1293.78 C 472.722 1293.65 489.405 1293.65 506.088 1293.78 L 505.788 1312.75 C 496.466 1312.49 485.481 1312.9 476.038 1313.03 L 475.912 1331.95 L 502.038 1332.08 L 501.902 1350.16 C 493.351 1350.5 484.658 1350.67 476.091 1350.92 L 475.986 1368.25 C 475.991 1369.22 476.343 1370.06 476.626 1371.06 C 481.687 1372.98 500.953 1372.19 507.17 1372.09 C 507.396 1378.36 507.844 1384.88 508.181 1391.16 C 490.7 1391.47 473.216 1391.49 455.734 1391.23 C 455.606 1358.75 455.708 1326.27 456.04 1293.78 z"/>
<path transform="translate(0,0)" fill="rgb(0,0,0)" d="M 655.279 1294.05 L 705.534 1293.97 L 705.097 1312.65 L 675.76 1313 C 675.467 1319.13 675.505 1325.66 675.434 1331.82 L 701.193 1331.89 L 701.168 1350.59 C 693.846 1350.06 683.032 1350.22 675.44 1350.09 L 675.425 1367.4 L 675.741 1369.93 C 678.469 1372.47 699.189 1371.5 706.115 1371.88 C 706.666 1377.89 706.81 1384.54 707.068 1390.62 C 689.687 1390.81 672.306 1390.89 654.925 1390.84 C 654.804 1358.58 655.594 1326.24 655.279 1294.05 z"/>
<path transform="translate(0,0)" fill="rgb(0,0,0)" d="M 609.007 1293.21 C 620.306 1292.23 631.445 1293.83 640.939 1300.38 C 648.323 1305.47 635.888 1315.93 632.318 1319.62 C 615.538 1302.41 591.904 1318.75 631.017 1338.66 C 651.191 1348.93 652.701 1384.03 620.596 1392.05 C 610.684 1392.79 591.731 1391.32 586.614 1381.39 C 586.042 1374.1 591.422 1370.02 596.589 1363.74 C 602.816 1369.78 614.837 1376.71 622.221 1369.29 C 628.174 1352.24 592.942 1349.35 588.433 1330.75 C 583.913 1312.1 591.854 1299.71 609.007 1293.21 z"/>
<path transform="translate(0,0)" fill="rgb(0,0,0)" d="M 270.98 1293.17 C 273.087 1292.86 275.212 1292.69 277.342 1292.65 C 290.717 1292.34 297.489 1298.54 306.679 1307.28 C 302.352 1310.96 298.624 1315.2 295.016 1319.21 C 290.575 1319.66 281.951 1310.28 276.265 1312.26 C 257.516 1318.8 259.57 1363.79 275.008 1372.78 C 282.105 1376.92 286.231 1367.53 293.443 1365.63 C 297.796 1366.62 297.574 1367.48 301.369 1370.91 C 303.121 1372.51 305.848 1375.59 307.581 1377.42 C 297.451 1389.35 283.844 1398.2 267.899 1391.31 C 240.26 1379.18 237.538 1339.58 247.602 1315 C 252.249 1303.65 259.976 1297.56 270.98 1293.17 z"/>
<path transform="translate(0,0)" fill="rgb(0,0,0)" d="M 1079.39 1294.26 L 1101.97 1294.84 C 1094.91 1310.06 1088.05 1325.36 1081.39 1340.76 C 1073.56 1358.97 1075.84 1371.74 1076.28 1391.53 C 1069.58 1391.73 1062.6 1391.57 1055.88 1391.51 C 1056.07 1383.03 1056.93 1363.18 1055.56 1355.7 C 1053.31 1343.48 1042.49 1324.27 1037.51 1312.23 C 1035.77 1308.04 1029.87 1297.49 1029.36 1294.33 C 1038.05 1294.78 1043.29 1294.9 1051.98 1294.39 C 1056.46 1306.47 1062.55 1318.41 1065.83 1330.76 C 1070.65 1318.7 1075.17 1306.54 1079.39 1294.26 z"/>
<path transform="translate(0,0)" fill="rgb(0,0,0)" d="M 356.347 1293.73 C 364.416 1294.13 369.228 1294.22 377.363 1293.77 C 371.672 1308.84 364.155 1324.94 357.585 1339.76 C 349.607 1356.99 351.707 1372.4 351.84 1391.49 L 331.718 1391.83 C 332.483 1358.31 333.96 1350.83 317.216 1319.71 C 313.797 1313.36 308.171 1301.43 306.257 1294.38 L 306.1 1293.79 L 328.751 1294.26 C 332.172 1305.06 338.014 1318.39 342.002 1330.44 C 346.062 1318.81 351.815 1305.52 356.347 1293.73 z"/>
<path transform="translate(0,0)" fill="rgb(0,0,0)" d="M 969.753 1294.21 C 984.567 1295.24 1011.74 1294.47 1027.32 1294.56 C 1028.13 1301.55 1028.57 1306.73 1028.88 1313.77 L 1008.74 1314.03 L 1008.58 1368.75 L 1008.5 1391.79 L 989.068 1391.75 C 988.566 1366.3 988.909 1339.57 988.791 1314.02 L 969.905 1314.13 C 969.525 1307.35 969.659 1300.98 969.753 1294.21 z"/>
<path transform="translate(0,0)" fill="rgb(0,0,0)" d="M 772.71 1435.14 C 778.792 1435.44 786.71 1435.27 792.929 1435.31 C 793.169 1461.15 793.28 1487 793.262 1512.84 L 822.014 1513.26 L 822.29 1532.15 L 772.52 1532.13 C 772.277 1499.8 772.34 1467.47 772.71 1435.14 z"/>
<path transform="translate(0,0)" fill="rgb(0,0,0)" d="M 714.86 1434.85 L 734.121 1434.97 C 735.68 1458.5 735.112 1489.2 735.298 1513.06 L 763.995 1513.21 L 764.117 1532.08 L 714.25 1532.17 C 715.003 1500 714.455 1467.15 714.86 1434.85 z"/>
<path transform="translate(0,0)" fill="rgb(0,0,0)" d="M 679.003 1433.98 C 685.345 1434.67 692.614 1434.51 699.059 1434.55 L 699.892 1532.11 L 678.957 1531.99 C 678.924 1500.8 677.883 1464.76 679.003 1433.98 z"/>
<path transform="translate(0,0)" fill="rgb(0,0,0)" d="M 944.337 1294.48 C 949.496 1294.48 954.886 1294.25 960.063 1294.12 C 960.252 1304.98 961.333 1388.06 959.015 1391.04 L 954.751 1391.47 L 939.83 1391.68 C 939.76 1379.28 938.854 1297.95 940.994 1294.81 L 944.337 1294.48 z"/>
<path transform="translate(0,0)" fill="rgb(0,0,0)" d="M 788.248 372.583 C 792.824 377.712 791.124 417.218 791.067 426.255 C 806.898 426.657 831.217 426.007 845.215 431.291 C 838.555 440.081 825.386 450.939 817.201 459.04 C 807.787 468.358 798.608 477.948 789.181 487.194 C 771.076 486.563 751.859 486.577 733.645 486.215 C 725.989 492.045 718.897 499.881 711.948 506.552 C 695.512 522.331 679.815 540.291 663.107 555.617 C 683.357 577.036 693.709 599.945 703.065 627.273 C 728.579 628.494 754.058 626.82 779.5 627.311 C 823.393 627.978 867.068 628.333 910.993 627.879 C 945.725 627.52 991.687 621.161 992.071 670.415 C 992.389 711.335 991.096 752.436 991.04 793.439 L 991.181 843.67 C 991.221 854.091 992.012 865.817 990.272 875.939 C 984.665 908.55 950.498 904.283 927.241 904.116 L 874.555 903.843 L 667.25 903.38 L 580.101 903.654 C 545.027 903.751 499.217 911.973 495.985 864.705 C 450.691 857.324 409.558 835.609 379.587 800.655 C 347.811 763.325 332.216 714.873 336.252 666.016 C 339.788 615.597 363.486 568.728 401.995 535.992 C 439.585 503.424 488.77 487.484 538.316 491.811 C 580.816 495.289 628.374 516.081 656.116 548.851 C 674.91 527.002 707.504 503.376 726.145 478.027 C 727.7 460.853 727.397 443.489 729.272 425.822 C 745.237 414.607 771.478 387.164 788.248 372.583 z"/>
<path transform="translate(0,0)" fill="rgb(138,194,93)" d="M 705.818 636.453 L 707.327 636.405 C 751.214 635.13 796.942 636.895 840.997 636.587 C 866.526 636.301 892.057 636.237 917.588 636.394 C 935.287 636.479 961.468 633.372 974.415 645.478 C 982.619 653.149 983.435 662.651 983.342 673.218 C 982.759 738.744 982.997 804.306 982.261 869.796 C 982.118 882.416 972.171 894.639 958.924 894.677 C 918.828 894.791 878.551 894.095 838.363 893.955 L 577.75 893.778 C 569.998 893.719 561.538 893.844 553.82 893.92 C 526.906 894.185 513.247 894.671 503.281 867.281 C 519.522 867 533.974 866.882 550.078 864.626 C 563.7 862.718 579.028 857.776 592.271 857.757 C 628.629 857.704 665.076 858.426 701.429 858.812 C 743.719 859.137 786.011 859.066 828.3 858.599 C 847.279 858.443 866.366 858.939 885.353 858.579 C 896.843 858.361 900.497 853.436 907.94 845.254 C 909.636 803.394 906.89 759.318 908.27 717.224 C 908.528 709.338 909.192 686.346 903.692 680.677 C 900.436 677.337 896.204 675.118 891.606 674.339 C 880.076 672.323 845.681 673.156 831.743 673.118 L 710.127 672.988 C 710.023 661.619 707.576 647.915 705.818 636.453 z"/>
<path transform="translate(0,0)" fill="rgb(0,0,0)" d="M 942.571 751.146 C 953.256 748.92 963.719 755.784 965.934 766.47 C 968.15 777.157 961.277 787.614 950.588 789.819 C 939.914 792.022 929.473 785.16 927.261 774.487 C 925.048 763.815 931.901 753.368 942.571 751.146 z"/>
<path transform="translate(0,0)" fill="rgb(138,194,93)" d="M 943.35 759.777 C 949.21 757.795 955.568 760.937 957.552 766.797 C 959.536 772.657 956.395 779.015 950.536 781.001 C 944.674 782.987 938.313 779.845 936.329 773.983 C 934.344 768.121 937.488 761.761 943.35 759.777 z"/>
<path transform="translate(0,0)" fill="rgb(0,0,0)" d="M 941.836 697.074 C 966.677 696.723 978.655 724.139 951.111 734.987 C 941.551 735.394 932.778 733.657 928.024 724.124 C 925.913 719.922 925.617 715.039 927.205 710.613 C 929.864 703.027 935.225 700.302 941.836 697.074 z"/>
<path transform="translate(0,0)" fill="rgb(138,194,93)" d="M 943.431 706.682 C 954.295 706.28 964.288 718.574 950.785 727.526 C 935.302 728.843 929.943 716.24 943.431 706.682 z"/>
<path transform="translate(0,0)" fill="rgb(0,0,0)" d="M 941.214 804.858 C 960.804 803.585 975.066 823.231 951.868 834.434 C 928.987 837.736 920.255 817.874 941.214 804.858 z"/>
<path transform="translate(0,0)" fill="rgb(138,194,93)" d="M 943.457 813.797 C 948.463 813.447 951.519 814.297 953.214 819.112 C 952.219 823.295 952.302 822.243 948.973 825.696 C 943.85 826.325 941.427 824.47 939.646 819.921 C 940.224 815.945 939.756 817.413 943.457 813.797 z"/>
<path transform="translate(0,0)" fill="rgb(253,253,253)" d="M 507.569 500.405 C 564.227 492.007 608.927 519.49 650.045 553.806 C 641.624 561.761 632.511 570.049 624.824 578.637 C 587.913 536.766 517.434 525.471 467.034 546.873 C 432.554 561.275 405.266 588.868 391.248 623.506 C 376.135 661.001 376.018 700.422 392.036 737.691 C 406.642 771.678 434.181 798.45 468.568 812.091 C 504.733 826.602 545.19 826.111 580.992 810.726 C 615.455 795.804 642.583 767.809 656.412 732.893 C 670.3 696.597 669.33 656.291 653.713 620.705 C 648.57 608.448 640.354 593.99 630.631 585.067 C 639.663 577.347 648.298 569.045 656.948 560.889 C 677.799 588.468 689.214 606.13 697.186 640.973 C 709.285 693.861 696.459 749.745 662.262 791.884 C 632.874 828.336 590.135 851.529 543.556 856.301 C 492.504 861.574 449.314 848.517 408.952 816.771 C 332.166 756.376 323.018 640.819 384.788 565.602 C 415.28 528.241 459.539 504.739 507.569 500.405 z"/>
<path transform="translate(0,0)" fill="rgb(253,253,253)" d="M 715.791 681.52 C 771.582 680.511 830.399 681.043 886.373 681.948 C 896.127 682.106 899.896 691.37 899.677 700.162 C 898.555 745.238 901.187 790.908 899.259 835.823 C 898.958 842.873 892.974 846.99 887.597 850.492 C 878.71 850.885 868.262 850.718 859.25 850.801 C 839.788 851.014 818.615 851.224 799.286 850.185 L 799.085 790.881 C 784.1 789.639 768.041 790.58 752.916 790.602 C 726.647 790.64 700.009 791.23 673.781 790.147 C 691.612 766.933 703.217 739.549 707.496 710.592 C 708.811 701.998 709.176 690.55 710.316 683.922 C 712.615 681.236 711.449 682.034 715.791 681.52 z"/>
<path transform="translate(0,0)" fill="rgb(0,0,0)" d="M 791.897 703.487 C 809.642 703.091 830.335 703.591 848.081 704.208 C 848.96 713.449 850.23 756.478 847.094 763.252 L 845.132 763.6 C 827.328 763.884 806.805 764.234 789.192 763.438 C 788.051 757.03 787.766 709.978 789.643 704.485 L 791.897 703.487 z"/>
<path transform="translate(0,0)" fill="rgb(253,253,253)" d="M 800.463 712.379 C 813.107 711.962 828.302 711.903 840.776 712.676 C 839.689 724.747 841.155 744.186 839.53 754.356 L 838.088 755.256 L 796.955 755.095 C 797.12 747.048 795.808 718.635 797.841 713.329 L 800.463 712.379 z"/>
<path transform="translate(0,0)" fill="rgb(0,0,0)" d="M 854.575 799.708 C 861.146 797.758 868.258 799.519 873.16 804.308 C 878.063 809.098 879.989 816.167 878.193 822.782 C 876.396 829.396 871.16 834.52 864.507 836.172 C 854.537 838.648 844.416 832.708 841.716 822.796 C 839.016 812.884 844.727 802.631 854.575 799.708 z"/>
<path transform="translate(0,0)" fill="rgb(138,194,93)" d="M 855.383 809.597 C 859.777 807.401 865.118 809.171 867.33 813.556 C 869.542 817.942 867.79 823.29 863.413 825.517 C 859.014 827.756 853.632 825.994 851.409 821.586 C 849.186 817.179 850.968 811.804 855.383 809.597 z"/>
<path transform="translate(0,0)" fill="rgb(253,253,253)" d="M 514.711 544.423 C 557.856 541.13 586.238 558.39 618.53 583.739 C 610.683 591.228 598.628 602.458 592.145 610.57 C 581.68 596.218 561.678 586.115 544.732 582.04 C 519.261 576.033 492.448 580.396 470.196 594.168 C 394.973 641.494 412.463 758.598 501.698 777.573 C 528.012 783.204 555.485 778.074 577.994 763.327 C 627.67 730.439 634.954 667.187 602.716 619.182 C 601.109 617.681 601.154 617.715 600.042 615.812 C 602.092 610.941 619.176 596.211 624.724 590.748 C 643.214 614.32 653.944 635.123 657.056 665.539 C 660.913 701.436 650.101 737.368 627.075 765.175 C 603.74 793.625 573.441 809.782 536.765 813.358 C 500.628 817.057 464.523 806.056 436.589 782.834 C 409.729 761.001 392.752 729.305 389.46 694.848 C 382.18 615.735 435.202 551.379 514.711 544.423 z"/>
<path transform="translate(0,0)" fill="rgb(253,253,253)" d="M 513.996 588.369 C 544.627 585.216 564.198 596.77 586.789 614.782 C 579.429 620.122 559.871 638.917 554.147 645.825 C 525.867 616.395 479.001 636.499 475.329 674.545 C 474.216 686.517 477.865 698.445 485.485 707.745 C 502.235 728.045 533.192 732.034 553.378 714.159 C 562.583 706.002 568.084 694.458 568.623 682.17 C 569.185 671.681 566.644 661.991 559.49 654.168 L 558.708 653.322 C 568.723 645.248 584.145 630.012 593.207 620.96 L 599.088 629.378 C 605.516 639.986 609.842 649.626 612.045 661.96 C 616.7 687.112 610.99 713.078 596.213 733.957 C 566.742 775.776 509.247 782.985 468.534 753.394 C 448.352 738.972 435.007 716.869 431.643 692.292 C 428.315 667.98 434.906 643.35 449.934 623.951 C 466.475 602.26 487.402 591.921 513.996 588.369 z"/>
<path transform="translate(0,0)" fill="rgb(253,253,253)" d="M 667.799 799.284 C 705.177 797.888 753.289 798.374 790.668 799.441 C 791.414 814.244 790.779 834.56 790.879 849.915 C 769.42 850.104 747.96 850.17 726.5 850.113 C 684.333 849.857 642.165 849.852 599.998 850.097 C 627.433 838.943 647.971 820.523 667.799 799.284 z"/>
<path transform="translate(0,0)" fill="rgb(138,194,93)" d="M 520.035 641.33 C 531.775 640.604 537.596 644.996 547.307 650.747 C 539.977 656.194 521.997 671.371 519.603 679.852 C 520.191 683.306 519.434 682.053 522.453 684.302 C 523.268 684.369 524.084 684.437 524.899 684.504 C 534.248 678.091 544.866 665.888 553.867 659.309 C 560.058 673.805 561.517 681.647 555.65 696.628 C 537.18 730.868 490.663 719.642 484.179 684.184 C 479.9 660.783 497.05 644.354 520.035 641.33 z"/>
<path transform="translate(0,0)" fill="rgb(138,194,93)" d="M 787.524 436.421 C 799.323 435.471 815.881 436.042 828.164 436.036 C 819.951 444.182 791.378 475.455 782.249 477.024 C 768.152 477.18 754.057 477.499 739.967 477.981 C 749.891 469.599 779.614 440.902 787.524 436.421 z"/>
<path transform="translate(0,0)" fill="rgb(138,194,93)" d="M 781.582 390.953 C 783.36 394.064 781.215 422.945 780.754 427.933 C 765.051 442.302 752.389 455.045 737.319 470.076 C 736.008 467.574 738.443 436.351 738.767 430.629 C 751.636 419.706 767.989 403.092 781.582 390.953 z"/>
<path transform="translate(0,0)" fill="rgb(0,0,0)" d="M 948.497 522.257 C 983.878 519.683 1005.66 544.762 997.904 579.428 C 1004.26 585.257 1019.44 599.459 1015.01 608.38 C 1007.2 613.808 975.078 609.61 964.976 607.919 C 965.887 607.175 966.794 606.426 967.697 605.672 C 978.735 596.457 989.486 583.081 990.676 568.175 C 992.264 548.284 978.516 530.598 957.984 529.947 C 942.916 529.469 935.194 536.687 924.888 546.208 C 916.268 532.125 900.671 532.237 891.053 545.156 C 883.902 554.761 883.92 560.312 885.25 571.771 C 868.59 567.972 849.282 568.972 846.438 591.296 C 845.669 597.331 849.444 601.507 850.996 607.506 C 850.091 610.798 851.032 609.579 848.084 611.288 C 831.102 608.121 832.825 559.907 875.217 560.147 C 881.904 534.259 900.845 519.4 926.507 533.39 C 934.642 526.997 938.571 525.376 948.497 522.257 z"/>
<path transform="translate(0,0)" fill="rgb(240,197,58)" d="M 991.624 586.28 C 995.188 587.932 1004.28 595.571 1002.57 599.981 L 999.25 600.484 L 983.29 600.257 C 985.251 596.101 989.098 590.33 991.624 586.28 z"/>
</svg>