<svg version="1.1" xmlns="http://www.w3.org/2000/svg" style="display: block;" viewBox="0 0 1411 2048" width="372" height="540" preserveAspectRatio="none">
<path transform="translate(0,0)" fill="rgb(253,253,253)" d="M 223.137 61.494 C 263.136 60.3985 305.886 61.3044 345.989 61.3753 L 456.572 61.0913 L 889.963 61.2644 L 1109.51 60.8261 L 1168.27 60.7188 C 1207.02 60.7411 1238.06 63.0479 1268.44 91.146 C 1296.44 117.053 1308.02 154.084 1308.39 191.372 C 1308.78 231.133 1308.65 270.969 1308.65 310.772 L 1308.67 534.538 L 1308.65 1243.2 L 1308.63 1644.27 L 1308.65 1766.94 C 1308.66 1792.05 1309.68 1817.74 1307.29 1842.74 C 1300.49 1914.14 1250.66 1955.7 1180.76 1957.47 C 1094.29 1956.22 1004.99 1957.52 918.315 1957.64 L 499.733 1957.61 L 312.689 1957.47 C 282.098 1957.45 244.94 1958.82 215.143 1955.85 C 192.806 1953.62 162.941 1939.77 146.746 1924.47 C 118.386 1897.68 108.601 1868.24 108.256 1829.93 C 107.827 1782.42 108.35 1734.75 108.209 1687.24 C 107.489 1578.64 107.708 1470.05 108.867 1361.45 C 109.496 1288.6 107.31 1214.66 107.069 1141.56 L 107.866 864.666 L 107.898 429.99 L 107.329 263.998 C 107.203 234.019 106.024 203.71 107.765 173.805 C 111.352 112.213 161.373 63.1797 223.137 61.494 z"/>
<path transform="translate(0,0)" fill="rgb(231,62,62)" d="M 252.347 122.368 C 270.063 121.368 295.049 122.239 313.336 122.269 L 430.496 122.372 L 790.972 122.225 L 1042.68 122.144 L 1116.09 121.91 C 1129.37 121.796 1149.51 121.058 1162.21 122.151 C 1178.01 123.56 1193.13 129.261 1205.93 138.64 C 1224.58 152.335 1244.24 180.377 1246.13 203.013 C 1247.88 224.061 1247.11 250.049 1247.02 271.456 L 1246.73 398.127 L 1246.61 855.294 L 1246.07 1502.57 L 1246.19 1706.86 C 1246.23 1742.17 1246.62 1778.29 1245.81 1813.57 C 1245.5 1827.22 1234.82 1850.08 1226.39 1861.22 C 1209.54 1883.47 1188.78 1891.05 1162.25 1894.9 C 1144.9 1896.83 1117.32 1896.15 1099.1 1896.17 L 994.699 1896.26 L 651.036 1896.17 L 370.768 1896.18 C 335.42 1896.18 299.931 1896.01 264.882 1897.06 C 220.74 1898.38 172.816 1861.02 168.696 1816.02 C 166.395 1790.88 167.108 1763.63 167.138 1738.32 L 167.365 1611.85 L 167.698 1211.72 L 167.041 540.926 L 167.141 320.838 L 167.163 248.961 C 167.185 214.784 164.472 183.943 188.249 155.321 C 206.332 133.553 224.675 125.222 252.347 122.368 z"/>
<path transform="translate(0,0)" fill="rgb(253,253,253)" d="M 302.916 1099.41 C 322.715 1098.67 345.278 1099.22 365.315 1099.24 L 474.495 1099.29 L 815.495 1099.04 L 1015.76 1099.06 L 1078.21 1099.03 C 1110.81 1099.05 1138.82 1096.2 1165.46 1119.37 C 1195.93 1145.87 1190.92 1181.29 1190.81 1217.97 L 1190.76 1291.55 L 1190.5 1540.19 L 1190.98 1690.19 C 1191.02 1712.12 1191.23 1734.07 1190.74 1756.01 C 1189.68 1803 1159.18 1835.23 1111.79 1837.76 L 557.788 1838.14 L 379.035 1838.09 L 325.662 1838.24 C 296.971 1838.36 276.816 1840.44 252.894 1820.73 C 236.058 1807.04 225.501 1787.11 223.642 1765.49 C 222.522 1752.76 223.018 1734.72 223.068 1721.62 L 223.362 1650.68 L 223.901 1427.57 C 224.206 1372.31 224.217 1317.05 223.934 1261.78 L 223.585 1206.93 C 223.5 1193.95 223.01 1181.1 224.368 1168.17 C 228.769 1126.27 263.056 1102.31 302.916 1099.41 z"/>
<path transform="translate(0,0)" fill="rgb(254,204,1)" d="M 421.841 1616.31 C 461.879 1614.57 504.035 1616.35 544.211 1616.27 C 570.568 1616.21 570.399 1637.54 570.136 1657.57 C 569.681 1692.24 571.153 1727.95 569.333 1762.63 C 568.634 1776 560.696 1782.19 548.473 1784.45 C 509.421 1786.53 467.351 1784.34 428.062 1784.64 C 403.202 1784.83 399.922 1769.16 400.165 1747.88 C 400.579 1711.59 399.085 1674 400.859 1637.68 C 401.469 1625.09 410.1 1618.69 421.841 1616.31 z"/>
<path transform="translate(0,0)" fill="rgb(253,253,253)" d="M 484.657 1658.5 C 484.563 1654.48 484.014 1651.65 486.109 1648.36 C 488.893 1646.46 487.443 1646.74 490.537 1647.21 C 494.497 1650.77 493.75 1653.55 493.421 1658.49 C 500.977 1660.2 507.502 1662.44 511.785 1669.62 C 514.405 1674.01 515.003 1679.31 513.426 1684.17 C 511.072 1691.6 506.899 1694.39 500.703 1697.87 C 529.278 1708.67 522.006 1737.43 493.475 1743.02 C 493.393 1748.23 494.396 1753.06 488.738 1754.81 L 486.344 1753.12 C 484.242 1749.82 484.518 1746.91 484.306 1742.92 L 477.853 1742.56 C 477.621 1747.98 478.736 1752.89 473.581 1755.41 C 466.383 1752.65 471.652 1749.33 468.42 1743.6 L 461.74 1741.86 C 459.023 1741.09 460.175 1741.8 458.31 1739.43 C 457.638 1730.24 457.118 1667.95 458.684 1661.5 C 461.179 1659.04 464.14 1659.09 467.772 1658.53 C 470.921 1655.37 468.044 1654.07 470.131 1648.14 C 472.707 1646.51 471.672 1646.96 475.175 1647.11 C 477.583 1649.62 476.446 1652.18 478.406 1657.14 C 481.241 1659.19 480.38 1658.54 484.657 1658.5 z"/>
<path transform="translate(0,0)" fill="rgb(240,240,236)" d="M 461.74 1741.86 C 469.256 1741.16 472.644 1743.59 477.853 1742.56 C 477.621 1747.98 478.736 1752.89 473.581 1755.41 C 466.383 1752.65 471.652 1749.33 468.42 1743.6 L 461.74 1741.86 z"/>
<path transform="translate(0,0)" fill="rgb(240,240,236)" d="M 484.657 1658.5 C 484.563 1654.48 484.014 1651.65 486.109 1648.36 C 488.893 1646.46 487.443 1646.74 490.537 1647.21 C 494.497 1650.77 493.75 1653.55 493.421 1658.49 C 489.784 1658.13 488.318 1658.22 484.657 1658.5 z"/>
<path transform="translate(0,0)" fill="rgb(240,240,236)" d="M 484.306 1742.92 L 493.475 1743.02 C 493.393 1748.23 494.396 1753.06 488.738 1754.81 L 486.344 1753.12 C 484.242 1749.82 484.518 1746.91 484.306 1742.92 z"/>
<path transform="translate(0,0)" fill="rgb(254,204,1)" d="M 469.945 1704.13 C 480.762 1704.13 494.084 1703.15 503.21 1710.04 C 509.823 1715.02 506.14 1724.16 501.458 1729.12 C 492.357 1733.87 479.953 1732.94 469.758 1732.93 L 469.945 1704.13 z"/>
<path transform="translate(0,0)" fill="rgb(254,204,1)" d="M 469.961 1668.11 C 481.469 1668.32 516.109 1669.29 497.861 1690.4 C 489.31 1695.27 479.752 1694.1 469.776 1694.12 L 469.961 1668.11 z"/>
<path transform="translate(0,0)" fill="rgb(0,0,0)" d="M 966.784 1630.23 C 1036.34 1622.6 1026.95 1745.25 958.228 1757.83 C 888.8 1763.57 904.561 1655.76 950.069 1635.38 C 956.463 1632.51 959.809 1631.62 966.784 1630.23 z"/>
<path transform="translate(0,0)" fill="rgb(253,253,253)" d="M 966.295 1657.09 C 994.117 1657.29 985.942 1720.86 958.376 1731.19 C 930.617 1728.82 940.973 1665.35 966.295 1657.09 z"/>
<path transform="translate(0,0)" fill="rgb(0,0,0)" d="M 860.952 1630.21 C 870.876 1629.29 882.111 1629.94 890.268 1635.94 C 918.422 1656.66 911.173 1706.17 893.639 1731.22 C 882.803 1746.69 871.18 1754.46 853.547 1757.79 C 785.098 1764.68 798.965 1659.49 841.701 1637.13 C 849.268 1633.18 852.463 1632.22 860.952 1630.21 z"/>
<path transform="translate(0,0)" fill="rgb(253,253,253)" d="M 861.578 1657.09 C 888.423 1657.44 881.055 1720.06 853.381 1731.15 C 824.867 1728.97 835.963 1664.42 861.578 1657.09 z"/>
<path transform="translate(0,0)" fill="rgb(0,0,0)" d="M 753.036 1630.14 C 757.016 1629.69 761.029 1629.59 765.027 1629.85 C 786.581 1631.45 804.239 1646.75 801.864 1669.48 C 799.169 1695.26 773.657 1712.12 755.178 1727.55 C 767.834 1727.08 781.203 1727.34 793.915 1727.46 C 792.322 1735.08 790.987 1745.89 789.769 1753.82 L 702.75 1753.74 L 696.591 1753.59 L 695.61 1752.51 C 714.176 1728.3 755.723 1705.99 767.764 1676.08 C 775.846 1656.01 746.394 1644.67 742.475 1673.9 L 742.297 1675.27 L 708.28 1675.3 C 716.663 1649.44 725.782 1636.5 753.036 1630.14 z"/>
<path transform="translate(0,0)" fill="rgb(0,0,0)" d="M 757.284 1454.15 L 782.451 1454.35 C 785.771 1471.81 793.124 1490.22 796.794 1510.53 C 800.641 1493.26 807.729 1472.3 812.406 1454.36 C 820.964 1454.47 829.753 1454.35 838.332 1454.34 C 838.092 1487.06 838.299 1519.79 838.953 1552.51 C 832.406 1552.68 825.141 1552.38 818.539 1552.26 C 819.052 1540.35 818.9 1528.19 818.881 1516.25 C 818.427 1508.92 818.92 1499.31 819.096 1491.8 C 815.931 1502.11 813.246 1512.52 810.164 1522.82 C 808.027 1529.96 804.65 1547.64 796.293 1548.57 C 787.348 1543.45 778.449 1505.47 775.02 1493.72 C 775.522 1513.78 775.152 1532 774.699 1552.08 C 768.28 1552.24 761.609 1552.18 755.166 1552.22 L 757.284 1454.15 z"/>
<path transform="translate(0,0)" fill="rgb(0,0,0)" d="M 649.9 1307.63 C 667.756 1307.44 692.672 1304.72 705.841 1319.02 C 712.322 1326.06 713.598 1336.02 712.877 1345.23 C 711.996 1356.48 706.714 1361.58 698.534 1368.64 C 704.478 1383.24 708.528 1393.43 716.549 1406.84 C 708.231 1407.48 700.874 1407.77 692.533 1407.95 C 687.682 1399.59 682.211 1376.72 674.226 1372.54 L 672.639 1373.4 C 670.269 1379.86 671.531 1399.62 671.805 1407.6 L 649.879 1407.79 L 649.9 1307.63 z"/>
<path transform="translate(0,0)" fill="rgb(253,253,253)" d="M 671.953 1326.69 C 676.099 1326.97 681.385 1327.19 685.042 1329.36 C 693.438 1334.36 692.882 1343.88 687.563 1351.1 C 680.828 1353.14 678.406 1353.65 671.414 1354.42 C 671.293 1344.55 671.169 1336.51 671.953 1326.69 z"/>
<path transform="translate(0,0)" fill="rgb(0,0,0)" d="M 962.335 1453.33 C 968.999 1453.5 976.037 1453.4 982.734 1453.41 L 983.163 1553.11 L 968.251 1553.26 C 966.941 1553.35 965.528 1553.52 964.251 1553.16 C 960.411 1552.07 941.882 1503.11 938 1495.31 C 938.965 1513.18 938.496 1535.07 938.384 1553.06 C 931.719 1553.2 924.586 1553.03 917.88 1553 C 917.759 1519.91 917.843 1486.83 918.133 1453.75 L 927.827 1453.51 L 938.812 1453.64 C 947.834 1471.47 955.407 1490.37 962.584 1509.03 C 961.686 1491.27 961.845 1471.03 962.335 1453.33 z"/>
<path transform="translate(0,0)" fill="rgb(0,0,0)" d="M 873.513 1308.09 C 880.241 1307.64 889.816 1307.83 896.783 1307.79 C 888.418 1321.83 879.315 1335.84 870.817 1350 C 879.005 1364.28 890.931 1392.37 898.243 1408.27 C 890.69 1407.99 882.04 1408.16 874.39 1408.16 C 869.912 1395.42 862.738 1381.95 857.818 1368.44 C 854.974 1373.35 853.179 1376.96 850.794 1382.13 C 849.386 1388.96 849.368 1401.08 849.575 1408.09 L 828.627 1407.92 C 829.719 1376.94 829.073 1340.35 828.87 1309.19 L 849.823 1308.93 C 850.243 1322.55 850.597 1336.82 849.632 1350.38 C 857.355 1336.15 865.316 1322.05 873.513 1308.09 z"/>
<path transform="translate(0,0)" fill="rgb(0,0,0)" d="M 526.795 1307.92 C 533.888 1308.26 541.607 1308.27 548.758 1308.41 C 556.268 1336.82 566.911 1381.22 576.239 1408.11 C 568.631 1408.22 561.022 1408.21 553.415 1408.07 C 552.205 1401.97 551.212 1397.1 549.482 1391.09 C 541.193 1390.99 533.331 1391.26 525.056 1391.54 C 523.663 1397.14 522.87 1402.29 521.953 1407.96 L 498.882 1408.23 C 502.296 1399.58 506.597 1382.05 509.168 1372.44 C 514.795 1350.86 520.671 1329.36 526.795 1307.92 z"/>
<path transform="translate(0,0)" fill="rgb(253,253,253)" d="M 537.554 1339.74 L 538.437 1340.65 C 540.007 1346.56 545.948 1368.92 543.651 1373.42 L 540.249 1373.86 C 536.694 1373.81 532.635 1374.27 530.378 1372.01 C 531.157 1364.28 535.562 1347.95 537.554 1339.74 z"/>
<path transform="translate(0,0)" fill="rgb(0,0,0)" d="M 374.513 1453.22 C 381.649 1453.07 389.634 1453.52 396.829 1453.77 C 405.626 1486.62 413.555 1521.17 425.446 1552.81 L 402.314 1552.99 C 400.911 1545.68 399.916 1542.21 397.479 1535.16 C 388.826 1534.84 381.917 1535.11 373.289 1535.49 C 372.179 1541.32 371.154 1547.17 370.214 1553.03 C 363.146 1553.3 354.943 1552.97 347.793 1552.86 C 356.029 1523.77 368.425 1481.97 374.513 1453.22 z"/>
<path transform="translate(0,0)" fill="rgb(253,253,253)" d="M 382.45 1500.06 C 384.421 1492.2 385.339 1486.66 386.548 1478.69 C 387.442 1485.45 388.293 1493.47 389.583 1500.08 C 391.035 1505.16 392.444 1512.06 393.69 1517.34 L 377.563 1517.12 C 379.088 1511 380.498 1506.07 382.45 1500.06 z"/>
<path transform="translate(0,0)" fill="rgb(240,240,236)" d="M 382.45 1500.06 C 384.421 1492.2 385.339 1486.66 386.548 1478.69 C 387.442 1485.45 388.293 1493.47 389.583 1500.08 C 388.188 1503.08 387.858 1503.44 385.538 1505.82 L 383.979 1505.37 C 383.827 1502.83 383.632 1502.32 382.45 1500.06 z"/>
<path transform="translate(0,0)" fill="rgb(0,0,0)" d="M 853.949 1453.78 L 905.528 1453.57 L 905.546 1472.68 L 875.217 1473.09 C 875.312 1479.64 875.546 1486.25 875.727 1492.8 L 901.826 1492.8 L 901.769 1511.08 C 892.848 1511.13 883.93 1511.47 875.031 1512.11 L 875.164 1526.25 C 875.065 1529.04 874.941 1529.36 875.886 1531.92 C 881.265 1534.73 898.646 1533.47 906.601 1533.69 L 906.713 1552.77 C 888.975 1552.88 871.237 1552.88 853.5 1552.79 C 854.437 1520.17 853.588 1486.57 853.949 1453.78 z"/>
<path transform="translate(0,0)" fill="rgb(0,0,0)" d="M 561.027 1453.49 C 577.537 1454.04 596.097 1453.72 612.769 1453.8 L 612.61 1472.87 C 602.651 1473.27 592.134 1473.29 582.125 1473.47 L 582.279 1492.92 C 591.3 1493.01 600.398 1492.93 609.425 1492.92 L 609.08 1511.21 C 600.079 1511.89 591.016 1511.84 581.987 1511.92 L 582.038 1529.25 L 582.209 1531.99 C 585.956 1535.66 606.347 1534.32 612.848 1534.29 L 613.915 1553.08 L 561.243 1553.05 C 561.401 1531.49 561.299 1509.92 560.94 1488.35 C 560.822 1479.38 560.134 1461.55 561.027 1453.49 z"/>
<path transform="translate(0,0)" fill="rgb(0,0,0)" d="M 784.189 1307.31 C 793.488 1306.66 812.522 1309.48 815.571 1319.66 C 814.548 1325.14 808.146 1329.58 803.666 1333.26 C 772.473 1314.59 773.495 1343.72 801.619 1352.73 C 818.726 1358.21 822.231 1382.53 813.583 1396.32 C 808.134 1405.01 799.141 1408.21 789.381 1410.12 C 778.846 1409.82 764.135 1407.63 757.799 1398.01 C 757.498 1394.96 758.008 1393.64 759.588 1391.15 C 769.365 1371.96 779.394 1395.33 790.151 1389.97 C 805.389 1381.94 790.019 1370.86 781.162 1366.88 C 750.492 1353.12 749.509 1316.81 784.189 1307.31 z"/>
<path transform="translate(0,0)" fill="rgb(0,0,0)" d="M 448.994 1452.31 C 465.681 1451.03 471.781 1453.03 484.969 1463.62 C 481.954 1467.6 475.676 1473.99 471.926 1478.5 C 465.09 1473.77 455.296 1467.61 448.532 1476.26 C 445.099 1493.22 481.555 1495.62 484.587 1513.25 C 488.471 1535.84 480.362 1548.42 459.408 1554.14 C 450.064 1554.49 430.345 1553.03 426.397 1542.98 C 425.842 1538.27 431.821 1531.19 434.758 1527.29 C 442.526 1528.9 454.998 1539.24 463.803 1531.61 C 470.062 1513 430.742 1509.35 427.207 1490.54 C 423.658 1471.65 430.746 1457.98 448.994 1452.31 z"/>
<path transform="translate(0,0)" fill="rgb(0,0,0)" d="M 645.182 1452.28 L 645.987 1452.22 C 663.121 1450.88 688.522 1457.53 668.81 1478.33 C 661.796 1475.31 653.505 1469.28 646.122 1474.13 C 634.636 1489.23 664.802 1494.39 671.139 1501.22 C 692.007 1523.73 676.305 1552.95 647.534 1554.72 C 639.599 1554.09 622.312 1549.88 619.31 1541.52 C 620.291 1539.13 630.289 1527.27 632.152 1526.82 C 639.248 1531.98 653.324 1540.99 657.619 1529.48 C 663.467 1513.8 624.899 1508.35 621.764 1488.56 C 618.685 1469.12 628.552 1457.25 645.182 1452.28 z"/>
<path transform="translate(0,0)" fill="rgb(0,0,0)" d="M 712.9 1452.29 C 725.75 1451.88 734.95 1455.61 744.733 1463.76 C 741.525 1470.74 738.493 1473.84 733.239 1479.31 C 731.532 1478.04 729.537 1476.54 727.718 1475.45 C 723.016 1472.65 717.334 1472.01 712.128 1473.7 C 709.032 1474.69 709.083 1475.35 708.131 1477.59 C 710.187 1492.5 737.489 1497.64 742.089 1508.41 C 752.264 1532.25 738.197 1553.67 712.863 1554.24 C 700.135 1552.98 693.16 1549.91 683.358 1542.02 C 687.953 1536.57 692.448 1531.04 696.842 1525.43 C 711.472 1540.18 730.842 1533.88 720.727 1519.29 C 715.754 1512.12 689.341 1504.84 687.323 1489.53 C 684.721 1469.78 694.735 1456.42 712.9 1452.29 z"/>
<path transform="translate(0,0)" fill="rgb(0,0,0)" d="M 516.055 1452.36 C 525.422 1451.46 547.047 1454.39 547.705 1466.12 C 545.947 1470.45 539.946 1476.23 536.565 1479.88 C 531.005 1473.21 520.681 1469.01 513.798 1475.86 C 509.093 1492.83 547.802 1496.21 550.047 1516.2 C 552.551 1538.49 543.795 1550.23 522.307 1554.34 C 507.999 1554.35 500.312 1550.16 488.688 1542.32 C 493.771 1536.18 496.476 1533.06 500.205 1525.96 C 501.144 1526.63 502.103 1527.28 503.08 1527.89 C 509.447 1531.93 522.697 1538.86 527.614 1530.01 C 532.949 1518.32 511.265 1511 504.131 1504.9 C 483.267 1487.07 489.446 1459.8 516.055 1452.36 z"/>
<path transform="translate(0,0)" fill="rgb(0,0,0)" d="M 993.089 1453.14 L 1053.79 1453.31 L 1053.76 1473.06 L 1033.81 1472.85 C 1033.97 1492.95 1034.01 1513.05 1033.93 1533.15 L 1033.88 1553.96 L 1013.07 1553.9 C 1012.66 1526.85 1012.58 1499.8 1012.84 1472.75 C 1006.21 1472.66 999.476 1472.71 992.842 1472.71 C 992.667 1466.4 992.955 1459.49 993.089 1453.14 z"/>
<path transform="translate(0,0)" fill="rgb(0,0,0)" d="M 726.11 1307.95 C 732.865 1308.08 740.27 1307.85 747.079 1307.78 L 747.123 1372.26 C 747.127 1382.38 747.577 1397.54 746.861 1407.08 L 726.058 1407.11 C 725.311 1374.06 725.328 1341 726.11 1307.95 z"/>
<path transform="translate(0,0)" fill="rgb(0,0,0)" d="M 583.402 1307.87 C 590.166 1307.8 597.229 1308.05 604.015 1308.2 C 604.445 1341.32 604.501 1374.44 604.184 1407.57 L 583.37 1407.8 C 582.927 1374.86 583.295 1340.86 583.402 1307.87 z"/>
<path transform="translate(0,0)" fill="rgb(0,0,0)" d="M 615.983 421.245 C 735.585 423.874 856.826 421.003 976.568 421.916 C 1003.71 422.124 1030.52 421.047 1057.59 420.877 C 1068.96 420.806 1089.23 420.107 1099.84 422.165 C 1100.49 450.402 1099.53 478.307 1099.39 506.464 L 1099.43 661.318 C 1099.55 685.667 1098.49 730.147 1100.75 752.543 C 1083.41 753.793 1054.17 752.999 1035.88 753.189 C 1031.87 773.943 1025.5 785.5 1016.18 804.094 C 1024.52 811.022 1037.75 814.971 1043.25 820.163 C 1063.91 839.685 1085.35 862.584 1104.75 883.315 C 1113.82 893.019 1113.43 908.614 1104.06 917.812 C 1079.46 941.954 1062.09 917.344 1045.03 899.558 C 1029.11 883.029 1013.98 869.118 1000.71 851.307 C 999.544 839.571 999.054 837.611 992.153 827.757 C 980.769 832.528 969.979 838.827 957.746 841.444 C 896.524 854.539 843.009 822.07 828.193 761.576 C 827.656 758.426 827.575 755.725 825.691 753.261 C 819.37 752.189 810.636 752.788 804.061 752.696 C 788.533 752.48 772.312 753.423 756.859 752.189 C 743.939 767.307 740.768 769.48 722.96 776.494 C 720.414 789.807 714.906 802.376 706.843 813.272 C 678.726 850.609 635.898 849.41 594.289 849.315 L 525.453 849.066 C 502.187 849.03 451.672 851.174 432.166 847.631 C 415.765 844.52 400.286 837.72 386.9 827.745 C 368.981 814.113 360.292 797.85 357.38 775.75 C 335.517 767.384 318.889 756.916 319.837 730.491 C 320.372 715.598 318.099 696.09 320.463 681.628 C 321.299 676.281 323.16 671.147 325.944 666.507 C 333.205 654.557 344.634 648.484 357.811 645.228 C 358.001 643.924 358.224 642.625 358.478 641.332 C 365.366 606.395 387.812 589.745 415.044 571.483 C 414.788 545.448 414.876 519.412 415.308 493.38 C 411.307 491.002 407.35 488.894 404.179 485.29 C 390.954 470.171 405.903 449.501 423.937 451.633 C 436.789 453.153 441.215 466.125 439.55 477.323 C 438.356 485.35 430.314 490.164 424.143 494.321 C 422.982 518.087 423.969 544.814 423.379 569.304 C 449.777 555.25 484.769 544.041 514.607 545.909 C 545.655 547.854 587.458 540.384 615.429 554.728 C 615.041 510.233 615.225 465.735 615.983 421.245 z"/>
<path transform="translate(0,0)" fill="rgb(253,253,253)" d="M 604.735 560.209 C 637.321 568.189 686.659 589.413 705.201 618.785 C 709.429 625.483 711.495 632.515 712.471 640.343 C 714.474 656.409 713.738 773.074 710.692 785.526 C 706.431 802.941 694.338 816.187 679.306 825.33 C 668.165 832.187 655.726 836.662 642.771 838.476 C 623.411 841.206 574.034 839.939 552.559 839.97 L 486.428 840.083 C 468.391 840.103 443.693 841.084 426.505 836.903 C 419.47 834.827 412.713 832.328 406.192 828.944 C 389.654 820.362 375.333 806.861 369.879 788.62 C 365.081 772.576 365.607 664.688 368.078 645.037 C 369.125 636.705 371.486 628.77 375.531 621.388 C 395.177 585.535 437.487 571.227 474.233 560.562 C 477.438 572.884 488.239 611.111 500.897 612.517 C 521.483 614.805 564.622 617.026 584.208 610.678 C 593.978 607.511 602.65 569.725 604.735 560.209 z"/>
<path transform="translate(0,0)" fill="rgb(0,0,0)" d="M 470.204 640.428 C 472.847 640.313 475.491 640.223 478.136 640.158 C 503.777 639.569 531.985 640.302 557.724 640.15 C 575.589 640.045 613.963 639.399 629.898 643.159 C 638.935 645.342 647.222 649.91 653.894 656.384 C 663.865 666.117 669.532 679.432 669.634 693.365 C 669.784 707.078 664.424 720.278 654.756 730.004 C 642.208 742.783 630.667 744.595 613.949 744.598 C 565.063 743.238 515.855 744.46 466.949 743.969 C 452.717 743.826 440.178 742.991 428.852 733.487 C 418.231 724.416 411.71 711.451 410.76 697.515 C 407.984 659.7 436.259 642.421 470.204 640.428 z"/>
<path transform="translate(0,0)" fill="rgb(142,193,96)" d="M 460.402 649.639 C 486.107 646.829 525.171 649.523 552.225 648.933 C 575.374 649.542 598.584 647.615 621.617 650.105 C 642.978 652.414 658.617 669.654 660.658 690.398 C 661.762 701.608 658.303 712.79 651.061 721.419 C 642.407 731.693 632.259 734.547 619.524 735.76 C 567.015 736.539 511.441 733.98 458.732 734.501 C 413.093 734.952 399.156 661.296 460.402 649.639 z"/>
<path transform="translate(0,0)" fill="rgb(0,0,0)" d="M 454.335 669.668 C 467.31 665.968 480.824 673.507 484.493 686.491 C 488.163 699.475 480.593 712.972 467.6 716.611 C 454.65 720.238 441.207 712.699 437.55 699.757 C 433.893 686.815 441.401 673.355 454.335 669.668 z"/>
<path transform="translate(0,0)" fill="rgb(203,200,138)" d="M 459.514 677.533 C 467.822 676.527 475.39 682.401 476.477 690.699 C 477.563 698.997 471.762 706.621 463.474 707.787 C 455.074 708.969 447.323 703.071 446.221 694.659 C 445.12 686.248 451.092 678.554 459.514 677.533 z"/>
<path transform="translate(0,0)" fill="rgb(0,0,0)" d="M 612.788 669.62 C 625.7 666.619 638.607 674.627 641.652 687.529 C 644.697 700.431 636.732 713.366 623.841 716.454 C 610.887 719.557 597.878 711.546 594.818 698.582 C 591.759 685.619 599.814 672.636 612.788 669.62 z"/>
<path transform="translate(0,0)" fill="rgb(203,200,138)" d="M 616.348 678.473 C 624.254 677.122 631.816 682.256 633.478 690.102 C 635.139 697.949 630.307 705.707 622.532 707.677 C 617.223 709.021 611.604 707.353 607.889 703.328 C 604.174 699.304 602.959 693.569 604.724 688.384 C 606.489 683.199 610.95 679.396 616.348 678.473 z"/>
<path transform="translate(0,0)" fill="rgb(0,0,0)" d="M 489.819 776.093 C 520.86 774.708 559.227 775.767 590.722 776.108 C 590.834 787.795 590.896 799.242 588.635 810.757 C 577.807 812.415 498.428 813.331 493.225 808.691 C 489.474 801.104 490.023 785.216 489.819 776.093 z"/>
<path transform="translate(0,0)" fill="rgb(253,253,253)" d="M 498.611 784.893 L 582.733 785.119 L 581.968 802.636 C 577.99 803.257 563.295 803.026 558.807 803.007 C 539.239 802.821 519.674 802.479 500.112 801.982 L 498.611 784.893 z"/>
<path transform="translate(0,0)" fill="rgb(253,253,253)" d="M 762.745 467.496 L 1090.32 468.25 C 1092.43 558.972 1090.45 653.083 1091.06 744.194 C 1072.79 744.063 1054.52 743.752 1036.25 743.259 C 1036.7 703.913 1021.95 679.131 993.129 653.934 C 997.591 654.594 1006.51 654.662 1009.75 656.214 L 1010.78 660.376 L 1012.58 660.474 C 1013.88 658.623 1014.45 657.892 1015.96 656.207 C 1021.41 655.347 1042.49 656.167 1049.67 656.136 C 1050.13 638.897 1050.56 616.306 1049.46 599.333 C 1036.12 598.878 1021.63 599.091 1008.21 599.032 C 1008.65 587.855 1008.38 577.628 1008.09 566.433 C 1024.07 566.022 1040.07 565.956 1056.05 566.236 C 1055.88 547.351 1056.29 527.892 1056.47 508.964 C 1025.03 509.616 976.786 507.392 946.842 510.203 C 945.599 524.695 946.016 551.716 946.238 566.792 C 961.874 565.573 983.465 566.092 999.283 566.392 C 999.195 577.226 999.263 588.059 999.487 598.891 L 957.154 599.222 C 956.9 612.44 956.793 625.662 956.835 638.883 C 941.672 635.724 933.629 635.998 918.108 636.082 C 920.661 608.006 919.034 555.635 918.87 526.13 C 918.228 517.842 917.947 512.908 908.311 512.426 C 878.183 510.921 847.383 511.913 817.259 510.321 C 815.063 526.627 812.473 647.117 818.459 654.884 C 820.137 657.061 859.656 655.834 865.487 655.802 C 859.165 662.242 850.279 672.429 845.143 679.673 C 835.19 678.002 792.181 675.316 784.258 679.418 C 783.184 682.923 784.256 709.54 784.331 714.84 C 799.28 714.768 814.227 714.584 829.173 714.29 C 826.308 725.295 825.932 733.569 825.628 744.708 C 805.425 743.615 780.335 744.184 759.713 744.042 C 760.274 707.936 771.004 652.908 723.258 645.968 C 721.584 636.346 719.041 624.011 714.21 615.537 C 711.601 610.959 707.271 607.431 705.601 602.24 C 708.047 597.506 712.717 596.21 717.738 597.607 C 721.619 602.147 718.03 606.21 720.705 611.451 C 726.356 622.523 747.184 617.387 756.034 613.693 C 757.351 609.617 756.815 602.105 756.727 597.492 C 760.374 600.306 764.148 604.215 767.485 607.489 C 773.302 603.873 775.656 602.668 782.273 600.3 C 787.16 593.235 788.588 590.522 792.227 582.907 L 783.618 573.641 C 791.492 571.531 799.496 570.29 797.113 559.643 C 793.622 544.055 787.534 529.544 778.102 516.617 C 769.027 504.18 764.492 520.231 756.616 519.014 C 754.928 514.961 754.716 506.49 754.361 501.752 C 744.287 500.95 732.566 501.152 722.493 501.965 C 723.159 507.746 725.974 518.195 718.296 519.094 C 714.044 517.632 711.278 513.968 708.137 510.622 C 700.06 516.627 695.077 520.476 688.846 528.366 C 690.494 532.715 692.855 536.816 695.058 540.923 C 690.685 540.755 686.478 540.158 682.488 541.666 C 680.09 547.966 679.499 562.042 680.916 568.998 C 683.613 573.116 690.553 574.604 695.233 575.945 C 692.044 580.003 690.409 582.461 687.706 586.872 C 679.318 580.749 668.531 575.341 659.146 570.933 C 658.348 544.165 658.153 517.382 658.562 490.605 C 659.346 490.255 660.117 489.875 660.872 489.465 C 670.3 484.335 673.875 478.9 676.846 468.865 C 705.475 468.185 734.109 467.729 762.745 467.496 z"/>
<path transform="translate(0,0)" fill="rgb(253,253,253)" d="M 923.862 644.162 C 977.055 640.207 1023.34 680.214 1027.13 733.419 C 1030.92 786.624 990.765 832.785 937.549 836.406 C 884.568 840.01 838.656 800.075 834.885 747.106 C 831.114 694.137 870.905 648.099 923.862 644.162 z"/>
<path transform="translate(0,0)" fill="rgb(0,0,0)" d="M 916.438 667.1 C 956.878 659.128 996.092 685.554 1003.88 726.03 C 1011.67 766.505 985.07 805.599 944.56 813.208 C 904.308 820.767 865.515 794.37 857.774 754.152 C 850.033 713.933 876.255 675.022 916.438 667.1 z"/>
<path transform="translate(0,0)" fill="rgb(142,193,96)" d="M 920.913 674.934 C 944.551 671.467 968.227 680.984 982.89 699.846 C 997.553 718.708 1000.94 743.999 991.747 766.052 C 982.558 788.105 962.217 803.511 938.498 806.38 C 902.463 810.739 869.62 785.316 864.807 749.339 C 859.994 713.362 884.999 680.2 920.913 674.934 z"/>
<path transform="translate(0,0)" fill="rgb(0,0,0)" d="M 920.361 714.214 C 970.359 710.903 950.86 768.678 934.803 762.838 C 927.197 760.577 920.415 764.067 912.379 759.501 C 906.5 756.161 901.839 751.579 899.946 744.901 C 898.26 738.979 898.99 732.63 901.975 727.246 C 906.508 719.073 911.916 716.726 920.361 714.214 z"/>
<path transform="translate(0,0)" fill="rgb(142,193,96)" d="M 922.536 721.93 C 941.973 719.435 952.584 749.127 932.249 752.089 C 930.129 752.296 922.972 753.076 921.464 752.437 C 902.217 744.284 909.373 729.545 922.536 721.93 z"/>
<path transform="translate(0,0)" fill="rgb(0,0,0)" d="M 952.508 692.91 C 967.782 698.082 961.196 707.52 953.049 715.463 C 938.141 711.476 943.08 700.116 952.508 692.91 z"/>
<path transform="translate(0,0)" fill="rgb(0,0,0)" d="M 968.025 752.429 C 980.846 754.977 981.014 768.663 971.954 775.724 C 961.195 772.087 959.878 760.592 968.025 752.429 z"/>
<path transform="translate(0,0)" fill="rgb(0,0,0)" d="M 955.931 716.51 C 965.945 715.819 961.187 721.395 967.372 723.152 L 969.034 722.061 C 972.938 719.523 974.583 717.649 978.636 718.508 C 980.144 721.079 979.778 721.77 979.421 724.93 C 968.993 737.617 955.145 729.178 955.931 716.51 z"/>
<path transform="translate(0,0)" fill="rgb(0,0,0)" d="M 945.896 766.955 C 949.016 765.244 952.928 766.255 954.828 769.263 C 956.728 772.272 955.96 776.239 953.075 778.321 C 951.043 779.786 948.366 780.003 946.125 778.884 C 943.884 777.764 942.45 775.493 942.402 772.988 C 942.354 770.484 943.7 768.16 945.896 766.955 z"/>
<path transform="translate(0,0)" fill="rgb(0,0,0)" d="M 886.637 696.529 C 893.572 699.839 895.059 703.846 894.208 711.2 C 885.372 710.79 885.695 703.39 886.637 696.529 z"/>
<path transform="translate(0,0)" fill="rgb(253,253,253)" d="M 970.49 430.5 L 1090.5 429.557 C 1090.88 439.494 1090.9 449.441 1090.54 459.378 L 735.113 458.838 L 674.237 458.662 C 645.366 432.735 637.913 465.43 627.168 460.45 C 623.635 454.031 624.959 439.002 625.128 431.237 C 664.939 429.895 708.325 430.86 748.478 430.876 L 970.49 430.5 z"/>
<path transform="translate(0,0)" fill="rgb(0,0,0)" d="M 1057.11 438.541 C 1060.48 436.609 1064.77 437.712 1066.79 441.029 C 1068.81 444.345 1067.82 448.667 1064.56 450.774 C 1062.37 452.187 1059.59 452.301 1057.29 451.073 C 1055 449.844 1053.55 447.465 1053.51 444.861 C 1053.47 442.257 1054.85 439.837 1057.11 438.541 z"/>
<path transform="translate(0,0)" fill="rgb(0,0,0)" d="M 1026.4 438.658 C 1032.15 438.694 1033.92 438.317 1037.29 443.284 C 1037.62 446.906 1037.44 447.321 1035.72 450.543 C 1030.65 450.57 1027.81 451.332 1024.33 447.128 C 1023.76 443.37 1024.77 442.002 1026.4 438.658 z"/>
<path transform="translate(0,0)" fill="rgb(253,253,253)" d="M 825.644 519.881 C 841.578 520.943 860.502 520.727 876.731 520.898 C 866.671 546.96 876.564 543.509 899.451 543.288 C 902.927 543.254 906.585 543.176 910.078 543.122 L 909.798 619.042 C 906.51 618.674 901.691 617.998 898.51 618.077 C 874.015 618.689 849.248 618.973 824.769 619.991 C 825.655 586.97 824.803 553.325 825.644 519.881 z"/>
<path transform="translate(0,0)" fill="rgb(0,0,0)" d="M 855.282 548.196 C 867.475 549.812 911.42 576.901 890.255 584.151 C 878.716 582.099 866.758 556.75 853.59 559.668 C 846.345 564.846 846.141 583.156 850.585 590.696 C 860.041 601.135 859.141 594.329 869.288 594.231 C 877.227 597.389 878.806 607.565 872.516 611.989 C 866.674 611.003 869.853 610.272 863.989 607.001 C 860.421 608.902 861.217 610.74 857.963 614.966 L 856.537 614.304 C 852.35 606.699 850.922 603.686 847.934 595.453 C 842.123 592.931 838.5 591.811 837.252 585.232 C 834.039 568.294 836.972 552.844 855.282 548.196 z"/>
<path transform="translate(0,0)" fill="rgb(253,253,253)" d="M 714.937 529.825 C 717.037 529.314 723.787 527.685 725.208 526.636 C 733.219 520.723 732.356 511.787 743.365 511.107 C 746.121 513.445 746.887 524.002 751.557 527.284 C 758.469 532.142 767.987 526.058 775.08 527.979 L 775.795 529.832 C 773.697 534.262 769.112 540.328 770.051 544.301 C 771.86 551.958 788.604 555.393 788.114 561.487 C 780.748 564.241 777.924 560.842 773.076 570.548 C 771.51 573.686 769.975 578.227 768.77 581.612 C 772.277 583.282 775.888 584.392 777.716 587.559 C 777.344 591.089 778.078 589.662 775.514 592.023 C 769.263 592.799 751.147 586.225 748.53 593.609 C 743.083 608.976 750.224 605.644 730.635 606.732 L 729.33 605.472 C 729.904 602.161 730.384 598.835 730.77 595.497 C 722.417 590.939 715.663 588.057 706.9 584.319 L 704.685 584.243 L 703.627 582.213 C 706.956 559.732 693.862 567.808 689.509 559.862 C 690.639 550.551 704.327 554.362 705.033 544.308 C 705.442 538.476 701.131 532.344 702.322 527.139 C 706.684 524.558 710.684 527.661 714.937 529.825 z"/>
<path transform="translate(0,0)" fill="rgb(0,0,0)" d="M 732.608 533.456 C 741.666 531.542 751.048 534.711 757.09 541.727 C 763.131 548.743 764.873 558.491 761.636 567.165 C 758.398 575.839 750.694 582.062 741.534 583.404 C 727.971 585.39 715.281 576.249 712.87 562.755 C 710.458 549.261 719.196 536.29 732.608 533.456 z"/>
<path transform="translate(0,0)" fill="rgb(253,253,253)" d="M 733.808 542.378 C 739.404 540.754 745.441 542.261 749.616 546.326 C 753.792 550.39 755.461 556.385 753.987 562.022 C 752.512 567.659 748.123 572.07 742.492 573.57 C 733.92 575.855 725.105 570.815 722.726 562.269 C 720.346 553.722 725.288 544.852 733.808 542.378 z"/>
<path transform="translate(0,0)" fill="rgb(253,253,253)" d="M 497.234 555.565 C 525.473 554.018 567.695 554.572 596.123 556.094 C 592.77 573.925 590.213 588.861 578.588 603.482 C 570.691 606.325 512.379 605.128 502.05 603.686 C 490.929 589.579 487.36 573.521 482.665 556.621 L 497.234 555.565 z"/>
<path transform="translate(0,0)" fill="rgb(253,253,253)" d="M 1033.85 823.763 C 1053.01 839.744 1082.66 872.041 1099.97 891.29 C 1109.26 901.625 1095.6 919.633 1078.28 918.764 C 1065.02 910.712 1020.52 862.348 1007.78 848.811 C 1018.41 839.881 1024.97 834.614 1033.85 823.763 z"/>
<path transform="translate(0,0)" fill="rgb(142,193,96)" d="M 954.765 518.445 C 982.344 517.026 1019.63 517.88 1047.95 517.801 C 1047.3 530.993 1048.11 544.752 1047.61 558.199 C 1017.51 556.768 985.134 557.421 954.926 557.644 L 954.765 518.445 z"/>
<path transform="translate(0,0)" fill="rgb(253,253,253)" d="M 966.443 608.794 C 989.103 608.085 1018.19 608.93 1041.18 609.16 C 1041.18 615.012 1041.6 642.693 1039.77 646.467 C 1018.4 647.659 986.642 648.157 966.37 642.465 C 967.197 631.951 966.688 619.48 966.443 608.794 z"/>
<path transform="translate(0,0)" fill="rgb(253,253,253)" d="M 723.322 655.125 C 746.141 662.442 751.223 674.541 751.033 697.769 C 750.903 713.588 750.634 729.083 749.838 744.959 C 746.48 750.199 744.859 752.373 740.767 757.042 C 734.992 761.973 730.077 763.962 723.093 766.655 C 722.181 744.418 722.989 720.062 722.552 697.66 C 722.398 689.761 722.092 661.414 723.322 655.125 z"/>
<path transform="translate(0,0)" fill="rgb(253,253,253)" d="M 354.03 655.61 C 355.099 655.766 356.338 656.201 357.398 656.518 C 358.017 659.907 357.46 684.315 357.434 688.983 L 357.167 765.148 C 350.339 762.587 347.467 761.57 341.341 757.791 C 334.083 751.753 328.181 741.397 328.867 731.886 C 331.374 697.097 317.249 673.482 354.03 655.61 z"/>
<path transform="translate(0,0)" fill="rgb(253,253,253)" d="M 625.306 468.256 C 639.353 468.012 633.483 479.882 648.945 490.98 L 648.939 567.061 C 640.916 563.405 633.842 560.152 625.552 557.113 C 624.433 538.181 623.822 485.922 625.306 468.256 z"/>
<path transform="translate(0,0)" fill="rgb(253,253,253)" d="M 791.011 686.98 C 807.048 687.49 823.554 687.231 839.63 687.178 C 836.842 691.971 834.281 698.025 831.954 703.143 C 830.876 708.883 797.108 706.025 789.934 706.111 L 791.011 686.98 z"/>
<path transform="translate(0,0)" fill="rgb(253,253,253)" d="M 825.032 627.898 C 838.48 627.935 852.603 628.493 866.098 628.815 C 866.607 634.662 866.725 641.22 866.961 647.137 C 853.514 646.811 839.461 647.008 825.966 647 L 825.032 627.898 z"/>
<path transform="translate(0,0)" fill="rgb(240,240,236)" d="M 876.456 627.78 C 886.058 628.088 903.62 625.956 910.713 629.894 C 912.507 632.968 912.103 631.611 911.646 635.568 C 909.197 638.096 908.304 637.599 904.401 638.437 C 895.409 640.684 885.813 643.668 876.854 646.288 C 876.374 640.077 876.455 634 876.456 627.78 z"/>
<path transform="translate(0,0)" fill="rgb(253,253,253)" d="M 1008.88 808.789 C 1013.38 811.71 1020.9 817.584 1025.43 820.925 C 1020.06 827.338 1017.13 830.244 1010.45 835.192 L 1009.23 835.336 C 1005.81 834.033 998.405 824.169 995.478 820.712 L 1008.88 808.789 z"/>
<path transform="translate(0,0)" fill="rgb(240,240,236)" d="M 417.2 461.377 C 423.073 459.81 429.123 463.216 430.83 469.049 C 432.537 474.882 429.278 481.012 423.488 482.859 C 419.616 484.094 415.38 483.133 412.419 480.35 C 409.458 477.567 408.238 473.398 409.231 469.458 C 410.224 465.517 413.274 462.424 417.2 461.377 z"/>
<path transform="translate(0,0)" fill="rgb(203,200,138)" d="M 654.56 456.832 C 667.589 456.557 671.975 472.898 655.777 480.632 C 640.736 477.779 640.656 464.434 654.56 456.832 z"/>
<path transform="translate(0,0)" fill="rgb(240,240,236)" d="M 883.225 521.452 C 890.575 521.28 904.76 519.317 909.287 525.325 C 909.588 530.224 910.741 532.798 905.748 534.76 C 899.231 534.806 896.822 536.163 893.355 530.49 C 889.462 528.906 891.035 532.769 884.77 534.818 L 883.484 533.735 C 882.19 529.919 882.899 525.525 883.225 521.452 z"/>
<path transform="translate(0,0)" fill="rgb(240,240,236)" d="M 703.627 582.213 L 704.685 584.243 L 706.9 584.319 C 701.972 587.062 703.43 593.205 696.95 595.872 C 694.303 594.002 695.166 595.219 694.291 592.083 C 695.751 588.046 700.033 585.375 703.627 582.213 z"/>
</svg>