<svg version="1.1" xmlns="http://www.w3.org/2000/svg" style="display: block;" viewBox="0 0 1363 2048" width="378" height="568" preserveAspectRatio="none">
<defs>
	<linearGradient id="Gradient1" gradientUnits="userSpaceOnUse" x1="778.425" y1="495.152" x2="786.825" y2="475.592">
		<stop class="stop0" offset="0" stop-opacity="1" stop-color="rgb(16,15,18)"/>
		<stop class="stop1" offset="1" stop-opacity="1" stop-color="rgb(57,61,51)"/>
	</linearGradient>
	<linearGradient id="Gradient2" gradientUnits="userSpaceOnUse" x1="549.549" y1="1384.27" x2="595.401" y2="1308.23">
		<stop class="stop0" offset="0" stop-opacity="1" stop-color="rgb(0,0,0)"/>
		<stop class="stop1" offset="1" stop-opacity="1" stop-color="rgb(37,36,37)"/>
	</linearGradient>
	<linearGradient id="Gradient3" gradientUnits="userSpaceOnUse" x1="701.266" y1="1227.39" x2="642.531" y2="1211.36">
		<stop class="stop0" offset="0" stop-opacity="1" stop-color="rgb(0,0,0)"/>
		<stop class="stop1" offset="1" stop-opacity="1" stop-color="rgb(46,45,45)"/>
	</linearGradient>
	<linearGradient id="Gradient4" gradientUnits="userSpaceOnUse" x1="879.644" y1="1269.25" x2="848.578" y2="1181.38">
		<stop class="stop0" offset="0" stop-opacity="1" stop-color="rgb(0,0,0)"/>
		<stop class="stop1" offset="1" stop-opacity="1" stop-color="rgb(43,42,43)"/>
	</linearGradient>
	<linearGradient id="Gradient5" gradientUnits="userSpaceOnUse" x1="485.867" y1="1310.87" x2="536.751" y2="1395.15">
		<stop class="stop0" offset="0" stop-opacity="1" stop-color="rgb(2,3,2)"/>
		<stop class="stop1" offset="1" stop-opacity="1" stop-color="rgb(39,38,40)"/>
	</linearGradient>
	<linearGradient id="Gradient6" gradientUnits="userSpaceOnUse" x1="706.886" y1="1515.03" x2="634.552" y2="1436.08">
		<stop class="stop0" offset="0" stop-opacity="1" stop-color="rgb(0,0,0)"/>
		<stop class="stop1" offset="1" stop-opacity="1" stop-color="rgb(35,33,34)"/>
	</linearGradient>
</defs>
<path transform="translate(0,0)" fill="rgb(254,254,254)" d="M 213.602 107.484 C 259.276 106.113 308.28 107.587 354.225 107.378 L 769.375 107.488 L 1020.38 107.755 L 1095.37 107.453 C 1110.55 107.453 1126.33 107.219 1141.43 108.681 C 1190.17 113.398 1233.51 154.805 1241.62 202.892 C 1245.65 226.735 1244.18 253.475 1244.16 277.66 L 1244.13 388.269 L 1244.11 800.389 L 1244.8 1485.95 C 1244.79 1544.4 1243.85 1604.81 1244.42 1663 L 1244.87 1746.94 C 1244.98 1764.18 1245.63 1785.12 1244.6 1802 C 1243.23 1825.35 1235.5 1847.89 1222.24 1867.16 C 1201.78 1896.52 1177.36 1908.51 1143.11 1914.81 C 1119.35 1915.87 1093.53 1915.42 1069.6 1915.39 L 957.776 1915.42 L 527.192 1915.2 L 306.324 1915.22 L 243.438 1915.24 C 230.864 1915.24 213.023 1915.63 200.841 1914.07 C 178.348 1911.1 157.263 1901.45 140.304 1886.38 C 117.192 1866.06 101.881 1838.64 101.116 1807.8 C 100.314 1775.5 100.861 1742.01 100.844 1709.66 L 100.882 1511.91 L 100.821 916.574 L 100.896 441.743 L 100.848 295.595 C 100.826 269.115 99.7483 241.084 101.729 214.75 C 106.539 150.818 150.782 110.965 213.602 107.484 z"/>
<path transform="translate(0,0)" fill="rgb(139,191,94)" d="M 238.283 166.237 C 253.861 165.003 274.951 165.821 291.036 165.875 L 382.392 165.95 L 673.495 165.837 L 961.887 165.943 L 1045.77 165.961 C 1081.97 165.911 1114.22 161.45 1145.46 184.132 C 1193.22 218.811 1187.06 255.252 1186.79 306.8 L 1186.69 409.311 L 1186.79 805.112 L 1186.58 1452.56 L 1186.43 1657.89 C 1186.41 1694.95 1187.07 1732.34 1185.86 1769.37 C 1184.29 1817.14 1150.93 1850.06 1104.92 1856.9 C 1043.47 1858.83 972.492 1857.28 910.5 1857.26 L 556.358 1857.22 L 345.552 1857.08 L 278.929 1857.21 C 265.203 1857.24 251.464 1857.46 237.746 1856.65 C 199.892 1854.43 164.653 1820.58 159.331 1783.31 C 156.822 1765.73 157.613 1744.74 157.625 1726.68 L 157.708 1638.37 L 157.752 1319.71 L 157.57 617.498 L 157.293 372.77 C 157.34 332.778 156.762 292.425 157.88 252.475 C 159.144 207.326 195.24 173.31 238.283 166.237 z"/>
<path transform="translate(0,0)" fill="rgb(254,254,254)" d="M 287.959 1100.42 C 288.464 1100.39 288.969 1100.37 289.474 1100.36 C 313.273 1099.52 343.216 1100.22 367.632 1100.06 L 619.793 1100.03 C 638.169 1100.02 657.501 1101.02 675.359 1100.82 L 934.518 1100.11 L 1013.45 1099.9 C 1030.28 1099.86 1050.31 1099.27 1066.77 1101.18 C 1081.08 1102.82 1094.49 1108.98 1105.05 1118.77 C 1121.07 1133.9 1129.92 1153.92 1129.64 1175.67 C 1129.25 1206.85 1129.24 1238.08 1129.35 1269.25 L 1129.53 1532.62 L 1129.62 1671.5 C 1129.64 1686.2 1130.82 1725.12 1129.16 1737.25 C 1127.02 1752.1 1120.39 1765.93 1110.16 1776.89 C 1095.88 1791.95 1077.16 1799.72 1056.58 1800.34 C 998.255 1801.54 935.361 1800.41 876.572 1800.36 L 553.94 1800.56 L 375.757 1800.72 L 318.587 1800.92 C 306.168 1800.95 292.925 1801.41 280.744 1800.1 C 244.55 1796.22 214.873 1764.67 213.747 1728.15 C 213.356 1715.44 213.565 1703.07 213.512 1690.47 C 213.221 1669.29 213.063 1648.1 213.039 1626.91 L 213.207 1402.72 L 213.127 1245.77 C 213.139 1221.4 212.594 1196.52 213.616 1172.19 C 215.392 1129.91 246.224 1102.94 287.959 1100.42 z"/>
<path transform="translate(0,0)" fill="rgb(254,204,1)" d="M 411.824 1578.37 C 440.286 1577.44 471.827 1578.65 499.73 1577.97 C 553.632 1576.66 552.666 1584.33 551.997 1634.72 C 551.64 1661.63 552.743 1691.06 551.397 1718.2 C 550.624 1733.76 542.88 1739.67 528.283 1741.33 C 508.432 1742.06 483.066 1742.39 463.682 1741.59 C 445.248 1739.18 391.8 1750.7 389.793 1723.32 C 386.943 1684.42 388.285 1643.13 388.918 1604.04 C 389.187 1587.42 396.742 1581.27 411.824 1578.37 z"/>
<path transform="translate(0,0)" fill="rgb(254,254,254)" d="M 457.145 1606.5 C 465.394 1609.25 459.761 1615.18 464.944 1619.81 C 473.993 1620.19 467.823 1611.3 473.973 1607.03 L 475.927 1608.08 C 477.988 1610.91 477.363 1612.97 477.805 1616.31 C 478.613 1620.4 487.245 1623.03 490.61 1625.38 C 500.931 1632.58 502.43 1640.16 494.633 1650.22 C 492.054 1653.55 488.488 1654.94 486.336 1657.89 C 498.502 1663.76 505.473 1668.64 501.006 1684.81 C 499 1692.07 494.683 1695.13 488.102 1698.36 C 486.645 1698.67 485.193 1699.01 483.746 1699.37 C 479.513 1700.45 479.498 1700.88 477.678 1703.96 C 477.675 1708.25 478.33 1710 474.719 1712.46 C 471.482 1710.09 470.561 1703.82 465.929 1699.51 L 464.504 1699.65 C 461.458 1703.96 464.194 1709.39 459.512 1712.36 C 452.422 1710.98 458.077 1706.06 453.652 1700.79 C 450.295 1700.42 449.328 1700.31 446.139 1699.24 C 442.036 1694.49 444.629 1635.54 444.486 1625.48 C 444.456 1623.3 445.318 1621.86 446.722 1620.32 C 455.427 1623.19 455.844 1612.7 457.145 1606.5 z"/>
<path transform="translate(0,0)" fill="rgb(254,204,1)" d="M 455.561 1663.7 C 469.156 1663.68 502.792 1662.51 487.135 1686.88 C 477.588 1692.44 466.505 1691.2 455.566 1691.12 L 455.561 1663.7 z"/>
<path transform="translate(0,0)" fill="rgb(254,204,1)" d="M 455.571 1628.78 C 468.512 1628.86 497.716 1628.57 482.859 1650.39 C 474.502 1655.17 465.142 1653.95 455.301 1653.95 C 455.464 1645.56 455.554 1637.17 455.571 1628.78 z"/>
<path transform="translate(0,0)" fill="rgb(18,18,18)" d="M 934.119 1594.44 C 1001.48 1584.25 992.841 1703.53 928.201 1715.05 C 919.539 1715.65 907.142 1715.57 900.236 1709.65 C 863.43 1678.13 887.378 1602.95 934.119 1594.44 z"/>
<path transform="translate(0,0)" fill="rgb(254,254,254)" d="M 932.968 1619.91 C 957.365 1619.83 951.968 1649.4 947.694 1665.38 C 945.128 1674.98 939.287 1684.49 930.25 1689.21 C 900.373 1691.08 910.756 1632.54 932.968 1619.91 z"/>
<path transform="translate(0,0)" fill="rgb(18,18,18)" d="M 814.529 1597.83 L 873.594 1598.08 C 872.373 1606.36 871.097 1614.63 869.767 1622.89 L 830.286 1622.93 L 826.927 1635.21 C 838.077 1634.76 848.322 1634.46 857.625 1641.54 C 874.749 1654.57 873.223 1679.97 860.825 1695.67 C 850.469 1708.78 840.238 1712.99 824.348 1715.27 C 804.833 1716.22 796.678 1714.22 780.003 1705.41 C 783.172 1696.31 786.108 1687.13 788.81 1677.89 C 790.777 1679.65 792.84 1681.3 794.989 1682.84 C 802.551 1688.31 812.22 1691.68 821.643 1690.19 C 831.453 1689.07 841.781 1678.14 838.596 1667.82 C 832.994 1649.67 807.63 1655.79 795.071 1658.78 C 800.988 1644.43 809.644 1613.75 814.529 1597.83 z"/>
<path transform="translate(0,0)" fill="url(#Gradient6)" d="M 662.611 1439.99 C 667.597 1440.04 672.835 1440.01 677.794 1440.18 C 679.455 1456.48 684.695 1479.13 688.04 1495.95 C 691.421 1478.64 696.681 1457.15 698.858 1440.29 C 704.385 1440.46 711.506 1440.89 716.888 1440.44 L 708.486 1482.5 C 705.457 1496.94 701.555 1513.32 700.049 1527.88 C 692.586 1527.85 684.802 1527.94 677.369 1527.7 C 676.265 1516.53 671.664 1485.55 668.156 1475.76 C 666.172 1494.67 664.215 1509.4 660.124 1527.92 L 640.789 1527.82 C 638.098 1509.81 630.423 1472.62 624.844 1455.99 C 623.438 1450.05 623.15 1446.86 622.633 1440.72 L 641.701 1440.53 C 643.987 1458.31 648.945 1477.33 649.395 1494.7 C 654.134 1481.11 657.442 1457.09 662.611 1439.99 z"/>
<path transform="translate(0,0)" fill="rgb(18,18,18)" d="M 744.8 1439.22 C 785.353 1435.6 791.323 1478.9 780.107 1509.07 C 776.279 1519.37 768.879 1524.81 758.917 1528.59 C 708.096 1532.36 707.173 1453.34 744.8 1439.22 z"/>
<path transform="translate(0,0)" fill="rgb(254,254,254)" d="M 750.354 1456.53 C 768.129 1458.62 766.811 1489.25 763.154 1501.53 C 761.578 1506.83 758.694 1509.18 754.631 1512.38 C 735.923 1513 738.087 1477.65 742.373 1466.36 C 744.294 1461.3 746.379 1459.69 750.354 1456.53 z"/>
<path transform="translate(0,0)" fill="rgb(18,18,18)" d="M 799.433 1440.51 C 808.04 1440.24 820.002 1439.36 828.264 1440.9 C 852.937 1445.48 860.202 1479.05 838.333 1492.81 C 843.303 1504.98 849.365 1516.1 855.46 1527.72 C 850.031 1528.12 835.407 1529.57 831.159 1527.78 C 828.665 1520.22 823.19 1501.56 818.684 1496.43 L 817.062 1496.49 C 813.379 1502.44 813.773 1518.55 813.396 1526.49 C 807.507 1526.85 800.774 1526.79 794.811 1526.87 C 794.338 1515.08 791.747 1445.87 795.518 1440.95 L 799.433 1440.51 z"/>
<path transform="translate(0,0)" fill="rgb(254,254,254)" d="M 814.579 1457.15 C 828.794 1458.46 837.179 1464.53 827.836 1478.88 C 823.184 1480.95 819.206 1481.17 814.167 1481.81 C 813.969 1472.78 813.805 1466.13 814.579 1457.15 z"/>
<path transform="translate(0,0)" fill="url(#Gradient5)" d="M 481.458 1309.83 L 501.974 1309.96 C 507.303 1325.03 515.922 1341.98 522.142 1357.46 C 521.478 1343.91 520.919 1323.7 523.028 1310.57 C 528.905 1310.14 535.283 1310.08 541.211 1309.91 C 540.925 1320.58 541.634 1394.05 539.673 1397.74 L 520.005 1397.96 C 516.622 1383.41 506.206 1361.63 499.786 1348.23 C 499.82 1364.57 499.721 1380.91 499.489 1397.25 L 482.113 1397.22 C 482.181 1368.26 480.914 1338.59 481.458 1309.83 z"/>
<path transform="translate(0,0)" fill="rgb(18,18,18)" d="M 442.524 1439.45 L 461.094 1440.02 C 465.166 1452.51 477.128 1475.14 483.44 1487.53 C 481.532 1473.75 481.881 1454.02 482.727 1440.18 C 488.105 1439.7 494.609 1439.89 500.09 1439.89 C 500.34 1470.25 501.5 1497.44 502.627 1527.61 C 496.235 1527.57 489.297 1527.79 482.865 1527.88 C 478.386 1515.07 467.405 1493.05 461.07 1481.11 C 461.544 1496.58 461.176 1512.15 460.955 1527.64 C 454.978 1527.93 448.623 1527.46 442.617 1527.16 C 442.565 1508.1 440.278 1455.02 442.524 1439.45 z"/>
<path transform="translate(0,0)" fill="rgb(18,18,18)" d="M 667.621 1309.58 C 691.548 1310.46 724.522 1304.69 724.907 1341.18 C 725.001 1350.09 719.274 1356.87 713.077 1362.72 C 715.604 1373.57 720.695 1386.66 724.645 1397.11 L 703.743 1397.1 C 702.362 1390.07 698.406 1369.94 691.548 1366.78 L 689.627 1367.78 C 685.807 1374.58 686.855 1389.04 686.895 1397.11 L 667.751 1397.27 C 668.34 1367.97 666.86 1338.44 667.621 1309.58 z"/>
<path transform="translate(0,0)" fill="rgb(254,254,254)" d="M 688.058 1328.83 C 703.799 1328.71 706.189 1332.47 703.273 1348.52 C 697.276 1349.9 694.192 1350.05 687.985 1350.42 L 688.058 1328.83 z"/>
<path transform="translate(0,0)" fill="rgb(18,18,18)" d="M 555.907 1181.11 C 577.225 1180.93 610.54 1178.34 611.702 1209.61 C 612.117 1220.78 605.821 1227.79 598.308 1235.2 C 602.454 1245.89 606.797 1257.86 611.779 1268.07 C 605.539 1268.88 599.055 1269.95 592.808 1270.89 C 591.131 1265.65 581.631 1239.91 576.556 1239.72 C 573.276 1245.24 574.08 1261.76 574.042 1269.16 L 554.642 1269.02 C 555.859 1239.69 554.741 1210.4 555.907 1181.11 z"/>
<path transform="translate(0,0)" fill="rgb(254,254,254)" d="M 574.243 1197.78 C 589.932 1199.63 594.876 1203.92 587.087 1219.39 C 582.176 1221.06 578.793 1223.21 574.735 1219.35 C 572.805 1214.67 574.011 1203.59 574.243 1197.78 z"/>
<path transform="translate(0,0)" fill="rgb(18,18,18)" d="M 743.375 1310.37 C 745.081 1310.38 749.71 1310.6 750.907 1311.3 C 760.848 1317.11 770.889 1348.42 775.134 1359.25 C 774.935 1344.2 776.036 1325.65 777.1 1310.69 L 793.631 1310.86 C 793.176 1321.83 796.039 1393.33 793.031 1397.73 L 788.25 1397.82 C 783.811 1397.64 778.755 1397.74 774.26 1397.73 C 770.387 1383.71 760.004 1362.62 753.153 1349.96 C 754.051 1366.04 753.78 1381.03 753.665 1397.13 C 747.587 1397.23 741.296 1397.13 735.198 1397.12 C 735.862 1375.71 735.56 1354.15 735.535 1332.72 C 735.528 1325.77 735.268 1319.12 736.006 1312.2 C 738.25 1310.43 740.163 1310.75 743.375 1310.37 z"/>
<path transform="translate(0,0)" fill="rgb(18,18,18)" d="M 713.216 1597.91 L 758.993 1598.07 C 752.378 1630.33 746.389 1677.41 741.229 1710.64 C 738.693 1711.94 716.297 1711.34 711.68 1711.3 C 715.035 1683.46 721.027 1650.93 725.449 1622.91 L 709.238 1622.76 L 713.216 1597.91 z"/>
<path transform="translate(0,0)" fill="rgb(18,18,18)" d="M 488.888 1180.87 C 504.079 1180.94 522.27 1178.67 535.049 1187.79 C 547.676 1196.79 549.483 1217.48 540.331 1229.43 C 533.171 1238.77 523.521 1240.09 512.765 1241.24 L 509.142 1241.5 C 506.626 1244.81 507.574 1263.95 507.305 1270.47 C 501.423 1270.73 493.976 1270.35 487.974 1270.2 C 490.098 1243.86 489.022 1207.91 488.888 1180.87 z"/>
<path transform="translate(0,0)" fill="rgb(254,254,254)" d="M 507.497 1198.94 C 511.153 1198.77 518.009 1198.03 521.191 1199.75 C 530.024 1204.52 526.452 1215.95 522.311 1223.04 C 502.058 1232.12 507.019 1212.92 507.497 1198.94 z"/>
<path transform="translate(0,0)" fill="rgb(18,18,18)" d="M 900.767 1439 C 907.88 1439.58 915.333 1439.07 922.491 1438.77 C 913.815 1452.26 904.761 1464.87 899.235 1479.93 C 907.187 1495.52 914.919 1511.21 922.429 1527.02 L 901.734 1528.8 C 898.541 1519.13 891.235 1504 885.727 1495.62 C 884.14 1500.35 883.021 1504.41 881.761 1509.24 C 880.92 1515.38 880.916 1522.67 880.737 1528.95 L 860.313 1528.77 C 859.458 1513.61 861.378 1498.73 861.694 1483.63 C 861.991 1469.42 861.469 1455.37 861.81 1441.09 L 879.848 1440.88 C 879.973 1452.37 880.589 1464.45 881.002 1475.98 C 888.033 1465.04 894.961 1450.78 900.767 1439 z"/>
<path transform="translate(0,0)" fill="rgb(18,18,18)" d="M 823.516 1309.83 C 830.329 1309.83 837.375 1310.01 844.207 1310.11 C 849.758 1338.34 863.683 1373 868.134 1398.14 L 847.569 1398.07 L 845.153 1382.44 C 836.86 1382 832.311 1382.02 824.03 1382.58 C 822.697 1387.72 821.461 1392.9 820.323 1398.09 L 799.911 1398.1 C 806.305 1370.44 816.092 1337.88 823.516 1309.83 z"/>
<path transform="translate(0,0)" fill="rgb(254,254,254)" d="M 833.598 1341.57 L 835.152 1343.09 C 836.496 1348.62 841.08 1363.67 836.896 1367.35 C 834.07 1367.18 829.486 1367.4 829.325 1363.94 C 829.008 1357.14 832.107 1348.38 833.598 1341.57 z"/>
<path transform="translate(0,0)" fill="rgb(18,18,18)" d="M 735.254 1181.9 L 756.299 1182.23 C 758.542 1195.42 765.107 1213.58 768.854 1226.92 C 772.933 1241.44 775.767 1254.21 778.93 1268.93 C 772.007 1269.5 767.112 1269.8 760.078 1269.72 C 759.024 1264.89 758.273 1259.59 757.482 1254.68 C 750.271 1254.51 742.165 1254.92 734.89 1255.12 L 731.315 1269.06 L 711.327 1269.26 C 720.635 1242.09 725.994 1210.01 735.254 1181.9 z"/>
<path transform="translate(0,0)" fill="rgb(254,254,254)" d="M 744.311 1213.43 C 747.703 1215.83 751.341 1231.94 751.514 1236.39 L 749.833 1237.79 C 746.674 1237.88 744.542 1238.3 741.81 1236.83 C 738.521 1231.75 743.215 1222.06 744.311 1213.43 z"/>
<path transform="translate(0,0)" fill="url(#Gradient4)" d="M 840.742 1180.89 L 887.099 1181.02 L 887.058 1198.57 L 860.381 1198.89 C 860.313 1204.41 860.569 1210.2 860.724 1215.74 L 884.001 1215.9 C 884.224 1221.38 884.112 1227.3 884.111 1232.82 L 860.88 1232.55 L 861.239 1250.48 C 869.627 1251.11 880.737 1250.92 889.352 1250.99 C 889.265 1257.75 889.249 1263.36 889.669 1270.17 C 873.491 1269.87 857.31 1269.8 841.13 1269.98 C 840.928 1239.49 841.426 1211.69 840.742 1180.89 z"/>
<path transform="translate(0,0)" fill="rgb(18,18,18)" d="M 514.791 1440.06 C 529.08 1440.48 546.197 1439.96 560.702 1439.9 C 560.776 1446.37 560.398 1451.92 559.969 1458.34 L 534.342 1457.74 C 533.937 1463.4 534.036 1469.21 534.038 1474.88 L 555.726 1474.62 L 555.91 1491.17 C 548.995 1491.63 540.879 1491.48 533.866 1491.53 C 533.357 1497.36 533.282 1502.94 533.156 1508.78 C 536.94 1511.91 553.704 1510.87 559.934 1510.88 C 560.767 1516.41 560.697 1522.25 560.789 1527.86 C 545.147 1528.19 528.604 1527.94 512.892 1527.94 C 513.218 1498.64 513.851 1469.35 514.791 1440.06 z"/>
<path transform="translate(0,0)" fill="rgb(18,18,18)" d="M 622.51 1310.5 C 633.766 1309.94 645.885 1310 657.218 1309.86 L 657.124 1327.08 L 630.771 1327.92 L 630.226 1344.15 C 639.007 1343.75 652.082 1342.24 655.559 1352.94 C 654.76 1364.14 638.479 1362.37 630.859 1362.13 C 631.18 1370.16 627.523 1378.85 636.75 1380 L 658.015 1380.79 L 659.068 1398.03 L 610.791 1398.06 C 611.436 1368.99 611.861 1339.92 612.067 1310.85 L 622.51 1310.5 z"/>
<path transform="translate(0,0)" fill="url(#Gradient3)" d="M 647.11 1180.91 C 654.807 1181.84 659.724 1181.65 667.429 1181.47 C 668.917 1199.84 678.35 1222.82 681.024 1244.14 L 696.453 1181.81 C 702.693 1181.9 709.18 1181.8 715.443 1181.79 C 713.888 1189.52 711.789 1197.02 709.752 1204.64 C 702.205 1230.13 697.914 1241.38 692.698 1268.55 C 684.177 1269.06 679.306 1269.03 670.785 1268.55 C 664.563 1239.22 655.611 1209.71 647.11 1180.91 z"/>
<path transform="translate(0,0)" fill="rgb(18,18,18)" d="M 566.003 1440.34 C 583.904 1440.72 603.125 1440.3 621.123 1440.21 L 622.633 1440.72 C 623.15 1446.86 623.438 1450.05 624.844 1455.99 L 622.057 1455.08 L 620.126 1457.16 C 615.995 1459.19 608.112 1458.54 603.156 1458.5 C 602.934 1481.36 602.586 1504.21 602.112 1527.07 L 583.698 1527.59 C 582.043 1505.22 583.791 1481.25 582.012 1458.08 L 565.077 1458.06 C 564.958 1452.03 565.517 1446.34 566.003 1440.34 z"/>
<path transform="translate(0,0)" fill="rgb(219,218,220)" d="M 621.123 1440.21 L 622.633 1440.72 C 623.15 1446.86 623.438 1450.05 624.844 1455.99 L 622.057 1455.08 L 620.126 1457.16 C 620.032 1451.75 619.521 1445.27 621.123 1440.21 z"/>
<path transform="translate(0,0)" fill="rgb(18,18,18)" d="M 778.72 1180.96 L 832.788 1181.26 L 832.034 1199.91 L 814.26 1200.76 L 813.86 1248.75 L 813.653 1269.86 L 795.521 1270 C 796.492 1248.63 795.427 1221.55 795.15 1199.88 L 779.016 1199.97 C 778.632 1193.66 778.72 1187.28 778.72 1180.96 z"/>
<path transform="translate(0,0)" fill="url(#Gradient2)" d="M 600.23 1309.29 C 601.017 1309.36 601.699 1309.88 602.498 1310.31 C 603.471 1314.26 602.357 1321.9 601.923 1326.29 L 585.062 1327.97 C 584.448 1350.95 586.472 1374.78 585.312 1398.08 L 566.467 1398.58 L 566.169 1387.02 C 566.071 1366.93 567.645 1346.82 566.945 1326.71 C 561.185 1326.56 554.864 1326.86 549.063 1327.02 C 548.966 1322.1 549.734 1315.8 550.197 1310.8 C 564.447 1310.64 586.62 1310.79 600.23 1309.29 z"/>
<path transform="translate(0,0)" fill="rgb(18,18,18)" d="M 873.911 1310.61 L 892.408 1310.62 C 893.526 1332.28 892.723 1358.54 893.038 1380.9 C 902.294 1380.47 911.554 1380.16 920.818 1379.95 L 920.108 1397.76 C 916.875 1399.59 881.408 1399.14 874.277 1399.17 C 874.531 1369.72 873.366 1340.07 873.911 1310.61 z"/>
<path transform="translate(0,0)" fill="rgb(18,18,18)" d="M 622.433 1181.74 L 641.681 1181.78 C 640.586 1209.76 641.287 1240.45 640.919 1268.86 C 634.847 1269.01 628.439 1268.92 622.336 1268.93 C 623.125 1239.52 621.797 1211.16 622.433 1181.74 z"/>
<path transform="translate(0,0)" fill="rgb(18,18,18)" d="M 450.858 1310.82 L 468.932 1310.78 L 468.737 1397.49 C 462.158 1397.92 457.243 1397.5 450.722 1397.07 C 449.363 1369.5 450.358 1338.61 450.858 1310.82 z"/>
<path transform="translate(0,0)" fill="rgb(18,18,18)" d="M 663.078 422.084 C 665.857 421.847 668.683 421.446 671.428 421.791 L 673.124 422.959 C 686.807 432.887 708.219 443.968 723.341 452.758 C 733.57 458.704 762.136 477.048 772.17 480.759 L 778.067 483.606 C 808.468 504.731 845.452 520.027 880.391 531.903 C 890.425 535.314 897.432 533.076 896.47 543.671 L 897.919 548.304 L 898.023 549.216 C 899.075 570.27 900.998 589.713 901.445 611.245 C 902.804 662.994 896.227 714.647 881.941 764.405 C 880.598 768.94 872.502 794.98 870.569 798.371 C 867.414 806.016 848.177 852.005 842.61 855.139 L 840.622 859.059 C 828.513 876.372 819.669 890.451 806.421 907.977 L 797.26 919.027 C 791.064 928.16 758.035 961.288 748.522 971.134 C 745.837 973.319 741.84 976.242 739.872 978.913 C 725.891 989.613 711.402 999.63 696.455 1008.93 C 691.596 1011.89 679.637 1017.64 675.965 1020.37 C 671.366 1022.4 667.922 1025.1 664.093 1023.89 C 662.463 1021.68 637.633 1006.97 633.546 1004.47 C 618.26 995.113 605.35 986.474 591.747 974.698 L 583.327 966.261 C 580.625 962.754 577.703 959.769 574.47 956.75 C 561.14 944.302 548.929 931.444 536.748 917.886 L 527.203 908.258 C 514.761 893.771 503.85 874.43 492.582 860.875 L 491.048 857.283 C 475.484 827.549 460.079 800.313 451.156 767.697 C 446.138 750.517 438.957 732.868 436.704 715.046 C 432.722 683.555 429.662 653.574 429.729 621.793 L 429.959 618.71 C 429.415 592.854 431.255 577.223 431.863 553.108 C 433.154 547.37 433.899 544.943 436.908 539.966 C 442.92 537.591 449.331 533.617 455.21 531.38 C 488.35 518.772 524.812 502.552 555.994 485.901 C 580.23 472.959 604.586 454.957 628.411 440.995 C 634.293 437.548 660.199 425.762 663.078 422.084 z"/>
<path transform="translate(0,0)" fill="rgb(139,191,94)" d="M 671.428 421.791 L 673.124 422.959 C 686.807 432.887 708.219 443.968 723.341 452.758 C 733.57 458.704 762.136 477.048 772.17 480.759 L 778.067 483.606 C 808.468 504.731 845.452 520.027 880.391 531.903 C 890.425 535.314 897.432 533.076 896.47 543.671 C 893.966 544.998 893.03 545.794 890.294 545.84 C 889.671 549.041 890.223 560.683 890.321 564.565 C 885.471 565.93 870.168 569.05 865.709 568.06 C 824.878 559.307 789.039 538.827 752.536 519.65 C 724.839 505.099 698.472 486.903 670.373 473.652 C 671.595 462.394 671.206 445.499 670.889 434.084 C 671.128 429.989 671.308 425.891 671.428 421.791 z"/>
<path transform="translate(0,0)" fill="url(#Gradient1)" d="M 671.428 421.791 L 673.124 422.959 C 686.807 432.887 708.219 443.968 723.341 452.758 C 733.57 458.704 762.136 477.048 772.17 480.759 L 778.067 483.606 C 808.468 504.731 845.452 520.027 880.391 531.903 C 890.425 535.314 897.432 533.076 896.47 543.671 C 893.966 544.998 893.03 545.794 890.294 545.84 C 884.689 541.949 841.137 524.274 833.016 520.985 C 813.855 513.142 795.025 504.1 776.683 494.418 C 749.927 480.294 724.425 462.943 697.59 448.776 C 691.283 445.446 677.036 435.712 670.889 434.084 C 671.128 429.989 671.308 425.891 671.428 421.791 z"/>
<path transform="translate(0,0)" fill="rgb(139,191,94)" d="M 443.57 573.315 C 455.184 574.645 460.685 575.237 472.204 574.56 C 470.467 611.333 470.855 682.309 478.876 717.01 C 504.152 823.136 570.572 914.866 663.51 971.999 C 663.638 978.752 663.834 1008.18 660.949 1012.01 C 641.635 1002.61 602.902 972.453 587.311 957.567 C 570.902 941.9 541.45 913.358 527.83 895.866 C 484.795 839.866 456.105 774.193 444.26 704.567 C 442.829 695.79 440.541 684.725 440.312 675.892 C 439.665 651.02 441.548 626.225 439.992 601.297 C 439.556 594.318 438.928 578.415 443.57 573.315 z"/>
<path transform="translate(0,0)" fill="rgb(139,191,94)" d="M 886.443 575.479 C 889.966 575.155 888.786 574.804 891.736 576.224 C 893.351 579.233 892.745 592.116 892.715 596.632 C 892.338 653.063 890.184 712.243 872.646 765.965 C 837.902 872.394 770.254 952.009 676.451 1010.86 C 674.425 1012.24 674.471 1012.36 671.952 1012.83 C 669.907 1009.88 671.784 978.057 671.996 972.249 C 696.273 955.122 719.685 942.267 739.996 919.299 C 745.54 913.03 752.923 906.889 758.765 900.618 C 829.861 824.3 863.632 720.04 860.667 616.576 C 860.476 609.927 859.828 585.995 863.369 580.497 C 866.427 575.749 880.389 575.652 886.443 575.479 z"/>
<path transform="translate(0,0)" fill="rgb(139,191,94)" d="M 722.246 630.436 C 746.6 629.076 770.523 631.603 791.644 645.13 C 809.069 656.29 820.592 674.659 824.917 694.765 C 829.681 716.917 824.712 743.064 812.477 761.906 C 800.988 779.601 785.145 791.839 764.326 796.208 C 754.919 798.182 686.612 800.808 682.853 798.34 C 688.576 791.828 697.635 773.91 702.331 765.463 C 706.685 765.776 711.042 766.043 715.402 766.264 C 738.283 767.422 760.284 767.984 778.342 751.583 C 798.424 733.501 799.034 699.627 780.61 680.103 C 762.041 660.426 733.801 662.998 709.094 662.497 C 703.211 662.377 697.357 662.358 691.49 662.295 C 689.637 652.993 688.219 641.414 686.873 631.882 C 698.159 631.99 710.867 631.043 722.246 630.436 z"/>
<path transform="translate(0,0)" fill="rgb(139,191,94)" d="M 661.012 436.013 L 663.1 436.408 C 663.793 440.922 662.407 464.814 662.211 471.382 C 622.145 500.22 576.057 523.304 531.041 543.332 C 499.325 557.443 483.716 570.014 447.906 566.336 C 441.973 564.087 439.51 554.804 441.668 551.124 C 446.704 542.534 469.397 535.102 478.487 531.81 C 511.397 519.891 540.874 503.709 571.018 486.151 C 584.308 478.472 599.218 471.572 612.549 463.751 C 628.991 454.105 643.57 444.173 661.012 436.013 z"/>
<path transform="translate(0,0)" fill="rgb(139,191,94)" d="M 518.753 721.456 C 528.994 720.697 539.941 720.875 550.27 720.869 C 550.614 722.091 550.982 723.308 551.374 724.516 C 556.441 740.067 567.473 754.561 581.881 762.674 C 596.809 771.079 639.477 763.194 655.298 757.968 C 651.652 769.487 648.879 775.78 642.75 786.02 C 626.439 808.59 599.954 803.18 576.223 797.468 C 553.679 792.041 536.035 774.736 525.543 754.838 C 522.78 749.598 514.674 728.144 516.486 722.426 L 518.753 721.456 z"/>
<path transform="translate(0,0)" fill="rgb(139,191,94)" d="M 613.641 631.557 C 626.264 630.941 638.463 631.219 651.077 631.409 C 628.743 685.272 618.149 653.654 576.037 670.61 C 564.2 675.377 552.529 696.346 548.764 708.754 C 545.778 712.493 524.785 706.31 518.187 709.429 C 510.083 699.411 536.822 657.922 545.044 649.061 C 563.26 629.428 589.354 632.161 613.641 631.557 z"/>
<path transform="translate(0,0)" fill="rgb(254,254,254)" d="M 639.133 600.857 C 639.37 571.003 639.749 541.179 639.04 511.335 C 638.954 507.701 640.478 497.997 642.339 494.84 L 643.958 494.785 L 643.224 493.887 L 642.269 495.179 L 644.382 496.013 C 649.349 521.397 646.602 577.542 647.299 605.415 C 638.195 612.834 626.361 619.893 614.203 620.029 C 606.508 621.858 588.87 623.545 582.039 619.16 L 582.11 616.945 C 587.587 613.563 594.831 614.24 601.136 614.395 C 601.005 610.709 601.104 606.98 601.15 603.289 C 600.697 588.184 601.646 573.145 600.357 558.19 C 600.352 558.131 597.348 554.96 597.12 554.766 C 590.209 548.859 591.765 539.933 592.74 531.833 C 598.773 525.382 603.743 522.083 611.227 517.407 C 610.193 524.039 610.105 526.744 610.219 533.48 C 627.613 542.152 622.04 546.932 608.809 555.994 C 607.753 565.7 606.506 600.679 608.969 609.083 C 614.534 614.784 633.411 604.519 639.133 600.857 z"/>
<path transform="translate(0,0)" fill="rgb(219,218,220)" d="M 601.15 603.289 C 603.497 606.457 602.797 612.7 602.395 616.498 C 605.56 620.899 609.144 620.014 614.203 620.029 C 606.508 621.858 588.87 623.545 582.039 619.16 L 582.11 616.945 C 587.587 613.563 594.831 614.24 601.136 614.395 C 601.005 610.709 601.104 606.98 601.15 603.289 z"/>
<path transform="translate(0,0)" fill="rgb(18,18,18)" d="M 601.913 531.379 C 603.012 532.161 604.1 532.957 605.179 533.766 C 609.065 536.699 609.368 537.24 609.924 541.4 C 608.715 544.828 607.854 545.032 604.689 547.248 C 602.033 548.029 600.948 547.417 598.831 546.032 C 596.134 540.84 597.893 535.299 601.913 531.379 z"/>
<path transform="translate(0,0)" fill="rgb(254,254,254)" d="M 763.369 538.961 C 777.507 542.871 787.341 545.841 783.106 561.984 C 794.557 562.158 806.732 562.842 818.232 563.289 C 818.813 574.317 818.82 585.967 818.994 597.056 C 819.884 597.68 820.762 598.319 821.63 598.973 C 835.544 609.516 827.137 627.627 810.706 628.45 C 791.474 623.781 792.505 602.229 809.785 596.728 C 810.014 588.105 809.82 580.776 809.479 572.149 C 806.185 571.944 802.949 571.998 799.631 571.807 C 783.157 570.861 753.922 579.863 753.563 553.939 C 753.473 547.444 759.163 542.881 763.369 538.961 z"/>
<path transform="translate(0,0)" fill="rgb(18,18,18)" d="M 763.629 546.47 C 774.389 549.619 777.845 554.793 770.78 564.054 C 765.912 564.936 767.554 565.26 763.622 563.717 C 758.764 558.642 760.913 551.98 763.629 546.47 z"/>
<path transform="translate(0,0)" fill="rgb(43,44,41)" d="M 809.504 605.793 C 813.305 605.82 814.044 605.729 817.474 607.278 C 822.229 612.898 819.025 616.668 815.226 621.832 C 804.574 622.184 804.028 613.063 809.504 605.793 z"/>
<path transform="translate(0,0)" fill="rgb(254,254,254)" d="M 741.759 897.11 C 740.598 901.031 740.1 903.821 736.914 906.416 L 735.233 906.218 C 731.38 897.838 736.338 875.416 733.421 871.545 C 730.553 871.348 730.186 871.461 727.748 870.108 C 725.727 864.939 726.161 844.632 730.023 840.563 C 740.708 829.306 758.534 842.546 770.066 841.689 C 773.467 842.205 776.74 846.218 778.928 848.962 C 773.436 850.271 768.584 849.893 762.974 849.753 C 762.782 857.431 762.741 865.624 762.043 873.232 C 764.431 882.974 751.859 890.98 744.893 896.71 L 741.759 897.11 z"/>
<path transform="translate(0,0)" fill="rgb(43,44,41)" d="M 757.174 859.534 C 757.01 863.879 756.27 868.077 758.325 871.655 C 759.858 872.55 760.285 872.97 762.043 873.232 C 764.431 882.974 751.859 890.98 744.893 896.71 L 741.759 897.11 C 740.897 892.464 741.367 877.002 741.443 871.303 C 745.849 871.322 754.533 871.907 754.921 865.976 C 753.675 864.23 752.351 863.944 750.355 863.114 C 752.021 862.832 753.712 862.581 755.383 862.319 L 757.174 859.534 z"/>
<path transform="translate(0,0)" fill="rgb(18,18,18)" d="M 750.355 863.114 C 718.744 862.764 742.802 832.811 757.38 847.94 C 757.307 851.729 757.154 855.771 757.174 859.534 L 755.383 862.319 C 753.712 862.581 752.021 862.832 750.355 863.114 z"/>
<path transform="translate(0,0)" fill="rgb(219,218,220)" d="M 757.38 847.94 C 761.966 850.027 771.879 847.957 778.928 848.962 C 773.436 850.271 768.584 849.893 762.974 849.753 C 762.782 857.431 762.741 865.624 762.043 873.232 C 760.285 872.97 759.858 872.55 758.325 871.655 C 756.27 868.077 757.01 863.879 757.174 859.534 C 757.154 855.771 757.307 851.729 757.38 847.94 z"/>
<path transform="translate(0,0)" fill="rgb(254,254,254)" d="M 630.64 808.164 L 635 809.087 C 637.775 813.002 635.26 878.929 635.403 889.625 C 649.07 899.855 655.57 913.949 636.156 922.437 C 615.402 921.756 611.671 898.995 629.811 889.663 C 629.624 874.343 627.815 819.791 630.64 808.164 z"/>
<path transform="translate(0,0)" fill="rgb(18,18,18)" d="M 630.865 897.615 C 643.225 899.673 642.88 907.751 636.334 916.077 C 624.747 913.679 623.52 905.996 630.865 897.615 z"/>
<path transform="translate(0,0)" fill="rgb(254,254,254)" d="M 657.785 807.342 L 660.641 808.445 C 662.916 813.105 661.744 852.088 661.942 860.669 C 666.429 862.771 670.886 864.936 675.313 867.162 C 674.848 896.831 675.815 927.03 674.854 956.669 C 674.708 961.177 673.403 961.61 670.434 964.109 C 670.226 963.887 670.02 963.664 669.809 963.445 C 669.644 963.274 669.468 963.113 669.306 962.939 C 663.439 956.628 668.279 903.236 668.3 890.964 C 668.309 885.385 669.125 875.798 665 871.663 C 657.207 869.988 654.623 866.835 654.71 858.525 C 654.876 842.561 653.448 825.856 655.168 810.088 C 655.168 810.087 657.553 807.586 657.785 807.342 z"/>
<path transform="translate(0,0)" fill="rgb(254,254,254)" d="M 666.385 482.359 C 666.674 482.532 666.998 482.656 667.252 482.877 C 671.581 486.632 668.049 569.536 667.683 581.984 C 671.479 583.837 675.435 585.405 679.34 587.021 C 680.349 596.48 682.067 613.781 681.327 623.718 C 681.21 625.296 678.46 625.894 676.814 626.527 C 673.253 622.808 673.65 600.984 673.153 593.78 L 660.168 587.42 C 659.602 556.803 660.776 524.74 661.406 493.987 C 661.529 487.994 661.972 486.169 666.385 482.359 z"/>
<path transform="translate(0,0)" fill="rgb(254,254,254)" d="M 511.486 560.658 L 516.42 561.497 C 520.47 565.903 518.972 603.498 518.966 611.99 C 529.729 617.775 528.279 622.836 530.217 633.894 C 525.467 637.474 520.296 640.904 515.373 644.277 C 509.977 644.151 502.646 636.125 500.535 631.464 C 495.145 619.563 504.401 616.052 511.914 612.689 C 512.393 595.832 511.608 577.676 511.486 560.658 z"/>
<path transform="translate(0,0)" fill="rgb(43,44,41)" d="M 508.084 621.717 C 513.947 621.608 517.887 621.668 520.92 626.943 C 520.973 630.204 520.725 630.324 518.696 633.086 C 509.544 635.398 506.642 630.26 508.084 621.717 z"/>
<path transform="translate(0,0)" fill="rgb(254,254,254)" d="M 669.282 727.906 C 670.816 729.208 670.818 729.446 671.968 731.068 C 674.47 748.778 653.092 757.294 639.682 748.917 C 629.694 742.677 626.26 726.305 632.642 716.733 C 640.085 705.569 670.494 707.946 671.635 722.941 C 670.459 723.874 669.879 724.103 668.514 724.674 C 642.469 698.859 623.08 742.924 655.468 744.077 C 662.28 744.319 667.275 733.749 669.282 727.906 z"/>
<path transform="translate(0,0)" fill="rgb(254,254,254)" d="M 598.677 811.217 C 600.768 811.66 601.385 811.973 603.332 812.765 C 607.219 820.422 602.742 900.111 600.721 910.838 C 597.797 910.544 597.616 910.572 595.03 909.279 C 593 904.934 597.06 820.481 598.677 811.217 z"/>
<path transform="translate(0,0)" fill="rgb(254,254,254)" d="M 724.827 513.222 C 727.546 513.828 727.477 513.702 729.561 515.471 C 732.317 541.614 728.6 572.551 730.307 599.208 C 730.695 605.271 731.424 620.24 727.32 624.579 C 724.855 624.209 724.641 624.354 722.55 622.889 C 721.878 618.434 722.578 594.564 722.815 588.899 C 723.766 566.077 722.119 535.352 724.827 513.222 z"/>
<path transform="translate(0,0)" fill="rgb(254,254,254)" d="M 699.206 682.252 C 722.397 682.203 724.228 690.974 723.902 711.447 C 727.782 712.751 734.837 715.011 731.985 720.228 C 724.664 723.853 721.097 722.571 713.106 721.565 C 716.359 710.646 720.984 701.062 711.467 691.974 C 679.858 678.342 683.375 708.292 674.9 717.904 L 673.6 717.421 C 665.71 699.346 683.88 686.348 699.206 682.252 z"/>
<path transform="translate(0,0)" fill="rgb(254,254,254)" d="M 565.602 833.958 C 567.607 833.798 569.617 833.704 571.628 833.676 C 576.824 833.626 581.805 835.745 585.371 839.525 C 592.636 847.369 587.229 855.608 580.412 861.081 C 566.084 869.569 553.792 843.341 565.602 833.958 z"/>
<path transform="translate(0,0)" fill="rgb(39,45,24)" d="M 570.846 842.702 C 572.776 841.409 575.259 841.272 577.319 842.347 C 579.38 843.421 580.689 845.535 580.733 847.858 C 580.778 850.182 579.55 852.344 577.532 853.496 C 574.562 855.192 570.783 854.232 568.982 851.325 C 567.181 848.417 568.005 844.606 570.846 842.702 z"/>
<path transform="translate(0,0)" fill="rgb(254,254,254)" d="M 520.471 795.623 C 520.122 790.429 517.846 782.452 522.013 779.296 L 524.208 779.816 C 527.314 781.732 528.232 782.419 531.912 782.046 C 535.874 780.208 534.705 780.08 538.511 780.468 C 540.556 784.446 538.224 788.186 538.887 791.65 C 539.606 795.401 545.338 794.394 547.7 799.432 C 543.753 810.455 519.165 805.069 512.449 795.527 L 513.52 794.365 C 515.874 795.193 518.281 796.428 520.471 795.623 z"/>
<path transform="translate(0,0)" fill="rgb(43,44,41)" d="M 520.471 795.623 C 520.122 790.429 517.846 782.452 522.013 779.296 L 524.208 779.816 C 527.314 781.732 528.232 782.419 531.912 782.046 C 534.124 787.989 535.621 789.159 535.278 795.45 L 533.829 797.266 C 530.647 797.554 527.537 795.588 525.298 793.433 L 520.471 795.623 z"/>
<path transform="translate(0,0)" fill="rgb(219,218,220)" d="M 520.471 795.623 C 520.122 790.429 517.846 782.452 522.013 779.296 L 524.208 779.816 C 524.724 784.589 525.102 788.641 525.298 793.433 L 520.471 795.623 z"/>
<path transform="translate(0,0)" fill="rgb(219,218,220)" d="M 770.066 841.689 C 775.817 833.281 766.762 805.633 776.201 799.285 L 778.436 798.997 C 781.171 803.141 780.858 844.946 778.928 848.962 C 776.74 846.218 773.467 842.205 770.066 841.689 z"/>
<path transform="translate(0,0)" fill="rgb(219,218,220)" d="M 588.693 719.839 C 589.17 710.65 587.764 679.974 590.453 674.462 C 593.859 673.952 592.799 673.601 595.286 675.07 C 599.179 682.478 596.355 712.591 596.23 722.275 C 594.916 720.291 595.047 720.326 593.113 718.983 L 588.693 719.839 z"/>
<path transform="translate(0,0)" fill="rgb(219,218,220)" d="M 479.801 672.761 C 487.961 672.921 508.187 672.51 515.45 676.146 C 517.14 676.992 517.134 679.898 517.5 682.028 C 507.475 681.375 487.707 683.428 481.209 680.088 C 479.227 677.179 479.869 676.709 479.801 672.761 z"/>
<path transform="translate(0,0)" fill="rgb(219,218,220)" d="M 646.876 919.811 C 651.15 920.402 651.789 919.731 654.414 922.338 C 655.516 929.296 655.89 953.714 653.71 959.885 C 647.393 954.415 645.508 927.836 646.876 919.811 z"/>
<path transform="translate(0,0)" fill="rgb(254,254,254)" d="M 588.693 719.839 L 593.113 718.983 C 595.047 720.326 594.916 720.291 596.23 722.275 C 598.983 724.359 599.486 724.665 601.112 727.678 C 599.883 736.674 580.082 738.888 581.434 723.524 C 584.027 720.647 584.679 721.125 588.693 719.839 z"/>
<path transform="translate(0,0)" fill="rgb(254,254,254)" d="M 699.387 503.279 C 711.852 506.261 711.651 521.396 706.206 529.205 C 702.734 529.474 700.21 529.76 697.542 527.762 C 696.644 523.013 700.588 520.556 700.343 517.476 C 699.888 511.778 699.243 509.423 699.387 503.279 z"/>
<path transform="translate(0,0)" fill="rgb(254,254,254)" d="M 835.336 693.16 C 840.342 692.744 847.498 691.69 849.54 697.277 C 848.415 700.702 847.703 700.94 844.799 703.376 C 839.725 704.315 831.062 705.608 830.517 698.688 C 831.921 695.539 832.5 695.364 835.336 693.16 z"/>
<path transform="translate(0,0)" fill="rgb(219,218,220)" d="M 693.115 610.543 C 698.446 610.208 705.628 609.033 710.184 611.161 C 711.667 614.252 711.245 613.17 710.49 617.223 L 708.228 618.555 C 702.566 618.377 691.625 618.54 688.641 612.794 C 690.071 610.836 690.114 611.383 693.115 610.543 z"/>
<path transform="translate(0,0)" fill="rgb(254,254,254)" d="M 882.321 299.699 L 892.659 307.532 C 885.949 320.512 877.366 333.763 869.441 346.077 C 843.657 386.142 821.524 428.489 794.025 467.455 C 789.304 474.144 784.912 479.151 778.067 483.606 L 772.17 480.759 C 774.126 474.25 784.431 458.841 788.159 452.269 C 804.231 423.934 820.907 395.498 839.098 368.457 C 852.967 347.842 866.113 317.777 882.321 299.699 z"/>
<path transform="translate(0,0)" fill="rgb(254,254,254)" d="M 462.644 320.657 C 468.767 321.405 469.475 321.849 472.742 327.171 C 484.348 345.189 494.157 364.648 505.473 382.813 C 524.312 413.053 541.515 442.381 557.923 474.034 C 557.306 477.167 557.527 476.154 554.146 478.668 C 547.522 478.238 544.129 477.401 540.743 471.315 C 530.284 452.515 458.442 338.898 457.998 326.468 C 459.495 322.425 458.708 323.876 462.644 320.657 z"/>
<path transform="translate(0,0)" fill="rgb(254,254,254)" d="M 267.499 677.531 C 317.263 676.039 369.605 677.947 419.481 679.534 C 422.906 679.643 426.171 682.387 428.119 685.086 C 428.491 688.314 428.755 687.001 426.892 689.911 C 419.724 694.448 413.024 692.924 404.525 692.414 C 350.001 691.261 297.759 692.28 242.926 690.472 L 242.721 677.507 L 267.499 677.531 z"/>
<path transform="translate(0,0)" fill="rgb(254,254,254)" d="M 663.078 422.084 C 661.648 417.05 662.551 255.307 665.313 249.895 C 668.834 246.142 673.136 245.444 676.771 249.356 C 679.406 264.72 678.377 416.843 675.08 422.442 L 673.124 422.959 L 671.428 421.791 C 668.683 421.446 665.857 421.847 663.078 422.084 z"/>
<path transform="translate(0,0)" fill="rgb(254,254,254)" d="M 911.226 674.432 C 939.572 672.662 977.948 674.084 1007.19 674.031 C 1030.73 673.989 1069.5 673.065 1091.51 675.22 C 1091.81 680.008 1092.73 685.29 1089.87 688.949 C 1033.43 689.517 976.329 687.917 919.88 686.911 C 915.002 686.825 911.312 686.629 908.16 682.926 C 907.174 678.091 907.307 676.804 911.226 674.432 z"/>
<path transform="translate(0,0)" fill="rgb(254,254,254)" d="M 870.569 798.371 C 875.587 798.411 881.501 799.228 885.808 801.569 C 907.332 813.268 1008.96 867.868 1021.72 880.777 C 1022.11 883.84 1022.02 882.835 1019.73 886.168 C 1016.57 888.918 1017.14 889.348 1013.47 889.651 C 993.858 879.02 875.21 817.374 871.355 802.976 C 870.954 801.475 870.757 799.911 870.569 798.371 z"/>
<path transform="translate(0,0)" fill="rgb(254,254,254)" d="M 806.421 907.977 C 816.27 920.788 822.531 934.292 830.873 948.07 L 893.277 1053.49 L 880.489 1059.41 C 858.319 1024.41 837.588 989.686 817.818 953.29 C 812.385 943.288 801.488 928.615 797.26 919.027 L 806.421 907.977 z"/>
<path transform="translate(0,0)" fill="rgb(254,254,254)" d="M 536.748 917.886 C 536.308 920.365 532.852 925.494 531.379 927.984 C 510.225 963.725 490.451 999.859 466.165 1033.64 C 461.117 1041.32 457.249 1049.95 451.664 1057.23 C 449.55 1059.99 438.944 1055.83 440.854 1052.51 C 460.573 1018.21 480.632 983.264 502.229 950.048 C 506.926 942.824 522.488 911.162 527.203 908.258 L 536.748 917.886 z"/>
<path transform="translate(0,0)" fill="rgb(254,254,254)" d="M 458.383 804.954 L 461.225 805.622 C 464.179 814.616 436.325 826.587 428.747 830.893 C 409.54 841.859 390.248 852.672 370.87 863.333 C 357.133 870.945 325.958 889.626 313.329 894.681 C 310.617 891.523 309.194 887.978 307.37 884.21 C 327.781 867.174 430.732 813.024 458.383 804.954 z"/>
<path transform="translate(0,0)" fill="rgb(254,254,254)" d="M 431.863 553.108 C 429.926 553.758 429.738 553.507 427.621 553.349 C 411.238 542.705 394.681 532.33 377.958 522.229 C 367.683 516.113 311.298 486.831 307.518 481.493 C 306.567 478.311 306.77 478.123 307.941 474.843 C 312.328 470.748 318.488 472.188 323.148 475.139 C 336.403 483.533 353.484 491.24 366.317 499.68 C 383.712 511.12 422.982 526.081 436.908 539.966 C 433.899 544.943 433.154 547.37 431.863 553.108 z"/>
<path transform="translate(0,0)" fill="rgb(254,254,254)" d="M 897.919 548.304 C 897.879 543.879 897.364 539.45 899.113 535.541 C 908.28 529.32 932.256 518.296 943.545 512.319 L 995.739 484.924 C 1002.71 481.351 1025.83 465.383 1027.53 481.882 C 1026.64 484.397 1026.4 485.503 1023.72 486.913 C 986.963 506.313 950.152 525.684 913.273 544.844 C 909.181 546.97 902.495 550.424 898.023 549.216 L 897.919 548.304 z"/>
<path transform="translate(0,0)" fill="rgb(254,254,254)" d="M 579.682 345.086 C 583.484 344.889 584.147 344.704 587.738 345.663 C 593.36 351.505 608.474 426.077 610.367 439.136 C 610.861 442.543 607.711 444.338 605.301 446.397 C 604.264 445.939 603.207 445.437 602.329 444.706 C 598.288 441.347 577.646 358.245 577.403 349.384 C 577.335 346.907 577.994 346.695 579.682 345.086 z"/>
<path transform="translate(0,0)" fill="rgb(254,254,254)" d="M 755.528 345.442 C 757.312 345.934 763.415 347.391 763.044 350.097 C 760.147 371.218 752.46 392.461 747.102 413.116 C 745.071 420.948 740.456 437.405 735.613 443.2 C 731.713 442.752 729.817 442.985 727.688 439.717 C 727.833 431.631 751.148 354.656 755.528 345.442 z"/>
<path transform="translate(0,0)" fill="rgb(254,254,254)" d="M 904.384 435.788 C 909.113 436.163 912.79 437.671 913.644 442.471 C 910.064 448.987 850.96 501.548 845.025 504.202 C 841.714 504.414 837.813 505.203 835.642 502.459 C 840.046 494.389 893.902 444.572 904.384 435.788 z"/>
<path transform="translate(0,0)" fill="rgb(254,254,254)" d="M 842.61 855.139 C 857.639 859.34 898.604 907.259 911.669 919.8 C 914.322 922.345 908.507 930.026 904.996 928.413 C 886.114 910.66 867.871 891.76 849.02 873.855 C 843.879 868.971 841.743 865.786 840.622 859.059 L 842.61 855.139 z"/>
<path transform="translate(0,0)" fill="rgb(254,254,254)" d="M 491.048 857.283 L 492.582 860.875 C 491.851 874.239 439.546 913.436 428.093 925.101 C 426.051 927.18 421.914 923.382 421.351 919.47 C 423.989 910.208 479.801 863.566 491.048 857.283 z"/>
<path transform="translate(0,0)" fill="rgb(254,254,254)" d="M 675.965 1020.37 C 676.887 1023.03 677.052 1030.29 676.707 1032.91 C 675.301 1043.6 678.447 1089.5 673.854 1094.91 C 670.811 1095.86 662.984 1097 662.829 1093.53 C 662.434 1084.67 660.485 1029.18 662.603 1024.81 L 664.093 1023.89 C 667.922 1025.1 671.366 1022.4 675.965 1020.37 z"/>
<path transform="translate(0,0)" fill="rgb(254,254,254)" d="M 429.036 434.552 C 434.034 434.877 439.047 438.459 441.738 442.357 C 449.629 453.787 503.771 496.989 498.397 509.142 C 488.337 505.657 434.151 452.595 426.587 441.878 C 426.338 437.941 426.902 438.343 429.036 434.552 z"/>
<path transform="translate(0,0)" fill="rgb(254,254,254)" d="M 429.729 621.793 L 428.057 622.78 C 419.473 623.002 366.999 607.309 354.427 605.853 C 352.113 605.141 348.135 603.708 346.504 602.054 C 342.963 598.463 343.324 594.167 347.626 591.53 C 362.385 591.908 409.362 607.538 425.306 613.512 C 428.976 614.886 428.955 615.826 429.959 618.71 L 429.729 621.793 z"/>
<path transform="translate(0,0)" fill="rgb(254,254,254)" d="M 987.709 589.206 L 990.472 589.153 C 993.99 590.995 996.799 595.211 999.329 598.424 C 986.906 602.791 927.922 616.039 916.226 616.136 C 912.932 615.207 906.068 613.968 905.087 610.634 C 909.215 606.695 975.888 592.647 987.709 589.206 z"/>
<path transform="translate(0,0)" fill="rgb(254,254,254)" d="M 420.985 747.3 C 424.694 746.23 428.798 746.751 430.568 750.482 C 426.573 757.155 402.617 761.357 394.85 763.27 C 379.564 767.034 364.304 770.909 349.073 774.895 C 345.437 775.586 344.015 776.133 341.336 773.839 C 340.329 770.324 339.784 769.14 340.497 765.504 C 344.924 760.696 409.349 749.77 420.985 747.3 z"/>
<path transform="translate(0,0)" fill="rgb(254,254,254)" d="M 911.459 742.838 C 915.251 742.466 923.038 743.489 926.172 745.238 C 933.256 749.19 991.495 763.348 994.003 766.418 C 994.448 770.09 992.816 772.562 991.224 776.031 C 986.582 776.191 911.308 752.895 910.168 751.578 C 909.267 748.527 910.495 746.026 911.459 742.838 z"/>
<path transform="translate(0,0)" fill="rgb(254,254,254)" d="M 591.747 974.698 C 588.779 981.538 579.798 1015.38 572.092 1013.58 C 566.865 1006.27 577.639 970.322 583.327 966.261 L 591.747 974.698 z"/>
<path transform="translate(0,0)" fill="rgb(254,254,254)" d="M 748.522 971.134 C 754.716 977.685 759.832 1004.28 761.873 1014.4 C 758.121 1014.15 752.555 1013.93 749.042 1013.27 C 747.011 1003.34 744.043 988.156 739.872 978.913 C 741.84 976.242 745.837 973.319 748.522 971.134 z"/>
</svg>