<svg version="1.1" xmlns="http://www.w3.org/2000/svg" style="display: block;" viewBox="0 0 1356 2048" width="502" height="758" preserveAspectRatio="none">
<defs>
	<linearGradient id="Gradient1" gradientUnits="userSpaceOnUse" x1="926.769" y1="541.617" x2="925.232" y2="576.592">
		<stop class="stop0" offset="0" stop-opacity="1" stop-color="rgb(19,17,19)"/>
		<stop class="stop1" offset="1" stop-opacity="1" stop-color="rgb(56,54,55)"/>
	</linearGradient>
	<linearGradient id="Gradient2" gradientUnits="userSpaceOnUse" x1="621.878" y1="541.481" x2="591.17" y2="538.945">
		<stop class="stop0" offset="0" stop-opacity="1" stop-color="rgb(24,24,26)"/>
		<stop class="stop1" offset="1" stop-opacity="1" stop-color="rgb(51,48,51)"/>
	</linearGradient>
	<linearGradient id="Gradient3" gradientUnits="userSpaceOnUse" x1="500.374" y1="552.277" x2="506.362" y2="515.355">
		<stop class="stop0" offset="0" stop-opacity="1" stop-color="rgb(34,32,33)"/>
		<stop class="stop1" offset="1" stop-opacity="1" stop-color="rgb(65,63,65)"/>
	</linearGradient>
	<linearGradient id="Gradient4" gradientUnits="userSpaceOnUse" x1="473.169" y1="512.65" x2="472.814" y2="488.133">
		<stop class="stop0" offset="0" stop-opacity="1" stop-color="rgb(24,23,24)"/>
		<stop class="stop1" offset="1" stop-opacity="1" stop-color="rgb(50,48,50)"/>
	</linearGradient>
	<linearGradient id="Gradient5" gradientUnits="userSpaceOnUse" x1="420.992" y1="652.058" x2="373.759" y2="645.832">
		<stop class="stop0" offset="0" stop-opacity="1" stop-color="rgb(36,35,31)"/>
		<stop class="stop1" offset="1" stop-opacity="1" stop-color="rgb(61,59,61)"/>
	</linearGradient>
	<linearGradient id="Gradient6" gradientUnits="userSpaceOnUse" x1="555.404" y1="932.077" x2="1008.66" y2="755.378">
		<stop class="stop0" offset="0" stop-opacity="1" stop-color="rgb(20,19,19)"/>
		<stop class="stop1" offset="1" stop-opacity="1" stop-color="rgb(50,48,49)"/>
	</linearGradient>
	<linearGradient id="Gradient7" gradientUnits="userSpaceOnUse" x1="810.861" y1="663.569" x2="774.081" y2="630.284">
		<stop class="stop0" offset="0" stop-opacity="1" stop-color="rgb(0,0,0)"/>
		<stop class="stop1" offset="1" stop-opacity="1" stop-color="rgb(39,37,39)"/>
	</linearGradient>
	<linearGradient id="Gradient8" gradientUnits="userSpaceOnUse" x1="586.033" y1="270.564" x2="751.284" y2="992.821">
		<stop class="stop0" offset="0" stop-opacity="1" stop-color="rgb(35,28,28)"/>
		<stop class="stop1" offset="1" stop-opacity="1" stop-color="rgb(63,35,32)"/>
	</linearGradient>
</defs>
<path transform="translate(0,0)" fill="rgb(253,253,253)" d="M 248.682 95.5208 C 315.543 95.9423 382.405 95.8991 449.265 95.3912 L 891.782 95.3101 L 1058.58 95.2659 C 1087.13 95.2239 1119.72 94.0554 1147.75 96.5089 C 1167.9 99.5894 1190.86 111.298 1205.4 125.206 C 1246.57 164.607 1240.57 216.099 1240.44 267.451 L 1240.89 386.223 L 1241.52 890.87 L 1241.54 1553.79 C 1241.28 1610.38 1241.36 1666.98 1241.77 1723.58 C 1241.93 1755.93 1243.43 1792.43 1239.99 1824.2 C 1237.64 1845.93 1223.89 1872.74 1208.22 1888.31 C 1171.93 1924.39 1138.4 1920.19 1092.25 1920.35 L 470.075 1921.02 L 288.496 1920.97 C 256.239 1921.01 217.512 1922.7 185.945 1919.17 C 146.666 1914.28 100.486 1874.55 93.5194 1834.66 C 86.2642 1793.12 89.0058 1738.94 88.9321 1695.5 L 88.9358 1486.71 L 89.0323 873.84 L 89.0968 414.942 L 89.0531 279.561 C 89.0128 227.978 81.8702 171.346 119.832 130.578 C 159.191 88.3079 198.021 97.672 248.682 95.5208 z M 354.817 677.907 C 415.115 679.242 475.435 679.342 535.738 678.206 C 547.905 677.96 576.665 679.213 587.147 678.076 C 598.026 679.84 635.092 679.187 646.989 678.894 C 647.247 663.091 647.231 647.284 646.94 631.48 C 647.323 605.613 646.471 579.334 646.282 553.397 L 645.966 419.668 C 631.659 418.378 609.494 418.939 594.7 418.895 L 493.771 419.138 L 397.173 418.931 C 384.198 418.981 365.713 418.491 353.093 419.501 C 352.58 469.832 353.607 523.973 353.739 574.66 L 354.134 638.507 C 354.208 650.853 353.838 665.78 354.817 677.907 z"/>
<path transform="translate(0,0)" fill="rgb(231,61,60)" d="M 335.579 153.497 C 407.492 152.698 480.396 153.287 552.372 153.292 L 873.5 153.234 L 1025.12 153.123 C 1052.46 153.04 1083.29 151.982 1110.29 154.396 C 1124.37 155.655 1146.69 168.208 1156.74 178.631 C 1178.07 200.737 1182.92 219.012 1183.17 248.238 L 1183.56 1309.12 L 1183.84 1633.71 L 1183.91 1730.45 C 1183.93 1769.66 1189.47 1808.24 1159.09 1838.72 C 1149.66 1848.21 1137.94 1855.1 1125.07 1858.74 C 1099.32 1866.13 1022.3 1863.69 990.75 1863.64 L 460.718 1863.44 L 295.526 1863.36 C 276.881 1863.25 240.371 1864.6 224.015 1862.51 C 205.354 1860.03 187.964 1851.68 174.356 1838.67 C 144.996 1810.18 146.275 1778.49 146.138 1740.97 C 145.753 1635.66 146.076 1530.28 146.001 1424.98 L 145.914 735.474 L 145.884 393.343 L 146 288.907 C 146.059 248.494 140.412 211.559 171.472 180.132 C 182.789 168.708 196.967 160.534 212.523 156.462 C 229.251 152.184 257.485 153.509 275.668 153.618 C 295.638 153.76 315.609 153.72 335.579 153.497 z M 354.817 677.907 C 415.115 679.242 475.435 679.342 535.738 678.206 C 547.905 677.96 576.665 679.213 587.147 678.076 C 598.026 679.84 635.092 679.187 646.989 678.894 C 647.247 663.091 647.231 647.284 646.94 631.48 C 647.323 605.613 646.471 579.334 646.282 553.397 L 645.966 419.668 C 631.659 418.378 609.494 418.939 594.7 418.895 L 493.771 419.138 L 397.173 418.931 C 384.198 418.981 365.713 418.491 353.093 419.501 C 352.58 469.832 353.607 523.973 353.739 574.66 L 354.134 638.507 C 354.208 650.853 353.838 665.78 354.817 677.907 z"/>
<path transform="translate(0,0)" fill="rgb(253,253,253)" d="M 363.342 1095.5 L 847.947 1095.67 L 988.442 1095.65 C 1014 1095.63 1041.83 1095.01 1067.2 1096.91 C 1080.95 1097.95 1096.94 1106.47 1106.58 1116.07 C 1123.09 1132.53 1129.37 1150.39 1129.29 1173.41 C 1129.13 1215.23 1129.22 1257.07 1129.21 1298.87 L 1129.31 1557.36 L 1129.82 1678.1 C 1130.01 1713.46 1136.46 1756.81 1109.78 1783.43 C 1082.71 1810.44 1052.02 1806.85 1017.55 1806.51 C 1000.87 1806.39 984.184 1806.35 967.5 1806.4 L 468.266 1806.49 L 336.593 1806.76 C 320.953 1806.85 278.226 1807.95 264.453 1806.01 C 248.271 1803.66 233.297 1796.1 221.806 1784.47 C 210.758 1773.58 203.546 1759.41 201.256 1744.07 C 199.049 1729.32 200.053 1695.84 200.101 1679.41 L 200.005 1573.47 L 199.805 1188.43 C 199.787 1160.08 199.869 1139.15 222.058 1117.25 C 230.861 1108.42 241.812 1102.04 253.831 1098.73 C 272.035 1093.78 339.721 1095.49 363.342 1095.5 z"/>
<path transform="translate(0,0)" fill="rgb(254,204,1)" d="M 407.93 1595.36 C 426.383 1593.87 520.599 1593.07 534.29 1596.83 C 539.644 1598.3 543.023 1601.32 545.705 1606.15 C 547.723 1609.79 548.223 1613.93 548.572 1618 C 550.031 1635.08 550.892 1730.18 546.621 1741.79 C 544.09 1748.67 537.553 1751.75 531.269 1754.32 C 514.447 1756.42 495.978 1755.04 478.936 1755.06 C 458.453 1755.09 437.264 1756.21 416.876 1754.78 C 411.807 1754.42 406.31 1753.62 401.589 1751.65 C 396.925 1749.7 393.868 1745.6 392.094 1740.98 C 388.095 1730.58 388.969 1636.03 390.243 1619.57 C 390.575 1615.27 391.005 1610.45 392.933 1606.52 C 396.182 1599.89 401.346 1597.56 407.93 1595.36 z"/>
<path transform="translate(0,0)" fill="rgb(253,253,253)" d="M 455.599 1622.32 L 460.126 1623.5 C 463.016 1626.78 460.244 1629.12 462.822 1634.01 C 466.012 1635.84 464.598 1635.55 468.145 1635.21 C 472.322 1630.58 466.905 1625.74 472.539 1622.83 C 480.113 1624.72 474.863 1633.36 478.225 1634.78 C 517.566 1651.4 486.846 1665.18 485.786 1673.51 C 505.663 1679.63 505.244 1703.37 486.687 1712.46 C 472.881 1715.53 479.352 1717.8 474.752 1726.34 L 472.129 1726.52 C 468.541 1722.9 471.812 1720.54 468.263 1715.51 C 464.962 1714.3 466.303 1714.29 463.088 1715.15 C 459.919 1719.31 464.49 1724.2 458.507 1726.67 C 451.894 1724.8 456.84 1720.17 454.42 1716.11 C 452.871 1713.52 448.596 1716.32 444.495 1711.13 C 443.46 1701.98 442.7 1640.58 446.016 1636.11 C 449.601 1635.96 450.555 1636.13 453.288 1633.91 C 455.818 1630.82 455.441 1626.43 455.599 1622.32 z"/>
<path transform="translate(0,0)" fill="rgb(254,204,1)" d="M 455.188 1678.48 C 468.247 1678.52 502.466 1678.04 485.281 1701.52 C 475.1 1706.77 466.734 1705.53 455.1 1705.58 C 455.295 1696.71 455.169 1687.39 455.188 1678.48 z"/>
<path transform="translate(0,0)" fill="rgb(254,204,1)" d="M 455.266 1644.05 C 467.733 1644.08 498.217 1645.09 480.968 1665.89 C 472.906 1669.85 464.168 1668.79 455.071 1668.73 L 455.266 1644.05 z"/>
<path transform="translate(0,0)" fill="rgb(0,0,0)" d="M 927.991 1607.34 C 937.301 1607.86 947.008 1609.52 953.893 1615.94 C 982.816 1642.91 965.169 1705.37 932.941 1722.78 C 925.164 1726.98 919.647 1727.9 911.239 1728.64 C 902.18 1728.23 892.82 1726.72 885.95 1720.74 C 855.997 1694.65 873.999 1631.62 905.423 1613.82 C 913.455 1609.27 919.264 1608.25 927.991 1607.34 z"/>
<path transform="translate(0,0)" fill="rgb(253,253,253)" d="M 923.37 1632.96 C 950.519 1636.71 940.227 1693.7 915.289 1703.16 C 889.239 1698.83 899.312 1642.01 923.37 1632.96 z"/>
<path transform="translate(0,0)" fill="rgb(0,0,0)" d="M 828.996 1607.35 C 852.886 1608.67 866.833 1621.59 868.85 1645.61 C 871.979 1682.87 853.01 1725.01 812.237 1728.64 C 803.411 1728.31 794.069 1726.74 787.262 1721 C 756.952 1695.41 774.847 1631.85 806.024 1614.03 C 814.175 1609.37 820.024 1608.25 828.996 1607.35 z"/>
<path transform="translate(0,0)" fill="rgb(253,253,253)" d="M 824.376 1632.99 C 850.538 1636.68 838.952 1682.89 827.277 1696.03 C 823.474 1700.31 821.504 1701.18 816.29 1703.11 C 790.282 1699.56 800.01 1641.94 824.376 1632.99 z"/>
<path transform="translate(0,0)" fill="rgb(0,0,0)" d="M 519.774 1363.13 C 526.753 1363.08 533.987 1363.37 540.984 1363.54 C 546.304 1376.04 549.75 1392.04 553.289 1405.42 C 559.051 1426.39 564.438 1447.46 569.448 1468.62 C 561.563 1469.1 554.348 1469.02 546.467 1468.96 L 543.221 1450.46 C 534.854 1449.94 524.805 1450.17 516.287 1450.19 C 515.083 1455.41 514.268 1463.58 513.559 1469.1 C 490.814 1470.17 460.212 1469.19 436.879 1469.1 L 436.91 1438.75 C 436.768 1414.27 436.336 1388.19 437.362 1363.85 L 458.765 1364.02 C 459.469 1391.39 458.646 1420.84 458.799 1448.55 C 469.494 1448.67 479.841 1448.73 490.531 1449.46 C 490.484 1455.25 490.374 1461.05 490.2 1466.85 C 501.84 1437.8 508.918 1395.2 519.774 1363.13 z"/>
<path transform="translate(0,0)" fill="rgb(253,253,253)" d="M 529.178 1396.69 C 531.969 1399.17 538.203 1427.09 536.902 1431.15 L 534.839 1431.37 L 522.244 1430.91 C 524.282 1419.45 526.594 1408.04 529.178 1396.69 z"/>
<path transform="translate(0,0)" fill="rgb(0,0,0)" d="M 704.028 1207.75 L 728.905 1207.78 C 733.458 1227.9 739.668 1249.51 744.533 1270.17 C 750.214 1251.18 755.802 1225.79 762.583 1208.26 C 770.693 1208.18 778.763 1208.63 786.865 1209 C 787.611 1242.32 790.03 1281.65 789.593 1314.14 L 768.69 1313.93 C 768.884 1302.59 768.476 1291.1 768.185 1279.75 L 767.565 1251.38 C 767.142 1253.67 766.662 1255.94 766.123 1258.2 C 746.437 1338.84 739.389 1312.85 722.409 1253.06 C 720.931 1270.13 721.342 1296.82 721.145 1314.26 L 700.781 1314.14 C 700.727 1278.65 701.81 1243.17 704.028 1207.75 z"/>
<path transform="translate(0,0)" fill="rgb(0,0,0)" d="M 732.888 1362.12 C 778.898 1358.57 784.507 1421.98 768.822 1452.32 C 763.633 1462.36 755.638 1467.66 744.972 1470.6 C 723.326 1471.7 707.452 1460.93 702.845 1439.59 C 696.615 1410.74 699.375 1371.04 732.888 1362.12 z"/>
<path transform="translate(0,0)" fill="rgb(253,253,253)" d="M 738.165 1383.01 C 752.396 1386.76 754.07 1402.19 754.059 1414.63 C 754.047 1428.56 753.124 1442.85 739.73 1450.02 C 718.458 1445.39 722.402 1412.18 726.272 1396.02 C 727.855 1389.41 732.27 1385.82 738.165 1383.01 z"/>
<path transform="translate(0,0)" fill="rgb(0,0,0)" d="M 725.038 1611.75 L 763.325 1611.94 L 752.78 1678.52 L 766.373 1678.84 C 765.196 1686.21 763.974 1693.57 762.707 1700.93 L 749.428 1700.96 C 748.07 1708.68 746.869 1716.58 745.616 1724.33 C 739.012 1724.37 724.359 1724.81 718.539 1723.79 C 719.812 1716.24 721.021 1708.68 722.166 1701.11 C 704.245 1700.77 685.65 1700.97 667.676 1700.93 C 668.192 1696.65 669.111 1687.52 671.264 1683.97 C 685.428 1660.58 708.16 1633.51 725.038 1611.75 z"/>
<path transform="translate(0,0)" fill="rgb(253,253,253)" d="M 730.76 1636.9 L 731.323 1637.52 C 731.776 1644.11 726.879 1670.53 725.467 1678.69 L 701.35 1678.52 L 700.31 1677.56 C 708.053 1665.55 721.75 1649.28 730.76 1636.9 z"/>
<path transform="translate(0,0)" fill="rgb(0,0,0)" d="M 929.267 1363.59 C 935.584 1364.17 943.793 1364.14 950.268 1364.3 C 951.164 1375.59 951.05 1389.99 951.507 1401.61 C 952.584 1423.93 953.433 1446.26 954.053 1468.59 C 947.578 1468.83 940.465 1468.49 933.94 1468.32 C 933.523 1458.15 933.629 1447 933.524 1436.75 L 933.146 1410.93 C 927.123 1425.13 922.033 1456.38 913.761 1463.31 C 899.52 1467.33 891.669 1420.99 888.305 1409.47 C 887.658 1428.73 887.817 1449.39 887.616 1468.78 C 881.168 1469.05 874.271 1468.98 867.783 1469.03 C 866.676 1440.29 868.414 1393.15 870.439 1364.09 L 893.382 1363.94 C 901.136 1386.51 905.271 1404.32 910.065 1427.43 C 916.766 1405.56 920.524 1384.82 929.267 1363.59 z"/>
<path transform="translate(0,0)" fill="rgb(0,0,0)" d="M 789.444 1363.44 C 823.607 1363.42 862.807 1358.94 854.132 1409.89 C 852.716 1418.21 846.402 1422.87 839.648 1427.03 C 844.934 1440.66 852.09 1455.17 858.508 1468.36 C 850.004 1468.79 841.996 1468.85 833.485 1468.89 C 829.97 1460.98 822.042 1434.69 815.353 1431.65 L 813.701 1432.72 C 810.626 1439.91 812.113 1459.44 812.384 1468.19 C 804.857 1468.51 797.138 1468.48 789.591 1468.55 C 789.573 1434.45 788.482 1397.17 789.444 1363.44 z"/>
<path transform="translate(0,0)" fill="rgb(253,253,253)" d="M 812.189 1383.72 C 831.006 1383.53 838.799 1391.49 829.532 1409.46 C 824.836 1412.67 817.937 1412.56 812.27 1412.89 C 811.911 1403.16 812.091 1393.46 812.189 1383.72 z"/>
<path transform="translate(0,0)" fill="rgb(0,0,0)" d="M 360.461 1364.08 C 376.977 1363.52 398.462 1360.81 412.88 1370.8 C 427.396 1380.85 429.927 1405.06 419.95 1419.21 C 412.166 1430.24 400.594 1432.38 387.877 1434.34 C 386.876 1434.36 385.291 1434.85 384.253 1435.1 C 381.483 1439.37 382.756 1461.74 382.805 1468.3 C 375.723 1468.7 368.086 1468.73 360.953 1468.9 C 360.235 1435.68 359.12 1397.11 360.461 1364.08 z"/>
<path transform="translate(0,0)" fill="rgb(253,253,253)" d="M 383.26 1383.28 C 387.891 1383.42 393.002 1383.05 397.023 1385.68 C 406.332 1391.74 404.619 1403.39 398.698 1411.37 C 393.02 1413.83 389.503 1414.06 383.387 1414.89 C 383.058 1404.36 383.016 1393.81 383.26 1383.28 z"/>
<path transform="translate(0,0)" fill="rgb(0,0,0)" d="M 634.921 1208.02 L 688.786 1208.31 L 688.834 1228.89 L 656.44 1229.03 C 656.31 1235.58 656.363 1242.4 656.33 1248.97 C 665.395 1248.94 674.461 1248.98 683.527 1249.08 C 683.918 1255.71 683.812 1263.32 683.876 1270.03 C 674.527 1270.07 664.818 1269.81 655.439 1269.69 C 655.277 1275.51 655.47 1282.01 655.515 1287.89 C 655.598 1289.84 655.816 1290.23 656.3 1292.1 C 660.727 1294.49 681.191 1293.4 688.815 1293.65 L 689.346 1314.56 C 670.919 1314.6 652.492 1314.41 634.069 1314 C 633.607 1279.32 634.532 1242.82 634.921 1208.02 z"/>
<path transform="translate(0,0)" fill="rgb(0,0,0)" d="M 549.099 1206.29 C 562.88 1205.9 570.977 1209.23 581.234 1218.14 C 578.478 1224.72 573.497 1229.85 568.668 1234.92 C 563.2 1230.44 553.116 1224.4 546.925 1230.92 C 545.305 1232.61 544.511 1234.93 544.752 1237.25 C 545.861 1247.29 566.624 1251.93 572.409 1258.03 C 595.691 1282.55 581.032 1312.91 549.19 1315.42 C 537.244 1314.53 526.809 1309.67 518.261 1301.33 C 521.685 1294.66 525.251 1289.87 530.049 1284.17 C 536.329 1288.02 545.526 1294.22 553.054 1293.4 C 558.356 1293.21 561.832 1283.28 558.648 1279.73 C 545.444 1265.01 525.612 1265.39 521.321 1242.42 C 519.745 1234.35 521.529 1225.99 526.259 1219.27 C 532.2 1210.9 539.417 1207.92 549.099 1206.29 z"/>
<path transform="translate(0,0)" fill="rgb(0,0,0)" d="M 638.62 1364.05 C 656.452 1363.71 675.397 1363.12 693.133 1364.08 C 693.204 1370.63 692.802 1377.46 692.524 1384.02 L 660.498 1384.06 C 660.309 1390.79 660.425 1398.18 660.408 1404.97 C 670.314 1404.87 678.937 1404.95 688.826 1405.42 L 688.859 1425.71 L 680.25 1425.38 L 661.203 1425.2 C 660.83 1439.32 661.043 1454.2 661.021 1468.38 C 653.967 1468.53 646.471 1468.43 639.384 1468.44 C 638.28 1434.48 638.565 1398.01 638.62 1364.05 z"/>
<path transform="translate(0,0)" fill="rgb(0,0,0)" d="M 564.937 1363.8 C 584.065 1364.71 609.418 1364.01 628.983 1364.09 L 628.923 1384.07 C 621.093 1384.08 615.019 1384.31 607.212 1384.89 L 607.132 1446.5 L 607.031 1468.83 L 586.083 1468.93 C 585.441 1441.35 585.811 1412.71 585.805 1385.05 C 578.74 1384.47 571.766 1384.25 564.687 1383.99 C 564.641 1377.36 564.842 1370.45 564.937 1363.8 z"/>
<path transform="translate(0,0)" fill="rgb(0,0,0)" d="M 595.339 1208.19 L 617.188 1208.25 C 617.388 1243.64 617.306 1279.03 616.944 1314.42 C 610.127 1314.53 602.168 1314.09 595.269 1313.89 C 594.924 1278.96 595.303 1243.2 595.339 1208.19 z"/>
<path transform="translate(0,0)" fill="url(#Gradient8)" d="M 932.043 324.485 C 955.273 324.177 981.645 322.521 1004.33 325.515 C 1023.33 328.023 1028.08 348.049 1027.97 363.889 C 1027.68 406.408 1027.46 448.883 1027.46 491.391 L 1027.54 742.913 C 1027.21 797.819 1029.35 853.686 1027.49 908.587 C 1027.05 921.537 1016.8 937.053 1002.61 937.762 C 982.064 938.787 961.023 938.384 940.27 938.317 L 821.516 937.903 L 411.25 938.037 C 402.987 937.975 394.635 938.273 386.455 938.192 C 369.879 937.81 352.64 940.412 336.241 937.925 C 321.337 935.665 310.237 922.443 310.179 907.487 C 310.03 868.992 310.054 830.494 310.055 792.026 L 310.16 559.187 C 310.038 513.719 310.244 468.251 310.778 422.787 C 310.856 399.84 309.776 376.762 311.317 353.893 C 312.315 339.072 326.41 326.345 340.959 325.572 C 360.901 324.513 381.418 325.048 401.447 325.076 L 522.752 325.212 C 657.979 325.354 796.966 326.232 932.043 324.485 z M 354.817 677.907 C 415.115 679.242 475.435 679.342 535.738 678.206 C 547.905 677.96 576.665 679.213 587.147 678.076 C 598.026 679.84 635.092 679.187 646.989 678.894 C 647.247 663.091 647.231 647.284 646.94 631.48 C 647.323 605.613 646.471 579.334 646.282 553.397 L 645.966 419.668 C 631.659 418.378 609.494 418.939 594.7 418.895 L 493.771 419.138 L 397.173 418.931 C 384.198 418.981 365.713 418.491 353.093 419.501 C 352.58 469.832 353.607 523.973 353.739 574.66 L 354.134 638.507 C 354.208 650.853 353.838 665.78 354.817 677.907 z"/>
<path transform="translate(0,0)" fill="rgb(253,253,253)" d="M 326.536 387.52 C 454.138 385.338 586.438 386.995 714.437 387.127 L 915.264 387.093 C 949.605 386.837 983.948 386.843 1018.29 387.111 C 1020.19 424.001 1018.69 470.024 1018.52 507.441 C 1017.96 575.491 1018.06 643.544 1018.83 711.592 C 1019.42 777.523 1018.33 845.475 1017.51 911.478 C 1017.45 915.796 1011.82 921.868 1008.89 924.857 C 999.91 929.928 943.005 927.693 929.615 927.704 L 803.297 927.941 L 547.821 928.097 L 406.142 928.187 C 383.563 928.203 360.644 928.559 338.118 927.625 C 326.27 927.133 319.816 914.944 319.761 904.291 C 319.578 868.913 319.788 833.548 319.788 798.172 L 319.879 571.679 L 319.615 449.282 C 319.604 438.638 319.15 397.742 320.429 388.999 C 322.722 387.154 322.895 387.77 326.536 387.52 z M 354.817 677.907 C 415.115 679.242 475.435 679.342 535.738 678.206 C 547.905 677.96 576.665 679.213 587.147 678.076 C 598.026 679.84 635.092 679.187 646.989 678.894 C 647.247 663.091 647.231 647.284 646.94 631.48 C 647.323 605.613 646.471 579.334 646.282 553.397 L 645.966 419.668 C 631.659 418.378 609.494 418.939 594.7 418.895 L 493.771 419.138 L 397.173 418.931 C 384.198 418.981 365.713 418.491 353.093 419.501 C 352.58 469.832 353.607 523.973 353.739 574.66 L 354.134 638.507 C 354.208 650.853 353.838 665.78 354.817 677.907 z"/>
<path transform="translate(0,0)" fill="rgb(38,37,38)" d="M 707 666.791 C 726.378 610.409 802.756 585.549 854.975 607.996 C 879.747 618.644 902.684 637.712 913.539 662.682 C 916.122 665.977 922.041 680.054 924.201 684.746 C 943.167 684.215 965.356 683.716 984.255 684.395 L 984.074 790.209 C 984.039 806.713 983.27 831.362 984.534 847.163 C 992.735 855.002 1005.69 865.206 1005.89 877.532 C 1006.14 892.994 990.564 907.549 975.301 907.522 C 965.472 907.505 960.292 900.583 952.607 895.763 C 909.721 894.703 864.985 896.88 821.959 895.996 C 807.566 895.7 784.902 896.831 771.218 895.621 C 770.19 875.541 772.657 840.661 770.205 823.172 C 761.344 818.996 753.478 815.391 745.058 810.382 C 744.804 820.519 745.349 891.015 743.593 894.499 C 730.301 897.144 684.415 895.802 668.131 895.849 L 587.466 896.038 C 576.529 895.999 561.225 896.368 550.573 895.759 L 432.669 896.233 C 417.225 896.317 364.327 897.917 352.763 894.257 C 349.04 888.332 353.653 745.178 351.927 725.546 C 351.646 722.348 352.049 714.239 354.909 711.943 C 360.47 710.544 367.499 710.928 373.132 711.841 C 434.835 711.061 498.028 712.391 559.82 712.72 L 695.888 712.25 C 697.844 694.107 700.32 683.835 707 666.791 z"/>
<path transform="translate(0,0)" fill="rgb(253,253,253)" d="M 707 666.791 C 726.378 610.409 802.756 585.549 854.975 607.996 C 879.747 618.644 902.684 637.712 913.539 662.682 L 912.083 662.996 C 910.617 660.882 909.558 658.821 907.248 657.787 C 906.853 660.17 906.412 661.581 906.985 663.943 L 906.403 665.148 C 919.231 694.182 923.468 722.892 911.652 752.838 C 889.683 808.518 825.872 836.886 770.313 813.24 C 753.629 806.139 739.772 794.794 727.766 781.785 C 702.479 748.012 698.263 710.818 713.737 671.731 C 710.977 668.946 710.532 668.426 707 666.791 z"/>
<path transform="translate(0,0)" fill="rgb(38,37,38)" d="M 707 666.791 C 726.378 610.409 802.756 585.549 854.975 607.996 C 879.747 618.644 902.684 637.712 913.539 662.682 L 912.083 662.996 C 910.617 660.882 909.558 658.821 907.248 657.787 C 906.853 660.17 906.412 661.581 906.985 663.943 L 906.403 665.148 C 887.366 635.135 867.717 619.016 832.318 610.258 C 803.252 603.067 777.548 610.665 752.738 626.013 C 733.417 637.965 723.786 651.953 713.737 671.731 C 710.977 668.946 710.532 668.426 707 666.791 z"/>
<path transform="translate(0,0)" fill="rgb(253,253,253)" d="M 746.878 657.99 C 769.099 632.771 803.938 622.744 836.165 632.291 C 852.584 637.156 867.186 646.794 878.112 659.98 C 903.703 690.862 904.651 735.303 880.401 767.249 C 861.3 792.412 829.979 805.131 798.743 800.409 C 767.506 795.687 741.344 774.279 730.534 744.595 C 719.724 714.911 725.993 681.693 746.878 657.99 z"/>
<path transform="translate(0,0)" fill="rgb(0,0,0)" d="M 746.878 657.99 C 750.87 661.088 751.111 660.261 752.377 664.327 C 733.906 685.839 728.577 715.686 738.461 742.261 C 748.346 768.836 771.884 787.946 799.922 792.16 C 827.961 796.373 856.076 785.026 873.335 762.529 C 896.1 732.855 894.574 691.192 869.699 663.262 C 872.508 662.069 875.26 661.05 878.112 659.98 C 903.703 690.862 904.651 735.303 880.401 767.249 C 861.3 792.412 829.979 805.131 798.743 800.409 C 767.506 795.687 741.344 774.279 730.534 744.595 C 719.724 714.911 725.993 681.693 746.878 657.99 z"/>
<path transform="translate(0,0)" fill="url(#Gradient7)" d="M 746.878 657.99 C 769.099 632.771 803.938 622.744 836.165 632.291 C 835.54 634.662 835.158 637.617 833.342 638.982 L 829.015 639.156 C 800.776 632.644 771.256 642.34 752.377 664.327 C 751.111 660.261 750.87 661.088 746.878 657.99 z"/>
<path transform="translate(0,0)" fill="rgb(38,37,38)" d="M 836.165 632.291 C 852.584 637.156 867.186 646.794 878.112 659.98 C 875.26 661.05 872.508 662.069 869.699 663.262 C 858.962 651.207 844.746 642.784 829.015 639.156 L 833.342 638.982 C 835.158 637.617 835.54 634.662 836.165 632.291 z"/>
<path transform="translate(0,0)" fill="rgb(38,37,38)" d="M 804.43 669.268 C 838.287 667.918 862.98 684.035 877.992 713.989 C 872.803 741.061 842.239 757.994 816.751 760.928 C 782.589 760.038 758.986 743.565 740.207 716.087 C 751.186 693.647 779.783 672.639 804.43 669.268 z"/>
<path transform="translate(0,0)" fill="rgb(253,253,253)" d="M 801.995 678.189 C 831.155 675.676 852.781 691.078 868.607 714.583 C 859.544 734.719 842.721 746.916 821.247 750.928 C 807.06 752.691 794.193 749.985 781.74 742.556 C 772.471 737.194 746.974 721.382 756.355 708.186 C 765.941 694.702 786.107 681.877 801.995 678.189 z"/>
<path transform="translate(0,0)" fill="rgb(38,37,38)" d="M 801.766 686.864 C 811.236 683.656 821.7 685.814 829.128 692.506 C 836.555 699.199 839.788 709.382 837.581 719.133 C 835.373 728.885 828.07 736.683 818.483 739.523 C 804.052 743.8 788.853 735.739 784.299 721.393 C 779.744 707.047 787.511 691.695 801.766 686.864 z"/>
<path transform="translate(0,0)" fill="rgb(253,253,253)" d="M 804.853 695.201 C 811.379 693.269 818.44 695.025 823.3 699.791 C 828.16 704.556 830.055 711.581 828.251 718.144 C 826.447 724.707 821.228 729.776 814.615 731.388 C 804.729 733.798 794.726 727.882 792.076 718.058 C 789.426 708.234 795.097 698.09 804.853 695.201 z"/>
<path transform="translate(0,0)" fill="url(#Gradient6)" d="M 906.403 665.148 L 906.985 663.943 C 906.412 661.581 906.853 660.17 907.248 657.787 C 909.558 658.821 910.617 660.882 912.083 662.996 L 913.539 662.682 C 916.122 665.977 922.041 680.054 924.201 684.746 C 943.167 684.215 965.356 683.716 984.255 684.395 L 984.074 790.209 C 984.039 806.713 983.27 831.362 984.534 847.163 C 992.735 855.002 1005.69 865.206 1005.89 877.532 C 1006.14 892.994 990.564 907.549 975.301 907.522 C 965.472 907.505 960.292 900.583 952.607 895.763 C 909.721 894.703 864.985 896.88 821.959 895.996 C 807.566 895.7 784.902 896.831 771.218 895.621 C 770.19 875.541 772.657 840.661 770.205 823.172 C 761.344 818.996 753.478 815.391 745.058 810.382 C 744.804 820.519 745.349 891.015 743.593 894.499 C 730.301 897.144 684.415 895.802 668.131 895.849 L 587.466 896.038 C 576.529 895.999 561.225 896.368 550.573 895.759 C 548.542 895.163 536.99 894.328 533.147 893.741 C 533.521 892.658 534.716 893.865 537.546 890.825 C 535.177 889.834 533.318 891.464 529.407 890.22 C 537.088 886.266 603.11 891.016 615.641 888.011 C 654.6 885.923 696.342 888.213 736.632 885.988 C 737.154 863.512 738.86 822.79 733.849 800.819 C 733.117 797.608 724.41 788.888 721.525 785.845 C 724.714 784.526 725.161 784.083 727.766 781.785 C 739.772 794.794 753.629 806.139 770.313 813.24 C 825.872 836.886 889.683 808.518 911.652 752.838 C 923.468 722.892 919.231 694.182 906.403 665.148 z"/>
<path transform="translate(0,0)" fill="rgb(142,188,206)" d="M 882.063 808.02 C 895.867 819.639 887.985 826.404 895.963 835.876 C 910.338 852.942 927.68 869.565 942.69 886.122 L 837.302 886.074 C 818.026 886.127 798.75 886.048 779.475 885.838 C 778.195 868.761 778.698 844.578 778.717 827.284 C 826.108 836.156 841.49 831.149 882.063 808.02 z"/>
<path transform="translate(0,0)" fill="rgb(142,188,206)" d="M 930.751 729.531 C 945.566 728.866 960.257 729.097 975.08 729.204 C 975.878 764.427 975.807 799.664 974.868 834.884 L 963.544 823.703 C 954.08 814.5 942.988 800.382 932.291 793.237 L 921.593 793.722 C 918.571 789.747 912.631 784.03 908.982 780.301 C 913.598 770.025 919.002 759.804 923.285 749.316 C 925.561 743.74 925.804 734.827 927.98 730.147 L 930.751 729.531 z"/>
<path transform="translate(0,0)" fill="rgb(253,253,253)" d="M 927.959 803.659 C 930.298 803.995 934.479 807.581 936.44 809.483 C 956.289 828.747 975.652 849.79 994.191 870.268 C 999.066 875.654 996.682 887.261 991.425 891.989 C 985.205 897.584 982.131 898.975 973.658 899.14 C 962.069 895.296 939.085 867.804 929.483 858.195 C 921.632 850.339 908.591 837.042 901.907 828.322 C 908.184 819.365 919.442 810.709 927.959 803.659 z"/>
<path transform="translate(0,0)" fill="rgb(253,253,253)" d="M 926.312 694.218 C 942.538 693.83 958.77 693.769 974.999 694.034 C 975.58 702.992 975.268 711.008 975.014 719.966 C 958.948 720.139 942.88 720.13 926.815 719.941 L 926.312 694.218 z"/>
<path transform="translate(0,0)" fill="rgb(253,253,253)" d="M 901.836 787.802 C 906.469 791.612 910.836 795.704 915.254 799.76 C 911.152 805.747 908.463 808.112 902.63 812.211 C 896.86 811.343 893.495 805.28 890.242 800.83 C 894.147 794.953 896.806 792.634 901.836 787.802 z"/>
<path transform="translate(0,0)" fill="rgb(253,253,253)" d="M 607.577 755.774 C 638.992 756 671.707 756.311 703.089 755.861 C 708.758 766.631 713.447 776.68 721.525 785.845 C 724.41 788.888 733.117 797.608 733.849 800.819 C 738.86 822.79 737.154 863.512 736.632 885.988 C 696.342 888.213 654.6 885.923 615.641 888.011 C 608.457 887.282 591.027 887.832 583.241 887.858 C 560.791 888.092 538.34 888.045 515.891 887.716 C 515.106 871.793 515.6 851.756 515.61 835.556 C 515.505 809.04 515.647 782.524 516.035 756.01 L 607.577 755.774 z"/>
<path transform="translate(0,0)" fill="rgb(0,0,0)" d="M 589.457 836.468 C 628.08 835.484 668.458 835.645 707.219 836.317 C 710.886 836.381 713.945 836.705 715.651 840.05 L 714.916 841.87 C 711.883 844.696 709.066 845.589 704.967 845.492 C 691.39 845.169 677.808 844.948 664.23 844.684 C 649.751 844.087 541.937 846.754 538.136 845.061 C 537.209 842.388 537.483 841.836 537.884 838.925 C 542.159 835.691 580.847 836.626 589.457 836.468 z"/>
<path transform="translate(0,0)" fill="rgb(0,0,0)" d="M 561.831 777.488 C 579.502 777.51 687.26 775.287 695.088 779.558 C 695.476 779.77 695.847 780.013 696.226 780.241 L 694.824 779.243 L 695.035 781.278 C 687.685 785.236 681.341 784.842 673.25 784.959 C 660.2 785.157 542.951 786.725 538.862 783.611 C 537.934 780.457 537.925 781.975 538.762 778.894 C 542.666 776.921 556.663 777.498 561.831 777.488 z"/>
<path transform="translate(0,0)" fill="rgb(0,0,0)" d="M 650.719 856.468 C 652.392 856.45 654.065 856.451 655.738 856.469 C 661.364 856.548 664.01 856.608 668.18 860.874 L 667.47 862.683 C 658.995 866.218 572.387 864.923 557.25 864.876 C 550.966 864.743 540.087 867.247 537.353 860.604 L 538.417 858.783 C 545.161 855.018 633.695 856.864 650.719 856.468 z"/>
<path transform="translate(0,0)" fill="rgb(0,0,0)" d="M 544.422 796.391 C 571.705 795.245 599.105 796.333 626.4 795.91 C 628.405 795.879 630.408 798.041 632.056 797.995 C 642.016 797.714 652.74 795.769 662.682 797.233 L 662.426 798.444 L 658.118 800.059 C 651.529 803.082 642.682 804.653 632.719 804.821 C 602.651 805.33 569.946 805.873 539.816 804.335 C 539.255 803.832 538.695 803.329 538.134 802.826 C 538.707 797.927 540.313 797.511 544.422 796.391 z"/>
<path transform="translate(0,0)" fill="rgb(0,0,0)" d="M 537.328 818.277 C 545.872 817.88 580.636 815.5 585.795 820.494 L 585.774 824.329 C 577.098 825.505 546.814 826.095 538.804 824.601 C 536.638 822.176 537.377 822.589 537.328 818.277 z"/>
<path transform="translate(0,0)" fill="rgb(253,253,253)" d="M 361.688 721.126 C 436.466 719.563 517.444 720.609 592.509 720.744 L 661.327 720.904 C 671.675 720.882 686.807 721.271 696.809 720.376 C 697.58 729.026 698.337 739.348 700.316 747.761 L 593.965 747.846 C 582.36 747.823 552.767 746.896 542.285 747.864 C 533.403 746.698 508.222 746.831 498.885 746.954 C 479.593 747.208 456.088 746.471 436.962 747.848 C 425.221 747.031 404.524 747.811 392.218 747.999 C 383.337 747.474 370.737 747.812 361.572 747.774 C 361.292 738.368 361.361 730.535 361.688 721.126 z"/>
<path transform="translate(0,0)" fill="rgb(0,0,0)" d="M 707 666.791 C 710.532 668.426 710.977 668.946 713.737 671.731 C 698.263 710.818 702.479 748.012 727.766 781.785 C 725.161 784.083 724.714 784.526 721.525 785.845 C 713.447 776.68 708.758 766.631 703.089 755.861 C 671.707 756.311 638.992 756 607.577 755.774 C 594.748 752.238 538.956 756.959 533.441 753.735 L 536.032 752.97 C 537.003 751.216 536.617 752.126 536.093 749.401 C 532.834 749.438 532.362 750.017 530.15 748.563 C 534.208 748.553 538.239 748.176 542.285 747.864 C 552.767 746.896 582.36 747.823 593.965 747.846 L 700.316 747.761 C 698.337 739.348 697.58 729.026 696.809 720.376 C 690.111 718.875 646.96 719.82 636.037 719.808 L 457.139 719.812 L 412.103 719.618 C 398.177 719.678 386.713 720.945 372.995 718.312 C 376.199 717.168 378.649 718.84 382.441 717.568 L 382.175 715.253 C 379.417 713.207 376.75 713.409 373.217 713.094 L 373.132 711.841 C 434.835 711.061 498.028 712.391 559.82 712.72 L 695.888 712.25 C 697.844 694.107 700.32 683.835 707 666.791 z"/>
<path transform="translate(0,0)" fill="rgb(0,0,0)" d="M 392.218 747.999 C 404.524 747.811 425.221 747.031 436.962 747.848 C 452.345 749.575 472 746.991 487.361 748.494 C 484.523 749.689 481.693 750.905 478.872 752.141 L 478.894 752.741 C 482.207 752.744 485.837 752.506 488.962 753.393 C 480.938 756.293 399.083 754.928 385.664 754.407 L 390.425 753.283 L 390.089 751.223 C 389.145 750.83 385.174 749.775 383.953 749.418 C 385.535 748.95 390.345 748.302 392.218 747.999 z"/>
<path transform="translate(0,0)" fill="rgb(142,188,206)" d="M 365.772 756.557 C 409.22 754.613 461.203 755.892 505.404 755.951 C 506.372 769.153 507.316 881.927 504.52 885.905 L 501.25 886.204 C 454.548 886.557 407.844 886.391 361.146 885.706 C 361.025 873.515 361.31 759.76 362.64 757.242 L 365.772 756.557 z"/>
<path transform="translate(0,0)" fill="rgb(38,37,38)" d="M 423.439 842.137 C 436.259 832.166 454.782 807.488 465.574 793.866 C 465.631 791.364 465.479 791.419 464.216 789.363 C 467.518 787.331 470.644 787.587 474.863 786.058 C 481.749 786.899 487.337 795.335 487.282 801.921 L 485.853 803.788 C 480.47 804.278 479.285 802.51 474.623 799.049 C 468.58 805.915 420.733 862.681 416.959 863.656 C 412.551 862.454 408.043 858.491 404.403 855.541 C 396.909 862.802 386.134 877.557 376.613 878.13 L 375.138 876.953 C 375.059 868.647 398.552 844.825 406.044 841.331 L 409.741 841.528 C 413.202 841.196 414.633 838.561 417.091 835.893 L 418.677 836.032 L 420.874 839.353 L 423.439 842.137 z"/>
<path transform="translate(0,0)" fill="rgb(142,188,206)" d="M 409.741 841.528 C 413.202 841.196 414.633 838.561 417.091 835.893 L 418.677 836.032 L 420.874 839.353 L 423.439 842.137 C 419.862 845.8 420.382 848.313 416.147 851.62 C 412.464 851.27 411.867 849.143 410.876 845.72 L 409.741 841.528 z"/>
<path transform="translate(0,0)" fill="rgb(55,81,89)" d="M 409.741 841.528 C 413.202 841.196 414.633 838.561 417.091 835.893 L 418.677 836.032 L 420.874 839.353 C 417.903 841.272 413.851 844.049 410.876 845.72 L 409.741 841.528 z"/>
<path transform="translate(0,0)" fill="rgb(253,253,253)" d="M 353.093 419.501 C 365.713 418.491 384.198 418.981 397.173 418.931 L 493.771 419.138 L 594.7 418.895 C 609.494 418.939 631.659 418.378 645.966 419.668 L 646.282 553.397 C 646.471 579.334 647.323 605.613 646.94 631.48 C 647.231 647.284 647.247 663.091 646.989 678.894 C 635.092 679.187 598.026 679.84 587.147 678.076 C 576.665 679.213 547.905 677.96 535.738 678.206 C 475.435 679.342 415.115 679.242 354.817 677.907 C 353.838 665.78 354.208 650.853 354.134 638.507 L 353.739 574.66 C 353.607 523.973 352.58 469.832 353.093 419.501 z M 534.798 465.661 C 541.783 460.899 545.094 451.426 535.675 448.675 C 532.869 451.603 531.42 451.961 531.318 455.161 C 537.101 463.919 533.347 458.071 534.798 465.661 z M 615.566 529.732 C 616.41 525.875 617.878 520.574 615.918 517.215 L 613.821 516.739 C 610.095 518.238 608.522 520.309 605.787 523.172 L 605.979 524.312 L 611.32 527.915 L 612.743 526.72 C 614.322 529.329 613.27 528.526 615.566 529.732 z"/>
<path transform="translate(0,0)" fill="rgb(0,0,0)" d="M 353.093 419.501 C 365.713 418.491 384.198 418.981 397.173 418.931 L 493.771 419.138 L 594.7 418.895 C 609.494 418.939 631.659 418.378 645.966 419.668 L 646.282 553.397 C 646.471 579.334 647.323 605.613 646.94 631.48 C 644.393 645.215 644.447 649.459 644.4 663.278 L 642.271 664.498 C 638.405 661.352 640.993 651.558 640.583 646.737 C 639.43 633.189 642.308 610.797 639.179 598.422 L 639 584.409 C 636.281 587.091 633.479 589.215 630.499 591.585 C 625.74 591.184 616.115 591.542 613.97 587.313 C 617.709 584.063 629.588 585.622 638.841 583.162 C 639.855 532.194 637.799 480.236 638.289 428.668 C 637.64 428.014 637.437 427.756 636.767 427.241 C 632.501 423.962 545.732 426.063 534.974 427.106 C 526.771 427.288 519.324 427.409 511.117 427.15 C 501.804 426.186 447.451 425.934 440.281 427.963 C 431.39 427.074 419.383 427.386 410.077 427.119 C 404.734 426.523 380.106 425.436 376.28 427.677 L 362.071 428.28 C 361.062 453.797 361.767 475.874 361.965 501.223 C 362.194 530.502 361.246 559.466 362.564 588.896 C 365.775 587.074 368.457 585.018 371.993 585.097 C 374.09 587.093 373.532 585.901 373.716 588.794 C 370.642 591.326 368.952 591.25 364.657 591.289 C 360.34 597.249 360.988 662.829 364.785 667.455 L 369.726 668.867 C 374.222 671.542 385.327 672.952 389.666 669.457 C 389.768 667.551 389.75 664.309 390.482 662.732 C 394.373 665.212 394.358 665.392 395.611 670.689 C 398.663 672.058 400.976 671.174 404.102 669.934 C 415.344 669.637 426.59 669.499 437.836 669.52 C 438.221 663.519 437.672 655.953 442.616 651.961 L 444.433 652.318 C 448.087 658.653 446.682 661.824 445.523 669.22 L 470.465 670.099 C 477.388 671.244 514.733 671.77 521.363 670.832 C 533.827 670.41 547.093 670.834 559.623 671.025 C 559.769 666.422 560.014 662.584 560.447 657.999 C 558.661 656.315 557.268 655.188 555.34 653.664 L 555.515 652.007 C 558.89 650.282 560.37 650.415 564.111 650.1 C 567.917 652.841 564.437 665.29 564.096 670.735 L 573.938 670.857 C 583.477 671.787 599.554 672.135 609.269 671.998 L 611.56 675.071 L 611.31 676.36 C 603.343 677.499 594.453 674.883 587.147 678.076 C 576.665 679.213 547.905 677.96 535.738 678.206 C 475.435 679.342 415.115 679.242 354.817 677.907 C 353.838 665.78 354.208 650.853 354.134 638.507 L 353.739 574.66 C 353.607 523.973 352.58 469.832 353.093 419.501 z"/>
<path transform="translate(0,0)" fill="rgb(38,37,38)" d="M 639.179 598.422 C 642.308 610.797 639.43 633.189 640.583 646.737 C 640.993 651.558 638.405 661.352 642.271 664.498 L 644.4 663.278 C 644.447 649.459 644.393 645.215 646.94 631.48 C 647.231 647.284 647.247 663.091 646.989 678.894 C 635.092 679.187 598.026 679.84 587.147 678.076 C 594.453 674.883 603.343 677.499 611.31 676.36 L 611.56 675.071 L 609.269 671.998 C 599.554 672.135 583.477 671.787 573.938 670.857 C 584.474 669.92 596.319 670.1 607.002 670.029 C 606.384 642.052 596.713 659.757 587.408 652.399 C 587.246 649.352 587.559 649.186 589.362 646.516 C 592.472 644.422 596.648 645.438 600.91 645.609 C 603.879 641.473 602.406 633.931 605.826 628.758 C 609.299 628.332 609.719 629.246 613.257 630.927 C 619.043 637.111 632.33 636.401 632.459 647.782 C 632.548 655.674 622.103 655.171 617.079 660.544 C 615.489 663.682 615.589 664.164 616.202 667.66 C 618.904 669.273 633.669 667.989 637.963 667.811 C 639.153 645.056 639.096 621.258 639.179 598.422 z"/>
<path transform="translate(0,0)" fill="rgb(253,253,253)" d="M 612.834 638.894 C 616.438 640.351 618.319 640.778 621.037 643.573 C 621.984 647.45 621.99 645.819 619.856 650.358 C 615.275 651.153 613.763 651.705 611.104 647.645 C 610.642 643.848 611.483 642.38 612.834 638.894 z"/>
<path transform="translate(0,0)" fill="rgb(38,37,38)" d="M 534.974 427.106 C 545.732 426.063 632.501 423.962 636.767 427.241 C 637.437 427.756 637.64 428.014 638.289 428.668 C 629.409 428.024 623.185 426.805 614.868 430.251 L 614.31 431.849 C 622.691 441.6 645.889 447.804 615.963 461.983 L 615.169 462.355 C 616.35 467.036 619.008 475.897 618.745 480.347 C 615.838 481.377 616.001 481.327 612.971 480.611 C 608.895 474.369 614.472 467.755 610.152 461.985 C 608.483 459.756 601.697 458.8 599.264 456.692 C 596.36 454.177 597.792 449.905 595.41 447.722 L 595.161 446.789 C 598.313 444.276 606.423 432.88 609.207 429.063 C 602.539 428.19 569.189 426.062 564.356 429.069 C 563.388 433.803 567.625 438.79 570.447 443.239 C 564.885 442.284 561.506 446.722 556.93 443.604 C 555.361 438.741 557.762 433.029 559.273 428.136 C 550.934 427.997 543.282 427.963 534.974 427.106 z"/>
<path transform="translate(0,0)" fill="rgb(253,253,253)" d="M 610.904 438.248 C 614.356 439.834 617.391 440.724 619.249 443.902 C 619.47 447.763 619.288 446.74 617.406 450.692 C 612.955 451.147 611.192 451.823 608.423 448.115 C 608.082 444.29 609.461 441.863 610.904 438.248 z"/>
<path transform="translate(0,0)" fill="url(#Gradient5)" d="M 369.726 668.867 C 374.697 669.001 383.089 670.151 386.78 667.886 C 388.711 665.106 388.611 664.433 388.702 661.002 C 385.73 656.843 369.873 654.532 371.36 645.009 C 372.119 640.15 378.292 635.309 382.257 632.671 C 397.596 622.463 401.92 635.219 405.581 647.339 C 409.033 647.171 411.391 645.918 414.609 644.616 C 418.112 646.412 421.5 647.732 423.648 651.033 L 423.655 653.099 C 418.073 656.233 412.245 653.603 406.206 652.05 C 403.516 655.823 398.456 662.011 397.77 666.259 C 398.796 670.177 400.13 669.592 404.102 669.934 C 400.976 671.174 398.663 672.058 395.611 670.689 C 394.358 665.392 394.373 665.212 390.482 662.732 C 389.75 664.309 389.768 667.551 389.666 669.457 C 385.327 672.952 374.222 671.542 369.726 668.867 z"/>
<path transform="translate(0,0)" fill="rgb(253,253,253)" d="M 388.585 638.715 C 391.891 639.831 393.626 641.857 394.565 645.023 C 393.214 648.642 393.65 647.505 389.942 650.167 C 385.513 649.446 383.339 649.532 382.429 644.852 C 384.036 641.288 385.369 640.751 388.585 638.715 z"/>
<path transform="translate(0,0)" fill="rgb(38,37,38)" d="M 376.28 427.677 C 380.106 425.436 404.734 426.523 410.077 427.119 C 405.662 427.483 401.158 427.925 396.735 428.06 C 399.231 433.489 402.369 439.864 404.538 445.334 C 410.124 442.684 413.985 440.106 419.995 441.967 L 421.537 443.647 C 419.98 455.86 411.494 447.79 405.154 450.401 C 403.101 454.816 403.973 459.102 399.787 461.667 C 392.835 465.927 392.627 468.225 392.933 476.528 C 390.988 478.623 392.158 477.955 389.237 478.476 C 387.122 473.807 392.111 465.842 390.02 462.563 C 386.111 456.434 370.974 454.873 375.244 444.113 C 377.414 438.644 390.154 434.001 388.754 428.906 C 384.847 427.408 380.514 427.715 376.28 427.677 z"/>
<path transform="translate(0,0)" fill="rgb(253,253,253)" d="M 391.389 439.734 C 394.428 440.402 394.518 440.801 396.647 443.317 C 397.463 447.233 397.6 445.615 395.995 449.425 C 392.573 452.067 393.208 451.275 388.255 451.68 C 385.035 450.744 383.27 450.634 382.701 447.209 C 384.542 443.859 388.107 441.98 391.389 439.734 z"/>
<path transform="translate(0,0)" fill="rgb(38,37,38)" d="M 440.281 427.963 C 447.451 425.934 501.804 426.186 511.117 427.15 C 492.571 428.612 465.806 427.99 446.865 428.023 C 447.596 433.433 449.118 443.823 442.949 446.94 C 437.293 443.179 439.629 433.941 440.281 427.963 z"/>
<path transform="translate(0,0)" fill="rgb(38,37,38)" d="M 470.465 670.099 C 476.242 670.082 491.396 670.618 495.737 669.195 C 497.358 665.59 498.12 663.057 501.094 660.482 L 502.837 660.917 C 504.784 664.183 504.868 666.541 505.481 670.286 C 509.757 670.375 517.369 670.308 521.363 670.832 C 514.733 671.77 477.388 671.244 470.465 670.099 z"/>
<path transform="translate(0,0)" fill="rgb(38,37,38)" d="M 613.257 630.927 C 612.914 624.659 611.256 613.176 614.876 608.65 L 617.352 608.159 C 618.843 616.608 618.735 623.975 613.257 630.927 z"/>
<path transform="translate(0,0)" fill="rgb(38,37,38)" d="M 595.41 447.722 C 593.507 450.97 592.84 452.142 588.962 451.914 C 585.362 448.962 584.539 444.127 587.123 440.268 L 589.252 440.4 C 592.496 442.93 592.893 443.357 595.161 446.789 L 595.41 447.722 z"/>
<path transform="translate(0,0)" fill="rgb(253,253,253)" d="M 444.31 511.752 C 452.525 492.807 477.001 485.341 496.153 487.686 C 499.12 489.184 499.549 489.382 502.841 489.742 C 506.519 487.918 515.524 488.142 520.236 487.846 C 531.95 487.597 547.831 495.805 556.852 503.659 C 577.564 521.692 569.682 553.922 553.269 572.164 C 541.311 585.455 521.297 587.213 503.82 588.319 C 503.661 596.69 503.248 606.484 503.476 614.74 C 520.703 614.885 538.158 611.565 549.967 623.042 C 550.077 628.748 550.034 632.302 549.256 638.027 C 547.478 651.097 525.907 647.631 520.841 640.796 C 525.394 637.231 534.416 640.599 538.776 633.868 C 539.237 621.205 513.366 624.001 504.611 624.019 C 496.768 624.036 474.533 623.876 468.324 626.829 C 466.714 630.336 466.246 630.769 466.634 634.433 C 470.499 640.162 476.899 639.026 483.567 640.616 L 483.825 641.903 C 479.106 646.231 463.632 647.95 458.406 644.298 C 455.606 640.274 456.118 637.336 456.248 632.764 C 456.956 607.914 478.818 615.101 495.087 614.913 L 494.938 588.562 C 488.412 587.177 482.481 586.092 476.202 583.737 C 445.768 573.225 427.682 541.62 444.31 511.752 z"/>
<path transform="translate(0,0)" fill="rgb(38,37,38)" d="M 520.236 487.846 C 531.95 487.597 547.831 495.805 556.852 503.659 C 577.564 521.692 569.682 553.922 553.269 572.164 C 541.311 585.455 521.297 587.213 503.82 588.319 C 503.661 596.69 503.248 606.484 503.476 614.74 C 520.703 614.885 538.158 611.565 549.967 623.042 C 550.077 628.748 550.034 632.302 549.256 638.027 C 547.478 651.097 525.907 647.631 520.841 640.796 C 525.394 637.231 534.416 640.599 538.776 633.868 C 539.237 621.205 513.366 624.001 504.611 624.019 C 496.768 624.036 474.533 623.876 468.324 626.829 C 466.714 630.336 466.246 630.769 466.634 634.433 C 470.499 640.162 476.899 639.026 483.567 640.616 L 483.825 641.903 C 479.106 646.231 463.632 647.95 458.406 644.298 C 455.606 640.274 456.118 637.336 456.248 632.764 C 456.956 607.914 478.818 615.101 495.087 614.913 L 494.938 588.562 C 488.412 587.177 482.481 586.092 476.202 583.737 L 478.659 582.644 C 474.885 581.327 473.268 581.313 472.424 577.305 C 474.408 578.059 476.889 578.473 479.012 578.907 L 479.76 577.45 C 499.398 580.676 529.001 580.164 544.168 568.383 C 574.662 544.698 558.482 501.964 522.13 496.742 C 514.755 495.683 507.474 495.077 500.599 493.971 L 502.841 489.742 C 506.519 487.918 515.524 488.142 520.236 487.846 z"/>
<path transform="translate(0,0)" fill="url(#Gradient4)" d="M 444.31 511.752 C 452.525 492.807 477.001 485.341 496.153 487.686 C 499.12 489.184 499.549 489.382 502.841 489.742 L 500.599 493.971 C 497.426 495.483 483.561 497.762 479.582 498.087 C 463.788 499.378 455.512 507.879 448.124 521.118 C 447.356 516.76 447.077 515.207 444.31 511.752 z"/>
<path transform="translate(0,0)" fill="rgb(0,0,0)" d="M 476.202 583.737 C 445.768 573.225 427.682 541.62 444.31 511.752 C 447.077 515.207 447.356 516.76 448.124 521.118 C 439.69 544.111 452.628 568.09 475.19 575.953 C 476.705 576.477 478.229 576.976 479.76 577.45 L 479.012 578.907 C 476.889 578.473 474.408 578.059 472.424 577.305 C 473.268 581.313 474.885 581.327 478.659 582.644 L 476.202 583.737 z"/>
<path transform="translate(0,0)" fill="url(#Gradient3)" d="M 525.74 518.045 C 533.026 517.972 538.062 517.658 543.672 523.307 C 549.994 529.673 551.341 538.243 543.833 544.552 C 533.881 552.914 519.942 550.928 507.854 551.412 C 497.4 551.188 471.998 553.443 463.548 546.502 C 460.609 544.088 460.114 532.347 460.614 528.766 C 460.878 525.854 462.634 519.947 465.053 518.288 C 466.692 517.164 466.081 517.637 468.531 517.675 C 471.713 520.486 470.81 523.723 472.167 524.127 C 477.799 525.801 492.335 526.835 486.622 537.151 C 482.412 539.944 477.914 539.412 472.662 540.698 C 480.695 546.771 511.256 545.809 521.844 545.537 C 517.831 533.05 517.405 531.196 528.284 522.487 L 527.57 521.436 L 525.74 518.045 z"/>
<path transform="translate(0,0)" fill="rgb(253,253,253)" d="M 531.756 528.166 C 535.719 528.993 536.053 529.268 537.029 532.897 C 536.14 536.219 535.399 536.73 532.947 539.214 C 529.75 538.641 529.002 537.781 527.89 535.051 C 528.382 531.525 529.318 530.853 531.756 528.166 z"/>
<path transform="translate(0,0)" fill="rgb(38,37,38)" d="M 487.509 502.252 C 495.781 501.37 515.748 497.515 518.96 506.741 C 518.409 510.604 515.641 512.679 512.799 515.645 C 517.222 515.77 522.646 515.287 525.74 518.045 L 527.57 521.436 C 517.472 524.025 481.501 527.117 475.845 517.701 C 478.998 513.681 488.324 514.638 493.125 514.785 C 491.213 510.649 489.367 506.418 487.509 502.252 z"/>
<path transform="translate(0,0)" fill="rgb(253,253,253)" d="M 500.664 508.058 C 504.056 508.311 506.309 508.14 509.194 509.878 C 509.731 512.84 509.735 511.718 507.586 515.004 C 503.285 515.065 500.761 515.454 497.675 512.764 C 498.282 509.671 498.038 510.675 500.664 508.058 z"/>
<path transform="translate(0,0)" fill="rgb(0,0,0)" d="M 503.04 557.556 C 509.744 557.128 517.209 555.125 521.418 560.872 C 522.536 565.075 521.034 569.729 520.099 574.102 C 514.443 574.439 508.441 574.191 502.75 574.071 C 491.756 573.024 484.728 573.816 486.192 559.674 C 489.255 556.964 498.194 557.641 503.04 557.556 z"/>
<path transform="translate(0,0)" fill="rgb(253,253,253)" d="M 509.237 564.406 C 512.216 563.873 513.284 563.506 515.421 565.396 C 514.081 571.691 504.065 570.674 499.248 570.548 C 495.656 571.531 494.758 570.652 492.787 568.24 L 493.022 567.101 C 498.805 564.525 502.861 564.843 509.237 564.406 z"/>
<path transform="translate(0,0)" fill="rgb(58,56,58)" d="M 382.83 525.494 C 382.965 521.734 382.398 517.323 386.06 515.452 C 389.852 516.781 392.505 520.632 395.534 523.851 C 414.115 536.148 421.811 545.171 398.925 558.531 C 393.508 561.694 393.41 563.505 393.1 569.508 C 391.098 571.85 392.119 571.156 388.349 571.607 C 387.24 570.212 386.845 570.333 387.104 568.76 C 389.173 556.199 367.757 550.715 378.343 538.009 C 382.49 533.032 395.428 528.896 396.697 527.158 C 393.819 525.808 386.527 525.778 382.83 525.494 z"/>
<path transform="translate(0,0)" fill="rgb(0,0,0)" d="M 382.83 525.494 C 382.965 521.734 382.398 517.323 386.06 515.452 C 389.852 516.781 392.505 520.632 395.534 523.851 C 391.352 524.849 387.114 525.102 382.83 525.494 z"/>
<path transform="translate(0,0)" fill="rgb(253,253,253)" d="M 392.78 540.949 C 397.558 540.927 401.996 540.869 402.949 546.236 C 401.571 549.593 399.965 550.307 397.007 552.287 C 392.184 552.125 388.364 551.904 387.433 546.795 C 388.814 543.515 389.863 543.102 392.78 540.949 z"/>
<path transform="translate(0,0)" fill="url(#Gradient2)" d="M 611.32 527.915 L 612.743 526.72 C 614.322 529.329 613.27 528.526 615.566 529.732 C 618.577 534.027 625.07 528.746 624.826 542.604 C 624.782 545.098 621.887 553.588 620.532 555.828 C 614.148 560.864 616.359 565.503 611.876 568.379 C 607.591 565.811 607.971 562.842 607.785 558.285 C 601.644 555.352 592.26 557.375 589.588 548.718 C 583.993 530.592 601.742 532.888 610.446 530.485 L 611.32 527.915 z"/>
<path transform="translate(0,0)" fill="rgb(38,37,38)" d="M 607.785 558.285 C 611.067 554.584 615.852 555.683 620.532 555.828 C 614.148 560.864 616.359 565.503 611.876 568.379 C 607.591 565.811 607.971 562.842 607.785 558.285 z"/>
<path transform="translate(0,0)" fill="rgb(253,253,253)" d="M 613.583 539.265 L 615.064 539.366 C 617.483 541.008 616.703 540.232 617.678 543.704 C 615.698 552.028 611.02 550.406 604.234 549.054 C 601.998 548.981 601.196 548.412 599.203 547.464 L 598.805 545.69 C 602.033 540.642 608.14 539.972 613.583 539.265 z"/>
<path transform="translate(0,0)" fill="rgb(58,56,58)" d="M 496.153 487.686 C 495.125 484.399 494.479 482.522 494.013 479.037 C 495.512 475.492 496.016 475.938 499.431 473.486 L 504.335 473.285 C 510.977 478.529 511.277 477.322 511.248 485.936 C 513.727 487.946 516.488 487.498 520.236 487.846 C 515.524 488.142 506.519 487.918 502.841 489.742 C 499.549 489.382 499.12 489.184 496.153 487.686 z"/>
<path transform="translate(0,0)" fill="rgb(38,37,38)" d="M 501.564 442.507 C 508.015 446.215 507.161 454.656 502.756 460.137 C 499.476 457.117 497.263 455.786 496.487 451.597 C 496.891 447.852 499.24 445.465 501.564 442.507 z"/>
<path transform="translate(0,0)" fill="rgb(0,0,0)" fill-opacity="0.988235" d="M 535.675 448.675 C 545.094 451.426 541.783 460.899 534.798 465.661 C 533.347 458.071 537.101 463.919 531.318 455.161 C 531.42 451.961 532.869 451.603 535.675 448.675 z"/>
<path transform="translate(0,0)" fill="rgb(0,0,0)" d="M 463.908 451.1 C 467.806 451.113 470.232 450.923 472.939 453.4 C 473.148 457 470.169 461.159 468.266 464.58 L 466.973 465.41 L 465.567 464.724 C 464.481 461.002 463.414 457.274 462.366 453.541 L 463.908 451.1 z"/>
<path transform="translate(0,0)" fill="rgb(0,0,0)" d="M 492.365 639.219 C 497.047 639.536 505.818 638.057 508.483 641.817 L 506.951 645.62 C 500.394 648.472 493.415 647.198 492.365 639.219 z"/>
<path transform="translate(0,0)" fill="rgb(0,0,0)" d="M 612.881 493.145 C 618.303 492.103 631.79 490.718 634.254 496.636 C 630.192 498.062 622.167 498.984 617.887 497.921 C 614.176 496.999 614.555 496.28 612.881 493.145 z"/>
<path transform="translate(0,0)" fill="rgb(0,0,0)" fill-opacity="0.988235" d="M 611.32 527.915 L 605.979 524.312 L 605.787 523.172 C 608.522 520.309 610.095 518.238 613.821 516.739 L 615.918 517.215 C 617.878 520.574 616.41 525.875 615.566 529.732 C 613.27 528.526 614.322 529.329 612.743 526.72 L 611.32 527.915 z"/>
<path transform="translate(0,0)" fill="rgb(38,37,38)" d="M 384.495 608.53 C 387.297 608.832 387.492 608.766 389.732 610.333 C 392.411 614.683 391.799 619.632 391.253 624.591 L 388.369 623.344 C 384.229 618.897 384.652 614.441 384.495 608.53 z"/>
<path transform="translate(0,0)" fill="rgb(88,86,86)" d="M 499.431 473.486 C 499.946 469.979 499.94 466.786 502.168 464.246 C 504.437 466.606 504.121 469.637 504.335 473.285 L 499.431 473.486 z"/>
<path transform="translate(0,0)" fill="rgb(253,253,253)" d="M 674.259 420.418 C 688.37 419.518 707.541 420.072 721.957 420.082 L 804.428 420.005 L 913.263 420.052 C 936.183 420.004 961.236 419.386 984.006 420.18 C 985.316 451.678 984.718 500.588 984.003 532.363 C 984.374 540.756 985.95 570.006 982.881 576.225 C 974.485 578.384 951.428 577.886 941.582 577.906 C 913.361 577.933 885.14 577.683 856.923 577.158 C 840.191 576.941 815.275 577.852 799.564 576.933 C 783.389 577.419 685.083 579.411 675.997 576.002 C 672.402 564.921 673.296 439.805 674.259 420.418 z"/>
<path transform="translate(0,0)" fill="rgb(0,0,0)" d="M 674.259 420.418 C 688.37 419.518 707.541 420.072 721.957 420.082 L 804.428 420.005 L 913.263 420.052 C 936.183 420.004 961.236 419.386 984.006 420.18 C 985.316 451.678 984.718 500.588 984.003 532.363 C 981.732 534.885 984.92 540.186 980.097 543.62 L 977.688 542.373 C 977.607 537.578 977.629 534.28 976.34 529.63 L 976.397 470.771 C 976.444 458.986 976.88 440.698 975.585 429.121 C 959.373 428.092 941.754 428.56 925.406 428.608 L 848.888 428.607 L 744.432 428.031 C 724.385 427.973 701.93 427.546 681.989 428.483 C 682.081 474.671 680.946 522.221 681.779 568.12 C 727.152 569.257 773.123 567.624 817.827 569.053 C 829.259 570.41 856.114 570.986 867.184 569.678 C 869.833 571.358 872.432 573.099 875.229 574.51 C 862.179 574.448 849.204 575.222 836.152 575.77 C 825.242 576.227 810.06 575.508 799.564 576.933 C 783.389 577.419 685.083 579.411 675.997 576.002 C 672.402 564.921 673.296 439.805 674.259 420.418 z"/>
<path transform="translate(0,0)" fill="url(#Gradient1)" d="M 976.34 529.63 C 977.629 534.28 977.607 537.578 977.688 542.373 L 980.097 543.62 C 984.92 540.186 981.732 534.885 984.003 532.363 C 984.374 540.756 985.95 570.006 982.881 576.225 C 974.485 578.384 951.428 577.886 941.582 577.906 C 913.361 577.933 885.14 577.683 856.923 577.158 C 840.191 576.941 815.275 577.852 799.564 576.933 C 810.06 575.508 825.242 576.227 836.152 575.77 C 849.204 575.222 862.179 574.448 875.229 574.51 C 872.432 573.099 869.833 571.358 867.184 569.678 C 856.114 570.986 829.259 570.41 817.827 569.053 L 975.649 567.13 C 976.282 555.344 976.156 541.57 976.34 529.63 z"/>
<path transform="translate(0,0)" fill="rgb(38,37,38)" d="M 802.928 446.49 L 912.055 446.863 C 916.855 446.873 950.128 446.512 953.338 447.133 C 955.23 450.327 954.612 449.652 954.75 453.877 C 951.727 456.512 932.139 455.145 926.94 455.219 C 903.13 455.688 879.315 455.927 855.5 455.935 L 757.771 455.883 C 741.972 455.894 717.981 456.576 703.057 455.324 L 701.835 453.745 C 701.441 449.944 701.084 451.31 702.684 448.089 C 707.82 445.246 755.325 447.596 766.309 446.95 C 775.678 446.398 793.176 446.637 802.928 446.49 z"/>
<path transform="translate(0,0)" fill="rgb(0,0,0)" d="M 703.53 492.488 C 768.064 490.466 884.848 493.245 953.324 492.363 C 955.078 492.34 955.882 494.435 956.496 495.776 C 955.438 498.604 956.194 497.623 953.198 499.274 C 891.149 500.051 829.094 500.253 767.041 499.88 C 748.129 499.922 724.108 500.27 704.88 499.86 C 702.595 499.811 701.407 497.987 700.493 496.267 C 701.517 493.101 700.591 494.361 703.53 492.488 z"/>
<path transform="translate(0,0)" fill="rgb(0,0,0)" d="M 718.916 469.514 C 795.16 468.137 871.967 470.715 948.261 469.568 C 950.939 469.528 954.064 470.357 956.283 471.833 L 956.169 473.465 C 950.864 478.226 945.538 477.158 938.5 476.975 L 783.12 476.969 C 769.775 476.973 706.657 478.827 700.423 475.071 L 700.638 473.273 C 706.655 468.468 711.368 469.416 718.916 469.514 z"/>
<path transform="translate(0,0)" fill="rgb(0,0,0)" d="M 866.613 513.485 C 868.971 513.419 871.454 513.578 873.824 513.682 L 874.933 514.984 C 872.9 518.571 864.587 521.992 860.79 522.026 C 844.053 522.173 827.291 522.013 810.548 522.042 L 709.75 522.914 C 704.498 522.925 703.635 523.09 700.353 518.934 L 700.589 517.218 C 706.075 512.874 757.405 514.131 768.296 514.104 C 801.069 514.08 833.842 513.874 866.613 513.485 z"/>
<path transform="translate(0,0)" fill="rgb(0,0,0)" d="M 702.399 537.381 C 716.946 536.735 809.465 535.807 814.522 540.893 C 814.142 543.876 814.681 542.753 811.93 545.01 C 789.23 546.306 764.203 545.392 741.267 545.879 C 733.901 546.035 708.035 546.413 702.619 545.311 L 701.245 543.029 C 701.169 540.17 700.942 539.668 702.399 537.381 z"/>
<path transform="translate(0,0)" fill="rgb(0,0,0)" d="M 876.505 513.389 L 927.058 512.879 C 935.321 512.802 944.809 512.394 952.993 513.231 C 955.447 513.482 954.877 513.55 956.259 515.473 C 956.198 519.318 956.738 518.182 954.843 521.049 C 940.375 521.124 889.303 522.205 876.446 520.687 C 876.331 517.911 876.317 516.158 876.505 513.389 z"/>
<path transform="translate(0,0)" fill="rgb(142,188,206)" d="M 903.739 334.5 C 933.646 333.308 968.926 334.569 999.078 335.45 C 1021.6 336.108 1018.42 361.741 1018.23 378.382 C 961.207 379.392 902.772 377.959 845.632 378.033 L 435.5 378.787 C 397.171 378.898 358.842 378.703 320.517 378.204 C 319.931 366.449 319.766 359.704 321.81 348.138 C 327.367 341.229 332.217 336.308 341.597 335.734 C 361.615 334.509 381.932 335.15 402.007 335.298 L 504.454 335.744 L 766.843 335.16 C 812.084 334.989 858.62 335.632 903.739 334.5 z"/>
<path transform="translate(0,0)" fill="rgb(38,37,38)" d="M 904.216 341.049 C 906.23 341.036 908.239 341.249 910.205 341.685 C 918.884 343.578 924.551 351.479 921.292 360.156 C 919.025 366.191 914.278 368.217 908.871 370.715 C 888.579 372.525 883.104 349.332 904.216 341.049 z"/>
<path transform="translate(0,0)" fill="rgb(142,188,206)" d="M 905.442 350.672 C 908.39 349.182 911.989 350.262 913.63 353.129 C 915.27 355.996 914.378 359.646 911.6 361.433 C 909.67 362.675 907.212 362.75 905.21 361.63 C 903.207 360.509 901.986 358.375 902.035 356.081 C 902.084 353.787 903.394 351.706 905.442 350.672 z"/>
<path transform="translate(0,0)" fill="rgb(38,37,38)" d="M 983.315 341.036 C 1000.97 343.068 1002.08 367.091 982.379 370.97 C 977.035 369.138 971.522 366.205 969.483 360.554 C 968.199 357.094 968.512 353.242 970.338 350.035 C 973.351 344.754 977.847 342.674 983.315 341.036 z"/>
<path transform="translate(0,0)" fill="rgb(142,188,206)" d="M 981.557 350.303 C 983.753 349.631 986.14 350.227 987.762 351.852 C 989.384 353.478 989.975 355.867 989.298 358.061 C 988.622 360.255 986.788 361.896 984.532 362.325 C 981.296 362.942 978.143 360.92 977.352 357.723 C 976.561 354.525 978.407 351.267 981.557 350.303 z"/>
<path transform="translate(0,0)" fill="rgb(38,37,38)" d="M 942.36 340.969 C 957.173 341.033 963.777 360.543 946.072 369.76 C 926.935 368.642 925.678 350.189 942.36 340.969 z"/>
<path transform="translate(0,0)" fill="rgb(142,188,206)" d="M 941.686 348.438 C 943.302 348.584 944.841 348.874 946.443 349.136 C 951.227 353.891 949.394 358.029 946.678 363.532 C 941.756 362.359 941.025 361.952 939.028 357.644 C 939.031 353.374 939.865 352.163 941.686 348.438 z"/>
</svg>