<svg version="1.1" xmlns="http://www.w3.org/2000/svg" style="display: block;" viewBox="0 0 1383 2048" width="516" height="764" preserveAspectRatio="none">
<path transform="translate(0,0)" fill="rgb(254,254,253)" d="M 263.596 99.4902 L 907.043 99.33 L 1086.5 99.2981 C 1116.06 99.2717 1150.75 98.2269 1179.69 100.667 C 1194.88 101.947 1223.9 116.463 1234.86 127.545 C 1261.49 154.479 1271.24 182.703 1271.51 220.198 C 1271.82 263.77 1271.8 306.726 1271.81 349.981 L 1271.82 592.284 L 1271.26 1309.15 L 1271.44 1646.75 L 1271.74 1751.04 C 1271.78 1767.33 1271.85 1783.93 1271.59 1799.91 C 1270.94 1841.17 1246.31 1878.83 1210.57 1898.71 C 1187.21 1911.7 1166 1910.61 1140.25 1911 L 502.431 1911.78 L 317.825 1911.76 C 286.674 1911.72 250.689 1912.96 219.996 1909.64 C 198.577 1907.32 173.974 1892.35 158.387 1877.29 C 130.217 1850.09 124.529 1820.78 124.263 1783.2 C 123.537 1680.82 124.675 1578.2 124.51 1475.86 L 123.834 733.7 L 124.168 385.388 L 124.03 271.516 C 124.02 248.298 123.344 225.591 125.427 202.4 C 130.203 149.203 169.575 106.534 223.181 100.577 C 236.135 99.1379 250.496 99.6044 263.596 99.4902 z M 1135.24 1853.68 C 1160.21 1850.81 1179.17 1842.06 1195.48 1822.19 C 1205.9 1809.5 1212.87 1789.04 1213.23 1772.72 C 1214.1 1734.46 1213.83 1695.42 1213.84 1657.11 L 1213.73 1436.8 L 1213.86 792.736 L 1213.95 401.653 L 1214.05 292.087 C 1214.14 246.14 1220.64 206.835 1178.64 175.165 C 1165.77 165.445 1150.41 159.55 1134.35 158.158 C 1119.95 157.027 1097.81 157.639 1082.87 157.65 L 994.347 157.64 L 684.496 157.937 L 386.608 157.863 L 304.567 157.906 C 292.561 157.897 271.399 157.281 259.787 158.363 C 235.728 161.271 214.797 172.199 199.828 191.529 C 189.102 205.217 182.795 221.845 181.743 239.203 C 179.933 269.432 181.278 313.497 181.273 345.115 L 181.281 549.369 L 181.101 1186.88 L 181.098 1586.82 L 181.208 1710.49 C 181.377 1755.13 175.109 1803.88 215.09 1835.12 C 243.863 1857.6 274.933 1854.33 308.937 1854.33 L 388.229 1854.34 L 659.168 1854.27 L 978.487 1854.41 L 1075.36 1854.35 C 1093.63 1854.35 1117.33 1854.91 1135.24 1853.68 z"/>
<path transform="translate(0,0)" fill="rgb(38,151,205)" d="M 259.787 158.363 C 271.399 157.281 292.561 157.897 304.567 157.906 L 386.608 157.863 L 684.496 157.937 L 994.347 157.64 L 1082.87 157.65 C 1097.81 157.639 1119.95 157.027 1134.35 158.158 C 1150.41 159.55 1165.77 165.445 1178.64 175.165 C 1220.64 206.835 1214.14 246.14 1214.05 292.087 L 1213.95 401.653 L 1213.86 792.736 L 1213.73 1436.8 L 1213.84 1657.11 C 1213.83 1695.42 1214.1 1734.46 1213.23 1772.72 C 1212.87 1789.04 1205.9 1809.5 1195.48 1822.19 C 1179.17 1842.06 1160.21 1850.81 1135.24 1853.68 C 1117.33 1854.91 1093.63 1854.35 1075.36 1854.35 L 978.487 1854.41 L 659.168 1854.27 L 388.229 1854.34 L 308.937 1854.33 C 274.933 1854.33 243.863 1857.6 215.09 1835.12 C 175.109 1803.88 181.377 1755.13 181.208 1710.49 L 181.098 1586.82 L 181.101 1186.88 L 181.281 549.369 L 181.273 345.115 C 181.278 313.497 179.933 269.432 181.743 239.203 C 182.795 221.845 189.102 205.217 199.828 191.529 C 214.797 172.199 235.728 161.271 259.787 158.363 z M 671.971 460.208 L 601.983 459.84 C 593.794 459.806 567.834 457.969 563.033 462.412 C 562.893 466.073 562.354 465.736 563.82 468.526 C 570.187 470.115 593.157 469.295 600.918 469.259 C 624.564 469.152 647.933 468.47 671.634 469.168 C 671.496 476.655 671.044 486.944 671.536 494.128 C 680.751 494.886 687.685 494.638 696.944 494.366 C 697.073 502.435 697.142 537.411 698.596 543.456 C 644.392 545.458 617.516 568.58 589.992 613.009 C 550.638 613.01 509.443 612.414 470.183 613.16 L 469.75 557.201 C 491.265 557.153 518.568 557.676 539.706 555.724 C 541.262 539.674 545.663 401.161 539.242 393.9 C 537.474 391.9 529.961 391.606 527.392 391.477 C 502.309 390.21 476.641 391.621 451.506 391.763 C 435.119 391.856 418.15 390.446 401.87 391.669 C 398.912 391.891 394.04 392.189 391.838 394.284 C 388.441 397.514 387.844 535.414 389.66 549.212 C 389.877 550.901 390.215 552.573 390.669 554.214 C 398.351 559.758 446.004 556.834 460.077 557.769 C 460.115 575.697 459.371 605.652 461.598 622.413 C 474.294 623.67 486.181 622.88 498.708 623.26 C 527.109 624.122 558.132 622.568 586.258 623.933 C 578.733 646.596 578.531 679.818 586.221 702.578 L 510.968 702.71 C 501.547 702.716 466.98 700.936 461.348 706.56 C 458.134 715.367 459.504 748.693 459.794 760.15 C 450.883 760.105 397.318 758.569 391.924 761.6 C 390.351 767.379 389.455 773.567 389.397 779.564 C 389.064 813.98 390.73 848.415 389.549 882.841 C 389.254 894.165 388.694 905.437 389.74 916.751 C 390.079 920.59 390.301 924.139 394.995 924.837 C 402.453 925.945 410.416 926.018 417.972 925.846 C 447.486 925.173 476.981 925.241 506.499 925.457 C 516.802 925.533 529.539 926.463 539.476 923.777 C 542.58 916.741 541.94 896.365 541.838 888.167 C 541.373 850.709 542.221 813.261 541.803 775.808 C 541.757 771.68 540.965 766.862 539.771 762.907 C 533.807 757.927 479.477 759.938 467.861 760.004 C 468.041 744.634 467.974 728.297 468.503 713.008 C 508.23 712.321 551.123 714.241 589.849 713.014 C 613.159 755.897 648.684 777.941 697 782.234 C 697.358 796.477 697.425 812.882 698.242 826.947 C 670.779 826.446 669.845 824.245 671.058 851.86 C 653.083 851.116 633.692 851.305 615.711 851.419 C 607.665 851.471 571.679 850.076 567.171 853.515 C 565.512 856.689 565.733 855.324 565.874 858.824 C 567.654 861.114 567.369 861.141 571.145 861.436 C 582.748 862.34 595.042 862.06 606.687 862.058 L 670.893 862.119 C 670.818 871.012 670.651 879.842 671.056 888.728 C 688.791 889.993 714.492 889.072 732.828 888.916 C 733.369 880.004 734.135 870.771 733.861 861.873 C 733.541 858.129 732.821 847.175 734.746 844.306 C 734.777 843.702 734.806 843.098 734.831 842.494 C 735.701 821.549 723.317 826.911 706.664 827.235 C 707.063 812.232 706.957 796.424 707.065 781.364 C 735.329 777.63 742.891 773.651 767.69 760.329 C 777.859 769.125 776.795 768.877 779.015 781.119 C 781.142 792.853 829.499 839.404 840.681 849.056 C 847.087 854.584 854.002 859.318 861.02 864.025 C 860.48 868.098 860.134 872.195 859.986 876.301 C 859.645 885.515 857.785 917.951 863.145 923.766 C 873.009 926.883 890.426 925.34 901.499 925.348 C 933.85 925.315 966.616 925.754 998.916 925.775 C 1013.65 925.785 1013.43 922.753 1013.71 908.517 C 1014.57 864.408 1012.9 820.258 1013.47 776.143 C 1013.52 772.405 1012.25 766.714 1011.29 763.064 C 1005.85 757.785 952.95 759.94 941.735 760.003 C 942.521 696.917 951.954 702.941 889.631 702.872 L 811.999 702.837 C 818.233 678.057 820.581 648.461 812.848 623.885 C 829.711 623.843 935.286 626.385 940.613 621.973 C 946.837 616.818 942.063 571.361 943.309 560.68 C 943.614 558.069 943.607 558.144 945.714 556.505 C 955.528 557.7 1000.54 558.155 1009 555.771 C 1011.54 553.564 1012.17 551.339 1012.54 547.893 C 1013.28 540.941 1013.18 533.662 1013.03 526.64 C 1012.2 485.737 1013.17 444.76 1012.8 403.873 C 1012.72 394.527 1008.9 390.932 999.475 391.131 C 956.372 392.04 913.226 391.496 870.131 391.812 C 863.787 391.858 859.887 396.701 859.423 402.729 C 858.859 417.687 859.506 432.778 859.559 447.777 L 859.288 533.649 C 859.373 561.524 863.089 556.683 888.871 557.286 C 898.576 557.512 908.655 557.07 918.376 556.864 L 933.098 557.044 C 933.314 575.815 933.408 594.587 933.379 613.359 C 894.444 614.788 848.922 613.746 809.499 613.8 C 805.04 603.582 797.851 592.633 790.533 584.211 C 769.335 559.916 739.283 545.131 707.1 543.166 L 706.843 531.645 C 707.191 519.926 706.774 506.154 706.721 494.274 C 714.785 494.71 724.81 494.501 733.023 494.535 L 733.665 469.665 C 767.381 468.422 801.762 470.314 835.489 468.759 C 838.162 468.636 838.533 468.304 839.98 466.36 C 839.915 462.638 840.472 462.987 838.845 460.203 C 834.272 459.018 818.359 459.797 812.627 459.769 L 733.004 459.74 C 733.352 452.43 734.789 441.091 730.943 434.976 C 728.673 431.366 724.746 431.149 720.559 430.296 C 718.541 427.852 719.24 426.67 719.205 422.851 L 721.18 420.469 C 724.433 419.276 724.756 420.277 728.736 421.909 C 723.838 416.804 722.871 414.594 726.033 408.169 L 723.487 407.706 C 721.409 405.832 721.957 404.684 721.589 401.228 C 722.608 389.287 725.052 373.966 716.356 364.299 C 712.848 360.417 707.877 358.179 702.645 358.127 C 680.713 357.803 680.102 376.979 681.193 393.16 C 682.005 405.198 681.386 418.03 682.084 430.241 C 682.118 430.836 682.155 431.431 682.195 432.026 C 679.083 432.602 674.68 432.726 673.098 435.281 C 669.425 441.215 671.86 452.602 671.971 460.208 z"/>
<path transform="translate(0,0)" fill="rgb(254,254,253)" d="M 302.56 1092.34 C 313.548 1091.17 333.055 1091.7 344.606 1091.75 C 367.552 1091.89 390.498 1091.92 413.443 1091.83 L 670.834 1091.88 L 949.763 1091.69 L 1039.15 1091.7 C 1074.5 1091.76 1116.56 1086.13 1141.28 1115.85 C 1149.64 1125.9 1157.92 1140.17 1159.11 1153.41 C 1161.51 1180.12 1160.61 1207.7 1160.62 1234.58 L 1160.55 1394.73 L 1160.82 1619.05 L 1160.84 1688.59 C 1160.84 1697.36 1160.48 1706.82 1160.76 1715.52 C 1162.09 1757.98 1139.53 1790.92 1095.26 1796.8 C 1072.5 1797.85 1049.17 1796.21 1026.73 1797.36 C 972.573 1800.15 918.495 1799.11 864.233 1799.09 L 613.772 1799.07 C 528.505 1799.09 442.903 1800.79 357.726 1797.57 C 338.966 1796.86 320.05 1798.71 301.339 1796.78 C 288.604 1795.5 276.435 1790.88 266.068 1783.37 C 233.19 1759.16 235.747 1728.19 235.81 1692.06 L 235.709 1638.86 L 235.823 1445.8 L 235.764 1253.02 L 235.735 1193.36 C 235.746 1183.2 235.438 1167.34 236.424 1157.62 C 237.739 1144.21 242.682 1131.41 250.721 1120.6 C 264.016 1102.91 281.214 1095.27 302.56 1092.34 z"/>
<path transform="translate(0,0)" fill="rgb(254,204,1)" d="M 425.039 1595.34 C 445.829 1594.26 468.663 1595.19 489.728 1594.88 C 506.295 1595.04 522.899 1594.47 539.444 1595.2 C 561.983 1596.19 564.331 1608.92 564.198 1628.12 C 563.964 1662.03 564.795 1695.72 563.831 1729.58 C 563.437 1743.42 558.023 1749.74 544.938 1752.88 C 518.184 1754.28 489.92 1753.07 463.016 1753.5 C 448.18 1752.87 430.579 1755.48 416.629 1749.75 C 407.007 1745.8 406.139 1729.64 406.163 1721.05 C 406.312 1687.63 405.533 1654.09 406.458 1620.69 C 406.869 1605.81 411.156 1599.59 425.039 1595.34 z"/>
<path transform="translate(0,0)" fill="rgb(254,254,253)" d="M 471.688 1622.37 C 473.172 1622.67 474.454 1623.07 475.904 1623.48 C 479.566 1629.21 475.22 1631.68 480.225 1635.04 C 486.95 1633.45 485.559 1626.93 489.45 1622.56 L 491.079 1623.55 C 492.441 1626.67 492.224 1630.4 492.342 1633.91 C 500.119 1636.37 511.66 1641.2 512.943 1650.71 C 514.236 1660.3 505.923 1665.82 500.874 1672.62 L 504.272 1673.92 C 522.326 1680.62 518.207 1702.95 503.456 1711.4 C 483.297 1715.63 496.72 1717.64 490.572 1725.54 L 487.809 1725.27 C 484.874 1721.13 487.69 1719.25 484.986 1714.58 C 481.535 1713.64 482.908 1713.76 479.246 1714.77 C 475.923 1718.67 479.272 1720.74 476.137 1724.95 C 472.708 1725 473.639 1725.49 471.339 1723.77 C 470.811 1720.47 470.813 1718.85 470.773 1715.47 C 467.844 1712.19 465.868 1714.81 461.063 1711.43 C 458.737 1706.14 458.733 1640.05 461.886 1636.16 C 465.627 1635.84 466.31 1636.04 469.166 1633.9 C 471.8 1630.82 471.476 1626.51 471.688 1622.37 z"/>
<path transform="translate(0,0)" fill="rgb(254,204,1)" d="M 471.112 1677.42 C 484.636 1677.04 519.03 1678.39 500.546 1701.04 C 492 1705.3 480.801 1704.47 470.978 1704.75 L 471.112 1677.42 z"/>
<path transform="translate(0,0)" fill="rgb(254,204,1)" d="M 471.041 1643.87 C 483.959 1643.84 510.08 1642.67 497.992 1664.19 C 490.433 1669.34 480.094 1668.15 471.007 1668.12 L 471.041 1643.87 z"/>
<path transform="translate(0,0)" fill="rgb(1,1,1)" d="M 954.771 1608.37 C 1019.07 1606.35 1004.56 1719.48 942.666 1728.39 C 932.753 1728.38 922.874 1727.57 915.083 1721.06 C 884.76 1695.72 902.398 1633.01 933.195 1615 C 940.86 1610.52 946.291 1609.35 954.771 1608.37 z"/>
<path transform="translate(0,0)" fill="rgb(254,254,253)" d="M 950.233 1633.88 C 978.349 1633.97 968.978 1691.04 945.392 1702.84 C 918.557 1704.34 926.219 1645.82 950.233 1633.88 z"/>
<path transform="translate(0,0)" fill="rgb(1,1,1)" d="M 856.439 1608.32 C 918.227 1604.53 908.513 1716.18 846.29 1728.22 C 822.696 1729.35 805.109 1718.83 802.151 1693.71 C 797.825 1656.99 815.51 1613.4 856.439 1608.32 z"/>
<path transform="translate(0,0)" fill="rgb(254,254,253)" d="M 851.228 1634.07 C 880.745 1633.43 870.381 1690.39 847.45 1702.85 C 819.86 1704.38 828.472 1647.36 851.228 1634.07 z"/>
<path transform="translate(0,0)" fill="rgb(1,1,1)" d="M 863.271 1327.22 C 883.164 1325.15 898.963 1334.34 904.12 1353.89 C 911.219 1380.8 909.628 1420.18 878.418 1429.76 C 833.606 1438.08 827.401 1374.43 841.223 1345.78 C 846.017 1335.84 853.027 1330.57 863.271 1327.22 z"/>
<path transform="translate(0,0)" fill="rgb(254,254,253)" d="M 870.086 1346.98 C 889.054 1351.57 886.545 1376.25 884.686 1391.61 C 883.638 1400.26 879.6 1406.14 872.396 1410.99 C 850.877 1407.59 854.62 1372.97 859.116 1358 C 860.943 1351.92 864.72 1349.42 870.086 1346.98 z"/>
<path transform="translate(0,0)" fill="rgb(1,1,1)" d="M 788.234 1476.3 C 795.884 1476.4 803.766 1476.03 811.43 1475.79 C 817.364 1492.5 823.362 1516.96 828.159 1534.53 C 832.625 1516.44 838.337 1494.21 844.24 1476.77 L 866.72 1476.77 C 867.29 1510.1 869.578 1543.63 870.052 1576.36 L 849.219 1575.91 L 849.15 1547.38 C 849.064 1537.83 848.804 1528.29 848.372 1518.76 C 843.689 1530.91 839.004 1572.54 825.098 1571.69 C 815.713 1565.6 812.754 1534.85 807.053 1521.83 L 806.618 1520.86 C 805.572 1539.51 806.213 1557.39 804.589 1576.35 C 798.98 1577.01 791.677 1576.85 785.907 1576.89 C 786.13 1543.37 788.017 1509.96 788.234 1476.3 z"/>
<path transform="translate(0,0)" fill="rgb(1,1,1)" d="M 860.466 1179.28 C 904.088 1177.27 908.65 1237.84 892.999 1266.56 C 887.897 1275.92 879.829 1280.06 869.813 1282.55 C 849.587 1284.41 834.276 1271.14 830.553 1251.53 C 825.251 1223.61 826.866 1187.07 860.466 1179.28 z"/>
<path transform="translate(0,0)" fill="rgb(254,254,253)" d="M 864.289 1198.79 C 883.064 1203.5 880.778 1234.93 876.993 1249.28 C 875.105 1256.44 871.632 1259.64 865.195 1262.92 C 851.109 1260.9 849.489 1242.98 849.558 1231.66 C 849.642 1217.93 850.974 1205.35 864.289 1198.79 z"/>
<path transform="translate(0,0)" fill="rgb(1,1,1)" d="M 396.679 1328.28 C 436.045 1327.52 463.961 1329.37 463.868 1377.64 C 463.836 1394.41 463.603 1403.7 452.838 1417.52 C 438.006 1431.94 416.877 1429.25 397.113 1429.18 C 396.034 1396.97 396.76 1360.79 396.679 1328.28 z"/>
<path transform="translate(0,0)" fill="rgb(254,254,253)" d="M 418.236 1348.22 C 422.172 1348.14 427.869 1348.03 431.211 1350.14 C 446.692 1359.9 444.218 1389.77 435.845 1403.22 C 429.406 1408.6 427.103 1408.27 418.602 1408.6 C 417.97 1389.49 417.745 1367.26 418.236 1348.22 z"/>
<path transform="translate(0,0)" fill="rgb(1,1,1)" d="M 759.428 1608.38 C 795.774 1607.56 804.475 1642.89 778.661 1662.86 C 794.771 1674.76 795.983 1692.23 784.592 1707.85 C 763.4 1736.92 708.34 1738.01 702.185 1695.66 C 701.737 1692.57 702.242 1690.61 704.022 1688.28 L 708.75 1687.92 L 731.497 1687.94 C 731.71 1689.52 731.982 1691.1 732.312 1692.67 C 736.921 1713.97 768.041 1701.57 762.969 1681.59 C 761.504 1675.82 750.565 1675.26 745.95 1673.38 C 745.51 1670.28 747.209 1659.27 747.683 1655.55 C 784.415 1652.43 754.993 1611.64 741.859 1644.7 L 715.468 1644.69 C 723.947 1621.75 734.731 1611.02 759.428 1608.38 z"/>
<path transform="translate(0,0)" fill="rgb(1,1,1)" d="M 576.311 1181.04 C 607.23 1180.5 643.042 1175.82 637.842 1220.65 C 636.67 1230.76 632.59 1235.18 624.776 1241.28 C 630.12 1254.6 635.797 1267.79 641.801 1280.84 C 636.153 1281.14 623.522 1282.09 618.675 1280.64 C 614.466 1272.03 607.802 1250.91 602.174 1245.62 L 600.549 1245.99 C 597.486 1252.08 598.327 1273.05 598.328 1280.97 L 576.978 1280.98 C 576.425 1247.62 577.164 1214.71 576.311 1181.04 z"/>
<path transform="translate(0,0)" fill="rgb(254,254,253)" d="M 599.008 1199.06 C 617.472 1200.96 621.577 1208.83 613.245 1225.43 C 608.696 1227.61 605.163 1229.06 600.538 1226.74 C 596.455 1220.31 598.525 1207.14 599.008 1199.06 z"/>
<path transform="translate(0,0)" fill="rgb(1,1,1)" d="M 913.996 1181.09 C 920.614 1180.83 927.404 1180.93 934.039 1180.94 C 941.653 1196.98 950.644 1222.3 958.156 1235.77 C 958.08 1217.51 957.188 1199.52 957.231 1181.02 L 977.873 1181.1 C 978.53 1214.45 978.156 1248.27 978.714 1281.82 C 972.045 1282 964.793 1281.81 958.076 1281.77 C 950.526 1264.08 943.013 1243.62 934.418 1226.78 C 934.24 1244.95 934.16 1263.12 934.176 1281.29 C 927.398 1281.41 920.073 1281.22 913.25 1281.17 C 913.212 1264.58 913.735 1247.86 913.691 1231.19 C 913.648 1215.05 912.825 1196.87 913.996 1181.09 z"/>
<path transform="translate(0,0)" fill="rgb(1,1,1)" d="M 919.622 1328.22 L 940.693 1328.92 C 949.523 1347.85 956.092 1363.79 963.91 1383.26 C 964.873 1367.36 963.869 1345.14 963.464 1328.79 C 970.08 1328.6 976.698 1328.48 983.316 1328.43 C 983.981 1349.57 983.429 1371.8 983.804 1393.06 C 983.93 1400.21 984.503 1422.65 983.618 1428.71 L 964.073 1429.03 C 954.788 1409.54 948.733 1390.95 940.283 1371.3 C 939.858 1390.23 940.168 1409.88 940.24 1428.86 L 919.193 1428.85 C 918.926 1396.29 919.505 1361.08 919.622 1328.22 z"/>
<path transform="translate(0,0)" fill="rgb(1,1,1)" d="M 433.773 1180.67 L 453.912 1181.53 C 459.661 1197.23 470.236 1219.05 477.048 1236.35 C 476.732 1217.91 476.749 1199.45 477.1 1181 L 496.969 1181.18 C 497.469 1200.5 496.845 1221.21 497.078 1240.69 C 497.197 1250.57 497.698 1272.36 496.764 1280.87 L 477.782 1281.19 C 469.999 1263.57 461.854 1242.28 453.135 1225.64 C 453.561 1243.37 453.069 1263.03 452.996 1280.9 L 433.552 1280.84 C 432.969 1249.1 432.616 1212.28 433.773 1180.67 z"/>
<path transform="translate(0,0)" fill="rgb(1,1,1)" d="M 693.919 1180.07 C 700.51 1180.25 707.44 1180.71 714.055 1181.04 L 714.136 1204.36 C 714.29 1220.48 714.147 1235.53 713.871 1252.64 C 714.8 1282.71 673.357 1292.21 657.702 1271.45 C 648.098 1258.72 648.044 1197.69 650.41 1182.2 C 652.849 1180.32 653.999 1180.76 657.408 1180.37 L 670.879 1180.28 C 671.436 1196.52 667.497 1245.97 674.374 1257.32 C 675.626 1259.39 677.597 1261.45 680.077 1261.92 C 682.997 1262.47 686.534 1260.85 688.75 1259.06 C 690.765 1257.44 692.048 1255.35 692.59 1252.82 C 696.264 1235.63 692.506 1200.26 693.919 1180.07 z"/>
<path transform="translate(0,0)" fill="rgb(1,1,1)" d="M 475.11 1327.93 L 527.939 1327.9 L 527.851 1347.73 C 517.32 1347.99 506.792 1348.36 496.269 1348.85 C 495.993 1354.72 496.111 1361.21 496.094 1367.14 L 522.688 1367.26 L 522.724 1386.14 C 514.128 1386.44 504.736 1386.31 496.073 1386.36 L 496.025 1409.19 C 507.166 1409.2 516.752 1409.25 527.834 1410.07 L 528.148 1428.85 C 510.557 1429.13 492.598 1428.99 474.976 1429.04 C 475.026 1395.52 474.395 1361.35 475.11 1327.93 z"/>
<path transform="translate(0,0)" fill="rgb(1,1,1)" d="M 723.017 1476.09 L 774.063 1476.27 L 774.031 1495.77 C 763.754 1495.86 753.477 1496.01 743.201 1496.23 L 743.174 1515.12 C 751.994 1515.02 761.046 1515.17 769.886 1515.21 C 769.915 1521.53 769.597 1528.25 769.408 1534.61 C 760.799 1534.84 751.732 1534.77 743.081 1534.85 L 743.092 1554.24 L 743.312 1555.74 C 747.141 1558.29 768.529 1557.09 774.71 1556.98 C 774.974 1563.74 775.373 1570.5 775.905 1577.24 C 758.44 1577.36 740.526 1577.04 723.024 1576.93 C 722.408 1544 722.971 1509.16 723.017 1476.09 z"/>
<path transform="translate(0,0)" fill="rgb(1,1,1)" d="M 603.728 1328.02 C 620.797 1327.96 637.867 1328.09 654.933 1328.42 C 655.208 1334.76 654.995 1341.91 654.947 1348.32 C 644.693 1348.29 635.26 1348.19 625.037 1348.95 C 624.718 1355.05 624.867 1361.53 624.899 1367.66 L 650.677 1367.92 L 650.861 1387.03 L 625.014 1387.43 L 625.12 1405.25 L 625.214 1407.04 C 628.185 1409.93 649.298 1409.26 655.906 1409.76 L 656.115 1428.73 C 639.419 1429.31 620.927 1429 604.092 1429.04 C 604.378 1394.88 604.693 1362.15 603.728 1328.02 z"/>
<path transform="translate(0,0)" fill="rgb(1,1,1)" d="M 479.313 1474.22 C 480.169 1474.18 481.025 1474.14 481.881 1474.11 C 495.284 1473.67 502.95 1477.02 512.615 1486.12 C 508.803 1492.83 506.239 1496.03 501.073 1501.71 C 493.808 1496.83 485.932 1492.02 478.291 1499.62 C 473.353 1512.68 494.986 1516.39 502.654 1523.42 C 525.728 1544.57 512.569 1575.64 482.748 1579.14 C 468.75 1577.94 462.258 1574.99 452.737 1564.81 C 456.501 1558.57 459.699 1555.12 465.056 1550.33 C 465.827 1550.94 466.617 1551.53 467.425 1552.09 C 489.418 1567.55 498.565 1547.84 487.104 1539.74 C 468.229 1526.4 444.487 1518.44 459.343 1488.96 C 463.423 1480.86 471.071 1476.73 479.313 1474.22 z"/>
<path transform="translate(0,0)" fill="rgb(1,1,1)" d="M 610.239 1475.2 C 618.455 1474.26 652.547 1476.5 643.533 1492.66 C 634.12 1509.53 628.814 1493.94 616.952 1494.68 C 611.868 1495 610.139 1506.34 614.741 1509.1 C 624.523 1518.25 643.686 1522.4 647.299 1537.27 C 652.547 1558.87 642.777 1572.09 622.956 1578.02 C 614.925 1578.71 600.518 1577.4 594.142 1571.66 C 585.216 1563.63 594.006 1555.62 599.884 1549.48 C 607.279 1557.21 623.024 1563.18 627.648 1550.26 C 625.697 1536.84 597.872 1529.76 592.075 1514.74 C 585.517 1497.75 594.412 1482.46 610.239 1475.2 z"/>
<path transform="translate(0,0)" fill="rgb(1,1,1)" d="M 750.794 1180.25 C 765.449 1179.13 770.998 1183.08 782.261 1191.29 C 778.041 1197.63 776.024 1200.39 770.887 1206.06 C 764.259 1202.6 753.986 1195.96 748.582 1203.6 C 745.736 1207.63 747.606 1211.8 751.122 1214.49 C 762.136 1223.08 780.477 1229.72 783.039 1245.62 C 786.382 1266.36 775.159 1279 756.045 1283.22 C 741.174 1282.51 733.327 1279.66 723.346 1268.71 C 726.58 1263.88 731.499 1257.85 735.131 1253.13 C 740.191 1256.8 747.749 1262.65 754.046 1261.86 C 783.34 1246.31 726.691 1236.19 725.597 1217.2 C 724.415 1196.68 730.901 1184.91 750.794 1180.25 z"/>
<path transform="translate(0,0)" fill="rgb(1,1,1)" d="M 694.136 1327.28 C 704.3 1326.38 727.074 1329.17 726.002 1344.19 C 725.649 1349.14 718.211 1352.88 714.284 1355.29 C 706.246 1347.75 697.372 1343.69 689.98 1355.85 C 684.523 1366.09 683.613 1383.16 687.009 1394.12 C 695.602 1421.87 708.586 1404.33 717.583 1401.98 L 723.577 1407.98 C 725.518 1409.99 727.888 1413.04 729.722 1415.25 C 696.384 1454.21 658.687 1413.18 664.337 1373.04 C 667.538 1350.29 670.563 1336.57 694.136 1327.28 z"/>
<path transform="translate(0,0)" fill="rgb(1,1,1)" d="M 528.921 1475.45 C 532.299 1475.27 533.272 1474.93 536.213 1476.3 C 542.841 1482.63 548.567 1504.32 551.623 1513.72 C 556.521 1501.19 561.446 1487.93 567.133 1475.8 C 574.031 1475.77 581.46 1476.12 588.398 1476.31 C 580.877 1494.45 572.319 1513.34 564.556 1531.53 C 560.529 1544.16 561.844 1563 561.995 1576.75 C 554.956 1576.93 548.697 1576.54 541.7 1576.15 C 541.736 1568.33 542.147 1542.33 540.571 1536.42 C 536.136 1519.78 523.641 1495.33 515.769 1480.11 L 517.047 1477.85 C 520.482 1475.57 524.757 1475.73 528.921 1475.45 z"/>
<path transform="translate(0,0)" fill="rgb(1,1,1)" d="M 527.939 1327.9 C 530.249 1327.49 532.698 1326.94 535.015 1327 L 535.71 1327.6 C 554.363 1328.55 576.006 1327.61 594.947 1327.79 L 594.745 1347.84 L 574.927 1347.8 C 573.927 1375.16 575.658 1402.79 574.068 1430 C 567.505 1429.88 560.653 1429.85 554.121 1429.55 C 554.064 1405.99 555 1370.74 553.068 1348.02 C 546.503 1347.56 539.936 1347.15 533.365 1346.79 C 529.414 1346.43 530.427 1345.91 527.851 1347.73 L 527.939 1327.9 z"/>
<path transform="translate(0,0)" fill="rgb(239,239,241)" d="M 527.939 1327.9 C 530.249 1327.49 532.698 1326.94 535.015 1327 L 535.71 1327.6 C 532.459 1330.55 533.352 1342 533.365 1346.79 C 529.414 1346.43 530.427 1345.91 527.851 1347.73 L 527.939 1327.9 z"/>
<path transform="translate(0,0)" fill="rgb(1,1,1)" d="M 746.21 1328.5 C 760.859 1327.9 777.321 1328.14 792.125 1328.06 L 792.032 1347.91 L 772.26 1348.12 C 771.602 1374.31 772.12 1401.74 772.254 1428.02 C 769.027 1430.67 756.016 1429.33 751.169 1429.14 C 751.319 1402.08 751.271 1375.01 751.027 1347.95 L 730.941 1347.27 C 729.658 1341.01 727.186 1335.44 731.04 1330.11 C 734.724 1328.05 741.705 1328.52 746.21 1328.5 z"/>
<path transform="translate(0,0)" fill="rgb(1,1,1)" d="M 653.652 1476.27 C 673.658 1476.09 693.664 1476.17 713.667 1476.5 C 713.845 1482.72 713.757 1489.32 713.782 1495.57 L 693.786 1496.11 C 693.418 1516.28 693.397 1536.46 693.724 1556.63 L 693.774 1577.02 C 687.134 1577.28 680.064 1577.06 673.386 1576.96 C 672.128 1552.22 672.905 1521.24 672.849 1496.03 C 656.011 1495.62 648.403 1496.3 653.652 1476.27 z"/>
<path transform="translate(0,0)" fill="rgb(1,1,1)" d="M 506.559 1181.04 L 567.221 1181.22 L 566.619 1199.71 L 547.198 1200.41 C 546.709 1220.52 547.288 1241.05 547.65 1261.19 L 547.613 1281.29 L 527.125 1281.24 C 526.76 1254.34 526.668 1227.43 526.851 1200.52 L 506.223 1199.89 C 506.024 1193.64 506.341 1187.3 506.559 1181.04 z"/>
<path transform="translate(0,0)" fill="rgb(1,1,1)" d="M 398.091 1180.31 C 404.478 1180.24 411.793 1180.71 418.246 1180.97 C 418.885 1200.61 418.095 1222.1 418.281 1241.9 C 418.361 1250.35 418.668 1273.28 417.651 1280.74 C 411.144 1280.97 404.254 1280.9 397.713 1280.95 C 396.908 1252.77 396.64 1207.3 398.091 1180.31 z"/>
<path transform="translate(0,0)" fill="rgb(1,1,1)" d="M 795.236 1181.27 L 815.219 1181.5 C 815.736 1214.75 815.715 1248.01 815.155 1281.26 C 808.85 1282.04 801.541 1281.83 795.114 1281.82 C 794.97 1248.3 795.011 1214.78 795.236 1181.27 z"/>
<path transform="translate(0,0)" fill="rgb(1,1,1)" d="M 801.725 1327.48 C 808.215 1327.33 815.45 1327.75 821.992 1328 C 823.773 1356.48 822.321 1398.77 822.368 1428.89 C 815.691 1429.08 808.632 1428.93 801.922 1428.91 L 801.725 1327.48 z"/>
<path transform="translate(0,0)" fill="rgb(33,39,45)" d="M 682.195 432.026 C 682.155 431.431 682.118 430.836 682.084 430.241 C 681.386 418.03 682.005 405.198 681.193 393.16 C 680.102 376.979 680.713 357.803 702.645 358.127 C 707.877 358.179 712.848 360.417 716.356 364.299 C 725.052 373.966 722.608 389.287 721.589 401.228 C 721.957 404.684 721.409 405.832 723.487 407.706 L 726.033 408.169 C 722.871 414.594 723.838 416.804 728.736 421.909 C 724.756 420.277 724.433 419.276 721.18 420.469 L 719.205 422.851 C 719.24 426.67 718.541 427.852 720.559 430.296 C 724.746 431.149 728.673 431.366 730.943 434.976 C 734.789 441.091 733.352 452.43 733.004 459.74 L 812.627 459.769 C 818.359 459.797 834.272 459.018 838.845 460.203 C 840.472 462.987 839.915 462.638 839.98 466.36 C 838.533 468.304 838.162 468.636 835.489 468.759 C 801.762 470.314 767.381 468.422 733.665 469.665 L 733.023 494.535 C 724.81 494.501 714.785 494.71 706.721 494.274 C 706.774 506.154 707.191 519.926 706.843 531.645 L 707.1 543.166 C 739.283 545.131 769.335 559.916 790.533 584.211 C 797.851 592.633 805.04 603.582 809.499 613.8 C 848.922 613.746 894.444 614.788 933.379 613.359 C 933.408 594.587 933.314 575.815 933.098 557.044 L 918.376 556.864 C 924.685 554.814 937.616 555.267 944.418 555.655 L 945.714 556.505 C 943.607 558.144 943.614 558.069 943.309 560.68 C 942.063 571.361 946.837 616.818 940.613 621.973 C 935.286 626.385 829.711 623.843 812.848 623.885 C 820.581 648.461 818.233 678.057 811.999 702.837 L 889.631 702.872 C 951.954 702.941 942.521 696.917 941.735 760.003 C 952.95 759.94 1005.85 757.785 1011.29 763.064 C 1012.25 766.714 1013.52 772.405 1013.47 776.143 C 1012.9 820.258 1014.57 864.408 1013.71 908.517 C 1013.43 922.753 1013.65 925.785 998.916 925.775 C 966.616 925.754 933.85 925.315 901.499 925.348 C 890.426 925.34 873.009 926.883 863.145 923.766 C 857.785 917.951 859.645 885.515 859.986 876.301 C 860.134 872.195 860.48 868.098 861.02 864.025 C 854.002 859.318 847.087 854.584 840.681 849.056 C 829.499 839.404 781.142 792.853 779.015 781.119 C 776.795 768.877 777.859 769.125 767.69 760.329 C 742.891 773.651 735.329 777.63 707.065 781.364 C 706.957 796.424 707.063 812.232 706.664 827.235 C 723.317 826.911 735.701 821.549 734.831 842.494 C 734.806 843.098 734.777 843.702 734.746 844.306 C 732.821 847.175 733.541 858.129 733.861 861.873 C 734.135 870.771 733.369 880.004 732.828 888.916 C 714.492 889.072 688.791 889.993 671.056 888.728 C 670.651 879.842 670.818 871.012 670.893 862.119 L 606.687 862.058 C 595.042 862.06 582.748 862.34 571.145 861.436 C 567.369 861.141 567.654 861.114 565.874 858.824 C 565.733 855.324 565.512 856.689 567.171 853.515 C 571.679 850.076 607.665 851.471 615.711 851.419 C 633.692 851.305 653.083 851.116 671.058 851.86 C 669.845 824.245 670.779 826.446 698.242 826.947 C 697.425 812.882 697.358 796.477 697 782.234 C 648.684 777.941 613.159 755.897 589.849 713.014 C 551.123 714.241 508.23 712.321 468.503 713.008 C 467.974 728.297 468.041 744.634 467.861 760.004 C 479.477 759.938 533.807 757.927 539.771 762.907 C 540.965 766.862 541.757 771.68 541.803 775.808 C 542.221 813.261 541.373 850.709 541.838 888.167 C 541.94 896.365 542.58 916.741 539.476 923.777 C 529.539 926.463 516.802 925.533 506.499 925.457 C 476.981 925.241 447.486 925.173 417.972 925.846 C 410.416 926.018 402.453 925.945 394.995 924.837 C 390.301 924.139 390.079 920.59 389.74 916.751 C 388.694 905.437 389.254 894.165 389.549 882.841 C 390.73 848.415 389.064 813.98 389.397 779.564 C 389.455 773.567 390.351 767.379 391.924 761.6 C 397.318 758.569 450.883 760.105 459.794 760.15 C 459.504 748.693 458.134 715.367 461.348 706.56 C 466.98 700.936 501.547 702.716 510.968 702.71 L 586.221 702.578 C 578.531 679.818 578.733 646.596 586.258 623.933 C 558.132 622.568 527.109 624.122 498.708 623.26 C 486.181 622.88 474.294 623.67 461.598 622.413 C 459.371 605.652 460.115 575.697 460.077 557.769 C 446.004 556.834 398.351 559.758 390.669 554.214 C 390.215 552.573 389.877 550.901 389.66 549.212 C 387.844 535.414 388.441 397.514 391.838 394.284 C 394.04 392.189 398.912 391.891 401.87 391.669 C 418.15 390.446 435.119 391.856 451.506 391.763 C 476.641 391.621 502.309 390.21 527.392 391.477 C 529.961 391.606 537.474 391.9 539.242 393.9 C 545.663 401.161 541.262 539.674 539.706 555.724 C 518.568 557.676 491.265 557.153 469.75 557.201 L 470.183 613.16 C 509.443 612.414 550.638 613.01 589.992 613.009 C 617.516 568.58 644.392 545.458 698.596 543.456 C 697.142 537.411 697.073 502.435 696.944 494.366 C 687.685 494.638 680.751 494.886 671.536 494.128 C 671.044 486.944 671.496 476.655 671.634 469.168 C 647.933 468.47 624.564 469.152 600.918 469.259 C 593.157 469.295 570.187 470.115 563.82 468.526 C 562.354 465.736 562.893 466.073 563.033 462.412 C 567.834 457.969 593.794 459.806 601.983 459.84 L 671.971 460.208 C 671.86 452.602 669.425 441.215 673.098 435.281 C 674.68 432.726 679.083 432.602 682.195 432.026 z M 496.577 469.91 C 494.892 471.011 494.006 472.995 494.314 474.984 C 494.621 476.974 496.063 478.599 498.002 479.14 C 499.94 479.681 502.016 479.038 503.309 477.496 C 504.941 475.549 504.901 472.7 503.215 470.799 C 501.528 468.899 498.704 468.52 496.577 469.91 z M 520.009 427.55 C 520.39 423.599 521.47 419.121 519.53 416.055 C 516.952 414.583 515.001 414.946 511.991 414.992 C 511.288 418.823 510.115 422.228 511.614 425.595 C 514.944 427.835 515.667 427.217 520.009 427.55 z M 972.466 849.19 C 976.071 845.088 976.854 841.064 972.438 837.134 L 969.405 836.266 C 967.534 839.327 965.696 841.519 965.664 844.992 C 967.997 848.219 967.739 847.556 972.466 849.19 z"/>
<path transform="translate(0,0)" fill="rgb(40,137,187)" d="M 719.205 422.851 C 719.602 415.333 720.573 408.666 721.589 401.228 C 721.957 404.684 721.409 405.832 723.487 407.706 L 726.033 408.169 C 722.871 414.594 723.838 416.804 728.736 421.909 C 724.756 420.277 724.433 419.276 721.18 420.469 L 719.205 422.851 z"/>
<path transform="translate(0,0)" fill="rgb(254,254,253)" d="M 684.929 553.224 C 745.149 545.247 800.419 587.638 808.328 647.867 C 816.236 708.096 773.782 763.318 713.544 771.157 C 653.403 778.984 598.29 736.614 590.395 676.482 C 582.499 616.35 624.806 561.188 684.929 553.224 z"/>
<path transform="translate(0,0)" fill="rgb(1,1,1)" d="M 692.585 573.207 C 741.616 569.548 784.373 606.232 788.207 655.25 C 792.041 704.268 755.508 747.154 706.505 751.163 C 657.254 755.192 614.103 718.435 610.25 669.17 C 606.396 619.904 643.307 576.885 692.585 573.207 z"/>
<path transform="translate(0,0)" fill="rgb(254,254,253)" d="M 698.347 581.264 C 742.866 580.891 779.319 616.561 779.912 661.078 C 780.505 705.596 745.015 742.225 700.502 743.037 C 655.676 743.856 618.734 708.063 618.137 663.233 C 617.54 618.404 653.515 581.639 698.347 581.264 z"/>
<path transform="translate(0,0)" fill="rgb(1,1,1)" d="M 690.378 615.082 C 698 614.796 709.756 613.611 715.515 619.386 C 718.106 627.27 716.064 666.173 714.887 675.604 C 712.735 678.327 712.006 678.707 709.153 680.8 C 709.768 687.629 731.959 698.4 709.312 713.882 C 699.009 716.749 690.441 715.11 685.395 704.57 C 678.909 691.018 690.058 688.342 693.073 680.438 C 690.245 679.246 687.936 678.69 686.206 676.28 C 684.111 663.373 683.646 635.96 684.574 622.223 C 684.807 618.767 687.575 616.773 690.378 615.082 z"/>
<path transform="translate(0,0)" fill="rgb(254,254,253)" d="M 693.306 624.03 C 698.729 623.909 703.522 623.063 707.403 626.747 C 708.758 632.944 707.591 667.094 705.563 673.224 C 701.762 675.21 700.561 674.592 697.067 672.857 C 691.257 665.837 692.605 633.943 693.306 624.03 z"/>
<path transform="translate(0,0)" fill="rgb(239,239,241)" d="M 695.938 690.804 C 701.958 690.528 705.406 691.325 708.302 696.634 C 708.077 701.264 708.1 699.976 705.48 704.253 C 701.844 705.376 699.515 705.774 695.998 704.527 C 690.719 699.666 692.547 696.329 695.938 690.804 z"/>
<path transform="translate(0,0)" fill="rgb(38,151,205)" d="M 807.191 712.526 C 847.142 714.515 892.984 710.738 932.072 714.104 C 932.05 729.457 932.318 744.809 932.878 760.152 C 923.603 760.152 914.082 760.413 904.786 760.562 C 893.367 760.855 872.288 757.26 863.413 764.306 C 858.871 767.912 859.148 776.533 858.906 782.116 C 846.202 772.554 833.357 757.639 821.527 746.202 C 817.89 745.579 813.644 745.102 809.939 744.603 C 805.946 740.763 801.041 736.798 796.772 733.18 C 800.249 725.372 803.027 720 807.191 712.526 z"/>
<path transform="translate(0,0)" fill="rgb(254,254,253)" d="M 480.129 820.485 C 497.734 820.029 515.351 820.518 532.904 821.95 C 533.335 835.809 533.361 849.679 532.981 863.54 C 508.37 864.737 480.128 864.335 455.25 864.436 C 444.731 864.432 406.925 865.562 399.999 861.684 C 397.244 854.706 398.712 831.372 398.943 822.591 C 415.483 819.957 460.676 820.83 480.129 820.485 z"/>
<path transform="translate(0,0)" fill="rgb(1,1,1)" d="M 413.036 839.093 C 422.867 839.488 446.785 837.896 455.101 839.556 C 457.437 842.476 456.771 842.764 457.123 846.945 C 447.047 847.191 422.893 847.986 413.753 846.879 C 412.099 844.073 412.82 842.818 413.036 839.093 z"/>
<path transform="translate(0,0)" fill="rgb(1,1,1)" d="M 495.715 836.195 C 498.651 836.606 498.533 836.551 501.129 837.961 C 503.415 840.738 503.102 843.829 503.347 847.6 C 499.893 847.521 498 847.892 495.354 845.804 C 494.045 842.757 495.093 839.638 495.715 836.195 z"/>
<path transform="translate(0,0)" fill="rgb(254,254,253)" d="M 450.518 504.489 C 476.367 504.264 506.594 504.525 532.32 505.516 C 533.363 518.646 533.304 534.784 532.817 547.923 L 482.5 547.99 C 457.62 547.776 422.601 549.332 398.525 547.33 C 397.491 534.733 397.924 518.507 398.496 505.831 C 412.762 504.272 435.758 504.666 450.518 504.489 z"/>
<path transform="translate(0,0)" fill="rgb(1,1,1)" d="M 426.716 522.5 C 434.718 522.481 449.466 520.577 455.014 525.109 C 456.025 528.193 456.152 527.089 455.19 529.738 C 451.472 531.489 447.49 530.978 443.25 530.929 C 436.334 530.841 416.622 532.752 412.52 529.587 C 412.375 525.875 411.86 526.376 413.308 523.467 C 416.956 521.787 422.483 522.392 426.716 522.5 z"/>
<path transform="translate(0,0)" fill="rgb(1,1,1)" d="M 499.246 520.356 C 501.17 519.896 503.192 520.514 504.531 521.971 C 505.869 523.427 506.314 525.495 505.693 527.373 C 505.072 529.251 503.483 530.646 501.54 531.018 C 498.629 531.576 495.805 529.706 495.182 526.808 C 494.558 523.91 496.363 521.045 499.246 520.356 z"/>
<path transform="translate(0,0)" fill="rgb(254,254,253)" d="M 410.629 453.436 C 444.23 451.575 498.852 452.402 532.739 453.268 C 533.171 467.087 533.235 480.915 532.931 494.737 L 521.693 495.074 C 480.763 496.125 439.813 496.142 398.883 495.126 C 397.766 481.799 398.149 467.694 398.223 454.264 L 410.629 453.436 z M 503.309 477.496 C 504.941 475.549 504.901 472.7 503.215 470.799 C 501.528 468.899 498.704 468.52 496.577 469.91 C 494.892 471.011 494.006 472.995 494.314 474.984 C 494.621 476.974 496.063 478.599 498.002 479.14 C 499.94 479.681 502.016 479.038 503.309 477.496 z"/>
<path transform="translate(0,0)" fill="rgb(1,1,1)" d="M 412.111 470.316 C 420.771 470.587 452.039 468.424 456.514 474.012 L 456.079 477.868 C 449.354 479.145 420.558 480.06 413.609 478.533 C 411.705 475.477 412.278 474.26 412.111 470.316 z"/>
<path transform="translate(0,0)" fill="rgb(33,39,45)" d="M 515.4 466.25 C 516.344 466.537 518.086 467.088 518.86 467.627 C 520.517 468.774 521.632 470.548 521.948 472.538 C 522.549 476.285 520.298 479.169 518.24 481.988 C 512.728 479.91 511.61 479.822 510.645 474.119 C 511.566 470.143 512.741 469.2 515.4 466.25 z"/>
<path transform="translate(0,0)" fill="rgb(1,1,1)" fill-opacity="0.988235" d="M 496.577 469.91 C 498.704 468.52 501.528 468.899 503.215 470.799 C 504.901 472.7 504.941 475.549 503.309 477.496 C 502.016 479.038 499.94 479.681 498.002 479.14 C 496.063 478.599 494.621 476.974 494.314 474.984 C 494.006 472.995 494.892 471.011 496.577 469.91 z"/>
<path transform="translate(0,0)" fill="rgb(254,254,253)" d="M 423.383 873.451 C 457.903 872.595 498.297 873.105 532.898 873.968 C 533.062 886.145 533.392 903.425 532.371 915.234 C 525.415 915.961 516.729 915.825 509.615 915.911 C 473.145 915.955 435.59 916.415 399.212 915.727 C 398.761 902.047 398.549 888.361 398.577 874.675 C 404.97 873.801 416.487 873.69 423.383 873.451 z"/>
<path transform="translate(0,0)" fill="rgb(1,1,1)" d="M 413.173 891.084 C 423.461 890.957 447.148 889.67 455.756 893.038 C 457.575 895.752 456.995 894.915 456.681 899 C 448.179 899.59 421.777 900.986 414.172 899.591 C 412.627 897.297 413.123 894 413.173 891.084 z"/>
<path transform="translate(0,0)" fill="rgb(1,1,1)" d="M 514.244 889.4 C 517.222 888.448 520.413 890.062 521.411 893.025 C 522.409 895.987 520.845 899.203 517.898 900.247 C 515.95 900.936 513.783 900.523 512.226 899.165 C 510.669 897.808 509.964 895.716 510.382 893.693 C 510.8 891.67 512.276 890.029 514.244 889.4 z"/>
<path transform="translate(0,0)" fill="rgb(1,1,1)" d="M 496.051 889.646 C 499.952 889.841 500.892 889.573 503.264 892.766 C 503.578 896.394 503.213 897.075 502.275 900.692 C 498.758 899.72 497.522 899.716 495.189 897.037 C 494.428 893.689 494.921 893.069 496.051 889.646 z"/>
<path transform="translate(0,0)" fill="rgb(254,254,253)" d="M 429.664 769.463 C 452.272 768.835 475.34 769.791 498.01 769.308 C 509.331 769.067 521.571 769.056 532.766 770.176 C 533.132 783.742 533.214 797.315 533.012 810.884 L 504.757 811.809 C 469.957 812.372 433.726 811.453 398.871 810.914 C 397.765 798.723 398.299 782.948 398.413 770.449 C 408.077 769.756 419.832 769.735 429.664 769.463 z"/>
<path transform="translate(0,0)" fill="rgb(1,1,1)" d="M 412.341 785.821 C 422.306 786.072 448.241 784.115 455.569 787.579 C 457.491 790.284 456.869 789.445 456.346 793.811 C 447.787 794.515 421.103 795.867 413.885 794.482 C 412.171 792.257 412.464 788.789 412.341 785.821 z"/>
<path transform="translate(0,0)" fill="rgb(33,39,45)" d="M 512.635 783.958 C 515.504 781.993 519.424 782.736 521.374 785.615 C 523.324 788.494 522.56 792.41 519.671 794.345 C 516.803 796.266 512.922 795.509 510.987 792.651 C 509.051 789.793 509.788 785.909 512.635 783.958 z"/>
<path transform="translate(0,0)" fill="rgb(1,1,1)" d="M 496.564 785.732 C 498.586 784.175 501.487 784.547 503.051 786.564 C 504.615 788.581 504.253 791.483 502.242 793.054 C 500.22 794.632 497.301 794.268 495.73 792.241 C 494.158 790.215 494.532 787.297 496.564 785.732 z"/>
<path transform="translate(0,0)" fill="rgb(254,254,253)" d="M 887.683 874.53 C 920.695 873.899 971.887 872.461 1003.8 875.323 C 1004.17 888.619 1004.22 901.922 1003.96 915.22 L 985.584 915.774 C 946.755 916.187 907.923 916.241 869.093 915.938 C 868.26 902.866 868.797 888.023 869.384 874.977 L 887.683 874.53 z"/>
<path transform="translate(0,0)" fill="rgb(1,1,1)" d="M 882.008 892.119 C 891.455 891.899 918.875 890.239 926.231 893.54 C 928.497 896.139 927.927 894.843 927.808 898.955 C 920.672 900.365 890.51 900.892 883.538 899.457 C 881.462 896.57 882.12 896.137 882.008 892.119 z"/>
<path transform="translate(0,0)" fill="rgb(33,39,45)" d="M 986.287 889.443 C 989.458 889.461 992.036 892.005 992.096 895.176 C 992.157 898.346 989.678 900.986 986.51 901.125 C 984.39 901.219 982.385 900.155 981.274 898.346 C 980.163 896.538 980.12 894.269 981.161 892.42 C 982.203 890.57 984.165 889.431 986.287 889.443 z"/>
<path transform="translate(0,0)" fill="rgb(33,39,45)" d="M 969.082 888.495 L 971.475 889.166 C 976.406 893.382 975.056 896.96 971.292 901.237 C 967.372 900.221 966.556 900.312 964.808 896.583 C 965.272 892.739 966.675 891.568 969.082 888.495 z"/>
<path transform="translate(0,0)" fill="rgb(254,254,253)" d="M 398.79 402.087 C 423.476 401.278 450.899 402.353 475.876 402.044 C 489.601 401.874 519.507 401.475 532.127 403.098 C 533.444 413.796 532.826 432.616 532.46 443.659 C 487.957 444.761 443.432 444.504 398.945 442.888 C 397.893 430.368 397.922 414.58 398.79 402.087 z M 520.009 427.55 C 520.39 423.599 521.47 419.121 519.53 416.055 C 516.952 414.583 515.001 414.946 511.991 414.992 C 511.288 418.823 510.115 422.228 511.614 425.595 C 514.944 427.835 515.667 427.217 520.009 427.55 z"/>
<path transform="translate(0,0)" fill="rgb(1,1,1)" d="M 413.016 418.181 C 423.392 418.788 445.735 417.058 454.52 419.345 C 456.15 421.866 455.53 423.272 455.483 426.718 C 447.306 426.9 420.913 427.883 413.869 426.577 C 412.406 424.252 412.927 421.063 413.016 418.181 z"/>
<path transform="translate(0,0)" fill="rgb(1,1,1)" fill-opacity="0.988235" d="M 511.991 414.992 C 515.001 414.946 516.952 414.583 519.53 416.055 C 521.47 419.121 520.39 423.599 520.009 427.55 C 515.667 427.217 514.944 427.835 511.614 425.595 C 510.115 422.228 511.288 418.823 511.991 414.992 z"/>
<path transform="translate(0,0)" fill="rgb(33,39,45)" d="M 496.075 415.679 C 499.128 415.756 499.37 415.683 502.132 416.835 C 504.099 419.681 503.407 423.751 503.302 427.492 C 500.31 427.254 499.117 427.436 496.666 425.904 C 494.785 421.719 495.667 420.9 496.075 415.679 z"/>
<path transform="translate(0,0)" fill="rgb(254,254,253)" d="M 872.889 769.449 C 894.007 768.675 916.755 769.348 938.015 769.476 C 959.649 769.606 982.258 769.156 1003.75 770.176 C 1003.88 777.077 1005.36 805.77 1002.62 810.496 L 999.25 811.153 C 963.76 811.749 924.493 812.478 889.168 811.71 C 880.256 806.787 874.063 800.282 867.869 792.38 C 868.103 785.677 867.135 772.965 872.889 769.449 z"/>
<path transform="translate(0,0)" fill="rgb(1,1,1)" d="M 883.181 786.12 C 892.658 786.181 921.641 783.555 927.447 789.345 L 927.358 793.307 C 920.545 794.552 892.769 795.017 885.516 793.545 C 883.062 790.552 883.714 790.343 883.181 786.12 z"/>
<path transform="translate(0,0)" fill="rgb(33,39,45)" d="M 983.842 784.688 C 985.785 783.48 988.25 783.499 990.176 784.734 C 992.102 785.97 993.145 788.204 992.857 790.473 C 992.569 792.743 991.001 794.645 988.827 795.361 C 985.974 796.301 982.869 794.959 981.597 792.237 C 980.326 789.516 981.29 786.273 983.842 784.688 z"/>
<path transform="translate(0,0)" fill="rgb(33,39,45)" d="M 967.153 784.887 C 969.676 783.432 972.897 784.203 974.489 786.643 C 976.08 789.083 975.487 792.341 973.138 794.064 C 971.5 795.266 969.331 795.464 967.502 794.578 C 965.673 793.693 964.484 791.869 964.41 789.838 C 964.337 787.807 965.392 785.902 967.153 784.887 z"/>
<path transform="translate(0,0)" fill="rgb(254,254,253)" d="M 894.08 821.121 C 919.882 820.633 945.758 820.832 971.566 820.62 C 981.965 820.534 993.001 820.586 1003.31 821.89 C 1004.73 832.637 1004.11 852.009 1003.96 863.413 C 987.555 865.203 962.891 864.874 946.238 864.921 C 925.13 864.779 887.506 865.438 867.172 863.101 C 876.649 856.867 885.708 850.87 896.925 848.615 C 906.944 846.602 918.527 850.67 926.827 845.847 C 927.554 843.027 927.565 844.191 925.933 841.046 C 921.549 837.505 901.144 838.733 894.334 838.812 C 894.682 833.002 894.309 826.955 894.08 821.121 z M 972.466 849.19 C 976.071 845.088 976.854 841.064 972.438 837.134 L 969.405 836.266 C 967.534 839.327 965.696 841.519 965.664 844.992 C 967.997 848.219 967.739 847.556 972.466 849.19 z"/>
<path transform="translate(0,0)" fill="rgb(1,1,1)" d="M 984.615 834.453 C 991.84 836.319 994.67 843.45 990.279 849.346 C 985.264 848.465 983.965 848.659 981.697 844.202 C 981.649 840.353 983.062 837.929 984.615 834.453 z"/>
<path transform="translate(0,0)" fill="rgb(1,1,1)" fill-opacity="0.988235" d="M 969.405 836.266 L 972.438 837.134 C 976.854 841.064 976.071 845.088 972.466 849.19 C 967.739 847.556 967.997 848.219 965.664 844.992 C 965.696 841.519 967.534 839.327 969.405 836.266 z"/>
<path transform="translate(0,0)" fill="rgb(254,254,253)" d="M 816.164 754.674 C 821.439 757.489 856.791 794.877 863.502 801.147 C 869.528 808.256 887.334 822.031 886.331 831.488 C 885.075 843.325 873.128 851.368 861.101 850.515 C 844.938 844.262 801.558 796.208 787.314 781.339 C 797.014 770.599 804.44 763.061 816.164 754.674 z"/>
<path transform="translate(0,0)" fill="rgb(254,254,253)" d="M 682.796 836.473 C 696.075 836.29 712.103 835.779 725.072 837.091 C 725.116 844.81 725.683 874.439 724.18 879.273 L 722.195 880.008 C 708.1 880.352 694 880.362 679.906 880.038 C 679.482 872.846 678.026 842.105 680.175 837.175 L 682.796 836.473 z"/>
<path transform="translate(0,0)" fill="rgb(254,254,253)" d="M 679.983 442.213 C 694.989 441.947 710.157 441.521 725.148 441.959 L 724.256 484.84 C 709.716 485.026 695.174 485.099 680.633 485.059 C 679.851 471.686 680.106 455.774 679.983 442.213 z"/>
<path transform="translate(0,0)" fill="rgb(38,151,205)" d="M 697.491 368.117 C 714.115 367.256 713.864 380.908 712.788 393.674 C 711.722 406.329 710.16 418.821 709.259 431.522 L 707.766 432.454 C 702.572 432.257 696.303 432.496 691.025 432.558 C 691.255 414.708 689.29 391.422 691.612 373.593 C 691.989 370.7 695 369.564 697.491 368.117 z"/>
<path transform="translate(0,0)" fill="rgb(254,254,253)" d="M 789.585 739.762 C 791.459 740.507 801.218 749.744 803.402 751.731 C 798.896 757.136 793.731 761.955 788.028 766.076 C 783.699 763.005 778.989 757.359 775.686 753.287 L 789.585 739.762 z"/>
<path transform="translate(0,0)" fill="rgb(33,39,45)" d="M 918.376 556.864 C 908.655 557.07 898.576 557.512 888.871 557.286 C 863.089 556.683 859.373 561.524 859.288 533.649 L 859.559 447.777 C 859.506 432.778 858.859 417.687 859.423 402.729 C 859.887 396.701 863.787 391.858 870.131 391.812 C 913.226 391.496 956.372 392.04 999.475 391.131 C 1008.9 390.932 1012.72 394.527 1012.8 403.873 C 1013.17 444.76 1012.2 485.737 1013.03 526.64 C 1013.18 533.662 1013.28 540.941 1012.54 547.893 C 1012.17 551.339 1011.54 553.564 1009 555.771 C 1000.54 558.155 955.528 557.7 945.714 556.505 L 944.418 555.655 C 937.616 555.267 924.685 554.814 918.376 556.864 z M 973.153 531.897 C 973.849 528.001 974.754 525.322 973.47 521.658 C 970.759 519.183 971.838 519.942 967.68 519.309 C 966.528 522.725 965.3 525.098 965.901 528.571 C 968.245 531.478 968.904 531.374 973.153 531.897 z M 971.599 478.563 C 974.015 477.281 974.952 474.294 973.701 471.861 C 972.449 469.428 969.474 468.453 967.026 469.673 C 965.413 470.476 964.358 472.085 964.263 473.884 C 964.168 475.682 965.048 477.393 966.566 478.362 C 968.085 479.331 970.008 479.408 971.599 478.563 z"/>
<path transform="translate(0,0)" fill="rgb(254,254,253)" d="M 965.09 504.5 C 978.53 504.312 989.569 504.56 1002.96 505.152 C 1003.27 519.151 1003.7 532.964 1003.17 546.967 C 971.129 548.415 938.61 547.955 906.5 547.873 C 895.121 547.958 880.343 548.222 869.245 547.052 C 868.022 534.431 868.41 518.436 868.691 505.809 C 878.515 504.747 896.766 504.883 906.813 504.839 L 965.09 504.5 z M 973.153 531.897 C 973.849 528.001 974.754 525.322 973.47 521.658 C 970.759 519.183 971.838 519.942 967.68 519.309 C 966.528 522.725 965.3 525.098 965.901 528.571 C 968.245 531.478 968.904 531.374 973.153 531.897 z"/>
<path transform="translate(0,0)" fill="rgb(1,1,1)" d="M 882.116 522.469 C 891.699 522.224 919.467 520.17 926.006 524.631 C 926.962 527.858 926.682 526.821 925.762 530.518 C 918.896 531.216 887.192 531.732 881.851 530.533 C 880.703 528.2 881.652 525.18 882.116 522.469 z"/>
<path transform="translate(0,0)" fill="rgb(1,1,1)" d="M 982.337 518.661 C 985.79 518.686 987.437 518.292 990.068 520.411 C 992.287 524.744 991.746 527.024 990.292 532.1 C 985.392 531.83 983.584 532.222 980.829 528.183 C 980.338 524.397 981.257 522.26 982.337 518.661 z"/>
<path transform="translate(0,0)" fill="rgb(1,1,1)" fill-opacity="0.984314" d="M 967.68 519.309 C 971.838 519.942 970.759 519.183 973.47 521.658 C 974.754 525.322 973.849 528.001 973.153 531.897 C 968.904 531.374 968.245 531.478 965.901 528.571 C 965.3 525.098 966.528 522.725 967.68 519.309 z"/>
<path transform="translate(0,0)" fill="rgb(254,254,253)" d="M 871.783 453.264 C 897.753 452.617 923.732 452.411 949.709 452.644 C 964.31 452.631 989.724 452.008 1003.14 454.118 C 1003.86 461.353 1005.15 488.045 1002.74 493.713 L 999.874 494.739 C 973.542 495.616 947.195 495.933 920.849 495.692 C 905.122 495.625 884.536 495.815 869.128 494.254 C 867.669 485.299 867.439 466.35 868.508 456.681 C 868.761 454.396 869.918 454.295 871.783 453.264 z M 971.599 478.563 C 974.015 477.281 974.952 474.294 973.701 471.861 C 972.449 469.428 969.474 468.453 967.026 469.673 C 965.413 470.476 964.358 472.085 964.263 473.884 C 964.168 475.682 965.048 477.393 966.566 478.362 C 968.085 479.331 970.008 479.408 971.599 478.563 z"/>
<path transform="translate(0,0)" fill="rgb(1,1,1)" d="M 899.97 470.478 C 904.411 470.362 908.853 470.312 913.296 470.328 C 918.212 470.389 925.541 471.572 929.057 475.194 C 924.968 479.178 916.277 478.754 910.699 478.817 C 904.435 478.983 898.171 479.098 891.906 479.163 C 888.497 479.17 884.51 479.443 882.286 477.244 C 882.361 473.973 881.791 473.678 883.359 471.591 C 887.817 469.983 895.013 470.454 899.97 470.478 z"/>
<path transform="translate(0,0)" fill="rgb(33,39,45)" d="M 984.138 466.539 C 986.005 466.605 987.119 466.98 988.897 467.444 C 992.589 471.909 992.28 476.849 988.797 481.263 C 983.647 480.023 982.328 480.317 980.429 475.276 C 980.996 471.361 982.154 469.863 984.138 466.539 z"/>
<path transform="translate(0,0)" fill="rgb(1,1,1)" fill-opacity="0.988235" d="M 967.026 469.673 C 969.474 468.453 972.449 469.428 973.701 471.861 C 974.952 474.294 974.015 477.281 971.599 478.563 C 970.008 479.408 968.085 479.331 966.566 478.362 C 965.048 477.393 964.168 475.682 964.263 473.884 C 964.358 472.085 965.413 470.476 967.026 469.673 z"/>
<path transform="translate(0,0)" fill="rgb(254,254,253)" d="M 870.305 402.176 C 890.801 401.028 919.205 401.999 940.201 401.839 C 956.927 401.711 987.063 401.163 1003.02 402.592 C 1003.26 408.252 1003.46 413.913 1003.62 419.576 C 1003.75 424.837 1004.94 439.708 1001.89 442.914 C 958.611 443.69 913.961 444.698 870.864 441.784 C 865.875 441.446 867.782 407.204 870.305 402.176 z"/>
<path transform="translate(0,0)" fill="rgb(1,1,1)" d="M 882.105 417.789 C 891.917 418.174 918.319 417.091 926.175 419.221 C 928.177 421.922 927.614 422.621 927.895 426.362 C 919.939 426.829 890.613 427.531 883.311 426.484 C 881.52 423.475 882.159 421.745 882.105 417.789 z"/>
<path transform="translate(0,0)" fill="rgb(33,39,45)" d="M 983.216 414.752 C 988.065 414.708 989.049 414.139 992.08 417.763 C 992.837 421.539 992.183 424.071 991.578 427.819 C 986.517 427.245 985.979 427.635 982.761 424.605 C 981.662 421.183 982.569 418.377 983.216 414.752 z"/>
<path transform="translate(0,0)" fill="rgb(33,39,45)" d="M 969.35 414.373 C 976.747 416.603 975.893 422.638 971.953 427.968 L 967.87 426.4 C 963.641 421.392 964.728 418.455 969.35 414.373 z"/>
<path transform="translate(0,0)" fill="rgb(35,54,66)" d="M 733.861 861.873 C 733.541 858.129 732.821 847.175 734.746 844.306 L 734.925 849.61 C 741.619 854.919 818.439 848.675 832.039 851.793 C 834.128 852.272 834.723 854.449 835.478 856.244 C 834.738 858.562 834.272 859.415 831.956 860.432 C 823.066 864.336 749.123 861.796 733.861 861.873 z"/>
<path transform="translate(0,0)" fill="rgb(35,54,66)" d="M 699.26 307.951 C 701.329 308.213 703.488 308.63 705.554 308.991 C 708.642 312.64 707.871 343.234 707.595 349.457 C 705.983 349.397 698.88 349.215 698.64 347.724 C 696.959 337.297 697.756 318.082 699.26 307.951 z"/>
<path transform="translate(0,0)" fill="rgb(35,54,66)" d="M 726.033 408.169 C 732.997 408.838 755.075 429.231 755.394 436.484 C 753.517 439.036 754.746 438.212 751.469 438.852 C 742.865 436.515 736.205 425.257 728.736 421.909 C 723.838 416.804 722.871 414.594 726.033 408.169 z"/>
<path transform="translate(0,0)" fill="rgb(33,39,45)" d="M 673.647 407.681 L 676.155 409.967 C 676.612 411.829 677.381 413.385 676.174 415.052 C 672.627 419.953 656.726 437.18 651.705 438.853 C 649.897 437.749 649.503 437.292 647.974 435.88 L 647.916 433.181 C 652.018 424.658 665.589 412.467 673.647 407.681 z"/>
<path transform="translate(0,0)" fill="rgb(35,54,66)" d="M 750.039 329.627 C 752.551 330.317 752.624 330.488 754.743 331.832 L 755.297 334.389 C 753.04 341.668 739.088 353.675 732.917 359.568 C 729.507 356.962 729.294 357.609 727.799 353.896 C 729.167 346.317 744.041 334.928 750.039 329.627 z"/>
<path transform="translate(0,0)" fill="rgb(33,39,45)" d="M 636.668 378.537 C 643.465 378.197 662.947 375.367 666.629 381.208 C 666.314 384.292 666.241 384.366 664.421 386.822 L 660.25 387.254 C 651.804 387.137 637.416 389.245 630.957 385.197 C 629.372 382.008 629.647 383.648 630.135 380.097 C 632.949 378.067 632.512 378.739 636.668 378.537 z"/>
<path transform="translate(0,0)" fill="rgb(35,54,66)" d="M 651.701 328.288 C 659.119 331.555 672.712 346.193 676.534 353.516 C 677.403 355.181 675.828 357.492 675.098 359.032 C 667.553 355.189 653.455 342.199 648.501 335.52 C 648.567 331.566 649.193 331.916 651.701 328.288 z"/>
<path transform="translate(0,0)" fill="rgb(33,39,45)" d="M 739.457 379.699 C 748.436 379.905 765.306 378.073 773.505 381.209 C 775.158 381.842 775.145 385.356 775.437 387.491 C 766.219 387.787 749.706 388.527 741.077 387.698 C 739.357 385.119 739.761 383.161 739.457 379.699 z"/>
</svg>