<svg version="1.1" xmlns="http://www.w3.org/2000/svg" style="display: block;" viewBox="0 0 1648 1584" width="412" height="396" preserveAspectRatio="none">
<path transform="translate(0,0)" fill="rgb(231,231,228)" d="M 884.773 263.878 C 888.484 243.448 902.551 224.76 919.387 213.016 C 939.182 199.231 963.646 193.885 987.387 198.155 C 1025.87 205.171 1057.06 235.927 1060.77 276.289 C 1061.33 282.361 1061.11 288.684 1061.63 294.757 L 1062.47 295.413 C 1068.36 299.896 1078.75 304.128 1085.73 307.891 C 1197.05 367.902 1272.17 484.236 1292.42 607.898 C 1293.31 613.333 1293.3 622.519 1294.96 627.345 C 1317.2 645.821 1367.49 641.362 1357.35 689.541 C 1350.12 723.884 1344.84 759.743 1335.85 793.803 C 1326.22 828.288 1283.14 810.726 1263.83 812.351 C 1265.63 830.152 1276.09 833.303 1254.91 848.871 C 1242.62 857.91 1233.23 865.425 1218.64 871.315 C 1211.46 875.89 1207.68 878.278 1201.89 884.569 C 1204.4 885.8 1205.2 885.892 1207.89 886.557 C 1256.83 898.634 1286.71 948.516 1274.62 997.379 C 1262.78 1045.25 1212.91 1076.79 1165 1064.7 C 1140.17 1058.4 1118.91 1042.4 1106 1020.28 C 1103.33 1015.71 1100.67 1010.05 1098.36 1005.24 C 1086.74 1019.21 1072.1 1027.24 1053.98 1029 C 1024.18 1031.91 1004.7 1019.15 987.364 996.101 C 976.589 1017.29 983.737 1027.21 954.24 1033.99 C 951.797 1041.67 948.016 1048.5 944.406 1055.57 C 919.464 1104.35 911.958 1115.91 858.4 1108.77 C 849.494 1108.9 837.39 1105.04 826.927 1105.12 C 799.194 1099.68 769.302 1092.96 742.454 1084.56 C 729.297 1080.44 714.475 1073.05 701.212 1068.78 L 700.545 1068.57 C 693.49 1065.22 682.279 1060.09 676.685 1055.2 C 663.902 1040 663.377 1032.96 663.677 1012.86 C 663.947 994.828 663.023 977.27 666.338 959.376 C 661.131 954.835 652.794 947.491 649.356 941.636 C 649.986 926.5 662.255 874.762 668.237 861.189 C 666.229 861.339 660.399 857.573 658.26 856.371 C 644.325 848.677 630.889 840.113 618.03 830.731 C 611.064 825.567 604.907 819.971 597.965 814.89 C 593.454 811.893 587.579 805.731 583.472 801.705 C 556.126 774.71 534.026 740.577 523.022 703.606 C 519.049 690.256 518.392 674.992 514.286 661.924 C 499.892 657.895 467.846 649.494 459.818 637.547 C 448.57 620.807 463.669 571.546 466.794 553.159 C 469.995 534.32 474.656 498.425 488.325 487.048 C 498.214 478.817 542.692 478.825 555.173 481.084 C 570.933 455.592 584.061 434.317 603.428 411.041 C 661.188 342.566 739.177 294.175 826.179 272.828 C 839.002 269.783 872.329 264.019 884.773 263.878 z"/>
<path transform="translate(0,0)" fill="rgb(36,35,36)" d="M 668.237 861.189 C 675.967 866.592 694.73 875.029 703.892 878.824 C 783.25 911.691 871.682 931.137 957.449 937.526 C 969.763 938.443 989.233 939.673 1001.09 938.768 C 1002.05 942.473 988.947 987.22 987.364 996.101 C 976.589 1017.29 983.737 1027.21 954.24 1033.99 C 951.797 1041.67 948.016 1048.5 944.406 1055.57 C 919.464 1104.35 911.958 1115.91 858.4 1108.77 C 849.494 1108.9 837.39 1105.04 826.927 1105.12 C 799.194 1099.68 769.302 1092.96 742.454 1084.56 C 729.297 1080.44 714.475 1073.05 701.212 1068.78 L 700.545 1068.57 C 693.49 1065.22 682.279 1060.09 676.685 1055.2 C 663.902 1040 663.377 1032.96 663.677 1012.86 C 663.947 994.828 663.023 977.27 666.338 959.376 C 661.131 954.835 652.794 947.491 649.356 941.636 C 649.986 926.5 662.255 874.762 668.237 861.189 z"/>
<path transform="translate(0,0)" fill="rgb(231,231,228)" d="M 666.338 959.376 C 689.387 964.145 719.266 972.914 742.448 978.992 L 882.573 1015.66 C 903.136 1021.06 934.032 1030.21 954.24 1033.99 C 951.797 1041.67 948.016 1048.5 944.406 1055.57 C 919.464 1104.35 911.958 1115.91 858.4 1108.77 C 849.494 1108.9 837.39 1105.04 826.927 1105.12 C 799.194 1099.68 769.302 1092.96 742.454 1084.56 C 729.297 1080.44 714.475 1073.05 701.212 1068.78 L 700.545 1068.57 C 693.49 1065.22 682.279 1060.09 676.685 1055.2 C 663.902 1040 663.377 1032.96 663.677 1012.86 C 663.947 994.828 663.023 977.27 666.338 959.376 z"/>
<path transform="translate(0,0)" fill="rgb(214,213,212)" d="M 1001.09 938.768 C 1001.74 938.581 1001.3 938.663 1002.19 938.673 C 1054.15 939.274 1111.46 930.735 1159 908.958 C 1167.11 905.114 1175.15 901.068 1182.88 896.497 C 1189.32 892.685 1195.13 887.82 1201.89 884.569 C 1204.4 885.8 1205.2 885.892 1207.89 886.557 C 1256.83 898.634 1286.71 948.516 1274.62 997.379 C 1262.78 1045.25 1212.91 1076.79 1165 1064.7 C 1140.17 1058.4 1118.91 1042.4 1106 1020.28 C 1103.33 1015.71 1100.67 1010.05 1098.36 1005.24 C 1086.74 1019.21 1072.1 1027.24 1053.98 1029 C 1024.18 1031.91 1004.7 1019.15 987.364 996.101 C 988.947 987.22 1002.05 942.473 1001.09 938.768 z"/>
<path transform="translate(0,0)" fill="rgb(214,213,212)" d="M 514.286 661.924 C 499.892 657.895 467.846 649.494 459.818 637.547 C 448.57 620.807 463.669 571.546 466.794 553.159 C 469.995 534.32 474.656 498.425 488.325 487.048 C 498.214 478.817 542.692 478.825 555.173 481.084 C 549.926 489.175 546.928 498.579 543.168 507.24 C 523.571 552.38 512.783 600.954 514.494 650.283 C 514.622 653.984 514.739 658.234 514.286 661.924 z"/>
<path transform="translate(0,0)" fill="rgb(214,213,212)" d="M 1294.96 627.345 C 1317.2 645.821 1367.49 641.362 1357.35 689.541 C 1350.12 723.884 1344.84 759.743 1335.85 793.803 C 1326.22 828.288 1283.14 810.726 1263.83 812.351 C 1267.6 800.727 1274.83 787.645 1279.34 773.712 C 1294.3 727.523 1299.78 675.561 1294.96 627.345 z"/>
<path transform="translate(0,0)" fill="rgb(36,35,36)" d="M 1263.83 812.351 C 1265.63 830.152 1276.09 833.303 1254.91 848.871 C 1242.62 857.91 1233.23 865.425 1218.64 871.315 C 1221.37 866.568 1237.46 850.422 1242.47 843.954 C 1248.22 836.529 1258.78 817.373 1263.83 812.351 z"/>
<path transform="translate(0,0)" fill="rgb(36,35,36)" d="M 891.115 354.417 C 910.681 353.234 930.316 353.958 949.741 356.58 C 1113.36 379.669 1228.46 546.695 1205.67 707.719 C 1184 860.87 1053.65 870.556 928.761 851.564 C 841.684 839.776 722.213 813.853 653.516 757.767 C 561.062 682.285 605.165 544.061 672.296 466.289 C 727.348 401.247 806.153 360.958 891.115 354.417 z"/>
<path transform="translate(0,0)" fill="rgb(231,231,228)" d="M 1001.59 622.18 C 1049.6 616.854 1071.4 711.923 1004.36 722.847 C 946.836 723.931 943.153 643.406 1001.59 622.18 z"/>
<path transform="translate(0,0)" fill="rgb(231,231,228)" d="M 792.053 579.087 C 837.144 575.92 857.632 672.924 790.701 679.116 C 782.295 678.732 775.873 677.377 768.394 673.163 C 758.645 667.715 751.485 658.588 748.515 647.822 C 740.357 618.34 763.495 586.466 792.053 579.087 z"/>
<path transform="translate(0,0)" fill="rgb(231,231,228)" d="M 853.129 685.364 C 855.114 685.825 860.39 689.105 861.805 690.032 C 882.862 703.835 897.574 706.273 921.726 700.495 C 923.934 699.966 924.711 701.432 926.032 702.985 C 926.744 707.705 927.168 706.307 925.625 710.328 C 895.356 721.546 872.281 710.161 847.384 693.901 C 849.524 691.099 851.234 688.325 853.129 685.364 z"/>
<path transform="translate(0,0)" fill="rgb(231,231,228)" d="M 754.61 1340.71 C 738.117 1333.92 723.451 1323.92 715.881 1307.23 C 701.887 1276.33 720.659 1249.24 731.14 1221.72 C 751.572 1168.07 776.219 1146.79 833.226 1169.67 L 859.873 1187.26 C 865.261 1193.68 872.175 1201 876.82 1207.59 C 891.096 1227.97 897.771 1252.71 895.683 1277.51 C 893.978 1297.39 887.3 1312.86 879.096 1330.63 C 877.965 1333.08 872.497 1344.52 872.082 1346.21 C 876.725 1350.24 880.499 1355.03 884.014 1360.03 L 885.001 1370.86 C 880.887 1377.46 878.269 1380 872.019 1384.33 C 850.678 1384.58 827.375 1370.95 807.924 1362.31 C 790.354 1354.63 772.576 1347.42 754.61 1340.71 z"/>
<path transform="translate(0,0)" fill="rgb(36,35,36)" d="M 754.61 1340.71 C 766.077 1312.08 793.725 1311.67 817.537 1322.99 C 824.022 1326.07 868.48 1346.05 872.082 1346.21 C 876.725 1350.24 880.499 1355.03 884.014 1360.03 L 885.001 1370.86 C 880.887 1377.46 878.269 1380 872.019 1384.33 C 850.678 1384.58 827.375 1370.95 807.924 1362.31 C 790.354 1354.63 772.576 1347.42 754.61 1340.71 z"/>
<path transform="translate(0,0)" fill="rgb(231,231,228)" d="M 491.934 1299.99 C 489.812 1298.47 487.728 1296.88 485.684 1295.25 C 447.099 1264.05 463.249 1220.61 490.806 1190.59 C 498.201 1182.53 505.216 1171.55 512.612 1162.89 C 524.899 1148.51 537.355 1136.72 557.333 1135.23 C 582.569 1133.35 596.249 1143.31 614.396 1158.39 C 620.701 1164.9 626.671 1170.81 632.207 1178.01 C 635.78 1185.77 640.051 1192.98 643.123 1200.71 C 652.499 1224.58 652.908 1251.05 644.274 1275.2 C 635.035 1300.44 620.274 1315.72 604.249 1335.97 C 614.23 1346.7 613.172 1355.22 606.724 1366.96 C 599.989 1371.31 591.862 1374.4 584.491 1369.94 C 570.819 1361.68 557.542 1350.76 545.048 1340.83 C 527.666 1326.81 509.956 1313.19 491.934 1299.99 z"/>
<path transform="translate(0,0)" fill="rgb(36,35,36)" d="M 491.934 1299.99 C 516.563 1268.87 548.198 1289.69 570.073 1309.44 C 573.511 1312.54 601.418 1334.9 604.249 1335.97 C 614.23 1346.7 613.172 1355.22 606.724 1366.96 C 599.989 1371.31 591.862 1374.4 584.491 1369.94 C 570.819 1361.68 557.542 1350.76 545.048 1340.83 C 527.666 1326.81 509.956 1313.19 491.934 1299.99 z"/>
<path transform="translate(0,0)" fill="rgb(231,231,228)" d="M 365.38 938.536 C 363.905 922.605 362.711 909.316 366.721 893.411 C 372.803 870.074 388.018 850.166 408.938 838.169 C 430.02 825.942 454.308 822.173 477.876 828.657 C 502.407 835.151 523.29 851.25 535.812 873.321 C 538.658 880.273 542.305 888.504 544.339 895.614 C 560.001 969.526 491.588 1025.97 420.948 1002.55 C 411.081 1008.45 402.074 1025.4 390.5 1027.15 C 373.746 1029.69 366.76 1013.14 364.681 1000.12 C 302.202 981.112 358.136 956.614 365.38 938.536 z"/>
<path transform="translate(0,0)" fill="rgb(36,35,36)" d="M 365.38 938.536 C 373.384 965.07 386.836 984.746 411.759 998.203 C 414.735 999.828 417.803 1001.28 420.948 1002.55 C 411.081 1008.45 402.074 1025.4 390.5 1027.15 C 373.746 1029.69 366.76 1013.14 364.681 1000.12 C 302.202 981.112 358.136 956.614 365.38 938.536 z"/>
<path transform="translate(0,0)" fill="rgb(214,213,212)" d="M 597.965 814.89 C 604.907 819.971 611.064 825.567 618.03 830.731 C 630.889 840.113 644.325 848.677 658.26 856.371 C 660.399 857.573 666.229 861.339 668.237 861.189 C 662.255 874.762 649.986 926.5 649.356 941.636 C 607.362 946.611 580.539 931.795 564.751 892.357 C 557.906 891.698 550.294 891.664 544.339 895.614 C 542.305 888.504 538.658 880.273 535.812 873.321 C 543.779 867.907 554.219 866.007 563.674 863.482 C 571.923 835.87 578.309 832.602 597.965 814.89 z"/>
<path transform="translate(0,0)" fill="rgb(36,35,36)" d="M 535.812 873.321 C 543.779 867.907 554.219 866.007 563.674 863.482 C 563.51 871.093 563.252 884.93 564.751 892.357 C 557.906 891.698 550.294 891.664 544.339 895.614 C 542.305 888.504 538.658 880.273 535.812 873.321 z"/>
<path transform="translate(0,0)" fill="rgb(36,35,36)" d="M 1312.28 843.882 C 1316.96 843.76 1322.98 845.892 1326.88 848.466 C 1336.55 854.843 1334.28 865.947 1336.41 875.327 C 1342.46 883.557 1353.2 877.589 1359.17 892.459 C 1361.2 897.415 1361.11 902.983 1358.93 907.873 C 1354.15 918.509 1320.87 940.539 1310.47 944.213 C 1304.96 944.243 1299.3 943.164 1294.83 940.51 C 1285.37 934.899 1289.47 923.368 1287.87 914.94 C 1286.89 909.809 1276.95 909.87 1272.95 907.397 C 1266.09 903.163 1263.5 895.478 1261.22 888.237 C 1262.54 884.869 1263.61 881.298 1264.71 877.844 C 1272.59 869.722 1301.7 849.905 1312.28 843.882 z"/>
<path transform="translate(0,0)" fill="rgb(36,35,36)" d="M 676.685 1055.2 C 682.279 1060.09 693.49 1065.22 700.545 1068.57 C 688.436 1093.07 676.517 1114.71 661.5 1137.54 C 655.734 1146.31 635.605 1171.06 632.207 1178.01 C 626.671 1170.81 620.701 1164.9 614.396 1158.39 C 626.288 1149.61 674.986 1069.92 676.685 1055.2 z"/>
<path transform="translate(0,0)" fill="rgb(36,35,36)" d="M 826.927 1105.12 C 837.39 1105.04 849.494 1108.9 858.4 1108.77 C 859.95 1121.52 863.898 1139.98 863.495 1152.28 C 863.1 1164.36 859.39 1174.03 859.873 1187.26 L 833.226 1169.67 L 835.307 1168.67 C 839.777 1153.91 834.603 1118.13 826.927 1105.12 z"/>
</svg>