<svg version="1.1" xmlns="http://www.w3.org/2000/svg" style="display: block;" viewBox="0 0 1359 2048" width="442" height="666" preserveAspectRatio="none">
<defs>
	<linearGradient id="Gradient1" gradientUnits="userSpaceOnUse" x1="758.713" y1="582.462" x2="772.516" y2="547.996">
		<stop class="stop0" offset="0" stop-opacity="1" stop-color="rgb(0,0,0)"/>
		<stop class="stop1" offset="1" stop-opacity="1" stop-color="rgb(32,38,28)"/>
	</linearGradient>
	<linearGradient id="Gradient2" gradientUnits="userSpaceOnUse" x1="814.429" y1="499.275" x2="746.98" y2="425.173">
		<stop class="stop0" offset="0" stop-opacity="1" stop-color="rgb(125,175,82)"/>
		<stop class="stop1" offset="1" stop-opacity="1" stop-color="rgb(156,207,112)"/>
	</linearGradient>
	<linearGradient id="Gradient3" gradientUnits="userSpaceOnUse" x1="352.819" y1="732.856" x2="351.118" y2="849.085">
		<stop class="stop0" offset="0" stop-opacity="1" stop-color="rgb(10,11,14)"/>
		<stop class="stop1" offset="1" stop-opacity="1" stop-color="rgb(36,41,34)"/>
	</linearGradient>
	<linearGradient id="Gradient4" gradientUnits="userSpaceOnUse" x1="865.843" y1="1210.23" x2="833.336" y2="1295.56">
		<stop class="stop0" offset="0" stop-opacity="1" stop-color="rgb(0,0,0)"/>
		<stop class="stop1" offset="1" stop-opacity="1" stop-color="rgb(37,36,37)"/>
	</linearGradient>
	<linearGradient id="Gradient5" gradientUnits="userSpaceOnUse" x1="951.119" y1="1374.98" x2="870.797" y2="1411.06">
		<stop class="stop0" offset="0" stop-opacity="1" stop-color="rgb(3,4,4)"/>
		<stop class="stop1" offset="1" stop-opacity="1" stop-color="rgb(38,37,38)"/>
	</linearGradient>
	<linearGradient id="Gradient6" gradientUnits="userSpaceOnUse" x1="794.128" y1="1441.45" x2="812.664" y2="1349.54">
		<stop class="stop0" offset="0" stop-opacity="1" stop-color="rgb(5,5,5)"/>
		<stop class="stop1" offset="1" stop-opacity="1" stop-color="rgb(38,37,38)"/>
	</linearGradient>
</defs>
<path transform="translate(0,0)" fill="rgb(254,254,254)" d="M 1110.86 127.537 C 1115.42 127.32 1119.99 127.16 1124.56 127.056 C 1156.86 126.443 1187.9 134.464 1211.35 157.617 C 1235.89 181.852 1246.8 212.082 1246.94 246.145 C 1247.24 317.146 1246.66 388.08 1247 459.061 L 1248.22 1309.42 L 1248.14 1659.02 C 1248.2 1697.25 1248.07 1735.48 1247.74 1773.71 C 1247.54 1794.29 1248.06 1816.09 1245.9 1836.72 C 1241.3 1884.3 1203.27 1929.96 1154.77 1936.29 C 1128.31 1939.74 1095.38 1938.01 1068.16 1938.07 L 891.998 1938.04 L 237.25 1938.68 C 198.169 1938.78 171.001 1936.14 141.165 1907.82 C 117.127 1885.01 104.777 1853.27 104.701 1820.47 C 104.613 1782.94 104.646 1745.13 104.628 1707.5 L 104.568 1481.41 L 104.63 792.581 L 104.636 408.12 L 104.507 294.954 C 104.434 274.068 103.479 250.014 105.229 229.476 C 109.396 180.561 152.789 131.829 202.91 128.7 C 230.359 126.987 260.568 127.996 288.551 127.972 L 468.061 127.781 L 831.736 128.018 C 924.777 128.78 1017.82 128.619 1110.86 127.537 z"/>
<path transform="translate(0,0)" fill="rgb(138,191,94)" d="M 161.596 1202.68 L 161.816 527.564 L 161.613 354.936 L 161.182 302.077 C 161.058 286.225 160.286 267.766 164.022 252.632 C 171.498 222.352 202.912 189.924 235.068 187.326 C 267.042 184.742 301.569 185.954 333.896 186.094 L 499.143 185.986 L 1087.14 186.187 C 1115.83 186.339 1140.92 189.45 1162.4 211.289 C 1176.04 225.15 1186.28 243.394 1188.38 263.1 C 1190.69 295.594 1189.34 329.488 1189.21 362.058 L 1189.21 543.271 L 1189.12 1203.09 L 1188.81 1617.45 L 1189.14 1738.75 C 1189.18 1754.99 1190.09 1791.55 1187.86 1806.48 C 1185.24 1823.95 1177.09 1840.12 1164.6 1852.62 C 1138.84 1878.82 1116.71 1880.78 1082.91 1881 L 493.738 1880.75 L 326.652 1880.34 L 274.061 1880.37 C 262.151 1880.38 248.703 1880.85 237.225 1879.28 C 195.311 1873.14 164.166 1836.47 162.295 1794.61 C 161.324 1772.9 161.527 1752.11 161.678 1730.52 L 161.975 1621.48 L 161.596 1202.68 z"/>
<path transform="translate(0,0)" fill="rgb(254,254,254)" d="M 215.007 1203.09 C 215.165 1178.26 220.423 1161.6 238.509 1143.13 C 246.598 1134.86 262.327 1125.24 274.088 1124.22 C 302.422 1121.78 333.637 1122.49 362.18 1122.42 L 526.664 1122.11 L 828.23 1122.55 C 903.396 1122.35 978.504 1121.47 1053.68 1122.21 C 1104.39 1122.71 1134.76 1151.79 1135.22 1203.32 C 1152.46 1203.78 1171.75 1203.24 1189.12 1203.09 L 1188.81 1617.45 L 1189.14 1738.75 C 1189.18 1754.99 1190.09 1791.55 1187.86 1806.48 C 1185.24 1823.95 1177.09 1840.12 1164.6 1852.62 C 1138.84 1878.82 1116.71 1880.78 1082.91 1881 L 493.738 1880.75 L 326.652 1880.34 L 274.061 1880.37 C 262.151 1880.38 248.703 1880.85 237.225 1879.28 C 195.311 1873.14 164.166 1836.47 162.295 1794.61 C 161.324 1772.9 161.527 1752.11 161.678 1730.52 L 161.975 1621.48 L 161.596 1202.68 C 179.2 1202.54 197.487 1202.03 215.007 1203.09 z"/>
<path transform="translate(0,0)" fill="rgb(122,98,165)" d="M 161.596 1202.68 C 179.2 1202.54 197.487 1202.03 215.007 1203.09 L 215.094 1594.35 L 215.081 1701.91 C 215.078 1739.26 209.4 1777.31 239.523 1805.12 C 250.759 1815.49 264.431 1823.82 280.309 1825.51 C 304.408 1826.75 330.822 1825.59 355.146 1825.64 C 415.257 1825.94 475.37 1825.92 535.481 1825.6 L 914.452 1825.86 C 959.772 1826.15 1005.09 1826.13 1050.41 1825.8 C 1077.96 1825.33 1094.36 1823.12 1115.06 1801.88 C 1125.17 1791.53 1131.8 1778.28 1134.02 1763.98 C 1136.06 1750.92 1135.19 1718.73 1135.14 1704.24 L 1135.06 1600.6 C 1135.07 1468.79 1133.84 1335.06 1135.22 1203.32 C 1152.46 1203.78 1171.75 1203.24 1189.12 1203.09 L 1188.81 1617.45 L 1189.14 1738.75 C 1189.18 1754.99 1190.09 1791.55 1187.86 1806.48 C 1185.24 1823.95 1177.09 1840.12 1164.6 1852.62 C 1138.84 1878.82 1116.71 1880.78 1082.91 1881 L 493.738 1880.75 L 326.652 1880.34 L 274.061 1880.37 C 262.151 1880.38 248.703 1880.85 237.225 1879.28 C 195.311 1873.14 164.166 1836.47 162.295 1794.61 C 161.324 1772.9 161.527 1752.11 161.678 1730.52 L 161.975 1621.48 L 161.596 1202.68 z"/>
<path transform="translate(0,0)" fill="rgb(255,204,18)" d="M 409.808 1634.3 C 447.357 1632.46 487.802 1634.19 525.561 1634.09 C 547.036 1634.04 552.081 1646.66 551.891 1666.06 C 551.553 1700.66 552.645 1736.61 551.51 1771.34 C 551.091 1785.1 545.326 1791.52 532.48 1794.89 C 510.473 1795.95 488.2 1795.36 466.16 1795.38 C 449.611 1795.4 432.449 1796.31 415.981 1795.06 C 411.034 1794.69 404.865 1794.04 400.397 1791.69 C 395.755 1789.25 393.124 1784.61 391.627 1779.76 C 387.855 1767.52 388.582 1676.43 389.993 1659.44 C 390.38 1654.8 390.841 1649.25 393.241 1645.13 C 397.233 1638.28 402.601 1636.25 409.808 1634.3 z"/>
<path transform="translate(0,0)" fill="rgb(254,254,254)" d="M 457.815 1662.15 C 459.042 1662.43 460.48 1663.03 461.69 1663.48 C 464.658 1669.17 461.122 1668.32 463.544 1673.59 C 466.379 1675.15 464.938 1674.98 467.99 1674.28 C 471.19 1671.41 472.799 1666.49 474.549 1662.39 L 475.955 1662.09 C 478.413 1666.54 478 1668.88 478.086 1674.01 C 484.978 1676.15 487.525 1677.08 493.748 1680.63 C 508.688 1704.73 486.891 1706.08 487.623 1713.47 C 507.135 1718.13 507.422 1743.24 488.193 1752.88 C 471.326 1755.61 480.646 1762.31 475.602 1766.84 L 473.615 1766.61 C 470.161 1761.94 473.728 1757.22 468.477 1754.62 C 458.984 1755.32 465.935 1762.35 460.643 1766.99 L 457.806 1766.55 C 455.861 1764.16 456.183 1760.25 456.007 1756.9 C 452.996 1752.68 449.085 1756.68 445.303 1750.99 C 444.354 1742.17 443.867 1683.59 445.719 1677.09 C 448.194 1675.02 451.183 1675.09 454.539 1674.67 C 456.541 1672.66 456.156 1667.08 457.815 1662.15 z"/>
<path transform="translate(0,0)" fill="rgb(255,204,18)" d="M 456.406 1718.09 C 466.575 1717.9 478.395 1717.16 487.2 1723.21 C 493.887 1727.81 490.986 1736.75 486.701 1741.96 C 477.565 1746.64 466.696 1745.5 456.109 1745.73 C 456.453 1736.75 456.354 1727.13 456.406 1718.09 z"/>
<path transform="translate(0,0)" fill="rgb(255,204,18)" d="M 456.613 1683.68 C 468.426 1683.78 501.11 1685.26 482.388 1705.57 C 475.672 1709.41 464.291 1708.51 456.152 1708.64 L 456.613 1683.68 z"/>
<path transform="translate(0,0)" fill="rgb(9,9,9)" d="M 932.555 1643.29 C 984.914 1640.76 980.486 1714.42 956.721 1743.05 C 944.375 1757.93 936.409 1763.02 917.237 1765.78 C 909.599 1766.37 896.986 1763.13 891.031 1758.13 C 861.33 1733.22 877.176 1672.71 905.706 1652.8 C 914.718 1646.51 921.774 1644.49 932.555 1643.29 z"/>
<path transform="translate(0,0)" fill="rgb(254,254,254)" d="M 928.709 1668.89 C 955.928 1673.8 944.559 1728.92 921.591 1739.61 C 914.584 1738.93 909.243 1736.64 907.01 1729.29 C 901.172 1710.08 908.058 1676.65 928.709 1668.89 z"/>
<path transform="translate(0,0)" fill="rgb(9,9,9)" d="M 832.522 1643.28 C 884.694 1641.06 880.266 1713.77 857.218 1742.23 C 844.699 1757.69 836.658 1762.9 817.238 1765.76 C 754.92 1770.74 763.201 1651.13 832.522 1643.28 z"/>
<path transform="translate(0,0)" fill="rgb(254,254,254)" d="M 828.615 1669 C 855.902 1673.36 844.528 1730.29 821.064 1739.59 C 792.95 1737.01 804.165 1676.88 828.615 1669 z"/>
<path transform="translate(0,0)" fill="rgb(9,9,9)" d="M 729.291 1643.35 C 768.746 1641.65 779.772 1674.92 751.982 1699.31 C 767.751 1708.92 769.174 1725.63 760.464 1740.95 C 742.545 1772.47 683.901 1777.49 675.066 1735.64 C 674.372 1732.35 673.4 1727.66 675.231 1724.68 L 677.75 1724.21 L 704.493 1724.19 C 705.528 1742.28 723.529 1745.46 732.09 1733.7 C 747.786 1712.15 724.992 1713.53 718.899 1709.3 C 718.324 1705.05 720.086 1696.06 720.804 1691.44 C 758.258 1686.64 727.529 1647.51 714.733 1680.17 L 687.795 1680.12 C 696.066 1658.49 705.831 1647.16 729.291 1643.35 z"/>
<path transform="translate(0,0)" fill="rgb(9,9,9)" d="M 903.993 1484.02 C 911.485 1485.08 920.936 1484.73 928.629 1484.71 C 928.348 1514.63 929.359 1546.74 929.659 1576.86 C 923.575 1577.02 917.349 1577.04 911.251 1577.12 C 910.723 1560.41 910.772 1543.69 911.399 1526.98 L 910.257 1525.98 C 905.93 1540.57 900.625 1557.22 894.713 1571.34 C 893.164 1575.04 891.161 1577.06 887.149 1575.83 C 881.632 1570.21 873.026 1536.01 868.91 1524.85 C 868.26 1541.97 869.332 1558.95 868.339 1576.52 C 861.968 1577.02 855.046 1577.15 848.618 1577.4 C 848.587 1547.18 849.955 1515.39 850.137 1484.69 C 858.37 1484.96 865.975 1484.77 874.198 1484.57 L 875.295 1485.24 C 881.242 1503.74 884.688 1518.55 888.81 1537.4 C 893.781 1519.58 898.842 1501.79 903.993 1484.02 z"/>
<path transform="translate(0,0)" fill="rgb(9,9,9)" d="M 414.419 1346.9 L 438.398 1348.02 C 437.156 1378.76 439.239 1410.78 438.929 1441.94 L 419.855 1441.81 L 420.492 1403.51 C 420.99 1399.04 420.935 1394.04 420.993 1389.5 C 416.681 1403.28 411.901 1418.74 405.961 1431.94 C 404.355 1435.52 402.452 1437.54 398.44 1437.55 C 391.978 1433.22 382.449 1397.79 378.283 1386.63 C 377.751 1402.99 379.156 1423.25 378.998 1440.7 C 372.789 1441.13 365.987 1441.01 359.72 1441.03 C 361.08 1409.82 361.556 1378.6 363.007 1347.12 C 370.921 1347.1 378.835 1347.13 386.748 1347.21 C 391.59 1363.99 395.96 1380.91 399.853 1397.94 C 404.981 1381 409.837 1363.99 414.419 1346.9 z"/>
<path transform="translate(0,0)" fill="rgb(9,9,9)" d="M 474.795 1345.43 C 526.826 1338.83 533.095 1423.77 492.147 1442.29 C 466.202 1446.22 451.621 1428.33 449.716 1404.02 C 447.868 1380.45 448.361 1354.19 474.795 1345.43 z"/>
<path transform="translate(0,0)" fill="rgb(254,254,254)" d="M 480.026 1364.82 C 503.45 1364.71 503.289 1413.26 486.08 1424.09 C 464.918 1423.16 465.703 1386.8 472.733 1373.24 C 474.554 1369.73 477.156 1367.42 480.026 1364.82 z"/>
<path transform="translate(0,0)" fill="rgb(9,9,9)" d="M 721.509 1346.17 C 763.194 1342.43 769.421 1390.79 758.432 1421.16 C 754.835 1431.1 746.962 1437.95 737.276 1441.84 C 702.267 1447.37 694.02 1411.22 695.696 1384.11 C 696.903 1364.59 701.385 1351.6 721.509 1346.17 z"/>
<path transform="translate(0,0)" fill="rgb(254,254,254)" d="M 725.445 1365.71 C 747.285 1364.61 745.881 1409.97 732.038 1423.48 C 710.605 1425.89 711.38 1379.53 725.445 1365.71 z"/>
<path transform="translate(0,0)" fill="url(#Gradient6)" d="M 774.319 1345.65 C 800.861 1348.24 835.432 1339.59 831.907 1381.77 C 831.012 1392.48 827.871 1395.87 819.956 1402.65 C 825.84 1415.53 831.477 1427.52 835.972 1440.98 C 832.083 1441.17 816.462 1442.47 814.049 1441.05 C 811.865 1434.79 802.314 1411.28 797.818 1407.99 L 796.35 1408.48 C 793.305 1414.55 794.443 1433.52 794.562 1441.38 C 787.68 1440.97 780.134 1440.95 773.192 1440.79 C 773.148 1408.99 773.922 1377.44 774.319 1345.65 z"/>
<path transform="translate(0,0)" fill="rgb(254,254,254)" d="M 794.863 1364.5 C 814.569 1363.52 815.068 1369.63 811.434 1388.17 C 806.934 1389.08 800.461 1389.2 795.713 1389.44 C 794.989 1381.15 794.705 1372.82 794.863 1364.5 z"/>
<path transform="translate(0,0)" fill="rgb(9,9,9)" d="M 529.105 1346.85 C 535.456 1347.1 542.557 1346.98 548.973 1347.02 C 554.982 1357.18 564.209 1383.91 569.331 1396.33 C 570.338 1379.93 571.255 1363.53 572.081 1347.13 L 590.109 1347.27 C 592.64 1371.22 591.188 1415.48 590.971 1440.95 C 585.031 1441.29 579.013 1441.29 573.057 1441.36 C 563.862 1423.83 556.985 1409.45 549.319 1391.08 C 549.357 1407.75 549.263 1424.42 549.036 1441.09 C 542.474 1441.04 535.712 1440.83 529.135 1440.7 C 528.385 1410.57 529.066 1377.22 529.105 1346.85 z"/>
<path transform="translate(0,0)" fill="rgb(9,9,9)" d="M 525.265 1208.41 C 547.699 1207.62 584.73 1203.5 584.981 1235.86 C 585.088 1249.64 581.338 1255.75 571.962 1265.37 C 575.217 1277.64 581.219 1290.44 586.424 1302.12 C 580.715 1301.99 568.474 1302.72 563.837 1301.77 C 561.691 1293.89 556.067 1271.53 548.686 1268.16 L 547.496 1269.12 C 546.387 1274.08 546.403 1295.15 546.174 1301.77 C 539.097 1301.48 531.823 1301.67 524.728 1301.75 C 524.289 1278.92 526.351 1255.84 525.506 1232.99 C 525.202 1224.78 524.878 1216.62 525.265 1208.41 z"/>
<path transform="translate(0,0)" fill="rgb(254,254,254)" d="M 546.607 1226.77 C 551.817 1227.31 557.609 1228.44 562.82 1229.33 C 562.737 1236.61 562.614 1241.09 561.679 1248.42 C 557.6 1249.67 550.913 1250.5 546.483 1251.19 L 546.607 1226.77 z"/>
<path transform="translate(0,0)" fill="url(#Gradient5)" d="M 922.053 1346.55 L 942.311 1346.1 L 942.106 1440.53 C 935.316 1440.72 929.462 1440.47 922.714 1440.16 C 913.146 1421.35 907.978 1403.35 898.057 1384.66 C 899.215 1397.47 898.868 1420.65 899.064 1434.25 C 899.21 1436.58 899.491 1437.4 898.268 1439.39 C 893.343 1441.52 885.97 1440.43 880.319 1440.19 C 879.276 1410.38 880.118 1376.94 880.246 1346.92 L 900.039 1346.94 C 909.001 1364.7 915.826 1381.79 923.37 1400.19 C 921.879 1382.15 921.084 1364.63 922.053 1346.55 z"/>
<path transform="translate(0,0)" fill="rgb(9,9,9)" d="M 988.989 1344.37 C 1004.27 1345.22 1009.4 1348.97 1017.91 1361.55 C 1012.6 1366.71 1008.45 1371.48 1003.59 1377.03 L 1003.05 1375.64 C 996.165 1358.02 980.804 1362.49 975.699 1377.64 C 972.381 1387.48 974.062 1405.76 978.686 1415.16 C 984.24 1426.45 997.561 1425.27 999.276 1412.29 C 1000.14 1404.28 991.271 1408.68 986.126 1402.3 C 984.895 1396.42 987.578 1391.29 989.921 1385.91 L 1011.25 1385.98 C 1014.13 1385.86 1014.43 1385.83 1017.21 1386.46 C 1021.03 1393.96 1018.14 1422.76 1012.15 1430.34 C 987.843 1461.07 955.945 1434.7 952.956 1402.65 C 950.363 1374.84 957.436 1348.13 988.989 1344.37 z"/>
<path transform="translate(0,0)" fill="rgb(9,9,9)" d="M 614.574 1207 C 622.226 1207.49 628.472 1207.99 636.107 1208.99 C 643.368 1237.96 655.421 1275.4 660.524 1302.98 C 652.457 1302.59 646.067 1302.2 637.969 1302.77 C 637.111 1296.4 637.12 1291.42 635.518 1284.99 C 628.873 1286.11 620.691 1286.68 613.881 1287.33 L 610.077 1303.09 C 601.351 1302.29 596.108 1302.14 587.349 1302.31 C 591.095 1291.44 595.323 1280.89 598.376 1269.83 C 604.035 1249.32 608.109 1227.16 614.574 1207 z"/>
<path transform="translate(0,0)" fill="rgb(254,254,254)" d="M 624.564 1241.71 C 627.68 1244.4 631.413 1263.75 630.301 1268.11 L 628.144 1269.15 C 625.025 1269.18 622.928 1269.63 620.564 1267.81 C 617.809 1261.46 622.605 1249.3 624.564 1241.71 z"/>
<path transform="translate(0,0)" fill="rgb(9,9,9)" d="M 496.857 1483.19 C 498.78 1483.08 500.706 1483.01 502.633 1483 C 514.816 1483.04 520.048 1489.25 527.978 1497.14 C 507.289 1519.25 508.095 1502.17 498.686 1503.57 C 496.05 1506.22 495.716 1507.88 494.379 1511.35 C 496.196 1517.25 509.325 1523.59 514.963 1527.6 C 538.851 1544.58 527.777 1576.52 499.048 1579.66 C 483.844 1579.74 481.152 1577.2 469.996 1568.02 L 480.87 1555.11 C 484.766 1553.73 505.773 1572.29 507.15 1550.97 C 505.821 1547.19 499.389 1542.81 495.772 1541.54 C 465.404 1530.93 461.096 1490.49 496.857 1483.19 z"/>
<path transform="translate(0,0)" fill="rgb(9,9,9)" d="M 728.589 1485.31 C 744.3 1485.91 762.401 1485.47 778.127 1485.07 L 776.789 1503.55 C 767.429 1503.2 758.2 1503.34 748.837 1503.42 C 748.712 1509.39 748.835 1515.59 748.87 1521.57 L 772.912 1522.01 L 772.981 1539.35 L 748.706 1540.09 L 748.761 1556.25 L 749.051 1558.45 C 752.399 1560.92 772.341 1560.18 778.538 1560.33 C 778.867 1566.06 778.547 1572.19 778.371 1577.96 C 762.95 1578.6 743.776 1577.84 728.128 1577.56 C 727.839 1546.81 727.992 1516.05 728.589 1485.31 z"/>
<path transform="translate(0,0)" fill="rgb(9,9,9)" d="M 630.112 1483.31 C 637.425 1483.09 655.183 1486.64 656.189 1496.64 C 656.797 1502.69 649.023 1503.51 645.531 1505.91 C 644.206 1506.81 641.76 1509.83 640.03 1511.36 C 637.962 1507.45 635.559 1503.54 631.469 1501.62 C 625.594 1501.73 623.731 1506.06 623.057 1511.58 C 627.661 1523.61 676.159 1533.06 649.11 1568.98 C 643.212 1576.81 635.82 1578.61 626.649 1579.76 C 611.482 1579.62 607.354 1575.91 597.048 1565.95 L 607.125 1559.14 C 608.376 1555.97 608.797 1554.15 611.203 1551.72 C 620.771 1560.5 630.728 1567.36 634.683 1550.3 C 632.864 1544.31 619.984 1539.93 614.489 1535.86 C 590.232 1517.91 601.288 1487.47 630.112 1483.31 z"/>
<path transform="translate(0,0)" fill="url(#Gradient4)" d="M 848.252 1205.38 C 851.586 1205.18 854.932 1205.38 858.221 1205.96 C 868.971 1207.86 874.444 1214.24 880.432 1222.58 C 877.095 1225.15 868.535 1231.72 865.022 1233.78 C 862.005 1230.77 856.126 1224.21 851.642 1225.19 C 832.031 1229.5 831.321 1270.06 844.547 1281.29 C 855.973 1290.99 860.061 1275.13 867.136 1274.58 L 871.139 1278.25 C 873.759 1281.63 876.252 1283.99 879.28 1286.98 C 853.908 1318.95 822.344 1299.55 816.887 1264.56 C 812.818 1238.46 818.652 1210.55 848.252 1205.38 z"/>
<path transform="translate(0,0)" fill="rgb(9,9,9)" d="M 667.747 1207.97 C 683.816 1208.02 699.885 1207.96 715.953 1207.77 C 715.792 1213.42 715.263 1219.55 714.885 1225.23 C 705.6 1225.3 696.315 1225.43 687.032 1225.62 L 687.121 1245.35 C 695.621 1245.62 704.119 1245.95 712.613 1246.35 C 712.943 1252.06 712.787 1258.45 712.773 1264.22 L 703.774 1264.99 L 687.998 1264.95 C 688.289 1277.99 688.7 1290.6 688.022 1303.64 C 680.951 1303.39 674.78 1302.92 667.769 1302.29 C 666.099 1290.56 667.571 1271.25 667.654 1259.01 C 667.77 1241.99 667.751 1224.99 667.747 1207.97 z"/>
<path transform="translate(0,0)" fill="rgb(9,9,9)" d="M 725.413 1207.91 C 742.227 1208.17 759.044 1208.15 775.857 1207.82 L 774.668 1224.66 C 765.505 1225.68 756.317 1226.47 747.115 1227.04 C 746.719 1233.13 746.682 1239.33 746.57 1245.44 C 754.917 1245.15 761.667 1244.76 769.973 1243.89 C 769.918 1248.18 770.589 1252.51 770.415 1256.75 C 770.121 1263.91 768.593 1263.56 763.073 1264.12 L 746.252 1264.56 L 745.815 1301.78 C 739.465 1301.91 732.642 1301.71 726.253 1301.65 C 726.249 1270.4 725.969 1239.15 725.413 1207.91 z"/>
<path transform="translate(0,0)" fill="rgb(9,9,9)" d="M 537.804 1484.55 L 550.701 1484.12 C 556.616 1497.71 561.385 1507.45 563.751 1522.32 L 579.686 1485.17 C 586.971 1485.24 591.388 1485.31 598.709 1484.37 C 593.982 1496.16 584.771 1520.71 578.88 1530.51 C 572.232 1540.17 574.566 1565.26 574.739 1578.06 L 554.799 1578.04 C 556.752 1544.09 552.97 1533.02 537.629 1502.42 C 535.811 1498.79 530.276 1489.83 530.044 1486.32 C 532.971 1484.11 533.652 1484.77 537.804 1484.55 z"/>
<path transform="translate(0,0)" fill="rgb(9,9,9)" d="M 458.239 1208.26 L 517.017 1207.93 L 516.707 1226.27 C 510.543 1226.3 504.126 1226.54 497.94 1226.68 C 497.12 1244.83 497.939 1268.68 498.044 1287.25 L 498.188 1302.6 C 490.193 1302.85 484.524 1302.63 476.585 1302.18 C 475.858 1278.1 477.723 1252.3 477.08 1227.13 L 458.74 1226.31 L 458.239 1208.26 z"/>
<path transform="translate(0,0)" fill="rgb(9,9,9)" d="M 661.305 1484.69 C 680.85 1484.93 700.397 1484.98 719.943 1484.83 C 719.485 1491.29 718.847 1497.15 718.087 1503.55 C 713.758 1503.87 707.462 1503.6 702.96 1503.54 C 700.654 1520.6 700.901 1540.81 700.759 1558.19 L 700.224 1577.83 L 681.866 1578.04 C 680.84 1553.12 681.147 1528.36 680.041 1503.34 C 672.929 1503.22 665.2 1504.97 660.732 1499.29 C 659.523 1495.08 660.717 1489.2 661.305 1484.69 z"/>
<path transform="translate(0,0)" fill="rgb(9,9,9)" d="M 635.113 1347.01 L 690.086 1346.73 C 690.001 1352.32 689.423 1357.98 688.943 1363.55 C 683.269 1364.59 677.765 1364.98 672.032 1365.48 C 670.598 1385.13 671.154 1406.48 671.378 1426.25 L 671.386 1440.11 L 651.405 1440.55 C 652.221 1419.04 652.668 1386.04 651.317 1364.75 C 645.583 1364.44 639.645 1364.73 633.89 1364.9 C 634.683 1359.09 634.838 1352.89 635.113 1347.01 z"/>
<path transform="translate(0,0)" fill="rgb(9,9,9)" d="M 789.47 1485.9 C 805.17 1485.12 822.86 1485.25 838.731 1485.07 L 837.721 1503.73 C 827.717 1503.99 819.346 1503.98 809.404 1503.26 C 809.067 1509.25 809.175 1515.82 809.151 1521.86 L 834.459 1522.12 L 833.888 1540.14 L 810.041 1540.28 C 810.113 1545.95 810.047 1551.62 809.844 1557.29 L 808.296 1549.06 C 804.899 1548.95 792.636 1548.71 790.359 1550.48 C 789.927 1553.81 789.452 1557.13 788.936 1560.45 C 787.9 1539.5 789.136 1507.42 789.47 1485.9 z"/>
<path transform="translate(0,0)" fill="rgb(9,9,9)" d="M 783.751 1207.16 C 791.084 1207.27 798.724 1207.69 806.075 1208 C 806.585 1237.77 805.372 1271.64 804.887 1301.67 C 798.975 1302.28 791.548 1301.43 785.504 1300.97 C 785.753 1269.85 783.282 1237.83 783.751 1207.16 z"/>
<path transform="translate(0,0)" fill="rgb(9,9,9)" d="M 845.383 1345.64 C 853.861 1346.68 857.184 1346.79 865.71 1346.13 L 866.172 1440.49 L 845.052 1440.32 C 845.664 1408.33 844.796 1377.19 845.383 1345.64 z"/>
<path transform="translate(0,0)" fill="rgb(9,9,9)" d="M 605.993 1346.83 L 623.61 1346.73 C 624.196 1365.4 624.466 1384.07 624.422 1402.74 C 624.452 1412.98 624.744 1430.97 623.642 1440.84 L 604.922 1441.23 C 604.66 1418.25 603.181 1368.9 605.993 1346.83 z"/>
<path transform="translate(0,0)" fill="rgb(9,9,9)" d="M 788.936 1560.45 C 789.452 1557.13 789.927 1553.81 790.359 1550.48 C 792.636 1548.71 804.899 1548.95 808.296 1549.06 L 809.844 1557.29 L 811.003 1559.31 C 815.077 1560.25 832.947 1560.03 838.697 1560.19 L 838.596 1577.98 C 822.704 1578.02 804.901 1578.18 789.054 1577.34 C 788.892 1572.34 788.438 1565.25 788.936 1560.45 z"/>
<path transform="translate(0,0)" fill="rgb(9,9,9)" d="M 936.836 554.955 C 969.333 554.504 1001.83 554.48 1034.33 554.885 C 1048.13 554.947 1076.75 554.237 1089.51 556.498 C 1090.11 568.589 1090.46 586.11 1090.01 598.379 L 1089.96 743.846 C 1090.08 775.751 1091.86 805.803 1089.06 837.763 C 1087.57 854.711 1090.19 872.916 1088.38 890.614 C 1095.89 889.924 1110.16 887.596 1116.53 890.856 L 1117.61 892.865 C 1116.14 896.171 1113.76 896.944 1110.16 897.22 C 1090.84 898.703 1070.64 897.129 1051.29 897.207 L 847.524 897.147 C 819.567 897.106 792.099 898.047 764.209 898.275 C 766.02 927.12 763.317 954.937 764.274 983.842 C 736.613 983.861 709.136 984.524 681.425 984.472 C 653.593 984.419 618.394 982.205 591.004 984.823 C 590.979 966.578 591.704 938.647 590.15 921.151 C 582.166 921.208 544.229 922.64 539.981 919.183 C 537.486 913.045 538.037 903.558 538.047 896.676 C 467.617 897.516 397.179 897.579 326.746 896.864 C 309.603 896.723 292.459 896.685 275.316 896.749 C 266.881 896.844 247.075 898.825 240.513 894.9 L 239.45 893.349 C 239.959 891.814 239.874 891.272 241.314 890.481 C 246.119 887.842 336.907 888.382 348.874 888.672 C 348.968 881.782 350.535 853.351 346.265 849.799 L 343.742 849.232 C 347.28 848.869 361.22 847.542 363.738 849.293 L 359.019 850.352 C 374.329 851.984 417.835 850.912 435.105 850.929 C 434.61 835.5 434.483 820.061 434.724 804.625 C 438.991 804.729 443.457 804.675 447.744 804.686 C 445.109 802.622 440.196 804.218 435.959 803.479 C 433.806 800.758 434.357 802.041 434.461 798.007 C 435.673 790.237 435.111 766.85 435.078 758.035 C 444.905 757.868 454.691 757.781 464.502 757.171 C 458.672 756.345 444.291 756.494 437.563 756.28 L 436.05 754.533 L 436.377 753.148 C 443.4 749.826 465.39 751.904 475.268 750.983 L 476.357 750.875 C 480.735 750.963 481.157 750.207 484.072 752.545 C 486.43 758.478 484.948 765.558 485.895 772.71 L 602.637 772.93 C 625.386 772.788 648.165 772.334 670.904 772.595 C 682.198 772.724 680.889 779.907 679.971 788.51 C 680.521 801.442 680.179 815.991 680.148 829.043 C 686.658 827.967 693.997 827.768 700.642 827.411 C 701.002 840.528 700.808 854.536 700.856 867.722 C 720.474 868.373 743.213 867.486 763.06 867.14 C 764.068 875.151 763.885 880.773 763.76 888.793 C 820.202 888.243 877.748 889.671 934.759 889.316 C 935.906 860.605 935.103 828.11 935.027 799.416 L 934.819 668.286 C 934.636 643.153 934.447 618.457 935.41 593.286 C 935.867 581.311 935.415 566.508 936.836 554.955 z"/>
<path transform="translate(0,0)" fill="rgb(138,191,94)" d="M 476.357 750.875 C 480.735 750.963 481.157 750.207 484.072 752.545 C 486.43 758.478 484.948 765.558 485.895 772.71 L 602.637 772.93 C 625.386 772.788 648.165 772.334 670.904 772.595 C 682.198 772.724 680.889 779.907 679.971 788.51 C 677.863 798.479 681.648 824.442 676.916 831.015 C 674.305 831.565 673.301 831.992 670.914 830.049 C 664.185 829.902 657.456 829.791 650.725 829.716 C 652.395 840.034 651.999 856.256 652.052 867.143 C 637.661 866.988 544.687 865.681 540.458 869.579 C 536.267 873.441 537.25 883.865 537.143 889.18 L 426.957 888.819 C 405.087 888.635 381.75 887.549 359.944 888.291 C 359.866 876.634 360.156 861.696 359.019 850.352 C 374.329 851.984 417.835 850.912 435.105 850.929 C 434.61 835.5 434.483 820.061 434.724 804.625 C 438.991 804.729 443.457 804.675 447.744 804.686 C 445.109 802.622 440.196 804.218 435.959 803.479 C 433.806 800.758 434.357 802.041 434.461 798.007 C 435.673 790.237 435.111 766.85 435.078 758.035 C 444.905 757.868 454.691 757.781 464.502 757.171 C 458.672 756.345 444.291 756.494 437.563 756.28 L 436.05 754.533 L 436.377 753.148 C 443.4 749.826 465.39 751.904 475.268 750.983 L 476.357 750.875 z"/>
<path transform="translate(0,0)" fill="rgb(9,9,9)" d="M 476.357 750.875 C 480.735 750.963 481.157 750.207 484.072 752.545 C 486.43 758.478 484.948 765.558 485.895 772.71 L 602.637 772.93 C 625.386 772.788 648.165 772.334 670.904 772.595 C 682.198 772.724 680.889 779.907 679.971 788.51 C 677.863 798.479 681.648 824.442 676.916 831.015 C 674.305 831.565 673.301 831.992 670.914 830.049 C 671.177 813.728 671.19 797.404 670.954 781.082 C 656.567 779.597 620.452 780.082 604.771 780.173 C 565.3 780.402 523.426 779.755 484.183 781.205 C 484.596 789.564 484.866 797.93 484.992 806.299 C 472.174 805.193 460.564 804.952 447.744 804.686 C 445.109 802.622 440.196 804.218 435.959 803.479 C 433.806 800.758 434.357 802.041 434.461 798.007 C 435.673 790.237 435.111 766.85 435.078 758.035 C 444.905 757.868 454.691 757.781 464.502 757.171 C 458.672 756.345 444.291 756.494 437.563 756.28 L 436.05 754.533 L 436.377 753.148 C 443.4 749.826 465.39 751.904 475.268 750.983 L 476.357 750.875 z"/>
<path transform="translate(0,0)" fill="rgb(138,191,94)" d="M 464.502 757.171 L 476.956 757.655 C 476.931 771.023 476.752 784.704 477.135 798.042 C 463.799 798.009 447.578 797.572 434.461 798.007 C 435.673 790.237 435.111 766.85 435.078 758.035 C 444.905 757.868 454.691 757.781 464.502 757.171 z"/>
<path transform="translate(0,0)" fill="rgb(138,191,94)" d="M 936.836 554.955 C 969.333 554.504 1001.83 554.48 1034.33 554.885 C 1048.13 554.947 1076.75 554.237 1089.51 556.498 C 1090.11 568.589 1090.46 586.11 1090.01 598.379 L 1089.69 597.29 C 1085.7 583.431 1089.11 572.293 1086.75 560.549 L 1085.82 560.485 C 1080.34 575.819 1084.38 593.834 1081.86 607.93 C 1035.88 608.204 989.568 606.841 943.299 607.005 C 943.642 593.527 944.095 580.13 943.758 566.648 L 943.344 565.992 C 943.645 563.558 943.423 561.087 943.3 558.63 C 940.582 555.485 941.643 556.521 936.836 554.955 z"/>
<path transform="translate(0,0)" fill="rgb(36,39,32)" d="M 936.836 554.955 C 969.333 554.504 1001.83 554.48 1034.33 554.885 C 1048.13 554.947 1076.75 554.237 1089.51 556.498 C 1090.11 568.589 1090.46 586.11 1090.01 598.379 L 1089.69 597.29 C 1085.7 583.431 1089.11 572.293 1086.75 560.549 L 1085.82 560.485 C 1080.34 575.819 1084.38 593.834 1081.86 607.93 C 1080.5 598.797 1080.94 572.428 1081.96 563.293 C 1070.34 564.411 1053.83 564.18 1042.01 564.216 L 982.806 564.802 C 977.17 564.832 946.452 563.66 943.758 566.648 L 943.344 565.992 C 943.645 563.558 943.423 561.087 943.3 558.63 C 940.582 555.485 941.643 556.521 936.836 554.955 z"/>
<path transform="translate(0,0)" fill="rgb(9,9,9)" d="M 984.842 581.528 C 991.863 581.207 1004.78 579.464 1009.89 584.895 C 1008.31 592.023 987.858 590.63 982.25 590.555 C 975.82 590.621 960.772 592.201 956.559 587.971 C 956.15 584.375 955.661 585.096 957.148 582.59 C 963.396 581.08 977.706 581.575 984.842 581.528 z"/>
<path transform="translate(0,0)" fill="rgb(9,9,9)" d="M 1059.88 580.021 C 1062.59 579.197 1065.48 580.629 1066.46 583.289 C 1067.45 585.95 1066.19 588.916 1063.59 590.058 C 1061.77 590.859 1059.65 590.583 1058.1 589.342 C 1056.54 588.101 1055.8 586.099 1056.17 584.143 C 1056.55 582.187 1057.97 580.6 1059.88 580.021 z"/>
<path transform="translate(0,0)" fill="rgb(138,191,94)" d="M 943.913 831.041 C 976.067 830.446 1008.31 832.079 1040.42 832.145 C 1052.64 832.17 1069.01 832.525 1080.93 831.393 C 1081.6 850.336 1081.36 870.77 1080.99 889.701 C 1058.37 890.96 1032.63 889.281 1009.77 889.112 C 987.786 888.95 965.825 889.258 943.888 888.881 C 942.95 872.14 942.765 847.67 943.913 831.041 z"/>
<path transform="translate(0,0)" fill="rgb(138,191,94)" d="M 599.648 929.418 C 651.164 930.15 703.537 929.375 755.373 930.004 C 755.711 937.49 757.865 973.151 755.668 977.678 C 702.964 977.01 651.647 977.843 599.136 977.811 C 599.055 963.554 598.335 942.792 599.648 929.418 z"/>
<path transform="translate(0,0)" fill="rgb(9,9,9)" d="M 638.279 948.362 C 643.102 948.795 644.739 948.395 646.827 952.913 C 646.735 956.798 645.325 958.54 643.362 961.823 L 639.437 961.433 C 633.417 957.343 635.136 954.036 638.279 948.362 z"/>
<path transform="translate(0,0)" fill="rgb(9,9,9)" d="M 708.226 951.362 C 712.907 951.504 719.747 951.342 723.138 954.747 L 722.691 956.623 L 719.759 958.401 C 715.037 958.767 709.5 959.771 705.64 957.349 C 704.438 954.363 704.582 955.663 705.425 952.37 L 708.226 951.362 z"/>
<path transform="translate(0,0)" fill="rgb(9,9,9)" d="M 618.871 948.479 C 623.538 950.113 622.595 949.111 625.664 952.543 C 626.808 956.042 626.16 958.093 625.54 961.661 C 620.576 961.381 619.796 961.646 616.997 957.713 C 616.567 953.856 617.538 952.048 618.871 948.479 z"/>
<path transform="translate(0,0)" fill="rgb(9,9,9)" d="M 737.344 950.107 C 740.42 949.999 741.176 950.606 742.411 953.164 C 741.125 958.467 739.278 958.012 734.681 958.923 C 730.52 957.728 730.686 958.513 728.396 955.471 L 729.156 953.323 C 731.881 950.664 733.658 950.699 737.344 950.107 z"/>
<path transform="translate(0,0)" fill="rgb(138,191,94)" d="M 601.09 875.199 C 651.659 875.7 705.152 873.752 755.449 875.686 C 754.956 890.859 754.673 906.039 754.598 921.22 C 703.887 922.538 651.449 919.76 600.12 921.035 C 600.261 906.004 600.886 890.394 601.09 875.199 z"/>
<path transform="translate(0,0)" fill="rgb(9,9,9)" d="M 635.296 894.258 C 644.656 893.952 652.842 892.36 661.648 894.958 C 664.546 897.692 663.744 897.73 664.394 902.353 C 657.42 901.862 639.099 904.01 635.021 899.568 L 635.296 894.258 z"/>
<path transform="translate(0,0)" fill="rgb(9,9,9)" d="M 616.455 895.317 C 620.029 895.582 622.458 895.307 625.156 897.488 C 625.713 900.872 625.34 900.182 623.877 903.911 L 617.986 903.882 C 613.841 901.497 614.669 902.711 612.993 899.234 C 614.301 896.218 613.554 897.271 616.455 895.317 z"/>
<path transform="translate(0,0)" fill="rgb(138,191,94)" d="M 1063.97 670.525 L 1081.15 670.359 C 1081.05 686.219 1081.22 702.081 1081.64 717.936 C 1042.24 718.336 999.926 717.131 960.117 717.059 L 943.085 716.867 C 942.364 701.325 942.255 687.411 942.31 671.861 C 953.165 670.428 975.288 670.841 986.811 670.841 C 1012.53 671.014 1038.25 670.909 1063.97 670.525 z"/>
<path transform="translate(0,0)" fill="rgb(9,9,9)" d="M 954.255 689.068 C 962.289 689.414 1001.65 689.787 1006.19 691.305 C 1007.24 694.375 1006.36 696.884 1005.74 700.172 C 998.485 701.127 958.761 702.202 954.135 698.587 C 952.983 694.856 953.61 692.848 954.255 689.068 z"/>
<path transform="translate(0,0)" fill="rgb(9,9,9)" d="M 1060.69 688.687 C 1068.76 690.019 1070.9 698.608 1062.36 704.133 C 1059.36 703.437 1058.74 703.131 1055.91 701.82 C 1053.52 698.659 1054.01 700.154 1054.06 696.206 C 1055.96 692.239 1057.37 691.39 1060.69 688.687 z"/>
<path transform="translate(0,0)" fill="rgb(138,191,94)" d="M 943.023 616.335 C 986.282 615.988 1039.65 615.005 1081.92 617.13 C 1082.31 631.336 1082.66 647.659 1081.24 661.76 C 1078.36 662.323 1048.64 661.985 1043.5 661.968 C 1010.03 661.973 976.557 661.692 943.089 661.125 C 942.908 646.196 942.886 631.265 943.023 616.335 z"/>
<path transform="translate(0,0)" fill="rgb(9,9,9)" d="M 978.788 635.521 C 985.208 635.44 1002.04 634.299 1007.32 635.977 C 1008.58 638.988 1008.44 637.468 1007.67 640.698 C 1003.38 644.96 991.399 643.768 984.912 643.773 C 978.006 643.775 959.833 645.748 955.372 642.471 C 955.143 638.795 954.713 640.014 956.434 637.175 C 961.481 634.596 972.642 635.442 978.788 635.521 z"/>
<path transform="translate(0,0)" fill="rgb(9,9,9)" d="M 1061.12 633.389 L 1064.56 633.968 C 1069.72 638.431 1066.53 642.784 1063.32 647.43 C 1060.13 645.967 1058.67 645 1057.37 641.945 C 1057.27 638.241 1059.03 636.405 1061.12 633.389 z"/>
<path transform="translate(0,0)" fill="rgb(138,191,94)" d="M 942.224 725.905 C 987.068 726.052 1036.89 726.374 1081.76 727.922 C 1082.05 738.334 1083.06 761.41 1081.88 771.079 C 1039.75 771.89 985.046 772.475 943.163 770.937 C 943.119 755.922 942.807 740.908 942.224 725.905 z"/>
<path transform="translate(0,0)" fill="rgb(9,9,9)" d="M 956.903 742.176 C 967.145 747.442 989.551 742.023 1001.66 744.644 C 1003.86 747.531 1003.35 749.2 1003.84 753.286 C 988.337 753.261 972.838 753.32 957.34 753.461 L 956.903 742.176 z"/>
<path transform="translate(0,0)" fill="rgb(9,9,9)" d="M 1063.18 743.117 C 1067.57 743.676 1068.23 743.721 1070.52 747.213 C 1070.5 752.087 1068.03 753.45 1063.97 755.509 C 1058.94 754.276 1053.97 753.144 1055.76 746.657 C 1058.12 743.801 1059.49 743.903 1063.18 743.117 z"/>
<path transform="translate(0,0)" fill="rgb(138,191,94)" d="M 960.834 779.53 C 995.479 778.463 1046.34 779.329 1080.99 780.973 L 1080.7 822.86 L 1057.83 823.242 C 1022.58 823.97 981.708 825.029 946.323 822.936 C 938.833 822.493 941.292 787.554 941.36 780.265 C 947.656 779.839 954.487 779.743 960.834 779.53 z"/>
<path transform="translate(0,0)" fill="rgb(9,9,9)" d="M 956.033 800.005 C 956.596 799.977 957.159 799.959 957.723 799.95 C 967.635 799.789 1000.03 797.942 1006.12 803.799 C 1006.19 807.445 1006.68 806.244 1004.72 808.8 C 991.936 809.177 979.116 809.76 966.338 809.998 C 961.94 810.08 958.741 810.38 955.815 807.519 C 954.982 804.114 955.307 803.564 956.033 800.005 z"/>
<path transform="translate(0,0)" fill="rgb(9,9,9)" d="M 1061.44 793.825 C 1063.83 794.672 1065.39 795.256 1066.96 797.355 C 1068.17 799.003 1068.64 801.079 1068.27 803.089 C 1067.51 807.015 1064.5 809.349 1061.4 811.361 C 1056.76 809.814 1055.68 809.678 1054.36 805.067 C 1055.2 801.132 1058.85 797.165 1061.44 793.825 z"/>
<path transform="translate(0,0)" fill="rgb(138,191,94)" d="M 576.56 875.498 L 590.922 875.723 L 590.261 913.341 C 580.573 913.103 570.475 913.182 560.75 913.116 L 545.933 913.193 C 546.736 900.613 546.66 888.31 546.686 875.722 C 556.454 875.465 566.745 875.563 576.56 875.498 z"/>
<path transform="translate(0,0)" fill="rgb(138,191,94)" d="M 659.099 838.157 L 693.225 838.1 C 693.1 847.991 693.931 857.642 693.631 867.683 C 682.699 866.854 670.265 867.149 659.179 867.178 C 659.295 857.504 659.269 847.83 659.099 838.157 z"/>
<path transform="translate(0,0)" fill="rgb(9,9,9)" d="M 586.742 590.39 C 571.245 589.832 552.238 590.654 536.4 590.772 C 514.813 590.753 493.227 590.6 471.642 590.316 C 459.517 590.229 443.617 592.157 432.064 588.846 C 430.898 588.512 429.39 588.344 428.88 587.138 C 426.804 582.236 426.325 440.415 427.241 423.721 C 427.457 419.78 427.823 416.052 429.417 412.399 C 439.77 409.024 509.852 410.794 523.996 410.652 C 578.094 410.105 631.361 410.98 685.605 409.706 C 685.014 423.192 686.298 441.689 686.924 455.439 C 695.006 455.157 702.434 455.454 710.498 455.73 L 710.847 438.617 C 725.211 436.066 748.426 436.544 763.54 436.594 L 849.804 437.474 L 850.294 477.734 L 850.693 487.443 C 811.099 488.898 770.987 487.056 731.361 487.785 C 725.882 487.885 715.085 488.695 711.711 484.632 C 709.957 478.258 711.135 471.498 711.979 464.96 C 707.986 462.089 692.406 463.322 686.585 463.505 L 687.124 497.232 C 689.108 503.627 688.225 525.92 688.085 533.214 C 695.263 532.929 703.44 531.584 709.006 536.206 L 708.967 537.691 C 702.468 542.306 695.513 540.594 687.81 539.872 C 687.778 544.706 688.012 553.848 687.047 558.243 C 686.999 560.92 686.295 564.643 688.465 566.177 C 721.372 589.436 722.151 634.394 695.981 664.47 C 675.078 688.491 628.315 694.503 603.798 669.804 C 592.934 659.341 586.808 648.098 580.729 634.512 C 580.493 633.999 578.413 633.792 577.846 633.8 L 434.986 634.511 C 413.992 634.422 372.644 632.828 353.737 635.157 C 351.368 661.509 353.619 703.956 353.134 731.881 C 373.935 731.89 396.4 731.522 417.049 732.377 L 435.003 732.811 L 435.142 750.096 C 444.176 750.079 468.406 749.586 476.357 750.875 L 475.268 750.983 C 465.39 751.904 443.4 749.826 436.377 753.148 L 436.05 754.533 L 437.563 756.28 C 444.291 756.494 458.672 756.345 464.502 757.171 C 454.691 757.781 444.905 757.868 435.078 758.035 C 435.111 766.85 435.673 790.237 434.461 798.007 C 434.357 802.041 433.806 800.758 435.959 803.479 C 440.196 804.218 445.109 802.622 447.744 804.686 C 443.457 804.675 438.991 804.729 434.724 804.625 C 434.483 820.061 434.61 835.5 435.105 850.929 C 417.835 850.912 374.329 851.984 359.019 850.352 L 363.738 849.293 C 361.22 847.542 347.28 848.869 343.742 849.232 L 346.265 849.799 C 339.831 851.092 272.197 850.089 262.991 849.485 C 262.897 841.304 262.93 833.123 263.088 824.943 C 261.997 792.615 262.321 764.686 262.997 732.456 C 290.629 732.72 318.262 732.689 345.892 732.362 C 344.96 716.918 343.023 637.864 347.658 628.555 C 359.666 623.52 557.502 626.897 579.805 627.185 C 581.163 612.986 582.995 604.179 586.742 590.39 z"/>
<path transform="translate(0,0)" fill="rgb(138,191,94)" d="M 417.049 732.377 L 435.003 732.811 L 435.142 750.096 C 444.176 750.079 468.406 749.586 476.357 750.875 L 475.268 750.983 C 465.39 751.904 443.4 749.826 436.377 753.148 L 436.05 754.533 L 437.563 756.28 C 444.291 756.494 458.672 756.345 464.502 757.171 C 454.691 757.781 444.905 757.868 435.078 758.035 C 435.111 766.85 435.673 790.237 434.461 798.007 C 434.357 802.041 433.806 800.758 435.959 803.479 C 440.196 804.218 445.109 802.622 447.744 804.686 C 443.457 804.675 438.991 804.729 434.724 804.625 C 434.483 820.061 434.61 835.5 435.105 850.929 C 417.835 850.912 374.329 851.984 359.019 850.352 L 363.738 849.293 C 361.22 847.542 347.28 848.869 343.742 849.232 L 346.265 849.799 C 339.831 851.092 272.197 850.089 262.991 849.485 C 262.897 841.304 262.93 833.123 263.088 824.943 C 264.242 830.903 263.2 840.115 264.83 844.708 L 267.471 844.575 C 271.475 840.031 269.058 824.88 270.835 817.43 C 271.247 811.487 271.103 802.15 271.205 795.954 C 314.383 796.167 357.355 794.034 400.517 794.231 C 408.085 794.265 418.665 793.742 425.841 795.415 L 427.46 797.298 C 428.277 792.94 429.134 788.682 428.788 784.265 L 427.395 787.307 C 426.669 771.965 426.898 755.279 426.823 739.832 C 422.724 739.755 418.345 739.435 414.224 739.204 L 414.799 737.517 L 412.321 736.621 C 413.684 733.976 414.178 734.299 417.049 732.377 z"/>
<path transform="translate(0,0)" fill="url(#Gradient3)" d="M 417.049 732.377 L 435.003 732.811 L 435.142 750.096 C 444.176 750.079 468.406 749.586 476.357 750.875 L 475.268 750.983 C 465.39 751.904 443.4 749.826 436.377 753.148 L 436.05 754.533 L 437.563 756.28 C 444.291 756.494 458.672 756.345 464.502 757.171 C 454.691 757.781 444.905 757.868 435.078 758.035 C 435.111 766.85 435.673 790.237 434.461 798.007 C 434.357 802.041 433.806 800.758 435.959 803.479 C 440.196 804.218 445.109 802.622 447.744 804.686 C 443.457 804.675 438.991 804.729 434.724 804.625 C 434.483 820.061 434.61 835.5 435.105 850.929 C 417.835 850.912 374.329 851.984 359.019 850.352 L 363.738 849.293 C 361.22 847.542 347.28 848.869 343.742 849.232 L 346.265 849.799 C 339.831 851.092 272.197 850.089 262.991 849.485 C 262.897 841.304 262.93 833.123 263.088 824.943 C 264.242 830.903 263.2 840.115 264.83 844.708 L 267.471 844.575 C 271.475 840.031 269.058 824.88 270.835 817.43 L 270.813 843.262 C 305.6 842.097 340.408 841.656 375.214 841.94 C 392.32 842.241 410.851 843.408 428.164 843.972 C 427.74 832.926 428.345 821.198 427.562 810.108 C 427.211 805.131 426.242 800.74 425.841 795.415 L 427.46 797.298 C 428.277 792.94 429.134 788.682 428.788 784.265 L 427.395 787.307 C 426.669 771.965 426.898 755.279 426.823 739.832 C 422.724 739.755 418.345 739.435 414.224 739.204 L 414.799 737.517 L 412.321 736.621 C 413.684 733.976 414.178 734.299 417.049 732.377 z"/>
<path transform="translate(0,0)" fill="rgb(9,9,9)" d="M 305.35 814.889 C 310.58 814.486 317.642 813.218 321.233 817.28 C 321.416 820.58 321.126 821.07 319.771 824.117 C 314.07 824.885 309.428 826.401 304.858 823.544 C 303.5 820.342 304.468 818.359 305.35 814.889 z"/>
<path transform="translate(0,0)" fill="rgb(9,9,9)" d="M 410.085 811.83 L 412.049 812.338 C 417.793 818.309 413.774 822.385 407.093 823.85 L 403.593 822.585 C 401.265 819.932 401.665 821.171 401.745 818.045 C 403.662 814.712 406.679 813.584 410.085 811.83 z"/>
<path transform="translate(0,0)" fill="rgb(9,9,9)" d="M 291.914 813.265 C 296.059 814.692 295.972 815.403 296.841 819.401 C 295.921 823.121 295.862 823.802 292.946 826.202 C 288.528 824.688 287.961 823.939 287.199 819.554 C 288.29 815.905 288.837 815.59 291.914 813.265 z"/>
<path transform="translate(0,0)" fill="rgb(9,9,9)" d="M 376.727 814.675 C 380.636 814.647 384.304 814.711 387.384 817.062 C 388.107 820.323 388.111 819.007 386.701 822.399 C 382.844 822.52 379.166 823.175 376.083 821.235 C 375.031 818.044 375.551 818.624 376.727 814.675 z"/>
<path transform="translate(0,0)" fill="rgb(138,191,94)" d="M 414.224 739.204 C 418.345 739.435 422.724 739.755 426.823 739.832 C 426.898 755.279 426.669 771.965 427.395 787.307 C 376.487 788.266 322.776 786.817 271.366 787.029 C 271.017 771.203 271.018 755.032 270.852 739.174 C 315.217 740.337 370.536 741.052 414.224 739.204 z"/>
<path transform="translate(0,0)" fill="rgb(9,9,9)" d="M 306.033 758.706 C 313.429 758.715 326.029 757.351 330.933 761.763 C 331.274 764.908 331.618 763.484 329.754 766.148 C 322.087 766.934 312.991 769.484 306.532 766.476 C 304.729 763.079 305.468 763.042 306.033 758.706 z"/>
<path transform="translate(0,0)" fill="rgb(9,9,9)" d="M 288.103 757.18 C 291.428 757.251 291.764 757.16 294.806 758.323 C 297.45 761.381 296.746 759.93 297.579 763.801 C 296.601 767.315 296.539 768.115 293.788 770.417 C 290.583 770.318 288.501 770.65 285.99 768.802 C 283.325 764.616 283.663 766.273 283.556 762.005 C 285.77 758.088 284.527 759.236 288.103 757.18 z"/>
<path transform="translate(0,0)" fill="url(#Gradient2)" d="M 849.804 437.474 L 850.294 477.734 L 850.693 487.443 C 811.099 488.898 770.987 487.056 731.361 487.785 C 725.882 487.885 715.085 488.695 711.711 484.632 C 709.957 478.258 711.135 471.498 711.979 464.96 C 712.303 468.407 711.537 478.336 714.174 480.324 C 716.605 474.365 717.488 469.573 719.038 463.371 C 719.728 459.219 719.88 450.612 720.088 446.105 C 730.757 444.613 748.07 445.031 759.215 445.051 C 780.802 445.229 802.391 445.186 823.978 444.921 C 834.292 443.35 846.181 448.286 849.804 437.474 z"/>
<path transform="translate(0,0)" fill="rgb(36,39,32)" d="M 711.979 464.96 C 712.303 468.407 711.537 478.336 714.174 480.324 C 716.605 474.365 717.488 469.573 719.038 463.371 L 718.664 480.199 C 731.196 480.196 841.108 478.697 843.158 477.697 C 844.862 476.955 848.28 477.551 850.294 477.734 L 850.693 487.443 C 811.099 488.898 770.987 487.056 731.361 487.785 C 725.882 487.885 715.085 488.695 711.711 484.632 C 709.957 478.258 711.135 471.498 711.979 464.96 z"/>
<path transform="translate(0,0)" fill="rgb(36,39,32)" d="M 849.804 437.474 L 850.294 477.734 C 848.28 477.551 844.862 476.955 843.158 477.697 C 842.564 466.674 842.851 456.119 843.058 445.109 C 836.698 445.115 830.337 445.052 823.978 444.921 C 834.292 443.35 846.181 448.286 849.804 437.474 z"/>
<path transform="translate(0,0)" fill="rgb(36,39,32)" d="M 771.012 458.277 C 775.575 457.688 779.644 457.027 783.452 459.612 C 784.739 463.325 784.613 461.713 782.884 466.345 C 778.509 467.08 774.945 467.573 771.337 464.668 C 769.907 461.102 770.173 462.638 771.012 458.277 z"/>
<path transform="translate(0,0)" fill="rgb(9,9,9)" d="M 752.274 457.419 C 753.883 456.785 755.709 457.072 757.045 458.168 C 758.382 459.265 759.02 460.999 758.713 462.701 C 758.405 464.402 757.201 465.804 755.565 466.364 C 753.114 467.202 750.443 465.93 749.549 463.499 C 748.655 461.068 749.865 458.369 752.274 457.419 z"/>
<path transform="translate(0,0)" fill="rgb(36,39,32)" d="M 687.124 497.232 C 689.108 503.627 688.225 525.92 688.085 533.214 C 695.263 532.929 703.44 531.584 709.006 536.206 L 708.967 537.691 C 702.468 542.306 695.513 540.594 687.81 539.872 C 687.778 544.706 688.012 553.848 687.047 558.243 C 685.559 546.775 686.355 510.095 687.124 497.232 z"/>
<path transform="translate(0,0)" fill="rgb(138,191,94)" d="M 489.64 418.467 C 515.469 417.699 541.659 418.815 567.5 418.974 L 677.019 419.07 C 677.069 430.43 678.405 442.427 678.647 454.025 C 679.48 489.17 679.568 524.329 678.911 559.478 C 675.393 557.907 671.791 556.531 668.121 555.355 C 648.402 549.131 631.185 552.709 613.422 562.019 C 605.151 567.789 598.452 574.052 592.706 582.342 C 540.214 581.813 487.718 581.754 435.225 582.166 C 438.201 531.14 434.752 471.059 436.057 419.197 C 453.919 419.063 471.781 418.82 489.64 418.467 z"/>
<path transform="translate(0,0)" fill="rgb(9,9,9)" d="M 611.819 457.55 C 612.878 457.835 614.674 458.398 615.209 459.44 C 620.254 469.269 623.616 473.097 631.88 479.961 C 628.671 483.739 628.258 485.351 624.064 486.515 C 619.493 484.193 621.086 482.925 616.929 478.702 L 614.998 479.027 C 604.987 487.288 584.548 544.286 576.898 556.41 L 575.102 556.79 C 564.816 552.23 545.613 503.298 540.164 490.832 C 528.192 515.092 519.358 533.483 509.376 558.554 C 502.826 550.312 487.538 518.631 481.95 516.76 L 480.634 518.481 C 479.249 520.761 477.841 523.026 476.408 525.276 C 474.108 528.859 473.321 530.397 469.431 531.251 C 466.786 529.289 466.356 529.023 465.084 526.016 C 465.832 520.529 477.943 508.729 482.305 503.418 C 494.817 518.095 499.486 525.045 507.623 542.686 C 517.085 524.097 524.306 503.442 534.723 485.287 C 536.71 481.825 538.222 480.465 542.094 480.6 C 547.792 484.449 569.274 532.861 573.609 541.812 C 580.849 522.028 596.821 490.546 606.015 471.342 L 605.344 470.303 L 599.308 471.589 L 598.524 470.634 C 600.67 464.882 606.854 461.154 611.819 457.55 z"/>
<path transform="translate(0,0)" fill="rgb(138,191,94)" d="M 639.03 562.124 C 659.812 558.974 680.675 567.286 693.598 583.863 C 706.521 600.44 709.491 622.701 701.365 642.086 C 693.239 661.471 675.284 674.961 654.403 677.368 C 622.905 681 594.305 658.725 590.113 627.297 C 585.92 595.869 607.681 566.876 639.03 562.124 z"/>
<path transform="translate(0,0)" fill="rgb(9,9,9)" d="M 637.018 576.016 C 661.008 570.047 685.289 584.677 691.223 608.676 C 697.157 632.675 682.492 656.934 658.485 662.834 C 634.526 668.721 610.326 654.092 604.404 630.143 C 598.483 606.193 613.077 581.972 637.018 576.016 z"/>
<path transform="translate(0,0)" fill="rgb(138,191,94)" d="M 639.577 581.172 C 688.623 577.534 699.317 646.368 655.148 655.811 C 646.49 656.366 639.318 655.746 631.508 651.734 C 622.811 647.165 616.277 639.339 613.334 629.966 C 610.254 620.22 611.166 609.649 615.87 600.574 C 621.248 590.159 628.77 584.739 639.577 581.172 z"/>
<path transform="translate(0,0)" fill="rgb(138,191,94)" d="M 777.855 706.64 C 777.886 704.046 777.982 701.454 778.141 698.864 C 779.141 680.624 782.49 664.616 796.644 652.096 C 817.18 633.93 854.338 636.816 871.969 657.679 C 883.595 671.437 886.088 691.059 884.902 708.369 C 885.226 708.542 885.546 708.721 885.874 708.887 C 891.126 711.543 899.783 709.197 902.076 716.45 C 904.815 725.111 903.281 823.571 900.503 828.507 C 900.139 829.155 899.715 829.661 899.153 830.141 C 886.158 833.176 769.551 832.379 765.63 828.419 C 762.879 819.211 763.164 808.619 763.576 799.017 C 764.783 770.885 760.13 741.45 764.453 713.747 C 764.929 710.696 775.219 707.476 777.855 706.64 z"/>
<path transform="translate(0,0)" fill="rgb(9,9,9)" d="M 777.855 706.64 C 777.886 704.046 777.982 701.454 778.141 698.864 C 779.141 680.624 782.49 664.616 796.644 652.096 C 817.18 633.93 854.338 636.816 871.969 657.679 C 883.595 671.437 886.088 691.059 884.902 708.369 L 883.815 709.956 C 886.34 712.099 892.222 712.758 896.155 713.82 L 896.005 714.872 C 887.489 717.689 865.338 715.935 855.539 717.148 C 828.799 717.302 799.619 716.622 773.137 717.266 C 773.402 751.492 770.803 791.192 772.298 823.941 C 805.395 824.474 838.376 823.28 871.465 823.361 C 878.279 823.378 885.473 823.679 892.25 824.393 C 896.781 826.33 896.323 825.616 899.153 830.141 C 886.158 833.176 769.551 832.379 765.63 828.419 C 762.879 819.211 763.164 808.619 763.576 799.017 C 764.783 770.885 760.13 741.45 764.453 713.747 C 764.929 710.696 775.219 707.476 777.855 706.64 z"/>
<path transform="translate(0,0)" fill="rgb(254,254,254)" d="M 827.166 648.195 C 839.599 647.343 841.785 648.405 853.228 653.655 C 868.619 660.716 886.711 691.764 877.331 707.537 C 873.964 709.378 869.492 708.803 865.438 708.759 C 866.453 686.544 863.255 671.626 842.238 661.685 C 836.295 660.401 829.918 660.472 824.194 661.551 C 794.99 667.058 802.261 701.708 798.49 707.402 C 795.109 707.997 790.482 708.287 788.071 705.669 C 784.209 675.862 797.215 654.605 827.166 648.195 z"/>
<path transform="translate(0,0)" fill="rgb(138,191,94)" d="M 825.731 670.255 C 827.151 670.072 828.578 669.955 830.009 669.905 C 855.316 669.086 857.528 687.739 857.949 707.781 L 843.707 707.364 L 810.06 707.082 C 809.898 689.361 808.787 679.522 825.731 670.255 z"/>
<path transform="translate(0,0)" fill="rgb(36,39,32)" d="M 855.539 717.148 C 865.338 715.935 887.489 717.689 896.005 714.872 L 896.155 713.82 C 892.222 712.758 886.34 712.099 883.815 709.956 L 884.902 708.369 C 885.226 708.542 885.546 708.721 885.874 708.887 C 891.126 711.543 899.783 709.197 902.076 716.45 C 904.815 725.111 903.281 823.571 900.503 828.507 C 900.139 829.155 899.715 829.661 899.153 830.141 C 896.323 825.616 896.781 826.33 892.25 824.393 C 893.768 820.106 893.791 731.266 893.939 718.214 C 881.437 718.007 867.932 718.036 855.539 717.148 z"/>
<path transform="translate(0,0)" fill="rgb(9,9,9)" d="M 830.507 730.198 C 837.999 730.117 845.388 732.487 850.877 737.728 C 856.022 742.647 858.981 749.422 859.094 756.539 C 859.183 765.751 856.051 769.896 849.941 776.003 C 850.053 784.1 853.1 804.346 850.628 808.329 C 847.805 810.251 844.821 809.823 841.25 809.866 C 831.94 809.899 824.2 809.972 814.936 809.127 C 815.279 798.14 815.948 787.165 816.941 776.218 C 805.269 759.79 802.438 748.513 818.541 732.895 C 822.203 731.821 826.701 730.997 830.507 730.198 z"/>
<path transform="translate(0,0)" fill="rgb(138,191,94)" d="M 828.343 738.977 C 839.206 738.277 849.613 743.347 849.794 755.786 C 849.927 765.006 845.788 768.114 839.589 773.99 C 839.832 783.158 839.931 790.507 841.233 799.578 L 824.846 799.916 L 826.566 772.805 C 815.657 760.729 812.219 748.895 828.343 738.977 z"/>
<path transform="translate(0,0)" fill="url(#Gradient1)" d="M 712.165 553.699 C 727.03 554.793 748.269 555.269 763.043 554.825 C 813.515 553.308 809.147 558.282 809.758 603.917 C 807.106 603.953 806.746 603.905 804.123 603.443 C 798.63 596.533 805.044 577.484 799.065 569.105 C 797.04 566.267 794.25 564.284 790.853 563.696 C 772.677 560.553 728.705 565.703 713.445 562.556 C 711.781 560.173 712.201 556.815 712.165 553.699 z"/>
</svg>