<svg version="1.1" xmlns="http://www.w3.org/2000/svg" style="display: block;" viewBox="0 0 1405 2048" width="380" height="554" preserveAspectRatio="none">
<defs>
	<linearGradient id="Gradient1" gradientUnits="userSpaceOnUse" x1="695.883" y1="458.68" x2="711.563" y2="515.454">
		<stop class="stop0" offset="0" stop-opacity="1" stop-color="rgb(12,13,21)"/>
		<stop class="stop1" offset="1" stop-opacity="1" stop-color="rgb(56,27,30)"/>
	</linearGradient>
	<linearGradient id="Gradient2" gradientUnits="userSpaceOnUse" x1="705.114" y1="467.017" x2="709.753" y2="409.337">
		<stop class="stop0" offset="0" stop-opacity="1" stop-color="rgb(1,13,17)"/>
		<stop class="stop1" offset="1" stop-opacity="1" stop-color="rgb(47,24,32)"/>
	</linearGradient>
	<linearGradient id="Gradient3" gradientUnits="userSpaceOnUse" x1="1127" y1="697.973" x2="1040.23" y2="676.323">
		<stop class="stop0" offset="0" stop-opacity="1" stop-color="rgb(13,14,23)"/>
		<stop class="stop1" offset="1" stop-opacity="1" stop-color="rgb(48,38,43)"/>
	</linearGradient>
	<linearGradient id="Gradient4" gradientUnits="userSpaceOnUse" x1="655.396" y1="1533.48" x2="640.794" y2="1435.79">
		<stop class="stop0" offset="0" stop-opacity="1" stop-color="rgb(0,0,0)"/>
		<stop class="stop1" offset="1" stop-opacity="1" stop-color="rgb(39,38,39)"/>
	</linearGradient>
	<linearGradient id="Gradient5" gradientUnits="userSpaceOnUse" x1="421.127" y1="1301.17" x2="466.279" y2="1380.73">
		<stop class="stop0" offset="0" stop-opacity="1" stop-color="rgb(0,0,0)"/>
		<stop class="stop1" offset="1" stop-opacity="1" stop-color="rgb(39,38,39)"/>
	</linearGradient>
</defs>
<path transform="translate(0,0)" fill="rgb(254,254,254)" d="M 268.497 81.496 C 333.441 80.5303 400.559 81.5495 465.731 81.5227 L 886.558 81.5037 L 1085.56 81.485 L 1148.28 81.4075 C 1162.25 81.4295 1176.18 80.9388 1190.07 82.6294 C 1247.11 89.0825 1289.36 138.041 1291.11 194.744 C 1291.92 221.216 1290.81 249.388 1290.84 276.216 L 1291.29 462.48 L 1291.33 1208.59 L 1291.32 1613.76 L 1291.31 1747.36 C 1291.31 1768.75 1292.46 1801.82 1290.44 1822.77 C 1288.11 1849.09 1277.14 1873.89 1259.25 1893.33 C 1232.91 1921.39 1204.24 1927.97 1167.88 1928.91 C 1161.63 1929.36 1155.69 1929.53 1149.43 1929.56 C 940.618 1930.62 731.731 1929.87 522.921 1929.92 L 323.337 1930.1 C 289.962 1929.94 255.141 1931.26 221.988 1927.18 C 195.752 1923.95 174.787 1912.76 155.979 1894.38 C 117.246 1856.54 122.025 1804.77 122.065 1755.11 L 122.26 1652.8 L 122.17 1242 L 122.009 505.039 L 122.001 291.466 L 121.891 228.038 C 121.86 199.304 119.88 176.335 132.747 149.685 C 161.855 89.4021 208.386 81.7217 268.497 81.496 z"/>
<path transform="translate(0,0)" fill="rgb(231,63,63)" d="M 1015.65 141.494 L 1094.78 141.382 C 1116.35 141.242 1141.87 139.38 1162.77 143.636 C 1188.5 148.879 1209.51 168.937 1222.06 191.166 C 1231.78 208.37 1233.1 226.039 1233.06 245.346 C 1232.74 338.023 1232.78 430.704 1232.81 523.381 L 1232.04 1276.21 L 1232.27 1627.56 L 1232.47 1731.91 C 1232.46 1773.26 1237.11 1813.6 1204.8 1845.81 C 1172.05 1878.46 1114.47 1870.67 1071.14 1870.65 L 924.903 1870.71 L 399.096 1870.49 C 359.735 1870.46 320.373 1870.71 281.016 1871.25 C 251.697 1871.69 228.284 1863.61 206.598 1842.99 C 184.957 1822.41 180.238 1797.58 180.14 1769.02 C 179.72 1646.16 180.546 1523.28 180.603 1400.42 L 179.987 744.934 L 180.251 390.195 L 180.109 284.147 C 180.075 266.585 179.277 240.441 180.947 223.439 C 182.798 202.773 191.736 183.382 206.247 168.553 C 226.542 147.994 247.737 141.224 276.074 141.59 C 293.962 141.821 312.095 141.751 329.991 141.755 L 480.587 141.778 L 1015.65 141.494 z"/>
<path transform="translate(0,0)" fill="rgb(254,254,254)" d="M 306.581 1094.31 C 320.64 1093.07 342.419 1093.57 356.932 1093.54 C 388.772 1093.49 420.612 1093.63 452.451 1093.96 L 708.646 1093.82 L 982.061 1093.88 L 1058.52 1093.72 C 1072.71 1093.65 1093.52 1093.08 1107.22 1094.41 C 1124.13 1095.95 1140.19 1102.5 1153.35 1113.24 C 1181.43 1136.61 1177.82 1166.87 1177.78 1199.39 L 1177.67 1264.4 L 1177.62 1462.91 L 1177.76 1650.12 C 1177.78 1681.38 1178.6 1714.13 1176.88 1745.25 C 1174.88 1781.42 1142.93 1810.73 1106.95 1813.4 C 1092.66 1814.39 1072.05 1813.87 1057.26 1813.9 L 968.852 1814.01 L 689.942 1814.06 L 432.755 1814.02 L 348.031 1814.11 C 333.213 1814.13 317.035 1814.57 302.412 1813.85 C 272.686 1813.48 238.968 1779.15 236.166 1750.13 C 234.035 1728.06 235.167 1698.18 235.292 1675.23 L 235.85 1525.89 L 235.959 1276.07 C 236.018 1253.56 235.93 1231.04 235.697 1208.53 C 235.501 1193.72 234.365 1177.34 235.703 1162.71 C 239.323 1123.11 269.711 1099.63 306.581 1094.31 z"/>
<path transform="translate(0,0)" fill="rgb(254,203,18)" d="M 451.357 1597.32 C 489.278 1596.06 528.707 1597.46 566.701 1597.5 C 577.222 1597.28 590.462 1604.01 591.112 1615.99 C 593.294 1656.22 592.339 1697.85 591.609 1738.14 C 591.309 1754.67 581.909 1760.22 567.312 1761.92 C 532.701 1762.57 497.833 1761.71 463.198 1762.12 C 449.088 1762.65 427.831 1760.34 427.25 1741.39 C 426.001 1700.65 425.708 1658.26 427.411 1617.51 C 427.993 1603.59 439.159 1598.66 451.357 1597.32 z"/>
<path transform="translate(0,0)" fill="rgb(254,254,254)" d="M 483.017 1640.5 C 486.928 1639.84 490.447 1639.82 493.059 1637.13 C 494.82 1633.8 494.646 1632.65 494.734 1628.82 C 497.331 1627.1 496.244 1627.57 499.64 1627.5 C 504.642 1632.86 497.408 1637.66 506.675 1639.19 C 511.158 1635.86 507.324 1631.69 511.167 1627.32 C 514.768 1627.27 513.194 1626.74 516.049 1628.95 C 517.281 1632.27 517.091 1633.08 517.112 1636.72 C 522.079 1644.23 540.841 1641.69 537.705 1661.91 C 536.553 1669.33 527.033 1674.03 526.338 1677.49 C 552.938 1690.14 543.582 1716.39 516.92 1721.15 C 516.901 1726.31 517.999 1729.96 513.102 1732.53 L 511.018 1731.35 C 508.608 1727.91 508.886 1725.21 508.628 1720.95 L 502.105 1720.51 C 501.975 1725.71 502.841 1729.67 497.997 1732.55 L 496.117 1731.64 C 493.558 1728.44 493.952 1725.57 493.766 1721.33 C 489.855 1720.87 487.236 1720.96 484.005 1718.78 C 481.736 1713.83 482.768 1650.44 483.017 1640.5 z"/>
<path transform="translate(0,0)" fill="rgb(241,238,237)" d="M 508.628 1720.95 L 516.92 1721.15 C 516.901 1726.31 517.999 1729.96 513.102 1732.53 L 511.018 1731.35 C 508.608 1727.91 508.886 1725.21 508.628 1720.95 z"/>
<path transform="translate(0,0)" fill="rgb(241,238,237)" d="M 493.766 1721.33 C 497.298 1721.29 498.654 1721.41 502.105 1720.51 C 501.975 1725.71 502.841 1729.67 497.997 1732.55 L 496.117 1731.64 C 493.558 1728.44 493.952 1725.57 493.766 1721.33 z"/>
<path transform="translate(0,0)" fill="rgb(254,203,18)" d="M 494.468 1683.18 C 505.479 1683.69 518.41 1681.89 527.577 1689.49 C 533.822 1694.66 529.335 1703.33 524.861 1707.91 C 514.604 1712.31 505.657 1711.3 494.426 1711.34 C 494.782 1702.34 494.524 1692.27 494.468 1683.18 z"/>
<path transform="translate(0,0)" fill="rgb(254,203,18)" d="M 494.526 1648.12 C 506.691 1648.33 539.005 1649 521.473 1670.15 C 514.363 1674.37 502.911 1673.52 494.367 1673.6 C 494.679 1665.4 494.524 1656.39 494.526 1648.12 z"/>
<path transform="translate(0,0)" fill="rgb(5,5,6)" d="M 876.047 1611.17 C 942.286 1602.2 936.694 1721.39 869.082 1735.51 C 801.741 1742.95 814.857 1639.15 857.812 1617.43 C 864.914 1613.84 868.047 1612.97 876.047 1611.17 z"/>
<path transform="translate(0,0)" fill="rgb(254,254,254)" d="M 872.862 1638.07 C 904.128 1634.01 894.802 1694.95 870.763 1708.98 C 840.947 1712.41 850.347 1652.17 872.862 1638.07 z"/>
<path transform="translate(0,0)" fill="rgb(5,5,6)" d="M 978.792 1611.22 C 1045.35 1602.56 1038.52 1722.51 971.02 1735.58 C 915.146 1741.11 916.592 1670.13 939.577 1637.28 C 950.397 1621.82 960.288 1614.97 978.792 1611.22 z"/>
<path transform="translate(0,0)" fill="rgb(254,254,254)" d="M 975.942 1637.92 C 998.945 1636.68 996.075 1662.58 992.97 1678.23 C 990.535 1690.51 984.672 1702.01 973.895 1708.86 C 944.565 1713.82 951.633 1652.2 975.942 1637.92 z"/>
<path transform="translate(0,0)" fill="rgb(5,5,6)" d="M 770.229 1611.11 C 795.531 1608.45 820.298 1621.06 818.138 1649.28 C 816.257 1673.86 790.068 1691.54 772.585 1706.06 C 784.509 1705.64 798.022 1705.97 810.062 1706 C 808.822 1714.57 807.675 1723.14 806.621 1731.73 C 779.05 1731.4 750.77 1731.65 723.151 1731.61 C 719.657 1731.63 716.844 1732.26 714.46 1730.48 C 727.452 1715.7 799.311 1662.84 783.785 1641.33 C 781.886 1638.67 778.933 1636.97 775.686 1636.66 C 765.513 1635.66 761.374 1645.37 760.375 1653.73 L 760.215 1655.13 L 726.888 1655.09 C 735.013 1629.95 743.976 1617.59 770.229 1611.11 z"/>
<path transform="translate(0,0)" fill="rgb(5,5,6)" d="M 795.312 1292.35 L 816.64 1292.13 C 820.869 1312.52 823.86 1331.97 826.853 1352.51 C 831.542 1333.8 833.559 1312.61 838.637 1292.53 C 844.612 1292.3 850.586 1292.45 856.564 1292.55 C 861.407 1313.41 864.216 1332.05 868.013 1352.97 C 870.833 1333.09 875.285 1313 879.337 1293.3 C 884.972 1293.95 893.73 1293.74 899.63 1293.78 C 898.341 1306.46 895.998 1315.5 892.805 1327.78 C 889.835 1338.84 887.43 1350.04 885.601 1361.34 C 884.222 1369.51 882.824 1381.53 880.084 1388.99 C 871.75 1390.48 867.462 1390.77 859.196 1391.07 C 855.42 1370.45 851.355 1352.16 846.567 1331.65 C 843.476 1351.97 839.885 1370.18 835.867 1390.39 C 828.941 1390.77 821.852 1390.61 814.903 1390.56 C 808.38 1359.72 800.353 1323.17 795.312 1292.35 z"/>
<path transform="translate(0,0)" fill="rgb(5,5,6)" d="M 879.443 1435.34 C 897.653 1434.51 912.834 1441.96 918.663 1459.75 C 927.494 1486.7 924.913 1522.76 894.957 1533.7 C 839.995 1539.84 837.024 1443.56 879.443 1435.34 z"/>
<path transform="translate(0,0)" fill="rgb(254,254,254)" d="M 882.071 1454.68 C 903.79 1454.54 907.049 1501.04 888.72 1514.89 C 871.132 1514.71 871.04 1491.54 871.444 1478.68 C 871.763 1468.55 874.42 1461.43 882.071 1454.68 z"/>
<path transform="translate(0,0)" fill="url(#Gradient5)" d="M 439.744 1291.24 C 488.48 1289.83 496.252 1376.31 449.925 1391.85 C 399.491 1396.53 393.331 1302.07 439.744 1291.24 z"/>
<path transform="translate(0,0)" fill="rgb(254,254,254)" d="M 443.643 1310.66 C 446.505 1311.5 449.115 1313.04 451.247 1315.13 C 460.75 1324.61 459.885 1345.02 456.904 1357.06 C 455.044 1364.57 452.795 1367.13 447.241 1372.21 C 431.054 1369.17 430.467 1356.75 430.809 1342.77 C 431.125 1329.84 431.891 1317.69 443.643 1310.66 z"/>
<path transform="translate(0,0)" fill="rgb(5,5,6)" d="M 421.197 1435.27 C 422.894 1435.1 424.595 1434.97 426.299 1434.9 C 441.545 1434.26 462.062 1434.69 473.503 1446.09 C 492.556 1465.07 492.112 1503.37 473.829 1522.57 C 458.352 1534.54 439.627 1533.44 421.019 1533.61 C 421.633 1505.83 418.609 1461.14 421.197 1435.27 z"/>
<path transform="translate(0,0)" fill="rgb(254,254,254)" d="M 442.963 1454.54 C 472.477 1459.13 468.6 1488.25 459.021 1509.15 C 456.27 1512.35 446.489 1512.86 442.009 1513.4 C 441.861 1495.1 441.591 1472.56 442.963 1454.54 z"/>
<path transform="translate(0,0)" fill="rgb(5,5,6)" d="M 338.252 1293.58 C 354.447 1294.16 379.382 1290.38 391.312 1301.89 C 409.061 1319.02 401.221 1336.94 387.915 1351.87 C 392.433 1365.79 395.857 1375.4 402.163 1388.58 C 393.871 1389.21 388.99 1390 380.982 1391.57 C 378.012 1385.13 369.188 1356.01 363.356 1356.4 C 358.984 1362.32 360.34 1381.9 360.394 1389.85 L 337.49 1389.78 C 338.768 1357.37 337.08 1325.83 338.252 1293.58 z"/>
<path transform="translate(0,0)" fill="rgb(254,254,254)" d="M 360.468 1310.88 C 379.184 1312.15 386.285 1320.71 375.743 1337.58 C 372.1 1339.67 365.519 1339.91 361.249 1340.32 C 360.528 1329.74 360.377 1321.5 360.468 1310.88 z"/>
<path transform="translate(0,0)" fill="rgb(5,5,6)" d="M 695.11 1292.99 C 701.553 1292.91 707.996 1292.89 714.439 1292.93 C 734.699 1293.23 757.311 1299.56 756.668 1325.36 C 756.368 1337.36 750.639 1344.18 741.949 1351.92 C 747.651 1362.04 754.608 1379.5 759.339 1390.58 C 754.216 1390.7 741.426 1392.74 738.1 1391.13 C 733.935 1383.63 723.164 1357.85 720.593 1355.15 L 719.04 1355.4 C 715.577 1361.41 715.553 1382.96 714.906 1391.75 C 708.68 1392.03 702.285 1391.53 696.049 1391.17 C 693.922 1366.93 694.583 1318.23 695.11 1292.99 z"/>
<path transform="translate(0,0)" fill="rgb(254,254,254)" d="M 717.341 1311.16 C 732.576 1312.52 742.916 1322.41 730.417 1335.56 C 726.166 1337.6 720.093 1339.24 715.456 1340.64 C 715.782 1331.55 715.889 1319.91 717.341 1311.16 z"/>
<path transform="translate(0,0)" fill="rgb(5,5,6)" d="M 933.145 1436.11 L 954.124 1435.98 C 955.358 1439.56 957.016 1442.99 958.518 1446.46 C 965.16 1461.83 970.998 1477.5 977.163 1493.06 C 974.766 1473.66 974.959 1456.37 974.843 1436.86 L 996.304 1437.17 C 997.21 1466.52 996.477 1500.68 996.822 1530.87 L 995.595 1532.27 C 990.193 1533.33 983.442 1533 977.835 1532.95 C 968.596 1515.5 962.874 1497.02 953.811 1480.28 C 952.778 1497.81 953.319 1514.66 953.952 1532.14 C 946.895 1532.32 939.418 1532.17 932.326 1532.15 C 934.891 1508.31 932.263 1462.84 933.145 1436.11 z"/>
<path transform="translate(0,0)" fill="rgb(5,5,6)" d="M 1012.23 1293.46 C 1017.72 1293.12 1024.05 1293.54 1029.61 1293.77 C 1029.88 1305.92 1029.69 1318.68 1029.7 1330.88 L 1051.9 1330.66 C 1051.95 1318 1052.04 1306.26 1052.73 1293.59 C 1058.84 1293.97 1067.12 1293.79 1073.4 1293.84 C 1074.99 1306.74 1074.04 1330.02 1074.03 1343.55 C 1074.01 1356.82 1074.56 1375.9 1073.62 1388.73 C 1071.1 1390.61 1071.09 1389.94 1067.17 1390.03 L 1051.43 1389.9 C 1051.2 1377.02 1051.19 1363.6 1050.07 1350.81 C 1043.52 1349.96 1037.9 1350.17 1031.34 1350.26 C 1030.75 1364.01 1031.2 1376.32 1031.65 1390.03 C 1023.92 1390.69 1016.67 1390.19 1008.93 1389.85 C 1007.27 1372.52 1009.6 1351.84 1009.59 1333.7 C 1009.58 1323.61 1008.38 1305.21 1009.11 1294.7 C 1009.18 1293.78 1010.91 1293.75 1012.23 1293.46 z"/>
<path transform="translate(0,0)" fill="rgb(5,5,6)" d="M 508.856 1293.46 C 509.904 1293.32 510.387 1293.3 511.42 1293.66 C 517.238 1295.7 509.22 1354.99 515.366 1365.78 C 516.637 1368.02 518.657 1369.79 521.246 1370.24 C 524.473 1370.8 527.466 1369.66 530.137 1367.97 C 535.668 1360.69 534.461 1307.85 535.113 1293.97 L 554.717 1293.84 L 555.205 1333.81 C 555.376 1339.7 555.487 1345.59 555.539 1351.49 C 555.555 1362.68 554.29 1375.74 545.782 1383.99 C 530.488 1398.84 497.87 1395.08 494.167 1371.12 C 490.346 1346.4 491.852 1319.09 492.556 1293.92 L 508.856 1293.46 z"/>
<path transform="translate(0,0)" fill="rgb(5,5,6)" d="M 549.634 1435.23 C 549.308 1441.45 549.088 1448.13 548.602 1454.3 C 546.052 1455.13 524.552 1455.37 519.752 1455.66 L 519.337 1474.92 C 528.166 1474.89 535.996 1475.05 544.774 1473.96 C 545.137 1480.24 544.911 1486.86 544.818 1493.17 C 536.151 1493.38 527.245 1493.37 518.555 1493.46 C 518.338 1499.89 518.403 1506.53 518.383 1512.98 L 548.964 1512.98 L 549.029 1534.1 C 531.822 1533.12 515.425 1533.46 498.266 1533.96 C 497.897 1513.27 498.352 1492.5 497.821 1471.78 C 497.512 1459.72 497.337 1447.43 498.119 1435.39 C 514.55 1435.81 533.052 1435.32 549.634 1435.23 z"/>
<path transform="translate(0,0)" fill="rgb(5,5,6)" d="M 632.016 1292.84 C 648.485 1293.17 666.46 1292.74 683.051 1292.68 C 683.102 1299.43 682.78 1305.8 682.462 1312.53 L 655.021 1312.81 L 654.775 1330.42 C 662.39 1330.11 670.036 1330.38 677.658 1330.54 C 677.639 1337.16 677.308 1344.08 677.091 1350.73 C 670.118 1350.22 660.365 1350.35 653.176 1350.27 L 653.392 1368.03 C 653.425 1368.88 653.809 1369.34 654.238 1370.22 C 658.06 1371.39 675.866 1371.19 683.038 1372.09 C 683.5 1378.03 683.147 1384.56 682.973 1390.56 C 667.383 1391.14 649.577 1390.87 633.814 1390.99 C 633.125 1368.56 633.679 1346.01 632.561 1323.57 C 632.051 1313.32 631.72 1303.1 632.016 1292.84 z"/>
<path transform="translate(0,0)" fill="url(#Gradient4)" d="M 672.192 1435.57 L 673.304 1436.25 C 674.34 1440.49 673.904 1450.62 673.852 1455.42 C 663.788 1455.05 654.403 1455.4 644.341 1455.72 C 644.208 1462.42 644.128 1469.11 644.1 1475.81 L 670.013 1475.23 L 670.867 1493.37 C 662.081 1492.95 653.298 1492.49 644.516 1491.98 L 645.039 1513.1 C 652.508 1513.12 668.124 1513.31 674.895 1514.4 C 676.295 1516.73 675.644 1520.27 675.461 1523.15 L 675.943 1533.8 C 659.555 1532.88 639.794 1533.16 623.139 1533.05 L 623.88 1435.95 C 639.88 1435.65 656.168 1435.68 672.192 1435.57 z"/>
<path transform="translate(0,0)" fill="rgb(5,5,6)" d="M 714.071 1434.2 C 723.723 1433.15 747.191 1436.64 744.942 1450.74 C 743.968 1456.85 737.31 1460.59 732.537 1464.04 C 705.297 1428.49 692.362 1512.26 720.139 1514.07 C 725.949 1514.45 730.78 1508.99 734.272 1505.26 L 741.925 1511.52 L 748.947 1518.41 C 743.169 1524.36 739.414 1528.53 731.637 1531.65 C 723.764 1534.75 714.98 1534.59 707.228 1531.2 C 673.067 1516.48 672.946 1449.89 714.071 1434.2 z"/>
<path transform="translate(0,0)" fill="rgb(5,5,6)" d="M 939.241 1293.02 C 958.178 1293.13 979.55 1292.52 998.169 1293.74 C 998.597 1300.69 998.468 1306 998.265 1312.9 L 981.409 1312.62 C 980.83 1333.56 981.321 1355.74 981.518 1376.7 L 981.506 1389.89 C 974.731 1390.86 966.829 1390.35 959.904 1390.16 C 958.187 1369.83 959.112 1334.66 959.089 1313.19 C 952.529 1312.91 945.751 1313.06 939.169 1313.1 L 939.241 1293.02 z"/>
<path transform="translate(0,0)" fill="rgb(5,5,6)" d="M 563.962 1293.04 C 583.934 1293.31 603.908 1293.3 623.88 1293.02 C 623.396 1299.16 623.199 1305.95 622.886 1312.16 C 617.109 1312.74 611.346 1313.45 605.602 1314.29 C 604.412 1330.95 605.101 1357.87 604.939 1375.3 L 604.096 1390.39 L 583.166 1392.18 C 583.367 1367.33 583.772 1337.11 582.611 1312.52 C 574.812 1311.71 570.985 1311.21 563.043 1311.89 C 563.424 1305.61 563.73 1299.33 563.962 1293.04 z"/>
<path transform="translate(0,0)" fill="rgb(5,5,6)" d="M 549.634 1435.23 C 552.732 1435.08 558.839 1434.38 561.463 1435.05 C 579.064 1435.47 596.667 1435.75 614.272 1435.88 L 614.042 1453.64 C 607.76 1453.9 600.635 1454.03 594.446 1454.62 C 595.077 1480.65 594.001 1507.29 594.806 1532.88 L 575.08 1533.23 C 573.328 1509.16 574.08 1479.44 574.242 1455.04 C 569.631 1455 558.898 1455.33 555.067 1454 C 552.118 1453.19 551.695 1453.51 548.602 1454.3 C 549.088 1448.13 549.308 1441.45 549.634 1435.23 z"/>
<path transform="translate(0,0)" fill="rgb(241,238,237)" d="M 549.634 1435.23 C 552.732 1435.08 558.839 1434.38 561.463 1435.05 C 552.196 1437.43 555.49 1445.82 555.067 1454 C 552.118 1453.19 551.695 1453.51 548.602 1454.3 C 549.088 1448.13 549.308 1441.45 549.634 1435.23 z"/>
<path transform="translate(0,0)" fill="rgb(5,5,6)" d="M 751.845 1435.75 C 770.842 1435.85 789.84 1435.83 808.837 1435.67 L 808.579 1453.94 C 802.556 1453.72 796.38 1454.03 790.344 1454.24 C 790.04 1475.07 789.893 1495.91 789.903 1516.75 L 789.894 1533.03 C 782.897 1533.14 777.595 1533.39 770.597 1534.01 C 769.151 1509.69 769.852 1479.75 769.842 1455.18 C 763.172 1454.83 753.968 1456.61 749.137 1451.77 C 747.054 1446.25 749.731 1441.26 751.845 1435.75 z"/>
<path transform="translate(0,0)" fill="rgb(5,5,6)" d="M 909.282 1292.34 C 916.018 1292.21 923.094 1292.4 929.857 1292.47 C 930.42 1320.63 930.664 1362.13 928.982 1390.03 C 921.589 1390.78 916.592 1390.4 909.254 1390.01 C 908.765 1360.14 906.541 1321.1 909.282 1292.34 z"/>
<path transform="translate(0,0)" fill="rgb(5,5,6)" d="M 830.518 1435.44 C 833.8 1435.26 834.332 1435.18 837.513 1435.8 C 840.564 1440.12 839.081 1520.64 838.715 1532.56 L 830.25 1532.86 C 826.558 1532.99 822.942 1533.48 819.573 1532.21 C 819.065 1528.5 818.952 1525.02 819.009 1521.28 C 819.435 1492.91 818.12 1463.99 819.497 1435.67 C 823.115 1435.66 826.888 1435.53 830.518 1435.44 z"/>
<path transform="translate(0,0)" fill="rgb(5,5,6)" d="M 871.93 657.768 C 872.314 608.347 868.818 558.333 871.78 508.852 C 872.689 493.681 870.616 457.649 893.364 458.191 C 909.026 458.565 916.37 466.019 918.05 481.619 C 920.742 506.615 920.018 531.565 919.761 556.697 L 918.517 660.443 C 955.117 668.508 994.063 698.048 1000.88 736.631 L 1001.06 737.721 L 1002.38 738.493 L 1004.87 735.898 L 1006.52 737.43 C 1004.66 741.028 1002.84 743.817 1002.89 747.891 L 1003.53 748.734 C 1006.69 745.838 1005.72 742.399 1009.82 738.021 L 1011.64 739.143 C 1009.41 743.407 1007.2 747.684 1005.02 751.972 C 1008.46 783.828 1003.35 805.67 983.98 831.641 C 997.35 845.159 995.814 841.372 1012.42 848.966 C 1023.33 853.957 1040.49 879.23 1050.23 888.069 C 1059.23 897.588 1069.72 905.551 1078.61 915.181 C 1097.13 935.249 1066.84 966.727 1046.41 957.013 C 1041.73 954.788 1021.36 932.631 1017.02 927.85 C 1010.33 920.487 973.563 888.367 972.124 883.047 C 973.073 881.438 973.905 880.112 974.933 878.551 C 973.206 872.383 961.184 860.83 956.442 855.823 C 934.671 867.323 920.428 872.814 895.262 873.574 C 897.689 878.561 901.056 884.154 899.669 889.621 C 895.289 893.557 817.342 891.394 802.414 892.652 L 802.081 866.325 C 790.843 867.837 757.418 866.177 743.461 866.217 L 602.952 867.098 C 602.584 875.313 602.971 883.783 603.197 892.02 C 572.391 891.118 534.823 890.979 504.137 891.665 L 505.064 865.38 C 483.513 866.027 467.866 868.895 455.119 846.927 C 454.031 845.052 452.791 833.143 452.815 830.727 C 453.006 811.793 454.491 792.853 454.387 773.91 C 454.419 748.81 452.929 723.466 453.119 698.426 C 453.163 692.703 455.262 676.93 457.952 672.471 C 464.185 662.141 474.266 659.51 484.969 656.596 C 486.661 610.264 484.415 565.813 485.067 519.657 C 485.204 509.947 485.714 485.658 487.543 477.05 C 488.343 473.209 490.206 469.669 492.918 466.834 C 507.88 450.95 533.576 463.085 534.897 485.081 C 538.369 542.861 534.723 601.49 535.226 659.413 C 567.94 658.86 600.34 657.412 633.188 657.742 C 664.617 658.057 696.076 658.963 727.482 658.924 L 871.93 657.768 z"/>
<path transform="translate(0,0)" fill="rgb(254,254,254)" d="M 690.185 666.49 C 748.92 665.591 807.634 666.905 866.265 665.812 C 822.697 687.498 807.561 706.303 795.995 753.641 C 758.574 696.5 689.329 701.642 649.901 750.695 C 646.071 755.461 641.45 759.324 640.922 765.44 C 640.384 771.693 655.925 789.072 659.095 792.586 C 674.751 809.939 698.793 818.32 721.558 819.406 C 752.738 821.477 773.996 802.528 795.908 782.647 C 797.661 794.682 803.622 809.496 808.483 820.593 C 817.102 838.42 826.715 847.952 844.013 856.971 C 830.418 856.359 816.806 857.397 803.188 857.797 C 787.676 858.133 772.161 858.277 756.646 858.229 L 570.819 857.581 C 542.284 857.614 511.748 859.938 483.24 857.975 C 469.325 857.017 461.336 841.321 461.126 828.264 C 460.671 800.031 461.195 770.711 461.329 742.373 C 461.522 724.999 460.669 707.652 461.73 690.38 C 465.104 662.832 487.705 667.449 507.39 667.198 C 568.392 666.421 629.237 667.658 690.185 666.49 z"/>
<path transform="translate(0,0)" fill="rgb(5,5,6)" d="M 503.295 742.094 C 526.441 741.039 547.247 768.901 515.6 785.478 C 509.981 786.713 507.154 786.669 501.748 784.422 C 495.278 781.803 490.145 776.675 487.52 770.208 C 481.948 756.171 490.683 746.459 503.295 742.094 z"/>
<path transform="translate(0,0)" fill="rgb(253,138,130)" d="M 506.509 751.02 C 522.534 751.946 527.23 765.939 511.924 775.364 C 494.464 776.208 488.989 760.512 506.509 751.02 z"/>
<path transform="translate(0,0)" fill="rgb(5,5,6)" d="M 571.036 742.069 C 581.251 741.384 591.406 744.031 596.495 753.895 C 599 758.775 599.381 764.472 597.55 769.643 C 594.546 778.178 588.406 781.576 580.877 785.334 C 561.839 790.25 537.387 757.733 571.036 742.069 z"/>
<path transform="translate(0,0)" fill="rgb(196,232,252)" d="M 573.402 751.052 C 591.579 749.659 596.934 765.529 579.701 775.731 C 563.061 777.782 556.211 761.968 573.402 751.052 z"/>
<path transform="translate(0,0)" fill="rgb(254,254,254)" d="M 882.982 670.962 C 936.234 660.961 987.474 696.141 997.273 749.431 C 1007.07 802.721 971.699 853.827 918.372 863.424 C 865.33 872.97 814.556 837.826 804.81 784.821 C 795.063 731.816 830.014 680.909 882.982 670.962 z"/>
<path transform="translate(0,0)" fill="rgb(5,5,6)" d="M 890.611 691.995 C 931.851 686.213 969.965 714.975 975.717 756.22 C 981.469 797.465 952.679 835.557 911.43 841.279 C 870.223 846.996 832.179 818.242 826.432 777.039 C 820.686 735.837 849.412 697.771 890.611 691.995 z"/>
<path transform="translate(0,0)" fill="rgb(254,254,254)" d="M 890.491 699.313 C 927.624 693.84 962.212 719.361 967.936 756.456 C 973.66 793.55 948.374 828.31 911.32 834.286 C 873.909 840.319 838.74 814.736 832.96 777.284 C 827.181 739.833 853.002 704.838 890.491 699.313 z"/>
<path transform="translate(0,0)" fill="rgb(5,5,6)" d="M 880.341 722.757 C 887.855 722.638 896.11 724.148 904.59 722.831 C 921.969 720.134 928.582 731.355 923.191 746.819 C 921.973 750.314 931.094 758.792 933.221 762.062 C 935.837 766.083 937.843 769.429 940.107 773.496 C 932.541 781.518 926.099 785.325 918.788 794.907 C 922.543 799.569 928.876 805.103 930.769 810.581 L 929.957 811.5 C 924.261 810.797 920.647 807.334 916.301 803.786 L 910.12 796.531 L 896.967 793.223 L 896.233 793.569 C 888.053 797.371 879.552 808.927 873.559 808.561 C 868.572 802.921 874.719 797.195 878.391 792.388 C 870.104 781.944 868.106 781.771 856.254 775.409 C 860.289 769.23 869.19 760.704 874.763 753.077 C 874.907 743.829 873.689 729.24 880.341 722.757 z"/>
<path transform="translate(0,0)" fill="rgb(254,254,254)" d="M 887.309 750.918 C 906.932 750.045 915.94 750.364 925.961 769.454 C 920.621 776.972 914.717 783.011 909.496 790.215 C 906.913 787.941 900.057 781.228 897.175 780.802 C 893.506 785.182 890.879 786.913 886.274 790.351 C 882.577 783.86 879.954 779.806 874.16 775.1 L 871.522 773.271 C 871.47 767.689 883.078 755.41 887.309 750.918 z"/>
<path transform="translate(0,0)" fill="rgb(241,238,237)" d="M 874.16 775.1 C 890.452 772.969 884.941 776.203 897.175 780.802 C 893.506 785.182 890.879 786.913 886.274 790.351 C 882.577 783.86 879.954 779.806 874.16 775.1 z"/>
<path transform="translate(0,0)" fill="rgb(241,238,237)" d="M 899.05 731.592 L 913.559 730.509 C 913.432 734.638 913.904 738.869 911.608 741.979 C 908.337 743.735 905.243 743.032 901.394 742.757 C 895.497 742.485 889.318 743.231 887.108 736.633 L 888.407 734.188 C 891.609 731.564 894.76 731.89 899.05 731.592 z"/>
<path transform="translate(0,0)" fill="rgb(254,254,254)" d="M 717.911 720.352 C 747.493 717.372 780.295 741.99 795.245 766.084 C 781.714 792.716 754.905 807.696 725.912 811.452 C 693.045 813.344 665.65 791.047 648.335 765.045 C 667.154 743.63 688.495 724.092 717.911 720.352 z"/>
<path transform="translate(0,0)" fill="rgb(5,5,6)" d="M 717.643 731.314 C 762.154 731.639 769.674 784.256 728.722 797.555 C 719.702 798.532 711.409 798.943 704.293 792.633 C 682.925 773.681 685.732 735.662 717.643 731.314 z"/>
<path transform="translate(0,0)" fill="rgb(120,184,86)" d="M 713.867 742.176 C 744.546 740.44 762.437 770.983 732.647 788.674 C 699.431 801.634 688.5 754.685 713.867 742.176 z"/>
<path transform="translate(0,0)" fill="rgb(254,254,254)" d="M 494.105 519.267 C 504.435 518.676 517.128 518.974 527.641 518.963 C 525.967 563.3 527.533 615.087 528.237 659.848 C 516.49 659.819 505.684 659.881 493.939 658.87 C 492.962 648.795 492.954 637.53 493.063 627.375 C 493.45 591.475 492.433 555.12 494.105 519.267 z"/>
<path transform="translate(0,0)" fill="rgb(254,254,254)" d="M 879.329 520.337 C 890.748 519.867 899.882 519.7 911.286 520.058 C 912.126 539.288 910.977 560.751 911.262 580.152 C 911.648 606.375 912.006 632.609 911.97 658.836 C 900.541 658.542 889.393 658.791 877.978 659.009 C 880.1 612.258 878.201 566.479 879.329 520.337 z"/>
<path transform="translate(0,0)" fill="rgb(254,254,254)" d="M 1003.97 854.751 C 1006.67 855.576 1009.17 857.046 1011.38 858.791 C 1021.6 866.87 1075.4 920.668 1075.87 930.765 C 1076.1 935.632 1073.07 940.343 1069.81 943.72 C 1065.24 948.443 1059.99 950.776 1053.45 950.937 C 1027.93 937.551 1002.99 898.182 978.659 879.148 C 987.027 870.891 994.781 861.928 1003.97 854.751 z"/>
<path transform="translate(0,0)" fill="rgb(254,254,254)" d="M 511.762 865.97 C 535.18 866.056 570.367 865.114 592.868 867.013 C 593.211 871.852 593.939 878.939 593.49 883.553 C 566.182 883.307 538.872 883.415 511.567 883.877 C 511.393 877.905 511.61 871.942 511.762 865.97 z"/>
<path transform="translate(0,0)" fill="rgb(254,254,254)" d="M 506.367 468.062 C 531.542 466.97 528.295 490.639 527.636 508.074 L 516.645 508.647 L 494.818 508.926 C 494.105 493.235 489.75 475.749 506.367 468.062 z"/>
<path transform="translate(0,0)" fill="rgb(254,254,254)" d="M 812.453 866.176 C 834.086 865.112 867.436 865.376 887.847 873.009 C 889.515 876.339 891.457 879.297 891.493 882.904 C 865.776 882.667 836.639 883.757 811.369 882.512 C 811.33 876.17 811.693 872.512 812.453 866.176 z"/>
<path transform="translate(0,0)" fill="rgb(254,254,254)" d="M 891.571 466.904 C 903.866 466.123 908.889 471.994 911.688 483.481 C 913.44 490.67 913.234 499.827 909.779 506.487 C 908.825 508.326 904.988 508.451 902.934 508.812 C 895.799 508.956 888.259 508.828 881.089 508.816 C 880.311 492.76 875.787 475.847 891.571 466.904 z"/>
<path transform="translate(0,0)" fill="rgb(254,254,254)" d="M 979.127 836.749 L 980.113 837.26 C 983.772 844.197 989.822 847.989 996.507 851.747 C 989.887 856.675 984.805 861.549 979.106 867.446 C 975.867 866.507 966.012 855.566 961.082 851.785 C 968.216 847.528 973.259 842.457 979.127 836.749 z"/>
<path transform="translate(0,0)" fill="rgb(5,5,6)" d="M 696.242 358.402 C 731.351 356.247 763.521 363.604 796.532 377.79 C 811.187 384.087 848.175 403.049 858.268 417.89 C 859.026 419.004 857.803 420.559 857.033 422.109 C 850.783 425.205 842.191 414.405 835.502 410.041 C 794.03 382.98 765.25 371.106 717.087 367.606 C 666.404 363.421 617.414 381.061 577.742 411.389 C 572.243 415.592 565.774 422.935 558.811 423.623 C 552.382 417.922 566.418 407.117 570.741 403.993 C 611.956 374.212 645.713 362.244 696.242 358.402 z"/>
<path transform="translate(0,0)" fill="url(#Gradient3)" d="M 1072.48 548.355 C 1076.36 549.56 1080.46 554.944 1082.8 558.176 C 1134.14 629.09 1143.15 724.276 1092.58 798.127 C 1086.42 807.12 1081.66 815.414 1072.54 822.188 C 1070.53 820.72 1067.52 819.134 1069.17 816.548 C 1080.66 798.54 1091.84 783.484 1100.58 763.646 C 1124.21 708.694 1121.74 646.006 1093.86 593.084 C 1088.85 583.769 1068.75 557.622 1067.63 554.746 L 1072.48 548.355 z"/>
<path transform="translate(0,0)" fill="rgb(5,5,6)" d="M 338.521 551.502 C 340.633 551.615 342.234 552.244 344.249 552.868 C 347.973 557.166 344.274 560.39 341.139 564.976 C 337.85 569.785 332.572 575.053 329.355 580.107 C 314.758 603.044 302.369 632.867 298.712 659.962 C 293.315 699.943 302.1 745.158 321.953 780.367 C 328.185 791.419 339.633 804.2 346.68 815.064 C 346.756 816.499 346.82 817.703 346.871 818.677 C 345.758 819.442 343.735 820.955 342.57 820.659 C 334.111 818.509 323.593 801.183 319.756 795.085 C 271.539 718.45 280.265 620.257 338.521 551.502 z"/>
<path transform="translate(0,0)" fill="rgb(5,5,6)" d="M 701.154 560.28 C 739.804 557.198 750.435 605.498 711.778 618.754 C 697.03 620.115 682.115 607.828 678.494 593.915 C 676.705 586.809 677.848 579.283 681.666 573.03 C 686.48 565.144 692.685 562.415 701.154 560.28 z"/>
<path transform="translate(0,0)" fill="rgb(120,184,86)" d="M 705.405 568.627 C 717.233 567.856 727.466 576.779 728.312 588.603 C 729.158 600.426 720.3 610.716 708.482 611.637 C 696.557 612.567 686.155 603.612 685.301 591.681 C 684.447 579.75 693.469 569.405 705.405 568.627 z"/>
<path transform="translate(0,0)" fill="url(#Gradient2)" d="M 689.889 408.309 C 736.539 402.395 786.121 421.619 821.509 450.524 C 823.713 452.323 823.582 453.459 823.694 455.953 C 822.839 457.89 822.155 459.631 820.537 460.92 C 816.555 464.089 798.892 447.74 793.302 444.123 C 770.043 429.07 750.502 422.305 723.249 418.205 C 685.633 413.537 648.223 425.948 616.374 445.821 C 610.239 449.649 598.825 460.556 594.886 461.942 C 591.387 461.521 592.563 462.177 590.434 459.739 C 589.106 451.036 601.472 443.54 607.824 439.361 C 632.584 423.144 660.595 412.545 689.889 408.309 z"/>
<path transform="translate(0,0)" fill="rgb(5,5,6)" d="M 375.249 584.863 C 380.436 587.229 381.036 587.939 385.167 591.918 C 333.851 645.115 331.388 723.594 383.011 777.553 C 385.305 779.951 384.905 780.08 384.596 782.968 C 382.889 784.052 381.844 784.482 380.033 785.283 C 377.946 784.922 375.271 784.132 373.8 782.509 C 330.817 735.075 326.4 666.078 356.519 610.699 C 361.626 601.309 368.711 592.9 375.249 584.863 z"/>
<path transform="translate(0,0)" fill="rgb(5,5,6)" d="M 1037.53 585.456 C 1041.22 586.334 1042.8 588.943 1045.05 591.855 C 1076.67 632.781 1085.11 689.774 1067 738.127 C 1061.04 754.033 1047.89 777.382 1034.61 787.738 C 1033.4 786.07 1032.24 784.182 1031.12 782.433 C 1031.06 780.496 1030.7 779.257 1032.01 777.758 C 1044.47 763.439 1051.45 752.277 1058.42 734.621 C 1073.93 695.325 1070.7 655.324 1049.86 618.554 C 1045.08 610.118 1036.07 599.775 1032.56 591.979 C 1033.47 588.371 1034.51 588.323 1037.53 585.456 z"/>
<path transform="translate(0,0)" fill="url(#Gradient1)" d="M 693.769 459.336 C 716.631 457.571 741.973 460.706 761.835 472.768 C 767.926 476.467 792.317 490.473 787.083 498.897 C 785.74 499.389 781.038 499.319 780.123 498.485 C 760.143 480.243 747.367 473.207 720.131 469.131 C 692.908 465.232 665.243 472.199 643.113 488.526 C 638.631 491.831 632.158 498.623 627.555 499.701 C 624.598 498.476 625.615 499.29 623.931 496.018 C 623.995 490.783 627.114 488.337 631.095 485.454 C 650.438 471.446 670.149 462.618 693.769 459.336 z"/>
<path transform="translate(0,0)" fill="rgb(5,5,6)" d="M 414.264 622.5 C 417.429 623.661 419.423 623.945 421.168 626.725 C 420.936 628.257 407.989 647.613 406.569 649.913 C 386.621 682.237 399.122 719.158 420.978 746.549 C 421.575 747.298 419.144 749.35 418.386 750.155 L 417.13 749.888 C 398.622 746.142 385.95 700.564 386.52 683.561 C 387.385 660.352 397.352 638.417 414.264 622.5 z"/>
<path transform="translate(0,0)" fill="rgb(5,5,6)" d="M 1004.87 735.898 C 1025.99 692.45 1023.55 668.69 995.819 629.712 C 994.808 628.291 995.601 626.844 996.194 625.576 C 1004.31 622.191 1008.98 629.101 1012.7 635.344 C 1029.97 664.347 1031.57 699.013 1017.59 729.681 C 1016.28 732.547 1013.83 736.873 1011.64 739.143 L 1009.82 738.021 C 1005.72 742.399 1006.69 745.838 1003.53 748.734 L 1002.89 747.891 C 1002.84 743.817 1004.66 741.028 1006.52 737.43 L 1004.87 735.898 z"/>
<path transform="translate(0,0)" fill="rgb(5,5,6)" d="M 699.533 509.318 C 712.452 508.695 751.518 516.306 755.651 530.116 C 754.867 533.873 755.305 532.562 752.619 535.705 C 750.992 536.288 750.019 537.054 748.422 536.046 C 735.416 527.843 734.651 525.287 719.639 520.984 C 707.931 519.05 697.125 519.298 685.582 522.492 C 677.551 524.715 663.67 541.202 658.709 533.378 C 659.763 520.509 688.03 510.782 699.533 509.318 z"/>
</svg>