<svg version="1.1" xmlns="http://www.w3.org/2000/svg" style="display: block;" viewBox="0 0 2048 2048" width="1000" height="1000" preserveAspectRatio="none">
<defs>
	<linearGradient id="Gradient1" gradientUnits="userSpaceOnUse" x1="1412.93" y1="1225.17" x2="1428.48" y2="1172.69">
		<stop class="stop0" offset="0" stop-opacity="1" stop-color="rgb(208,140,23)"/>
		<stop class="stop1" offset="1" stop-opacity="1" stop-color="rgb(245,187,36)"/>
	</linearGradient>
</defs>
<path transform="translate(0,0)" fill="rgb(231,231,227)" d="M 751.852 355.04 C 756.475 343.671 757.989 333.402 764.5 321.817 C 778.242 297.362 797.822 281.963 824.549 274.078 C 854.199 265.139 886.201 268.553 913.298 283.545 C 943.559 300.347 951.954 316.857 960.839 347.525 C 972.169 353.519 985.816 354.695 997.788 358.414 C 1011.21 362.583 1028.14 367.68 1041.01 373.101 C 1117.55 405.715 1184.49 457.351 1235.46 523.106 C 1247.85 538.821 1258.14 555.655 1269.86 571.832 C 1270.6 573.951 1264.84 610.211 1264.26 615.38 C 1256.11 687.486 1275.69 759.992 1319.02 818.196 C 1326.8 828.677 1335.05 837.268 1343.83 846.827 C 1341.65 865.54 1338.51 899.167 1330.37 915.358 C 1324.78 930.132 1321.79 943.475 1314.96 958.375 C 1280.9 1032.67 1209.59 1079.17 1134.71 1105.57 C 1129.68 1107.34 1124.57 1109.06 1120 1111.89 C 1122.88 1117.46 1138.07 1130.04 1143.56 1134.08 C 1147.4 1140.66 1151.66 1147.67 1155.23 1154.34 C 1163.18 1182.47 1160.77 1213.87 1142.85 1237.68 C 1116.58 1272.58 1060.18 1279.43 1028.02 1249.04 C 1024.72 1249.93 1022.06 1250.46 1018.93 1251.92 C 1019.19 1261.9 1008.65 1302.68 1004.64 1312.56 C 1001.58 1322.66 996.678 1333.86 994.24 1341.99 C 984.711 1353.81 974.729 1360.42 959.576 1363.16 C 896.158 1374.62 832.425 1370.2 768.784 1367.23 C 758.54 1365.18 748.243 1363.39 737.904 1361.87 C 723.322 1357.15 698.664 1353.05 688.001 1342.26 C 669.988 1324.04 665.212 1259.03 664.045 1233.64 C 658.045 1228.15 653.883 1225.87 646.945 1221.69 C 643.175 1221.84 636.813 1223.46 633.001 1224.28 C 606.145 1230.09 576.61 1221.89 557.009 1202.55 C 551.296 1196.91 548.071 1189.83 541.246 1184.04 C 538.808 1172.06 535.612 1166.96 534.596 1152.88 C 535.177 1133.98 536.339 1118.99 546.664 1102.46 C 550.205 1096.8 553.635 1092.52 556.485 1086.38 C 549.811 1079.41 527.551 1069.86 517.061 1062.42 C 458.797 1021.13 434.636 983.991 409.086 919.312 C 389.567 910.654 350.359 922.19 333.979 900.31 C 330.383 895.508 326.753 887.566 326.563 881.607 C 325.227 839.921 326.346 798.077 325.751 756.353 C 324.433 709.952 340.456 707.209 382.455 699.104 C 389.911 697.665 403.236 694.258 410.362 695.398 C 416.286 692.379 420.259 678.304 422.211 671.827 C 432.901 636.354 448.857 604.366 468.336 572.649 C 519.872 486.983 596.357 419.112 687.544 378.129 C 704.74 370.468 733.586 359.4 751.852 355.04 z"/>
<path transform="translate(0,0)" fill="rgb(36,36,36)" d="M 556.485 1086.38 C 574.395 1096.79 596.14 1104.85 615.674 1111.98 C 620.228 1113.64 636.582 1117.66 638.182 1119.04 C 725.029 1143.04 808.371 1148.92 898.334 1146.5 C 919.82 1145.93 942.027 1145.3 963.403 1143.2 C 982.551 1141.33 1002.23 1138.45 1021.3 1135.76 C 1031.78 1134.28 1042.64 1131.34 1053.13 1130.2 C 1076.05 1126.98 1099.36 1116.26 1120 1111.89 C 1122.88 1117.46 1138.07 1130.04 1143.56 1134.08 C 1147.4 1140.66 1151.66 1147.67 1155.23 1154.34 C 1163.18 1182.47 1160.77 1213.87 1142.85 1237.68 C 1116.58 1272.58 1060.18 1279.43 1028.02 1249.04 C 1024.72 1249.93 1022.06 1250.46 1018.93 1251.92 C 1019.19 1261.9 1008.65 1302.68 1004.64 1312.56 C 1001.58 1322.66 996.678 1333.86 994.24 1341.99 C 984.711 1353.81 974.729 1360.42 959.576 1363.16 C 896.158 1374.62 832.425 1370.2 768.784 1367.23 C 758.54 1365.18 748.243 1363.39 737.904 1361.87 C 723.322 1357.15 698.664 1353.05 688.001 1342.26 C 669.988 1324.04 665.212 1259.03 664.045 1233.64 C 658.045 1228.15 653.883 1225.87 646.945 1221.69 C 643.175 1221.84 636.813 1223.46 633.001 1224.28 C 606.145 1230.09 576.61 1221.89 557.009 1202.55 C 551.296 1196.91 548.071 1189.83 541.246 1184.04 C 538.808 1172.06 535.612 1166.96 534.596 1152.88 C 535.177 1133.98 536.339 1118.99 546.664 1102.46 C 550.205 1096.8 553.635 1092.52 556.485 1086.38 z"/>
<path transform="translate(0,0)" fill="rgb(231,231,227)" d="M 664.045 1233.64 C 677.375 1238.66 725.588 1239.69 742.221 1240.52 L 847.715 1245.87 L 956.061 1251.45 C 973.654 1252.38 1003.05 1256.68 1018.93 1251.92 C 1019.19 1261.9 1008.65 1302.68 1004.64 1312.56 C 1001.58 1322.66 996.678 1333.86 994.24 1341.99 C 984.711 1353.81 974.729 1360.42 959.576 1363.16 C 896.158 1374.62 832.425 1370.2 768.784 1367.23 C 758.54 1365.18 748.243 1363.39 737.904 1361.87 C 723.322 1357.15 698.664 1353.05 688.001 1342.26 C 669.988 1324.04 665.212 1259.03 664.045 1233.64 z"/>
<path transform="translate(0,0)" fill="rgb(214,213,213)" d="M 1053.13 1130.2 C 1076.05 1126.98 1099.36 1116.26 1120 1111.89 C 1122.88 1117.46 1138.07 1130.04 1143.56 1134.08 C 1147.4 1140.66 1151.66 1147.67 1155.23 1154.34 C 1163.18 1182.47 1160.77 1213.87 1142.85 1237.68 C 1116.58 1272.58 1060.18 1279.43 1028.02 1249.04 C 1033.64 1244.11 1038.18 1239.29 1042.29 1233.02 C 1044.54 1229.58 1047.91 1222.8 1048.6 1219.06 C 1050.79 1207.26 1054.77 1137.26 1053.13 1130.2 z"/>
<path transform="translate(0,0)" fill="rgb(214,213,213)" d="M 556.485 1086.38 C 574.395 1096.79 596.14 1104.85 615.674 1111.98 C 620.228 1113.64 636.582 1117.66 638.182 1119.04 C 636.797 1143.03 633.372 1177.59 636.065 1201.18 C 636.866 1208.19 642.418 1216.24 646.945 1221.69 C 643.175 1221.84 636.813 1223.46 633.001 1224.28 C 606.145 1230.09 576.61 1221.89 557.009 1202.55 C 551.296 1196.91 548.071 1189.83 541.246 1184.04 C 538.808 1172.06 535.612 1166.96 534.596 1152.88 C 535.177 1133.98 536.339 1118.99 546.664 1102.46 C 550.205 1096.8 553.635 1092.52 556.485 1086.38 z"/>
<path transform="translate(0,0)" fill="rgb(214,213,213)" d="M 409.086 919.312 C 389.567 910.654 350.359 922.19 333.979 900.31 C 330.383 895.508 326.753 887.566 326.563 881.607 C 325.227 839.921 326.346 798.077 325.751 756.353 C 324.433 709.952 340.456 707.209 382.455 699.104 C 389.911 697.665 403.236 694.258 410.362 695.398 C 410.74 708.028 404.421 724.26 402.194 736.772 C 392.814 789.481 390.685 840.231 402.051 892.856 C 403.585 899.961 408.772 913.014 409.086 919.312 z"/>
<path transform="translate(0,0)" fill="rgb(36,36,36)" d="M 843.944 450.409 C 846.064 450.273 848.185 450.151 850.307 450.043 C 945.187 445.532 1037.95 479.036 1108.05 543.136 C 1183.01 611.106 1231.2 696.471 1238.76 798.59 C 1254.69 1013.81 1062.08 1038.66 897.483 1044.69 C 749.865 1049.26 515.923 1039.98 501.967 849.072 C 495.062 754.611 527.03 663.279 585.848 589.922 C 651.78 507.692 739.307 460.558 843.944 450.409 z"/>
<path transform="translate(0,0)" fill="rgb(231,231,227)" d="M 834.672 787.369 C 837.903 785.193 910.218 785.615 918.276 786.878 C 920.907 789.642 923.633 792.634 926.39 795.239 C 928.463 827.924 928.042 909.38 879.266 915.168 C 869.899 916.279 858.816 910.592 852.336 904.413 C 831.916 885.92 828.258 845.541 827.605 819.733 C 827.446 811.423 827.53 803.11 827.856 794.805 L 834.672 787.369 z"/>
<path transform="translate(0,0)" fill="rgb(214,213,213)" d="M 834.672 787.369 C 837.903 785.193 910.218 785.615 918.276 786.878 C 899.425 788.28 851.5 794.555 834.672 787.369 z"/>
<path transform="translate(0,0)" fill="rgb(231,231,227)" d="M 1022.62 671.915 C 1028.85 670.815 1031.71 670.659 1037.97 670.422 C 1038.08 674.364 1038.78 679.687 1036.97 682.914 C 1034.14 684.179 1035.65 683.808 1032.17 683.515 C 998.709 688.008 974 701.709 954.926 729.396 C 991.411 724.088 1026.91 733.216 1061.73 743.159 L 1060.87 756.831 C 1051.95 755.1 1041.94 751.39 1033.02 748.809 C 1020.72 745.292 1008.1 743.059 995.341 742.147 C 985.523 741.377 974.403 741.173 964.502 741.687 C 956.364 742.109 947.963 744.056 939.854 743.598 C 930.843 735.094 946.182 716.8 952.188 709.688 C 967.607 691.425 998.726 673.712 1022.62 671.915 z"/>
<path transform="translate(0,0)" fill="rgb(214,213,213)" d="M 1022.62 671.915 C 1028.85 670.815 1031.71 670.659 1037.97 670.422 C 1038.08 674.364 1038.78 679.687 1036.97 682.914 C 1034.14 684.179 1035.65 683.808 1032.17 683.515 C 1032.17 679.755 1032.39 677.719 1031.31 674.068 C 1027.92 671.637 1027.5 672.39 1022.62 671.915 z"/>
<path transform="translate(0,0)" fill="rgb(231,231,227)" d="M 700.804 670.482 C 711.354 671.348 721.769 673.43 731.841 676.686 C 760.214 686.07 783.54 703.185 797.84 730.154 C 800.011 734.249 800.905 737.788 799.337 742.212 C 795.279 745.893 791.89 744.752 786.544 744.035 C 752.187 739.425 724.356 741.866 691.357 753.021 C 684.714 755.732 681.76 757.84 675.272 753.899 C 672.689 749.794 674.018 745.209 678.016 743.547 C 707.38 731.339 752.598 726.253 782.273 730.964 C 780.768 728.512 779.21 726.092 777.6 723.707 C 759.852 697.743 729.945 688.865 700.762 683.419 L 700.804 670.482 z"/>
<path transform="translate(0,0)" fill="rgb(242,183,34)" d="M 1269.86 571.832 C 1270.17 571.438 1270.51 571.056 1270.81 570.649 C 1278.29 560.515 1282.64 508.402 1295.18 506.184 C 1297.74 505.729 1300.3 506.275 1302.78 506.948 C 1315.94 510.527 1328.66 516.536 1341.67 520.742 C 1358.78 526.273 1376.67 530.481 1393.53 536.588 C 1396.84 537.79 1399.96 539.223 1402.81 541.319 C 1409.3 552.144 1390.35 598.957 1409.69 595.183 C 1418.29 585.034 1410.96 556.593 1432.78 554.646 C 1482.93 550.17 1658.02 614.1 1711.05 635.563 C 1745.28 649.419 1781.31 664.586 1813.1 683.412 C 1818.42 686.563 1824.69 689.607 1829.28 693.743 C 1833.01 697.105 1835.12 701.247 1835.36 706.283 C 1835.9 717.673 1823.7 731.196 1826.56 742.38 C 1829.33 742.646 1831.19 741.123 1833.4 739.459 C 1841.32 733.476 1847.31 712.022 1853.93 709.138 C 1855.94 708.262 1859.53 708.682 1861.65 708.895 C 1871.35 709.871 1960.44 739.274 1966.06 745.656 C 1967.46 747.256 1967.7 750.357 1967.41 752.405 C 1966.35 760.046 1960.36 769.871 1957.32 777.233 C 1935.8 829.318 1901.6 885.415 1854.84 918.335 C 1792.28 962.372 1765.13 973.856 1688.97 980.802 C 1672.79 982.278 1655.35 980.148 1639.58 983.643 C 1632.48 985.217 1625.41 990.101 1618.57 992.825 C 1600.3 1000.1 1571.63 1006.98 1552 1004.43 C 1549.88 1006.63 1549.24 1007.15 1547.54 1009.76 C 1541.2 1013.7 1533.62 1022.37 1529.56 1028.64 C 1519.06 1024.39 1487.77 1016.75 1476.11 1016.55 C 1471.85 1019.84 1468.96 1020.91 1463.51 1025.39 C 1462.65 1012.08 1461.85 1007.21 1452.19 997.589 C 1453.92 995.532 1453.95 995.434 1455.16 993.017 L 1454.2 990.859 C 1453.97 988.387 1454.01 985.804 1453.97 983.309 L 1453.88 979.486 C 1453.81 974.35 1454.12 973.802 1451.87 969.098 C 1448.88 967.58 1443.53 962.099 1440.74 959.662 C 1421.33 942.703 1410.36 925.255 1400.03 901.679 C 1376.19 916.646 1352.82 909.288 1330.37 915.358 C 1338.51 899.167 1341.65 865.54 1343.83 846.827 C 1335.05 837.268 1326.8 828.677 1319.02 818.196 C 1275.69 759.992 1256.11 687.486 1264.26 615.38 C 1264.84 610.211 1270.6 573.951 1269.86 571.832 z M 1730.23 942.158 C 1803.74 921.421 1873.27 863.749 1907.61 792.352 C 1910.27 786.818 1916.84 773.93 1915.62 768.417 C 1911.99 764.114 1879.65 754.774 1872.86 753.014 C 1848.87 780.586 1835 781.917 1800.16 789.444 C 1793.6 802.973 1787.67 817.459 1780.96 830.69 C 1769 854.051 1754.9 876.256 1738.85 897.02 C 1733.93 903.391 1728.03 911.292 1722.7 917.092 C 1714.27 926.269 1700.18 936.189 1694.52 947.169 C 1697.99 951.414 1724.43 943.744 1730.23 942.158 z M 1324.63 689.493 C 1330.86 692.711 1378.51 702.268 1383.65 701.954 C 1386.55 694.03 1387 686.557 1388.57 678.316 L 1395.39 643.799 C 1386.94 631.112 1374.49 622.777 1367.92 608.027 C 1362.34 595.502 1363.84 578.513 1360.19 568.069 C 1359.2 565.251 1323.71 554.996 1318.54 553.874 L 1316.9 555.19 C 1312.41 564.465 1299.26 624.193 1300.31 633.892 C 1305.08 642.603 1308.59 649.152 1312.29 658.449 C 1316.37 668.71 1318.95 680.323 1324.63 689.493 z"/>
<path transform="translate(0,0)" fill="rgb(213,147,25)" d="M 1451.87 969.098 C 1455.21 967.871 1458.37 967.727 1461.39 969.862 C 1487.06 988.012 1517.89 993.573 1547.87 1000.79 C 1549.4 1001.16 1551.07 1003.19 1552 1004.43 C 1549.88 1006.63 1549.24 1007.15 1547.54 1009.76 C 1541.2 1013.7 1533.62 1022.37 1529.56 1028.64 C 1519.06 1024.39 1487.77 1016.75 1476.11 1016.55 C 1471.85 1019.84 1468.96 1020.91 1463.51 1025.39 C 1462.65 1012.08 1461.85 1007.21 1452.19 997.589 C 1453.92 995.532 1453.95 995.434 1455.16 993.017 L 1454.2 990.859 C 1453.97 988.387 1454.01 985.804 1453.97 983.309 L 1453.88 979.486 C 1453.81 974.35 1454.12 973.802 1451.87 969.098 z"/>
<path transform="translate(0,0)" fill="rgb(242,183,34)" d="M 1453.97 983.309 C 1471.75 987.524 1490.93 993.373 1505.15 1004.83 C 1508.45 1007.49 1509.88 1011.92 1511.29 1015.85 C 1506.17 1022.63 1486.04 1009.39 1476.11 1016.55 C 1471.85 1019.84 1468.96 1020.91 1463.51 1025.39 C 1462.65 1012.08 1461.85 1007.21 1452.19 997.589 C 1453.92 995.532 1453.95 995.434 1455.16 993.017 L 1454.2 990.859 C 1453.97 988.387 1454.01 985.804 1453.97 983.309 z"/>
<path transform="translate(0,0)" fill="rgb(214,213,213)" d="M 1343.83 846.827 C 1351.93 855.712 1361.21 864.108 1370.77 871.383 C 1384.68 881.964 1392.87 884.847 1400.03 901.679 C 1376.19 916.646 1352.82 909.288 1330.37 915.358 C 1338.51 899.167 1341.65 865.54 1343.83 846.827 z"/>
<path transform="translate(0,0)" fill="rgb(252,223,142)" d="M 1489.21 681.675 C 1488.45 688.976 1482.01 712.711 1480.1 720.342 C 1461.8 793.761 1448.68 865.189 1467.01 940.341 C 1468.77 947.551 1477.17 960.418 1475.41 967.188 C 1455.84 974.337 1415.25 888.881 1412.15 870.427 C 1409.66 855.539 1407.19 842.514 1405.71 827.393 C 1399.08 759.453 1418.52 692.553 1439.41 628.668 C 1441.66 621.785 1450.33 591.83 1453.87 587.707 L 1459.65 587.834 C 1464.12 596.109 1480.93 602.82 1489.75 605.515 C 1513.06 617.594 1517.3 611.256 1504.74 639.3 C 1502.21 667.051 1516.7 667.412 1535.06 682.652 C 1519.52 678.795 1503.98 673.073 1489.21 681.675 z"/>
<path transform="translate(0,0)" fill="rgb(231,231,227)" d="M 1465.63 645.63 C 1488.69 652.103 1494.19 629.324 1504.1 617.482 C 1507.35 616.63 1505.76 616.571 1509.01 617.818 C 1510.03 621.421 1505.48 630.598 1504.83 638.086 L 1504.74 639.3 C 1502.21 667.051 1516.7 667.412 1535.06 682.652 C 1519.52 678.795 1503.98 673.073 1489.21 681.675 L 1487.66 681.696 C 1482.23 682.592 1478.93 687.612 1474.89 691.997 C 1474.18 682.637 1476.67 677.066 1471.12 670.453 C 1466.64 660.973 1465.31 659.253 1457.39 652.523 C 1459.17 646.066 1459.44 646.925 1465.63 645.63 z"/>
<path transform="translate(0,0)" fill="rgb(250,247,225)" d="M 1471.12 670.453 C 1476.67 677.066 1474.18 682.637 1474.89 691.997 C 1478.93 687.612 1482.23 682.592 1487.66 681.696 C 1483.96 685.909 1469.31 705.084 1467.24 705.935 C 1465.86 696.919 1473.91 685.296 1471.12 670.453 z"/>
<path transform="translate(0,0)" fill="rgb(250,247,225)" d="M 1442.42 639.933 C 1450.07 642.172 1457.86 643.857 1465.63 645.63 C 1459.44 646.925 1459.17 646.066 1457.39 652.523 C 1450.73 648.14 1447.85 645.586 1442.42 639.933 z"/>
<path transform="translate(0,0)" fill="rgb(213,147,25)" d="M 1741.89 698.456 C 1753.04 701.326 1793.93 707.422 1800.19 710.67 C 1801.78 717.52 1794.54 733.498 1791.85 740.352 C 1775.88 781.665 1756.57 821.611 1734.12 859.793 C 1699.31 920.067 1649.62 972.979 1580.35 991.536 C 1576.65 992.674 1563.58 996.599 1560.48 996.533 C 1553.13 996.375 1529.08 991.741 1524.16 987.247 C 1525.51 984.839 1532.01 983.503 1535.12 982.201 C 1572.17 966.686 1605.62 937.346 1630.97 907.403 C 1670.45 860.764 1696.29 808.279 1720.4 752.717 C 1727.57 736.194 1733.02 713.673 1741.89 698.456 z"/>
<path transform="translate(0,0)" fill="rgb(213,147,25)" d="M 1459.65 587.834 C 1454.39 582.112 1442.85 577.122 1440.8 570.425 L 1441.54 569.275 C 1504.19 563.467 1746.64 651.559 1803.03 692.5 C 1805.25 694.115 1806.99 695.794 1807.77 698.568 C 1807.37 700.29 1807.59 701.231 1806.25 701.622 C 1794.13 705.156 1768.1 699.213 1756.65 696.741 C 1686.07 681.217 1617.04 659.349 1550.39 631.403 C 1538.95 626.513 1526.63 620.369 1515.18 616.112 C 1513.42 613.867 1513.5 614.039 1512.75 611.283 C 1507.35 609.191 1495.17 605.206 1489.75 605.515 C 1480.93 602.82 1464.12 596.109 1459.65 587.834 z"/>
<path transform="translate(0,0)" fill="rgb(214,213,213)" d="M 1334.87 784.951 C 1311.11 754.144 1297.75 689.179 1298.56 650.482 C 1298.66 645.641 1298.5 638.139 1300.31 633.892 C 1305.08 642.603 1308.59 649.152 1312.29 658.449 C 1316.37 668.71 1318.95 680.323 1324.63 689.493 C 1330.86 692.711 1378.51 702.268 1383.65 701.954 C 1378.77 736.705 1374.2 759.447 1375.95 795.127 C 1376.68 810.104 1379.93 830.119 1380.16 843.239 C 1366.8 830.19 1342.48 801.143 1334.87 784.951 z"/>
<path transform="translate(0,0)" fill="rgb(231,231,227)" d="M 1334.87 784.951 C 1311.11 754.144 1297.75 689.179 1298.56 650.482 C 1298.66 645.641 1298.5 638.139 1300.31 633.892 C 1305.08 642.603 1308.59 649.152 1312.29 658.449 C 1316.37 668.71 1318.95 680.323 1324.63 689.493 C 1325.02 695.694 1326.62 700.878 1328.26 706.634 C 1332.85 722.689 1346.3 774.241 1338.13 787.239 L 1336.34 784.931 L 1334.87 784.951 z"/>
<path transform="translate(0,0)" fill="url(#Gradient1)" d="M 1272.21 1086.89 C 1274.12 1054.22 1281.66 1023.67 1306.49 1001.01 C 1347.19 963.868 1409.56 960.191 1454.2 990.859 L 1455.16 993.017 C 1453.95 995.434 1453.92 995.532 1452.19 997.589 C 1415.62 977.659 1400.95 1034.79 1409.96 1059.69 C 1413.77 1070.21 1422.61 1073.24 1432.78 1074.08 C 1437.68 1072.67 1439.61 1072.31 1444.69 1071.7 C 1439.57 1085.7 1434.08 1101.33 1439.92 1116.55 C 1443.41 1125.64 1454.19 1127.88 1457.63 1131.47 C 1465.46 1131.03 1478.64 1138.59 1488.2 1140.59 C 1488.23 1145.77 1487.86 1165.29 1490.09 1168.34 C 1491.1 1177.11 1491.3 1186.81 1496.01 1194.16 C 1504.39 1197.82 1526.28 1204.15 1530.04 1210.82 C 1535.24 1220.01 1516.48 1237.48 1529.21 1242.39 C 1536.78 1245.32 1539.54 1245.19 1546.12 1250.23 C 1548.67 1257.92 1549.62 1259.67 1548.37 1267.83 C 1546.58 1274.46 1543.2 1289.83 1536.02 1290.71 C 1525.61 1291.99 1504.15 1281.93 1494.14 1278.38 L 1397.54 1243.82 L 1316.92 1215.42 C 1303.24 1210.66 1287.04 1205.55 1273.87 1199.65 C 1266.02 1196.14 1277.18 1175.73 1280.61 1170.59 C 1287.53 1163.1 1293.11 1160.71 1302.51 1157.17 C 1300.81 1153.48 1293.21 1148.11 1290.63 1143.82 C 1285.88 1135.94 1282.19 1124.03 1276.67 1117.08 C 1274.37 1108.78 1273.2 1095.74 1272.21 1086.89 z"/>
<path transform="translate(0,0)" fill="rgb(214,213,213)" d="M 1272.21 1086.89 C 1274.12 1054.22 1281.66 1023.67 1306.49 1001.01 C 1347.19 963.868 1409.56 960.191 1454.2 990.859 L 1455.16 993.017 C 1453.95 995.434 1453.92 995.532 1452.19 997.589 C 1415.62 977.659 1400.95 1034.79 1409.96 1059.69 C 1413.77 1070.21 1422.61 1073.24 1432.78 1074.08 C 1430.95 1080.57 1426.22 1084.98 1423.73 1090.62 C 1415.81 1108.5 1404.45 1123.16 1389.33 1135.58 C 1383.29 1140.54 1374.37 1146.19 1369.06 1151.91 C 1356.9 1149.84 1341.13 1139.38 1329.95 1144.01 C 1323.58 1146.65 1323.36 1161.69 1319.06 1165.66 C 1312.66 1162.59 1308.1 1162.01 1302.51 1157.17 C 1300.81 1153.48 1293.21 1148.11 1290.63 1143.82 C 1285.88 1135.94 1282.19 1124.03 1276.67 1117.08 C 1274.37 1108.78 1273.2 1095.74 1272.21 1086.89 z"/>
<path transform="translate(0,0)" fill="rgb(242,183,34)" d="M 1432.78 1074.08 C 1437.68 1072.67 1439.61 1072.31 1444.69 1071.7 C 1439.57 1085.7 1434.08 1101.33 1439.92 1116.55 C 1443.41 1125.64 1454.19 1127.88 1457.63 1131.47 C 1465.46 1131.03 1478.64 1138.59 1488.2 1140.59 C 1488.23 1145.77 1487.86 1165.29 1490.09 1168.34 C 1491.1 1177.11 1491.3 1186.81 1496.01 1194.16 C 1473.87 1192.08 1463.57 1186.58 1443.06 1179.27 C 1425.57 1173.07 1408.13 1166.73 1390.75 1160.25 L 1388.74 1162.01 C 1391.2 1165.62 1392.11 1164.8 1393.93 1168.21 C 1389.91 1175.67 1390.87 1181.25 1386.48 1189.47 C 1370.75 1189.63 1336.12 1171.22 1319.06 1165.66 C 1323.36 1161.69 1323.58 1146.65 1329.95 1144.01 C 1341.13 1139.38 1356.9 1149.84 1369.06 1151.91 C 1374.37 1146.19 1383.29 1140.54 1389.33 1135.58 C 1404.45 1123.16 1415.81 1108.5 1423.73 1090.62 C 1426.22 1084.98 1430.95 1080.57 1432.78 1074.08 z"/>
<path transform="translate(0,0)" fill="rgb(213,147,25)" d="M 1457.63 1131.47 C 1465.46 1131.03 1478.64 1138.59 1488.2 1140.59 C 1488.23 1145.77 1487.86 1165.29 1490.09 1168.34 C 1491.1 1177.11 1491.3 1186.81 1496.01 1194.16 C 1473.87 1192.08 1463.57 1186.58 1443.06 1179.27 C 1425.57 1173.07 1408.13 1166.73 1390.75 1160.25 C 1386.36 1158.56 1376.85 1155.42 1374.94 1151.29 C 1382.49 1146.02 1427.15 1164.5 1437.15 1167.81 C 1446.3 1170.75 1455.53 1173.44 1464.83 1175.9 C 1464.04 1163.66 1465.64 1151.09 1465.8 1138.62 C 1464.38 1135.22 1461.65 1135.06 1458.87 1132.59 L 1457.63 1131.47 z"/>
<path transform="translate(0,0)" fill="rgb(252,223,142)" d="M 1342.58 1172.06 C 1345.24 1167.51 1348.58 1158.59 1350.68 1153.41 C 1361.24 1156.37 1384.56 1166.65 1393.93 1168.21 C 1389.91 1175.67 1390.87 1181.25 1386.48 1189.47 C 1382.71 1188.82 1349.51 1174.7 1342.58 1172.06 z"/>
<path transform="translate(0,0)" fill="rgb(242,183,34)" d="M 1548.37 1267.83 C 1546.58 1274.46 1543.2 1289.83 1536.02 1290.71 C 1525.61 1291.99 1504.15 1281.93 1494.14 1278.38 L 1397.54 1243.82 L 1316.92 1215.42 C 1303.24 1210.66 1287.04 1205.55 1273.87 1199.65 C 1266.02 1196.14 1277.18 1175.73 1280.61 1170.59 C 1297.13 1178.67 1324.53 1186.99 1342.43 1193.59 L 1491.98 1247.8 C 1507.79 1253.47 1534.35 1260.98 1548.37 1267.83 z"/>
<path transform="translate(0,0)" fill="rgb(231,231,227)" d="M 1036.36 1414.57 C 1047.3 1414.91 1057.78 1415.05 1068.51 1417.25 C 1077.29 1421.17 1086.46 1424 1095.5 1428.17 C 1131.77 1444.89 1143.16 1464.58 1156.98 1499.83 C 1169.97 1532.99 1159.24 1563.42 1164.7 1594.53 C 1172.23 1596.39 1178.22 1599.79 1182.26 1606.67 C 1185.62 1612.39 1186.26 1619.93 1184.52 1626.28 C 1183.15 1631.24 1180.09 1635.64 1175.43 1637.99 C 1165.16 1643.19 1046.6 1642.26 1029.54 1641.43 C 950.689 1641.5 949.437 1583.08 951.727 1521.94 C 953.092 1485.49 947.092 1445.46 986.593 1423.96 C 1003.3 1414.87 1019.42 1418.17 1036.36 1414.57 z"/>
<path transform="translate(0,0)" fill="rgb(36,36,36)" d="M 1029.54 1641.43 C 1037.28 1588.88 1074.71 1594.65 1114.43 1594.82 C 1131.18 1594.82 1147.94 1594.72 1164.7 1594.53 C 1172.23 1596.39 1178.22 1599.79 1182.26 1606.67 C 1185.62 1612.39 1186.26 1619.93 1184.52 1626.28 C 1183.15 1631.24 1180.09 1635.64 1175.43 1637.99 C 1165.16 1643.19 1046.6 1642.26 1029.54 1641.43 z"/>
<path transform="translate(0,0)" fill="rgb(231,231,227)" d="M 665.948 1712.09 C 646.691 1709.31 627.298 1703.13 614.77 1687.04 C 589.136 1654.54 607.453 1620.31 612.588 1586.54 C 625.059 1504.55 638.833 1483.43 725.318 1496.43 C 734.133 1500.51 743.67 1502.22 752.35 1506.49 C 783.819 1524.85 803.568 1546.64 813.844 1582.75 C 818.099 1597.71 817.115 1635.96 814.198 1652.02 C 812.128 1663.42 806.192 1681.36 805.723 1693.1 C 816.554 1700.38 819.961 1705.75 823.972 1718.28 C 817.865 1738.27 814.468 1741.71 792.067 1738.61 C 768.402 1735.35 744.918 1728.8 721.417 1724.45 C 707.706 1721.31 678.031 1716.13 665.948 1712.09 z"/>
<path transform="translate(0,0)" fill="rgb(36,36,36)" d="M 665.948 1712.09 C 685.52 1654.81 741.609 1681.91 782.919 1689 C 790.508 1690.3 798.161 1691.69 805.723 1693.1 C 816.554 1700.38 819.961 1705.75 823.972 1718.28 C 817.865 1738.27 814.468 1741.71 792.067 1738.61 C 768.402 1735.35 744.918 1728.8 721.417 1724.45 C 707.706 1721.31 678.031 1716.13 665.948 1712.09 z"/>
<path transform="translate(0,0)" fill="rgb(231,231,227)" d="M 330.3 1320.24 C 295.806 1273.61 303.172 1208.26 347.18 1170.48 C 391.189 1132.71 456.9 1135.33 497.762 1176.49 C 505.05 1183.83 511.273 1192.15 516.248 1201.22 C 535.147 1235.68 534.353 1277.57 514.161 1311.28 C 493.969 1345 457.409 1365.47 418.114 1365.07 C 415.52 1375.99 412.831 1387.56 403.349 1394.77 C 398.44 1398.57 392.168 1400.14 386.048 1399.11 C 373.941 1397.06 368.11 1387.88 361.882 1378.71 C 351.022 1381.42 326.079 1385.41 320.288 1373.19 C 313.084 1357.99 325.319 1335.42 330.3 1320.24 z"/>
<path transform="translate(0,0)" fill="rgb(36,36,36)" d="M 330.3 1320.24 C 350.927 1348.12 383.434 1364.71 418.114 1365.07 C 415.52 1375.99 412.831 1387.56 403.349 1394.77 C 398.44 1398.57 392.168 1400.14 386.048 1399.11 C 373.941 1397.06 368.11 1387.88 361.882 1378.71 C 351.022 1381.42 326.079 1385.41 320.288 1373.19 C 313.084 1357.99 325.319 1335.42 330.3 1320.24 z"/>
<path transform="translate(0,0)" fill="rgb(36,36,36)" d="M 1432.78 1074.08 C 1422.61 1073.24 1413.77 1070.21 1409.96 1059.69 C 1400.95 1034.79 1415.62 977.659 1452.19 997.589 C 1461.85 1007.21 1462.65 1012.08 1463.51 1025.39 C 1468.96 1020.91 1471.85 1019.84 1476.11 1016.55 C 1487.77 1016.75 1519.06 1024.39 1529.56 1028.64 C 1533.62 1022.37 1541.2 1013.7 1547.54 1009.76 C 1566.69 1037.88 1571.86 1054.47 1566.95 1088.83 C 1561.78 1124.92 1530.11 1168.49 1490.09 1168.34 C 1487.86 1165.29 1488.23 1145.77 1488.2 1140.59 C 1478.64 1138.59 1465.46 1131.03 1457.63 1131.47 C 1454.19 1127.88 1443.41 1125.64 1439.92 1116.55 C 1434.08 1101.33 1439.57 1085.7 1444.69 1071.7 C 1439.61 1072.31 1437.68 1072.67 1432.78 1074.08 z"/>
<path transform="translate(0,0)" fill="rgb(214,213,213)" d="M 1529.56 1028.64 C 1533.62 1022.37 1541.2 1013.7 1547.54 1009.76 C 1566.69 1037.88 1571.86 1054.47 1566.95 1088.83 C 1561.78 1124.92 1530.11 1168.49 1490.09 1168.34 C 1487.86 1165.29 1488.23 1145.77 1488.2 1140.59 C 1521.99 1142.58 1524.27 1120.32 1534.91 1093.57 C 1540.78 1078.82 1545.62 1058.91 1543 1043.09 C 1541.96 1036.83 1534.61 1031.71 1529.56 1028.64 z"/>
<path transform="translate(0,0)" fill="rgb(36,36,36)" d="M 737.904 1361.87 C 748.243 1363.39 758.54 1365.18 768.784 1367.23 C 765.75 1381.9 768.272 1399.88 766.18 1414.91 C 763.543 1433.86 761.106 1452.65 757.944 1471.52 C 756.573 1479.71 752.367 1499.71 752.35 1506.49 C 743.67 1502.22 734.133 1500.51 725.318 1496.43 C 726.608 1490.68 727.526 1481.15 728.651 1474.64 C 735.361 1435.79 738.67 1401.21 737.904 1361.87 z"/>
<path transform="translate(0,0)" fill="rgb(36,36,36)" d="M 1272.21 1086.89 C 1273.2 1095.74 1274.37 1108.78 1276.67 1117.08 C 1243.85 1129.09 1189.02 1150.12 1155.23 1154.34 C 1151.66 1147.67 1147.4 1140.66 1143.56 1134.08 C 1159.67 1122.17 1190.31 1116.9 1210.85 1109.29 C 1230.9 1101.87 1252.19 1095.57 1272.21 1086.89 z"/>
<path transform="translate(0,0)" fill="rgb(36,36,36)" d="M 994.24 1341.99 C 996.678 1333.86 1001.58 1322.66 1004.64 1312.56 C 1048.58 1348.1 1057.17 1363.41 1068.51 1417.25 C 1057.78 1415.05 1047.3 1414.91 1036.36 1414.57 C 1034.76 1389.58 1024.13 1367.65 1004.5 1351.86 C 1001.03 1349.07 998.278 1344.34 994.24 1341.99 z"/>
<path transform="translate(0,0)" fill="rgb(36,36,36)" d="M 534.596 1152.88 C 535.612 1166.96 538.808 1172.06 541.246 1184.04 C 533.515 1190.23 521.198 1193.92 516.248 1201.22 C 511.273 1192.15 505.05 1183.83 497.762 1176.49 C 510.444 1169.26 522.739 1161.38 534.596 1152.88 z"/>
</svg>