<svg version="1.1" xmlns="http://www.w3.org/2000/svg" style="display: block;" viewBox="0 0 1431 2048" width="394" height="564" preserveAspectRatio="none">
<defs>
	<linearGradient id="Gradient1" gradientUnits="userSpaceOnUse" x1="730.072" y1="1338.66" x2="799.724" y2="1310.82">
		<stop class="stop0" offset="0" stop-opacity="1" stop-color="rgb(4,3,3)"/>
		<stop class="stop1" offset="1" stop-opacity="1" stop-color="rgb(44,43,43)"/>
	</linearGradient>
</defs>
<path transform="translate(0,0)" fill="rgb(254,254,254)" d="M 255.173 116.403 C 277.442 115.136 305.205 115.868 327.824 115.899 L 452.213 116.016 L 857.999 116.594 L 1092.54 116.163 C 1128.19 116.163 1167 114.784 1202.29 117.216 C 1219.85 118.426 1247.52 131.658 1260.58 143.039 C 1283.55 163.049 1298.88 198.128 1299.88 228.445 C 1300.8 256.526 1300.09 287.145 1300.02 315.501 L 1300.2 477.373 L 1300.31 1012.22 L 1300.3 1561.45 L 1300.35 1738.36 C 1300.38 1768.53 1301.14 1799.81 1300.03 1829.87 C 1297.9 1887.31 1250.02 1931.24 1193.89 1935.52 C 1171.35 1936.66 1142.26 1936.07 1119.48 1936.09 L 987.413 1936.01 L 630.677 1935.97 L 370.208 1935.84 C 329.403 1935.59 286.693 1936.83 246.163 1933.53 C 202.293 1929.95 155.009 1881.68 152.598 1837.72 C 150.904 1806.82 151.788 1774.1 151.682 1742.83 L 151.361 1554.73 L 151.187 1008.6 L 151.361 484.736 L 150.444 321.011 C 150.35 287.87 150.275 252.805 152.223 219.8 C 155.411 165.78 201.608 121.361 255.173 116.403 z"/>
<path transform="translate(0,0)" fill="rgb(238,138,48)" d="M 493.205 174.488 L 954.416 174.922 L 1097.05 174.847 C 1118.78 174.871 1144.81 173.559 1165.67 175.809 C 1196.41 180.792 1225.24 203.359 1236.06 232.699 C 1241.08 246.311 1241.82 261.721 1241.88 275.722 C 1242.18 342.337 1241.35 408.942 1241.46 475.537 L 1241.39 1259.82 L 1241.25 1622.31 C 1241.21 1658.99 1241.36 1695.67 1241.71 1732.35 C 1241.88 1755.83 1242.19 1779.12 1240.85 1802.76 C 1239.01 1835.16 1205.07 1870.16 1173.9 1876.03 C 1152.23 1880.11 1119.38 1878.12 1096.39 1878.07 L 959.5 1878.06 L 475.392 1878.1 L 356.634 1878.41 C 335.079 1878.59 308.594 1879.72 287.458 1877.7 C 272.468 1876.27 246.649 1863.07 235.856 1852.31 C 215.637 1832.15 209.68 1810.49 209.59 1782.72 C 209.512 1758.54 209.629 1734.51 209.493 1710.46 L 209.596 1416.04 L 209.122 755.741 L 209.19 413.228 L 209.135 312.872 C 209.097 292.249 208.975 272.148 210.097 251.388 C 211.909 217.844 245.466 182.859 278.007 176.956 C 301.301 172.731 334.463 174.624 358.842 174.692 L 493.205 174.488 z"/>
<path transform="translate(0,0)" fill="rgb(254,254,254)" d="M 1096.51 1115.48 C 1123.8 1115.39 1143.49 1116.07 1164.72 1136.39 C 1185.1 1155.9 1187.5 1171.18 1187.66 1197.98 C 1187.95 1245.19 1187.26 1292.48 1187.12 1339.7 L 1187.81 1553.98 C 1187.96 1600.37 1187.8 1646.77 1187.32 1693.16 C 1187.14 1739.33 1196.44 1783.49 1150.65 1812.77 C 1132.86 1824.15 1116.97 1821.86 1096.9 1822.14 C 1083.66 1822.32 1070.4 1822.17 1057.18 1822.16 L 908.383 1822.05 L 359.5 1822.21 C 332.488 1822.6 310.27 1823.58 288.996 1803.32 C 278.662 1793.48 265.536 1772.68 263.944 1758.55 C 261.821 1739.72 262.608 1716.02 262.712 1696.76 L 262.962 1594.31 C 263.45 1463.14 263.184 1331.98 262.163 1200.81 C 261.81 1175.17 264.754 1157.51 283.397 1138.04 C 304.314 1116.2 331.151 1115.31 359.258 1115.56 C 377.845 1115.73 396.671 1115.71 415.285 1115.76 L 573.444 1115.98 L 1096.51 1115.48 z"/>
<path transform="translate(0,0)" fill="rgb(254,204,1)" d="M 451.577 1602.42 C 467.86 1600.45 573.432 1599.68 584.711 1604.34 C 589.461 1606.3 593.464 1611.12 595.293 1615.87 C 598.791 1624.97 598.419 1742.49 594.728 1750.46 C 591.522 1757.39 586.058 1760.34 579.274 1762.73 C 560.918 1764.39 461.292 1765.46 448.273 1760.88 C 443.429 1759.18 439.94 1755.72 437.719 1751.13 C 435.899 1747.37 435.194 1743.01 434.865 1738.89 C 433.563 1722.57 432.718 1625.94 436.833 1615.32 C 439.583 1608.23 445.018 1605.22 451.577 1602.42 z"/>
<path transform="translate(0,0)" fill="rgb(254,254,254)" d="M 500.861 1723.02 C 498.999 1723.11 495.842 1723.01 494.148 1722.61 C 493.265 1722.41 491.073 1721.03 490.91 1720.09 C 489.211 1710.33 489.037 1651.25 490.845 1645.33 C 493.143 1643.04 494.74 1643.19 498.059 1642.74 L 499.324 1642.58 C 502.963 1639.02 499.225 1636.76 502.39 1631.88 C 505.289 1630.85 503.876 1630.85 506.772 1631.88 C 507.952 1635.06 508.407 1637.01 509.176 1640.27 C 511.834 1643.15 510.585 1642.3 515.648 1642.59 C 515.599 1638.5 515.033 1635.6 517.373 1632.44 L 519.565 1631.17 C 525.094 1633.11 524.202 1637.23 523.861 1642.41 C 549.024 1648.19 548.935 1662.9 533.264 1680 C 538.965 1690.88 548.865 1678.07 546.76 1709 C 539.645 1719.34 535.925 1720.17 523.998 1723.46 C 523.888 1728.17 524.752 1731.99 520.354 1734.54 L 518.086 1733.48 C 515.448 1730.41 515.505 1727.37 514.913 1723.24 L 508.993 1722.78 C 508.536 1727.94 509.296 1732.12 504.285 1734.47 L 502.501 1733.19 C 500.56 1729.81 500.927 1726.99 500.861 1723.02 z"/>
<path transform="translate(0,0)" fill="rgb(254,250,235)" d="M 514.913 1723.24 L 523.998 1723.46 C 523.888 1728.17 524.752 1731.99 520.354 1734.54 L 518.086 1733.48 C 515.448 1730.41 515.505 1727.37 514.913 1723.24 z"/>
<path transform="translate(0,0)" fill="rgb(254,250,235)" d="M 515.648 1642.59 C 515.599 1638.5 515.033 1635.6 517.373 1632.44 L 519.565 1631.17 C 525.094 1633.11 524.202 1637.23 523.861 1642.41 C 520.224 1642.05 519.288 1642.14 515.648 1642.59 z"/>
<path transform="translate(0,0)" fill="rgb(254,250,235)" d="M 500.861 1723.02 C 504.177 1723.44 505.856 1723.96 508.993 1722.78 C 508.536 1727.94 509.296 1732.12 504.285 1734.47 L 502.501 1733.19 C 500.56 1729.81 500.927 1726.99 500.861 1723.02 z"/>
<path transform="translate(0,0)" fill="rgb(254,204,1)" d="M 501.251 1686.06 C 511.794 1686.23 524.099 1684.99 533.066 1691.6 C 539.431 1696.3 536.054 1705.24 531.616 1710.01 C 521.819 1714.57 511.828 1713.71 501.165 1713.66 L 501.251 1686.06 z"/>
<path transform="translate(0,0)" fill="rgb(254,204,1)" d="M 501.235 1651.56 C 510.696 1651.65 521.796 1650.93 529.673 1657.08 C 535.109 1661.32 531.65 1669.02 527.859 1673.07 C 519.496 1677.5 510.826 1676.46 501.204 1676.55 L 501.235 1651.56 z"/>
<path transform="translate(0,0)" fill="rgb(4,4,4)" d="M 977.38 1615.14 C 1044.3 1609.41 1033.73 1724.99 969.433 1737.43 C 914.282 1741.95 916.3 1675.55 937.579 1642.25 C 947.869 1626.14 959.027 1619.07 977.38 1615.14 z"/>
<path transform="translate(0,0)" fill="rgb(254,254,254)" d="M 976.321 1641 C 1004.35 1642.6 994.542 1701.31 969.236 1711.98 C 941.793 1709.25 952.756 1649.59 976.321 1641 z"/>
<path transform="translate(0,0)" fill="rgb(4,4,4)" d="M 776.815 1615.27 C 794.027 1612.55 812.934 1620.79 814.92 1640.03 C 816.14 1651.84 807.844 1662.21 801.139 1671.09 C 803.792 1675.13 808.608 1678.66 810.711 1682.21 C 813.932 1688.37 813.292 1699.27 811.331 1705.6 C 804.242 1726.99 783.958 1736.95 762.665 1737.99 C 745.207 1738.85 732.506 1731.09 724.536 1715.54 C 721.925 1710.45 719.808 1704.19 721.695 1698.43 C 723.671 1696.24 722.913 1696.92 726.75 1696.54 L 751.516 1696.54 C 752.945 1713.36 769.897 1717.72 778.446 1707.18 C 796.851 1684.47 769.377 1684.23 765.845 1680.84 C 766.142 1674.79 767.018 1669.48 767.926 1663.53 C 776.562 1662.14 789.392 1657.79 785.2 1646.15 C 784.22 1643.47 782.18 1641.3 779.558 1640.17 C 770.274 1636.08 764.833 1644.97 761.909 1652.06 L 734.511 1651.99 C 743.993 1629.65 752.096 1619.96 776.815 1615.27 z"/>
<path transform="translate(0,0)" fill="rgb(4,4,4)" d="M 855.131 1619.25 C 874.599 1618.82 894.956 1619.08 914.493 1619.05 L 911.251 1644.06 C 897.946 1644.25 884.402 1644.12 871.076 1644.13 C 870.033 1648.4 868.813 1652.78 867.682 1657.04 C 907.13 1654.31 923.115 1682.59 902.081 1717.29 C 894.511 1729.78 878.469 1735.69 864.186 1737.7 C 845.826 1738.79 836.343 1735.49 820.435 1727.88 C 823.41 1720.36 826.653 1707.95 828.897 1700.03 L 829.978 1700.9 C 838.88 1707.92 849.886 1713.88 861.643 1712.34 C 867.678 1711.58 873.181 1708.3 876.682 1703.35 C 882.244 1695.49 880.382 1684.58 871.574 1679.92 C 860.327 1673.98 847.101 1677.6 835.591 1680.8 C 842.223 1662.87 849.405 1637.98 855.131 1619.25 z"/>
<path transform="translate(0,0)" fill="rgb(4,4,4)" d="M 696.728 1412.42 C 715.514 1410.66 730.025 1416.66 736.392 1435.24 C 745.084 1460.62 742.113 1496.59 713.747 1506.93 C 662.483 1515.58 657.086 1424.26 696.728 1412.42 z"/>
<path transform="translate(0,0)" fill="rgb(254,254,254)" d="M 706.15 1429.73 C 722.334 1430.4 722.051 1465.49 718.053 1476.08 C 714.977 1484.22 714.04 1485.05 706.684 1488.92 C 693.351 1487.97 692.967 1473.16 692.258 1462.58 C 691.299 1448.25 694.035 1438.28 706.15 1429.73 z"/>
<path transform="translate(0,0)" fill="url(#Gradient1)" d="M 739.046 1277.03 C 754.948 1277.09 781.851 1274.92 792.246 1288.29 C 804.794 1304.44 798.533 1322.54 784.616 1334.56 C 790.413 1346.03 795.986 1358.95 801.086 1370.75 L 777.324 1371.71 C 775.006 1368.81 764.506 1341.93 760.134 1334.51 C 759.847 1346.76 760.028 1359.61 760.013 1371.92 C 751.654 1371.14 747.457 1370.98 739.07 1371.16 C 738.491 1339.26 737.729 1308.93 739.046 1277.03 z"/>
<path transform="translate(0,0)" fill="rgb(254,254,254)" d="M 759.927 1294.46 C 779.012 1292.96 782.472 1302.23 775.488 1318.76 C 769.795 1320.32 765.913 1320.05 759.989 1320.05 C 759.053 1313.1 758.095 1301.13 759.927 1294.46 z"/>
<path transform="translate(0,0)" fill="rgb(4,4,4)" d="M 793.033 1413.44 L 814.13 1413.42 C 813.6 1444.04 813.466 1474.67 813.728 1505.29 C 806.409 1506.03 800.682 1505.93 793.386 1505.86 C 788.421 1499.95 774.115 1464.22 768.711 1454.17 C 769.845 1471.34 770.852 1488.51 771.733 1505.69 L 751.262 1505.9 C 751.861 1475.19 752.029 1444.48 751.766 1413.76 C 758.07 1413.94 763.077 1413.82 769.382 1413.52 C 770.197 1413.45 770.792 1413.83 771.687 1414.16 C 778.002 1426.58 787.034 1450.42 792.631 1464.04 L 793.033 1413.44 z"/>
<path transform="translate(0,0)" fill="rgb(4,4,4)" d="M 867.346 1412.26 C 873.869 1411.75 881.331 1411.9 887.943 1411.88 C 888.509 1441.43 887.091 1474.65 887.277 1505.21 C 884.212 1505.48 870.975 1507.03 869.142 1503.8 C 860.429 1488.44 854.013 1473.02 844.892 1457.58 C 845.433 1473.7 845.647 1489.82 845.534 1505.95 C 840.795 1506.29 832.768 1506.02 827.787 1506.01 C 826.903 1497.54 827.068 1485.71 826.835 1476.85 C 826.063 1455.52 825.885 1434.18 826.301 1412.85 C 831.972 1413.39 839.826 1413.35 845.673 1413.49 C 852.52 1427.31 860.508 1447.26 866.904 1461.88 C 867.234 1445.35 866.872 1428.94 867.346 1412.26 z"/>
<path transform="translate(0,0)" fill="rgb(4,4,4)" d="M 541.117 1413.17 C 555.551 1413.15 581.759 1410.94 591.431 1421.45 C 606.722 1438.07 601.454 1453.89 588.047 1467.81 C 590.917 1482.8 596.512 1492.33 602.749 1506.06 C 595.204 1506.21 588.695 1506.07 581.181 1505.79 C 577.779 1499.38 569.821 1473.91 564.017 1473.49 C 559.947 1478.75 560.763 1497.64 560.618 1505.02 L 540.848 1505.04 C 541.298 1474.42 541.388 1443.8 541.117 1413.17 z"/>
<path transform="translate(0,0)" fill="rgb(254,254,254)" d="M 562.286 1431.01 C 582.69 1429.6 581.778 1438.65 575.569 1455 C 572.864 1455.45 564.913 1455.55 561.788 1455.66 C 561.049 1447.14 560.568 1439.42 562.286 1431.01 z"/>
<path transform="translate(0,0)" fill="rgb(4,4,4)" d="M 412.191 1413.02 C 427.301 1412.79 450.372 1410.44 462.713 1420.52 C 474.711 1430.31 475.962 1453.35 465.457 1464.68 C 457.486 1473.28 447.885 1474.02 436.898 1474.48 C 435.204 1474.47 435.647 1474.57 433.921 1475.41 C 432.231 1480.66 432.693 1499.61 432.694 1506.08 C 426.122 1506.17 419.215 1506.01 412.615 1505.96 C 412.127 1476.59 411.698 1442.12 412.191 1413.02 z"/>
<path transform="translate(0,0)" fill="rgb(254,254,254)" d="M 433.964 1430.43 C 450.515 1431.61 456.989 1440.9 448.193 1455.65 C 442.665 1457.7 440.519 1459.07 435.311 1456.83 C 430.61 1450.83 433.204 1438.28 433.964 1430.43 z"/>
<path transform="translate(0,0)" fill="rgb(4,4,4)" d="M 683.045 1277.59 C 688.745 1279.7 680.503 1341.9 687.1 1350.76 C 694.191 1354.99 704.467 1353.65 705.146 1343.84 C 705.633 1336.79 705.447 1329.64 705.489 1322.58 L 705.75 1277.92 C 712.518 1277.89 719.416 1278.04 726.196 1278.11 L 726.264 1314.95 C 726.206 1321.97 726.082 1328.98 725.892 1335.99 C 724.658 1371.13 696.59 1382.82 672.088 1362.35 C 662.145 1354.05 663.814 1290.65 664.829 1277.69 L 683.045 1277.59 z"/>
<path transform="translate(0,0)" fill="rgb(4,4,4)" d="M 481.697 1413.02 C 497.018 1413.68 516.034 1413.26 531.754 1413.38 C 531.143 1420.34 530.652 1424.38 529.197 1431.19 C 518.547 1430.35 513.378 1431.08 503.159 1432.88 C 502.598 1438.96 502.526 1444.39 502.426 1450.46 C 509.61 1450.62 516.796 1450.71 523.981 1450.74 C 524.669 1457.71 524.586 1461.48 524.314 1468.53 L 501.261 1468.97 L 501.084 1486.09 L 501.482 1487.55 C 504.507 1489.17 523.468 1487.9 531.269 1489.04 C 531.806 1494.2 531.694 1500.75 531.75 1506.04 C 515.123 1505.83 497.817 1506.17 481.116 1506.19 C 481.474 1477.84 479.136 1440.17 481.697 1413.02 z"/>
<path transform="translate(0,0)" fill="rgb(4,4,4)" d="M 901.555 1412.64 C 918.099 1412.91 934.645 1412.99 951.191 1412.86 L 950.894 1429.95 L 922.027 1430.73 L 921.726 1449.98 C 930.321 1449.87 936.563 1449.81 945.15 1450.56 C 945.788 1455.81 945.661 1462.5 945.713 1467.89 L 922.101 1468.08 L 922.376 1485.06 C 922.661 1491.64 948.404 1485.44 951.639 1489.77 C 968.308 1512.08 907.768 1506.03 901.633 1505.98 C 901.463 1476.38 900.322 1441.81 901.555 1412.64 z"/>
<path transform="translate(0,0)" fill="rgb(4,4,4)" d="M 630.953 1411.03 C 647.176 1410.01 651.827 1412.71 663.913 1422.81 C 660.697 1427.97 657.548 1433.16 654.469 1438.4 C 647.845 1433.83 638.899 1428.98 631.661 1436.67 C 630.001 1438.44 630.458 1438.6 630.644 1440.83 C 636.038 1450.23 652.816 1452.75 658.495 1461.19 C 673.881 1484.04 658.569 1503.63 635.284 1507.14 C 633.792 1507.13 632.301 1507.06 630.814 1506.93 C 616.249 1505.65 598.263 1496.55 616.522 1482.71 C 619.374 1482.38 638.585 1496.44 645.61 1483.94 C 643.56 1472.47 614.49 1464.4 610.086 1449.28 C 604.299 1429.42 613.369 1418.49 630.953 1411.03 z"/>
<path transform="translate(0,0)" fill="rgb(4,4,4)" d="M 537.927 1278.16 L 586.851 1278.71 L 585.95 1295.21 C 578.585 1295.94 567.591 1295.94 559.935 1296.15 C 559.679 1302.55 559.457 1308.95 559.268 1315.36 L 581.792 1315.21 C 581.666 1320.77 581.871 1326.97 581.93 1332.58 C 574.111 1332.84 566.196 1333.53 558.386 1334.13 L 558.758 1351.91 C 562.49 1354.91 581.524 1353.44 587.115 1353.28 C 587.742 1360.76 587.768 1364.68 587.4 1372.19 C 574.141 1372.52 552.023 1370.98 537.756 1370.65 L 537.927 1278.16 z"/>
<path transform="translate(0,0)" fill="rgb(4,4,4)" d="M 494.227 1277.31 C 503.494 1276.61 533.249 1279.78 524.62 1294.68 C 515.567 1298.6 515.416 1303.29 512.371 1304.67 C 511.257 1302 510.898 1298.49 508.569 1296.94 C 500.291 1291.44 491.586 1295.72 493.483 1305.93 C 499.255 1315.75 521.241 1319.54 525.507 1330.55 C 533.287 1350.64 520.656 1367.83 501.442 1371.44 C 492.258 1371.91 472.665 1370.02 469.671 1359.84 C 470.559 1355.72 477.693 1347.3 480.488 1343.65 C 488.715 1350.52 501.19 1359.67 507.193 1345.81 C 511.494 1335.88 477.676 1330.15 474.192 1315.53 C 469.128 1294.29 475.71 1283.94 494.227 1277.31 z"/>
<path transform="translate(0,0)" fill="rgb(4,4,4)" d="M 625.984 1276.35 C 644.019 1275.37 646.463 1281.95 660.213 1293.01 C 650.683 1296.42 649.053 1297.4 642.395 1305 C 642.231 1304.78 642.066 1304.56 641.901 1304.34 L 641.058 1303.26 C 638.412 1299.78 633.888 1294.83 629.172 1295.3 C 603.736 1297.79 614.721 1379.59 642.698 1343.96 L 649.574 1351.35 C 652.419 1352.82 655.255 1354.31 658.084 1355.82 C 639.778 1384.3 604.875 1375.87 597.544 1344.82 C 591.701 1320.08 595.567 1282.67 625.984 1276.35 z"/>
<path transform="translate(0,0)" fill="rgb(4,4,4)" d="M 898.89 1276.81 C 905.565 1277.32 914.109 1277.14 920.93 1277.18 C 924.75 1288.78 929.274 1297.15 932.729 1309.98 C 936.709 1295.95 939.237 1290.25 946.022 1277.17 C 953.969 1277.56 960.013 1278.01 967.972 1277.24 C 961.001 1291.49 954.317 1305.88 947.923 1320.41 C 940.672 1336.42 943.001 1353.58 943.26 1371.56 L 923.535 1371.58 C 923.578 1364.03 923.979 1342.52 922.629 1335.67 C 918.942 1316.94 906.21 1295.34 898.89 1276.81 z"/>
<path transform="translate(0,0)" fill="rgb(4,4,4)" d="M 886.114 1277.54 L 896.564 1276.98 C 896.597 1283.2 896.216 1290.11 896.007 1296.39 L 878.223 1296 C 877.461 1319.76 878.158 1346.96 878.036 1371.1 C 871.731 1371.73 862.83 1373.74 858.186 1369.99 L 857.933 1365.25 C 858.051 1342.43 858.233 1318.44 857.407 1295.72 C 850.825 1295.31 844.54 1295.19 837.961 1295.07 C 838.724 1289.44 839.412 1283.8 840.023 1278.15 C 855.389 1278.17 870.754 1277.97 886.114 1277.54 z"/>
<path transform="translate(0,0)" fill="rgb(4,4,4)" d="M 962.384 1412.99 C 968.751 1413.15 975.654 1412.96 982.065 1412.91 L 983.212 1486.98 C 993.019 1487.27 1003.17 1487.04 1013.01 1486.93 C 1011.9 1494.46 1011.59 1497.62 1011.73 1505.21 C 996.202 1506.36 978.763 1506.2 963.084 1506.3 C 962.717 1475.55 961.924 1443.66 962.384 1412.99 z"/>
<path transform="translate(0,0)" fill="rgb(4,4,4)" d="M 810.694 1278.08 C 817.066 1278.12 823.499 1277.84 829.873 1277.62 C 830.466 1308.33 829.938 1340.38 829.797 1371.17 L 810.034 1370.8 C 810.345 1339.42 810.848 1309.67 810.694 1278.08 z"/>
<path transform="translate(0,0)" fill="rgb(221,223,226)" d="M 629.018 1387.63 C 633.259 1391.03 632.957 1403.34 630.598 1407.81 C 625.682 1404.1 626.821 1392.55 629.018 1387.63 z"/>
<path transform="translate(0,0)" fill="rgb(4,4,4)" d="M 875.651 390.37 C 882.586 389.696 889.558 389.468 896.522 389.687 C 930.75 390.682 959.011 401.634 972.225 435.432 C 981.794 459.907 975.77 482.846 974.877 508.037 C 1000.3 515.903 1001 525.341 999.295 549.565 C 1016.89 550.485 1036.54 549.621 1054.26 548.96 C 1057.06 535.598 1058.44 525.723 1059.35 512.184 C 1047.99 509.77 1017.55 509.082 1010.76 503.195 C 1006.8 491.57 1019.59 447.083 1021.6 431.467 C 1054.52 435.268 1086.88 441.085 1119.79 444.769 C 1137.92 446.799 1155.71 448.825 1173.59 452.531 C 1171.83 456.67 1170.15 461.051 1168.48 465.245 L 1180.26 467.247 C 1177.64 484.455 1175.34 498.563 1173.27 516.047 C 1166.51 520.692 1147.87 508.653 1141.44 504.84 C 1140.28 509.659 1139.22 514.65 1138.12 519.5 C 1129.4 519.534 1118.46 520.667 1109.96 519.477 C 1095.2 517.41 1081.7 513.863 1066.7 512.519 C 1065.81 529.317 1067.16 543.232 1057.91 557.057 C 1039.28 557.424 1017.95 556.647 999.119 556.406 C 999.072 558.576 998.979 560.745 998.842 562.911 C 996.748 594.306 972.139 594.358 946.959 592.029 C 943.116 597.631 939.331 601.4 934.694 606.288 L 939.35 633.596 C 960.553 647.131 984.028 652.002 1006.92 661.455 C 1027.69 670.032 1041.12 681.92 1049.62 702.893 C 1056.74 720.456 1058.5 739.758 1062.83 758.105 C 1068.2 780.848 1075.64 803.809 1078.92 826.973 C 1079.38 830.243 1076.87 832.677 1076.86 836.01 C 1076.8 852.933 1083.12 867.434 1075.85 884.213 C 1072.11 892.852 1064.94 902.039 1056.02 905.735 C 1044.48 910.516 974.785 908.117 958.274 907.67 C 952.659 907.518 941.829 905.808 936.802 907.828 C 936.347 908.986 935.027 912.746 933.526 912.797 C 922.54 913.17 911.525 913.143 900.531 913.202 C 864.934 913.464 829.334 913.39 793.738 912.978 L 789.584 903.641 C 778.214 904.208 765.295 907.334 753.748 907.42 C 733.891 907.568 713.882 907.298 694.026 907.145 C 662.851 906.899 631.675 906.856 600.5 907.016 L 381.775 905.895 C 384.104 891.349 384.234 876.203 385.866 861.515 C 390.053 823.822 404.25 717.401 421.725 688.551 C 427.641 678.783 436.303 672.03 446.266 666.693 C 461.267 658.657 516.6 642.962 523.819 635.371 C 528.88 630.049 527.576 615.956 527.417 609.086 C 525.199 604.875 519.338 597.421 516.395 592.527 C 509.08 580.363 506.796 571.22 503.073 557.857 C 482.034 540.176 483.414 526.509 493.323 502.563 C 487.102 469.356 489.645 428.189 522.783 410.129 C 553.302 393.917 590.596 404.459 623.355 405.929 C 629.642 406.211 662.538 403.318 663.816 409.667 C 666.255 421.778 660.731 440.283 655.781 451.659 C 666.214 466.629 662.125 495.332 659.399 512.571 C 669.494 522.732 667.84 531.767 666.035 545.022 C 661.398 549.782 656.77 552.355 650.895 555.243 C 641.814 582.022 639.492 586.936 621.681 608.534 C 622.444 618.187 623.826 624.043 626.909 633.148 C 665.184 655.516 710.455 654.282 731.884 695.538 C 744.782 663.883 778.629 657.515 807.739 647.228 C 818.842 643.305 829.462 638.813 840.822 635.477 C 840.401 626.787 839.909 618.101 839.345 609.419 C 835.585 603.921 823.54 591.198 821.742 586.037 C 815.504 568.132 811.527 556.171 799.921 540.609 C 793.598 532.13 798.599 517.224 805.884 509.13 C 792.712 460.148 806.584 404.098 862.647 392.443 C 866.955 391.547 871.293 390.967 875.651 390.37 z"/>
<path transform="translate(0,0)" fill="rgb(254,254,254)" d="M 655.735 656.552 C 671.008 659.956 704.21 672.737 714.561 683.372 C 730.039 699.276 732.963 723.492 737.853 743.904 C 749.748 793.565 757.671 847.147 758.304 898.126 C 736.882 898.529 714.393 898.02 692.893 897.833 C 694.049 862.751 692.589 828.998 693.283 793.998 C 693.549 780.595 692.629 765.725 694.105 752.528 L 684.017 751.298 C 683.827 759.525 684.163 766.931 684.523 775.128 C 686.25 816.183 684.229 856.775 684.196 897.88 C 650.193 898.599 614.497 898.235 580.389 898.195 C 581.579 880.582 579.67 856.981 580.055 838.761 C 581.162 786.342 578.37 732.189 581.118 680.036 C 592.292 688.087 599.603 699.091 610.039 708.572 C 622.356 697.246 643.249 670.752 655.735 656.552 z"/>
<path transform="translate(0,0)" fill="rgb(4,4,4)" d="M 610.99 735.315 C 615.423 734.939 621.103 735.479 625.948 735.402 C 641.643 735.056 657.343 734.96 673.042 735.112 C 673.497 757.68 674.787 775.159 658.802 792.006 C 652.582 798.026 646.841 801.237 639.31 805.25 C 615.612 793.805 606.822 779.213 607.708 752.872 C 607.948 745.755 605.89 741.053 610.99 735.315 z"/>
<path transform="translate(0,0)" fill="rgb(47,156,218)" d="M 616.178 743.204 C 625.495 742.755 630.717 744.468 639.69 744.948 C 647.432 745.361 654.455 744.737 662.492 745.484 C 669.67 753.408 660.681 776.176 655.54 784.245 C 640.322 802.477 627.099 787.721 616.41 773.172 C 615.057 761.873 615.114 754.324 616.178 743.204 z"/>
<path transform="translate(0,0)" fill="rgb(254,254,254)" d="M 494.619 657.086 L 495.95 657.389 C 497.515 660.588 506.934 668.352 510.435 672.542 C 519.872 683.838 532.536 697.688 539.914 710.237 C 551.05 696.549 556.734 689.232 570.777 678.286 C 572.784 732.516 568.904 787.18 571.597 841.561 C 572.48 859.41 571.495 879.903 571.327 897.956 L 466.823 897.808 C 467.551 860.125 467.501 822.431 466.672 784.75 C 466.729 777.161 468.007 759.609 463.83 754.116 C 460.97 753.66 462.32 753.41 459.723 755.23 C 456.81 760.619 458.612 885.585 458.926 898.075 L 391.017 897.983 C 393.389 850.369 400.254 805.509 410.715 758.905 C 415.499 737.591 420.664 699.871 436.641 683.722 C 449.482 670.743 476.948 664.457 494.619 657.086 z"/>
<path transform="translate(0,0)" fill="rgb(4,4,4)" d="M 480.097 755.557 C 501.117 754.691 525.051 755.102 546.169 755.214 C 546.104 776.243 546.924 799.807 545.943 820.602 C 531.227 822.22 496.359 821.097 480.588 821.005 C 479.776 812.335 478.691 762.807 480.097 755.557 z"/>
<path transform="translate(0,0)" fill="rgb(254,254,254)" d="M 496.335 782.545 C 510.201 782.063 524.08 782.127 537.94 782.738 C 537.865 792.578 539.409 800.676 537.103 810.163 C 534.742 812.862 534.75 812.046 530.25 812.363 C 516.17 812.397 502.089 812.352 488.01 812.227 C 488.545 802.551 486.724 793.392 489.265 784.865 C 491.803 782.166 491.863 782.957 496.335 782.545 z"/>
<path transform="translate(0,0)" fill="rgb(254,254,254)" d="M 490.963 763.543 C 503.895 763.135 518.425 762.024 531.258 763.744 C 536.631 764.464 536.97 770.71 534.058 774.416 C 521.346 774.036 505.018 775.822 492.731 773.493 C 490.265 773.025 490.103 771.931 489.077 770.015 C 489.294 766.588 489.263 766.44 490.963 763.543 z"/>
<path transform="translate(0,0)" fill="rgb(47,156,218)" d="M 797.457 735.413 C 841.095 738.354 884.861 738.909 928.559 737.075 C 928.086 742.648 928.317 748.699 928.273 754.324 C 927.875 804.403 927.459 854.296 928.214 904.366 L 903.25 904.705 C 868.498 905.159 833.742 905.323 798.987 905.197 C 798.65 890.479 798.498 875.574 799.423 860.887 C 806.336 858.91 809.285 857.721 815.824 854.682 C 821.902 838.573 823.366 824.933 822.752 807.933 C 821.808 781.757 819.159 774.626 792.138 773.803 C 794.241 764.477 796.134 745.567 797.457 735.413 z"/>
<path transform="translate(0,0)" fill="rgb(4,4,4)" d="M 858.328 806.097 C 867.101 805.719 874.461 808.662 877.478 817.603 C 878.911 821.723 878.494 826.261 876.333 830.05 C 873.472 835.056 870.36 835.628 865.208 837.02 C 861.343 837.049 854.856 837.058 851.533 835.364 C 848.092 833.62 845.537 830.518 844.484 826.807 C 841.75 816.858 849.401 808.904 858.328 806.097 z"/>
<path transform="translate(0,0)" fill="rgb(47,156,218)" d="M 859.888 813.864 C 872.378 814.134 875.076 824.781 865.029 831.152 C 864.247 831.171 863.464 831.18 862.681 831.181 C 858.153 831.167 857.045 831.159 853.919 828.009 C 851.257 820.967 854.246 818.068 859.888 813.864 z"/>
<path transform="translate(0,0)" fill="rgb(254,254,254)" d="M 967.747 656.862 L 968.213 657.06 C 996.645 669.473 1026.62 666.553 1039.08 703.213 C 1051.44 739.598 1065.57 787.179 1068.26 825.364 C 1048.42 824.909 1028.57 825.152 1008.75 826.091 C 1008.62 813.304 1008.81 800.516 1009.32 787.739 C 1009.67 779.017 1012.1 759.162 1007.52 752.613 C 1004.54 751.332 1005.95 751.314 1003.16 752.319 C 1002.64 753.021 1002.02 753.871 1001.29 754.869 C 1000.74 782.08 1001.7 816.663 999.615 843.338 L 965.518 843.257 C 955.831 843.41 946.146 843.633 936.462 843.928 C 936.083 827.484 935.95 811.035 936.063 794.587 C 944.202 803.575 950.541 805.466 961.867 808.886 C 962.34 808.553 962.806 808.212 963.266 807.861 C 985.372 791.008 990.564 775.497 988.801 749.496 C 988.787 749.283 990.545 744.519 990.79 742.796 C 987.014 740.323 944.982 739.805 936.691 738.125 L 933.84 728.926 C 920.312 729.013 904.557 729.477 891.326 727.769 C 890.062 711.029 889.635 694.236 890.044 677.453 C 905.055 686.3 908.956 699.64 925.128 709.443 C 932.03 702.456 941.625 688.259 948.273 679.922 C 953.997 672.743 962.965 663.554 967.747 656.862 z"/>
<path transform="translate(0,0)" fill="rgb(254,254,254)" d="M 525.825 466.676 C 539.303 467.824 553.865 471.122 567.408 473.219 C 589.606 476.658 609.108 475.922 631.198 472.777 C 633.239 480.844 634.032 485.704 634.844 494.409 C 635.851 505.191 634.931 518.37 636.698 528.902 C 636.918 530.214 640.981 533.577 642.374 535.001 C 643.733 562.522 636.093 584.379 615.484 602.78 C 589.294 625.11 559.54 624.607 534.832 600.777 C 513.75 580.444 510.577 562.724 509.674 534.814 C 516.59 527.525 517.418 524.63 518.513 514.564 C 520.279 498.332 521.055 482.391 525.825 466.676 z"/>
<path transform="translate(0,0)" fill="rgb(254,254,254)" d="M 925.17 462.144 C 939.172 460.093 947.015 480.796 947.869 491.756 C 948.8 503.715 949.317 515.894 949.86 527.867 C 953.818 530.676 956.617 532.298 957.174 537.554 C 958.671 551.689 949.605 567.611 941.761 578.442 C 929.01 580.394 919.976 580.283 907.388 577.617 C 906.462 574.182 906.209 572.653 904.382 569.487 C 901.27 567.005 900.019 567.468 896.615 566.936 C 869.427 562.692 873.564 601.721 896.965 596.214 C 901.668 594.428 906.013 588.979 911.536 589.307 C 919.801 589.798 926.3 590.331 934.723 589.852 C 928.452 598.066 924.838 603.579 916.564 609.827 C 888.859 630.261 861.706 620.608 840.424 596.887 C 823.512 578.036 819.074 559.544 820.266 534.634 C 823.804 530.34 824.549 529.253 829.169 526.208 C 828.538 519.509 828.997 469.401 835.412 467.941 C 851.787 464.212 875.502 470.364 893.066 468.912 C 904.966 467.928 913.954 465.471 925.17 462.144 z"/>
<path transform="translate(0,0)" fill="rgb(254,254,254)" d="M 807.218 657.197 C 815.587 668.957 828.56 680.413 837.216 692.372 C 839.206 695.122 851.774 709.545 855.814 704.503 C 864.274 693.945 871.548 687.742 882.575 680.075 C 882.475 696.288 882.492 712.502 882.626 728.714 C 853.266 729.303 821.601 728.342 792.104 727.997 C 787.066 742.165 787.487 758.453 786.65 773.699 C 783.678 776.078 779.387 778.479 776.061 780.497 C 776.233 774.31 777.172 758.389 775.822 753.428 C 768.58 750.021 768.401 760.631 768.117 764.843 C 766.936 782.394 767.201 799.841 767.912 817.401 C 768.279 845.5 766.11 847.872 791.849 861.167 C 791.976 871.899 791.95 882.893 790.795 893.556 C 783.914 894.264 772.793 894.05 765.502 894.099 C 765.467 878.933 766.17 861.484 765.148 846.655 C 762.989 815.316 754.059 784.03 748.36 752.959 C 746.313 741.799 740.281 712.21 736.931 702.876 C 752.935 669.519 772.933 669.368 807.218 657.197 z"/>
<path transform="translate(0,0)" fill="rgb(254,254,254)" d="M 875.17 399.503 C 950.2 394.614 977.021 422.117 966.401 497.065 C 964.695 509.11 963.095 512.745 957.387 523.23 C 956.551 489.638 958.584 476.12 935.351 452.384 C 926.415 454.483 916.945 457.107 908.003 459.408 C 887.181 463.884 865.237 461.623 844.639 457.698 C 840.596 456.658 831.131 455.86 828.473 460.129 C 819.873 473.942 820.395 505.567 820.123 520.837 C 798.119 468.868 809.965 407.344 875.17 399.503 z"/>
<path transform="translate(0,0)" fill="rgb(254,254,254)" d="M 552.347 410.325 C 579.591 407.638 606.887 413.091 634.129 413.261 C 641.107 413.305 648.081 413.569 655.056 413.729 C 652.55 451.632 641.802 467.888 601.362 467.247 C 581.229 466.929 567.504 464.788 547.755 460.422 C 542.547 459.277 523.286 454.372 521.399 456.652 C 513.582 466.096 511.268 511.149 509.355 523.588 C 489.81 478.664 493.565 418.673 552.347 410.325 z"/>
<path transform="translate(0,0)" fill="rgb(254,254,254)" d="M 1009.26 832.916 C 1025.91 832.054 1050.89 832.876 1067.79 833.513 C 1071 852.379 1076.32 880.537 1058.6 893.766 C 1047.12 902.338 1023.89 899.306 1009.92 899.044 C 996.856 898.87 983.788 898.821 970.721 898.897 L 936.488 899.016 C 936.698 884.108 935.669 866.391 936.987 851.853 C 968.289 848.826 1002.18 852.138 1033.05 851.752 L 1034.57 849.988 C 1035.86 836.097 1020.55 846.224 1010.04 842.319 C 1008.37 839.644 1009.07 836.281 1009.26 832.916 z"/>
<path transform="translate(0,0)" fill="rgb(254,254,254)" d="M 1028.31 440.814 C 1040.42 442.106 1055.78 445.258 1068.4 447.017 C 1098.83 450.961 1129.22 455.189 1159.58 459.7 C 1154.72 466.748 1150.31 472.635 1145.05 479.383 L 1137.91 487.907 C 1104.38 481.394 1057.74 473.845 1023.52 471.516 C 1024.31 461.173 1025.91 450.908 1028.31 440.814 z"/>
<path transform="translate(0,0)" fill="rgb(254,254,254)" d="M 537.376 612.115 C 570.761 630.847 579.697 635.212 613.348 613.944 L 616.504 633.786 C 613.01 638.15 610.227 640.859 606.21 644.788 C 597.429 652.531 585.622 661.147 575.507 666.934 C 565.209 660.239 540.625 645.526 532.569 638.628 C 533.436 631.228 535.947 619.741 537.376 612.115 z"/>
<path transform="translate(0,0)" fill="rgb(254,254,254)" d="M 847.623 615.025 C 879.247 630.946 893.504 633.847 924.385 614.108 C 925.329 622.157 925.978 625.308 928.236 633.167 L 915.944 645.316 C 905.993 654.345 896.926 660.863 885.757 668.197 C 876.659 659.126 860.493 648.774 849.549 640.067 C 848.173 632.951 846.522 622.141 847.623 615.025 z"/>
<path transform="translate(0,0)" fill="rgb(254,254,254)" d="M 1023.03 480.144 C 1038.5 479.911 1060.87 483.304 1076.46 485.565 L 1137.7 494.481 C 1136.08 500.775 1134.58 507.1 1133.2 513.453 C 1122.5 510.472 1108.25 510.904 1096.92 509.424 C 1073.12 506.314 1043.23 503.456 1020.15 497.604 C 1020.82 491.971 1022.04 485.78 1023.03 480.144 z"/>
<path transform="translate(0,0)" fill="rgb(254,254,254)" d="M 785.073 785.338 C 791.417 784.994 807.956 783.149 812.066 788.035 C 815.887 797.727 814.444 827.929 813.16 839.227 C 812.572 844.404 811.435 845.822 807.771 848.44 C 793.023 849.85 777.183 851.182 777.71 831.473 C 778.066 818.166 776.19 801.553 778.488 788.508 C 781.298 785.697 780.678 786.537 785.073 785.338 z"/>
<path transform="translate(0,0)" fill="rgb(109,189,69)" d="M 936.588 745.68 C 940.616 746.507 954.754 749.701 957.92 749.478 C 976.022 748.201 984.762 744.037 982.042 768.003 C 981.206 775.368 978.695 778.988 974.009 785.375 C 959.684 800.44 951.42 797.47 937.842 783.247 C 936.618 773.552 936.783 755.988 936.588 745.68 z"/>
<path transform="translate(0,0)" fill="rgb(254,254,254)" d="M 934.47 642.848 C 938.307 643.443 955.883 651.748 960.323 653.792 C 945.98 669.51 936.786 680.724 924.089 697.513 C 922.603 697.033 903.705 676.05 897.984 671.836 C 907.478 664.361 925.277 648.184 934.47 642.848 z"/>
<path transform="translate(0,0)" fill="rgb(254,254,254)" d="M 525.998 641.797 C 526.9 642.049 562.821 670.24 565.99 672.961 C 557.725 679.766 549.276 688.447 541.556 696.029 C 537.479 694.77 509.935 659.861 502.641 653.433 C 511.694 650.321 518.031 646.986 525.998 641.797 z"/>
<path transform="translate(0,0)" fill="rgb(254,254,254)" d="M 625.345 641.762 C 627.684 641.666 643.816 651.087 646.803 652.735 C 634.133 666.894 621.9 681.439 610.121 696.348 C 603.122 687.265 594.931 679.166 585.768 672.272 C 599.175 662.383 612.37 652.211 625.345 641.762 z"/>
<path transform="translate(0,0)" fill="rgb(254,254,254)" d="M 836.273 645.076 C 845.388 643.261 869.137 666.846 876.962 673.729 C 868.582 679.132 862.286 683.454 855.267 690.539 C 853.781 693.178 853.644 693.4 851.516 695.521 C 848.367 693.872 821.276 658.139 817.06 652.515 C 823.37 649.799 829.779 647.318 836.273 645.076 z"/>
<path transform="translate(0,0)" fill="rgb(238,138,48)" d="M 977.491 551.089 C 981.366 550.898 987.338 549.78 991.329 549.148 C 992.158 557.743 993.95 568.259 988.047 575.421 C 980.083 585.083 960.843 582.648 950.168 580.41 C 961.588 561.708 959.735 562.896 977.491 551.089 z"/>
<path transform="translate(0,0)" fill="rgb(254,254,254)" d="M 650.242 458.786 C 651.436 459.103 651.177 459.25 652.306 460.382 C 654.717 472.194 655.431 511.735 645.444 518.14 C 643.682 498.867 642.233 486.878 638.152 468.019 C 642.102 464.915 646.237 461.839 650.242 458.786 z"/>
<path transform="translate(0,0)" fill="rgb(254,254,254)" d="M 1165.2 474.768 C 1172.52 477.189 1167.06 500.955 1162.94 506.059 C 1159.88 506.133 1157.79 503.879 1154.74 501.834 L 1144.74 494.066 C 1151.51 486.245 1156.73 480.686 1165.2 474.768 z"/>
<path transform="translate(0,0)" fill="rgb(254,254,254)" d="M 977.491 551.089 C 979.706 543.279 977.51 526.508 981.249 522.809 C 991.172 525.469 991.258 541.096 991.329 549.148 C 987.338 549.78 981.366 550.898 977.491 551.089 z"/>
<path transform="translate(0,0)" fill="rgb(221,223,226)" d="M 805.955 519.193 C 806.868 519.46 808.244 520.145 809.159 520.557 C 815.036 528.389 813.793 537.1 813.017 546.415 C 804.121 540.843 804.387 528.23 805.955 519.193 z"/>
<path transform="translate(0,0)" fill="rgb(254,254,254)" d="M 497.081 513.601 C 500.299 517.606 503.89 540.991 501.031 545.754 C 492.187 535.312 493.673 525.811 497.081 513.601 z"/>
<path transform="translate(0,0)" fill="rgb(221,223,226)" d="M 966.468 517.458 L 968.19 518.341 C 971.002 524.931 970.392 542.471 969.132 549.807 C 967.558 549.255 966.094 549.193 965.766 547.453 C 964.317 539.756 963.97 524.522 966.468 517.458 z"/>
<path transform="translate(0,0)" fill="rgb(254,254,254)" d="M 656.567 520.425 C 663.432 524.565 658.03 539.192 655.162 544.904 C 653.639 544.788 654.192 544.837 652.743 543.889 C 651.86 536.42 652.771 527.05 656.567 520.425 z"/>
<path transform="translate(0,0)" fill="rgb(254,254,254)" d="M 888.948 577.646 C 892.91 577.712 894.123 577.586 897.205 579.82 C 898.434 583.358 898.31 581.858 897.071 585.784 C 893.131 586.076 890.87 586.544 887.778 584.677 C 887.134 580.887 887.476 581.786 888.948 577.646 z"/>
<path transform="translate(0,0)" fill="rgb(4,4,4)" d="M 361.959 458.237 C 363.192 458.111 364.429 458.025 365.668 457.981 C 388.306 457.122 413.664 467.131 424.785 488.179 C 426.245 490.942 427.973 499.265 429.936 501.005 C 432.036 502.867 451.478 504.025 460.291 512.784 C 465.999 518.456 468.286 525.687 468.39 533.591 C 468.479 540.267 468.68 551.858 463.305 556.811 C 456.195 563.362 400.374 559.034 387.634 558.784 C 374.079 558.781 288.493 560.585 283.648 556.838 C 279.955 553.983 278.665 548.572 278.4 544.16 C 277.959 536.835 279.467 529.122 284.633 523.624 C 290.78 517.081 299.923 515.215 308.518 514.923 C 314.033 483.469 330.646 464.538 361.959 458.237 z"/>
<path transform="translate(0,0)" fill="rgb(238,138,48)" d="M 369.96 466.418 C 397.672 466.833 421.112 482.922 421.775 512.411 L 429.398 511.48 C 445.284 509.677 458.738 516.502 461.009 534.072 C 463.77 555.435 437.261 550.145 422.018 550.253 L 373.5 550.847 C 349.234 550.953 324.963 551.636 300.718 551.855 C 292.861 551.566 282.847 551.851 284.597 540.774 C 287.623 521.617 299.53 519.496 316.12 521.571 L 317.172 520.685 C 314.309 490.275 341.525 468.832 369.96 466.418 z"/>
</svg>