<svg version="1.1" xmlns="http://www.w3.org/2000/svg" style="display: block;" viewBox="0 0 2044 2048" width="998" height="1000" preserveAspectRatio="none">
<path transform="translate(0,0)" fill="rgb(230,230,226)" d="M 893.354 344.022 C 895.255 339.241 894.507 336.345 895.514 331.434 C 898.209 316.044 900.138 303.597 906.519 289.353 C 914.43 271.692 918.078 267.695 931.111 254.825 C 949.028 237.13 961.712 227.465 985.385 218.611 C 1018.55 206.21 1050.18 209.734 1082.1 224.314 C 1108.35 237.457 1132.71 256.833 1144.92 284.199 C 1150.52 296.739 1147.08 313.757 1162.17 319.941 C 1178.22 321.187 1204.82 329.707 1220.84 333.809 C 1236.91 337.924 1251.48 341.081 1267.18 346.855 C 1281.7 352.193 1294.22 358.868 1308.18 365.085 C 1380.34 397.22 1447.14 446.876 1499.9 505.554 C 1505.49 511.774 1510.61 519.422 1516.02 525.967 C 1519.8 530.534 1527.18 536.493 1530.41 540.947 C 1547.3 564.248 1563.08 588.884 1578.17 613.333 C 1589.6 631.851 1596.48 652.713 1609.8 669.336 C 1636.83 670.899 1673.89 668.801 1698.49 681.239 C 1720.56 692.394 1720.43 741.477 1724.69 762.962 C 1728.27 780.944 1729.51 796.906 1729.42 815.184 C 1729.39 820.079 1733.23 827.079 1733.58 832.196 C 1735.2 846.977 1733.93 863.01 1735.05 877.675 C 1738.56 923.758 1690.51 925.372 1657.92 934.414 C 1653.33 935.686 1649.21 938.136 1644.88 939.613 C 1644.92 951.437 1638.93 964.807 1635.13 976.123 C 1617.96 1028.03 1591.59 1074.45 1552 1112.68 C 1543.69 1120.71 1534.85 1127.08 1526.83 1134.53 C 1505.99 1153.91 1484.04 1167.02 1459.44 1181 C 1448.37 1187.29 1431.61 1193.97 1421.74 1201.17 C 1396.6 1212.15 1371.34 1221.18 1345.66 1230.75 C 1338.59 1233.39 1322.38 1237.3 1317.24 1240.24 L 1317.25 1311.86 C 1317.23 1329.83 1317.75 1348.43 1315.3 1366.18 C 1312.94 1368.87 1309.99 1371.49 1309.07 1374.65 C 1303.54 1375.78 1291.24 1388.38 1288.71 1393.44 C 1280.66 1406.15 1278.79 1429.05 1274.8 1444.04 C 1269.61 1463.49 1269.94 1486.81 1259.59 1504.69 C 1253.84 1514.48 1242.7 1522.22 1235.15 1530.11 C 1227.84 1529.34 1191.8 1541.34 1178.42 1542.22 C 1167.17 1541.34 1166.44 1543.7 1156.01 1545.02 C 1118.86 1549.71 1079.53 1546.82 1042.06 1546.82 C 1026.45 1546.81 1015.38 1544.5 1000.39 1542.2 C 991.369 1540.81 981.617 1541.76 972.53 1540.4 C 960.266 1538.21 959.242 1535.36 945.78 1535.54 C 928.278 1532.08 915.386 1532.04 896.168 1526.94 C 888.214 1522.6 877.159 1519.71 870.167 1514.65 C 846.579 1497.6 844.564 1465.69 838.719 1439.57 C 835.831 1426.66 833.137 1414.38 830.555 1401.51 C 829.293 1395.22 829.24 1395.48 825.06 1389.91 C 824.287 1375.39 824.342 1372.12 816.648 1359.9 C 800.093 1378.9 785.953 1390.65 761.382 1395.19 C 757.777 1395.86 754.162 1399.45 749.942 1399.55 C 742.995 1399.71 735.678 1397.44 728.959 1395.75 C 723.157 1394.28 719.938 1394.6 714.088 1394.76 C 708.227 1387.85 696.159 1385.01 688.585 1379.17 C 684.809 1376.26 680.384 1373.01 676.499 1370.29 C 654.238 1351.55 639.579 1310.99 643.06 1282.12 C 644.584 1269.49 654.949 1252.39 663.092 1242.98 C 667.468 1237.92 681.782 1232.48 682.963 1225.7 L 680.005 1222.97 C 670.117 1218.89 648.446 1200.24 637.403 1192.62 C 602.376 1168.43 560.368 1113.52 546.606 1074.77 C 515.748 1070.48 479.333 1083.07 453.323 1060.65 C 448.16 1056.2 444.084 1049.46 442.206 1042.93 C 437.478 1026.5 436.675 1010.39 435.03 993.551 C 434.235 985.414 431.919 977.493 430.774 969.411 C 429.653 961.496 430.114 953.423 429.109 945.499 C 428.067 937.291 426.24 929.183 425.31 920.961 C 424.3 912.022 424.401 902.972 423.394 894.04 C 422.361 884.885 419.646 875.813 419.283 866.594 C 419.029 860.147 421.772 854.425 424.706 848.84 C 444.715 810.75 500.381 819.485 518.588 800.346 C 518.851 800.069 519.106 799.784 519.365 799.503 C 523.021 749.915 560.044 658.261 585.471 612.475 C 642.795 509.256 733.086 419.217 840.095 367.686 C 856.302 359.882 876.555 348.699 893.354 344.022 z"/>
<path transform="translate(0,0)" fill="rgb(230,230,226)" d="M 825.06 1389.91 L 826.648 1388.32 C 830.112 1388.42 829.048 1388.83 831.113 1389.48 C 842.319 1393.01 861.67 1394.5 873.489 1394.97 C 904.738 1396.21 936.34 1395.82 967.588 1395.79 L 1107.32 1395.8 L 1206.31 1395.96 C 1235.54 1396.01 1259.49 1396.83 1288.71 1393.44 C 1280.66 1406.15 1278.79 1429.05 1274.8 1444.04 C 1269.61 1463.49 1269.94 1486.81 1259.59 1504.69 C 1253.84 1514.48 1242.7 1522.22 1235.15 1530.11 C 1227.84 1529.34 1191.8 1541.34 1178.42 1542.22 C 1167.17 1541.34 1166.44 1543.7 1156.01 1545.02 C 1118.86 1549.71 1079.53 1546.82 1042.06 1546.82 C 1026.45 1546.81 1015.38 1544.5 1000.39 1542.2 C 991.369 1540.81 981.617 1541.76 972.53 1540.4 C 960.266 1538.21 959.242 1535.36 945.78 1535.54 C 928.278 1532.08 915.386 1532.04 896.168 1526.94 C 888.214 1522.6 877.159 1519.71 870.167 1514.65 C 846.579 1497.6 844.564 1465.69 838.719 1439.57 C 835.831 1426.66 833.137 1414.38 830.555 1401.51 C 829.293 1395.22 829.24 1395.48 825.06 1389.91 z"/>
<path transform="translate(0,0)" fill="rgb(35,35,35)" d="M 1317.24 1240.24 L 1317.25 1311.86 C 1317.23 1329.83 1317.75 1348.43 1315.3 1366.18 C 1312.94 1368.87 1309.99 1371.49 1309.07 1374.65 C 1303.54 1375.78 1291.24 1388.38 1288.71 1393.44 C 1259.49 1396.83 1235.54 1396.01 1206.31 1395.96 L 1107.32 1395.8 L 967.588 1395.79 C 936.34 1395.82 904.738 1396.21 873.489 1394.97 C 861.67 1394.5 842.319 1393.01 831.113 1389.48 C 829.048 1388.83 830.112 1388.42 826.648 1388.32 L 825.06 1389.91 C 824.287 1375.39 824.342 1372.12 816.648 1359.9 C 819.673 1353.9 817.859 1284.11 818.762 1271.66 C 846.938 1277.27 875.39 1281.38 904 1283.99 C 1022.2 1293.77 1152.74 1279.54 1267.83 1252.76 C 1283.95 1249.01 1300.98 1242.64 1317.24 1240.24 z"/>
<path transform="translate(0,0)" fill="rgb(212,212,211)" d="M 680.005 1222.97 L 684.549 1221.68 C 686.119 1222.92 685.967 1222.98 687.277 1224.55 C 694.434 1233.16 705.776 1234.66 714.924 1239.09 C 749.371 1255.78 781.282 1264.17 818.762 1271.66 C 817.859 1284.11 819.673 1353.9 816.648 1359.9 C 800.093 1378.9 785.953 1390.65 761.382 1395.19 C 757.777 1395.86 754.162 1399.45 749.942 1399.55 C 742.995 1399.71 735.678 1397.44 728.959 1395.75 C 723.157 1394.28 719.938 1394.6 714.088 1394.76 C 708.227 1387.85 696.159 1385.01 688.585 1379.17 C 684.809 1376.26 680.384 1373.01 676.499 1370.29 C 654.238 1351.55 639.579 1310.99 643.06 1282.12 C 644.584 1269.49 654.949 1252.39 663.092 1242.98 C 667.468 1237.92 681.782 1232.48 682.963 1225.7 L 680.005 1222.97 z"/>
<path transform="translate(0,0)" fill="rgb(212,212,211)" d="M 546.606 1074.77 C 515.748 1070.48 479.333 1083.07 453.323 1060.65 C 448.16 1056.2 444.084 1049.46 442.206 1042.93 C 437.478 1026.5 436.675 1010.39 435.03 993.551 C 434.235 985.414 431.919 977.493 430.774 969.411 C 429.653 961.496 430.114 953.423 429.109 945.499 C 428.067 937.291 426.24 929.183 425.31 920.961 C 424.3 912.022 424.401 902.972 423.394 894.04 C 422.361 884.885 419.646 875.813 419.283 866.594 C 419.029 860.147 421.772 854.425 424.706 848.84 C 444.715 810.75 500.381 819.485 518.588 800.346 C 518.851 800.069 519.106 799.784 519.365 799.503 C 513.611 819.736 513.32 842.34 510.669 863.203 C 507.823 885.603 509.488 908.838 511.512 931.25 C 514.858 971.961 520.294 1011.5 536.136 1049.49 C 539.292 1057.05 544.644 1066.95 546.606 1074.77 z"/>
<path transform="translate(0,0)" fill="rgb(212,212,211)" d="M 893.354 344.022 C 895.255 339.241 894.507 336.345 895.514 331.434 C 898.209 316.044 900.138 303.597 906.519 289.353 C 914.43 271.692 918.078 267.695 931.111 254.825 C 949.028 237.13 961.712 227.465 985.385 218.611 C 1018.55 206.21 1050.18 209.734 1082.1 224.314 C 1108.35 237.457 1132.71 256.833 1144.92 284.199 C 1150.52 296.739 1147.08 313.757 1162.17 319.941 C 1060.24 305.686 990.831 311.623 893.354 344.022 z"/>
<path transform="translate(0,0)" fill="rgb(35,35,35)" d="M 888.755 1164.41 C 853.496 1159.43 825.493 1155.91 791.427 1144.29 C 619.842 1085.76 614.39 887.288 666.357 742.427 C 707.935 628.778 792.596 536.073 902.016 484.378 C 1001.31 438.214 1114.77 432.945 1217.92 469.708 C 1337.07 512.311 1434.02 601.128 1486.89 716.095 C 1519.84 786.811 1538.17 885.938 1510.23 960.124 C 1480.63 1038.69 1423.7 1071.1 1353.12 1103.61 C 1348.53 1109.23 1284.71 1125.16 1273.64 1127.36 C 1196.06 1145.64 1117.2 1157.95 1037.74 1164.18 C 1018.1 1165.75 996.622 1164.9 977.516 1166.36 C 960.418 1168.28 905.261 1166.7 888.755 1164.41 z"/>
<path transform="translate(0,0)" fill="rgb(144,220,249)" d="M 861.665 956.23 C 852.008 946.118 844.256 939.314 858.293 926.043 C 866.542 918.245 884.333 911.6 895.934 911.547 C 919.336 914.992 932.023 896.964 953.286 896.434 C 962.255 896.211 973.714 905.436 979.07 912.174 C 979.246 918.302 979.54 924.187 979.15 930.311 L 978.353 931.665 C 970.84 944.312 952.724 945.024 952.698 949.542 C 952.522 978.948 966.652 1012.53 960.046 1043.23 C 952.705 1077.35 952.121 1101.73 962.29 1135.48 C 964.548 1143.19 965.34 1156.16 966.239 1165.02 C 969.125 1167.14 973.173 1166.33 977.516 1166.36 C 960.418 1168.28 905.261 1166.7 888.755 1164.41 C 879.801 1136.6 876.926 1110.29 885.234 1082.75 C 894.435 1052.26 893.692 1033.75 881.278 1004.75 C 876.27 993.053 872.355 971.351 872.271 957.796 L 861.665 956.23 z"/>
<path transform="translate(0,0)" fill="rgb(144,220,249)" d="M 1211.51 886.86 C 1230.61 858.019 1248.23 875.063 1272.75 875.585 C 1296.39 876.087 1323.35 862.395 1341.73 888.803 L 1340.97 902.976 L 1335.12 910.614 L 1325.6 912.566 C 1327.01 924.768 1328.89 937.101 1327.71 949.382 C 1326.25 964.558 1321.24 982.824 1322.59 998.028 C 1324.62 1020.7 1339.71 1039.71 1347.22 1062.25 C 1352.78 1078.96 1350.17 1093.06 1353.12 1103.61 C 1348.53 1109.23 1284.71 1125.16 1273.64 1127.36 C 1272.48 1101.96 1275.32 1072.83 1269.51 1048.47 C 1265.17 1030.31 1252.19 1012.07 1250.07 992.664 C 1247.6 970.033 1250.29 947.478 1248.81 924.858 C 1247.83 910.463 1229.96 921.086 1219.84 911.719 C 1211.81 904.292 1212.35 897.387 1211.51 886.86 z"/>
<path transform="translate(0,0)" fill="rgb(230,230,226)" d="M 937.055 790.092 C 965.177 787.314 968.064 810.023 954.994 829.439 C 935.747 858.032 901.087 880.907 866.579 882.12 C 864.979 881.934 863.385 881.705 861.798 881.436 C 855.105 880.248 848.413 876.28 844.911 870.345 C 828.334 842.256 882.267 836.101 898.456 823.583 C 912.272 812.901 924.137 797.364 937.055 790.092 z"/>
<path transform="translate(0,0)" fill="rgb(230,230,226)" d="M 1205 766.105 C 1218.97 764.83 1227.72 770.113 1237.89 778.194 C 1258.29 795.47 1276.4 796.342 1300.87 800.475 C 1323.9 804.367 1327.35 827.069 1305.42 839.46 C 1253.44 854.945 1157.57 795.371 1205 766.105 z"/>
<path transform="translate(0,0)" fill="rgb(230,230,226)" d="M 1102.73 934.39 C 1131.98 931.546 1159.2 947.872 1175.11 971.601 L 1161.3 981.979 C 1139.4 958.382 1123.51 950.425 1091.02 956.381 C 1064.7 964.65 1058.68 972.485 1043.06 994.379 C 1039.08 992.349 1031.19 989.071 1028.74 986.037 C 1028.6 981.398 1034.44 972.553 1037.48 968.813 C 1055.03 947.262 1075.73 937.482 1102.73 934.39 z"/>
<path transform="translate(0,0)" fill="rgb(230,230,226)" d="M 1226.34 1624.53 C 1227.47 1626.6 1227.59 1628.23 1230.16 1628.39 C 1245.51 1629.32 1260.24 1630.32 1275.53 1632.15 C 1283.85 1635.09 1296.22 1638.7 1303.48 1642.64 C 1336.5 1660.58 1354.02 1676.19 1368.82 1710.91 C 1381.97 1741.76 1383.58 1772.14 1383.18 1805.71 C 1383.14 1813.97 1382.75 1832.95 1385.58 1840.08 C 1395.46 1845.52 1401.54 1847.45 1408.8 1856.42 L 1409.77 1857.6 C 1411.86 1867.76 1413.09 1879.76 1407.7 1888.98 C 1405.34 1893.03 1394.67 1900.49 1390.3 1900.75 C 1335 1904.04 1276.92 1900.84 1221.71 1902.15 C 1210.27 1902.4 1182.05 1903.77 1172.51 1899.85 C 1157.21 1893.56 1134.8 1871.13 1128.6 1854.81 C 1125.72 1847.25 1121.16 1835.84 1120.9 1827.68 C 1119.66 1787.12 1119.35 1743.61 1121.19 1703.28 C 1122.68 1670.66 1150.64 1634.8 1183.26 1630.18 C 1193.76 1628.7 1206.84 1630.95 1216.91 1627.09 C 1221.06 1625.43 1221.82 1625.16 1226.34 1624.53 z"/>
<path transform="translate(0,0)" fill="rgb(35,35,35)" d="M 1385.58 1840.08 C 1395.46 1845.52 1401.54 1847.45 1408.8 1856.42 L 1409.77 1857.6 C 1411.86 1867.76 1413.09 1879.76 1407.7 1888.98 C 1405.34 1893.03 1394.67 1900.49 1390.3 1900.75 C 1335 1904.04 1276.92 1900.84 1221.71 1902.15 C 1220.87 1855.84 1258.29 1840.65 1299.05 1843.22 C 1312.29 1844.05 1373.86 1844.88 1384.28 1842.44 L 1385.58 1840.08 z"/>
<path transform="translate(0,0)" fill="rgb(230,230,226)" d="M 907.103 1627.84 C 944.906 1628.3 962.063 1621.87 989.059 1649.48 C 998.157 1658.72 1004.72 1670.15 1008.12 1682.67 C 1010.24 1690.63 1010.73 1699.17 1010.82 1707.45 C 1011.1 1733.25 1010.44 1759.16 1010.98 1784.96 C 1011.02 1786.75 1013.62 1789.31 1014.84 1790.57 C 1008.84 1798.21 1015.5 1803.39 1015.16 1813.49 L 1014.2 1814.49 C 1007.76 1821.31 1012.69 1837.88 1007.92 1850.13 C 999.712 1871.22 990.529 1879.37 974.718 1894.58 C 962.377 1896.08 963.808 1898.18 956.097 1900.55 C 949.096 1902.7 921.598 1902.89 913.923 1902.13 C 876.786 1900.94 837.755 1902.58 800.475 1902.1 C 779.482 1901.83 758.691 1903.2 737.886 1900.09 C 732.843 1896.19 728.75 1892.46 725.18 1887.15 C 723.298 1861.06 722.322 1851.27 749.54 1841.78 C 754.502 1834.73 751.168 1771.39 752.909 1756.59 C 758.615 1708.12 781.521 1670.51 824.211 1645.74 C 834.678 1639.67 849.979 1637.81 860.741 1631.82 C 878.313 1629.3 889.663 1628.39 907.103 1627.84 z"/>
<path transform="translate(0,0)" fill="rgb(35,35,35)" d="M 725.18 1887.15 C 723.298 1861.06 722.322 1851.27 749.54 1841.78 L 749.944 1843.04 C 756.541 1843.84 771.277 1843.44 778.381 1843.43 L 835.318 1843.19 C 847.308 1843.12 862.535 1842.04 873.815 1845.7 C 899.139 1853.94 914.108 1875.96 913.923 1902.13 C 876.786 1900.94 837.755 1902.58 800.475 1902.1 C 779.482 1901.83 758.691 1903.2 737.886 1900.09 C 732.843 1896.19 728.75 1892.46 725.18 1887.15 z"/>
<path transform="translate(0,0)" fill="rgb(230,230,226)" d="M 1409.61 1381.38 L 1409.35 1379.12 C 1414.06 1376.69 1418.84 1374.94 1423.21 1371.86 C 1430.86 1366.49 1436.59 1357.84 1443.94 1352.61 C 1443.37 1359.56 1455.39 1395.55 1458.75 1400.9 C 1462.69 1402.85 1465.86 1401.75 1469.41 1402.54 C 1489.77 1404.85 1523.44 1415.61 1539.08 1426.65 C 1591.19 1463.45 1606.1 1544.83 1576.64 1600.25 C 1569.41 1613.84 1562.42 1617.38 1560.03 1633.35 L 1557.64 1641.63 C 1553.46 1655.67 1555.67 1680.16 1553.53 1697.26 C 1538.32 1716.3 1535.82 1717.02 1511.7 1718.11 C 1487.18 1691.82 1488.74 1709.61 1463.9 1715.28 C 1463.1 1715.46 1453.34 1712.22 1452.23 1711.39 C 1440.27 1708.49 1439.48 1707.62 1434.27 1696.2 C 1429.71 1692.38 1432.89 1676.62 1430.92 1668.4 C 1426.19 1667.07 1404.99 1656.19 1398.07 1653.17 C 1388.55 1654.78 1377.42 1668.21 1361.81 1664.71 C 1349.02 1661.84 1343.13 1654.38 1336.35 1644.32 C 1336 1638.66 1335.59 1631.19 1336.45 1625.73 C 1338.4 1613.41 1342.22 1603.79 1341.38 1591.04 C 1317.47 1532.56 1334.75 1466.66 1385.19 1427.82 C 1394.44 1420.69 1406.37 1417.42 1416.56 1408.97 L 1417.46 1408.21 C 1419.03 1400 1416.85 1386.2 1409.61 1381.38 z"/>
<path transform="translate(0,0)" fill="rgb(35,35,35)" d="M 1430.92 1668.4 C 1436.39 1640.2 1423.38 1593.1 1472.47 1598.49 C 1483.66 1599.72 1490.8 1608.01 1496.7 1616.69 C 1507.52 1602.56 1525.05 1595.42 1542.1 1603.62 C 1554.24 1609.46 1556.28 1621.56 1560.03 1633.35 L 1557.64 1641.63 C 1553.46 1655.67 1555.67 1680.16 1553.53 1697.26 C 1538.32 1716.3 1535.82 1717.02 1511.7 1718.11 C 1487.18 1691.82 1488.74 1709.61 1463.9 1715.28 C 1463.1 1715.46 1453.34 1712.22 1452.23 1711.39 C 1440.27 1708.49 1439.48 1707.62 1434.27 1696.2 C 1429.71 1692.38 1432.89 1676.62 1430.92 1668.4 z"/>
<path transform="translate(0,0)" fill="rgb(36,72,53)" d="M 1434.27 1696.2 L 1436.52 1695.42 C 1440.47 1697.9 1446.55 1706.69 1452.23 1711.39 C 1440.27 1708.49 1439.48 1707.62 1434.27 1696.2 z"/>
<path transform="translate(0,0)" fill="rgb(35,35,35)" d="M 1341.38 1591.04 C 1355.93 1615.74 1372.25 1638.75 1398.07 1653.17 C 1388.55 1654.78 1377.42 1668.21 1361.81 1664.71 C 1349.02 1661.84 1343.13 1654.38 1336.35 1644.32 C 1336 1638.66 1335.59 1631.19 1336.45 1625.73 C 1338.4 1613.41 1342.22 1603.79 1341.38 1591.04 z"/>
<path transform="translate(0,0)" fill="rgb(35,35,35)" d="M 1409.61 1381.38 L 1409.35 1379.12 C 1414.06 1376.69 1418.84 1374.94 1423.21 1371.86 C 1430.86 1366.49 1436.59 1357.84 1443.94 1352.61 C 1443.37 1359.56 1455.39 1395.55 1458.75 1400.9 C 1462.69 1402.85 1465.86 1401.75 1469.41 1402.54 C 1466.96 1402.49 1419.58 1407.56 1417.46 1408.21 C 1419.03 1400 1416.85 1386.2 1409.61 1381.38 z"/>
<path transform="translate(0,0)" fill="rgb(230,230,226)" d="M 676.499 1370.29 C 680.384 1373.01 684.809 1376.26 688.585 1379.17 C 696.159 1385.01 708.227 1387.85 714.088 1394.76 C 705.873 1400.06 709.558 1404.07 708.463 1412.03 C 714.743 1419.23 733.597 1424.59 740.409 1430.37 C 773.244 1458.21 795.152 1499.82 792.465 1543.5 C 791.681 1556.26 790.547 1578.93 783.095 1590.35 L 782.907 1591.48 C 778.829 1617.38 804.274 1637.06 775.402 1659.1 C 748.377 1679.74 736.252 1655.34 724.697 1655.39 C 716.341 1659.53 703.659 1666.45 694.988 1668.41 C 693.497 1672.75 694.059 1678.13 693.809 1682.89 C 692.431 1709.19 678.696 1724.26 651.408 1716.18 C 645.262 1714.36 639.269 1711.17 636.131 1705.2 C 628.065 1706.6 627.52 1710.69 620.984 1713.86 C 617.88 1716.31 615.186 1718.3 611.937 1720.55 C 548.4 1721.18 580.541 1677.29 567.514 1665.1 C 562.186 1657.8 563.705 1651.38 564.133 1642.14 C 564.178 1638.18 564.512 1634.07 563.46 1630.3 C 538.848 1595.65 527.091 1564.47 528.107 1521.02 C 527.449 1516.35 531.811 1512.15 532.792 1508.48 C 545.435 1461.06 584.57 1419.99 633.495 1410.69 C 641.852 1409.1 647.64 1405.81 655.849 1404.91 C 664.372 1403.64 669.688 1402.58 671.631 1392.9 C 673.024 1385.96 675.378 1376.96 676.499 1370.29 z"/>
<path transform="translate(0,0)" fill="rgb(35,35,35)" d="M 626.785 1619.91 C 641.039 1600.42 656.082 1593.26 678.761 1607.02 C 696.187 1617.59 687.512 1660.17 694.988 1668.41 C 693.497 1672.75 694.059 1678.13 693.809 1682.89 C 692.431 1709.19 678.696 1724.26 651.408 1716.18 C 645.262 1714.36 639.269 1711.17 636.131 1705.2 C 628.065 1706.6 627.52 1710.69 620.984 1713.86 C 617.88 1716.31 615.186 1718.3 611.937 1720.55 C 548.4 1721.18 580.541 1677.29 567.514 1665.1 C 562.186 1657.8 563.705 1651.38 564.133 1642.14 C 564.178 1638.18 564.512 1634.07 563.46 1630.3 C 565.349 1625.92 567.362 1620.55 570.344 1616.9 C 587.702 1595.65 611.288 1600.66 626.785 1619.91 z"/>
<path transform="translate(0,0)" fill="rgb(36,72,53)" d="M 620.984 1713.86 C 619.685 1712.45 620.224 1713.33 619.622 1711.09 C 623.488 1705.71 625.071 1703.79 631.034 1701.03 C 635.013 1701.41 633.44 1700.63 636.177 1702.82 L 636.131 1705.2 C 628.065 1706.6 627.52 1710.69 620.984 1713.86 z"/>
<path transform="translate(0,0)" fill="rgb(36,72,53)" d="M 564.133 1642.14 L 566.059 1642.96 C 568.196 1649.21 568.953 1655.8 569.358 1662.35 C 568.619 1663.6 568.468 1664.02 567.514 1665.1 C 562.186 1657.8 563.705 1651.38 564.133 1642.14 z"/>
<path transform="translate(0,0)" fill="rgb(35,35,35)" d="M 783.095 1590.35 L 782.907 1591.48 C 778.829 1617.38 804.274 1637.06 775.402 1659.1 C 748.377 1679.74 736.252 1655.34 724.697 1655.39 C 746.734 1642.46 759.698 1630.17 773.368 1608.02 C 777.037 1602.07 779.22 1596.58 783.095 1590.35 z"/>
<path transform="translate(0,0)" fill="rgb(35,35,35)" d="M 676.499 1370.29 C 680.384 1373.01 684.809 1376.26 688.585 1379.17 C 696.159 1385.01 708.227 1387.85 714.088 1394.76 C 705.873 1400.06 709.558 1404.07 708.463 1412.03 L 707.923 1411.66 C 692.309 1412.84 668.841 1404.43 655.849 1404.91 C 664.372 1403.64 669.688 1402.58 671.631 1392.9 C 673.024 1385.96 675.378 1376.96 676.499 1370.29 z"/>
<path transform="translate(0,0)" fill="rgb(212,212,211)" d="M 1317.24 1240.24 C 1322.38 1237.3 1338.59 1233.39 1345.66 1230.75 C 1371.34 1221.18 1396.6 1212.15 1421.74 1201.17 C 1423.67 1209.44 1443.17 1221.7 1448.51 1230.13 C 1455.88 1241.75 1460.73 1252.92 1463.29 1266.45 C 1465.7 1279.16 1469.55 1291.79 1467.96 1304.79 C 1467.86 1305.64 1465.11 1308.2 1464.61 1308.69 C 1460.99 1326.59 1457.37 1339.19 1443.94 1352.61 C 1436.59 1357.84 1430.86 1366.49 1423.21 1371.86 C 1418.84 1374.94 1414.06 1376.69 1409.35 1379.12 L 1409.61 1381.38 C 1395.48 1389.02 1355.99 1390.23 1340.36 1385.01 C 1329.43 1381.37 1323.87 1375.95 1310.57 1374.77 L 1309.07 1374.65 C 1309.99 1371.49 1312.94 1368.87 1315.3 1366.18 C 1317.75 1348.43 1317.23 1329.83 1317.25 1311.86 L 1317.24 1240.24 z"/>
<path transform="translate(0,0)" fill="rgb(35,35,35)" d="M 1178.42 1542.22 C 1191.8 1541.34 1227.84 1529.34 1235.15 1530.11 C 1227.62 1544.16 1247.5 1554.01 1252.12 1567.36 C 1255.76 1577.87 1260.29 1587.87 1262.2 1599.02 C 1264.81 1609.44 1264.58 1625.07 1274.11 1631.21 L 1275.53 1632.15 C 1260.24 1630.32 1245.51 1629.32 1230.16 1628.39 C 1227.59 1628.23 1227.47 1626.6 1226.34 1624.53 C 1234.29 1618.09 1211.34 1577.39 1206.77 1569.48 C 1200.71 1563.82 1194.25 1558.62 1191.12 1550.91 C 1188.39 1545.66 1183.86 1544.58 1178.42 1542.22 z"/>
<path transform="translate(0,0)" fill="rgb(36,72,53)" d="M 1191.12 1550.91 C 1195.73 1551.41 1197.88 1553.44 1200.91 1557.14 C 1203.88 1560.69 1205.89 1564.93 1206.77 1569.48 C 1200.71 1563.82 1194.25 1558.62 1191.12 1550.91 z"/>
<path transform="translate(0,0)" fill="rgb(35,35,35)" d="M 896.168 1526.94 C 915.386 1532.04 928.278 1532.08 945.78 1535.54 C 939.808 1538.06 941.738 1539.81 938.334 1544.51 C 927.661 1559.23 916.374 1574.4 909.074 1591.14 C 906.288 1597.85 898.354 1619.02 899.98 1625.57 C 902.407 1627.69 903.349 1627.19 907.103 1627.84 C 889.663 1628.39 878.313 1629.3 860.741 1631.82 C 862.128 1630.09 863.076 1628.05 863.505 1625.88 C 864.542 1620.52 864.42 1614.52 865.391 1608.88 C 868.516 1590.74 874.725 1571.22 883.666 1555.1 C 887.28 1548.58 893.489 1543.41 896.248 1536.01 C 898.249 1530.65 898.141 1532.08 896.168 1526.94 z"/>
</svg>