<svg version="1.1" xmlns="http://www.w3.org/2000/svg" style="display: block;" viewBox="0 0 1450 2048" width="528" height="746" preserveAspectRatio="none">
<path transform="translate(0,0)" fill="rgb(254,254,253)" d="M 269.241 105.381 C 276.275 104.473 297.51 104.948 305.345 104.961 L 390.941 105.837 L 646.907 105.963 L 1021.02 106.18 L 1138.41 105.951 C 1165.3 105.787 1193.44 104.89 1220.07 106.981 C 1238.49 108.428 1262.21 118.896 1276.85 130.301 C 1299.22 147.73 1313.89 181.782 1316.98 209.513 C 1319.32 230.49 1317.33 251.651 1317.09 272.754 C 1316.99 306.656 1317.07 340.559 1317.33 374.46 L 1318.18 859.64 L 1318.15 1520.5 C 1318.74 1590.09 1318.92 1659.69 1318.68 1729.29 C 1318.67 1760.65 1318.89 1792.67 1318.49 1824 C 1318.23 1844.35 1307.4 1871.79 1294.8 1887.8 C 1275.11 1912.55 1246.46 1928.57 1215.06 1932.38 C 1143.63 1934.77 1062.72 1932.8 990.811 1932.7 L 610.929 1932.7 L 381.836 1932.65 C 362.804 1932.62 343.9 1932.37 324.882 1932.18 C 305.342 1931.97 283.344 1933.09 263.955 1930.86 C 243.713 1928.46 224.541 1920.46 208.589 1907.77 C 156.724 1867.1 163.726 1816.32 163.824 1757.7 L 163.955 1635.19 L 163.921 1196.55 L 164.109 566.208 L 163.174 350.904 C 163.002 321.674 163.085 292.443 163.422 263.215 C 163.613 247.588 163.716 231.994 164.535 216.373 C 167.682 156.377 209.216 112.214 269.241 105.381 z"/>
<path transform="translate(0,0)" fill="rgb(237,138,49)" d="M 305.414 164.326 C 315.932 163.265 337.899 163.96 349.348 163.969 L 434.376 164.032 L 715.905 164.013 L 1022.32 164.073 L 1121.37 163.967 C 1139.82 163.954 1158.59 163.565 1177.01 164.562 C 1216.94 166.724 1255.14 203.386 1258.08 243.419 C 1259.48 262.559 1259.01 282.763 1259 302.045 L 1259 406.464 L 1259.13 772.982 L 1258.84 1449.42 L 1258.56 1665.89 C 1258.65 1707.94 1259.25 1750.24 1258.43 1792.27 C 1257.57 1835.7 1220.8 1868.6 1178.99 1873.99 L 587.104 1873.99 L 393.44 1873.9 L 338.809 1874.16 C 305.089 1874.44 286.893 1875.6 257.414 1853.99 C 216.148 1823.73 222.92 1777.38 222.862 1731.79 L 222.833 1615.63 L 222.763 1227.33 L 222.768 556.374 L 222.761 351.548 C 222.749 316.897 222.35 282.331 223.011 247.682 C 223.907 200.738 260.866 170.021 305.414 164.326 z"/>
<path transform="translate(0,0)" fill="rgb(254,254,253)" d="M 354.637 1108.43 C 355.438 1108.4 356.239 1108.38 357.04 1108.37 C 415.626 1107.65 475.429 1108.25 534.099 1108.27 L 884.819 1108.34 L 1056.83 1108.15 C 1084.94 1108.12 1116.42 1107.18 1144.34 1109.49 C 1156.43 1110.5 1174.47 1120.88 1182.9 1129.68 C 1201.95 1149.57 1204.79 1163.2 1205.02 1189.34 L 1204.97 1579.15 L 1205.02 1694.58 C 1205.05 1711.01 1205.08 1728.01 1204.98 1743.87 C 1204.77 1776.9 1180.65 1809.42 1148 1816.46 C 1141.4 1817.88 1134.76 1817.83 1128.01 1817.87 L 582.517 1817.99 L 425.142 1817.88 C 397.283 1817.9 366.936 1818.9 339.42 1816.7 C 306.107 1814.04 276.563 1775.36 276.203 1742.8 C 275.813 1707.54 276.097 1671.49 276.088 1635.85 L 276.151 1406.9 L 276 1252.12 C 275.942 1234.78 274.575 1187.89 276.579 1172.62 C 278.602 1157.73 285.106 1143.8 295.229 1132.7 C 312.23 1114.01 330.649 1109.6 354.637 1108.43 z"/>
<path transform="translate(0,0)" fill="rgb(254,204,1)" d="M 477.323 1577.23 C 497.197 1575.98 526.144 1575.72 545.714 1576.78 C 580.113 1578.64 624.896 1563.64 622.68 1611.9 C 621.069 1646.98 624.594 1681.61 622.225 1716.68 C 621.23 1731.4 617.385 1739.12 602.492 1742.36 C 585.53 1743.6 554.145 1744.36 537.694 1742.99 C 501.191 1739.94 453.078 1758.6 455.618 1706.53 C 457.335 1671.32 453.569 1637.22 456.165 1602.13 C 457.3 1586.79 463.254 1580.82 477.323 1577.23 z"/>
<path transform="translate(0,0)" fill="rgb(254,254,253)" d="M 524.613 1606.57 C 528.623 1606.84 529.249 1606.6 531.327 1609.88 C 530.932 1613.04 530.356 1614.72 531.56 1617.52 C 534.443 1619.57 533.209 1619.31 536.33 1619.14 C 539.286 1616.79 540.805 1610.69 542.494 1606.63 L 544.061 1606.28 C 547.821 1609.29 547.012 1613.75 546.885 1618.14 C 573.799 1626.33 573.947 1639.89 556.122 1658.33 C 568.84 1664.67 574.419 1668.94 570.541 1685.91 C 568.9 1693.09 563.08 1696.32 556.747 1699.46 C 553.445 1700.11 551.519 1700.23 548.612 1702.02 C 545.87 1705.99 546.784 1707.66 545.891 1712.73 C 543.391 1714.32 544.691 1714.07 541.912 1713.73 C 538.207 1709.61 541.835 1703.24 536.039 1700.56 L 532.866 1701.78 C 530.29 1704.9 532.1 1707.87 530.476 1713.2 C 527.856 1714.47 529.206 1714.29 526.279 1713.64 C 523.347 1709.82 524.808 1707.67 523.053 1703.37 C 518.386 1700.27 512.232 1700.48 512.234 1693.15 C 512.238 1678.69 512.044 1664.07 512.086 1649.64 C 512.106 1642.83 511.067 1625.01 514.875 1620.15 C 518.575 1619.66 519.446 1619.68 522.554 1617.69 C 525.069 1614.46 524.532 1610.89 524.613 1606.57 z"/>
<path transform="translate(0,0)" fill="rgb(254,204,1)" d="M 524.072 1663.77 C 537.585 1663.74 572.865 1663.08 556.263 1687.56 C 546.599 1693.23 535.197 1692.02 524.083 1691.99 L 524.072 1663.77 z"/>
<path transform="translate(0,0)" fill="rgb(254,204,1)" d="M 524.082 1628.18 C 536.605 1628.29 569.249 1628.74 551.576 1650.41 C 543.69 1655.09 533.315 1653.92 524.068 1653.86 L 524.082 1628.18 z"/>
<path transform="translate(0,0)" fill="rgb(0,0,0)" d="M 1006.86 1592.25 C 1074.49 1581.45 1067.15 1700.66 1002.55 1714.87 C 944.665 1719.2 946.914 1654.63 969.359 1618.6 C 978.396 1604.1 990.169 1595.77 1006.86 1592.25 z"/>
<path transform="translate(0,0)" fill="rgb(254,254,253)" d="M 1007.09 1618.07 C 1035.45 1617.86 1026.56 1677.98 1001.45 1689.09 C 973.377 1688 983.562 1629.03 1007.09 1618.07 z"/>
<path transform="translate(0,0)" fill="rgb(0,0,0)" d="M 904.959 1592.26 C 976.802 1584.69 963.214 1699.82 902.39 1714.74 C 845.048 1719.64 845.776 1658.82 866.53 1621.38 C 875.221 1605.7 887.642 1596.59 904.959 1592.26 z"/>
<path transform="translate(0,0)" fill="rgb(254,254,253)" d="M 906.059 1618.09 C 934.999 1618.95 924.845 1677.41 900.575 1689.1 C 872.055 1687.91 882.574 1628.78 906.059 1618.09 z"/>
<path transform="translate(0,0)" fill="rgb(0,0,0)" d="M 703.064 1265.28 C 722.107 1263.99 737.824 1273.58 742.309 1292.31 C 749.232 1321.22 747.028 1360.1 713.791 1369.58 C 693.374 1371.19 677.596 1359.52 673.668 1339.6 C 668.324 1312.51 670.707 1272.63 703.064 1265.28 z"/>
<path transform="translate(0,0)" fill="rgb(254,254,253)" d="M 707.782 1284.68 C 728.445 1287.88 725.454 1328.25 718.648 1341.69 C 716.399 1346.12 713.468 1347.81 709.472 1350.27 C 688.434 1347.29 691.422 1307.5 698.216 1293.79 C 700.532 1289.12 703.629 1287.32 707.782 1284.68 z"/>
<path transform="translate(0,0)" fill="rgb(0,0,0)" d="M 805.245 1592.19 C 843.735 1587.81 860.167 1621.34 830.727 1648.07 C 859.089 1669.3 838.137 1704.49 810.053 1712.65 C 785.503 1719.78 759.61 1713.71 752.895 1686.25 C 751.819 1681.85 750.826 1677.92 753.124 1673.76 L 781.598 1673.64 C 788.628 1709.01 826.494 1679.3 810.024 1662.62 C 806.738 1659.29 800.3 1659.4 795.802 1659.83 C 796.98 1653.44 797.767 1646.88 798.624 1640.43 C 836.229 1636.6 806.247 1595.48 792.481 1629.13 L 765.198 1629.06 C 774.073 1607.57 781.917 1597.39 805.245 1592.19 z"/>
<path transform="translate(0,0)" fill="rgb(0,0,0)" d="M 837.971 1266.11 C 852.953 1265.88 877.389 1264.01 889.587 1273.67 C 912.639 1291.94 910.295 1335.29 894.071 1356.97 C 893.671 1357.39 893.261 1357.8 892.842 1358.21 C 878.993 1371.53 856.631 1368.45 838.078 1368.14 C 838.898 1335.21 838.096 1299.26 837.971 1266.11 z"/>
<path transform="translate(0,0)" fill="rgb(254,254,253)" d="M 859.954 1284.85 C 872.263 1285.94 880.598 1290.04 883.33 1303.44 C 885.982 1316.44 885.001 1331.21 877.628 1342.65 C 873.849 1346.22 864.886 1350.84 860.517 1346.3 C 859.038 1337.11 859.67 1296.2 859.954 1284.85 z"/>
<path transform="translate(0,0)" fill="rgb(0,0,0)" d="M 653.691 1416.5 C 682.411 1417.64 721.346 1409.45 717.796 1454.75 C 716.939 1465.68 711.718 1471.82 703.503 1478.58 C 708.981 1491.62 714.513 1505.49 721.042 1517.97 C 712.677 1518.13 704.31 1518.19 695.943 1518.16 C 693.637 1511.43 684.74 1484.81 679.011 1482.41 L 677.683 1483.23 C 674.565 1489.86 675.963 1509.52 676.192 1517.92 L 653.475 1518.32 C 653.127 1488.35 652.584 1445.81 653.691 1416.5 z"/>
<path transform="translate(0,0)" fill="rgb(254,254,253)" d="M 675.54 1436.38 C 694.364 1437.03 700.734 1441.17 693.08 1460.47 C 687.839 1463.71 681.724 1463.35 675.621 1463.57 C 675.265 1454.04 675.304 1445.92 675.54 1436.38 z"/>
<path transform="translate(0,0)" fill="rgb(0,0,0)" d="M 870.119 1416.22 C 878.76 1416.23 887.401 1416.29 896.041 1416.42 C 919.547 1416.91 935.139 1425.78 933.751 1451.92 C 933.082 1464.51 928.351 1470.26 919.171 1478.4 C 925.058 1492.19 930.39 1504.34 937.024 1517.84 C 927.945 1518.36 921.79 1518.48 912.702 1518.14 C 910.227 1510.25 902.346 1485.5 895.998 1482.21 L 894.259 1483.51 C 891.01 1491.33 892.016 1508.73 892.086 1517.96 L 870.733 1518.16 C 869.838 1487.8 869.583 1446.53 870.119 1416.22 z"/>
<path transform="translate(0,0)" fill="rgb(254,254,253)" d="M 892.619 1436.23 C 897.566 1436.24 901.651 1436.02 906.207 1438.46 C 913.569 1442.39 914.008 1454.27 908.892 1460.3 C 903.38 1462.99 898.607 1463.76 892.666 1465.04 C 891.729 1456.68 892.301 1444.67 892.619 1436.23 z"/>
<path transform="translate(0,0)" fill="rgb(0,0,0)" d="M 757.315 1266.15 C 764.364 1266.17 771.709 1266.51 778.78 1266.73 C 778.946 1279.72 776.165 1338.91 781.848 1345.35 C 783.922 1347.69 786.872 1349.06 789.997 1349.15 C 793.083 1349.22 796.306 1348.25 798.51 1346.01 C 804.969 1339.46 802.071 1278.49 802.091 1266.49 C 807.578 1266.92 817.359 1266.61 823.164 1266.61 L 823.407 1288.25 C 823.448 1307.88 827.743 1345.64 814.148 1360.42 C 799.005 1376.88 762.478 1370.51 758.912 1346.41 C 755.151 1320.99 757.031 1292.12 757.315 1266.15 z"/>
<path transform="translate(0,0)" fill="rgb(0,0,0)" d="M 588.007 1416.83 L 641.037 1416.84 C 641.146 1423.46 640.889 1430.39 640.746 1437.03 L 610.209 1437.1 L 609.974 1457.03 L 635.872 1456.91 C 636.06 1463.15 635.929 1469.95 635.935 1476.25 L 609.82 1476.77 L 609.984 1495.25 L 610.226 1497.43 C 613.559 1500.13 636.062 1499.49 642.141 1499.6 L 642.094 1518.41 C 624.577 1518.15 605.375 1518.72 587.722 1518.85 C 588.636 1485.72 588.105 1450.08 588.007 1416.83 z"/>
<path transform="translate(0,0)" fill="rgb(0,0,0)" d="M 806.182 1416.2 C 823.461 1416.54 841.375 1416.33 858.703 1416.33 C 858.847 1423.35 858.65 1429.71 858.404 1436.71 C 848.135 1437.03 837.665 1437.14 827.375 1437.36 L 827.109 1456.47 L 853.799 1456.91 L 853.858 1476.2 L 827.171 1476.1 L 827.107 1496.1 L 827.663 1497.78 C 831.123 1499.11 853.805 1498.85 859.149 1498.94 L 859.571 1518.09 L 805.8 1518.55 C 806.119 1484.75 805.029 1449.86 806.182 1416.2 z"/>
<path transform="translate(0,0)" fill="rgb(0,0,0)" d="M 777.2 1416.65 C 784.228 1416.77 791.494 1416.69 798.543 1416.7 L 790.453 1444.76 C 785.157 1467.4 777.11 1495.81 770.527 1518.12 C 762.607 1518.59 756.535 1518.63 748.649 1518.51 C 747.177 1513.63 745.82 1508.12 744.604 1503.15 C 737.554 1474.34 728.752 1445.63 722.081 1416.76 C 729.652 1417.02 737.778 1416.77 745.393 1416.68 C 750.739 1439.45 755.673 1462.31 760.191 1485.25 C 766.786 1463.17 769.804 1440.75 777.2 1416.65 z"/>
<path transform="translate(0,0)" fill="rgb(0,0,0)" d="M 539.31 1416.19 L 540.328 1416.08 C 548.424 1415.24 563.773 1415.97 570.254 1421.83 C 578.579 1429.35 568.942 1437.65 563.488 1443.15 C 538.409 1425.89 530.602 1448.85 550.483 1456.41 C 584.494 1469.34 588.329 1512.13 548.581 1520.04 C 532.44 1520.19 525.967 1517.92 513.929 1507.13 C 517.156 1502.19 522.387 1496.02 526.168 1491.28 C 527.304 1492.19 528.465 1493.06 529.65 1493.91 C 552.483 1510.04 565.55 1487.67 544.542 1480.07 C 514.012 1469.03 502.484 1427.95 539.31 1416.19 z"/>
<path transform="translate(0,0)" fill="rgb(0,0,0)" d="M 574.185 1265.29 C 591.858 1264.2 596.768 1268.65 607.434 1281.8 L 593.895 1295.21 C 572.364 1274.45 562.693 1294.95 562.231 1315.75 C 561.745 1337.63 570.361 1363.09 593.982 1339.32 L 600.844 1346.17 C 603.522 1348.84 604.01 1349.41 605.935 1352.66 C 606.435 1361.16 592.309 1368.35 585.043 1369.93 C 576.74 1371.67 568.084 1370.03 561.004 1365.35 C 530.642 1345.74 530.665 1273.35 574.185 1265.29 z"/>
<path transform="translate(0,0)" fill="rgb(0,0,0)" d="M 616.046 1266.84 C 622.789 1266.39 630.154 1266.76 636.956 1266.94 C 637.46 1294.22 637.57 1321.52 637.285 1348.81 L 667.917 1349.16 C 668.023 1355.96 668.435 1361.28 669.065 1368.02 C 651.099 1368.42 633.764 1368.83 615.795 1368.51 C 616.685 1335.16 616.216 1300.27 616.046 1266.84 z"/>
<path transform="translate(0,0)" fill="rgb(0,0,0)" d="M 581.369 568.946 C 583.586 541.425 588.957 519.345 603.995 495.576 C 634.28 447.706 685.854 422.541 742.207 427.205 C 780.725 430.496 816.368 448.917 841.333 478.432 C 858.46 498.85 866.037 517.686 874.047 542.653 C 901.633 531.884 927.739 531.626 955.149 543.693 C 981.866 555.529 1002.81 577.468 1013.38 604.707 C 1023.89 632.536 1022.53 665.603 1010.3 692.662 C 998.505 718.498 976.837 738.523 950.152 748.248 C 940.433 751.828 930.266 754.052 919.94 754.858 C 903.751 756.204 835.395 753.232 828.746 757.607 C 828.167 761.078 833.12 764.672 833.142 767.752 C 833.266 784.892 833.224 803.119 833.375 820.167 L 826.85 823.965 L 826.483 825.56 C 828.674 827.17 829.381 827.262 831.901 828.064 C 834.386 831.872 832.979 849.137 833.096 854.984 C 873.988 855.153 919.905 853.475 959.868 854.75 C 959.814 845.21 958.535 786.107 961.268 781.659 L 963.493 780.159 L 965.499 781.037 C 967.916 788.443 967.873 851.842 967.385 862.13 C 923.444 864.021 878.126 861.245 832.926 863.156 C 832.831 871.141 832.984 882.145 832.37 889.871 C 794.534 890.112 756.697 890.1 718.861 889.835 C 702.847 889.837 668.086 890.858 653.109 889.447 C 652.897 880.722 652.872 871.993 653.035 863.268 C 636.944 863.109 528.68 863.951 521.929 860.982 C 519.457 855.611 519.201 786.612 520.85 782.133 C 523.118 780.995 523.921 781.323 526.431 781.622 C 529.963 785.356 528.259 844.2 528.682 854.324 C 568.777 855.39 611.924 854.358 652.29 854.139 C 652.298 848.253 651.383 831.354 654.338 827.34 L 655.963 826.959 L 655.59 825.117 L 657.117 822.9 L 654.111 821.013 C 651.454 814.398 652.616 769.736 653.395 760.783 L 657.098 759.119 L 657.218 757.82 L 653.763 755.898 C 634.801 755.259 617.446 755.384 598.53 755.569 C 581.224 755.738 556.069 756.861 539.933 752.769 C 522.894 748.357 507.442 739.234 495.349 726.445 C 477.776 707.557 468.437 682.454 469.393 656.673 C 469.955 632.11 480.551 608.85 498.715 592.305 C 521.121 571.812 551.707 564.307 581.369 568.946 z"/>
<path transform="translate(0,0)" fill="rgb(146,196,96)" d="M 803.045 829.245 C 808.484 829.127 820.154 828.044 823.935 831.513 C 825.767 838.963 824.71 872.221 824.048 881.318 L 716.434 881.118 C 698.462 881.097 678.593 881.575 660.89 881 C 659.622 868.386 660.165 846.609 660.32 833.468 C 668.388 831.778 673.661 831.657 681.801 831.277 C 720.179 831.114 765.577 832.677 803.045 829.245 z"/>
<path transform="translate(0,0)" fill="rgb(0,0,0)" d="M 733.032 852.549 L 734.663 853.58 C 734.78 856.179 735.008 856.895 733.832 859.256 C 727.943 862.057 688.352 861.558 679.121 861.861 C 678.721 861.701 677.548 860.78 677.142 860.482 C 676.821 857.146 676.449 856.279 677.814 853.394 C 684.363 852.239 723.688 852.643 733.032 852.549 z"/>
<path transform="translate(0,0)" fill="rgb(0,0,0)" d="M 801.769 847.906 C 806.057 847.553 807.902 847.022 810.941 850.058 C 811.874 853.951 810.534 857.539 809.569 861.561 C 805.422 862.179 804.312 862.383 801.22 859.423 C 800.006 855.541 801.069 852.032 801.769 847.906 z"/>
<path transform="translate(0,0)" fill="rgb(0,0,0)" d="M 783.403 847.778 C 787.573 848.136 787.593 847.491 790.704 849.768 C 792.618 853.295 791.747 857.244 791.428 861.463 C 786.194 861.331 785.907 861.859 782.53 859.269 C 781.219 855.619 782.572 851.778 783.403 847.778 z"/>
<path transform="translate(0,0)" fill="rgb(61,54,50)" d="M 671.958 823.889 C 706.921 822.474 744.128 824.237 779.175 824.757 C 788.444 824.895 794.989 828.276 803.045 829.245 C 765.577 832.677 720.179 831.114 681.801 831.277 C 683.667 830.768 684.518 830.742 685.956 829.481 C 683.931 827.836 674.211 827.491 670.946 827.215 L 671.958 823.889 z"/>
<path transform="translate(0,0)" fill="rgb(119,89,49)" d="M 653.763 755.898 C 663.533 756.15 720.668 757.125 725.112 759.32 C 721.026 762.229 662.949 761.144 653.395 760.783 L 657.098 759.119 L 657.218 757.82 L 653.763 755.898 z"/>
<path transform="translate(0,0)" fill="rgb(119,89,49)" d="M 657.117 822.9 C 661.474 823.253 667.76 823.943 671.958 823.889 L 670.946 827.215 C 667.111 826.76 660.078 826.958 655.963 826.959 L 655.59 825.117 L 657.117 822.9 z"/>
<path transform="translate(0,0)" fill="rgb(254,254,253)" d="M 588.997 579.744 C 589.999 553.219 593.548 531.588 606.194 507.961 C 623.845 475.75 653.319 451.655 688.396 440.76 C 723.668 430.181 761.691 433.963 794.186 451.285 C 822.933 466.578 845.543 491.297 858.218 521.29 C 862.003 530.471 865.778 544.11 868.704 553.913 C 883.215 546.925 897.259 543.022 913.493 543.034 C 939.26 542.995 963.962 553.309 982.053 571.658 C 1001.68 591.325 1012.64 618.007 1012.52 645.789 C 1012.57 672.949 1001.77 699.003 982.5 718.146 C 952.153 748.207 924.183 747.654 885.736 747.429 L 832.879 747.056 C 833.036 731.485 832.998 715.913 832.765 700.343 L 825.038 693.832 L 825.34 692.738 C 828.257 692.214 830.291 692.176 832.528 690.371 C 833.555 682.39 833.522 637.986 831.487 630.642 C 823.473 626.25 748.669 628.249 733.824 628.126 C 715.814 627.977 670.945 626.927 653.273 629.105 C 652.597 639.145 651.169 683.164 653.904 690.642 L 656.777 691.955 L 655.642 694.437 C 657.142 695.215 657.925 695.609 659.501 696.205 L 655.084 697.444 C 650.794 702.063 652.658 738.919 652.645 747.424 C 618.725 746.871 581.209 749.325 547.563 746.322 C 527.751 744.554 502.967 725.553 491.945 709.363 C 479.364 690.882 474.471 666.754 478.673 644.324 C 482.991 622.234 495.919 602.769 514.606 590.222 C 539.292 573.653 561.631 574.365 588.997 579.744 z"/>
<path transform="translate(0,0)" fill="rgb(146,196,96)" d="M 777.989 766.544 C 791.11 766.087 812.398 764.964 824.647 767.151 C 824.77 783.755 825.196 801.329 824.603 817.855 C 810.891 818.565 793.993 818.146 779.928 818.185 L 705.75 818.602 C 692.254 818.597 674.16 819.102 661.102 816.184 C 660.426 801.177 660.771 782.699 660.703 767.426 C 697.187 765.444 740.034 767.764 777.989 766.544 z"/>
<path transform="translate(0,0)" fill="rgb(0,0,0)" d="M 675.664 787.952 C 692.397 788.393 718.815 787.732 734.169 789 C 735.756 791.323 735.111 792.797 735.016 796.105 C 727.363 796.413 682.623 797.743 677.053 796.837 C 675.143 794.247 675.655 791.367 675.664 787.952 z"/>
<path transform="translate(0,0)" fill="rgb(0,0,0)" d="M 800.309 785.169 C 804.526 784.743 806.752 784.092 809.806 787.081 C 810.695 790.956 809.157 794.729 808.072 798.725 C 803.624 799.296 802.895 799.387 800.158 796.07 C 799.16 792.097 799.821 789.243 800.309 785.169 z"/>
<path transform="translate(0,0)" fill="rgb(0,0,0)" d="M 783.375 785.466 L 788.113 786.016 C 793.553 790.075 791.72 793.806 788.877 799.313 C 783.956 798.806 783.94 799.014 781.427 796.062 C 780.719 792.073 782.071 789.381 783.375 785.466 z"/>
<path transform="translate(0,0)" fill="rgb(146,196,96)" d="M 660.816 637.115 C 715.481 636.609 770.15 636.568 824.817 636.992 C 824.528 653.781 824.82 670.911 824.66 687.781 C 801.144 689.887 769.335 688.303 744.705 687.901 C 719.762 687.494 685.345 688.034 660.976 685.707 C 660.026 671.375 660.693 651.986 660.816 637.115 z"/>
<path transform="translate(0,0)" fill="rgb(0,0,0)" d="M 676.076 657.85 C 686.168 658.075 726.421 657.682 734.054 659.283 C 735.628 662.537 734.961 663.572 734.75 667.5 C 726.539 667.548 682.656 668.506 677.331 666.954 C 675.525 664.167 676.034 661.33 676.076 657.85 z"/>
<path transform="translate(0,0)" fill="rgb(0,0,0)" d="M 805.159 654.353 L 807.684 656.28 C 810.076 661.704 809.808 666.871 805.353 670.959 C 797.741 666.539 797.419 658.848 805.159 654.353 z"/>
<path transform="translate(0,0)" fill="rgb(0,0,0)" d="M 784.037 656.311 C 789.204 656.979 789.924 657.048 791.392 661.829 C 790.827 666.004 789.878 667.208 787.787 670.727 C 783.696 670.25 782.84 669.79 781.043 666.043 C 780.989 662.093 782.386 659.926 784.037 656.311 z"/>
<path transform="translate(0,0)" fill="rgb(146,196,96)" d="M 766.688 702.528 C 831.671 701.033 825.457 688.663 824.334 753.603 C 793.539 754.881 750.225 753.263 718.958 752.323 C 699.714 751.799 679.449 752.752 660.452 750.619 C 660.724 735.291 660.621 719.51 660.683 704.147 C 687.552 701.547 737.765 702.663 766.688 702.528 z"/>
<path transform="translate(0,0)" fill="rgb(0,0,0)" d="M 675.174 722.74 C 687.587 722.949 724.945 722.104 734.248 723.482 C 736.037 726.53 735.223 726.964 734.639 731.113 C 725.919 731.467 684.09 732.493 677.056 731.45 C 674.894 728.838 675.301 726.293 675.174 722.74 z"/>
<path transform="translate(0,0)" fill="rgb(0,0,0)" d="M 800.578 720.854 C 805.258 720.814 805.785 720.453 808.609 723.006 C 809.679 726.885 808.539 730.154 807.696 734.196 C 802.703 734.146 801.293 734.671 798.739 730.257 C 798.501 726.349 799.363 724.495 800.578 720.854 z"/>
<path transform="translate(0,0)" fill="rgb(0,0,0)" d="M 782.527 722.709 C 785.463 721.337 788.96 722.493 790.5 725.344 C 792.04 728.195 791.09 731.753 788.333 733.456 C 786.401 734.65 783.967 734.675 782.011 733.522 C 780.055 732.37 778.898 730.228 779.006 727.96 C 779.114 725.692 780.47 723.67 782.527 722.709 z"/>
<path transform="translate(0,0)" fill="rgb(146,196,96)" d="M 700.663 692.13 C 714.931 691.498 730.284 691.686 744.609 691.619 C 750.612 691.591 766.278 691.3 771.7 692.133 L 770.882 693.567 C 761.461 695.944 710.679 696.915 699.476 695.928 C 689.261 696.1 679.043 696.111 668.828 695.962 L 659.501 696.205 C 657.925 695.609 657.142 695.215 655.642 694.437 L 656.777 691.955 L 660.532 692.102 C 673.909 692.043 687.286 692.052 700.663 692.13 z"/>
<path transform="translate(0,0)" fill="rgb(92,97,71)" d="M 700.663 692.13 C 714.931 691.498 730.284 691.686 744.609 691.619 C 750.612 691.591 766.278 691.3 771.7 692.133 L 770.882 693.567 C 761.461 695.944 710.679 696.915 699.476 695.928 C 705.379 694.911 728.842 695.243 731.763 693.623 C 722.483 692.34 710.533 692.725 700.663 692.13 z"/>
<path transform="translate(0,0)" fill="rgb(213,220,201)" d="M 656.777 691.955 L 660.532 692.102 C 666.341 692.995 670.234 693.276 676.127 693.559 L 676.5 694.272 C 673.958 694.901 671.399 695.465 668.828 695.962 L 659.501 696.205 C 657.925 695.609 657.142 695.215 655.642 694.437 L 656.777 691.955 z"/>
</svg>