<svg version="1.1" xmlns="http://www.w3.org/2000/svg" style="display: block;" viewBox="0 0 2048 1253" width="1000" height="612" preserveAspectRatio="none">
<path transform="translate(0,0)" fill="rgb(70,70,70)" d="M 0 0 L 2048 0 L 2048 1253 L 0 1253 L 0 0 z"/>
<path transform="translate(0,0)" fill="rgb(116,115,115)" d="M 1646.91 499.762 C 1646.86 491.356 1645.83 439.503 1647.83 436.2 C 1651.45 436.149 1655.09 435.657 1658.17 437.25 C 1659.77 442.682 1658.94 490.823 1658.96 500 L 1667.64 499.867 C 1736.66 498.969 1807.32 499.843 1876.48 499.783 L 1943.75 499.699 C 1975.53 499.668 2008.65 493.961 2009.04 536.554 L 2009.06 858.215 L 2009.07 952.853 C 2009.08 968.636 2009.53 986.062 2008.22 1001.79 C 2007.87 1006.07 2003.39 1012.37 2000.36 1015.33 C 1994.12 1021.42 1986.96 1024.4 1978.18 1024.47 C 1954.09 1024.66 1929.71 1024.43 1905.63 1024.4 L 1758.93 1024.4 L 1301.93 1024.41 L 71.6027 1024.66 C 56.7542 1024.54 38.6579 1016.52 37.3289 999.399 C 36.0893 983.431 36.9123 965.188 36.9094 949.006 L 36.905 846.261 C 36.9161 743.837 36.8649 641.288 36.867 538.851 C 36.7599 527.229 37.4576 517.362 46.4836 508.896 C 59.5489 496.642 83.7026 499.716 100.642 499.718 L 164.384 499.768 L 271.348 499.769 C 290.939 499.759 312.746 499.297 332.196 500.03 C 335.771 500.132 339.383 500.378 342.916 499.937 C 424.868 498.765 509.193 499.77 591.318 499.785 L 652.413 499.828 C 657.785 499.831 676.741 500.207 681.281 499.285 C 683.893 501.358 689.753 500.551 692.28 498.382 C 692.848 498.856 693.417 499.33 693.985 499.803 C 757.668 499.788 821.362 499.781 885.045 499.787 L 1154.44 499.801 L 1241.84 499.795 C 1256.27 499.793 1275.88 500.329 1289.91 499.448 L 1291.42 498.184 L 1292.16 499.753 C 1294.64 500.582 1300.05 500.816 1302.12 499.132 C 1307.21 501.195 1616.24 499.767 1646.91 499.762 z"/>
<path transform="translate(0,0)" fill="rgb(255,255,255)" d="M 1647.83 436.2 C 1651.45 436.149 1655.09 435.657 1658.17 437.25 C 1659.77 442.682 1658.94 490.823 1658.96 500 C 1655.08 500.314 1651.31 501.062 1648.41 498.687 C 1646.98 489.022 1647.88 448.42 1647.83 436.2 z"/>
<path transform="translate(0,0)" fill="rgb(16,138,254)" d="M 858.506 162.349 C 862.285 149.316 865.478 138.577 872.628 126.988 C 915.336 57.7608 1011.46 66.4336 1048.12 135.46 C 1049.73 138.542 1051.26 141.665 1052.71 144.826 C 1074.09 138.882 1094.88 139.355 1114.7 150.513 C 1132.57 160.617 1145.66 177.44 1151.07 197.242 C 1156.05 215.962 1153.62 237.08 1143.84 253.884 C 1134.19 270.261 1118.42 282.131 1100.01 286.881 C 1088.41 289.876 1077.32 289.177 1065.5 289.284 C 1037.49 289.536 1009.28 288.738 981.29 289.209 L 970.295 289.192 L 911.72 289.231 C 900.383 289.259 888.687 289.077 877.39 289.251 C 838.623 289.847 799.044 272.479 799.661 227.684 C 799.81 209.974 807.05 193.063 819.762 180.732 C 831.768 169.1 842.831 165.441 858.506 162.349 z"/>
<path transform="translate(0,0)" fill="rgb(255,255,255)" d="M 970.295 289.192 L 981.29 289.209 L 981.396 342.105 C 986.887 342.013 995.143 341.549 1000.29 342.631 L 1001.58 344.795 C 1001.9 348.1 1001.76 348.476 1000.18 351.411 C 999.593 351.786 998.869 352.248 998.009 352.795 C 981.117 352.141 954.46 354.13 938.479 352.293 C 936.29 349.612 936.42 346.439 937.62 343.338 C 940.716 341.183 964.51 342.078 970.313 342.08 L 970.295 289.192 z"/>
<path transform="translate(0,0)" fill="rgb(255,255,255)" d="M 680.534 361.407 C 683.792 361.272 687.856 360.514 689.923 363.048 C 690.587 370.365 692.068 422.009 689.672 425.755 C 686.428 425.847 683.356 426.308 680.533 424.954 C 679.455 418.32 678.367 364.476 680.534 361.407 z"/>
<path transform="translate(0,0)" fill="rgb(255,255,255)" d="M 338.808 342.102 C 348.033 342.078 395.489 341.446 400.738 342.669 C 402.253 345.161 402.495 349.95 400.933 352.44 L 398.25 352.78 C 383.006 352.618 344.481 355.032 332.818 349.856 L 332.737 348.525 C 338.223 347.415 337.086 347.178 338.808 342.102 z"/>
<path transform="translate(0,0)" fill="rgb(255,255,255)" d="M 1536.16 342.119 C 1546.94 342.089 1592.71 341.335 1599.96 342.635 C 1601.71 345.846 1601.16 348.995 1601.05 352.778 C 1590.95 352.803 1543.98 353.492 1537.3 352.164 C 1535.46 349.18 1536.06 345.806 1536.16 342.119 z"/>
<path transform="translate(0,0)" fill="rgb(255,255,255)" d="M 1386.27 342.128 C 1396.58 342.091 1443.34 341.371 1449.92 342.66 C 1451.63 345.844 1451.09 349.028 1450.98 352.769 C 1442.29 352.8 1391.95 353.802 1387.16 352.062 C 1385.65 349.06 1386.17 345.628 1386.27 342.128 z"/>
<path transform="translate(0,0)" fill="rgb(255,255,255)" d="M 1291.42 498.184 C 1291.32 490.507 1289.23 440.729 1292.77 436.862 C 1295.66 436.577 1298.47 435.959 1301.07 436.989 C 1302.7 443.88 1301.89 488.716 1302.12 499.132 C 1300.05 500.816 1294.64 500.582 1292.16 499.753 L 1291.42 498.184 z"/>
<path transform="translate(0,0)" fill="rgb(255,255,255)" d="M 1461.59 342.138 C 1472.19 342.1 1517.8 341.346 1524.93 342.657 C 1526.65 345.85 1526.13 349.023 1526.05 352.773 C 1515.94 352.767 1469.9 353.518 1462.59 352.307 C 1461.01 349.085 1461.5 345.841 1461.59 342.138 z"/>
<path transform="translate(0,0)" fill="rgb(255,255,255)" d="M 1647.86 361.374 L 1658.95 361.455 L 1658.88 425.716 L 1657.99 425.742 C 1655.16 425.813 1650.15 426.221 1648.27 424.444 C 1646.72 411.16 1647.76 376.114 1647.86 361.374 z"/>
<path transform="translate(0,0)" fill="rgb(255,255,255)" d="M 1311.74 342.111 C 1322.34 342.081 1367.88 341.347 1374.99 342.629 C 1376.75 345.852 1376.25 348.98 1376.19 352.772 C 1366.24 352.808 1319.56 353.547 1312.97 352.195 C 1311.16 349.121 1311.68 345.837 1311.74 342.111 z"/>
<path transform="translate(0,0)" fill="rgb(255,255,255)" d="M 332.196 500.03 C 332.156 491.6 331.135 441.748 332.961 437.156 C 335.912 436.089 338.037 436.466 341.182 436.619 C 344.5 439.895 342.914 490.766 342.916 499.937 C 339.383 500.378 335.771 500.132 332.196 500.03 z"/>
<path transform="translate(0,0)" fill="rgb(255,255,255)" d="M 1161.83 342.103 C 1172.53 342.074 1217.89 341.346 1224.99 342.629 C 1226.75 345.854 1226.25 348.975 1226.18 352.768 C 1216.25 352.807 1169.53 353.558 1162.99 352.171 C 1161.23 349.111 1161.76 345.785 1161.83 342.103 z"/>
<path transform="translate(0,0)" fill="rgb(255,255,255)" d="M 787.176 342.111 C 796.962 342.062 843.97 341.264 850.298 342.742 C 851.978 345.886 851.461 349.085 851.371 352.777 C 841.796 352.717 794.204 353.656 788.343 352.095 C 786.474 349.149 787.073 345.792 787.176 342.111 z"/>
<path transform="translate(0,0)" fill="rgb(255,255,255)" d="M 1236.78 342.135 C 1247.11 342.096 1293.29 341.37 1299.93 342.654 C 1301.61 345.843 1301.16 348.988 1301.12 352.706 C 1291.23 352.756 1244.52 353.555 1237.98 352.185 C 1236.19 349.126 1236.71 345.84 1236.78 342.135 z"/>
<path transform="translate(0,0)" fill="rgb(255,255,255)" d="M 562.505 342.14 L 626.567 342.075 L 626.655 352.775 L 562.516 352.778 L 562.505 342.14 z"/>
<path transform="translate(0,0)" fill="rgb(255,255,255)" d="M 680.221 436.301 C 683.761 436.202 687.685 435.596 690.553 437.27 C 692.39 449.558 691.623 483.675 692.28 498.382 C 689.753 500.551 683.893 501.358 681.281 499.285 C 681.116 478.288 680.762 457.292 680.221 436.301 z"/>
<path transform="translate(0,0)" fill="rgb(255,255,255)" d="M 487.506 342.12 L 551.499 342.071 L 551.457 352.771 L 487.506 352.788 L 487.506 342.12 z"/>
<path transform="translate(0,0)" fill="rgb(255,255,255)" d="M 1012.01 342.113 C 1022.58 342.084 1067.84 341.346 1074.99 342.623 C 1076.76 345.847 1076.21 348.967 1076.1 352.767 C 1066.24 352.74 1019.33 353.668 1013.03 352.068 C 1011.36 349.12 1011.91 345.672 1012.01 342.113 z"/>
<path transform="translate(0,0)" fill="rgb(255,255,255)" d="M 412.504 342.11 C 421.955 342.06 469.819 341.222 475.793 342.8 C 477.433 345.873 476.912 349.152 476.822 352.773 L 412.498 352.756 L 412.504 342.11 z"/>
<path transform="translate(0,0)" fill="rgb(255,255,255)" d="M 1087.02 342.137 C 1097.59 342.102 1142.46 341.288 1149.97 342.631 C 1151.74 345.845 1151.16 348.979 1151.02 352.78 C 1141.41 352.725 1093.91 353.687 1088.05 352.029 C 1086.42 349.121 1086.95 345.636 1087.02 342.137 z"/>
<path transform="translate(0,0)" fill="rgb(255,255,255)" d="M 862.123 342.122 C 872.651 342.091 917.664 341.324 924.966 342.635 C 926.713 345.847 926.147 348.993 926.015 352.779 C 916.385 352.724 869.142 353.64 863.32 352.115 C 861.438 349.153 862.028 345.819 862.123 342.122 z"/>
<path transform="translate(0,0)" fill="rgb(255,255,255)" d="M 637.32 342.109 L 701.5 342.081 L 701.54 352.753 C 692.944 352.787 642.748 353.524 638.149 352.072 C 636.638 349.055 637.192 345.628 637.32 342.109 z"/>
<path transform="translate(0,0)" fill="rgb(255,255,255)" d="M 712.642 342.131 C 723.32 342.095 767.755 341.333 774.982 342.63 C 776.738 345.851 776.246 348.985 776.185 352.772 C 766.25 352.804 720.297 353.511 713.885 352.216 C 711.974 349.138 712.549 345.921 712.642 342.131 z"/>
<path transform="translate(0,0)" fill="rgb(255,255,255)" d="M 1290.26 361.457 L 1301.06 361.463 L 1301.54 425.713 C 1297.89 425.832 1294.83 426.291 1291.53 424.927 C 1290 415.666 1290.39 373.28 1290.26 361.457 z"/>
<path transform="translate(0,0)" fill="rgb(255,255,255)" d="M 332.245 361.318 L 342.912 361.483 L 342.851 425.736 C 339.008 425.853 335.272 426.462 332.476 424.208 C 331.046 409.335 332.149 377.426 332.245 361.318 z"/>
<path transform="translate(0,0)" fill="rgb(255,255,255)" d="M 1611.27 342.137 C 1623.56 342.117 1638.29 340.765 1650.37 343.002 C 1650.27 342.983 1651.58 347.662 1653.19 347.754 C 1656 347.914 1656.43 347.575 1658.7 349.065 L 1657.53 350.035 C 1648.87 352.258 1619.42 355.039 1612.19 351.975 C 1610.63 349.092 1611.17 345.584 1611.27 342.137 z"/>
</svg>