<svg version="1.1" xmlns="http://www.w3.org/2000/svg" style="display: block;" viewBox="0 0 1616 1600" width="404" height="400" preserveAspectRatio="none">
<defs>
	<linearGradient id="Gradient1" gradientUnits="userSpaceOnUse" x1="477.29" y1="1267.77" x2="654.829" y2="950.268">
		<stop class="stop0" offset="0" stop-opacity="1" stop-color="rgb(235,160,39)"/>
		<stop class="stop1" offset="1" stop-opacity="1" stop-color="rgb(255,190,60)"/>
	</linearGradient>
</defs>
<path transform="translate(0,0)" fill="rgb(232,232,229)" d="M 685.202 301.166 C 684.735 296.936 685.54 292.437 686.299 288.228 C 698.301 221.669 773.657 188.2 830.42 225.53 C 850.174 238.521 865.695 260.528 870.199 283.898 L 870.963 284.142 C 879.223 286.699 891.163 288.797 899.953 290.906 C 915.556 294.778 930.954 299.433 946.088 304.855 C 1044.97 341.333 1128.12 416.129 1176.54 509.154 C 1178.43 512.785 1187.05 530.816 1188.83 532.238 C 1201.73 531.497 1228.55 535.526 1241.67 537.18 C 1273.28 542.614 1269.39 588.099 1273.75 611.595 C 1277.39 631.258 1278.01 651.284 1280.34 670.513 C 1285.56 713.5 1249.13 713.803 1217.08 720.872 C 1212.51 733.647 1210.63 745.65 1205.9 758.306 C 1184.74 814.974 1147.98 853.375 1097.55 885.663 C 1085.58 893.327 1062.92 903.705 1055.02 909.368 C 1030.8 917.268 1012.58 928.264 984.036 935.297 C 985.855 941.74 984.601 1003.57 983.782 1014.05 C 983.517 1017.44 982.12 1022.22 980.754 1025.45 C 973.953 1032.98 968.649 1037.49 960.674 1043.78 C 959.887 1052.39 957.838 1061.2 955.965 1069.67 C 947.76 1106.75 953.319 1119.91 919.966 1140.61 C 912.036 1142.29 897.347 1144.69 890.319 1146.6 C 835.815 1154.78 791.549 1150.2 737.44 1145.71 C 739.429 1160.87 741.727 1176.01 743.518 1191.19 C 744.883 1202.76 738.414 1204.12 731.963 1210.69 C 709.763 1213.6 687.543 1216.36 665.304 1218.97 C 655.427 1220.18 636.887 1222.13 628.008 1224.78 C 619.972 1223.83 612.342 1226.87 603.977 1227.69 C 565.999 1231.68 528.067 1236.11 490.188 1240.96 C 473.634 1243.03 455.526 1245.99 438.895 1246.94 C 434.943 1247.17 429.547 1243.92 426.1 1241.82 C 417.76 1224.49 421.206 1205.14 416.102 1195.19 C 404.981 1194.49 392.821 1190.94 382.738 1186.14 C 306.968 1150.05 312.172 1038.22 394.281 1012.16 C 399.263 1010.28 403.667 988.738 411.459 986.558 C 440.184 978.521 475.119 980.79 503.769 973.169 L 505.021 972.826 C 511.644 948.922 519.932 940.84 538.233 925.343 C 505.583 907.609 474.983 878.665 454.867 847.557 C 448.264 837.346 443.225 826.543 437.425 815.903 C 425.919 818.001 389.832 818.813 378.818 812.391 C 371.936 808.379 367.637 801.669 365.723 794.116 C 359.448 770.821 358.919 744.616 355.316 721.186 C 343.84 646.561 350.495 648.446 417.52 627.03 C 420.48 623.024 423.574 607.706 424.811 602.413 C 440.043 537.178 472.645 473.527 516.008 422.438 C 544.581 388.92 578.176 360.03 615.595 336.799 C 636.658 323.651 659.105 313.538 682.023 304.246 C 683.881 303.493 684.277 302.804 685.202 301.166 z"/>
<path transform="translate(0,0)" fill="url(#Gradient1)" d="M 538.233 925.343 C 552.653 930.586 565.34 938.816 580.764 944.108 C 590.487 947.496 600.338 950.503 610.295 953.123 C 614.562 954.235 628.384 957.359 631.697 958.837 C 631.706 967.801 631.801 976.765 631.982 985.727 C 647.46 983.861 700.82 972.505 711.684 980.383 C 719.279 985.889 719.899 1007.54 720.888 1016.14 C 721.953 1025.41 721.971 1036.32 724.836 1045.2 C 724.892 1055.96 734.406 1136.52 737.44 1145.71 C 739.429 1160.87 741.727 1176.01 743.518 1191.19 C 744.883 1202.76 738.414 1204.12 731.963 1210.69 C 709.763 1213.6 687.543 1216.36 665.304 1218.97 C 655.427 1220.18 636.887 1222.13 628.008 1224.78 C 619.972 1223.83 612.342 1226.87 603.977 1227.69 C 565.999 1231.68 528.067 1236.11 490.188 1240.96 C 473.634 1243.03 455.526 1245.99 438.895 1246.94 C 434.943 1247.17 429.547 1243.92 426.1 1241.82 C 417.76 1224.49 421.206 1205.14 416.102 1195.19 C 404.981 1194.49 392.821 1190.94 382.738 1186.14 C 306.968 1150.05 312.172 1038.22 394.281 1012.16 C 399.263 1010.28 403.667 988.738 411.459 986.558 C 440.184 978.521 475.119 980.79 503.769 973.169 L 505.021 972.826 C 511.644 948.922 519.932 940.84 538.233 925.343 z"/>
<path transform="translate(0,0)" fill="rgb(232,232,229)" d="M 394.281 1012.16 C 396.119 1015.08 403.282 1079.39 404.387 1088.74 C 375.968 1101.5 392.876 1116.44 390.293 1126.01 C 380.566 1128.95 377.116 1129.28 371.763 1138.73 C 355.655 1167.18 398.456 1177.5 417.266 1188.35 C 417.03 1190.35 416.845 1193.49 416.102 1195.19 C 404.981 1194.49 392.821 1190.94 382.738 1186.14 C 306.968 1150.05 312.172 1038.22 394.281 1012.16 z"/>
<path transform="translate(0,0)" fill="rgb(36,35,36)" d="M 404.387 1088.74 C 418.876 1086.67 466.126 1108.42 468.798 1126.42 C 469.613 1131.82 468.189 1137.33 464.854 1141.66 C 460.534 1147.32 446.4 1153.19 446.828 1154.21 C 452.401 1167.5 448.935 1198.55 417.266 1188.35 C 398.456 1177.5 355.655 1167.18 371.763 1138.73 C 377.116 1129.28 380.566 1128.95 390.293 1126.01 C 392.876 1116.44 375.968 1101.5 404.387 1088.74 z"/>
<path transform="translate(0,0)" fill="rgb(214,214,213)" d="M 538.233 925.343 C 552.653 930.586 565.34 938.816 580.764 944.108 C 590.487 947.496 600.338 950.503 610.295 953.123 C 614.562 954.235 628.384 957.359 631.697 958.837 C 631.706 967.801 631.801 976.765 631.982 985.727 C 603.088 990.867 570.697 993.878 541.078 998.634 C 529.013 974.304 533.056 972.539 505.021 972.826 C 511.644 948.922 519.932 940.84 538.233 925.343 z"/>
<path transform="translate(0,0)" fill="rgb(36,35,36)" d="M 503.093 1190.37 C 506.635 1189.76 507.475 1189.83 511.114 1189.97 C 516.926 1193.67 517.452 1205.65 515.06 1211.36 C 508.546 1215.56 471.044 1219.28 460.234 1220.7 C 456.699 1221.17 453.821 1222.1 450.94 1220.41 C 448.246 1217.09 447.878 1214.59 447.205 1210.65 C 445.152 1199.18 448.459 1197.81 458.955 1196.17 C 473.638 1193.89 488.4 1192.2 503.093 1190.37 z"/>
<path transform="translate(0,0)" fill="rgb(36,35,36)" d="M 984.036 935.297 C 985.855 941.74 984.601 1003.57 983.782 1014.05 C 983.517 1017.44 982.12 1022.22 980.754 1025.45 C 973.953 1032.98 968.649 1037.49 960.674 1043.78 C 959.887 1052.39 957.838 1061.2 955.965 1069.67 C 947.76 1106.75 953.319 1119.91 919.966 1140.61 C 912.036 1142.29 897.347 1144.69 890.319 1146.6 C 835.815 1154.78 791.549 1150.2 737.44 1145.71 C 734.406 1136.52 724.892 1055.96 724.836 1045.2 C 721.971 1036.32 721.953 1025.41 720.888 1016.14 C 719.899 1007.54 719.279 985.889 711.684 980.383 C 700.82 972.505 647.46 983.861 631.982 985.727 C 631.801 976.765 631.706 967.801 631.697 958.837 C 734.469 976.537 884.844 970.036 984.036 935.297 z"/>
<path transform="translate(0,0)" fill="rgb(232,232,229)" d="M 724.836 1045.2 L 879.272 1045.13 C 898.914 1045.16 943.423 1046.37 960.674 1043.78 C 959.887 1052.39 957.838 1061.2 955.965 1069.67 C 947.76 1106.75 953.319 1119.91 919.966 1140.61 C 912.036 1142.29 897.347 1144.69 890.319 1146.6 C 835.815 1154.78 791.549 1150.2 737.44 1145.71 C 734.406 1136.52 724.892 1055.96 724.836 1045.2 z"/>
<path transform="translate(0,0)" fill="rgb(214,214,213)" d="M 1188.83 532.238 C 1201.73 531.497 1228.55 535.526 1241.67 537.18 C 1273.28 542.614 1269.39 588.099 1273.75 611.595 C 1277.39 631.258 1278.01 651.284 1280.34 670.513 C 1285.56 713.5 1249.13 713.803 1217.08 720.872 C 1217.16 707.748 1219.27 692.069 1219.26 677.026 C 1219.2 621.12 1207.24 583.513 1188.83 532.238 z"/>
<path transform="translate(0,0)" fill="rgb(214,214,213)" d="M 437.425 815.903 C 425.919 818.001 389.832 818.813 378.818 812.391 C 371.936 808.379 367.637 801.669 365.723 794.116 C 359.448 770.821 358.919 744.616 355.316 721.186 C 343.84 646.561 350.495 648.446 417.52 627.03 C 418.318 640.471 414.838 659.289 414.274 673.369 C 412.337 721.801 418.189 769.244 436.876 814.225 C 437.331 815.332 437.084 814.573 437.425 815.903 z"/>
<path transform="translate(0,0)" fill="rgb(214,214,213)" d="M 685.202 301.166 C 684.735 296.936 685.54 292.437 686.299 288.228 C 698.301 221.669 773.657 188.2 830.42 225.53 C 850.174 238.521 865.695 260.528 870.199 283.898 C 803.019 275.148 749.558 282.867 685.202 301.166 z"/>
<path transform="translate(0,0)" fill="rgb(36,35,36)" d="M 797.395 374.405 C 866.5 367.316 951.052 398.747 1004.84 441.584 C 1071.46 493.888 1117.16 566.84 1128.41 651.455 C 1152.05 829.297 965.97 862.103 832.764 878.287 C 821.485 880.034 796.218 882.361 784.353 883.053 C 716.996 887.671 613.727 888.569 559.897 839.165 C 462.027 749.341 505.693 569.713 584.963 482.449 C 644.813 416.563 710.974 380.785 797.395 374.405 z"/>
<path transform="translate(0,0)" fill="rgb(232,232,229)" d="M 709.458 641.259 C 754.126 641.921 789.469 726.648 723.265 744.358 C 711.715 745.801 701.323 744.534 691.304 738.179 C 681.321 731.803 674.301 721.7 671.808 710.119 C 666.229 683.687 680.393 647.092 709.458 641.259 z"/>
<path transform="translate(0,0)" fill="rgb(232,232,229)" d="M 924.875 615.294 C 972.619 608.977 1010.92 693.787 946.553 715.89 C 937.528 717.976 928.081 717.259 919.474 713.836 C 908.516 709.347 899.795 700.681 895.236 689.752 C 884.315 663.948 898.339 626.303 924.875 615.294 z"/>
<path transform="translate(0,0)" fill="rgb(232,232,229)" d="M 865.978 717.957 C 867.608 719.053 871.853 725.224 873.198 727.098 C 849.631 745.294 823.26 748.387 795.279 740.466 L 791.573 738.785 C 789.893 734.725 791.817 731.174 793.247 726.614 C 818.336 738.447 844.021 735.26 865.978 717.957 z"/>
<path transform="translate(0,0)" fill="rgb(232,232,229)" d="M 922.02 1206.96 C 930.863 1208.64 942.168 1208.51 952.013 1209.97 C 977.71 1216.09 1000.03 1231.94 1014.28 1254.19 C 1032.72 1283.46 1028.88 1305.92 1029.07 1338.26 C 1029.09 1342.88 1028.7 1354.33 1029.35 1358.53 C 1042.28 1361.28 1053.11 1368.34 1050.73 1383.59 C 1050.27 1386.55 1045.66 1392.5 1043.76 1395.14 C 1039.76 1397.1 1034.39 1399.45 1029.93 1399.5 C 992.994 1399.93 953.355 1401.61 916.584 1400.13 C 840.142 1399.69 845.063 1355.03 845.79 1294.28 C 845.96 1280.08 844.976 1263.31 848.351 1249.57 C 850.372 1241.67 854.063 1234.3 859.175 1227.95 C 877.617 1204.84 897.473 1209.81 922.02 1206.96 z"/>
<path transform="translate(0,0)" fill="rgb(36,35,36)" d="M 1029.35 1358.53 C 1042.28 1361.28 1053.11 1368.34 1050.73 1383.59 C 1050.27 1386.55 1045.66 1392.5 1043.76 1395.14 C 1039.76 1397.1 1034.39 1399.45 1029.93 1399.5 C 992.994 1399.93 953.355 1401.61 916.584 1400.13 C 916.493 1388.96 919.392 1379.41 927.373 1371.29 C 932.97 1365.65 940.055 1361.71 947.805 1359.93 C 958.493 1357.38 1014.81 1358.59 1029.35 1358.53 z"/>
<path transform="translate(0,0)" fill="rgb(232,232,229)" d="M 1105.5 1024.39 C 1161.91 998.357 1221.85 1022.01 1240.1 1083.83 C 1246.03 1103.94 1243.52 1117.25 1238.82 1137.04 C 1242.84 1153.06 1251.12 1166.96 1255.26 1182.72 C 1259.89 1200.34 1248.23 1205.59 1234.75 1210.17 C 1225.6 1207.84 1218.43 1203.84 1213.77 1214.15 C 1210.22 1222.02 1201.47 1224.57 1193.85 1227.19 L 1181.54 1222.71 C 1177.14 1217.13 1170.17 1201.63 1168.29 1199.99 C 1158.06 1200.46 1147.76 1201.36 1137.56 1201.64 C 1126.24 1229.43 1095.91 1224.53 1090.15 1197.04 C 1089.2 1192.48 1083.46 1179.49 1081.48 1174.62 C 1077.78 1168.44 1072.34 1162.5 1068.82 1156.18 C 1046.18 1115.54 1053.73 1070.92 1084.99 1038.25 C 1092.52 1033.73 1096.14 1029.5 1105.5 1024.39 z"/>
<path transform="translate(0,0)" fill="rgb(36,35,36)" d="M 1196.29 1149.34 C 1203.1 1127.27 1221.31 1121.73 1238.82 1137.04 C 1242.84 1153.06 1251.12 1166.96 1255.26 1182.72 C 1259.89 1200.34 1248.23 1205.59 1234.75 1210.17 C 1225.6 1207.84 1218.43 1203.84 1213.77 1214.15 C 1210.22 1222.02 1201.47 1224.57 1193.85 1227.19 L 1181.54 1222.71 C 1177.14 1217.13 1170.17 1201.63 1168.29 1199.99 C 1166.94 1192.23 1159.11 1177.05 1156.37 1165.34 C 1161.13 1150.11 1166.4 1147.04 1181.21 1143.41 C 1187.93 1145.33 1189.99 1146.23 1196.29 1149.34 z"/>
<path transform="translate(0,0)" fill="rgb(36,35,36)" d="M 1081.48 1174.62 C 1099.14 1189 1114.74 1197.84 1137.56 1201.64 C 1126.24 1229.43 1095.91 1224.53 1090.15 1197.04 C 1089.2 1192.48 1083.46 1179.49 1081.48 1174.62 z"/>
<path transform="translate(0,0)" fill="rgb(232,232,229)" d="M 731.963 1210.69 C 748.194 1219.43 759.993 1228.29 765.493 1246.72 C 770.086 1262.11 770.105 1332.63 767.67 1350.58 C 766.668 1358.35 764.25 1365.87 760.535 1372.78 C 747.182 1397.13 724.218 1400.25 698.78 1400.16 C 681.005 1400.68 586.913 1402.51 575.863 1397.35 C 570.889 1395.02 566.75 1391.04 564.94 1385.79 C 563.21 1380.77 563.523 1373.82 566.228 1369.18 C 570.174 1362.41 577.384 1360.14 584.453 1358.32 C 583.814 1345.26 583.079 1320.58 584.869 1308.47 C 586.857 1267.38 600.09 1251.62 628.008 1224.78 C 636.887 1222.13 655.427 1220.18 665.304 1218.97 C 687.543 1216.36 709.763 1213.6 731.963 1210.69 z"/>
<path transform="translate(0,0)" fill="rgb(36,35,36)" d="M 584.453 1358.32 C 583.814 1345.26 583.079 1320.58 584.869 1308.47 L 584.952 1358.6 C 600.156 1358.53 656.218 1357.27 667.597 1360.1 C 674.859 1361.91 681.509 1365.62 686.87 1370.84 C 695.435 1379.21 698.409 1388.54 698.78 1400.16 C 681.005 1400.68 586.913 1402.51 575.863 1397.35 C 570.889 1395.02 566.75 1391.04 564.94 1385.79 C 563.21 1380.77 563.523 1373.82 566.228 1369.18 C 570.174 1362.41 577.384 1360.14 584.453 1358.32 z"/>
<path transform="translate(0,0)" fill="rgb(214,214,213)" d="M 984.036 935.297 C 1012.58 928.264 1030.8 917.268 1055.02 909.368 C 1087.11 934.137 1097.43 959.914 1083.93 999.478 C 1091.72 1007.03 1099.93 1014.96 1105.5 1024.39 C 1096.14 1029.5 1092.52 1033.73 1084.99 1038.25 C 1080.85 1033.87 1072.19 1023.76 1067.26 1021.6 C 1055.95 1030.06 1046.51 1035.77 1032.25 1038.29 C 1015.18 1041.31 993.007 1038.87 980.754 1025.45 C 982.12 1022.22 983.517 1017.44 983.782 1014.05 C 984.601 1003.57 985.855 941.74 984.036 935.297 z"/>
<path transform="translate(0,0)" fill="rgb(36,35,36)" d="M 1083.93 999.478 C 1091.72 1007.03 1099.93 1014.96 1105.5 1024.39 C 1096.14 1029.5 1092.52 1033.73 1084.99 1038.25 C 1080.85 1033.87 1072.19 1023.76 1067.26 1021.6 C 1074.8 1013.24 1078.01 1008.74 1083.93 999.478 z"/>
<path transform="translate(0,0)" fill="rgb(36,35,36)" d="M 890.319 1146.6 C 897.347 1144.69 912.036 1142.29 919.966 1140.61 C 932.007 1156.95 939.892 1168.52 946.308 1188.55 C 948.612 1195.75 948.364 1203.78 951.602 1209.26 L 952.013 1209.97 C 942.168 1208.51 930.863 1208.64 922.02 1206.96 C 928.05 1193.35 898.624 1156.82 890.319 1146.6 z"/>
</svg>