<svg version="1.1" xmlns="http://www.w3.org/2000/svg" style="display: block;" viewBox="0 0 1374 2048" width="510" height="760" preserveAspectRatio="none">
<defs>
	<linearGradient id="Gradient1" gradientUnits="userSpaceOnUse" x1="444.945" y1="459.783" x2="492.232" y2="471.734">
		<stop class="stop0" offset="0" stop-opacity="1" stop-color="rgb(30,27,19)"/>
		<stop class="stop1" offset="1" stop-opacity="1" stop-color="rgb(78,63,53)"/>
	</linearGradient>
	<linearGradient id="Gradient2" gradientUnits="userSpaceOnUse" x1="960.11" y1="470.602" x2="919.7" y2="464.598">
		<stop class="stop0" offset="0" stop-opacity="1" stop-color="rgb(38,32,29)"/>
		<stop class="stop1" offset="1" stop-opacity="1" stop-color="rgb(70,54,42)"/>
	</linearGradient>
	<linearGradient id="Gradient3" gradientUnits="userSpaceOnUse" x1="1001.08" y1="470.697" x2="955.417" y2="467.954">
		<stop class="stop0" offset="0" stop-opacity="1" stop-color="rgb(45,37,32)"/>
		<stop class="stop1" offset="1" stop-opacity="1" stop-color="rgb(75,62,52)"/>
	</linearGradient>
	<linearGradient id="Gradient4" gradientUnits="userSpaceOnUse" x1="488.415" y1="711.201" x2="947.814" y2="550.293">
		<stop class="stop0" offset="0" stop-opacity="1" stop-color="rgb(18,16,15)"/>
		<stop class="stop1" offset="1" stop-opacity="1" stop-color="rgb(51,48,45)"/>
	</linearGradient>
</defs>
<path transform="translate(0,0)" fill="rgb(253,253,253)" d="M 219.839 99.4638 C 239.704 98.7582 263.623 99.4164 283.754 99.4323 L 408.871 99.4653 L 803.518 99.4533 L 1038.01 99.4963 L 1110.21 99.4061 C 1148.87 99.4263 1182.73 98.1108 1214.63 124.138 C 1266.17 166.187 1255.82 230.474 1255.81 289.367 L 1256.04 459.881 L 1256.31 1028.59 L 1256.91 1568.27 L 1256.83 1729.59 C 1256.84 1758.83 1257.49 1788.36 1256.06 1817.54 C 1253.56 1868.74 1210.54 1915.13 1159.25 1919.82 L 498.807 1921.32 L 310.872 1921.23 C 276.447 1921.27 241.1 1922.62 206.761 1919.8 C 184.676 1917.99 161.411 1906.65 144.962 1892.02 C 121.821 1871.84 107.772 1843.2 105.981 1812.55 C 104.018 1778.11 105.286 1735.21 105.262 1699.87 L 105.254 1493.31 L 105.264 882.313 L 105.228 425.224 L 105.219 284.282 C 105.205 258.521 104.257 231.559 106.044 205.932 C 110.419 143.184 158.46 102.396 219.839 99.4638 z"/>
<path transform="translate(0,0)" fill="rgb(239,197,57)" d="M 253.583 158.442 C 305.343 157.207 360.922 158.383 413.047 158.252 L 818.609 158.194 L 1022.8 158.058 L 1082.96 158.088 C 1115.65 158.128 1141.65 155.598 1167.87 179.431 C 1186.64 196.496 1197.51 217.647 1198.02 243.2 C 1198.74 279.639 1198.22 316.066 1198.25 352.484 L 1198.9 542.587 L 1197.98 1134.94 L 1198.09 1578.86 L 1198.19 1710.99 C 1198.34 1753.21 1206.48 1803.03 1175.4 1836.44 C 1156.74 1856.5 1135.21 1862.45 1108.75 1863.79 L 505.42 1863.69 L 333.79 1863.52 C 302.82 1863.62 269.333 1864.69 238.488 1862.73 C 223.791 1861.8 204.471 1850.91 193.533 1841.41 C 174.741 1825.09 164.094 1797.05 163.255 1772.25 C 161.971 1734.26 162.485 1695.01 162.517 1656.83 L 162.397 1464.76 L 162.242 897.103 L 162.798 445.617 C 162.915 402.887 162.81 360.157 162.485 317.429 C 162.276 293.263 160.706 266.373 162.547 242.491 C 166.442 191.948 205.37 160.762 253.583 158.442 z"/>
<path transform="translate(0,0)" fill="rgb(253,253,253)" d="M 286.771 1098.39 C 304.734 1097.28 326.645 1097.8 344.941 1097.75 L 448.54 1097.68 L 744.266 1097.87 L 967.101 1097.85 L 1035.8 1097.84 C 1049.86 1097.84 1064.41 1097.46 1078.28 1098.76 C 1116.19 1102.31 1141.89 1134.74 1142.87 1171.74 C 1144 1214.2 1143.45 1256.61 1143.35 1299.01 L 1143.64 1508.66 L 1143.8 1660.59 C 1143.81 1687.52 1145.18 1717 1142.38 1743.55 C 1138.22 1783.01 1107.32 1805.54 1069.89 1807.43 C 1033.66 1808.73 989.716 1807.42 952.696 1807.49 L 644.781 1807.4 L 403.286 1809.01 C 378.731 1809 356.608 1808.98 332.003 1807.76 C 316.032 1806.97 300.814 1809.01 283.677 1807.17 C 269.589 1805.64 256.221 1800.16 245.108 1791.37 C 215.249 1767.96 216.683 1739.08 216.51 1705.5 L 216.287 1649.53 L 216.253 1456.51 L 216.262 1266.12 L 215.973 1204.86 C 215.831 1176.14 213.044 1148.61 233.035 1125.29 C 248.629 1107.11 263.376 1100.67 286.771 1098.39 z"/>
<path transform="translate(0,0)" fill="rgb(239,197,57)" d="M 432.41 1603.34 C 468.845 1601.99 507.529 1603.4 544.072 1603.64 C 569.655 1603.81 567.725 1627.86 567.448 1646.66 C 566.977 1678.69 568.608 1712.09 566.396 1744.1 C 565.477 1757.38 554.055 1761.36 542.413 1762.65 C 510.308 1763.93 477.135 1762.2 444.963 1762.92 C 414.127 1763.6 407.804 1755.21 408.36 1725.45 C 408.989 1691.75 407.045 1657.49 409.31 1623.84 C 410.293 1609.25 419.644 1604.79 432.41 1603.34 z"/>
<path transform="translate(0,0)" fill="rgb(253,253,253)" d="M 489.829 1630.62 C 491.199 1631.06 492.396 1631.74 493.693 1632.39 C 495.655 1635.33 495.085 1638.91 495.043 1642.66 C 535.895 1654.49 504.274 1677.76 504.262 1681.68 C 516.675 1685.1 518.691 1691.79 518.607 1703.36 C 518.483 1720.32 506.667 1716.28 496.267 1723.49 C 493.605 1725.34 497.086 1730.5 492.491 1734.83 L 490.753 1734.65 C 488.611 1731.66 488.774 1728.92 488.427 1725.17 L 488.144 1723.82 C 485.085 1722.41 485.862 1722.89 482.041 1723.19 C 478.232 1728.11 482.985 1733.54 476.717 1734.89 C 476.498 1734.33 476.275 1733.77 476.048 1733.21 C 473.2 1726.23 472.609 1723.87 465.281 1721.14 C 464.309 1720.78 463.401 1720.2 463.289 1719.37 C 461.869 1708.77 461.239 1653.02 463.293 1645.98 C 465.422 1643.87 469.419 1643.75 472.653 1643.24 C 474.775 1640.57 473.879 1637.96 474.094 1633.55 C 476.001 1631.42 474.995 1632.02 478.427 1631.72 C 481.888 1635.94 478.628 1637.7 481.875 1643.23 C 484.874 1644.19 483.927 1643.9 487.48 1642.95 C 488.611 1641.44 489.249 1633.52 489.829 1630.62 z"/>
<path transform="translate(0,0)" fill="rgb(239,197,57)" d="M 473.674 1686.2 C 487.125 1685.95 520.615 1686.57 503.951 1709.52 C 494.439 1714.55 484.71 1713.37 473.665 1713.75 L 473.674 1686.2 z"/>
<path transform="translate(0,0)" fill="rgb(239,197,57)" d="M 474.664 1652.48 C 487.368 1652.59 514.791 1652.65 500.018 1673.53 C 491.353 1678.02 483.524 1676.98 473.687 1676.99 C 473.679 1671.53 473.146 1656.96 474.664 1652.48 z"/>
<path transform="translate(0,0)" fill="rgb(0,0,0)" d="M 939.113 1616.17 C 993.659 1611.69 993.128 1672.6 973.432 1707.32 C 964.584 1722.92 952.944 1731.7 935.832 1736.14 C 879.952 1741.91 880.414 1679.13 901.421 1643.98 C 910.631 1628.57 921.791 1620.36 939.113 1616.17 z"/>
<path transform="translate(0,0)" fill="rgb(253,253,253)" d="M 937.812 1642.01 C 962.34 1640.83 957.107 1671.41 952.818 1686.97 C 950.13 1696.71 944.66 1705.74 935.425 1710.42 C 906.28 1712.67 916.24 1655.9 937.812 1642.01 z"/>
<path transform="translate(0,0)" fill="rgb(0,0,0)" d="M 740.037 1616.24 C 764.705 1614.28 787.539 1623.97 786.102 1652.14 C 784.815 1677.39 759.599 1692.8 742.217 1707.69 C 754.085 1707.49 766.511 1707.71 778.425 1707.74 L 774.689 1732.09 C 747.066 1732.54 718.45 1732.16 690.75 1732.14 C 688.406 1732.27 688.568 1732.3 686.394 1731.42 C 687.803 1728.59 733.149 1686.86 740.275 1679.97 C 775.739 1645.71 736.433 1622.53 729.901 1658.83 L 697.696 1658.74 C 704.962 1634.39 714.929 1622.23 740.037 1616.24 z"/>
<path transform="translate(0,0)" fill="rgb(0,0,0)" d="M 821.493 1620.08 L 879.711 1620.21 C 878.635 1628.32 877.164 1636.77 875.864 1644.87 L 837.038 1644.94 L 833.396 1657.18 C 844.219 1656.62 853.536 1655.81 862.987 1662.29 C 880.852 1674.55 879.507 1700.18 867.644 1716.12 C 858.118 1728.92 847.248 1733.76 831.98 1736.07 C 815.373 1738.42 801.399 1735.2 787.253 1726.6 C 790.287 1718.33 793.283 1707.78 795.956 1699.23 C 808.548 1710.75 830.934 1720.24 842.876 1701.33 C 847.582 1693.88 844.656 1683.13 836.523 1679.15 C 825.948 1673.98 813.268 1677.41 802.532 1680.7 C 807.639 1661.7 815.454 1639.11 821.493 1620.08 z"/>
<path transform="translate(0,0)" fill="rgb(0,0,0)" d="M 709.588 1353.38 C 730.541 1354.07 742.663 1367.16 746.01 1387.21 C 750.383 1413.41 745.541 1447.39 714.864 1452.64 C 692.901 1452.28 681.11 1438.19 678.235 1417.22 C 674.626 1390.89 677.88 1357.52 709.588 1353.38 z"/>
<path transform="translate(0,0)" fill="rgb(253,253,253)" d="M 709.347 1372.87 C 730.84 1373.15 727.561 1410.91 722.468 1424.15 C 720.727 1428.67 718.275 1430.49 714.586 1433.2 C 694.01 1432.88 696.253 1399.29 699.397 1386.04 C 701.028 1379.16 703.387 1376.25 709.347 1372.87 z"/>
<path transform="translate(0,0)" fill="rgb(0,0,0)" d="M 858.216 1211.26 C 898.732 1211.76 902.361 1271.12 885.164 1297.11 C 879.502 1305.66 871.852 1309.23 861.987 1310.94 C 839.945 1310.08 829.159 1296.99 825.779 1275.85 C 821.484 1249 826.456 1215.89 858.216 1211.26 z"/>
<path transform="translate(0,0)" fill="rgb(253,253,253)" d="M 858.202 1230.87 C 871.245 1233.3 873.805 1246.92 873.919 1258.16 C 874.052 1271.22 873.341 1285.04 861.019 1292.02 C 842.289 1289.72 844.019 1258.49 847.096 1245.35 C 848.908 1237.61 851.554 1234.74 858.202 1230.87 z"/>
<path transform="translate(0,0)" fill="rgb(0,0,0)" d="M 844.631 1353.33 C 894.319 1354 893.747 1446.11 848.721 1452.51 C 826.903 1450.67 814.823 1436.16 812.182 1415.08 C 808.814 1388.19 813.573 1357.78 844.631 1353.33 z"/>
<path transform="translate(0,0)" fill="rgb(253,253,253)" d="M 843.368 1372.93 C 865.98 1371.47 865.707 1420.74 850.517 1431.97 C 826.732 1437.42 827.528 1385.27 843.368 1372.93 z"/>
<path transform="translate(0,0)" fill="rgb(0,0,0)" d="M 394.088 1212.07 C 441.961 1211.22 462.737 1218.11 457.92 1273.52 C 457.029 1283.77 453.503 1290.57 447.178 1298.54 C 432.789 1312.43 412.574 1309.34 394.115 1308.8 C 393.079 1279.91 393.841 1241.38 394.088 1212.07 z"/>
<path transform="translate(0,0)" fill="rgb(253,253,253)" d="M 415.024 1231.29 C 418.275 1231.41 423.665 1231.4 426.395 1232.97 C 443.013 1242.54 438.752 1271.43 431.333 1285.34 C 427.768 1288.76 419.584 1292.49 415.517 1288.31 C 414.266 1279.66 414.641 1240.79 415.024 1231.29 z"/>
<path transform="translate(0,0)" fill="rgb(0,0,0)" d="M 907.033 1212.65 C 913.184 1212.48 919.828 1212.76 926.016 1212.9 C 934.93 1230.33 941.633 1247.17 949.072 1265.26 C 949.186 1248.25 948.413 1229.82 949.454 1213.04 C 955.99 1212.95 961.751 1213.33 968.245 1213.74 C 968.888 1231.78 968.054 1251.49 968.632 1269.86 C 968.829 1276.12 969.416 1303.71 968.711 1308.37 L 966.92 1309.34 C 961.334 1309.66 955.289 1309.52 949.66 1309.5 C 941.318 1291.93 934.794 1272.46 926.087 1255.88 C 926.515 1273.66 926.563 1291.44 926.231 1309.22 C 920.034 1309.4 913.154 1309.16 906.902 1309.07 C 906.108 1281.22 905.836 1240.21 907.033 1212.65 z"/>
<path transform="translate(0,0)" fill="rgb(0,0,0)" d="M 603.081 1353.72 C 608.801 1353.98 615.677 1353.86 621.496 1353.92 C 631.451 1372.16 637.955 1388.76 645.944 1407.98 C 646.099 1391.46 644.558 1369.8 645.917 1353.96 C 652.17 1353.8 658.636 1354.17 664.902 1354.41 C 665.462 1386.19 664.993 1418.73 665.416 1450.76 C 658.786 1450.87 652.487 1450.51 645.881 1450.19 C 643.155 1440.52 627.123 1405.98 622.499 1395.46 C 621.661 1412.43 622.335 1433.04 622.521 1450.32 C 616.313 1450.43 609.808 1450.33 603.572 1450.33 C 603.072 1418.13 602.908 1385.92 603.081 1353.72 z"/>
<path transform="translate(0,0)" fill="rgb(0,0,0)" d="M 525.413 1353.99 C 532.057 1353.91 538.874 1354.02 545.533 1354.05 C 546.107 1365.97 545.97 1378.98 546.074 1390.98 L 567.356 1390.79 L 568.124 1353.95 L 588.002 1354.08 C 588.12 1365.73 588.911 1445.67 587.125 1450.21 L 585.054 1450.69 L 568.325 1450.95 L 567.819 1410.08 C 560.568 1409.96 553.063 1410.05 545.789 1410.04 L 545.154 1450.11 C 538.672 1450.58 532.506 1450.48 526.025 1450.44 C 525.535 1418.25 526.335 1386.36 525.413 1353.99 z"/>
<path transform="translate(0,0)" fill="rgb(0,0,0)" d="M 660.107 1212.5 C 674.535 1212.25 698.223 1209.98 710.046 1219.28 C 723.623 1229.96 723.844 1255.17 712.921 1267.84 C 706.027 1275.83 700.295 1276.93 690.241 1277.73 C 687.13 1277.69 685.017 1277.26 682.527 1278.95 C 679.11 1284.89 680.761 1300.62 680.615 1309.17 C 674.234 1309.57 667.226 1309.19 660.788 1308.99 C 659.051 1281.51 660.014 1240.87 660.107 1212.5 z"/>
<path transform="translate(0,0)" fill="rgb(253,253,253)" d="M 681.31 1230.95 C 698.903 1231.28 707.398 1243.25 695.674 1257.01 C 690.622 1259.55 688.516 1261.16 683.258 1259.7 C 678.701 1254.51 680.975 1238.66 681.31 1230.95 z"/>
<path transform="translate(0,0)" fill="rgb(0,0,0)" d="M 920.462 1354.15 C 936.385 1352.81 942.213 1356.28 954.336 1366.35 C 949.594 1373.16 947.544 1374.66 941.166 1380.11 C 904.544 1353.55 902.948 1425.82 922.785 1431.94 C 926.325 1433.04 930.165 1432.53 933.3 1430.55 C 935.594 1429.14 937.2 1426.84 937.738 1424.2 C 939.524 1415.47 929.943 1414.24 924.109 1413.37 C 923.489 1406.66 922.043 1402.71 925.888 1397.93 C 929.691 1396.16 935.851 1396.77 940.289 1396.86 L 954.688 1397.09 L 955.121 1441.91 C 944.114 1450.36 928.735 1455.34 915.353 1449.64 C 883.374 1436.04 881.716 1379.54 908.421 1360.13 C 912.163 1357.41 916.15 1355.8 920.462 1354.15 z"/>
<path transform="translate(0,0)" fill="rgb(0,0,0)" d="M 470.276 1212.54 L 520.258 1211.99 L 519.88 1231.63 L 490.091 1232.13 C 490.014 1238.14 490.096 1244.28 490.107 1250.3 L 514.725 1250.3 L 514.981 1269.12 C 506.595 1269.18 498.209 1269.36 489.828 1269.65 L 489.776 1288.19 C 490.018 1289.1 490.39 1289.32 491.06 1290.16 C 497.624 1291.23 512.724 1290.9 520.064 1290.91 C 520.021 1297.06 520.41 1303.49 520.685 1309.65 C 503.763 1309.74 486.841 1309.51 469.927 1308.98 C 468.61 1279.66 469.756 1242.17 470.276 1212.54 z"/>
<path transform="translate(0,0)" fill="rgb(0,0,0)" d="M 396.655 1354.29 C 411.252 1354.24 433.039 1353.66 447.108 1355.08 C 447.403 1360.86 447.087 1367.55 446.952 1373.4 C 437.954 1373.91 427.108 1373.8 417.964 1373.95 L 418.007 1391.5 C 426.076 1391.49 434.452 1391.73 442.548 1391.85 L 442.901 1409.83 L 417.328 1410.13 L 417.444 1426.75 L 417.826 1429.41 C 421.742 1432.39 440.625 1431.91 447.116 1432.15 C 447.706 1438.44 447.445 1444.11 447.28 1450.39 C 432.138 1451.06 412.7 1450.4 397.222 1450.26 C 397.407 1418.27 397.218 1386.28 396.655 1354.29 z"/>
<path transform="translate(0,0)" fill="rgb(0,0,0)" d="M 608.382 1212.52 C 621.864 1212.33 634.408 1212.15 647.914 1212.7 C 647.983 1219.02 647.858 1225.55 647.821 1231.89 L 618.706 1232 L 618.93 1250.29 L 643.021 1250.3 L 643.159 1269.04 C 635.036 1269.1 626.916 1269.37 618.807 1269.86 C 618.556 1274.88 617.449 1286.4 619.233 1290.29 L 621.75 1290.87 L 648.816 1290.57 L 648.896 1309.28 C 632.202 1309.35 615.507 1309.19 598.817 1308.79 C 597.333 1281.5 598.724 1240.87 598.79 1212.59 L 608.382 1212.52 z"/>
<path transform="translate(0,0)" fill="rgb(0,0,0)" d="M 557.496 1212.13 C 567.143 1211.53 587.512 1214.7 590.333 1225.3 C 589.111 1231.29 582.611 1234.69 577.299 1238.68 C 548.466 1213.79 542.033 1269.89 554.022 1285.24 C 562.376 1295.93 570.317 1290.81 578.298 1284.12 C 580.055 1285.2 583.491 1287.92 585.301 1289.25 C 586.851 1290.74 588.352 1291.99 589.175 1293.99 C 589.866 1295.71 589.765 1297.65 588.898 1299.28 C 583.861 1308.98 562.001 1314.63 552.198 1308.91 C 543.302 1304.54 534.77 1294.56 532.052 1284.64 C 524.342 1256.49 526.1 1222.84 557.496 1212.13 z"/>
<path transform="translate(0,0)" fill="rgb(0,0,0)" d="M 485.045 1353.32 C 501.065 1351.94 507.249 1355.81 517.121 1367.94 C 512.804 1373.85 511.202 1375.25 505.478 1379.87 C 461.187 1347.3 469.895 1464.16 504.584 1423.78 L 510.771 1430.59 L 516.771 1438.75 C 511.96 1444.03 506.789 1448.34 499.981 1450.79 C 492.933 1453.39 485.127 1453 478.374 1449.71 C 446.316 1434.35 445.45 1366.46 485.045 1353.32 z"/>
<path transform="translate(0,0)" fill="rgb(0,0,0)" d="M 1008.24 1354.86 C 1015.23 1354.61 1021.2 1355.08 1028.13 1355.54 C 1024.62 1366.37 1015.6 1386.09 1010.89 1397.19 C 1002.53 1419.92 1004.36 1425.9 1004.95 1449.88 C 998.306 1450.31 991.445 1450.22 984.774 1450.23 C 984.885 1437.72 985.627 1420.61 981.652 1409.07 C 975.432 1391 967.006 1373.11 960.165 1355.19 L 980.781 1354.9 C 986.845 1367.17 989.948 1377.63 994.059 1390.68 C 998.675 1378.86 1002.69 1366.23 1008.24 1354.86 z"/>
<path transform="translate(0,0)" fill="rgb(0,0,0)" d="M 724.931 1212.74 C 744.318 1212.61 763.705 1212.7 783.09 1213 L 783.166 1232.12 L 764.982 1232.2 C 764.33 1251.45 764.631 1271.83 764.643 1291.18 L 764.678 1309.16 L 744.909 1309.09 C 744.87 1283.35 744.576 1257.62 744.027 1231.89 L 724.841 1232.02 L 724.931 1212.74 z"/>
<path transform="translate(0,0)" fill="rgb(0,0,0)" d="M 329.462 1355.08 C 348.246 1354.32 369.123 1354.54 387.93 1354.84 L 388.033 1372.98 L 368.813 1373.26 C 367.863 1391.36 368.077 1410.8 368.003 1429.03 L 367.826 1449.84 L 348.009 1450.06 C 348.011 1424.65 347.801 1399.25 347.381 1373.84 C 341.546 1373.76 335.327 1373.29 329.472 1372.96 C 329.076 1367.55 329.378 1360.6 329.462 1355.08 z"/>
<path transform="translate(0,0)" fill="rgb(0,0,0)" d="M 759.542 1354.78 C 765.979 1354.56 772.515 1354.79 778.962 1354.92 C 779.914 1380.18 779.546 1406.54 779.519 1431.87 C 789.085 1432 797.657 1432.15 807.188 1432.87 C 807.8 1439.3 808.425 1443.88 807.756 1450.39 C 794.135 1451.51 773.723 1450.84 759.714 1450.65 C 758.963 1425.59 758.53 1379.58 759.542 1354.78 z"/>
<path transform="translate(0,0)" fill="rgb(0,0,0)" d="M 793.005 1212.98 C 799.484 1212.73 806.376 1212.83 812.892 1212.81 C 813.504 1244.03 812.742 1277.32 813.178 1309.14 C 806.443 1309.57 799.773 1309.27 793.032 1309.09 C 792.618 1278.49 792.37 1243.36 793.005 1212.98 z"/>
<path transform="translate(0,0)" fill="url(#Gradient4)" d="M 568.62 342.003 C 559.561 340.474 553.923 339.717 548.133 331.559 C 544.033 325.781 542.22 318.846 543.556 311.798 C 544.669 305.784 548.204 300.491 553.333 297.16 C 562.622 291.044 615.214 293.19 629.978 293.211 L 741.543 293.281 L 810.023 293.21 C 829.393 293.172 853.357 288.289 864.477 307.014 C 867.573 312.11 868.407 318.264 866.78 324.001 C 862.864 337.385 850.796 341.796 838.293 343.223 C 839.492 348.772 840.729 355.482 842.641 360.724 C 857.059 373.551 867.526 382.838 878.8 398.511 C 919.614 455.253 915.949 536.48 868.871 588.456 C 864.23 593.58 858.054 600.127 852.18 603.787 C 850.81 618.494 850.769 636.885 851.774 651.711 C 926.566 650.424 914.311 652.148 915.181 718.489 C 915.72 759.582 923.9 777.099 899.129 815.662 L 913.864 829.276 C 923.738 829.424 924.761 829.415 931.742 837.042 C 946.928 853.39 963.323 871.557 978.93 887.287 C 991.44 899.894 994.19 916.471 980.318 929.198 C 951.926 955.245 929.386 912.864 911.149 895.8 C 902.981 888.157 891.783 877.409 885.838 869.992 C 847.099 870.304 807.056 869.31 768.543 870.068 C 766.809 877.755 764.804 885.829 757.321 889.6 C 738.401 899.136 721.64 891.085 718.476 870.704 C 703.408 869.954 682.154 871.211 669.269 870.139 C 664.263 870.554 659.375 870.995 654.352 871.153 C 653.921 881.236 655.039 899.149 647.654 905.813 C 645.044 908.167 638.816 909.153 635.148 910.117 C 635.103 917.979 636.257 938.903 633.496 944.382 C 631.233 945.68 628.989 945.655 626.775 943.995 C 621.554 945.377 609.838 946.856 605.542 943.33 C 605.034 945.198 605.351 944.523 604.004 946.002 C 600.42 946.736 601.541 947.033 598.617 945.789 C 594.253 939.56 595.872 917.785 596.003 909.451 C 592.337 909.223 587.896 909.434 585.197 906.705 C 577.189 898.61 578.901 882.106 578.742 871.298 C 556.613 870.549 531.336 872.603 509.263 870.312 C 506.564 870.031 502.369 866.595 500.291 864.712 C 492.125 857.309 493.198 846.738 492.968 836.724 C 492.863 816.644 492.32 796.407 492.898 776.328 C 493.118 768.706 496.516 766.108 501.587 761.058 C 500.15 759.652 498.622 758.218 497.372 756.641 C 490.198 747.584 492.493 688.479 493.866 674.653 C 493.732 662.916 497.211 658.263 506.991 652.178 C 524.41 651.893 541.832 651.833 559.253 651.998 C 559.191 637.32 559.357 621.939 558.713 607.329 C 522.172 569.347 503.174 542.148 503.862 486.291 C 504.374 444.616 516.262 408.006 546.939 378.472 C 562.925 363.083 565.134 364.243 568.62 342.003 z"/>
<path transform="translate(0,0)" fill="rgb(253,253,253)" d="M 501.587 761.058 C 500.15 759.652 498.622 758.218 497.372 756.641 C 490.198 747.584 492.493 688.479 493.866 674.653 L 493.951 675.813 C 494.516 684.014 493.188 737.412 494.728 740.068 C 495.686 737.698 496.455 735.029 498.287 733.348 L 499.078 733.393 C 500.067 736.576 499.993 737.826 500.175 741.204 C 501.018 735.852 501.487 731.006 501.991 725.607 C 502.147 734.149 500.529 746.839 506.538 752.642 C 508.14 754.182 509.865 755.59 511.694 756.853 C 528.029 757.243 548.353 756.523 563.757 757.314 C 558.371 760.337 524.5 756.347 519.919 758.882 C 523.504 759.867 528.419 759.239 532.279 759.02 C 533.162 760.811 532.665 761.963 532.265 763.954 C 528.866 765.349 525.639 763.881 523.375 766.08 C 586.854 766.261 651.123 764.585 714.39 765.293 C 716.546 776.015 718.647 786.43 723.453 796.375 C 751.946 855.323 816.772 871.505 872.105 840.44 C 877.618 846.974 881.118 851.976 884.93 859.696 C 845.647 860.76 804.762 859.758 766.404 861.088 C 762.033 853.74 757.271 848.734 748.617 846.573 C 741.764 844.881 734.516 846.092 728.586 849.922 C 723.402 853.213 721.002 856.61 718.245 861.903 C 704.806 861.99 665.27 861.336 653.82 862.775 C 654.762 864.389 655.394 865.146 655.338 867.085 C 660.315 871.14 662.569 869.39 669.269 870.139 C 664.263 870.554 659.375 870.995 654.352 871.153 C 653.921 881.236 655.039 899.149 647.654 905.813 C 645.044 908.167 638.816 909.153 635.148 910.117 C 635.103 917.979 636.257 938.903 633.496 944.382 C 631.233 945.68 628.989 945.655 626.775 943.995 C 621.554 945.377 609.838 946.856 605.542 943.33 C 605.034 945.198 605.351 944.523 604.004 946.002 C 600.42 946.736 601.541 947.033 598.617 945.789 C 594.253 939.56 595.872 917.785 596.003 909.451 C 592.337 909.223 587.896 909.434 585.197 906.705 C 577.189 898.61 578.901 882.106 578.742 871.298 C 556.613 870.549 531.336 872.603 509.263 870.312 C 506.564 870.031 502.369 866.595 500.291 864.712 C 492.125 857.309 493.198 846.738 492.968 836.724 C 492.863 816.644 492.32 796.407 492.898 776.328 C 493.118 768.706 496.516 766.108 501.587 761.058 z"/>
<path transform="translate(0,0)" fill="rgb(41,38,36)" d="M 501.587 761.058 C 500.15 759.652 498.622 758.218 497.372 756.641 C 490.198 747.584 492.493 688.479 493.866 674.653 L 493.951 675.813 C 494.516 684.014 493.188 737.412 494.728 740.068 C 495.686 737.698 496.455 735.029 498.287 733.348 L 499.078 733.393 C 500.067 736.576 499.993 737.826 500.175 741.204 C 501.018 735.852 501.487 731.006 501.991 725.607 C 502.147 734.149 500.529 746.839 506.538 752.642 C 508.14 754.182 509.865 755.59 511.694 756.853 C 528.029 757.243 548.353 756.523 563.757 757.314 C 558.371 760.337 524.5 756.347 519.919 758.882 C 523.504 759.867 528.419 759.239 532.279 759.02 C 533.162 760.811 532.665 761.963 532.265 763.954 C 528.866 765.349 525.639 763.881 523.375 766.08 C 512.197 766.915 508.361 765.84 502.219 776.338 C 501.269 788.927 499.875 849.109 505.662 856.11 C 509.826 861.148 518.081 862.154 524.17 862.4 C 542.674 863.148 561.504 862.337 580.037 862.203 C 583.67 855.39 587.226 850.462 595.852 848.289 C 607.25 845.417 633.77 844.735 644.701 849.449 C 649.581 851.553 651.387 861.146 653.82 862.775 C 654.762 864.389 655.394 865.146 655.338 867.085 C 660.315 871.14 662.569 869.39 669.269 870.139 C 664.263 870.554 659.375 870.995 654.352 871.153 C 653.921 881.236 655.039 899.149 647.654 905.813 C 645.044 908.167 638.816 909.153 635.148 910.117 C 635.103 917.979 636.257 938.903 633.496 944.382 C 631.233 945.68 628.989 945.655 626.775 943.995 C 621.554 945.377 609.838 946.856 605.542 943.33 C 605.034 945.198 605.351 944.523 604.004 946.002 C 600.42 946.736 601.541 947.033 598.617 945.789 C 594.253 939.56 595.872 917.785 596.003 909.451 C 592.337 909.223 587.896 909.434 585.197 906.705 C 577.189 898.61 578.901 882.106 578.742 871.298 C 556.613 870.549 531.336 872.603 509.263 870.312 C 506.564 870.031 502.369 866.595 500.291 864.712 C 492.125 857.309 493.198 846.738 492.968 836.724 C 492.863 816.644 492.32 796.407 492.898 776.328 C 493.118 768.706 496.516 766.108 501.587 761.058 z"/>
<path transform="translate(0,0)" fill="rgb(253,253,253)" d="M 605.542 943.33 C 603.995 929.428 606.138 876.642 603.736 871.301 C 600.844 870.337 601.863 870.578 598.395 871.659 C 591.929 878.607 599.899 898.193 592.052 899.405 C 587.988 895.501 588.676 891.145 588.448 885.941 C 587.289 859.396 591.705 854.015 618.861 854.964 C 647.559 855.967 643.931 864.219 643.741 889.573 C 643.675 893.418 643.28 894.449 640.686 897.065 L 638.695 897.488 C 634.31 890.732 640.343 876.579 634.434 870.967 C 630.992 870.618 632.372 870.338 629.194 871.796 C 626.014 879.099 627.551 932.167 626.775 943.995 C 621.554 945.377 609.838 946.856 605.542 943.33 z"/>
<path transform="translate(0,0)" fill="rgb(41,38,36)" d="M 616.073 798.175 C 650.672 795.372 642.847 847.939 612.899 842.175 C 591.532 832.898 587.433 822.176 592.651 799.953 C 595.094 798.221 593.757 798.615 596.82 798.826 L 599.507 802.459 C 601.623 802.847 612.047 799.096 616.073 798.175 z"/>
<path transform="translate(0,0)" fill="rgb(220,219,220)" d="M 614.122 816.723 C 618.598 817.011 621.773 816.881 623.387 821.391 C 622.013 824.817 621.509 824.407 618.277 826.82 C 613.84 826.29 611.413 826.072 609.41 821.975 C 610.408 818.598 610.842 819.136 614.122 816.723 z"/>
<path transform="translate(0,0)" fill="rgb(41,38,36)" d="M 683.773 801.075 C 687.375 800.927 689.87 800.413 693 802.038 C 697.599 807.726 695.328 816.726 694.737 824.493 C 691.423 824.571 687.253 824.354 683.867 824.263 C 683.48 815.948 683.527 809.4 683.773 801.075 z"/>
<path transform="translate(0,0)" fill="rgb(0,0,0)" d="M 716.747 801.466 C 719.362 801.485 719.447 801.604 721.85 802.32 C 727.091 807.999 725.44 819.998 721.496 825.939 C 718.805 825.809 718.708 825.732 716.097 824.934 C 710.428 818.816 712.987 808.001 716.747 801.466 z"/>
<path transform="translate(0,0)" fill="rgb(41,38,36)" d="M 656.242 800.11 L 661.023 800.596 C 665.418 804.649 665.129 820.387 661.746 824.701 C 659.147 824.516 657.623 824.676 655.449 823.249 C 651.712 817.25 650.664 805.085 656.242 800.11 z"/>
<path transform="translate(0,0)" fill="rgb(0,0,0)" d="M 559.959 800.855 C 561.124 800.844 562.418 800.894 563.579 800.915 C 572.052 801.067 568.28 819.484 567.557 824.585 C 563.061 824.755 562.873 825.45 559.973 822.496 C 557.946 816.558 559.422 807.49 559.959 800.855 z"/>
<path transform="translate(0,0)" fill="rgb(0,0,0)" d="M 528.059 800.738 C 531.044 800.764 531.504 800.767 534.38 801.464 C 538.728 806.988 536.51 818.142 535.881 825.435 C 532.982 825.308 532.138 825.495 529.669 824.166 C 525.532 818.307 527.502 808.154 528.059 800.738 z"/>
<path transform="translate(0,0)" fill="rgb(253,253,253)" d="M 501.991 725.607 C 502.499 710.02 499.41 674.32 506.774 663.828 C 514.669 658.579 550.248 660.236 561.895 660.239 L 629.222 660.122 C 675.686 660.317 727.764 659.466 773.631 661.145 C 750.213 676.365 740.846 682.167 726.03 706.999 C 724.543 703.015 723.569 699.309 720.51 696.398 C 717.323 695.187 718.831 695.124 715.831 696.406 C 711.834 702.787 713.117 712.456 717.763 718.94 C 719.811 721.798 715.208 751.358 714.88 756.361 C 664.477 757.374 614.028 756.465 563.757 757.314 C 548.353 756.523 528.029 757.243 511.694 756.853 C 509.865 755.59 508.14 754.182 506.538 752.642 C 500.529 746.839 502.147 734.149 501.991 725.607 z"/>
<path transform="translate(0,0)" fill="rgb(41,38,36)" d="M 652.196 696.089 C 655.487 695.966 657.87 695.491 660.706 696.991 C 665.353 702.77 663.27 711.62 662.587 719.327 C 659.132 719.494 656.127 720.154 653.499 718.265 C 649.111 712.349 651.401 703.862 652.196 696.089 z"/>
<path transform="translate(0,0)" fill="rgb(41,38,36)" d="M 621.407 696.179 C 624.536 696.029 626.892 695.468 629.348 697.144 C 633.738 703.108 631.942 712.196 631.534 719.956 L 620.402 719.243 C 620.452 711.052 620.376 704.338 621.407 696.179 z"/>
<path transform="translate(0,0)" fill="rgb(0,0,0)" d="M 683.421 695.704 C 687.005 695.741 687.826 695.478 690.804 697.175 C 695.266 703 693.674 711.881 692.833 719.238 C 689.233 719.351 686.983 719.905 684.226 717.81 C 680.187 711.643 682.503 703.39 683.421 695.704 z"/>
<path transform="translate(0,0)" fill="rgb(0,0,0)" d="M 560.24 695.915 C 563.543 695.937 563.891 695.864 566.976 696.87 C 571.621 702.327 569.933 711.947 569.638 719.44 C 566.452 719.732 564.599 720.235 561.708 718.914 C 557.308 713.28 559.576 703.528 560.24 695.915 z"/>
<path transform="translate(0,0)" fill="rgb(0,0,0)" d="M 529.586 696.555 C 534.729 696.909 534.495 696.101 538.084 698.746 C 540.713 704.406 539.364 712.217 538.967 718.811 C 533.968 718.979 534.015 719.771 530.367 717.551 C 527.34 711.851 529.023 703.31 529.586 696.555 z"/>
<path transform="translate(0,0)" fill="rgb(0,0,0)" d="M 591.288 696.064 C 594.344 696.031 594.849 695.923 597.726 696.768 C 601.902 701.201 600.131 713.147 599.994 720.238 C 596.546 720.205 595.669 720.432 592.638 719.044 C 588.432 713.429 590.616 703.304 591.288 696.064 z"/>
<path transform="translate(0,0)" fill="rgb(253,253,253)" d="M 811.255 661.513 C 862.313 658.937 905.855 698.105 908.677 749.151 C 911.5 800.196 872.542 843.926 821.51 846.995 C 770.13 850.084 726.035 810.801 723.193 759.407 C 720.352 708.012 759.847 664.107 811.255 661.513 z"/>
<path transform="translate(0,0)" fill="rgb(41,38,36)" d="M 805.681 681.802 C 845.717 675.96 882.888 703.735 888.633 743.785 C 894.378 783.835 866.512 820.939 826.448 826.586 C 786.523 832.213 749.574 804.465 743.849 764.553 C 738.124 724.641 765.783 687.625 805.681 681.802 z"/>
<path transform="translate(0,0)" fill="rgb(141,186,206)" d="M 807.005 690.128 C 842.158 685.05 874.777 709.416 879.881 744.566 C 884.985 779.715 860.645 812.352 825.499 817.483 C 790.316 822.62 757.635 798.247 752.525 763.06 C 747.416 727.872 771.814 695.21 807.005 690.128 z"/>
<path transform="translate(0,0)" fill="rgb(41,38,36)" d="M 809.65 711.629 C 817.516 709.286 826.035 711.387 831.91 717.121 C 837.784 722.854 840.092 731.32 837.94 739.241 C 835.789 747.163 829.516 753.297 821.548 755.271 C 809.619 758.227 797.513 751.119 794.28 739.262 C 791.048 727.406 797.872 715.137 809.65 711.629 z"/>
<path transform="translate(0,0)" fill="rgb(141,186,206)" d="M 812.101 720.291 C 819.115 718.38 826.366 722.449 828.388 729.433 C 830.41 736.417 826.455 743.731 819.504 745.862 C 814.909 747.272 809.911 746.095 806.428 742.783 C 802.945 739.472 801.517 734.54 802.692 729.88 C 803.868 725.219 807.464 721.554 812.101 720.291 z"/>
<path transform="translate(0,0)" fill="rgb(41,38,36)" d="M 804.37 759.235 C 819.147 758.145 822.865 758.139 836.748 763.289 C 849.479 768.013 858.962 795.937 846.458 798.871 C 840.469 792.482 849.505 778.398 829.604 769.28 C 785.079 755.728 795.268 791.3 786.645 798.401 L 785.008 798.181 C 780.608 794.285 781.082 788.618 781.71 783.368 C 783.456 768.771 791.344 763.533 804.37 759.235 z"/>
<path transform="translate(0,0)" fill="rgb(253,253,253)" d="M 703.224 479.439 C 726.974 479.287 745.305 477.731 743.543 508.984 C 743.231 514.509 744.111 524.332 742.224 529.246 C 739.501 531.931 737.988 533.56 734.362 531.595 C 728.384 521.296 737.081 500.731 729.064 495.163 L 726.973 496.122 C 725.612 497.835 723.747 500.778 723.725 503.019 C 723.502 525.142 724.033 547.266 723.656 569.398 C 723.574 574.218 723.697 579.978 727.26 583.418 L 729.687 582.866 C 733.82 578.603 732.19 549.85 732.069 541.969 C 736.737 542.222 741.406 542.448 746.076 542.645 C 750.126 536.921 751.373 532.771 752.888 526.063 C 789.354 525.384 825.925 525.669 862.4 525.244 C 872.482 525.127 882.964 525.009 892.984 525.846 C 884.009 552.794 872.421 571.974 851.637 591.004 L 713.076 591.103 C 661.189 590.919 609.302 591.331 557.424 592.341 C 538.003 572.014 524.865 552.472 517.617 524.861 C 563.863 523.98 619.499 524.375 665.798 525.799 C 669.522 549.031 676.073 537.527 683.434 543.583 C 689.579 553.377 681.405 576.654 689.778 583.431 L 691.645 582.883 C 695.838 576.786 694.045 501.243 691.61 497.598 L 687.93 497.338 C 678.866 502.141 687.77 519.84 683.123 530.28 C 680.528 532.377 681.988 531.85 678.548 531.785 C 673.23 525.507 673.916 491.664 679.875 484.403 C 683.923 479.47 697.337 479.707 703.224 479.439 z"/>
<path transform="translate(0,0)" fill="rgb(253,253,253)" d="M 571.007 443.457 C 601.463 441.921 652.703 442.767 683.168 443.993 C 696.457 472.654 724.158 472.525 735.446 444.163 C 785.989 444.689 839.256 441.693 889.862 444.494 C 899.132 463.595 897.755 493.828 895.234 514.583 C 876.49 515.999 837.306 514.829 816.43 514.908 L 752.476 515.289 C 752.318 504.043 752.906 488.016 744.65 479.292 C 733.003 466.985 686.488 467.154 674.638 478.649 C 665.904 487.122 666.874 504.521 666.883 515.976 L 572.762 515.078 C 555.083 514.994 532.284 515.558 515.148 514.372 C 509.204 492.985 511.897 465.166 518.842 444.228 C 536.233 444.212 553.623 443.955 571.007 443.457 z"/>
<path transform="translate(0,0)" fill="rgb(253,253,253)" d="M 564.728 375.172 C 601.535 373.127 652.006 374.733 689.762 374.849 C 737.563 374.994 797.23 372.716 844.248 375.616 C 862.05 389.206 878.841 413.168 886.787 433.949 L 826.5 433.841 L 734.021 433.971 C 722.004 411.597 694.769 407.715 684.469 434.161 C 630.406 433.796 576.341 433.711 522.277 433.905 C 532.848 409.809 543.774 391.486 564.728 375.172 z"/>
<path transform="translate(0,0)" fill="rgb(253,253,253)" d="M 614.238 600.5 C 689.105 599.584 767.675 600.121 842.586 600.696 C 841.853 617.893 842.259 634.94 841.298 652.257 C 826.728 651.632 812.145 651.368 797.563 651.465 C 721.036 652.266 644.505 652.517 567.975 652.219 C 567.976 635.033 567.626 617.849 566.926 600.677 C 582.696 600.532 598.467 600.472 614.238 600.5 z"/>
<path transform="translate(0,0)" fill="rgb(253,253,253)" d="M 566.454 303.431 C 597.888 302.856 843.461 302.665 848.432 305.03 C 852.154 306.801 854.824 310.248 855.833 314.211 C 856.891 318.367 856.089 323.062 853.614 326.593 C 850.648 330.823 845.445 331.023 840.775 331.613 C 791.426 333.781 740.818 332.076 691.357 332.662 C 651.621 332.593 612.078 333.458 572.358 332.083 C 546.845 331.199 547.599 306.513 566.454 303.431 z"/>
<path transform="translate(0,0)" fill="rgb(253,253,253)" d="M 582.094 341.496 L 722.463 341.311 C 757.574 341.258 795.082 340.518 829.921 342.042 C 830.571 349.033 834.093 360.351 830.951 365.024 L 826.154 365.573 C 741.944 366.568 657.726 366.662 573.514 365.855 C 574.232 360.166 574.767 347.394 577.816 342.596 C 578.556 341.433 580.339 341.666 582.094 341.496 z"/>
<path transform="translate(0,0)" fill="rgb(253,253,253)" d="M 917.984 838.55 C 925.625 840.233 967.401 888.303 975.108 897.252 C 977.04 899.495 980.185 905.433 981.539 908.355 C 977.762 920.738 972.443 926.681 959.115 928.266 C 947.444 924.825 902.159 872.95 893.127 861.681 C 899.214 853.917 910.058 844.521 917.984 838.55 z"/>
<path transform="translate(0,0)" fill="rgb(253,253,253)" d="M 858.459 661.266 C 899.94 657.598 908.998 658.201 904.607 702.17 C 900.563 700.26 890.38 684.333 885.408 680.123 C 877.075 673.068 867.554 667.21 858.459 661.266 z"/>
<path transform="translate(0,0)" fill="rgb(253,253,253)" d="M 705.659 424.952 C 714.294 423.534 722.428 429.431 723.765 438.079 C 725.103 446.727 719.132 454.806 710.472 456.064 C 701.925 457.306 693.973 451.428 692.652 442.893 C 691.332 434.357 697.135 426.351 705.659 424.952 z"/>
<path transform="translate(0,0)" fill="rgb(253,253,253)" d="M 739.021 854.662 C 744.192 853.257 749.719 854.74 753.493 858.544 C 757.267 862.348 758.705 867.887 757.259 873.047 C 755.813 878.207 751.705 882.191 746.504 883.48 C 738.586 885.441 730.565 880.666 728.514 872.771 C 726.464 864.876 731.149 856.801 739.021 854.662 z"/>
<path transform="translate(0,0)" fill="rgb(253,253,253)" d="M 890.877 822.681 C 896.083 826.989 901.325 831.787 905.122 837.374 C 900.165 842.628 898.457 844.095 892.535 848.234 C 889.41 847.013 882.996 837.76 879.715 834.04 C 884.641 829.867 887.281 828.003 890.877 822.681 z"/>
<path transform="translate(0,0)" fill="rgb(253,253,253)" d="M 720.897 964.31 C 697.435 963.356 705.073 947.94 703.794 930.365 C 701.251 895.393 729.206 896.181 755.324 897.156 C 783.687 898.216 785.331 914.419 784.831 938.61 C 784.643 954.438 784.481 963.766 766.053 965.881 C 765.759 975.868 766.871 997.887 764.494 1006.34 C 762.05 1007.33 763.279 1007.27 760.681 1006.42 C 756.425 1001.08 757.688 983.281 757.718 975.72 C 757.029 990.174 762.632 1009.8 742.174 1006.86 C 738.176 1006.29 733.477 1007.22 730.549 1004.29 C 729.753 1007.02 729.094 1007.7 726.73 1008.85 L 724.028 1007.18 C 721.286 1001.44 721.727 998.724 721.868 992.251 C 720.867 984.128 721.008 972.748 720.897 964.31 z"/>
<path transform="translate(0,0)" fill="rgb(41,38,36)" d="M 720.897 964.31 C 697.435 963.356 705.073 947.94 703.794 930.365 C 701.251 895.393 729.206 896.181 755.324 897.156 C 783.687 898.216 785.331 914.419 784.831 938.61 C 784.643 954.438 784.481 963.766 766.053 965.881 C 765.759 975.868 766.871 997.887 764.494 1006.34 C 762.05 1007.33 763.279 1007.27 760.681 1006.42 C 756.425 1001.08 757.688 983.281 757.718 975.72 C 757.771 966.246 754.486 922.617 765.281 922.274 C 769.496 928.784 764.858 951.805 769.498 955.902 C 778.526 951.435 773.472 926.665 773.748 917.836 C 773.928 912.089 761.77 907.096 756.824 907.226 C 745.299 906.912 727.023 904.227 717.174 910.73 C 711.041 914.779 712.669 947.606 714.972 952.322 C 717.915 953.554 716.475 953.537 719.432 952.412 C 723.719 944.959 718.294 929.962 723.681 922.414 C 726.762 921.615 725.507 921.636 728.922 923.225 C 730.614 929.616 730.337 989.022 729.901 998.409 L 730.549 1004.29 C 729.753 1007.02 729.094 1007.7 726.73 1008.85 L 724.028 1007.18 C 721.286 1001.44 721.727 998.724 721.868 992.251 C 720.867 984.128 721.008 972.748 720.897 964.31 z"/>
<path transform="translate(0,0)" fill="rgb(0,0,0)" d="M 721.868 992.251 C 722.085 988.239 721.845 984.56 723.743 981.151 L 726.016 980.577 C 729.98 984.768 728.771 993.496 729.901 998.409 L 730.549 1004.29 C 729.753 1007.02 729.094 1007.7 726.73 1008.85 L 724.028 1007.18 C 721.286 1001.44 721.727 998.724 721.868 992.251 z"/>
<path transform="translate(0,0)" fill="rgb(41,38,36)" d="M 440.993 928.286 C 432.947 927.151 426.326 925.363 425.369 915.687 C 424.414 905.954 424.463 896.265 424.922 886.502 C 425.559 872.946 435.406 863.591 449.251 864.899 C 472.423 867.089 499.913 856.637 500.098 891.549 C 500.152 901.839 502.914 914.163 495.661 923.088 C 492.922 926.562 487.684 926.314 483.606 926.594 C 483.489 935.03 485.493 957.562 480.766 963.015 C 477.037 963.664 477.437 963.152 473.632 961.656 C 464.728 964.992 459.135 963.865 449.811 962.94 C 446.803 963.191 445.025 963.74 442.686 962.128 C 439.132 955.841 440.854 936.431 440.993 928.286 z"/>
<path transform="translate(0,0)" fill="rgb(253,253,253)" d="M 435.033 882.114 C 441.351 871.139 452.813 873.031 464.347 872.631 C 472.454 872.351 481.561 872.895 487.933 878.287 C 486.812 881.144 485.236 886.871 482.961 887.87 C 478.798 888.105 478.426 887.417 475.599 889.703 C 474.287 897.173 474.887 904.865 474.667 912.439 C 474.197 928.542 474.918 945.668 473.632 961.656 C 464.728 964.992 459.135 963.865 449.811 962.94 C 449.966 950.121 451.433 897.888 449.454 889.106 C 446.574 887.422 445.598 888 441.931 887.98 C 437.574 887.738 436.962 885.321 435.033 882.114 z"/>
<path transform="translate(0,0)" fill="rgb(220,219,220)" d="M 487.933 878.287 C 490.531 886.485 493.241 907.996 487.344 915.02 L 485.42 915.232 C 481.611 911.212 481.916 893.262 482.961 887.87 C 485.236 886.871 486.812 881.144 487.933 878.287 z"/>
<path transform="translate(0,0)" fill="rgb(220,219,220)" d="M 441.931 887.98 C 441.96 894.185 442.999 913.012 438.298 917.224 C 432.113 912.255 434.55 889.382 435.033 882.114 C 436.962 885.321 437.574 887.738 441.931 887.98 z"/>
<path transform="translate(0,0)" fill="rgb(41,38,36)" d="M 442.107 371.826 L 445.361 372.641 C 447.671 375.077 447.254 373.938 447.459 376.91 C 445.342 380.761 432.787 389.058 428.343 393.286 C 402.855 417.529 428.046 443.17 426.638 470.347 C 425.919 484.246 415.037 502.282 415.505 516.698 C 416.377 543.577 432.443 546.434 446.212 560.519 C 447.334 563.983 447.127 562.665 445.421 566.866 C 432.25 566.136 417.494 551.484 411.355 540.656 C 395.917 513.428 417.191 489.047 415.89 462.957 C 414.955 444.219 400.811 426.06 408.819 405.03 C 415.226 388.204 426.529 379.547 442.107 371.826 z"/>
<path transform="translate(0,0)" fill="url(#Gradient3)" d="M 961.886 370.47 C 975.154 373.89 987.793 386.075 994.669 397.563 C 1009.65 421.04 989.52 445.901 991.067 468.623 C 992.533 490.147 1005.98 509.354 998.709 532.742 C 993.545 549.341 982.449 558.56 967.674 566.705 C 963.985 566.487 963.407 566.658 961.168 564.596 L 961.129 562.327 C 963.325 558.514 971.277 552.198 974.621 549.417 C 1008.45 523.795 982.43 495.867 982.658 465.711 C 982.879 436.318 1005.05 409.591 970.697 386.049 C 967.095 383.581 962.006 381.64 959.061 378.382 C 958.752 375.042 960.161 373.443 961.886 370.47 z"/>
<path transform="translate(0,0)" fill="rgb(41,38,36)" d="M 458.515 817.942 C 470.367 815.639 481.831 823.419 484.067 835.284 C 486.304 847.149 478.46 858.568 466.583 860.738 C 454.8 862.891 443.49 855.123 441.271 843.352 C 439.052 831.581 446.757 820.227 458.515 817.942 z"/>
<path transform="translate(0,0)" fill="rgb(253,253,253)" d="M 460.152 827.575 C 464.225 826.715 468.445 828.12 471.19 831.25 C 473.935 834.379 474.778 838.746 473.395 842.673 C 472.011 846.599 468.617 849.473 464.517 850.191 C 458.328 851.274 452.412 847.197 451.221 841.028 C 450.031 834.859 454.004 828.873 460.152 827.575 z"/>
<path transform="translate(0,0)" fill="url(#Gradient2)" d="M 929.663 397.852 C 936.518 399.296 945.483 404.927 949.427 410.798 C 962.477 427.729 945.878 450.258 949.6 466.625 C 956.646 497.613 968.501 514.462 934.93 535.793 C 930.581 535.976 931.607 536.52 928.134 534.792 C 927.219 526.598 942.007 522.24 945.655 512.843 C 952.814 494.402 938.754 478.491 939.568 459.461 C 940.078 447.513 947.244 433.763 944.083 422.035 C 942.002 414.318 930.205 411.239 927.245 404.449 C 927.349 400.473 927.169 401.907 929.663 397.852 z"/>
<path transform="translate(0,0)" fill="url(#Gradient1)" d="M 472.467 398.719 C 475.606 399.442 476.523 399.341 478.556 401.593 C 479.804 409.134 465.697 414.31 462.416 421.874 C 459.126 429.456 464.904 443.854 466.948 451.906 C 472.172 472.482 456.231 488.772 459.403 508.575 C 461.034 518.755 478.067 526.064 480.354 532.548 L 478.171 536.416 C 468.477 535.728 461.657 530.277 456.071 522.548 C 452.233 517.238 449.17 509.382 449.124 502.75 C 449.034 489.707 457.909 477.868 458.613 464.841 C 459.594 450.002 450.982 435.69 453.632 421.26 C 455.657 410.231 463.755 404.45 472.467 398.719 z"/>
</svg>