<svg version="1.1" xmlns="http://www.w3.org/2000/svg" style="display: block;" viewBox="0 0 1365 2048" width="376" height="564" preserveAspectRatio="none">
<path transform="translate(0,0)" fill="rgb(254,254,254)" d="M 198.968 115.357 C 253.544 113.368 315.106 115.348 370.356 115.151 L 799.851 115.356 L 1024.37 115.679 L 1093.5 115.493 C 1136.63 115.36 1163.83 112.939 1199.65 141.99 C 1252.66 184.977 1243.92 245.419 1243.99 306.788 L 1243.96 461.627 L 1243.99 963.063 L 1244.15 1543.49 L 1244.32 1730.59 L 1244.36 1786.01 C 1244.43 1797.86 1244.98 1809.46 1244.12 1821.29 C 1239.77 1880.82 1197.55 1929.06 1138.24 1935.61 C 1120.44 1936.7 1097.59 1936.11 1079.51 1936.1 L 974.701 1936.07 L 611.209 1936.06 L 337.987 1935.92 L 252.474 1935.91 C 211.52 1935.91 174.312 1939.84 140.306 1913.39 C 117.656 1895.78 94.2592 1866.16 91.6956 1836.6 C 89.6924 1813.51 90.7776 1786.9 90.7931 1763.85 L 90.8513 1627.25 L 90.8698 1177.75 L 90.8923 537.848 L 90.8189 333.287 C 90.8056 298.559 90.3422 262.011 91.2674 227.498 C 91.8897 204.283 102.22 174.684 116.974 156.693 C 138.888 129.971 165.863 119.156 198.968 115.357 z"/>
<path transform="translate(0,0)" fill="rgb(123,98,170)" d="M 227.862 174.382 C 244.242 173.116 267.365 173.792 284.163 173.847 L 377.241 174.008 L 675.857 173.95 L 960.602 174 L 1046.63 173.847 C 1064.33 173.81 1082.28 173.705 1099.71 174.682 C 1138.04 176.83 1178.52 215.111 1183.7 252.88 C 1186.06 270.085 1184.95 297.026 1184.95 315.113 L 1185.06 425.34 L 1184.94 825.484 L 1184.74 1468.41 L 1184.9 1674.04 C 1184.94 1713.13 1185.56 1752.98 1184.01 1791.99 C 1182.33 1834.34 1148.65 1870.56 1106.3 1876.06 C 1085.53 1877.26 1063.03 1876.87 1042.08 1876.89 L 944.605 1876.93 L 636.879 1876.93 L 368.363 1876.85 L 281.354 1876.89 C 249.919 1876.92 218.099 1881.42 190.771 1862.88 C 144.288 1831.35 148.929 1791.44 148.989 1742.35 L 149.12 1646.69 L 148.929 1297.15 L 148.759 598.058 L 148.896 377.857 C 148.864 339.295 148.166 300.431 149.055 261.915 C 150.107 216.331 184.384 182.326 227.862 174.382 z"/>
<path transform="translate(0,0)" fill="rgb(254,254,254)" d="M 285.785 1114.47 L 286.497 1114.45 C 347.869 1113.27 412.79 1114.33 474.508 1114.33 L 804.619 1114.08 L 973.041 1114.16 C 995.432 1114.13 1043.43 1112.7 1063.96 1115.17 C 1079.21 1117.02 1093.44 1123.82 1104.48 1134.51 C 1121.79 1151.26 1128.23 1168.48 1128.14 1192.06 C 1128 1229.73 1128.01 1267.44 1128.03 1305.1 L 1127.99 1567.09 L 1128.12 1692.99 C 1128.16 1705.67 1129.05 1745.28 1127.62 1756.11 C 1125.51 1771.69 1118.51 1786.2 1107.63 1797.56 C 1090.51 1815.21 1071.5 1819.82 1048.02 1820.02 L 512.081 1820.03 L 353.43 1820 C 327.425 1820.01 297.286 1821.41 271.75 1819.06 C 234.164 1815.59 204.763 1780.77 204.433 1743.06 C 204.098 1704.7 204.177 1665.56 204.216 1626.79 L 204.312 1401.93 L 204.169 1257.49 C 204.163 1249.6 203.874 1241.27 204.15 1233.5 C 205.321 1200.52 198.299 1165.42 223.824 1139.39 C 243.219 1119.61 259.611 1115.41 285.785 1114.47 z"/>
<path transform="translate(0,0)" fill="rgb(254,204,1)" d="M 411.89 1583.45 C 444.306 1582.57 477.214 1583.77 509.676 1583.23 C 517.751 1583.09 532.885 1583.2 539.456 1587.73 C 544.268 1591.11 547.456 1596.33 548.253 1602.16 C 550.363 1617.36 548.949 1645.14 549.221 1661.72 C 548.875 1682.02 549.996 1702.5 548.514 1722.74 C 547.376 1738.28 539.305 1743.45 525.389 1745.07 C 501.893 1745.51 478.198 1745.07 454.674 1745.26 C 439.679 1745.38 424.677 1745.71 409.733 1744.63 C 384.242 1742.78 386.786 1722.41 386.65 1703.28 C 386.967 1671.2 385.964 1639.03 387.106 1606.98 C 387.702 1590.28 396.614 1584.74 411.89 1583.45 z"/>
<path transform="translate(0,0)" fill="rgb(254,254,254)" d="M 453.507 1612.29 C 455.62 1612.52 456.435 1612.78 458.418 1613.35 C 461.641 1617.87 459.037 1617.21 461.17 1623.02 C 463.802 1624.54 462.387 1624.12 465.633 1624.05 C 468.315 1620.73 467.163 1618.01 469.227 1612.8 L 470.884 1612.19 C 474.595 1613.81 473.427 1612.79 475.591 1615.88 C 475.628 1616.9 475.771 1622.73 476.764 1623.26 C 485.014 1627.72 500.019 1635.54 496.604 1647.22 C 494.847 1653.23 488.15 1658.83 482.934 1661.74 C 503.985 1669.81 506.031 1691.62 485.772 1702.46 C 482.517 1703.33 481.13 1703.69 478.092 1705.1 C 475.377 1708.01 475.152 1711.17 474.407 1715.06 C 471.758 1716.75 473.192 1716.34 469.913 1716.15 C 467.259 1713.1 468.443 1710.67 466.438 1705.7 C 463.728 1704.37 465.158 1704.66 461.955 1705.1 C 459.719 1707.65 460.925 1710.54 459.534 1715.28 C 456.886 1716.91 458.101 1716.57 454.553 1716.03 C 448.499 1707.25 461.099 1708.37 443.691 1703.32 C 439.563 1697.97 441.884 1636.59 441.983 1625.87 C 444.864 1625.24 447.739 1624.57 450.607 1623.88 C 453.68 1620.65 453.156 1617.11 453.507 1612.29 z"/>
<path transform="translate(0,0)" fill="rgb(254,204,1)" d="M 453.231 1667.9 C 463.769 1667.89 477.532 1666.79 485.984 1674.24 C 491.587 1679.18 487.439 1687.69 483.179 1692.03 C 472.752 1696.43 464.475 1695.5 453.12 1695.56 C 453.364 1686.56 453.218 1676.95 453.231 1667.9 z"/>
<path transform="translate(0,0)" fill="rgb(254,204,1)" d="M 453.389 1633.26 C 464.953 1633.48 496.264 1634.02 480.354 1654.61 C 471.332 1659.45 463.596 1658.24 453.165 1658.28 L 453.389 1633.26 z"/>
<path transform="translate(0,0)" fill="rgb(1,1,1)" d="M 822.611 1596.4 C 882.631 1600.56 866.074 1693.15 826.315 1713.27 C 816.954 1718.01 812.833 1718.72 802.423 1719.73 C 794.155 1719.24 785.439 1717.74 779.144 1712.32 C 748.479 1685.95 765.136 1621.83 797.607 1603.59 C 806.334 1598.69 813.164 1597.43 822.611 1596.4 z"/>
<path transform="translate(0,0)" fill="rgb(254,254,254)" d="M 814.044 1623.07 C 843.561 1621.17 834.402 1681.93 809.689 1693.46 C 782.092 1694.4 790.743 1636.21 814.044 1623.07 z"/>
<path transform="translate(0,0)" fill="rgb(1,1,1)" d="M 694.549 1601.02 C 714.347 1600.84 734.145 1600.82 753.942 1600.98 C 752.925 1609.22 751.578 1617.7 750.365 1625.94 C 737.166 1626.11 723.742 1625.98 710.523 1625.98 L 707.04 1638.87 C 717.822 1638.25 728.13 1637.94 737.343 1644.52 C 754.728 1656.93 753.792 1682.66 741.892 1698.55 C 731.859 1711.95 721.195 1716.65 705.208 1719.25 C 686.11 1720.74 676.605 1717.65 660.068 1709.79 C 662.763 1700.51 665.658 1691.29 668.75 1682.14 C 671.242 1684.18 673.871 1686.05 676.618 1687.74 C 684.457 1692.64 694.222 1695.85 703.503 1693.7 C 712.92 1691.91 722.029 1680.8 718.621 1670.96 C 712.388 1652.98 687.919 1658.63 675.316 1662.77 C 680.964 1642.76 688.326 1621.13 694.549 1601.02 z"/>
<path transform="translate(0,0)" fill="rgb(1,1,1)" d="M 807.22 1385.38 C 826.364 1385.74 839.435 1395.14 844.175 1413.83 C 851.257 1441.76 846.863 1477.15 815.539 1486.19 C 792.779 1487.58 779.24 1472.06 775.926 1450.79 C 771.896 1424.91 776.693 1390.49 807.22 1385.38 z"/>
<path transform="translate(0,0)" fill="rgb(254,254,254)" d="M 810.416 1404.79 C 825.16 1409.47 826.125 1426.7 825.491 1439.66 C 824.881 1452.13 823.104 1462.34 810.841 1467.44 C 792.978 1461.33 794.801 1437.38 797.484 1421.96 C 798.951 1413.54 803.179 1409.11 810.416 1404.79 z"/>
<path transform="translate(0,0)" fill="rgb(1,1,1)" d="M 515.477 1241.06 C 530.955 1240.89 553.682 1239.13 566.21 1249.18 C 587.479 1266.23 586.235 1308.59 570.377 1328.58 C 555.765 1343.14 534.792 1340.2 515.765 1339.88 C 514.621 1309.15 515.237 1272.05 515.477 1241.06 z"/>
<path transform="translate(0,0)" fill="rgb(254,254,254)" d="M 536.437 1259.89 C 540.498 1260.11 546.928 1260.55 550.286 1262.87 C 564.939 1273.01 562.065 1302.44 553.759 1315.52 C 548.037 1319.63 543.249 1320.1 536.489 1321.4 C 535.738 1303.37 536.054 1277.83 536.437 1259.89 z"/>
<path transform="translate(0,0)" fill="rgb(1,1,1)" d="M 601.04 1386.39 C 616.48 1386.02 639.319 1383.99 651.612 1394.38 C 672.806 1412.28 672.061 1453.36 655.649 1473.92 C 640.935 1488.24 620.476 1485.39 601.494 1485.09 C 602.422 1452.76 600.94 1418.98 601.04 1386.39 z"/>
<path transform="translate(0,0)" fill="rgb(254,254,254)" d="M 622.802 1404.83 C 629.626 1405.08 635.608 1405.94 639.931 1411.85 C 649.298 1424.65 647.258 1448.19 639.771 1461.25 C 634.753 1465.75 629.579 1465.96 622.986 1467.04 C 622.113 1450.71 622.242 1420.95 622.802 1404.83 z"/>
<path transform="translate(0,0)" fill="rgb(1,1,1)" d="M 525.968 1385.61 C 537.011 1386.56 548.688 1384.91 560.194 1386.29 C 581.889 1388.88 591.385 1404.78 588.358 1425.61 C 587.025 1434.79 580.893 1439.82 573.777 1444.69 C 578.925 1457.03 585.779 1473.36 592.369 1484.7 C 584.483 1484.95 576.429 1484.7 568.529 1484.56 C 564.283 1478.59 559.198 1455.41 550.999 1449.06 L 549.273 1449.37 C 546.56 1455.28 547.812 1476.64 547.98 1484.42 C 540.821 1484.83 533.351 1484.75 526.159 1484.78 C 525.485 1452.42 526.095 1418.18 525.968 1385.61 z"/>
<path transform="translate(0,0)" fill="rgb(254,254,254)" d="M 548.116 1404.58 C 565.357 1404.66 573.153 1412.64 563.837 1428.93 C 558.618 1431.27 554.555 1432.88 549.351 1430.23 C 545.219 1424.4 547.525 1412.2 548.116 1404.58 z"/>
<path transform="translate(0,0)" fill="rgb(1,1,1)" d="M 371.357 1386.25 C 378.476 1385.97 385.927 1386.02 393.076 1385.95 C 393.397 1398.41 393.089 1411.89 393.036 1424.42 L 415.779 1424.55 C 415.693 1411.67 415.745 1398.8 415.933 1385.93 L 437.17 1386.15 C 437.239 1400.53 439.111 1474.84 436.51 1484.24 L 434.231 1485.09 L 415.867 1485.12 L 415.864 1444.12 L 393.186 1444.46 L 393.103 1484.26 C 385.924 1484.63 378.54 1484.36 371.337 1484.22 C 371.876 1453.03 372.101 1417.36 371.357 1386.25 z"/>
<path transform="translate(0,0)" fill="rgb(1,1,1)" d="M 471.999 1385.22 C 478.561 1385.71 486.026 1385.9 492.664 1386.21 C 500.639 1417.39 511.243 1453.51 520.06 1484.65 C 512.627 1484.95 505.189 1485.12 497.75 1485.15 C 496.998 1481.1 495.164 1469.66 492.841 1466.86 C 484.992 1466.75 477.418 1467.03 469.583 1467.3 C 468.208 1472.98 467.014 1479.12 465.786 1484.87 C 458.826 1485.21 450.433 1484.99 443.348 1484.98 C 454.001 1456.32 460.645 1412.52 471.999 1385.22 z"/>
<path transform="translate(0,0)" fill="rgb(254,254,254)" d="M 480.329 1415.68 L 481.471 1416.85 C 482.935 1422.7 489.437 1445.32 487.471 1449.19 L 484.75 1449.4 L 474.078 1449.62 C 476.322 1438.46 478.82 1426.93 480.329 1415.68 z"/>
<path transform="translate(0,0)" fill="rgb(1,1,1)" d="M 610.471 1241.19 C 617.892 1240.94 624.682 1241.18 632.087 1241.41 C 639.383 1271.4 651.093 1308.7 659.64 1338.91 C 651.937 1339.08 644.232 1339.09 636.529 1338.95 C 635.616 1333.26 634.645 1327.58 633.617 1321.91 C 625.564 1321.8 617.51 1321.82 609.458 1321.97 C 608.179 1327.59 607.046 1333.42 605.869 1339.07 C 599.324 1339.49 589.716 1339 582.958 1338.86 C 592.755 1306.78 601.138 1273.61 610.471 1241.19 z"/>
<path transform="translate(0,0)" fill="rgb(254,254,254)" d="M 620.56 1270.82 C 621.901 1272.56 628.403 1301.14 627.724 1303.66 L 625.25 1304.19 C 622.311 1304.19 616.364 1304.59 614.508 1302.48 C 615.097 1294.44 618.756 1279.26 620.56 1270.82 z"/>
<path transform="translate(0,0)" fill="rgb(1,1,1)" d="M 742.074 1241.52 C 750.586 1241.21 754.972 1241.29 763.441 1242.05 C 773.021 1274.22 781.916 1306.6 790.119 1339.15 C 782.617 1339.45 775.788 1339.47 768.299 1339.42 C 767.412 1334.16 767.084 1325.46 762.753 1322.63 C 755.935 1322.17 747.718 1322.34 740.788 1322.3 C 739.828 1327.99 738.011 1333.89 736.443 1339.47 C 730.693 1339.85 720.942 1339.27 714.906 1339.09 C 717.096 1328.75 721.517 1314.67 724.439 1304.27 L 742.074 1241.52 z"/>
<path transform="translate(0,0)" fill="rgb(254,254,254)" d="M 751.328 1271.66 C 754.451 1274.13 760.658 1299.82 759.319 1304.17 L 756.832 1304.42 C 754.085 1304.41 747.272 1304.68 745.633 1302.61 C 747.739 1292.44 750.096 1281.94 751.328 1271.66 z"/>
<path transform="translate(0,0)" fill="rgb(1,1,1)" d="M 738.479 1385.29 C 755.445 1384.25 760.475 1388.65 771.131 1401.03 C 767.467 1404.84 762.438 1410.33 758.29 1413.27 C 741.018 1400.42 732.464 1403.8 727.415 1425.94 C 724.667 1437.98 727.395 1464.73 742.691 1467 C 747.457 1467.71 754.075 1461.31 757.646 1458.3 C 760.618 1458.89 763.402 1462.51 765.725 1464.9 L 772.327 1471.59 C 766.03 1477.99 759.911 1483.08 751.066 1485.61 C 743.085 1487.93 734.501 1486.89 727.308 1482.72 C 696.65 1465.3 696.154 1396.15 738.479 1385.29 z"/>
<path transform="translate(0,0)" fill="rgb(1,1,1)" d="M 899.87 1386.06 L 922.355 1386.22 C 915.885 1399.56 909.771 1413.06 904.022 1426.72 C 893.759 1448.45 895.745 1460.95 895.925 1484.25 L 875.071 1484.26 C 875.266 1475.21 876.06 1455.78 874.296 1447.92 C 869.716 1427.52 855.375 1407.37 850.091 1386.44 C 858.418 1386.09 863.899 1386.08 872.22 1386.55 C 876.871 1398.7 883.16 1414.64 885.367 1427.34 C 888.332 1414.16 894.84 1398.88 899.87 1386.06 z"/>
<path transform="translate(0,0)" fill="rgb(1,1,1)" d="M 656.817 1241.09 L 716.015 1241.6 L 716.056 1260.86 L 696.508 1261.06 C 696.364 1280.54 696.471 1300.02 696.83 1319.5 L 696.966 1339.2 C 690.123 1339.36 682.771 1339.22 675.885 1339.21 L 675.186 1261.86 L 656.292 1261.48 C 656.08 1254.59 656.485 1247.96 656.817 1241.09 z"/>
<path transform="translate(0,0)" fill="rgb(1,1,1)" d="M 555.918 406.772 C 576.966 407.36 600.001 406.852 621.205 406.883 C 670.718 406.842 720.232 407.058 769.744 407.53 C 769.99 422.492 770.155 437.456 770.241 452.421 C 781.385 452.214 792.531 452.128 803.678 452.164 C 803.907 465.694 803.855 479.407 803.92 492.954 C 814.915 492.67 825.917 492.756 836.907 493.212 C 837.245 501.828 836.928 510.765 836.921 519.407 C 836.879 579.239 836.562 639.084 836.801 698.913 C 836.855 712.403 840.546 724.273 842.686 737.421 C 844.093 746.066 844.282 755.812 844.664 764.584 C 851.597 765.011 859.745 765.003 866.776 765.15 C 868.057 786.059 867.158 807.473 867.362 828.336 C 867.921 885.707 839.974 914.938 793.6 941.512 C 790.227 943.272 785.231 945.299 781.632 946.882 C 755.323 935.793 738.116 924.073 719.375 902.827 C 668.174 901.882 608.763 901.621 558.137 903.231 L 557.933 869.63 C 546.48 869.971 535.157 870.455 523.704 869.877 C 523.408 857.807 523.404 845.732 523.693 833.662 L 489.246 834.01 C 489.706 814.485 489.709 794.642 489.296 775.12 C 487.193 675.761 491.56 574.786 488.905 475.613 C 508.317 455.08 528.55 435.336 547.826 414.671 C 550.397 411.915 553.149 409.328 555.918 406.772 z"/>
<path transform="translate(0,0)" fill="rgb(254,254,254)" d="M 573.338 415.471 L 761.786 415.936 C 761.049 470.655 760.831 525.381 761.132 580.104 C 761.112 611.384 759.823 653.579 761.657 683.946 C 723.285 695.159 716.036 729.325 715.939 764.12 C 709.088 764.168 701.92 764.519 695.047 764.748 C 694.431 770.445 694.325 776.992 694.096 782.777 C 653.52 784.295 609.888 782.197 569.055 783.317 C 563.006 783.483 538.691 782.733 535.472 783.657 C 533.529 786.345 534.22 785.948 534.356 790.162 C 537.884 793.607 569.72 791.902 576.433 791.877 C 615.741 792.12 655.164 791.665 694.417 792.212 L 694.365 824.922 L 497.649 825.086 C 496.776 796.839 497.424 765.819 497.535 737.427 L 497.563 621.091 L 497.374 535.5 C 497.325 518.393 496.862 498.882 497.941 482.075 C 519.242 481.955 541.548 482.686 562.737 481.734 C 563.841 467.479 562.513 426.398 564.503 417.077 C 567.205 415.196 569.906 415.571 573.338 415.471 z"/>
<path transform="translate(0,0)" fill="rgb(1,1,1)" d="M 553.839 714.622 C 568.321 711.332 582.72 720.435 585.96 734.929 C 589.201 749.422 580.049 763.79 565.544 766.981 C 551.109 770.156 536.826 761.058 533.601 746.634 C 530.377 732.211 539.426 717.896 553.839 714.622 z"/>
<path transform="translate(0,0)" fill="rgb(254,254,254)" d="M 555.16 723.485 C 564.715 721.008 574.481 726.697 577.038 736.232 C 579.595 745.766 573.987 755.579 564.474 758.215 C 554.849 760.883 544.894 755.194 542.307 745.546 C 539.72 735.899 545.492 725.992 555.16 723.485 z"/>
<path transform="translate(0,0)" fill="rgb(1,1,1)" d="M 538.236 517.554 C 577.755 515.826 620.573 517.773 660.319 517.079 C 667.807 516.948 714.042 516.741 718.835 517.942 C 721.319 521.41 720.549 521.182 720.819 526.109 C 677.202 524.71 630.849 526.889 587.082 526.117 C 578.663 525.968 545.164 526.839 539.007 525.172 C 537.251 521.936 537.937 521.637 538.236 517.554 z"/>
<path transform="translate(0,0)" fill="rgb(1,1,1)" d="M 538.285 620.288 L 656.035 619.935 C 671.522 619.856 704.371 618.736 718.792 620.172 C 720.936 623.072 720.3 624.712 720.559 628.883 L 597.964 628.617 C 582.005 628.582 553.841 629.745 539.467 628.537 C 537.69 625.416 538.304 624.221 538.285 620.288 z"/>
<path transform="translate(0,0)" fill="rgb(1,1,1)" d="M 538.718 586.477 C 580.195 587.481 624.358 585.148 666.015 585.963 C 681.361 586.264 705.202 584.93 719.438 586.542 C 721.724 589.514 721.044 590.36 721.286 594.627 C 704.613 594.841 541.566 595.662 538.731 593.829 C 537.538 591.212 538.218 589.384 538.718 586.477 z"/>
<path transform="translate(0,0)" fill="rgb(1,1,1)" d="M 544.858 654.511 C 584.845 654.336 624.834 654.407 664.82 654.723 C 674.833 654.789 710.417 653.02 717.812 656.106 C 720.039 658.839 719.524 657.471 719.305 661.494 C 717.419 663.721 718.153 663.018 714.25 663.396 C 677.255 663.427 640.091 662.814 603.076 662.92 C 592.766 662.95 547.135 664.554 540.039 663.241 C 538.445 660.404 539.021 659.551 539.064 655.981 C 541.215 653.933 540.876 654.628 544.858 654.511 z"/>
<path transform="translate(0,0)" fill="rgb(1,1,1)" d="M 537.938 552.057 C 580.233 551.747 622.531 551.682 664.827 551.863 C 674.883 551.887 710.907 551.226 719.412 552.497 C 720.971 554.801 720.535 557.935 720.526 560.847 C 712.498 559.591 687.709 560.178 678.668 560.203 L 584.954 560.244 C 574.137 560.224 548.878 560.872 539.274 559.587 C 537.457 557.086 538.042 555.625 537.938 552.057 z"/>
<path transform="translate(0,0)" fill="rgb(1,1,1)" d="M 672.587 482.474 C 678.695 482.357 714.946 481.663 718.749 483.27 C 720.495 486.342 720.544 488.202 718.259 490.869 C 702.337 492.62 663.964 491.269 646.5 491.139 C 636.614 491.091 603.382 493.509 597.378 489.018 C 595.699 485.87 595.795 487.168 596.642 484.174 C 600.124 481.735 661.623 482.684 672.587 482.474 z"/>
<path transform="translate(0,0)" fill="rgb(1,1,1)" d="M 539.083 688.21 C 561.359 688.051 604.021 687.386 628.146 688.504 C 628.693 689.007 629.24 689.51 629.787 690.014 C 630.551 693.262 630.399 693.527 629.838 696.9 C 600.605 697.038 568.694 698.009 539.831 697.494 C 538.282 694.666 538.895 691.586 539.083 688.21 z"/>
<path transform="translate(0,0)" fill="rgb(146,194,100)" d="M 703.09 772.548 C 737.574 771.059 773.605 773.458 808.237 772.682 C 824.428 772.319 842.815 772.419 858.957 773.342 L 858.998 775.056 C 859.218 788.383 858.932 802.621 859.141 815.799 C 859.753 854.412 856.226 878.586 828.187 907.782 C 814.261 921.215 800.017 929.5 782.308 936.847 C 750.914 926.67 723.061 900.877 710.763 870.287 C 707.457 862.15 705.141 853.645 703.864 844.956 C 702.863 837.815 700.847 777.783 703.09 772.548 z"/>
<path transform="translate(0,0)" fill="rgb(1,1,1)" d="M 776.287 797.121 C 784.954 796.69 792.81 798.707 799.375 804.743 C 804.701 809.654 807.831 816.5 808.062 823.742 C 808.387 834.623 803.28 841.789 796.121 849.186 C 795.926 859.24 796.34 870.544 796.491 880.69 C 793.236 881.359 790.524 881.63 787.25 881.981 C 779.68 882.349 772.038 883.781 765.809 879.702 C 761.907 874.878 764.197 857.829 764.387 850.055 C 745.198 832.081 751.331 806.081 776.287 797.121 z"/>
<path transform="translate(0,0)" fill="rgb(146,194,100)" d="M 778.232 806.03 C 788.137 806.207 798.537 812.332 798.602 823.464 C 798.663 833.993 793.983 838.377 787.234 845.463 C 787.478 855.023 787.26 863.075 786.784 872.591 L 772.958 871.773 C 772.704 862.075 773.036 853.597 773.453 843.891 C 757.022 831.92 759.2 814.224 778.232 806.03 z"/>
<path transform="translate(0,0)" fill="rgb(254,254,254)" d="M 770.325 460.346 L 795.182 460.522 C 794.263 534.252 795.5 608.724 794.973 682.615 C 785.867 681.737 779.212 681.849 770.049 681.978 C 769.535 632.949 769.516 583.917 769.991 534.888 C 770.114 510.34 769.535 484.791 770.325 460.346 z"/>
<path transform="translate(0,0)" fill="rgb(254,254,254)" d="M 813.063 501.436 C 817.987 501.133 823.587 501.535 828.572 501.767 L 828.565 647.666 C 828.54 655.882 829.131 696.411 828.256 701.544 L 826.794 701.72 L 824.372 699.24 C 817.027 692.177 812.509 689.034 803.378 684.56 C 803.159 645.01 803.234 605.458 803.603 565.908 C 803.622 551.68 802.753 514.717 804.342 502.848 C 806.314 501.377 810.385 501.574 813.063 501.436 z"/>
<path transform="translate(0,0)" fill="rgb(254,254,254)" d="M 531.459 833.335 C 585.906 832.961 640.356 833.174 694.799 833.976 C 694.886 842.239 696.082 852.102 696.894 860.464 C 677.115 859.112 649.883 860.186 629.451 860.325 L 531.776 860.566 C 531.262 851.505 531.423 842.413 531.459 833.335 z"/>
<path transform="translate(0,0)" fill="rgb(254,254,254)" d="M 564.615 869.005 C 609.838 868.435 654.82 869.195 699.944 868.748 C 703.37 877.046 708.483 886.749 712.705 894.768 C 667.39 893.119 610.909 894.888 564.757 895.085 L 564.615 869.005 z"/>
<path transform="translate(0,0)" fill="rgb(254,254,254)" d="M 771.878 691.17 C 776.65 690.937 783.287 690.524 787.928 690.868 C 801.125 691.724 813.364 698.053 821.69 708.328 C 835.427 724.951 835.992 743.79 834.022 764.129 L 820.251 764.048 C 819.691 739.169 815.796 713.533 787.87 706.38 C 787.216 706.339 786.561 706.306 785.906 706.28 C 747.186 704.847 740.118 731.968 739.341 764.098 L 724.194 763.585 C 723.541 726.405 732.275 700.166 771.878 691.17 z"/>
<path transform="translate(0,0)" fill="rgb(254,254,254)" d="M 553.856 420.916 C 556.076 423.497 554.463 466.955 554.261 473.522 C 537.515 473.413 520.787 473.149 504.055 473.864 L 502.524 473.034 C 503.17 470.407 548.279 426.198 553.856 420.916 z"/>
<path transform="translate(0,0)" fill="rgb(254,254,254)" d="M 771.568 716.079 C 774.318 715.849 777.076 715.734 779.836 715.732 C 784.23 715.698 789.662 715.317 792.919 718.537 C 795.593 725.941 794.164 755.058 793.976 764.439 L 771.254 764.032 C 770.978 748.685 770.8 731.279 771.568 716.079 z"/>
<path transform="translate(0,0)" fill="rgb(254,254,254)" d="M 759.511 722.583 L 760.619 723.392 C 762.358 727.141 761.818 758.315 760.832 763.295 C 758.148 764.893 754.27 764.283 750.917 764.174 L 749.81 763.77 C 741.965 754.576 752.141 731.009 759.511 722.583 z"/>
<path transform="translate(0,0)" fill="rgb(254,254,254)" d="M 804.141 728.47 L 806.153 729.628 C 811.713 739.405 810.681 752.884 810.514 764.004 C 808.394 764.476 808.405 764.307 806.249 763.797 C 803.5 759.079 804.248 735.491 804.141 728.47 z"/>
</svg>