<svg version="1.1" xmlns="http://www.w3.org/2000/svg" style="display: block;" viewBox="0 0 1341 2048" width="486" height="742" preserveAspectRatio="none">
<defs>
	<linearGradient id="Gradient1" gradientUnits="userSpaceOnUse" x1="975.089" y1="499.811" x2="976.368" y2="551.72">
		<stop class="stop0" offset="0" stop-opacity="1" stop-color="rgb(10,10,9)"/>
		<stop class="stop1" offset="1" stop-opacity="1" stop-color="rgb(34,40,31)"/>
	</linearGradient>
	<linearGradient id="Gradient2" gradientUnits="userSpaceOnUse" x1="636.374" y1="508.707" x2="621.789" y2="417.31">
		<stop class="stop0" offset="0" stop-opacity="1" stop-color="rgb(39,42,39)"/>
		<stop class="stop1" offset="1" stop-opacity="1" stop-color="rgb(57,49,55)"/>
	</linearGradient>
	<linearGradient id="Gradient3" gradientUnits="userSpaceOnUse" x1="602.688" y1="506.42" x2="545.483" y2="583.561">
		<stop class="stop0" offset="0" stop-opacity="1" stop-color="rgb(0,0,0)"/>
		<stop class="stop1" offset="1" stop-opacity="1" stop-color="rgb(41,40,41)"/>
	</linearGradient>
</defs>
<path transform="translate(0,0)" fill="rgb(254,254,253)" d="M 292.649 84.4776 C 314.113 83.6812 339.416 84.5204 361.161 84.6056 L 482.222 84.7407 L 881.605 84.3648 L 1051.24 84.837 L 1110.08 84.8978 C 1152.99 85.0404 1182.22 86.078 1214.5 118.253 C 1234.98 138.792 1248.1 165.527 1251.8 194.295 C 1253.61 208.952 1252.81 237.702 1252.81 253.465 L 1252.88 357.534 L 1253.16 697.28 L 1254.03 1837.21 C 1254.06 1844.43 1254.57 1852.24 1253.61 1859.39 C 1250.56 1882.03 1236.26 1905.02 1220.29 1921.03 C 1207.85 1933.5 1190.94 1946.1 1174.22 1951.74 C 1145.45 1961.45 1066.39 1957.95 1031.83 1957.95 L 431.376 1958.01 L 268.332 1957.71 C 237.777 1957.75 200.446 1959.03 170.503 1955.75 C 146.675 1951.97 125.867 1939.98 108.706 1924.11 C 65.9391 1884.55 72.0364 1836.04 72.024 1782.41 L 72.0299 1659.92 L 72.0238 1350.52 C 72.2655 1287.13 72.136 1223.74 71.6356 1160.36 C 70.815 1100.82 72.0149 1041.61 71.9542 982.216 L 71.9772 501.685 L 71.6465 285.073 C 71.8025 227.066 62.0835 164.224 106.85 119.329 C 142.97 83.104 176.256 84.8164 223.61 84.766 C 246.624 84.8189 269.637 84.7227 292.649 84.4776 z M 538.628 640.058 C 537.478 636.994 536.377 634.954 533.693 633.262 C 529.126 638.05 526.954 640.061 526.833 647.019 L 527.871 649.063 C 534.015 649.438 535.219 644.629 538.628 640.058 z"/>
<path transform="translate(0,0)" fill="rgb(121,96,170)" d="M 807.837 1899.24 L 381.151 1899.29 L 265.304 1899.44 C 248.911 1899.45 220.946 1901.43 205.709 1898.25 C 151.836 1887.03 130.456 1840.76 130.326 1792.61 C 129.989 1667.93 130.508 1544.2 130.6 1420 L 130.85 740.153 L 130.926 389.128 L 130.881 286.844 C 130.803 267.587 129.998 245.955 131.309 227.09 C 132.534 209.469 143.759 185.716 156.451 173.43 C 177.409 153.145 199.539 146.724 227.793 146.565 C 291.107 146.207 354.315 146.222 417.571 146.124 L 827.371 145.98 L 1017.58 145.9 L 1072.88 145.893 C 1085.2 145.902 1100.19 145.508 1112.25 147.111 C 1131.57 149.535 1149.54 158.304 1163.34 172.042 C 1197.46 205.744 1192.74 239.869 1192.68 283.584 L 1192.71 373.777 L 1192.75 696.459 L 1192.14 1776.78 C 1196.39 1782.7 1195.21 1805.66 1193.93 1813.34 C 1192.8 1820.09 1190.42 1825.13 1189.47 1831.2 C 1189.12 1833.04 1187.32 1842.41 1186.57 1843.6 C 1178.98 1855.83 1165.83 1883.3 1154.76 1890.53 C 1146.1 1896.19 1121.85 1897.94 1112.07 1898.29 C 1075.05 1899.63 1037.24 1899.09 1000.24 1899.08 L 807.837 1899.24 z M 538.628 640.058 C 537.478 636.994 536.377 634.954 533.693 633.262 C 529.126 638.05 526.954 640.061 526.833 647.019 L 527.871 649.063 C 534.015 649.438 535.219 644.629 538.628 640.058 z"/>
<path transform="translate(0,0)" fill="rgb(254,254,253)" d="M 1069.93 1840.46 C 1061.14 1839.9 1036.43 1840.82 1026.22 1840.83 L 925.776 1840.86 L 715.611 1840.88 C 680.506 1840.89 645.307 1840.91 610.204 1840.93 C 601.891 1841.22 593.8 1843.84 585.455 1843.84 C 500.423 1843.86 415.375 1844.17 330.346 1843.75 C 320.413 1843.37 310.951 1841.83 300.996 1841.26 C 279.581 1840.04 256.017 1843.17 235.612 1835.36 C 226.592 1831.9 216.64 1824.96 209.9 1818.55 C 193.647 1803.07 185.758 1781.04 185.887 1758.85 C 185.688 1712.31 185.813 1665.75 185.858 1619.21 L 185.844 1372.13 L 185.685 1247.59 C 185.645 1226.39 184.885 1201.99 186.8 1181.18 C 188.049 1167.59 198.365 1147.92 208.174 1138.2 C 227.347 1119.21 245.955 1115.28 271.581 1115.05 L 811.167 1115.08 L 981.099 1115 C 990.204 1114.98 999.72 1114.62 1008.78 1114.95 C 1045.19 1116.29 1082.9 1107.79 1111.5 1136.35 C 1121.94 1146.64 1129.11 1159.8 1132.08 1174.17 C 1134.67 1187.12 1134.11 1206.51 1134.1 1220.18 L 1134.1 1278.12 L 1134.05 1493.86 L 1134.2 1674.83 C 1134.27 1708.34 1136.21 1752.96 1131.31 1785.82 C 1130.01 1794.59 1114.34 1815.3 1107.45 1822.12 C 1097.25 1832.12 1084.09 1838.55 1069.93 1840.46 z"/>
<path transform="translate(0,0)" fill="rgb(254,204,1)" d="M 408.302 1632.51 L 478.935 1632.33 C 497.407 1632.29 541.064 1626.47 541.783 1653.07 C 542.879 1693.64 543.468 1736.41 541.396 1777.02 C 540.726 1790.14 529.497 1794.86 518.098 1796.01 L 446.394 1796.18 C 432.476 1796.2 418.629 1796.55 404.698 1795.74 C 390.033 1795.15 380.248 1787.65 380.118 1772.08 C 379.791 1733.09 378.732 1693.12 380.595 1654.2 C 381.4 1637.36 393.696 1633.22 408.302 1632.51 z"/>
<path transform="translate(0,0)" fill="rgb(254,254,253)" d="M 447.595 1661.19 C 449.998 1661.48 449.938 1661.4 452.202 1662.61 C 455.298 1668.53 450.223 1670.08 456.23 1674.36 C 462.79 1672.61 461.627 1664.62 466.034 1660.93 C 468.731 1663.35 468.378 1669.71 468.481 1673.19 C 494.66 1681.21 495.595 1694.27 477.255 1712.26 L 477.533 1713.14 C 486.259 1715.85 486.466 1716.3 491.845 1723.85 C 493.942 1739.77 492.41 1745.81 478.082 1753.66 C 462.309 1755.14 471.208 1761.95 466.097 1767.61 L 463.938 1767.52 C 461.762 1764.47 462.132 1760.79 461.227 1756.33 C 458.792 1754.57 459.756 1755.07 455.907 1755.48 C 452.642 1758.5 453.167 1761.58 452.929 1766.37 L 451.504 1767.65 L 448.434 1767.04 C 445.97 1763.78 446.729 1762.61 446.451 1757.87 C 443.725 1753.61 435.868 1755.14 435.687 1751.83 C 434.349 1727.35 433.645 1700.81 436.175 1676.45 C 436.438 1673.91 440.624 1675.57 443.88 1674.05 C 447.507 1669.59 446.934 1667.16 447.595 1661.19 z"/>
<path transform="translate(0,0)" fill="rgb(254,204,1)" d="M 446.565 1718.06 C 456.922 1717.95 469.889 1717.05 478.539 1723.71 C 485.143 1728.8 481.047 1737.46 476.559 1742.38 C 466.791 1746.86 457.336 1745.8 446.412 1745.89 C 446.599 1736.73 446.52 1727.25 446.565 1718.06 z"/>
<path transform="translate(0,0)" fill="rgb(254,204,1)" d="M 446.561 1682.91 C 459.429 1683 489.785 1683.52 473.103 1705.18 C 464.85 1709.21 455.743 1708.25 446.419 1708.31 L 446.561 1682.91 z"/>
<path transform="translate(0,0)" fill="rgb(6,5,6)" d="M 921.393 1646.36 C 979.309 1640.71 979.017 1702.84 957.763 1740.41 C 949.318 1755.34 937.027 1764.52 920.401 1768.66 C 849.179 1778.89 859.493 1663.48 921.393 1646.36 z"/>
<path transform="translate(0,0)" fill="rgb(254,254,253)" d="M 924.409 1671.84 C 951.6 1673.07 942.766 1732.82 917.679 1743.17 C 889.858 1741.41 899.62 1682.58 924.409 1671.84 z"/>
<path transform="translate(0,0)" fill="rgb(6,5,6)" d="M 820.521 1646.32 C 877.437 1641.59 877.721 1700.24 857.662 1738.63 C 849.564 1754.12 836.588 1764.14 819.684 1768.59 C 747.589 1779.18 758.691 1662.83 820.521 1646.32 z"/>
<path transform="translate(0,0)" fill="rgb(254,254,253)" d="M 823.504 1671.88 C 850.864 1673.95 841.224 1732.69 816.606 1743.14 C 789.161 1742.74 798.3 1681 823.504 1671.88 z"/>
<path transform="translate(0,0)" fill="rgb(6,5,6)" d="M 718.632 1646.27 C 743.071 1644.03 767.859 1653.19 766.54 1682.35 C 765.348 1708.72 739.919 1723.94 721.483 1739.79 C 733.116 1739.45 746.607 1739.85 758.384 1739.9 C 757.381 1748.66 756.083 1756.32 754.535 1765.01 L 668.75 1765 L 665.009 1764.86 L 664.103 1763.79 C 684.971 1740.23 719.752 1719.29 733.709 1691.04 C 741.769 1674.72 715.066 1656.18 708.846 1689.92 L 676.288 1689.86 C 682.197 1665.51 694.013 1652.04 718.632 1646.27 z"/>
<path transform="translate(0,0)" fill="rgb(6,5,6)" d="M 741.882 1342.24 C 760.904 1342.09 797.285 1337.91 798.914 1365.02 C 799.586 1376.2 796.396 1380.86 789.187 1388.93 C 803.782 1397.56 805.177 1412.16 798.594 1426.86 C 784.278 1444.27 762.958 1440.3 742.094 1440.18 C 742.231 1407.96 740.885 1374.22 741.882 1342.24 z"/>
<path transform="translate(0,0)" fill="rgb(254,254,253)" d="M 762 1398.75 C 778.507 1398.14 785.322 1401.27 778.475 1418.68 C 773.864 1421.54 767.299 1421.2 762.001 1421.25 C 761.717 1413.69 761.885 1406.31 762 1398.75 z"/>
<path transform="translate(0,0)" fill="rgb(254,254,253)" d="M 761.781 1361.13 C 768.322 1361.03 772.217 1360.12 776.93 1364.54 C 779.75 1369.79 778.213 1373.38 776.768 1379.07 C 771.347 1380.71 767.616 1380.65 761.945 1380.92 C 761.736 1374.44 761.812 1367.64 761.781 1361.13 z"/>
<path transform="translate(0,0)" fill="rgb(6,5,6)" d="M 407.351 1200.22 C 437.911 1198.91 474.349 1197.19 467.644 1240.96 C 466.281 1249.86 461.155 1254.16 454.156 1259.19 C 459.552 1271.86 465.814 1285.01 471.559 1297.59 C 463.91 1298.11 456.344 1297.95 448.681 1297.91 C 443.941 1290.64 440.595 1269.99 432.159 1263.76 L 430.372 1264.09 C 427.553 1269.54 428.383 1290.53 428.383 1297.92 C 421.465 1297.95 414.14 1297.47 407.198 1297.14 C 406.891 1265.58 406.172 1231.54 407.351 1200.22 z"/>
<path transform="translate(0,0)" fill="rgb(254,254,253)" d="M 429.078 1219.42 C 446.176 1219.89 451.941 1224.98 444.617 1241.83 C 438.805 1244.52 435.316 1244.76 428.999 1245.33 C 428.727 1236.72 428.954 1228.03 429.078 1219.42 z"/>
<path transform="translate(0,0)" fill="rgb(6,5,6)" d="M 824.743 1200.08 C 841.218 1199.88 870.021 1197.04 879.478 1211.83 C 889.845 1228.05 887.046 1247.78 871.912 1259.18 C 876.579 1271.9 882.387 1284.01 887.039 1297.09 C 879.257 1298.02 873.673 1297.9 865.874 1297.83 C 861.579 1289.35 855.708 1268.84 849.314 1263.82 L 847.589 1264.47 C 844.244 1270.84 844.976 1289.48 844.93 1297.66 C 839.001 1297.96 831.542 1297.56 825.5 1297.41 C 823.801 1274.41 823.633 1223.17 824.743 1200.08 z"/>
<path transform="translate(0,0)" fill="rgb(254,254,253)" d="M 845.9 1219.91 C 850.573 1219.79 854.963 1219.32 859.251 1221.69 C 867.529 1226.26 865.665 1236.03 860.501 1242.47 C 854.831 1244.93 852.093 1245.01 845.872 1245.72 C 845.488 1236.19 845.419 1229.42 845.9 1219.91 z"/>
<path transform="translate(0,0)" fill="rgb(6,5,6)" d="M 596.97 1342.43 C 608.369 1341.83 621.384 1341.6 632.635 1342.99 C 661.323 1346.53 665.084 1386.59 642.514 1400.95 C 648.195 1413.19 655.329 1427.59 659.649 1440.16 C 652.202 1440.3 645.349 1440.16 637.918 1439.95 C 634.03 1432.16 626.743 1411.76 621.582 1406.62 L 619.936 1406.7 C 616.668 1412.42 617.279 1432.58 617.18 1440.24 C 610.463 1440.4 603.253 1440.17 596.498 1440.09 C 597.422 1408.19 596.355 1374.68 596.97 1342.43 z"/>
<path transform="translate(0,0)" fill="rgb(254,254,253)" d="M 617.958 1360.65 C 637.356 1360.54 637.741 1368.14 634.205 1384.7 C 627.49 1386.66 625.08 1386.82 618.015 1387.35 C 617.642 1377.99 617.721 1370.03 617.958 1360.65 z"/>
<path transform="translate(0,0)" fill="rgb(6,5,6)" d="M 456.656 1342.08 L 475.471 1342.18 C 484.422 1358.76 492.887 1378.84 499.14 1396.69 C 499.438 1378.85 499.098 1360.28 499.185 1342.32 C 505.764 1342.36 512.342 1342.44 518.92 1342.56 L 519.006 1404.08 C 519.002 1413.64 519.487 1429.93 518.534 1439.05 L 517.06 1440.2 C 511.474 1440.69 505.73 1440.54 500.111 1440.51 C 493.377 1425.23 482.621 1399.23 474.83 1385.47 C 476.623 1402.83 476.103 1422.55 475.95 1440.13 C 469.509 1440.25 462.694 1440.1 456.221 1440.06 C 455.415 1418.27 456.557 1395.86 456.073 1373.99 C 455.845 1363.71 455.808 1352.3 456.656 1342.08 z"/>
<path transform="translate(0,0)" fill="rgb(6,5,6)" d="M 702.245 1485.37 C 708.886 1485.07 715.249 1485.37 721.877 1485.59 C 729.314 1503.52 738.043 1521.89 745.733 1540.04 C 745.812 1522.94 745.448 1502.77 746.751 1485.96 C 752.736 1485.84 759.055 1486.09 765.065 1486.22 C 765.285 1507.45 765.393 1528.68 765.388 1549.91 C 765.412 1559.63 765.998 1572.22 764.673 1581.68 C 764.521 1582.77 764.006 1582.65 762.562 1583.53 C 757.299 1583.93 751.596 1583.82 746.285 1583.82 C 738.177 1566.13 730.333 1546.76 721.994 1529.55 C 721.841 1547.56 721.816 1565.57 721.92 1583.58 C 714.813 1583.86 710.057 1583.65 703.056 1583.23 C 701.589 1560.02 702.724 1535.83 701.944 1512.53 C 701.648 1503.7 701.693 1494.16 702.245 1485.37 z"/>
<path transform="translate(0,0)" fill="rgb(6,5,6)" d="M 688.674 1342.11 C 695.328 1341.99 702.294 1342.47 708.965 1342.81 C 710.065 1347.66 711.538 1352.71 712.926 1357.49 C 720.832 1384.7 726.689 1413.09 735.344 1440.03 C 727.192 1440.36 720.713 1440.39 712.557 1440.13 C 711.561 1435.3 710.622 1424.87 707.99 1421.67 C 700.612 1421.49 693.418 1421.8 686.049 1422.06 C 684.959 1428.41 683.546 1434.63 682.165 1440.92 C 674.889 1440.74 667.611 1440.67 660.334 1440.72 C 669.195 1411.66 678.414 1367.39 688.674 1342.11 z"/>
<path transform="translate(0,0)" fill="rgb(254,254,253)" d="M 698.209 1373.66 C 700.752 1376.39 705.574 1400.19 703.361 1403.95 L 700.146 1404.46 C 696.49 1404.41 694.827 1404.53 691.231 1403.59 C 690.238 1397.9 696.203 1380.35 698.209 1373.66 z"/>
<path transform="translate(0,0)" fill="rgb(6,5,6)" d="M 648.732 1485.48 C 655.233 1485.34 662.98 1485.79 669.57 1486 C 677.742 1518.67 687.028 1550.52 695.015 1583.33 C 688.142 1583.9 680.786 1583.78 673.855 1583.81 C 672.981 1579.37 671.468 1568.67 669.081 1565.6 L 646.314 1565.96 C 645.207 1572.36 644.038 1577.49 642.502 1583.75 C 636.211 1583.97 628.564 1583.64 622.17 1583.54 C 622.82 1576.56 646.025 1490.92 648.732 1485.48 z"/>
<path transform="translate(0,0)" fill="rgb(254,254,253)" d="M 659.309 1516.7 C 660.897 1526.57 663.666 1536 664.883 1546.01 C 662.85 1547.76 660.084 1547.45 656.915 1547.8 C 653.695 1547.59 654.508 1548.08 652.154 1546.45 C 650.768 1539.11 656.476 1523.85 659.309 1516.7 z"/>
<path transform="translate(0,0)" fill="rgb(6,5,6)" d="M 771.908 1200.23 C 778.985 1200.08 785.16 1199.85 792.251 1200.5 C 801.868 1232.52 810.122 1264.93 816.991 1297.65 C 810.201 1297.74 802.811 1297.99 796.071 1297.75 L 792.444 1280.09 C 785.079 1280.06 777.184 1279.89 769.862 1280.04 C 768.837 1285.15 767.162 1292.34 766.517 1297.34 C 759.895 1297.59 752.212 1297.71 745.684 1298.16 L 743.984 1298.23 C 743.932 1294.3 743.64 1290.4 745.27 1286.93 L 748.526 1286.06 C 753.249 1265.75 765.182 1219.57 771.908 1200.23 z"/>
<path transform="translate(0,0)" fill="rgb(239,240,240)" d="M 745.27 1286.93 L 748.526 1286.06 L 745.684 1298.16 L 743.984 1298.23 C 743.932 1294.3 743.64 1290.4 745.27 1286.93 z"/>
<path transform="translate(0,0)" fill="rgb(254,254,253)" d="M 781.668 1231.78 L 782.365 1232.47 C 783.554 1236.9 788.634 1259.13 787.704 1262.27 L 785.25 1262.76 C 781.37 1262.81 779.809 1262.82 775.884 1262.25 C 773.789 1257.38 779.84 1237.57 781.668 1231.78 z"/>
<path transform="translate(0,0)" fill="rgb(6,5,6)" d="M 618.501 1200.48 C 624.838 1200.06 630.18 1200.4 636.484 1200.7 C 637.491 1214.25 634.055 1267.62 640.011 1275.55 C 641.875 1278.02 644.672 1279.7 647.807 1279.89 C 650.002 1280.02 651.898 1279.19 653.494 1277.72 C 662.844 1269.08 658.673 1215.14 659.659 1200.48 C 666.063 1200.16 672.435 1200.39 678.843 1200.53 L 679.331 1222.32 C 679.302 1239.32 679.636 1254.9 678.413 1272.61 C 676.613 1298.69 647.064 1306.62 628.286 1293.07 C 612.914 1281.97 617.642 1251.83 617.045 1235.23 C 616.842 1229.59 615.975 1203.49 618.501 1200.48 z"/>
<path transform="translate(0,0)" fill="rgb(6,5,6)" d="M 319.861 1341.36 L 339.531 1341.35 C 340.118 1356.65 336.836 1406.78 343.685 1417.08 C 345.17 1419.31 347.309 1421.17 350.058 1421.5 C 353.052 1421.86 356.467 1420.67 358.657 1418.61 C 364.58 1413.04 362.147 1353.98 363.085 1341.99 C 369.206 1341.81 375.871 1342.18 382.032 1342.39 L 382.013 1362.28 C 382.242 1380.87 386.152 1419.28 372.533 1433.02 C 356.554 1449.14 324.578 1441.76 321.349 1416.88 C 318.177 1392.44 319.641 1366.16 319.861 1341.36 z"/>
<path transform="translate(0,0)" fill="rgb(6,5,6)" d="M 575.893 1199.3 C 583.877 1199.2 594.609 1204.29 600.44 1209.65 C 607.253 1215.9 595.555 1223.75 590.944 1227.78 C 559.589 1193.88 545.136 1280.55 578.277 1280.97 C 588.616 1281.1 586.46 1269.07 586.39 1261.52 L 573.275 1261.91 C 572.997 1256.51 573.203 1250.35 573.258 1244.89 L 599.073 1244.06 C 601.99 1243.92 601.944 1243.9 604.767 1244.6 C 606.04 1250.26 606.099 1283.25 604.336 1288.86 C 599.883 1294.42 592.632 1297.53 585.879 1298.83 C 538.694 1307.9 528.365 1245.65 548.787 1215.34 C 555.368 1205.57 564.93 1201.18 575.893 1199.3 z"/>
<path transform="translate(0,0)" fill="rgb(6,5,6)" d="M 292.353 1341.5 L 313.158 1341.94 C 305.208 1374.78 296.645 1407.48 287.474 1440 C 280.667 1440.27 273.184 1440.05 266.324 1439.99 C 258.829 1407.8 249.775 1374.19 241.709 1341.93 C 248.89 1341.71 256.352 1341.94 263.556 1342.05 C 267.093 1357.51 270.955 1374.88 273.434 1390.45 C 275.92 1390.94 278.338 1391.37 280.785 1392.05 C 284.106 1375.84 288.045 1357.33 292.353 1341.5 z"/>
<path transform="translate(0,0)" fill="rgb(239,240,240)" d="M 273.434 1390.45 C 275.92 1390.94 278.338 1391.37 280.785 1392.05 C 279.53 1397.12 278.384 1405.19 277.448 1410.54 L 273.434 1390.45 z"/>
<path transform="translate(0,0)" fill="rgb(6,5,6)" d="M 534.06 1342.04 L 585.051 1341.75 C 585.01 1348.02 584.718 1354.61 584.542 1360.91 C 575.014 1361.45 564.077 1361.38 554.436 1361.53 L 554.777 1380.03 C 563.253 1380.06 571.993 1380.35 580.488 1380.54 L 580.013 1398.87 L 554.884 1399.09 L 554.66 1416.25 L 555.038 1419.41 C 558.445 1422.31 578.978 1421.21 584.995 1421.24 L 585.105 1440.25 L 533.804 1440.54 L 534.06 1342.04 z"/>
<path transform="translate(0,0)" fill="rgb(6,5,6)" d="M 480.876 1200.99 C 497.552 1200.79 514.229 1200.78 530.905 1200.95 C 531.418 1206.94 531.647 1213 531.932 1219.01 C 522.111 1219.84 511.308 1219.89 501.378 1220.13 L 501.262 1238.08 L 525.759 1238.03 L 525.606 1257.05 L 501.09 1257.27 L 501.123 1275.25 L 501.375 1277.39 C 504.979 1280.1 524.304 1279.48 530.886 1279.76 C 531.231 1285.68 531.035 1292.67 531.019 1298.67 C 514.103 1298.77 497.187 1298.57 480.279 1298.06 C 479.969 1269.61 479.138 1228.3 480.876 1200.99 z"/>
<path transform="translate(0,0)" fill="rgb(6,5,6)" d="M 518.172 1485.15 L 518.838 1485.09 C 534.308 1483.76 540.59 1486.62 552.472 1496.6 C 548.747 1502.64 545.032 1506.33 540.019 1511.23 C 534.305 1506.85 519.084 1500.95 516.873 1511.05 C 519.686 1521.38 531.699 1525.99 540.658 1531.55 C 557.957 1542.31 556.385 1559.09 546.427 1574.77 C 541.906 1581.89 533.371 1584.43 525.037 1585.69 C 512.084 1586.43 486.203 1579.31 501.441 1559.78 C 506.985 1552.67 513.551 1565.83 525.492 1565.68 C 528.378 1564.52 530.222 1562.44 531.276 1559.53 C 534.961 1543.08 501.568 1540.26 498.022 1524.41 C 493.614 1504.69 499.802 1491.55 518.172 1485.15 z"/>
<path transform="translate(0,0)" fill="rgb(6,5,6)" d="M 799.026 1485.28 L 799.696 1485.25 C 814.623 1484.66 821.453 1486.73 832.442 1496.85 C 828.246 1503.48 826.429 1505.48 820.912 1511.2 C 815.184 1507.53 800.031 1501.14 796.52 1509.89 C 799.007 1521.51 811.505 1524.37 819.888 1530.76 C 844.232 1549.31 833.326 1581.9 803.871 1585.87 C 790.037 1584.46 783.808 1582 774.531 1571.8 C 777.289 1566.49 781.59 1559.95 784.804 1554.75 C 790.131 1559.97 796.8 1566.29 805.104 1564.48 C 807.486 1563.99 809.543 1562.5 810.753 1560.39 C 818.153 1547.67 790.804 1540.72 784.112 1532.98 C 769.248 1515.8 776.093 1491.65 799.026 1485.28 z"/>
<path transform="translate(0,0)" fill="rgb(6,5,6)" d="M 590.297 1485.28 C 607.283 1484.1 611.489 1487.29 624.484 1498.35 C 619.757 1502.86 615.478 1507.73 611.102 1512.58 C 607.356 1509.18 602.016 1505.22 596.933 1505.52 C 575.174 1506.81 576.713 1553.59 590.338 1563.48 C 598.411 1569.34 603.689 1560.11 611.28 1558.21 C 612.94 1557.8 616.223 1560.95 617.607 1562.03 C 620.577 1567.07 622.423 1568.8 621.09 1574.06 C 601.892 1597.62 568.877 1583.41 562.209 1556.76 C 555.478 1529.87 559.586 1494.21 590.297 1485.28 z"/>
<path transform="translate(0,0)" fill="rgb(6,5,6)" d="M 997.066 1341.84 L 1018.18 1342.13 C 1023.03 1354.73 1027.63 1367.42 1031.99 1380.19 C 1036.83 1367.48 1041.52 1354.72 1046.06 1341.91 C 1053.69 1341.78 1060.49 1342.18 1068.09 1342.61 C 1061.68 1357.26 1055.4 1371.96 1049.25 1386.72 C 1040.85 1408.47 1042.77 1417.5 1042.98 1440.61 C 1036.6 1440.89 1029.44 1440.68 1022.99 1440.64 C 1023.09 1423.6 1024.38 1407.89 1017.9 1391.68 C 1011.27 1375.11 1003.04 1358.59 997.066 1341.84 z"/>
<path transform="translate(0,0)" fill="rgb(6,5,6)" d="M 963.649 1341.48 C 974.144 1341.34 984.641 1341.36 995.136 1341.55 C 995.597 1347.57 995.822 1353.89 996.134 1359.94 L 976.478 1361.03 C 975.887 1373.11 977.076 1432.87 975.272 1439.17 L 973.202 1440.06 L 956.234 1440.06 C 955.308 1415.73 956.036 1386.03 955.909 1361.08 L 936.924 1359.7 C 936.738 1353.88 936.854 1347.61 936.85 1341.76 L 963.649 1341.48 z"/>
<path transform="translate(0,0)" fill="rgb(6,5,6)" d="M 695.073 1200.03 L 714.787 1200.36 C 715.859 1225.38 715.24 1253.81 715.234 1279 C 725.839 1279.03 732.985 1277.77 743.124 1280.69 C 745.679 1283.17 744.869 1282.34 745.27 1286.93 C 743.64 1290.4 743.932 1294.3 743.984 1298.23 C 732.58 1297.21 707.178 1297.91 694.77 1297.9 C 694.333 1266.75 693.874 1230.94 695.073 1200.03 z"/>
<path transform="translate(0,0)" fill="rgb(6,5,6)" d="M 397.274 1342 L 416.963 1342.11 C 417.256 1368.39 417.328 1394.66 417.179 1420.94 L 445.926 1421.36 L 446.236 1440.2 C 430.84 1440.64 413.024 1440.13 397.452 1440.03 C 396.186 1409.76 397.138 1372.63 397.274 1342 z"/>
<path transform="translate(0,0)" fill="rgb(6,5,6)" d="M 848.261 1342.07 L 868.045 1342.14 C 868.739 1367.7 868.315 1395.24 868.4 1420.96 L 897.606 1421.4 L 897.672 1440.39 C 881.551 1440.62 865.199 1440.52 849.059 1440.54 C 847.602 1410.66 848.284 1372.47 848.261 1342.07 z"/>
<path transform="translate(0,0)" fill="rgb(6,5,6)" d="M 813.536 1342.02 L 832.747 1342.13 C 833.466 1370.11 834.338 1412.92 832.968 1440.35 C 826.623 1440.7 819.715 1440.34 813.32 1440.15 C 812.307 1411.61 812.616 1370.68 813.536 1342.02 z"/>
<path transform="translate(0,0)" fill="rgb(6,5,6)" d="M 907.651 1341.77 L 927.288 1342.06 C 927.106 1363.42 927.072 1384.78 927.187 1406.14 C 927.197 1415.69 927.666 1430.84 926.87 1440.01 C 919.279 1440.67 915.357 1440.5 907.888 1440.09 C 906.648 1429.72 907.138 1411.47 907.148 1400.63 C 907.165 1381.31 906.976 1361.03 907.651 1341.77 z"/>
<path transform="translate(0,0)" fill="rgb(127,93,197)" d="M 1134.05 1493.86 C 1140.7 1492.2 1181.4 1493.16 1190.59 1493.27 L 1190.48 1679.97 L 1190.4 1743.97 C 1190.39 1749.23 1189.49 1775.12 1191.59 1778.03 L 1192.14 1776.78 C 1196.39 1782.7 1195.21 1805.66 1193.93 1813.34 C 1192.8 1820.09 1190.42 1825.13 1189.47 1831.2 C 1189.12 1833.04 1187.32 1842.41 1186.57 1843.6 C 1178.98 1855.83 1165.83 1883.3 1154.76 1890.53 C 1146.1 1896.19 1121.85 1897.94 1112.07 1898.29 C 1075.05 1899.63 1037.24 1899.09 1000.24 1899.08 L 807.837 1899.24 C 804.327 1893.53 805.969 1852.74 805.718 1842.67 L 980.463 1842.45 C 1002.47 1842.45 1048.38 1843.79 1068.99 1841.7 L 1069.93 1840.46 C 1084.09 1838.55 1097.25 1832.12 1107.45 1822.12 C 1114.34 1815.3 1130.01 1794.59 1131.31 1785.82 C 1136.21 1752.96 1134.27 1708.34 1134.2 1674.83 L 1134.05 1493.86 z"/>
<path transform="translate(0,0)" fill="rgb(239,240,240)" d="M 1192.14 1776.78 C 1196.39 1782.7 1195.21 1805.66 1193.93 1813.34 C 1192.8 1820.09 1190.42 1825.13 1189.47 1831.2 C 1188.59 1823.23 1191.09 1787.45 1191.59 1778.03 L 1192.14 1776.78 z"/>
<path transform="translate(0,0)" fill="rgb(6,5,6)" d="M 337.146 847.313 C 336.087 809.609 337.69 772.197 337.807 734.618 L 337.466 571.001 C 337.617 545.853 337.503 520.703 337.123 495.557 C 336.942 479.332 336.122 462.186 337.673 446.107 C 339.827 423.764 354.611 412.564 375.972 412.004 C 424.975 410.718 473.766 411.008 522.714 410.956 C 597.378 410.132 672.05 410.132 746.714 410.954 L 878.576 411.085 C 901.771 411.164 924.902 410.953 948.061 412.223 C 971.405 413.504 981.879 429.702 982.258 451.742 C 996.997 454.05 1014.52 459.158 1025.17 470.147 C 1038.1 479.771 1046.76 496.109 1049.18 511.922 C 1052.32 531.45 1047.43 551.418 1035.63 567.289 C 1024.14 582.445 1001.13 595.825 981.935 596.188 L 982.101 601.834 C 982.456 612.946 980.455 682.054 983.566 685.917 C 989.728 678.599 989.565 664.619 1002.13 657.347 C 1007.9 653.137 1024.35 647.71 1030.18 653.151 C 1032.4 662.704 1017.56 671.361 1021.33 679.845 C 1028.12 682.142 1033.93 671.314 1041.93 670.922 C 1052.97 670.046 1052.72 684.163 1049.66 691.416 C 1041.97 709.656 1031.03 714.684 1012.79 715.071 C 1027.69 736.699 1071.07 760.936 1021.31 773.202 C 1012.19 767.443 991.674 741.408 983.804 742.377 C 981.55 745.805 981.041 835.998 980.758 848.005 C 999.457 848.371 1018.36 847.58 1036.97 848.402 C 1037.08 872.858 1031.34 894.578 1009.45 907.967 C 1004.24 911.241 999.958 913.749 993.678 914.448 C 970.896 916.982 946.807 916.175 923.87 916.394 C 871.648 916.799 819.424 916.73 767.204 916.188 L 347.605 916.564 C 326.653 916.506 313.39 914.142 297.878 898.509 C 283.159 883.676 279.95 867.877 280.243 847.91 C 299.212 847.908 318.181 847.709 337.146 847.313 z M 538.628 640.058 C 537.478 636.994 536.377 634.954 533.693 633.262 C 529.126 638.05 526.954 640.061 526.833 647.019 L 527.871 649.063 C 534.015 649.438 535.219 644.629 538.628 640.058 z"/>
<path transform="translate(0,0)" fill="rgb(254,254,253)" d="M 347.188 468.918 L 733.888 468.96 L 859.741 468.999 C 881.875 469.001 906.4 468.433 928.286 469.254 C 923.576 474.21 917.796 480.2 914.589 486.211 C 904.815 502.482 901.775 521.923 906.115 540.401 C 909.449 554.34 916.851 569.321 928.254 578.4 C 920.102 586.143 887.653 618.176 883.5 626.438 L 883.559 628.759 C 886.376 630.716 886.813 630.766 890.254 630.99 C 896.525 627.749 926.034 594.726 937.754 585.304 C 944.249 589.044 962.515 594.745 971.222 596.927 C 971.295 596.946 971.942 599.659 971.946 599.695 C 970.184 615.668 971.021 665.016 972.302 680.886 C 965.742 674.323 959.873 667.294 950.717 664.947 C 938.44 662.82 934.757 668.591 926.962 677.02 C 924.561 674.04 919.448 667.03 915.658 667.285 C 907.234 667.853 882.84 667.399 877.267 672.063 C 877.545 676.829 886.64 678.448 890.911 681.169 C 898.142 685.774 906.547 695.158 915.077 696.38 C 918.86 694.881 918.582 692.915 917.805 689.21 C 915.319 685.332 910.22 683.396 905.949 680.95 C 911.79 680.353 922.454 678.327 926.569 678.06 C 929.61 689.049 947.453 699.583 955.847 716.271 C 948.086 718.001 941.465 718.777 934.789 723.076 C 927.284 727.94 922.055 735.623 920.285 744.389 C 919.023 750.692 919.443 762.123 927.74 762.621 C 932.475 760.015 932.876 755.053 936.508 751.372 C 940.071 747.761 946.788 747.347 949.582 751.935 C 949.18 761.863 919.567 771.958 944.747 777.058 C 954.521 779.038 963.736 774.086 970.946 768.368 C 970.356 783.184 970.768 800.9 970.761 815.931 C 935.505 814.468 892.486 815.345 856.881 815.599 L 735.144 815.692 L 346.862 815.154 C 345.544 788.378 345.888 758.35 345.97 731.438 L 346.542 610.418 L 346.728 519.764 C 346.738 504.228 346.103 483.806 347.188 468.918 z M 538.628 640.058 C 537.478 636.994 536.377 634.954 533.693 633.262 C 529.126 638.05 526.954 640.061 526.833 647.019 L 527.871 649.063 C 534.015 649.438 535.219 644.629 538.628 640.058 z"/>
<path transform="translate(0,0)" fill="rgb(6,5,6)" d="M 477.681 531.255 C 501.096 508.618 526.327 498.162 559.332 497.868 C 601.039 497.497 647.034 527.671 662.931 566.775 C 665.083 570.898 667.714 579.586 669.297 584.312 C 671.322 547.096 676.225 557.448 709.379 547.556 C 735.565 539.743 751.407 523.252 773.309 509.111 C 777.568 511.906 790.874 521.094 797.19 527.202 C 819.568 546.983 850.113 548.642 874.354 559.568 C 880.34 562.267 873.692 634.082 872.34 641.409 C 870.045 653.758 866.653 665.877 862.204 677.623 C 847.167 716.501 812.05 755.744 773.986 772.504 C 767.436 769.748 756.295 763.014 750.41 758.834 C 701.993 724.453 683.523 689.209 673.13 632.526 C 667.321 648.538 663.741 664.167 653.6 678.264 C 611.692 736.523 545.809 743.959 488.612 705.792 C 484.697 709.89 480.619 714.83 476.877 719.159 C 477.548 721.748 478.758 725.226 478.437 727.886 C 477.482 735.824 423.673 786.201 413.404 793.768 C 406.287 799.012 400.695 802.188 391.688 800.698 C 383.463 799.338 375.005 794.376 370.285 787.423 C 366.191 781.392 364.168 773.418 365.708 766.217 C 366.731 761.438 369.591 757.641 372.609 753.911 C 381.037 743.493 391.583 734.554 401.155 725.195 C 413.587 713.039 425.761 698.7 440.462 689.306 L 448.084 694.228 C 453.744 688.588 457.997 684.18 463.215 678.1 C 452.161 657.241 444.307 642.295 443.811 617.771 C 443.079 581.549 453.174 557.417 477.681 531.255 z M 538.628 640.058 C 537.478 636.994 536.377 634.954 533.693 633.262 C 529.126 638.05 526.954 640.061 526.833 647.019 L 527.871 649.063 C 534.015 649.438 535.219 644.629 538.628 640.058 z"/>
<path transform="translate(0,0)" fill="rgb(254,254,253)" d="M 477.681 531.255 C 501.096 508.618 526.327 498.162 559.332 497.868 C 601.039 497.497 647.034 527.671 662.931 566.775 C 659.022 572.607 660.416 567.375 656.125 572.993 C 659.814 584.499 663.22 595.362 663.775 607.512 C 666.241 661.553 632.805 706.834 578.994 717.512 C 500.239 733.139 435.082 659.707 456.41 583.65 C 461.736 564.656 469.778 552.492 482.958 538.248 C 482.152 536.721 478.949 533.106 477.681 531.255 z M 538.628 640.058 C 537.478 636.994 536.377 634.954 533.693 633.262 C 529.126 638.05 526.954 640.061 526.833 647.019 L 527.871 649.063 C 534.015 649.438 535.219 644.629 538.628 640.058 z"/>
<path transform="translate(0,0)" fill="url(#Gradient3)" d="M 477.681 531.255 C 501.096 508.618 526.327 498.162 559.332 497.868 C 601.039 497.497 647.034 527.671 662.931 566.775 C 659.022 572.607 660.416 567.375 656.125 572.993 C 636.404 523.197 581.251 496.85 529.709 511.486 C 510.667 516.893 497.593 525.41 482.958 538.248 C 482.152 536.721 478.949 533.106 477.681 531.255 z"/>
<path transform="translate(0,0)" fill="rgb(6,5,6)" d="M 543.222 529.918 C 589.366 521.426 633.635 552.025 641.999 598.193 C 650.363 644.361 619.643 688.545 573.452 696.781 C 527.441 704.986 483.466 674.411 475.135 628.423 C 466.803 582.435 497.256 538.376 543.222 529.918 z M 538.628 640.058 C 537.478 636.994 536.377 634.954 533.693 633.262 C 529.126 638.05 526.954 640.061 526.833 647.019 L 527.871 649.063 C 534.015 649.438 535.219 644.629 538.628 640.058 z"/>
<path transform="translate(0,0)" fill="rgb(254,254,253)" d="M 549.333 537.523 C 590.725 532.5 628.457 561.707 633.968 603.037 C 639.479 644.367 610.719 682.44 569.457 688.438 C 542.329 692.382 515.176 681.436 498.367 659.782 C 481.558 638.128 477.688 609.109 488.236 583.806 C 498.784 558.504 522.12 540.826 549.333 537.523 z M 538.628 640.058 C 537.478 636.994 536.377 634.954 533.693 633.262 C 529.126 638.05 526.954 640.061 526.833 647.019 L 527.871 649.063 C 534.015 649.438 535.219 644.629 538.628 640.058 z"/>
<path transform="translate(0,0)" fill="rgb(42,41,43)" d="M 546.194 590.408 C 550.146 592.815 548.563 592.498 552.599 592.552 C 560.128 586.024 553.03 567.345 558.801 562.182 C 568.84 564.043 561.469 586.008 569.711 592.539 C 572.993 592.595 573.202 592.505 575.57 590.023 L 578.171 592.997 C 579.956 593.053 581.325 593.004 583.082 593.344 C 581.054 595.733 579.115 597.059 579.667 600.467 C 580.053 602.846 582.634 606.726 584.964 607.403 C 585.207 609.313 585.364 611.619 586.002 613.36 C 582.195 615.311 581.37 621.041 579.719 625.945 C 585.025 631.476 596.084 639.629 597.208 645.797 L 596.386 647.545 C 588.188 649.11 575.657 624.32 567.109 634.935 C 562.906 640.155 567.983 656.626 560.97 661.004 C 554.393 658.229 560.656 640.313 553.832 632.562 C 547.691 630.511 542.969 636.055 538.628 640.058 C 537.478 636.994 536.377 634.954 533.693 633.262 C 535.794 630.987 540.778 627.357 543.454 625.293 C 540.955 620.519 539.436 613.737 537.15 611.582 C 537.521 609.793 537.284 609.019 537.13 607.176 C 541.187 606.153 543.141 600.548 542.977 596.753 C 546.752 595.024 546.34 593.864 546.194 590.408 z"/>
<path transform="translate(0,0)" fill="rgb(254,254,253)" d="M 555.773 600.118 C 556.801 599.987 557.832 599.883 558.866 599.807 C 573.699 598.77 575.952 613.208 565.706 623.332 C 547.853 625.616 544.638 610.754 555.773 600.118 z"/>
<path transform="translate(0,0)" fill="rgb(6,5,6)" d="M 575.57 590.023 C 580.06 583.239 585.475 575.062 594.143 573.262 L 595.463 574.478 C 594.757 581.246 587.631 588.089 583.082 593.344 C 581.325 593.004 579.956 593.053 578.171 592.997 L 575.57 590.023 z"/>
<path transform="translate(0,0)" fill="rgb(6,5,6)" d="M 537.15 611.582 C 530.382 614.061 517.317 616.626 512.395 610.044 C 514.71 602.743 531.26 605.968 537.13 607.176 C 537.284 609.019 537.521 609.793 537.15 611.582 z"/>
<path transform="translate(0,0)" fill="rgb(6,5,6)" d="M 584.964 607.403 C 590.86 606.551 605.479 604.2 607.852 611.766 C 602.599 616.878 592.881 614.282 586.002 613.36 C 585.364 611.619 585.207 609.313 584.964 607.403 z"/>
<path transform="translate(0,0)" fill="rgb(6,5,6)" fill-opacity="0.988235" d="M 533.693 633.262 C 536.377 634.954 537.478 636.994 538.628 640.058 C 535.219 644.629 534.015 649.438 527.871 649.063 L 526.833 647.019 C 526.954 640.061 529.126 638.05 533.693 633.262 z"/>
<path transform="translate(0,0)" fill="rgb(6,5,6)" d="M 539.218 584.466 L 546.194 590.408 C 546.34 593.864 546.752 595.024 542.977 596.753 L 532.227 587.894 C 534.836 587.014 536.815 585.791 539.218 584.466 z"/>
<path transform="translate(0,0)" fill="rgb(6,5,6)" d="M 532.227 587.894 C 529.386 584.865 525.272 581.423 526.104 577.04 L 528.385 576.668 C 532.822 577.908 535.785 581.291 539.218 584.466 C 536.815 585.791 534.836 587.014 532.227 587.894 z"/>
<path transform="translate(0,0)" fill="rgb(254,254,253)" d="M 773.119 520.854 C 775.241 521.006 786.176 529.421 788.402 531.317 C 813.001 552.26 838.63 555.838 868.058 565.684 C 873.039 652.913 852.468 717.827 774.346 762.683 C 739.903 746.004 707.984 713.516 693.169 678.091 C 679.053 644.338 678.373 600.688 679.516 564.381 C 722.867 556.368 737.987 546.151 773.119 520.854 z"/>
<path transform="translate(0,0)" fill="rgb(6,5,6)" d="M 773.252 540.07 C 775.876 541.221 795.269 554.986 800.731 558.086 C 819.045 568.48 831.925 570.484 850.887 577.114 C 855.353 650.432 837.681 704.213 773.618 744.318 C 757.184 734.806 738.801 717.91 727.007 703.286 C 704.134 674.922 695.665 641.677 694.777 605.758 C 694.531 595.809 693.928 586.273 695.068 576.238 C 736.514 565.377 736.408 565.375 773.252 540.07 z"/>
<path transform="translate(0,0)" fill="rgb(254,254,253)" d="M 703.967 584.881 C 713.321 579.989 732.793 575.614 742.65 570.885 C 751.323 566.723 758.465 561.308 767.842 556.598 L 767.95 588.998 C 761.794 589.056 752.644 588.217 748.151 592.07 C 747.383 593.886 746.57 595.126 747.486 597.083 C 754.308 611.671 764.137 597.968 772.747 602.404 C 776.466 609.072 762.661 611.339 761.655 621.45 C 765.173 632.902 771.218 622.975 776.12 622.902 C 778.471 629.527 778.191 630.344 783.993 633.977 C 780.547 640.733 779.916 636.057 775.199 638.318 C 774.068 638.551 772.93 638.748 771.787 638.909 C 766.816 639.658 761.751 640.71 757.532 637.605 C 754.092 631.951 759.358 628.313 753.459 623.4 C 746.801 623.28 738.226 632.703 736.558 638.856 C 737.18 642.887 736.488 641.936 738.732 644.836 C 741.114 645.367 741.569 644.9 743.887 643.768 L 749.033 641.242 C 753.225 642.636 760.796 648.075 764.784 650.716 C 761.611 658.668 757.618 666.081 754.609 673.908 C 755.397 674.893 755.952 675.563 756.823 676.497 L 757.542 677.255 C 756.826 679.219 756.155 681.2 755.532 683.196 C 754.608 686.246 753.841 688.941 755.354 691.752 L 757.757 692.258 C 762.423 691.079 767.286 686.871 771.277 683.875 C 770.338 699.782 771.58 715.914 769.894 731.804 C 717.999 699.413 700.226 643.255 703.967 584.881 z"/>
<path transform="translate(0,0)" fill="rgb(135,185,202)" d="M 776.709 554.588 C 799.518 568.953 817.181 575.965 843.04 584.412 C 844.489 645.145 831.208 695.877 777.722 730.69 C 778.855 715.821 779.682 700.931 780.204 686.029 C 786.897 686.174 791.142 687.143 796.144 682.833 C 797.589 679.738 797.505 681.093 796.51 677.986 C 791.024 672.482 782.474 671.69 773.856 666.388 L 774.678 665.466 C 781.92 657.476 808.985 643.029 798.54 630.838 C 795.311 629.609 796.674 629.784 793.004 630.769 C 791.751 631.985 790.609 632.94 789.609 634.357 L 786.845 633.97 C 788.911 630.793 789.108 630.37 789.651 626.626 C 787.828 621.031 785.301 621.157 779.874 619.59 C 783.024 611.258 798.869 604.312 792.71 589.911 L 791.321 588.954 C 786.506 590.45 784.603 597.096 780.118 598.21 C 775.14 593.299 777.107 563.175 776.709 554.588 z"/>
<path transform="translate(0,0)" fill="rgb(239,240,240)" d="M 783.993 633.977 L 786.845 633.97 L 789.609 634.357 C 786.633 640.417 775.394 653.897 768.43 654.319 C 770.75 647.98 778.49 642.798 777.908 639.141 L 775.199 638.318 C 779.916 636.057 780.547 640.733 783.993 633.977 z"/>
<path transform="translate(0,0)" fill="rgb(254,254,253)" d="M 440.995 699.699 C 444.232 700.137 464.446 721.344 468.61 725.291 C 458.312 740.314 416.813 783.3 401.18 791.763 C 398.822 792.211 396.847 792.261 394.462 792.134 C 388.447 791.843 382.811 789.11 378.857 784.568 C 375.377 780.554 373.248 775.155 373.735 769.804 C 374.814 757.957 429.16 710.073 440.995 699.699 z"/>
<path transform="translate(0,0)" fill="rgb(254,254,253)" d="M 469.792 686.714 C 471.971 687.864 480.399 696.686 482.681 698.974 C 479.509 702.727 473.006 710.991 469.336 713.534 C 463.667 708.556 459.71 704.79 454.477 699.359 C 459.461 694.784 464.495 690.89 469.792 686.714 z"/>
<path transform="translate(0,0)" fill="rgb(254,254,253)" d="M 347.164 458.888 C 340.435 415.519 380.501 420.103 408.773 420.799 C 430.384 421.33 452.593 420.906 474.239 420.835 L 827.495 420.715 C 866.575 420.804 905.983 420.303 945.068 420.764 C 951.837 420.844 955.253 422.347 961.206 425.337 C 973.668 427.416 971.89 442.075 974.582 450.312 C 971.227 454.932 957.325 456.458 951.951 458.66 C 938.473 464.183 925.527 458.752 911.744 460.112 C 910.936 461.958 907.545 464.903 905.732 466.459 C 912.684 466.469 924.544 465.767 930.351 468.995 L 931.098 469.975 C 930.588 471.984 928.989 473.512 927.288 474.26 C 920.045 477.443 922.134 483.441 914.589 486.211 C 917.796 480.2 923.576 474.21 928.286 469.254 C 906.4 468.433 881.875 469.001 859.741 468.999 L 733.888 468.96 L 347.188 468.918 C 347.703 466.281 347.297 461.729 347.164 458.888 z"/>
<path transform="translate(0,0)" fill="url(#Gradient2)" d="M 961.206 425.337 C 973.668 427.416 971.89 442.075 974.582 450.312 C 971.227 454.932 957.325 456.458 951.951 458.66 C 938.473 464.183 925.527 458.752 911.744 460.112 C 910.936 461.958 907.545 464.903 905.732 466.459 C 912.684 466.469 924.544 465.767 930.351 468.995 L 931.098 469.975 C 930.588 471.984 928.989 473.512 927.288 474.26 C 920.045 477.443 922.134 483.441 914.589 486.211 C 917.796 480.2 923.576 474.21 928.286 469.254 C 906.4 468.433 881.875 469.001 859.741 468.999 L 733.888 468.96 L 347.188 468.918 C 347.703 466.281 347.297 461.729 347.164 458.888 L 701.713 458.274 C 759.33 458.836 816.951 458.845 874.568 458.3 C 896.39 458.226 919.393 459.186 940.968 458.603 C 943.239 458.542 968.102 452.266 972.493 451.302 C 970.634 438.361 970.03 434.805 961.206 425.337 z"/>
<path transform="translate(0,0)" fill="rgb(6,5,6)" d="M 658.577 431.199 C 668.889 432.268 671.836 438.309 664.643 446.351 C 653.604 445.684 650.35 437.98 658.577 431.199 z"/>
<path transform="translate(0,0)" fill="rgb(137,188,91)" d="M 970.723 586.441 C 943.469 583.846 921.035 563.895 915.276 537.13 C 909.517 510.365 921.759 482.953 945.535 469.378 C 969.31 455.803 999.14 459.193 1019.26 477.757 C 1039.07 496.035 1045.01 524.917 1034.02 549.53 C 1023.03 574.142 997.557 588.996 970.723 586.441 z"/>
<path transform="translate(0,0)" fill="url(#Gradient1)" d="M 1007.63 496.518 C 1011.22 496.678 1013.07 498.104 1014.65 501.247 C 1014.55 502.032 1014.44 502.984 1014.3 504.104 C 1001.49 518.977 978.051 544.034 964.562 556.513 C 956.078 550.377 951.887 546.072 944.239 538.715 C 939.463 535.906 934.503 531.665 939.068 525.975 C 947.843 524.13 958.753 537.65 964.406 543.425 C 974.69 534.485 998.797 507.264 1007.63 496.518 z"/>
<path transform="translate(0,0)" fill="rgb(42,41,43)" d="M 972.302 680.886 C 971.021 665.016 970.184 615.668 971.946 599.695 C 972.568 605.425 973.134 639.908 973.879 641.284 L 976.969 643.519 C 981.527 639.213 978.725 611.876 982.101 601.834 C 982.456 612.946 980.455 682.054 983.566 685.917 C 989.728 678.599 989.565 664.619 1002.13 657.347 C 1000.44 659.62 994.645 667.034 994.052 669.337 C 991.484 679.308 979.247 709.64 966.975 709.969 C 964.766 709.155 945.13 684.611 942.729 681.078 C 943.007 677.33 943.035 678.388 945.718 674.846 C 954.688 669.719 962.904 686.905 970.032 688.254 L 971.514 685.498 C 970.107 677.866 954.563 670.361 950.717 664.947 C 959.873 667.294 965.742 674.323 972.302 680.886 z"/>
<path transform="translate(0,0)" fill="rgb(239,240,240)" d="M 945.718 674.846 C 954.055 676.416 968.955 691.999 978.138 698.131 C 975.858 700.493 968.766 707.54 966.975 709.969 C 964.766 709.155 945.13 684.611 942.729 681.078 C 943.007 677.33 943.035 678.388 945.718 674.846 z"/>
<path transform="translate(0,0)" fill="rgb(42,41,43)" d="M 1025.17 470.147 C 1038.1 479.771 1046.76 496.109 1049.18 511.922 C 1052.32 531.45 1047.43 551.418 1035.63 567.289 C 1024.14 582.445 1001.13 595.825 981.935 596.188 L 981.689 595.772 C 983.569 592.745 991.851 593.174 996.349 591.837 C 1013.41 586.765 1043.07 565.05 1043.84 545.252 L 1040.94 542.995 L 1040.96 543.053 L 1040.86 540.102 C 1039.28 543.459 1037.98 551.464 1036.47 554 C 1023.32 575.983 996.973 593.109 970.723 586.441 C 997.557 588.996 1023.03 574.142 1034.02 549.53 C 1045.01 524.917 1039.07 496.035 1019.26 477.757 C 1032.26 481.992 1041.21 506.295 1042.76 518.783 L 1046.02 519.775 L 1043.33 520.553 L 1045.56 520.475 C 1054.18 501.281 1031.45 483.491 1025.17 470.147 z"/>
<path transform="translate(0,0)" fill="rgb(254,254,253)" d="M 767.76 856.216 L 960.875 856.785 C 971.311 856.833 1019.96 856.035 1026.16 858.072 C 1030.83 866.597 1019.46 887.285 1012.8 893.766 C 993.612 912.427 961.312 907.064 934.822 907.044 L 827.5 906.991 L 489.511 907.028 L 389.865 907.213 C 383.655 907.25 377.162 907.515 371.069 907.343 C 349.068 906.723 326.299 911.702 308.279 895.751 C 294.785 883.806 291.781 873.885 290.306 856.979 C 312.828 856.03 340.91 856.847 364.064 856.803 L 516.475 856.491 C 528.229 856.259 539.987 856.275 551.74 856.538 C 557.49 869.094 562.273 879.792 577.57 880.218 C 623.133 881.487 668.785 880.7 714.373 880.854 C 725.307 880.89 737.921 881.4 748.603 879.882 C 758.069 873.47 763.303 866.813 767.76 856.216 z"/>
<path transform="translate(0,0)" fill="rgb(254,254,253)" d="M 390.327 824.514 C 448.334 823.959 506.345 823.849 564.354 824.184 L 787.108 824.5 C 845.972 824.98 913.182 822.976 971.208 825.203 C 971.3 832.213 970.999 840.101 970.868 847.183 C 955.208 847.828 939.43 847.707 923.75 847.724 L 346.78 847.087 C 346.342 838.687 346.493 833.358 346.946 824.952 L 390.327 824.514 z"/>
<path transform="translate(0,0)" fill="rgb(254,254,253)" d="M 565.43 856.504 C 591.487 854.743 632.314 856.156 659.288 856.175 C 688.027 856.196 730.195 854.41 757.728 856.584 C 755.142 861.286 753.109 863.925 749.849 868.235 C 747.729 870.051 745.732 871.558 742.848 871.657 C 702.633 873.035 662.132 871.651 621.867 872.156 C 604.769 872.371 587.38 872.484 570.442 871.747 C 568.062 867.983 564.746 862.32 564.04 857.993 L 565.43 856.504 z"/>
<path transform="translate(0,0)" fill="rgb(254,254,253)" d="M 998.999 694.113 C 999.015 680.969 999.032 669.179 1013.46 664.122 L 1015.31 664.734 C 1015.11 670.57 1002.97 677.259 1010.57 685.184 C 1021.6 696.678 1028.86 690.322 1039.69 683.716 C 1040.11 684.065 1040.53 684.413 1040.96 684.761 C 1040.11 691.516 1028.6 700.27 1023.18 703.83 L 1008.34 704.358 C 996.702 714.684 982.208 728.181 972.192 740.191 C 964.958 748.865 972.285 755.586 963.33 759.907 C 959.981 756.257 960.923 757.732 960.228 752.351 C 957.799 747.481 955.133 740.806 949.783 739.014 C 942.434 739.955 941.593 741.081 934.199 739.968 L 932.765 738.75 L 932.944 737.639 L 933.416 739.713 C 935.442 727.649 951.648 728.707 960.824 728.327 C 971.972 719.114 988.467 704.259 998.999 694.113 z"/>
<path transform="translate(0,0)" fill="rgb(239,240,240)" d="M 1004.98 721.887 C 1014.74 733.681 1023.95 743.127 1034.5 754.244 C 1031.4 757.404 1026.25 761.164 1022.63 763.983 C 1012.56 754.354 1002.77 743.299 992.163 734.496 C 996.426 730.466 1000.78 726.026 1004.98 721.887 z"/>
<path transform="translate(0,0)" fill="rgb(239,240,240)" d="M 960.228 752.351 C 960.923 757.732 959.981 756.257 963.33 759.907 C 960.736 762.058 956.375 766.213 953.353 766.064 C 954.219 761.803 958.313 757.392 960.228 752.351 z"/>
</svg>