<svg version="1.1" xmlns="http://www.w3.org/2000/svg" style="display: block;" viewBox="0 0 2048 1323" width="1000" height="646" preserveAspectRatio="none">
<path transform="translate(0,0)" fill="rgb(255,255,255)" d="M 0 0 L 2048 0 L 2048 1323 L 0 1323 L 0 1076.62 L 0 929.407 L 0 0 z"/>
<path transform="translate(0,0)" fill="rgb(15,138,254)" d="M 0 929.407 L 0.343693 928.392 C 2.90277 920.72 4.38355 912.739 6.46275 904.931 C 27.4794 826.013 78.8576 751.686 152.746 714.351 C 179.355 700.692 208.509 692.703 238.364 690.89 C 262.395 689.329 293.957 690.14 318.544 690.148 L 457.146 690.191 L 887.071 690.198 L 1467.2 690.204 L 1653.81 690.204 L 1737.57 690.17 C 1776.78 690.131 1818.43 687.862 1855.9 701.413 C 2097.7 788.869 2110.35 1175.89 1886.62 1292.08 C 1832.84 1320.01 1789.5 1316.21 1731.58 1316.21 L 1604.28 1316.2 L 1212.58 1316.18 L 595.865 1316.18 L 355.185 1316.19 L 280.242 1316.2 C 264.481 1316.19 247.297 1316.86 231.739 1315.28 C 141.425 1306.11 69.5445 1242.77 30.3035 1164.19 C 21.1595 1145.94 13.7165 1126.89 8.06892 1107.27 C 5.74793 1099.08 2.54843 1083.41 0 1076.62 L 0 929.407 z"/>
<path transform="translate(0,0)" fill="rgb(79,167,251)" d="M 246.765 716.42 C 250.342 716.11 254.833 716.114 258.442 716.11 C 290.193 716.067 321.945 716.096 353.696 716.107 L 561.533 716.133 L 1206.35 716.117 L 1613.32 716.095 L 1733.44 716.096 C 1759.28 716.097 1788.96 715.118 1814.28 718.286 C 1855.68 723.642 1896.06 744.936 1926.43 773.14 C 2046.37 884.533 2051.63 1097.01 1942.18 1217.22 C 1903.64 1259.54 1851.77 1287.81 1793.97 1290.13 C 1673.4 1291.38 1550.83 1290.25 1430.14 1290.25 L 721.825 1290.25 L 388.517 1290.28 L 290.969 1290.28 C 274.33 1290.28 256.339 1290.94 239.894 1289.75 C 118.955 1279.95 42.3101 1170.82 23.6159 1059.34 C -1.24435 911.093 79.1478 726.435 246.765 716.42 z"/>
<path transform="translate(0,0)" fill="rgb(232,231,229)" d="M 180.825 800.651 C 181.224 799.665 181.637 798.685 182.064 797.711 C 186.142 788.445 191.759 781.907 201.536 778.264 C 209.139 775.487 217.542 775.899 224.837 779.407 C 233.163 783.459 238.176 790.628 241.049 799.202 C 287.799 810.792 327.795 846.562 341.242 893.375 C 358.32 896.094 367.858 896.009 366.391 916.364 C 364.468 943.037 375.286 955.183 343.113 956.2 L 340.213 963.092 C 346.623 965.71 349.633 965.058 355.81 968.794 C 366.626 957.215 367.443 964.202 371.6 971.443 C 373.165 974.171 380.422 973.571 382.301 981.42 C 380.573 985.606 373.558 992.327 370.132 995.966 C 367.962 1006.72 365.265 1014.65 355.464 1021.03 C 348.589 1025.52 340.181 1027.01 332.181 1025.16 C 325.388 1023.6 320.831 1020.5 315.751 1015.9 C 308.643 1019.86 302.738 1022.18 294.426 1022.43 C 299.596 1048.73 280.157 1062.68 257.149 1049.29 L 256.606 1049.88 C 255.298 1056.3 254.506 1059.56 252.321 1065.71 C 251.466 1068.06 250.043 1072.4 249.049 1074.5 C 241.6 1082.47 232.479 1082.44 221.614 1082.8 C 210.085 1083.22 198.541 1082.82 187.068 1081.62 L 177.566 1080.23 C 155.705 1074.72 158.253 1065.25 156.233 1044.92 L 152.102 1042.13 C 147.869 1035.34 147.754 1020.16 150.85 1013.06 C 141.447 1010.01 135.614 1008.66 126.778 1004.06 C 105.55 993.314 94.1553 979.117 85.6916 957.429 C 70.8795 956.757 62.6284 957.631 62.5595 938.942 C 62.5212 928.563 60.854 911.892 64.9364 902.487 C 69.651 897.255 80.3817 895.874 87.4933 894.248 C 88.4815 889.949 93.6663 877.342 95.7789 873.238 C 114.933 836.032 141.947 813.962 180.825 800.651 z"/>
<path transform="translate(0,0)" fill="rgb(18,18,18)" d="M 264.97 1016.21 C 267.389 1015.9 281.093 1011.91 284.184 1011.05 L 290.84 1017.24 L 294.426 1022.43 C 299.596 1048.73 280.157 1062.68 257.149 1049.29 L 256.606 1049.88 C 255.298 1056.3 254.506 1059.56 252.321 1065.71 C 251.466 1068.06 250.043 1072.4 249.049 1074.5 C 241.6 1082.47 232.479 1082.44 221.614 1082.8 C 210.085 1083.22 198.541 1082.82 187.068 1081.62 L 177.566 1080.23 C 155.705 1074.72 158.253 1065.25 156.233 1044.92 L 152.102 1042.13 C 147.869 1035.34 147.754 1020.16 150.85 1013.06 C 181.192 1022.92 233.984 1023.09 264.97 1016.21 z"/>
<path transform="translate(0,0)" fill="rgb(232,231,229)" d="M 156.233 1044.92 C 163.725 1046.47 248.369 1050.67 256.606 1049.88 C 255.298 1056.3 254.506 1059.56 252.321 1065.71 C 251.466 1068.06 250.043 1072.4 249.049 1074.5 C 241.6 1082.47 232.479 1082.44 221.614 1082.8 C 210.085 1083.22 198.541 1082.82 187.068 1081.62 L 177.566 1080.23 C 155.705 1074.72 158.253 1065.25 156.233 1044.92 z"/>
<path transform="translate(0,0)" fill="rgb(214,213,213)" d="M 264.97 1016.21 C 267.389 1015.9 281.093 1011.91 284.184 1011.05 L 290.84 1017.24 L 294.426 1022.43 C 299.596 1048.73 280.157 1062.68 257.149 1049.29 C 266.585 1043.67 266.675 1025.86 264.97 1016.21 z"/>
<path transform="translate(0,0)" fill="rgb(214,213,213)" d="M 308.016 1000.34 C 320.041 992.467 337.085 977.693 340.213 963.092 C 346.623 965.71 349.633 965.058 355.81 968.794 C 366.626 957.215 367.443 964.202 371.6 971.443 C 373.165 974.171 380.422 973.571 382.301 981.42 C 380.573 985.606 373.558 992.327 370.132 995.966 C 367.962 1006.72 365.265 1014.65 355.464 1021.03 C 348.589 1025.52 340.181 1027.01 332.181 1025.16 C 325.388 1023.6 320.831 1020.5 315.751 1015.9 C 314.141 1013.65 312.378 1010.45 310.937 1008 L 308.016 1000.34 z"/>
<path transform="translate(0,0)" fill="rgb(18,18,18)" d="M 355.81 968.794 C 366.626 957.215 367.443 964.202 371.6 971.443 C 373.165 974.171 380.422 973.571 382.301 981.42 C 380.573 985.606 373.558 992.327 370.132 995.966 C 368.631 982.199 365.855 977.507 355.81 968.794 z"/>
<path transform="translate(0,0)" fill="rgb(214,213,213)" d="M 85.6916 957.429 C 70.8795 956.757 62.6284 957.631 62.5595 938.942 C 62.5212 928.563 60.854 911.892 64.9364 902.487 C 69.651 897.255 80.3817 895.874 87.4933 894.248 C 80.6982 923.645 81.7301 928.569 85.6916 957.429 z"/>
<path transform="translate(0,0)" fill="rgb(214,213,213)" d="M 341.242 893.375 C 358.32 896.094 367.858 896.009 366.391 916.364 C 364.468 943.037 375.286 955.183 343.113 956.2 C 349.75 934.89 346.347 914.277 341.242 893.375 z"/>
<path transform="translate(0,0)" fill="rgb(214,213,213)" d="M 180.825 800.651 C 181.224 799.665 181.637 798.685 182.064 797.711 C 186.142 788.445 191.759 781.907 201.536 778.264 C 209.139 775.487 217.542 775.899 224.837 779.407 C 233.163 783.459 238.176 790.628 241.049 799.202 C 217.924 794.363 203.758 795.926 180.825 800.651 z"/>
<path transform="translate(0,0)" fill="rgb(18,18,18)" d="M 310.937 1008 C 312.378 1010.45 314.141 1013.65 315.751 1015.9 C 308.643 1019.86 302.738 1022.18 294.426 1022.43 L 290.84 1017.24 C 296.345 1012.09 303.861 1011.93 310.937 1008 z"/>
<path transform="translate(0,0)" fill="rgb(79,167,251)" d="M 308.016 1000.34 L 310.937 1008 C 303.861 1011.93 296.345 1012.09 290.84 1017.24 L 284.184 1011.05 C 292.456 1008.88 300.463 1004.35 308.016 1000.34 z"/>
<path transform="translate(0,0)" fill="rgb(18,18,18)" d="M 207.435 827.37 C 263.257 822.655 314.253 870.838 317.114 925.967 C 317.895 941.03 314.326 957.732 303.541 968.864 C 282.828 990.244 249.575 991.479 221.777 992.554 C 181.687 993.896 115.837 991.389 112.174 937.881 C 108.332 881.763 151.838 833.008 207.435 827.37 z"/>
<path transform="translate(0,0)" fill="rgb(232,231,229)" d="M 205.023 921.327 C 212.455 921.031 227.642 918.728 231.074 927.417 C 233.539 933.656 228.267 947.555 224.681 953.025 C 206.452 968.617 198.396 930.109 205.023 921.327 z"/>
<path transform="translate(0,0)" fill="rgb(232,231,229)" d="M 258.256 889.073 C 258.698 889.143 259.76 889.789 260.223 890.038 C 259.562 892.578 254.958 893.818 252.312 894.828 C 245.658 897.367 242.657 899.92 237.596 904.808 C 245.909 904.821 260.754 905.036 267.303 910.163 L 267.613 912.717 C 251.95 908.615 246.739 908.773 230.978 909.315 L 231.611 908.256 C 239.211 895.628 244.406 892.456 258.256 889.073 z"/>
<path transform="translate(0,0)" fill="rgb(232,231,229)" d="M 166.912 889.137 C 176.175 889.431 193.599 896.269 193.89 906.793 C 190.925 910.05 173.207 909.552 163.883 911.775 C 161.974 912.435 162.67 912.198 160.372 911.752 L 160.343 910.365 C 167.369 905.001 181.67 904.953 190.402 904.831 C 181.463 895.456 178.321 896.223 167.75 891.61 L 166.912 889.137 z"/>
<path transform="translate(0,0)" fill="rgb(18,18,18)" d="M 846.583 1014.99 C 847.108 1001.7 848.309 990.643 858.881 980.789 C 865.326 974.766 873.97 971.666 882.774 972.222 C 898.524 973.066 907.173 984.081 911.584 998.131 C 930.807 954.877 961.92 979.43 968.078 976.93 L 969.026 973.983 C 972.236 973.053 989.33 973.715 993.8 973.803 C 993.754 983.311 992.456 1022.49 995.355 1028.49 C 1015.09 1038.6 1008.75 983.126 1008.88 973.792 L 1033.44 973.739 C 1035.16 992.768 1033.93 1031.29 1033.85 1052.05 C 1027.01 1051.94 1019.79 1051.83 1012.94 1052.1 C 999.174 1052.64 986.954 1056.07 976.146 1045.03 C 971.805 1040.59 970.524 1035.72 968.494 1029.89 C 968.211 1035.6 968.118 1041.32 968.213 1047.04 C 936.749 1062.72 918.779 1049.92 909.024 1018.82 C 909.304 1027.58 909.832 1037.52 909.7 1046.19 C 896.114 1052.38 884.67 1056.34 869.536 1051.37 C 857.848 1047.53 853.492 1034.47 848.64 1032.42 C 845.881 1038.84 847.093 1041.2 840.39 1046.38 C 829.069 1055.12 811.169 1055.31 798.417 1049.69 C 796.141 1048.66 793.891 1047.58 791.67 1046.44 C 791.68 1038.13 791.482 1028.65 791.829 1020.44 C 802.574 1026.32 808.945 1030.81 821.437 1029.39 L 822.714 1028.28 C 819.41 1022.51 804.09 1018.25 798.94 1013.63 C 794.048 1009.25 794.511 997.894 787.455 997.019 C 778.569 995.916 774.734 999.858 774.041 1008.27 C 773.355 1022.83 773.77 1037.49 773.872 1052.05 L 748.472 1052.05 C 746.92 1043.01 750.128 1025.81 745.988 1020.79 C 747.376 1018.74 746.694 1003.09 746.608 999.812 C 749.2 995.958 747.344 981.057 748.58 973.797 C 757.641 973.937 793.365 971.829 798.505 974.88 L 799.499 979.472 C 816.33 968.642 833.214 971.12 850.252 980.557 C 847.766 986.636 843.893 996.817 840.991 1002.3 C 834.387 999.313 827.152 995.296 819.916 996.097 C 821.152 999.902 834.899 1005.03 838.853 1007.97 C 842.241 1010.49 843.708 1011.81 846.583 1014.99 z"/>
<path transform="translate(0,0)" fill="rgb(54,105,156)" d="M 746.608 999.812 C 749.2 995.958 747.344 981.057 748.58 973.797 C 749.225 981.488 749.462 1046.07 748.472 1052.05 C 746.92 1043.01 750.128 1025.81 745.988 1020.79 C 747.376 1018.74 746.694 1003.09 746.608 999.812 z"/>
<path transform="translate(0,0)" fill="rgb(255,255,255)" d="M 875.693 980.088 C 876.156 980.068 876.619 980.049 877.083 980.033 C 901.095 979.236 904.754 994.774 905.037 1014.9 C 897.074 1014.94 870.03 1013.13 865.134 1016.76 C 862.413 1022.66 867.045 1028.47 871.569 1032.12 C 878.801 1037.95 885.151 1036.95 893.749 1035.7 C 897.23 1034.33 898.899 1033.05 902.144 1035.02 C 903.769 1040.15 898.803 1043.34 894.311 1044.79 C 851.485 1058.59 837.631 991.836 875.693 980.088 z"/>
<path transform="translate(0,0)" fill="rgb(18,18,18)" d="M 875.921 988.928 C 885.271 988.103 897.839 994.88 891.908 1005.02 C 888.921 1007.04 885.576 1006.34 881.75 1006.17 L 864.879 1006.12 C 866.619 996.817 867.311 993.696 875.921 988.928 z"/>
<path transform="translate(0,0)" fill="rgb(255,255,255)" d="M 975.888 980.998 C 978.793 980.95 981.622 981.076 984.522 981.176 C 991.537 987.6 974.697 1054.06 1007.8 1034.77 C 1022.23 1026.36 1012.79 996.348 1016.7 981.895 C 1019.18 980.292 1023.37 980.57 1025.79 982.121 C 1027.5 986.062 1026.79 992.893 1026.66 997.5 C 1026.69 1006.26 1027.37 1037.49 1026.02 1043.77 C 1023.75 1045.2 1021.76 1044.82 1019 1044.78 C 1016.8 1042.37 1017.1 1040.06 1016.47 1036.31 C 1007.73 1044.78 991.685 1052.02 981.818 1040.46 C 972.221 1029.21 975.766 996.901 975.888 980.998 z"/>
<path transform="translate(0,0)" fill="rgb(255,255,255)" d="M 816.847 980.178 C 823.813 979.453 833.056 980.646 839.401 983.799 C 841.031 987.461 841.144 986.255 840.342 989.472 C 833.171 994.638 809.661 980.763 809.684 997.584 C 813.556 1005.47 826.614 1008.01 833.217 1013.28 C 851.096 1027.56 840.388 1042.77 821.253 1045.76 C 815.052 1046.06 803.56 1046.07 798.996 1041.23 C 798.871 1037.3 798.356 1038.27 800.043 1035.27 C 807.117 1032.07 825.297 1043.31 830.416 1032.11 C 837.365 1016.91 802.187 1015.52 800.044 1000.25 C 798.047 986.018 806.506 982.633 816.847 980.178 z"/>
<path transform="translate(0,0)" fill="rgb(255,255,255)" d="M 941.016 980.108 C 949.428 979.487 954.36 980.709 962.472 982.881 L 959.263 991.768 C 935.607 984.887 925.191 996.759 928.454 1019.73 C 930.932 1037.17 944.177 1037.76 957.792 1034.85 C 958.151 1034.65 959.742 1034.44 960.23 1034.36 C 968.123 1046.84 940.354 1048.95 931.644 1042.66 C 910.003 1027.04 912.184 986.959 941.016 980.108 z"/>
<path transform="translate(0,0)" fill="rgb(79,167,251)" d="M 967.462 989.699 C 968.858 996.4 968.599 1013.68 968.777 1021.52 C 960.125 1025.76 945.855 1034.2 937.559 1025.79 C 931.929 999.671 937.693 990.695 963.406 1001.85 L 967.462 989.699 z"/>
<path transform="translate(0,0)" fill="rgb(255,255,255)" d="M 779.875 980.104 C 783.454 979.883 788.109 979.26 790.807 981.293 C 792.256 992.202 778.29 988.97 773.091 993.695 C 761.943 1003.83 768.341 1029.3 766.068 1043.98 C 763.796 1045.49 759.063 1044.97 756.072 1044.93 C 756.039 1035.64 755.333 987.51 756.764 981.987 C 759.889 980.782 760.49 981.038 763.952 981.303 C 765.587 983.958 765.368 989.108 765.535 992.505 C 770.56 986.139 772.533 983.356 779.875 980.104 z"/>
<path transform="translate(0,0)" fill="rgb(79,167,251)" d="M 872.815 1022.23 C 877.607 1022.11 901.26 1020.64 903.789 1023.2 L 900.828 1025.19 C 891.808 1029.15 877.629 1034.04 872.815 1022.23 z"/>
<path transform="translate(0,0)" fill="rgb(18,18,18)" d="M 614.936 946.983 L 639.988 946.965 L 639.958 973.924 C 663.749 968.881 676.422 978.772 682.047 1001.59 C 693.868 962.56 737.219 962.369 746.608 999.812 C 746.694 1003.09 747.376 1018.74 745.988 1020.79 C 743.149 1024.91 744.312 1040.41 744.425 1046.1 C 717.991 1059.43 692.172 1055.71 682.316 1025.18 C 669.088 1062.6 655.831 1049.73 624.634 1052.01 C 621.684 1052.23 617.888 1052.07 614.91 1052.08 L 614.75 992.805 C 608.431 1012.89 601.123 1032.93 594.136 1052.79 C 585.108 1078.45 574.122 1084.78 548.051 1078.37 L 548.146 1055.17 C 562.815 1058.16 565.475 1060.75 570.816 1045.53 C 568.294 1039.11 555.576 1000.77 552.088 998.736 L 550.936 1000.74 C 548.833 1001.89 540.348 995.944 533.803 996.589 C 520.33 997.915 519.182 1021.06 528.069 1027.99 C 537.963 1031.46 546.875 1026.03 555.944 1021.82 L 556.012 1046.8 C 527.046 1062.28 497.696 1048.52 497.703 1014.2 C 497.714 963.508 535.341 973.91 570.621 973.694 C 574.614 985.667 578.842 997.561 583.302 1009.37 C 587.4 997.471 591.414 985.545 595.344 973.592 L 614.847 973.716 L 614.936 946.983 z"/>
<path transform="translate(0,0)" fill="rgb(255,255,255)" d="M 622.103 954.274 C 622.986 954.24 623.87 954.215 624.754 954.199 C 627.488 954.162 630.578 953.763 632.231 955.394 C 633.667 964.132 632.536 980.432 631.949 989.518 C 661.489 957.321 690.383 1007.2 667.558 1038.86 C 660.978 1045.63 649.757 1048.64 640.54 1043.58 C 637.429 1041.87 636.261 1039.32 632.373 1037.47 C 630.424 1041.64 629.309 1044.89 625.094 1046.46 C 624.63 1046.22 624.287 1046.07 623.879 1045.71 C 620.149 1042.41 622.073 964.984 622.103 954.274 z"/>
<path transform="translate(0,0)" fill="rgb(18,18,18)" d="M 642.762 989.199 C 667.27 986.648 667.82 1010.2 661.89 1028.12 C 660.656 1031.85 657.77 1034.37 654.659 1036.67 C 632.524 1039.76 630.318 1019.05 633.539 1002.06 C 634.692 995.985 637.451 992.372 642.762 989.199 z"/>
<path transform="translate(0,0)" fill="rgb(79,167,251)" d="M 643.786 996.052 C 645.746 995.88 650.338 995.295 651.843 996.398 C 661.095 1003.18 657.796 1021.53 653.112 1029.69 C 650.483 1029.85 646.753 1030.25 644.694 1028.58 C 636.544 1021.98 638.822 1003.39 643.786 996.052 z"/>
<path transform="translate(0,0)" fill="rgb(255,255,255)" d="M 709.362 980.221 C 710.41 980.138 711.459 980.08 712.51 980.045 C 735.933 979.169 739.489 995.545 739.964 1014.9 C 731.942 1014.96 705.884 1013.52 700.409 1016.2 C 699.328 1018.08 698.473 1018.97 699.17 1021.19 C 703.855 1036.12 715.162 1037.51 727.501 1035.83 C 731.922 1034.23 734.159 1032.31 737.501 1036.09 L 737.227 1038.52 C 731.423 1047.27 714.244 1047.99 705.952 1043.9 C 680.984 1031.55 682.57 990.17 709.362 980.221 z"/>
<path transform="translate(0,0)" fill="rgb(18,18,18)" d="M 709.955 989.125 C 719.704 987.983 730.901 993.491 727.404 1004.39 C 723.945 1006.96 723.77 1006.08 718.5 1006.16 L 699.767 1006.15 C 700.05 1004.65 700.367 1003.16 700.719 1001.67 C 702.47 994.365 703.979 992.831 709.955 989.125 z"/>
<path transform="translate(0,0)" fill="rgb(255,255,255)" d="M 583.74 1035.19 C 586.152 1022.57 591.563 1008.98 595.152 996.538 C 596.849 990.654 599.975 981.44 606.646 979.98 C 609.576 981.185 609.066 980.445 610.149 982.673 C 609.356 989.926 597.671 1020.3 594.609 1028.75 C 590.869 1040.08 586.245 1057.62 579.171 1066.85 C 575.531 1071.6 560.083 1076.7 554.869 1070.58 C 554.664 1060.75 561.134 1066.99 567.622 1063.24 C 575.119 1058.92 576.051 1052.85 578.392 1045.3 C 570.891 1023.83 561.828 1002.62 554.787 980.993 C 558.599 980.888 560.167 980.838 564.063 981.418 C 568.441 984.447 581.297 1027.35 583.74 1035.19 z"/>
<path transform="translate(0,0)" fill="rgb(255,255,255)" d="M 527.957 980.152 C 536.732 979.503 541.183 980.532 549.694 982.795 C 545.175 998.438 545.365 988.267 532.345 989.097 C 512.488 990.363 510.819 1024.69 524.358 1034.36 C 530.308 1038.61 539.226 1036.13 545.791 1034.66 L 547.923 1034.4 C 548.847 1035.68 549.249 1038.87 548.546 1040.12 C 543.535 1049.03 526.33 1046.84 518.96 1042.54 C 502.885 1033.16 501.333 1007.38 509.953 992.571 C 514.609 984.511 519.385 982.405 527.957 980.152 z"/>
<path transform="translate(0,0)" fill="rgb(79,167,251)" d="M 707.147 1022.09 C 713.007 1022 734.489 1021.19 738.949 1022.67 L 737.409 1024.44 C 726.832 1029.04 713.956 1034.47 707.147 1022.09 z"/>
<path transform="translate(0,0)" fill="rgb(18,18,18)" d="M 1348.95 946.975 L 1373.93 946.963 L 1373.96 973.657 L 1393.08 973.708 C 1397.48 986.181 1400.8 999.213 1405.84 1011.37 C 1409.46 998.846 1413.82 986.108 1417.8 973.64 L 1444.01 973.795 C 1442.82 977.994 1441.2 982.572 1439.81 986.754 C 1459.85 963.367 1489.63 968.66 1498.64 998.81 C 1498.75 1002.86 1499.62 1017.8 1498.03 1020.71 C 1495.67 1025.95 1496.5 1039.79 1496.58 1046.05 C 1474.41 1057.29 1447.27 1057.78 1436.46 1030.54 C 1433.14 1022.18 1433.6 1013.99 1433.78 1005.15 C 1428.35 1018.24 1422.09 1038.23 1417.49 1052.02 L 1393.38 1052.07 C 1389.89 1040.51 1378.73 1006.19 1373.73 996.789 L 1374 1052.06 C 1360.03 1051.7 1346.03 1052.9 1332.28 1052.57 C 1322.09 1051.63 1311.19 1040.82 1309 1031.28 C 1301.45 998.351 1310.31 967.704 1348.93 973.961 L 1348.95 946.975 z"/>
<path transform="translate(0,0)" fill="rgb(255,255,255)" d="M 1356.19 954.204 C 1359.81 954.134 1363.61 953.529 1366.42 955.396 C 1367.22 962.252 1367.38 1039.73 1366.06 1044.14 C 1363.18 1045.38 1362.32 1045.03 1359.06 1044.71 C 1356.99 1042.83 1356.96 1039.87 1356.45 1036.9 C 1346.51 1046.32 1339.77 1048.38 1326.61 1043.37 C 1295.84 1019.6 1323.44 954.419 1356.39 988.828 C 1355.95 977.469 1356.15 965.608 1356.19 954.204 z"/>
<path transform="translate(0,0)" fill="rgb(18,18,18)" d="M 1334.74 989.093 C 1359.7 985.963 1359.86 1014.28 1352.7 1030.93 C 1351.64 1033.4 1348.32 1035.37 1346.02 1036.79 C 1344.23 1036.92 1338.56 1037.36 1337.11 1036.97 C 1323.8 1033.31 1322.81 1014.16 1325.31 1003.34 C 1327 996.03 1328.86 992.737 1334.74 989.093 z"/>
<path transform="translate(0,0)" fill="rgb(79,167,251)" d="M 1336.08 995.837 C 1339.57 995.596 1341.02 995.24 1344.19 996.943 C 1351.48 1004.43 1350.44 1021.26 1345.17 1029.5 C 1343.42 1029.66 1339.01 1030.18 1337.62 1029.28 C 1327.55 1022.83 1331.5 1004.4 1336.08 995.837 z"/>
<path transform="translate(0,0)" fill="rgb(255,255,255)" d="M 1462.77 980.057 C 1487.41 979.04 1491.62 993.577 1492.01 1014.9 C 1478.42 1014.82 1464.83 1014.86 1451.25 1015.04 C 1454.57 1035.62 1460.98 1038.47 1480.64 1035.67 C 1484.43 1034.17 1485.83 1032.96 1489.26 1035.03 C 1490.78 1040.44 1485.16 1043.61 1480.54 1045.01 C 1437.83 1057.95 1424.77 991.065 1462.77 980.057 z"/>
<path transform="translate(0,0)" fill="rgb(18,18,18)" d="M 1461.94 989.168 C 1471.59 987.966 1483.55 993.904 1479.29 1004.63 C 1475.98 1006.87 1475.11 1006.09 1470.5 1006.16 L 1452.01 1006.14 C 1453.52 996.984 1453.86 994.268 1461.94 989.168 z"/>
<path transform="translate(0,0)" fill="rgb(255,255,255)" d="M 1405.99 1037.63 C 1409.53 1021.66 1416.41 997.811 1423.48 982.421 C 1424.7 979.757 1430.51 980.047 1433.31 982.603 L 1432.26 986.239 C 1425.19 1005.08 1418.97 1025.77 1412 1045.02 L 1398.84 1044.96 C 1393.04 1025.53 1383.76 1000.7 1377.1 981.025 C 1379.69 980.96 1383.79 980.483 1386.21 981.261 C 1390.64 982.683 1403.43 1030.78 1405.99 1037.63 z"/>
<path transform="translate(0,0)" fill="rgb(79,167,251)" d="M 1459.94 1022.2 C 1465.56 1022.07 1487.43 1020.72 1490.75 1023.19 L 1487.66 1025.27 C 1478.55 1029.06 1464.46 1034.19 1459.94 1022.2 z"/>
<path transform="translate(0,0)" fill="rgb(18,18,18)" d="M 1096.05 949.065 C 1116.58 949.575 1108.86 965.07 1111.86 976.049 L 1113.3 976.822 C 1121 973.552 1121.84 966.274 1124.43 958.808 L 1142.99 958.863 L 1142.99 973.516 C 1152.43 973.392 1161.88 973.455 1171.32 973.705 C 1174.78 985.083 1179.72 998.289 1183.75 1009.61 C 1188.18 998.237 1192.07 985.211 1195.83 973.49 C 1203.03 974.012 1214.4 973.761 1221.91 973.828 C 1213.53 1002.59 1201.08 1034.44 1190.52 1062.69 C 1183.31 1081.99 1166.86 1082.87 1148.64 1078.34 C 1148.58 1070.65 1148.71 1062.76 1148.76 1055.04 C 1163.22 1058.29 1166.3 1060.75 1171.52 1045.65 C 1167.65 1035.41 1156.86 999.379 1149.34 995.752 C 1145.28 995.952 1145.96 995.343 1142.94 997.236 C 1142.95 1008.27 1143.02 1019.3 1143.16 1030.33 C 1148.58 1029.4 1153.79 1027.87 1159.1 1026.43 L 1159.29 1048.82 L 1158.46 1049.19 C 1150.77 1052.61 1139.83 1055.53 1131.88 1051.93 C 1109.42 1041.74 1122.19 1009.87 1116 995.767 L 1112.58 995.043 L 1115.37 994.897 L 1112.22 995.61 C 1110.06 999.484 1111.04 1044.41 1111.02 1052.06 L 1085.9 1052.07 L 1085.86 998.486 C 1084.61 998.232 1083.36 997.986 1082.11 997.748 C 1077.14 996.807 1073.13 995.523 1068.8 998.467 C 1062 1007.56 1064.56 1039.42 1064.68 1052.03 L 1039.33 1052.06 C 1039.12 1025.97 1039.16 999.878 1039.43 973.789 C 1052.3 973.708 1077.41 972.388 1087.96 973.533 C 1082 961.031 1084.73 955.281 1096.05 949.065 z"/>
<path transform="translate(0,0)" fill="rgb(255,255,255)" d="M 1155.18 981.009 C 1157.32 980.939 1164.54 980.721 1165.22 981.848 C 1171.07 991.557 1182.17 1026 1183.73 1035.89 C 1185.64 1028.22 1198.38 986.047 1202.16 981.637 C 1205.88 981.357 1207 981.232 1210.65 981.811 C 1211.56 985.041 1198.14 1020.76 1195.99 1026.77 C 1190.98 1039.72 1188.46 1053.83 1180.48 1065.47 C 1176.01 1071.99 1162.76 1076.8 1156.28 1071.51 C 1155.14 1068.98 1155.52 1068.44 1156.19 1065.55 C 1158.74 1063.56 1165.84 1065.2 1169.09 1063.54 C 1174.61 1060.73 1177.19 1051 1179.26 1045.22 C 1171.81 1028.08 1161.41 998.974 1155.18 981.009 z"/>
<path transform="translate(0,0)" fill="rgb(255,255,255)" d="M 1129.66 965.441 C 1132.13 965.761 1132.21 965.803 1134.54 966.703 C 1136.83 970.395 1135.89 976.267 1135.74 980.955 C 1141.12 980.804 1149.92 979.385 1152.12 985.435 C 1148.27 990.399 1141.58 989.144 1135.8 988.993 C 1135.65 999.057 1133.88 1025.06 1137.86 1034.13 C 1140.07 1039.17 1145 1035.95 1150.27 1037.16 C 1152.84 1039.66 1152.13 1040.12 1152.64 1044.36 C 1116.44 1055.35 1126.24 1016.16 1125.09 995.483 C 1124.41 983.169 1121.49 992.56 1116.09 987.487 L 1116.14 985.05 C 1118.15 982.243 1121.84 981.023 1125.13 979.477 L 1129.66 965.441 z"/>
<path transform="translate(0,0)" fill="rgb(255,255,255)" d="M 1070.88 980.07 C 1074.88 979.806 1078.9 978.601 1081.28 982.013 C 1081.28 985.291 1081.3 985.825 1080.22 988.904 C 1075.23 991.71 1068.31 990.642 1065.54 992.099 C 1050.6 999.958 1061.55 1030.46 1055.89 1043.68 C 1052.72 1045.93 1051.58 1045.05 1046.92 1044.93 C 1046.87 1035.26 1046.07 987.749 1047.62 981.831 C 1050.9 980.937 1051.33 980.928 1054.71 981.376 C 1056.43 983.98 1056.2 989.063 1056.38 992.474 C 1061.49 986.055 1063.4 983.138 1070.88 980.07 z"/>
<path transform="translate(0,0)" fill="rgb(255,255,255)" d="M 1093.05 981.003 C 1096.89 980.887 1099.66 980.416 1103.07 982.046 C 1104.63 987.241 1103.68 1036.2 1103.61 1045.02 C 1099.82 1045.08 1096.06 1045.64 1093.46 1043.32 C 1091.97 1030.19 1093 995.685 1093.05 981.003 z"/>
<path transform="translate(0,0)" fill="rgb(255,255,255)" d="M 1095.68 957.683 C 1097.78 956.672 1100.26 956.876 1102.17 958.217 C 1104.07 959.557 1105.11 961.823 1104.87 964.142 C 1104.63 966.461 1103.16 968.469 1101.02 969.392 C 1097.8 970.78 1094.06 969.34 1092.61 966.153 C 1091.16 962.965 1092.52 959.201 1095.68 957.683 z"/>
<path transform="translate(0,0)" fill="rgb(18,18,18)" d="M 665.004 1101.97 L 695.906 1101.95 C 696.482 1128.83 697.57 1128.57 682.595 1150.35 L 666.026 1150.31 L 666.02 1163.05 L 649.812 1163.04 C 649.846 1174.32 649.64 1186.54 649.982 1197.74 C 655.488 1196.25 660.972 1194.89 666.292 1192.83 L 666.551 1216.07 C 640.057 1226.04 625.718 1218.26 624.364 1189.65 L 620.741 1189.2 C 618.989 1193.71 619.522 1207.48 619.586 1213.06 C 597.683 1224.51 576.766 1223.66 561.341 1203.08 C 561.416 1208.17 561.652 1214.09 561.413 1219.1 L 502.948 1219.05 L 502.948 1119.19 L 528.137 1119.18 L 528.192 1194.67 L 558.021 1194.76 C 554.857 1173.69 557.424 1144.68 584.13 1139.67 C 596.498 1137.35 606.219 1141.98 614.787 1150.81 C 616.334 1149.77 615.563 1150.23 616.166 1148.63 C 617.551 1144.96 625.884 1140.51 627.709 1137.03 C 628.547 1135.44 630.504 1127.93 631.028 1125.91 L 649.856 1125.96 L 649.795 1140.24 C 655.026 1140.35 660.257 1140.41 665.488 1140.44 C 666.024 1138.91 664.939 1107.2 665.004 1101.97 z"/>
<path transform="translate(0,0)" fill="rgb(79,167,251)" d="M 620.741 1189.2 C 622.514 1185.1 621.825 1170.5 622.868 1164.06 L 623.413 1164.48 C 624.179 1173.75 624.426 1180.35 624.364 1189.65 L 620.741 1189.2 z"/>
<path transform="translate(0,0)" fill="rgb(255,255,255)" d="M 582.96 1147.23 C 609.209 1144.51 614.509 1158.85 615.029 1181.94 C 607.221 1181.95 580.823 1180.45 575.448 1183.23 C 574.37 1185.12 573.49 1186.03 574.156 1188.23 C 578.692 1203.22 590.799 1203.84 602.532 1202.58 C 606.637 1201.16 608.456 1199.74 612.113 1202.2 L 612.549 1204.62 C 608.181 1214.24 592.514 1214.18 583.869 1211.52 C 564.453 1205.9 560.293 1182.38 565.964 1165.4 C 569.149 1155.87 574.178 1151.48 582.96 1147.23 z"/>
<path transform="translate(0,0)" fill="rgb(18,18,18)" d="M 584.783 1156.05 C 594.483 1155.3 605.845 1159.55 602.621 1171.19 C 599.532 1173.84 599.58 1172.97 594.466 1173.14 L 574.804 1173.08 C 574.941 1172.33 575.086 1171.57 575.239 1170.82 C 576.922 1162.61 578.047 1160.47 584.783 1156.05 z"/>
<path transform="translate(0,0)" fill="rgb(255,255,255)" d="M 510.241 1126.85 C 513.765 1126.78 517.59 1126.26 520.579 1127.78 C 522.244 1143.94 521.059 1184.09 521.039 1201.99 C 529.132 1201.91 545.908 1201.33 553.201 1202.42 C 554.879 1204.83 554.337 1208.52 554.296 1211.71 L 510.25 1211.55 L 510.241 1126.85 z"/>
<path transform="translate(0,0)" fill="rgb(255,255,255)" d="M 636.922 1132.32 L 640.933 1133.39 C 643.702 1136.83 642.696 1143.08 642.507 1147.66 C 647.481 1147.57 657.52 1146.19 658.825 1152.45 C 654.592 1157.24 648.532 1156.05 642.605 1155.87 C 642.384 1168.21 641.213 1186.92 643.65 1198.61 C 645.234 1206.21 653.738 1202.15 658.026 1204.25 C 659.404 1204.93 659.596 1207.32 660.159 1209.32 C 655.853 1214.32 641.924 1213.42 637.921 1209.31 C 627.384 1198.48 632.981 1172.03 631.728 1157.48 C 628.496 1153.84 627.531 1157.77 622.829 1154.5 L 622.779 1152.5 C 624.616 1149.36 628.207 1148.24 631.687 1146.57 L 636.922 1132.32 z"/>
<path transform="translate(0,0)" fill="rgb(255,255,255)" d="M 672.318 1109.18 L 688.937 1109.25 L 688.96 1126.94 C 686.049 1131.78 682.851 1136.65 679.805 1141.42 L 678.701 1142.76 C 675.473 1143.44 675.902 1143.91 673.565 1142.78 C 673.427 1140.41 677.386 1132.92 678.608 1130.32 C 678.231 1124.79 678.523 1130.71 673.303 1125.26 C 671.465 1120.54 672.145 1114.37 672.318 1109.18 z"/>
<path transform="translate(0,0)" fill="rgb(79,167,251)" d="M 582.871 1189.34 C 588.6 1189.17 609.351 1187.99 613.882 1190.08 L 611.121 1191.91 C 602.398 1195.27 587.172 1201.55 582.871 1189.34 z"/>
<path transform="translate(0,0)" fill="rgb(18,18,18)" d="M 1578.85 958.846 L 1597.03 958.833 L 1597.13 973.749 L 1635.94 973.757 C 1635.91 983.854 1634.58 1022.04 1637.66 1028.4 C 1640.81 1030.33 1639.42 1029.82 1643.76 1029.7 C 1655.59 1024.1 1650.97 985.977 1651.1 973.777 L 1675.9 973.785 L 1675.95 1052.03 C 1669.36 1051.94 1662.3 1051.81 1655.71 1052.04 C 1638.31 1052.65 1625.68 1056.93 1614.59 1040.22 C 1612.42 1046.04 1616.72 1047.45 1609.46 1050.57 C 1602.26 1053.67 1594.38 1054.65 1586.97 1051.88 C 1581.33 1049.82 1576.75 1045.58 1574.28 1040.11 C 1568.57 1027.37 1574.9 1004.37 1570.68 996.395 L 1568.01 995.995 C 1564.12 1001.06 1565.79 1043.43 1565.84 1052.05 L 1540.91 1052.07 C 1540.96 1042.16 1542.51 1003.11 1538.81 996.817 C 1536.09 995.332 1535.93 995.423 1532.73 995.79 C 1522.01 1001.05 1525.87 1040.27 1526.01 1052.04 L 1500.7 1052.08 C 1497.8 1045.26 1502.92 1026.84 1498.03 1020.71 C 1499.62 1017.8 1498.75 1002.86 1498.64 998.81 C 1501.07 995.18 1499.6 980.497 1500.58 973.795 C 1508.7 973.906 1543.66 971.609 1548.39 973.733 C 1553.71 976.125 1557.47 981.019 1562.4 983.931 C 1564.03 977.488 1567.13 977.189 1573.07 974.214 L 1578.85 958.846 z"/>
<path transform="translate(0,0)" fill="rgb(54,105,156)" d="M 1498.64 998.81 C 1501.07 995.18 1499.6 980.497 1500.58 973.795 C 1501.93 988.604 1500.69 1008.38 1501.08 1023.6 C 1501.19 1027.83 1501.19 1048.55 1500.7 1052.08 C 1497.8 1045.26 1502.92 1026.84 1498.03 1020.71 C 1499.62 1017.8 1498.75 1002.86 1498.64 998.81 z"/>
<path transform="translate(0,0)" fill="rgb(255,255,255)" d="M 1618.19 980.99 C 1620.9 980.911 1624.29 980.488 1626.89 981.3 C 1630.97 982.575 1626.44 1024.19 1632.38 1033.7 C 1633.81 1035.99 1635.83 1037.67 1638.55 1038.09 C 1642.5 1038.7 1647.98 1036.49 1651.17 1034.18 C 1663.7 1025.08 1655.91 995.803 1658.53 982.15 L 1660.66 980.973 C 1664.49 981.029 1665.62 980.344 1668.12 982.364 C 1669.74 986.207 1669.04 993.305 1668.9 997.772 C 1668.92 1006.85 1669.56 1036.96 1668.33 1043.57 C 1665.79 1045.99 1666.94 1045.61 1663.97 1045.73 C 1660.87 1043.92 1659.39 1040.45 1657.49 1037.2 C 1632.99 1059.48 1614.29 1038.42 1617.88 1011.86 C 1618.84 1004.76 1618.09 988.442 1618.19 980.99 z"/>
<path transform="translate(0,0)" fill="rgb(255,255,255)" d="M 1532.52 980.095 C 1542.26 979.666 1552.73 980.52 1556.48 991.171 C 1559.02 998.368 1560.21 1038.97 1557.93 1044.37 C 1554.33 1046.08 1552.78 1045.7 1549.67 1043.79 C 1540.5 1028.96 1562.72 983.872 1528.32 989.554 C 1509.14 1000.71 1524.86 1036.88 1516.65 1044.83 C 1513.3 1045.16 1512.96 1045.27 1509.74 1044.56 C 1507.85 1041.5 1507.43 1033.83 1507.99 1030.61 C 1509.15 1023.92 1506.65 985.066 1509.19 981.484 C 1512.42 980.537 1512.92 980.327 1516.11 981.245 C 1516.97 983.552 1517.31 985.75 1517.79 988.157 C 1520.77 987.918 1526.47 982.149 1532.52 980.095 z"/>
<path transform="translate(0,0)" fill="rgb(255,255,255)" d="M 1583.7 965.576 C 1586.13 965.812 1586.34 965.891 1588.69 966.64 C 1591.08 970.368 1590.08 976.14 1589.93 980.96 C 1594.99 980.8 1604.86 979.082 1605.63 985.778 C 1601.39 990.508 1596.05 989.146 1589.98 988.994 C 1589.83 999.304 1588.13 1024.77 1591.96 1034.11 C 1594.1 1039.34 1599.36 1035.8 1604.85 1037.12 C 1607.29 1039.66 1606.54 1040.11 1606.76 1044.39 C 1568.66 1055.5 1581.48 1011.46 1578.89 989.998 C 1575.18 987.505 1574.56 990.483 1570.33 987.823 L 1570.31 985.049 C 1572.16 982.431 1576.15 981.059 1579.24 979.597 L 1583.7 965.576 z"/>
<path transform="translate(0,0)" fill="rgb(79,167,251)" d="M 1597.03 996.031 L 1610.86 996.051 C 1610.92 1001.45 1611.88 1024.8 1609.71 1027.67 C 1605.92 1028.64 1601.21 1029.51 1597.31 1030.34 C 1596.77 1019.76 1597.07 1006.78 1597.03 996.031 z"/>
<path transform="translate(0,0)" fill="rgb(18,18,18)" d="M 1059.74 791.858 L 1078.19 791.965 L 1078.19 806.773 C 1081.88 806.744 1091.09 806.093 1093.92 807.446 C 1094.03 809.438 1093.83 810.039 1095 811.616 C 1106.64 811.006 1129.05 796.133 1143.32 812.979 C 1155.59 827.465 1151.18 866.118 1151.04 885.121 C 1136.04 884.692 1122.69 885.321 1107.98 885.906 C 1102.08 886.141 1098 876.465 1085.15 885.111 C 1080.94 887.943 1070.55 886.215 1065.19 883.549 C 1046.21 874.104 1056.04 848.383 1053.26 832.119 C 1052.88 829.995 1050.81 829.07 1049.07 828.204 C 1045.43 829.94 1045.95 830.432 1043.39 834.248 C 1041.87 834.623 1028.99 829.528 1025.9 828.532 C 1023.81 828.6 1022.89 828.4 1021.25 829.679 C 1026.95 836.754 1045.18 838.083 1049.1 850.434 C 1061.03 888.087 1017.6 891.434 993.689 879.648 C 993.551 871.033 993.55 862.416 993.687 853.8 C 1003.05 858.355 1015.13 865.659 1026 862.326 C 1026.17 859.513 1018.93 855.617 1016.74 855.042 C 987.007 847.244 985.607 807.746 1019.74 806.002 C 1047.43 804.588 1049.74 822.563 1059.74 791.858 z"/>
<path transform="translate(0,0)" fill="rgb(255,255,255)" d="M 1113.42 813.139 C 1120.7 812.558 1135.59 812.287 1139.4 818.975 C 1145.24 829.249 1145.51 865.472 1143.48 875.967 C 1141.48 878.06 1140.95 877.453 1137.43 877.763 C 1133.92 875.31 1136.79 875.053 1133.96 870.629 C 1126.27 870.168 1123.09 886.718 1101.19 874.861 C 1097.4 870.231 1094.11 862.821 1094.32 856.725 C 1094.99 837.973 1126.92 843.121 1133.63 836.482 C 1135.6 830.297 1131.51 825.381 1125.86 823.111 C 1117.87 819.9 1111.05 822.851 1103.77 826.314 L 1099.84 818.543 C 1104.72 816.247 1108.31 814.932 1113.42 813.139 z"/>
<path transform="translate(0,0)" fill="rgb(18,18,18)" d="M 1119.14 847.362 C 1126.31 846.779 1128.84 845.116 1133.42 850.84 C 1135.59 858.912 1128.13 866.808 1121.22 869.978 C 1101.6 871.682 1101.34 851.491 1119.14 847.362 z"/>
<path transform="translate(0,0)" fill="rgb(79,167,251)" d="M 1124.22 854.373 C 1125.57 855.044 1124.96 854.745 1125.86 856.688 C 1124.01 861.803 1120.09 863 1115.32 864.178 C 1113.07 861.678 1113.15 859.972 1114.29 857.165 C 1117.4 854.744 1120.33 854.788 1124.22 854.373 z"/>
<path transform="translate(0,0)" fill="rgb(255,255,255)" d="M 1016.93 813.192 C 1028 812.166 1033.27 813.244 1043.39 817.344 C 1042.16 819.76 1040.94 821.952 1039.6 824.31 C 1034.31 825.866 1017.61 816.563 1013.57 824.458 C 1004.82 841.547 1041.97 840.471 1043.74 856.401 C 1045.29 870.381 1038.93 875.201 1026.77 878.127 C 1019.32 879.285 1009.03 879.188 1002.31 875.464 C 1000.54 873.15 1000.61 872.955 1000.36 869.942 C 1005.57 863.141 1031.14 876.635 1033.69 864.332 C 1036.38 851.396 1007.18 847.387 1002.1 833.916 C 997.532 821.795 1007.76 816.409 1016.93 813.192 z"/>
<path transform="translate(0,0)" fill="rgb(255,255,255)" d="M 1064.86 799.086 C 1066.75 799.156 1067.84 799.385 1069.66 799.721 C 1072.46 803.621 1071.36 808.535 1071.16 813.795 C 1075.96 813.657 1086.84 812.225 1087.2 818.77 C 1082.58 823.289 1077.27 822.05 1071.17 821.848 C 1071.03 832.122 1068.88 860.473 1074.31 868.484 C 1075.95 870.91 1081.66 869.341 1085.59 869.758 C 1088.56 871.981 1087.71 871.87 1088.38 876.456 C 1086.61 877.578 1084.93 878.034 1082.86 878.392 C 1050.48 883.981 1062.8 842.349 1060 823.026 C 1056.22 820.319 1055.43 823.506 1051.48 820.916 L 1051.4 818.368 C 1053.73 815.357 1057.21 814.084 1060.72 812.322 C 1062.16 808.231 1063.55 803.293 1064.86 799.086 z"/>
<path transform="translate(0,0)" fill="rgb(79,167,251)" d="M 1078.23 829.035 C 1086.39 829.245 1087.22 828.562 1094.5 828.215 L 1092.92 827.893 L 1094.54 828.085 L 1095.09 826.531 L 1094.91 826.56 C 1095.04 828.202 1099.58 834.09 1100.86 835.486 L 1101.24 835.899 L 1101.94 836.877 C 1088.64 844.224 1092.58 848.04 1087.06 861.161 C 1084.14 863.307 1081.69 863.532 1078.82 861.512 C 1077.55 858.439 1078.22 834.479 1078.23 829.035 z"/>
<path transform="translate(0,0)" fill="rgb(79,167,251)" d="M 1101.24 835.899 C 1109.89 830.945 1114.43 827.889 1124.63 829.535 L 1124.51 830.392 C 1116.24 833.833 1110.38 833.483 1101.94 836.877 L 1101.24 835.899 z"/>
<path transform="translate(0,0)" fill="rgb(18,18,18)" d="M 932.23 1154.82 C 933.682 1153.07 935.187 1151.37 936.743 1149.71 C 942.845 1143.32 952.412 1139.03 961.287 1138.89 C 970.239 1138.81 978.847 1142.34 985.17 1148.67 C 1000.52 1163.8 1001.5 1195.67 985.6 1210.94 C 979.777 1216.23 970.018 1221.06 961.941 1220.29 C 924.735 1216.75 926.637 1189.59 928.501 1162.34 L 925.353 1160.84 C 924.324 1164.11 924.74 1168.65 924.126 1172.07 C 921.938 1184.27 919.355 1186.87 909.955 1193.53 C 912.032 1194.2 914.089 1194.93 916.125 1195.72 C 938.854 1204.71 935.571 1238.09 912.459 1244.58 C 900.068 1248.06 885.724 1249.7 874.013 1244.01 C 857.823 1236.14 856.141 1217.94 868.138 1205.27 C 868.866 1204.48 871.132 1186.63 870.213 1184.59 C 860.204 1162.4 866 1143.8 891.527 1139.26 C 904.901 1139.39 918.256 1140.17 932.065 1140.23 L 932.23 1154.82 z"/>
<path transform="translate(0,0)" fill="rgb(255,255,255)" d="M 887.982 1147.13 C 891.258 1146.84 921.153 1147.65 924.431 1148.26 C 925.625 1150.56 925.492 1150.49 925.242 1153.14 C 922.276 1155.68 919.878 1155.03 915.227 1155.96 C 913.78 1160.78 918.288 1169.06 917.103 1174.31 C 913.523 1190.19 896.017 1185.8 887.216 1192.21 C 885.276 1195.48 885.565 1194.01 886.113 1197.75 C 895.395 1206.74 934.807 1191.86 921.639 1228.96 C 904.999 1253.99 838.291 1233.62 879.731 1207.24 C 881.779 1201.15 867.862 1203.17 882.236 1186.73 C 870.543 1171.2 865.411 1156.39 887.982 1147.13 z"/>
<path transform="translate(0,0)" fill="rgb(18,18,18)" d="M 884.439 1211.15 C 890.333 1210.75 909.32 1208.54 912.798 1214.75 C 916.727 1221.76 912.098 1226.8 906.161 1230.41 C 901.866 1231.36 896.586 1232.67 892.197 1232.13 C 877.042 1230.25 871.248 1221.82 884.439 1211.15 z"/>
<path transform="translate(0,0)" fill="rgb(79,167,251)" d="M 884.896 1218.12 C 890.113 1218.02 903.563 1216.3 906.689 1219.96 L 905.497 1222.98 C 900.043 1225.04 892.654 1226.63 887.07 1224.52 C 884.426 1221.75 885.21 1223.08 884.896 1218.12 z"/>
<path transform="translate(0,0)" fill="rgb(18,18,18)" d="M 892.87 1154.18 C 910.11 1154.63 912.313 1174.78 898.224 1181.83 C 878.333 1180.54 878.213 1159.55 892.87 1154.18 z"/>
<path transform="translate(0,0)" fill="rgb(79,167,251)" d="M 891.422 1161.56 C 896.302 1161.69 896.753 1161.6 899.58 1164.5 C 900.521 1168.3 899.69 1170.77 898.934 1174.63 C 893.953 1174.25 893.737 1174.51 890.873 1171.56 C 889.835 1168.12 890.768 1165.19 891.422 1161.56 z"/>
<path transform="translate(0,0)" fill="rgb(255,255,255)" d="M 953.867 1147.29 C 960.992 1146.66 966.31 1145.91 973.074 1149.15 C 990.3 1157.37 993.905 1182.18 986.039 1198.02 C 982.229 1205.69 977.308 1209.23 969.376 1211.78 C 929.316 1219.16 920.991 1161.7 953.867 1147.29 z"/>
<path transform="translate(0,0)" fill="rgb(18,18,18)" d="M 954.755 1156.2 C 980.725 1152.51 982.876 1177.32 975.412 1196.34 C 974.195 1199.44 971.548 1201.32 968.746 1203.03 C 939.29 1209.73 938.831 1167.08 954.755 1156.2 z"/>
<path transform="translate(0,0)" fill="rgb(79,167,251)" d="M 956.561 1163.03 C 959.316 1162.82 964.277 1162.31 966.425 1164.15 C 975.307 1171.76 972.862 1187.97 966.742 1196.46 C 947.424 1200.16 950.152 1172.28 956.561 1163.03 z"/>
<path transform="translate(0,0)" fill="rgb(18,18,18)" d="M 738.136 780.073 L 763.097 780.05 L 763.17 806.778 L 782.864 806.651 C 786.83 818.66 791.645 831.13 795.267 843.012 C 800.118 830.762 803.128 818.099 807.675 806.666 L 833.821 806.788 L 814.397 862.997 C 802.493 897.318 801.986 918.668 760.254 911.551 C 760.231 903.902 760.081 895.801 760.27 888.2 C 774.362 891.27 778.121 894.137 783.199 878.751 C 776.727 861.532 768.96 842.216 763.253 824.964 L 763.124 885.071 C 756.378 884.975 748.763 884.817 742.017 885.073 C 728.233 885.596 716.49 888.309 705.718 877.312 C 701.287 872.787 698.836 866.759 696.894 860.757 L 695.662 854.097 C 695.92 848.123 695.907 843.9 695.609 837.928 C 696.002 835.277 696.744 832.345 697.334 829.7 C 705.146 809.214 716.232 802.451 738.133 806.923 L 738.136 780.073 z"/>
<path transform="translate(0,0)" fill="rgb(255,255,255)" d="M 745.251 787.091 C 749.122 786.99 752.13 786.478 755.467 788.233 C 756.257 792.279 756.052 812.251 755.995 817.294 C 755.777 836.627 756.602 857.104 755.754 876.313 C 753.171 878.818 754.361 878.393 751.266 878.566 C 748.391 877.016 747.948 875.423 746.396 872.457 L 745.798 871.304 C 735.191 872.216 738.491 884.394 715.413 876.113 C 686.013 854.78 710.189 786.747 745.901 822.226 C 745.096 811.049 745.302 798.405 745.251 787.091 z"/>
<path transform="translate(0,0)" fill="rgb(18,18,18)" d="M 722.818 822.154 C 724.875 821.86 731.373 821.302 733.242 822.035 C 750.178 828.677 749.91 860.217 735.631 869.414 C 717.027 872.069 712.856 860.595 713.266 843.973 C 713.484 835.155 716.033 828.064 722.818 822.154 z"/>
<path transform="translate(0,0)" fill="rgb(79,167,251)" d="M 725.08 828.868 C 728.671 828.665 730.017 828.379 733.333 829.864 C 741.232 837.3 739.497 854.396 734.269 862.844 C 732.11 863.022 727.587 863.59 725.884 862.2 C 717.172 855.085 719.883 837.262 725.08 828.868 z"/>
<path transform="translate(0,0)" fill="rgb(255,255,255)" d="M 766.659 813.957 C 768.981 813.846 776.023 813.478 776.796 814.72 C 783.154 824.933 793.506 858.674 794.975 868.784 C 798.38 860.616 810.045 817.594 813.795 814.325 C 817.022 814.146 819.633 813.681 822.613 814.783 C 821.47 822.088 810.155 852.91 807.085 861.71 C 800.51 877.158 797.347 906.627 776.259 906.386 C 773.128 906.35 769.989 906.75 767.545 904.488 C 767.284 901.894 766.968 900.812 767.696 898.372 C 786.17 896.434 784.829 895.468 790.948 878.355 C 782.597 857.943 774.42 834.768 766.659 813.957 z"/>
<path transform="translate(0,0)" fill="rgb(18,18,18)" d="M 1335.26 821.241 C 1356.46 794.443 1393.82 802.591 1399.43 836.857 C 1399.44 843.368 1399.42 849.878 1399.37 856.388 C 1394.17 884.104 1363.15 896.956 1341.5 876.879 C 1329.79 866.022 1329.66 850.065 1329.78 835.111 C 1325.63 850.357 1310.24 900.877 1297.95 909.381 C 1288.88 915.662 1276.65 913.187 1266.57 911.543 C 1266.34 903.559 1266.47 896.228 1266.66 888.249 C 1273.73 889.724 1276.76 890.368 1284.12 890.622 C 1286.09 887.099 1288.03 882.337 1289.68 878.559 C 1280.75 858.252 1270.35 828.169 1262.51 806.849 L 1289.12 806.558 C 1292.4 817.741 1297.71 831.48 1301.57 842.903 C 1306.06 830.612 1309.72 819.127 1313.61 806.671 L 1339.8 806.822 L 1335.26 821.241 z"/>
<path transform="translate(0,0)" fill="rgb(255,255,255)" d="M 1358.12 813.171 C 1363.69 812.705 1370.37 812.248 1375.38 814.823 C 1400.22 827.594 1399.54 868.57 1371.98 878.116 C 1331.87 884.574 1323.74 826.572 1358.12 813.171 z"/>
<path transform="translate(0,0)" fill="rgb(18,18,18)" d="M 1357.84 822.219 C 1383.98 818.503 1386.61 844.298 1378.4 863.029 C 1377.16 865.861 1373.96 867.829 1371.32 869.423 C 1343.56 875.448 1341.16 835.231 1357.84 822.219 z"/>
<path transform="translate(0,0)" fill="rgb(79,167,251)" d="M 1359.94 828.992 C 1362.35 828.864 1367.63 828.326 1369.51 829.979 C 1378.05 837.477 1375.86 854.943 1369.57 863.032 C 1367.1 863.06 1362.43 863.536 1360.49 861.897 C 1351.9 854.612 1353.64 837.119 1359.94 828.992 z"/>
<path transform="translate(0,0)" fill="rgb(255,255,255)" d="M 1272.97 813.925 C 1276.98 813.752 1278.49 813.624 1282.57 814.335 C 1287.32 818.273 1299.85 860.145 1301.82 868.516 C 1303.8 860.494 1316.22 817.571 1320.71 814.484 C 1324.06 814.43 1326.39 813.78 1328.84 815.292 C 1327.37 823.512 1316.88 851.531 1313.48 860.668 C 1309.39 872.841 1305.26 887.689 1298.62 898.69 C 1295 904.678 1280.36 909.083 1274.09 904.619 C 1272.81 901.246 1273.01 902.701 1274.03 898.571 C 1292.63 895.919 1290.64 896.067 1297.17 878.355 C 1289.66 861.138 1279.32 832.045 1272.97 813.925 z"/>
<path transform="translate(0,0)" fill="rgb(18,18,18)" d="M 631.171 879.643 C 616.357 886.326 595.196 890.553 581.84 878.942 C 548.992 850.384 579.186 780.94 623.071 813.379 C 632.211 820.136 633.714 835.046 634.321 845.754 C 638.725 842.171 638.084 840.599 644.902 836.793 L 644.438 836.018 C 641.454 834.337 635.247 819.484 633.099 815.265 C 651.546 804.106 687.871 797.058 693.012 826.012 L 694.276 830.404 L 697.334 829.7 C 696.744 832.345 696.002 835.277 695.609 837.928 C 695.907 843.9 695.92 848.123 695.662 854.097 L 696.894 860.757 L 694.032 861.652 C 694.12 868.324 694.569 878.749 693.771 885.081 C 687.778 885.089 681.452 884.665 675.525 884.714 C 653.465 884.895 643.545 891.189 631.583 869.319 C 630.687 871.639 631.109 876.9 631.171 879.643 z"/>
<path transform="translate(0,0)" fill="rgb(54,105,156)" d="M 693.012 826.012 L 694.276 830.404 L 697.334 829.7 C 696.744 832.345 696.002 835.277 695.609 837.928 C 695.907 843.9 695.92 848.123 695.662 854.097 L 696.894 860.757 L 694.032 861.652 C 694.12 868.324 694.569 878.749 693.771 885.081 C 692.355 870.972 693.104 841.309 693.012 826.012 z"/>
<path transform="translate(0,0)" fill="rgb(79,167,251)" d="M 694.276 830.404 L 697.334 829.7 C 696.744 832.345 696.002 835.277 695.609 837.928 L 694.942 838.263 C 693.56 836.279 694.151 833 694.276 830.404 z"/>
<path transform="translate(0,0)" fill="rgb(79,167,251)" d="M 694.032 861.652 C 694.002 858.796 694.145 856.975 694.407 854.123 L 695.662 854.097 L 696.894 860.757 L 694.032 861.652 z"/>
<path transform="translate(0,0)" fill="rgb(79,167,251)" d="M 644.438 836.018 C 652.612 830.548 656.716 828.396 666.581 829.338 L 667.144 830.177 C 660.584 833.314 652.672 833.915 644.902 836.793 L 644.438 836.018 z"/>
<path transform="translate(0,0)" fill="rgb(255,255,255)" d="M 656.46 813.138 C 663.894 812.734 679.667 812.311 682.92 819.627 C 687.22 829.3 688.093 867.513 685.729 876.851 C 682.831 878.692 684.364 878.289 680.99 878.177 C 677.017 875.031 678.29 871.279 675.986 869.9 C 665.731 880.252 656.902 881.507 643.934 874.864 C 639.812 869.835 635.05 858.486 638.523 852.249 C 646.384 838.13 664.654 842.176 675.551 838.198 C 676.615 835.109 675.984 832.392 675.117 829.36 C 671.376 816.285 654.988 822.468 646.947 826.12 C 645.687 824.031 644.122 820.703 642.965 818.439 C 648.099 816.044 651.063 814.903 656.46 813.138 z"/>
<path transform="translate(0,0)" fill="rgb(18,18,18)" d="M 662.274 847.327 C 666.694 847.035 671.755 846.992 676.236 846.848 C 675.598 859.747 675.842 865.118 662.855 870.237 C 659.67 870.347 656.893 870.478 653.997 868.844 C 651.765 867.576 650.126 865.476 649.437 863.003 C 646.955 853.739 654.713 849.126 662.274 847.327 z"/>
<path transform="translate(0,0)" fill="rgb(79,167,251)" d="M 666.943 854.293 L 667.521 854.898 C 668.348 858.22 668.479 856.832 666.835 860.114 C 663.047 863.139 662.136 863.181 657.454 864.06 C 656.197 860.804 656.243 859.963 657.312 857.137 C 660.303 854.736 663.055 854.807 666.943 854.293 z"/>
<path transform="translate(0,0)" fill="rgb(255,255,255)" d="M 595.154 813.226 C 596.762 813.04 598.378 812.925 599.996 812.881 C 622.215 812.114 626.837 829.347 627.044 847.933 C 618.012 847.934 595.19 846.959 587.784 848.472 C 585.069 853.459 588.784 862.646 593.141 865.885 C 599.277 870.444 606.219 869.803 613.333 868.829 C 616.544 867.736 618.661 866.681 622.012 866.992 C 624.54 869.118 623.905 867.82 624.237 870.874 C 619.65 879.884 602.502 880.861 594.621 877.473 C 567.494 865.811 569.185 825.589 595.154 813.226 z"/>
<path transform="translate(0,0)" fill="rgb(18,18,18)" d="M 596.069 822.169 C 604.678 821.484 608.505 821.511 613.855 829.9 C 615.421 832.357 615.293 834.609 614.561 837.355 C 612.296 839.641 612.195 838.937 608.25 839.136 C 601.714 839.34 589.614 841.239 586.787 834.419 C 587.731 829.458 592.244 825.214 596.069 822.169 z"/>
<path transform="translate(0,0)" fill="rgb(79,167,251)" d="M 594.005 855.373 C 599.921 855.203 621.378 853.921 625.293 856.299 L 622.717 857.87 C 612.069 862.577 601.127 867.523 594.005 855.373 z"/>
<path transform="translate(0,0)" fill="rgb(18,18,18)" d="M 865.763 791.797 L 884.028 791.949 L 884.013 806.765 L 900.201 806.721 L 900.314 821.803 C 908.777 809.856 921.139 802.875 936.083 805.689 C 945.359 807.462 953.503 812.958 958.617 820.896 C 971.444 840.445 967.129 869.231 946.885 882.458 C 926.568 890.15 914.883 886.319 900.805 870.65 C 900.749 874.608 900.643 878.566 900.488 882.522 C 859.787 896.648 857.759 868.977 858.9 837.735 C 859.545 820.092 849.037 840.344 849.865 812.706 L 860.007 807.819 C 862.106 803.075 864.053 796.808 865.763 791.797 z"/>
<path transform="translate(0,0)" fill="rgb(255,255,255)" d="M 923.127 813.167 C 938.465 811.901 951.1 816.407 955.931 831.918 C 961.955 851.263 957.021 871.127 937.142 878.167 C 896.998 884.184 889.009 827.06 923.127 813.167 z"/>
<path transform="translate(0,0)" fill="rgb(18,18,18)" d="M 923.555 822.081 C 949.235 819.118 951.597 843.719 943.823 862.46 C 942.391 865.912 939.043 867.849 935.891 869.745 C 906.944 873.025 907.181 833.126 923.555 822.081 z"/>
<path transform="translate(0,0)" fill="rgb(79,167,251)" d="M 924.888 829.06 C 927.057 828.898 931.867 828.37 933.62 829.391 C 943.858 835.352 940.015 854.436 935.883 862.473 C 915.274 866.299 917.767 839.202 924.888 829.06 z"/>
<path transform="translate(0,0)" fill="rgb(255,255,255)" d="M 870.89 798.905 C 872.745 799.063 873.742 799.318 875.515 799.731 C 878.175 803.633 877.116 808.643 876.927 813.798 C 881.998 813.646 891.975 811.941 892.598 818.759 C 888.364 823.426 882.962 822.039 876.943 821.856 C 876.79 832.332 875.077 857.598 879.032 867.092 C 881.09 872.03 886.393 868.919 891.963 870.03 C 894.199 872.605 893.474 872.487 893.414 876.623 C 892.444 877.603 890.893 877.985 889.56 878.246 C 856.224 884.784 868.246 843.418 866.204 824.899 C 865.644 819.817 860.759 823.269 857.36 820.827 L 857.115 818.585 C 859.279 815.502 862.803 814.161 866.262 812.345 L 870.89 798.905 z"/>
<path transform="translate(0,0)" fill="rgb(79,167,251)" d="M 884.035 829.094 L 896.9 828.993 C 894.456 842.215 894.492 847.656 896.669 860.631 C 891.745 862.375 889.952 863.458 885.753 861.562 C 881.962 855.657 884.013 837.857 884.035 829.094 z"/>
<path transform="translate(0,0)" fill="rgb(18,18,18)" d="M 1729.74 991.446 C 1741.84 973.014 1761.33 964.592 1781.2 980.359 C 1797.6 993.379 1788.42 1026.12 1788.94 1046.12 C 1769.97 1055.71 1752.32 1057.35 1735.77 1042.55 C 1735.21 1041.83 1734.65 1041.11 1734.1 1040.37 C 1724.33 1027.19 1725.01 1013.89 1727.36 998.464 C 1724.98 997.948 1720.4 996.906 1718.11 996.802 C 1715.53 996.705 1713.03 997.647 1711.16 999.414 C 1703.81 1006.3 1706.97 1039.14 1707.03 1052.06 L 1681.88 1052.05 L 1681.9 973.78 C 1688.96 973.7 1706.54 975.312 1710.94 973.076 C 1718.41 972.087 1725.06 973.148 1732.36 974.38 L 1729.74 991.446 z"/>
<path transform="translate(0,0)" fill="rgb(255,255,255)" d="M 1754.6 980.114 L 1755.19 980.086 C 1780.14 978.965 1783.77 993.797 1784.33 1014.9 L 1743.72 1014.94 C 1744.49 1020.77 1745.21 1023.64 1746.81 1029.34 C 1755.67 1037.93 1760.86 1037.33 1772.62 1035.74 C 1776.4 1034.37 1778 1033.1 1781.43 1035.07 C 1781.97 1036.67 1782.55 1037.35 1781.53 1038.9 C 1775.1 1048.29 1758.75 1047.58 1749.58 1043.4 C 1732 1035.4 1729.5 1010.17 1736.94 994.458 C 1740.85 986.211 1746.16 982.868 1754.6 980.114 z"/>
<path transform="translate(0,0)" fill="rgb(18,18,18)" d="M 1754.8 988.988 C 1763.84 988.467 1775.34 993.828 1772.38 1004 C 1769.7 1006.79 1770.29 1005.92 1765.25 1006.14 C 1760 1006.27 1747.16 1007.83 1743.94 1003.97 C 1744.19 998.01 1749.84 991.91 1754.8 988.988 z"/>
<path transform="translate(0,0)" fill="rgb(255,255,255)" d="M 1712.8 980.135 C 1717.39 979.791 1724.81 978.869 1724.54 985.512 C 1718.93 994.05 1715.51 988.786 1708.73 991.586 C 1692.51 998.286 1704.21 1030.85 1698.31 1043.84 C 1695.24 1045.96 1693.54 1045.08 1689.07 1044.95 C 1689.05 1036.64 1687.59 984.221 1691.22 979.825 C 1698.15 979.296 1698.8 987.76 1699.32 992.621 C 1703.81 985.621 1705.33 983.693 1712.8 980.135 z"/>
<path transform="translate(0,0)" fill="rgb(79,167,251)" d="M 1751.98 1022.25 C 1757.9 1022.06 1779.44 1020.64 1783.04 1023.07 L 1779.98 1025.23 C 1770.87 1029.21 1757 1033.97 1751.98 1022.25 z"/>
<path transform="translate(0,0)" fill="rgb(18,18,18)" d="M 503.014 785.263 C 530.186 784.886 571.963 780.109 568.043 821.171 C 567.053 831.542 562.583 836.443 554.751 842.805 C 562.645 856.69 571.922 870.904 580.093 885.046 L 554.75 885.036 L 552.049 884.934 C 548.572 883.319 532.323 853.854 528.138 847.596 L 528.174 885.116 L 502.925 885.03 L 503.014 785.263 z"/>
<path transform="translate(0,0)" fill="rgb(255,255,255)" d="M 510.271 792.836 C 527.691 792.603 558.626 788.823 560.996 812.647 C 562.305 825.815 555.884 834.318 544.48 839.592 C 551.117 851.629 560.11 865.744 567.344 877.686 C 560.007 878.064 557.082 879.776 552.469 874.13 L 534.278 842.641 L 521.073 842.759 C 521.098 851.555 521.587 868.757 520.494 876.798 C 518.266 878.251 513.182 877.731 510.226 877.696 L 510.271 792.836 z"/>
<path transform="translate(0,0)" fill="rgb(18,18,18)" d="M 521.091 801.906 C 529.849 801.801 536.72 801.175 544.468 806.018 C 553.088 811.406 551.085 822.092 545.763 829.133 C 536.309 834.18 531.758 833.335 521.02 833.443 L 521.091 801.906 z"/>
<path transform="translate(0,0)" fill="rgb(79,167,251)" d="M 528.205 809.108 C 539.803 809.584 546.061 811.258 540.81 824.662 C 535.959 825.97 533.31 827.527 529.021 824.581 C 527.237 820.643 528.04 813.741 528.205 809.108 z"/>
<path transform="translate(0,0)" fill="rgb(18,18,18)" d="M 1211.08 791.835 L 1229.58 791.981 L 1229.52 806.77 L 1245.89 806.786 L 1245.9 828.987 L 1229.53 829.027 C 1229.47 840.689 1229.57 852.351 1229.85 864.009 C 1235.78 862.693 1240.47 860.914 1246.15 858.884 L 1246.21 882.397 C 1201.8 898.299 1204.01 863.659 1204.22 832.75 L 1203.56 830.834 C 1199.24 830.306 1188.05 828.553 1185.46 831.48 C 1178.33 839.551 1181.03 874.611 1181.13 885.088 L 1156.02 885.022 L 1156.07 806.788 C 1171.48 806.975 1193.29 804.66 1206.04 807.439 L 1211.08 791.835 z"/>
<path transform="translate(0,0)" fill="rgb(255,255,255)" d="M 1216.85 798.466 L 1220.73 799.58 C 1223.31 803.206 1222.36 809.095 1222.18 813.77 C 1226.87 813.652 1238.04 812.242 1238.4 818.757 C 1234.1 823.235 1228.09 822.022 1222.23 821.867 C 1222.06 832.264 1220.08 858.558 1224.82 867.171 C 1227.06 871.23 1232.08 869.192 1237.21 870.195 C 1239.65 872.624 1238.95 873.075 1239.35 877.191 C 1202.31 887.102 1212.53 846.516 1211.49 823.187 C 1207.98 820.22 1207.35 823.518 1202.91 821.01 L 1202.76 818.543 C 1204.69 815.473 1208.31 814.169 1211.7 812.425 L 1216.85 798.466 z"/>
<path transform="translate(0,0)" fill="rgb(255,255,255)" d="M 1185.8 813.216 C 1191.66 812.609 1193.93 811.383 1198.04 815.959 C 1198.37 819.347 1198.68 817.975 1196.56 821.016 C 1193.39 823.228 1190.53 822.5 1186.49 822.241 C 1162.82 838.078 1179.91 859.857 1172.91 876.201 C 1169.59 878.658 1169.45 877.782 1164.33 877.737 C 1162.59 875.452 1162.58 817.248 1164.68 814.338 C 1167.76 813.779 1168.16 813.72 1171.14 814.64 C 1173.34 817.233 1172.99 821.318 1173.19 825.012 C 1177.89 819.433 1179.8 817.295 1185.8 813.216 z"/>
<path transform="translate(0,0)" fill="rgb(18,18,18)" d="M 1244.37 982.294 C 1260.25 972.891 1289.67 964.919 1300.46 984.207 C 1308.12 997.901 1304.7 1035.56 1304.81 1052.08 C 1298.13 1052.06 1291.47 1051.43 1284.35 1051.43 C 1272.54 1051.44 1259.07 1055.95 1248.73 1046.41 C 1236.99 1032.5 1240.85 1013.52 1254.91 1004.09 L 1253.94 1002.67 C 1250.76 995.974 1247.35 989.056 1244.37 982.294 z"/>
<path transform="translate(0,0)" fill="rgb(15,138,254)" d="M 1253.94 1002.67 C 1260.58 999.672 1269.99 994.631 1277.09 995.555 L 1279.43 997.142 L 1279.18 998.545 C 1272.41 1001.81 1264.62 999.31 1254.91 1004.09 L 1253.94 1002.67 z"/>
<path transform="translate(0,0)" fill="rgb(255,255,255)" d="M 1269.12 980.164 C 1300.52 976.491 1298.52 998.493 1297.61 1021.55 C 1297.31 1029.23 1300.68 1042.58 1293.85 1046.09 L 1291.87 1045.33 C 1288.95 1042.51 1288.6 1039.59 1287.63 1035.68 C 1277.77 1046.2 1268.81 1049.87 1255.31 1042.19 C 1255.08 1041.91 1254.84 1041.63 1254.61 1041.35 C 1229.68 1005.16 1282.09 1008.52 1286.7 1004.95 C 1290.05 981.352 1269.92 990.088 1258.31 992.475 C 1255.7 990.791 1255.2 988.413 1253.6 985.226 C 1259.75 982.725 1262.68 981.718 1269.12 980.164 z"/>
<path transform="translate(0,0)" fill="rgb(18,18,18)" d="M 1284.35 1013.4 L 1285.47 1013.46 C 1289.91 1018.33 1285.22 1030.12 1280.43 1033.78 C 1274.95 1037.97 1271.3 1037.36 1265.04 1036.83 C 1261.03 1032.9 1257.53 1025.04 1262.31 1020.21 C 1268.4 1014.07 1276.25 1013.93 1284.35 1013.4 z"/>
<path transform="translate(0,0)" fill="rgb(79,167,251)" d="M 1273.1 1021.02 C 1275.88 1020.91 1276.02 1020.89 1278.63 1021.75 L 1279.43 1023.79 C 1278.22 1027.05 1276.94 1027.88 1274.43 1030.28 L 1269.91 1029.97 C 1267.08 1028.1 1267.8 1029.18 1267.09 1026.16 C 1269.35 1022.39 1268.89 1023.4 1273.1 1021.02 z"/>
<path transform="translate(0,0)" fill="rgb(18,18,18)" d="M 1399.43 836.857 C 1402.91 832.193 1399.65 814.596 1401.68 806.787 L 1426.8 806.731 C 1426.77 816.832 1425.4 855.478 1428.55 861.795 C 1430.97 863.433 1431.25 863.272 1434.31 863.159 C 1445.82 858.426 1441.98 819.295 1441.9 806.716 L 1466.69 806.742 L 1466.75 885.114 C 1459.84 884.961 1452.95 884.828 1445.93 885.03 C 1432.71 885.41 1419.39 888.712 1408.96 878.12 C 1405.38 874.486 1402.83 868.075 1401.96 863.169 L 1400.62 856.985 L 1399.37 856.388 C 1399.42 849.878 1399.44 843.368 1399.43 836.857 z"/>
<path transform="translate(0,0)" fill="rgb(54,105,156)" d="M 1399.43 836.857 C 1402.91 832.193 1399.65 814.596 1401.68 806.787 C 1402.86 821.695 1401.98 847.294 1401.96 863.169 L 1400.62 856.985 L 1399.37 856.388 C 1399.42 849.878 1399.44 843.368 1399.43 836.857 z"/>
<path transform="translate(0,0)" fill="rgb(255,255,255)" d="M 1408.99 813.891 C 1410.08 813.856 1418.99 813.486 1419.18 814.545 C 1421.65 828.237 1410.93 888.026 1442.17 866.934 C 1456.55 857.22 1441.44 821.401 1453.28 813.813 C 1457.06 813.62 1455.94 813.139 1458.7 814.904 C 1460.59 818.408 1459.84 824.531 1459.69 828.816 C 1459.57 837.466 1460.96 871.125 1458.87 876.828 C 1456.39 878.424 1453.74 878.187 1451.34 876.773 C 1450.94 874.341 1450.96 872.799 1449.35 870.956 C 1399.52 898.636 1408.78 845.806 1408.99 813.891 z"/>
<path transform="translate(0,0)" fill="rgb(18,18,18)" d="M 804.639 1139.28 C 818.854 1138.64 825.375 1141.81 837.929 1147.47 L 828.38 1168.96 C 820.31 1165.48 816.023 1162.81 807.124 1163.54 C 808.771 1166.06 819.85 1170.63 823.104 1172.93 C 847.727 1190.29 837.792 1214.94 810.464 1219.98 C 796.59 1220.17 791.085 1220.15 778.789 1213.24 C 778.678 1204.77 778.755 1196.14 778.744 1187.65 C 784.701 1190.52 806.151 1202.29 811.546 1194.78 C 802.106 1186.94 781.491 1183.61 779.798 1168.82 C 777.737 1150.83 788.839 1141.99 804.639 1139.28 z"/>
<path transform="translate(0,0)" fill="rgb(255,255,255)" d="M 800.596 1147.37 C 807.275 1146.71 823.787 1145.93 827.979 1152.22 C 822.338 1166.8 805.587 1146.96 796.158 1160.79 C 797.616 1173.99 824.428 1174.97 828.822 1191.54 C 829.858 1195.45 829.282 1199.61 827.223 1203.08 C 823.882 1208.66 818.85 1210.37 812.996 1211.76 C 805.499 1212.9 794.165 1213.22 787.373 1209.41 C 785.64 1207.14 785.709 1206.94 785.394 1204 C 790.594 1196.64 813.561 1210.17 818.61 1199.06 C 820.779 1193.05 816.085 1188.54 811.322 1186.39 C 793.749 1178.44 769.456 1160.67 800.596 1147.37 z"/>
<path transform="translate(0,0)" fill="rgb(232,231,229)" d="M 160.331 1115.19 C 164.095 1115.57 169.901 1116.8 173.79 1117.5 L 182.214 1120.29 C 204.414 1135 202.435 1149.56 196.78 1172.88 C 201.205 1175.47 200.17 1174.14 202.324 1177.94 C 202.379 1182.36 202.922 1180.92 200.845 1184.07 C 193.394 1188.48 166.077 1180.8 156.712 1178.5 C 130.541 1174.19 139.108 1146.08 144.967 1128.86 C 147.726 1120.75 152.901 1117.92 160.331 1115.19 z"/>
<path transform="translate(0,0)" fill="rgb(18,18,18)" d="M 156.712 1178.5 C 165.709 1161.36 181.315 1169.75 196.78 1172.88 C 201.205 1175.47 200.17 1174.14 202.324 1177.94 C 202.379 1182.36 202.922 1180.92 200.845 1184.07 C 193.394 1188.48 166.077 1180.8 156.712 1178.5 z"/>
<path transform="translate(0,0)" fill="rgb(232,231,229)" d="M 260.725 1094.66 L 270.463 1095.21 C 296.506 1105.77 297.755 1118.46 297.063 1144.63 C 302.687 1146.64 304.714 1148.66 302.831 1154.56 C 296.252 1160.85 268.187 1158.41 258.039 1158.23 C 244.398 1157.3 236.677 1151.4 236.896 1136.84 C 237.216 1115.49 231.687 1095.21 260.725 1094.66 z"/>
<path transform="translate(0,0)" fill="rgb(18,18,18)" d="M 297.063 1144.63 C 302.687 1146.64 304.714 1148.66 302.831 1154.56 C 296.252 1160.85 268.187 1158.41 258.039 1158.23 C 263.975 1139.88 280.949 1144.99 297.063 1144.63 z"/>
<path transform="translate(0,0)" fill="rgb(232,231,229)" d="M 64.7787 1069.97 C 54.4142 1056.88 56.2751 1037.94 68.988 1027.12 C 81.701 1016.3 100.7 1017.49 111.962 1029.81 C 113.487 1031.48 114.825 1033.31 115.952 1035.27 C 121.472 1044.86 121.455 1056.68 115.907 1066.26 C 110.36 1075.84 100.123 1081.73 89.0518 1081.72 C 87.8705 1085.53 86.5213 1089.19 83.1631 1091.42 C 80.7373 1091.5 77.9662 1090.22 76.1844 1088.58 C 70.8643 1083.68 64.7507 1088.53 60.4378 1083.49 C 59.855 1078.94 62.7019 1073.93 64.7787 1069.97 z"/>
<path transform="translate(0,0)" fill="rgb(18,18,18)" d="M 89.0518 1081.72 C 87.8705 1085.53 86.5213 1089.19 83.1631 1091.42 C 80.7373 1091.5 77.9662 1090.22 76.1844 1088.58 C 70.8643 1083.68 64.7507 1088.53 60.4378 1083.49 C 59.855 1078.94 62.7019 1073.93 64.7787 1069.97 C 70.6522 1077.39 79.5911 1081.71 89.0518 1081.72 z"/>
<path transform="translate(0,0)" fill="rgb(18,18,18)" d="M 1808.93 951.21 C 1817.65 950.674 1824.86 951.623 1832.37 956.505 C 1838.63 960.508 1842.97 966.916 1844.36 974.219 C 1848.12 993.94 1835.22 1001.93 1824.07 1014.3 C 1818.87 1020.76 1825.18 1031.22 1825.68 1037.98 C 1826.88 1054.42 1810.68 1058.12 1799.54 1048.36 C 1798.72 1046.76 1796.4 1041.75 1796.9 1039.69 C 1799.76 1030.36 1797.82 1007.99 1803.95 1000.7 C 1808.79 994.937 1820.3 989.607 1819.87 978.045 C 1815 970.399 1798.56 979.618 1792.42 982.661 C 1789.51 975.255 1786.36 968.301 1783.1 961.047 C 1792.67 955.657 1798.53 953.714 1808.93 951.21 z"/>
<path transform="translate(0,0)" fill="rgb(255,255,255)" d="M 1812.04 958.27 C 1823.96 958.6 1835.26 963.359 1837.18 976.968 C 1839.37 992.413 1827.58 999.606 1818.31 1009.09 C 1816.73 1010.7 1815.65 1017.54 1813.41 1020.56 C 1809.47 1021.02 1810.55 1021.5 1807.86 1019.76 C 1806.35 1016.55 1807.18 1013.55 1807.62 1009.89 C 1811.85 1000.71 1819.67 997.952 1823.5 990.913 C 1838.29 963.73 1812.56 967.114 1797.12 971.995 C 1794.98 970.835 1793.57 966.944 1792.4 964.545 C 1799.65 961.134 1804.17 959.461 1812.04 958.27 z"/>
<path transform="translate(0,0)" fill="rgb(255,255,255)" d="M 1809.45 1030.79 C 1813.58 1029.75 1817.78 1032.22 1818.86 1036.33 C 1819.95 1040.45 1817.52 1044.67 1813.42 1045.8 C 1810.73 1046.55 1807.84 1045.79 1805.87 1043.81 C 1803.89 1041.83 1803.13 1038.95 1803.87 1036.26 C 1804.61 1033.56 1806.74 1031.47 1809.45 1030.79 z"/>
<path transform="translate(0,0)" fill="rgb(18,18,18)" d="M 1505.33 805.327 C 1512.17 805.385 1516.64 806.13 1523.24 807.64 C 1521.66 815.46 1520.72 823.465 1519.66 831.378 C 1516.3 830.785 1508.68 829.389 1505.89 829.801 C 1489.45 832.233 1503.56 875.03 1495.99 884.855 L 1492.25 885.054 L 1472.73 885.008 L 1472.73 806.769 C 1478.22 806.581 1496.73 807.729 1499.3 807.034 C 1501.32 806.49 1503.33 805.921 1505.33 805.327 z"/>
<path transform="translate(0,0)" fill="rgb(255,255,255)" d="M 1502.59 813.164 C 1507.03 812.734 1511.62 811.177 1514.3 814.961 C 1514.22 818.247 1514.26 818.544 1513.24 821.618 C 1505.06 826.94 1496.59 818.03 1491.7 834.82 C 1487.83 848.078 1493.47 864.556 1489.18 876.398 C 1486.34 878.591 1485.56 877.825 1481.31 877.801 C 1478.97 874.866 1478.91 816.494 1481.61 814.12 C 1484.64 813.765 1484.85 813.651 1487.7 814.533 C 1489.98 817.293 1489.43 821.855 1489.52 825.783 C 1493.8 819.845 1496.37 816.942 1502.59 813.164 z"/>
<path transform="translate(0,0)" fill="rgb(18,18,18)" d="M 998.427 1119.18 L 1026.34 1119.21 C 1025.83 1143.55 1023.29 1167.95 1023.13 1192.29 C 1023.11 1195.34 1026.75 1200.93 1027.2 1204.17 C 1027.89 1209.21 1025.21 1213.02 1022.57 1216.95 C 1005.71 1228.61 991.153 1212.05 1001.78 1193.15 C 999.776 1172.34 999.39 1140.85 998.427 1119.18 z"/>
<path transform="translate(0,0)" fill="rgb(255,255,255)" d="M 1005.97 1126.79 L 1018.98 1126.86 L 1016 1185.99 C 1014.82 1188.24 1015.7 1187.3 1012.78 1188.38 L 1010.54 1187.36 C 1007.41 1181.19 1006.39 1136.83 1005.97 1126.79 z"/>
<path transform="translate(0,0)" fill="rgb(255,255,255)" d="M 1011.37 1197.61 C 1015.54 1197.17 1019.3 1200.12 1019.86 1204.27 C 1020.43 1208.42 1017.61 1212.27 1013.48 1212.97 C 1010.69 1213.44 1007.86 1212.36 1006.1 1210.14 C 1004.34 1207.92 1003.93 1204.92 1005.03 1202.31 C 1006.13 1199.71 1008.56 1197.9 1011.37 1197.61 z"/>
<path transform="translate(0,0)" fill="rgb(214,213,213)" d="M 126.778 1004.06 C 135.614 1008.66 141.447 1010.01 150.85 1013.06 C 147.754 1020.16 147.869 1035.34 152.102 1042.13 C 139.353 1045.96 130.813 1041.77 122.968 1031.83 L 115.952 1035.27 C 114.825 1033.31 113.487 1031.48 111.962 1029.81 C 112.978 1027.13 117.601 1024.57 120.222 1022.78 C 119.916 1014.5 122.11 1010.5 126.778 1004.06 z"/>
<path transform="translate(0,0)" fill="rgb(18,18,18)" d="M 111.962 1029.81 C 112.978 1027.13 117.601 1024.57 120.222 1022.78 L 122.968 1031.83 L 115.952 1035.27 C 114.825 1033.31 113.487 1031.48 111.962 1029.81 z"/>
<path transform="translate(0,0)" fill="rgb(18,18,18)" d="M 177.566 1080.23 L 187.068 1081.62 C 186.107 1095.27 185.494 1106.88 182.214 1120.29 L 173.79 1117.5 C 176.16 1103.38 177.072 1094.51 177.566 1080.23 z"/>
<path transform="translate(0,0)" fill="rgb(18,18,18)" d="M 252.321 1065.71 C 263.197 1074.62 267.395 1081.46 270.463 1095.21 L 260.725 1094.66 C 258.573 1084.93 255.717 1081.85 249.049 1074.5 C 250.043 1072.4 251.466 1068.06 252.321 1065.71 z"/>
<path transform="translate(0,0)" fill="rgb(232,231,229)" d="M 964.262 133.997 C 967.394 126.758 970.888 121.72 978.65 118.748 C 984.593 116.51 991.194 116.799 996.919 119.547 C 1003.95 122.874 1006.61 127.002 1009.71 133.834 C 1015.99 137.538 1024.46 138.406 1031.11 141.569 C 1050.58 150.839 1063.71 165.367 1076.1 182.388 L 1080.7 168.009 C 1088.49 170.617 1096.93 173.643 1104.72 176.031 C 1104.36 179.845 1103.64 183.906 1104.76 187.522 L 1106.21 187.506 C 1109.24 181.569 1106.54 181.901 1110.9 179.25 C 1117.48 178.592 1126.93 181.854 1133.34 184.147 C 1154.22 189.56 1171.72 197.003 1191.24 206.002 C 1198.17 210.29 1197.03 209.64 1197.68 218.001 C 1200.17 216.578 1201.12 214.445 1202.7 211.962 C 1210.59 214.629 1219.66 217.46 1227.37 220.368 C 1218.05 241.48 1209.88 256.824 1186.91 266.491 C 1176.31 270.955 1166.45 270.649 1155.43 272.315 C 1149.36 273.235 1147.78 276.446 1139.44 276.169 L 1136.56 276.295 C 1135.83 277.171 1133.19 280.208 1132.79 281.002 C 1129.59 281.131 1128.06 280.604 1125.36 279.104 C 1122.75 279.231 1121.08 279.361 1118.48 279.116 C 1117.53 277.665 1116.91 276.737 1115.8 275.395 L 1114.96 274.4 L 1114 273.781 C 1103.45 275.709 1102.61 287.682 1111.14 292.374 C 1107.72 297.704 1104.37 303.456 1098.86 306.796 L 1096.16 308.42 L 1093.92 306.687 C 1088.51 306.356 1089.42 306.443 1085.6 310.507 L 1081.92 309.858 L 1082.28 308.86 C 1080.46 305.992 1079.26 303.509 1077.76 300.496 C 1070.79 303.153 1057.08 306.772 1052.18 309.042 L 1051.8 320.81 C 1045.36 331.98 1034.36 338.224 1022.99 329.342 L 1021.4 330.314 C 1020.85 335.554 1019.86 338.163 1018.2 343.197 C 1017.74 345.222 1016.81 348.069 1017.36 349.906 C 1004.86 358.324 985.222 355.304 970.874 355.234 C 967.694 355.218 968.187 358.335 967.607 361.29 C 967.102 354.765 967.86 355.026 961.557 353.521 C 943.64 349.327 946.244 342.424 944.987 325.805 C 944.145 325.012 941.894 323.753 940.798 323.084 C 937.371 317.987 938.539 306.871 939.919 301.067 C 937.647 300.658 923.928 295.192 921.103 294.082 C 920.388 293.48 912.437 288.118 911.348 287.342 C 897.455 277.436 896.885 272.448 889.634 258.504 L 885.111 257.791 C 880.378 257.01 872.885 256.467 872.535 250.371 C 871.91 239.451 870.435 224.072 874.109 213.762 C 874.918 211.489 887.803 209.985 890.54 209.58 C 901.69 178.914 916.296 157.918 947.003 142.384 C 951.587 140.065 961.903 137.332 964.262 133.997 z"/>
<path transform="translate(0,0)" fill="rgb(243,182,34)" d="M 1080.7 168.009 C 1088.49 170.617 1096.93 173.643 1104.72 176.031 C 1104.36 179.845 1103.64 183.906 1104.76 187.522 L 1106.21 187.506 C 1109.24 181.569 1106.54 181.901 1110.9 179.25 C 1117.48 178.592 1126.93 181.854 1133.34 184.147 C 1154.22 189.56 1171.72 197.003 1191.24 206.002 C 1198.17 210.29 1197.03 209.64 1197.68 218.001 C 1200.17 216.578 1201.12 214.445 1202.7 211.962 C 1210.59 214.629 1219.66 217.46 1227.37 220.368 C 1218.05 241.48 1209.88 256.824 1186.91 266.491 C 1176.31 270.955 1166.45 270.649 1155.43 272.315 C 1149.36 273.235 1147.78 276.446 1139.44 276.169 L 1136.56 276.295 C 1135.83 277.171 1133.19 280.208 1132.79 281.002 C 1129.59 281.131 1128.06 280.604 1125.36 279.104 C 1122.75 279.231 1121.08 279.361 1118.48 279.116 C 1117.53 277.665 1116.91 276.737 1115.8 275.395 L 1114.96 274.4 L 1116.54 270.515 C 1110.39 264.386 1108.51 261.915 1104.12 254.38 L 1089.95 257.346 C 1090.31 251.816 1091.01 247.86 1091.97 242.379 C 1074.67 224.219 1072.36 206.013 1076.1 182.388 L 1080.7 168.009 z"/>
<path transform="translate(0,0)" fill="rgb(243,182,34)" d="M 1080.7 168.009 C 1088.49 170.617 1096.93 173.643 1104.72 176.031 C 1104.36 179.845 1103.64 183.906 1104.76 187.522 L 1106.21 187.506 C 1109.24 181.569 1106.54 181.901 1110.9 179.25 C 1117.48 178.592 1126.93 181.854 1133.34 184.147 C 1125.57 185.399 1119.98 181.439 1114.59 182.696 C 1114.45 184.682 1114.24 183.79 1115.12 185.484 C 1119.74 187.956 1124.36 190.622 1129.31 192.288 C 1128.25 193.953 1127.76 194.99 1126.36 196.385 C 1126.58 200.365 1127.11 201.336 1129.26 204.681 C 1125.3 206.23 1124.1 205.754 1121.14 208.844 C 1122.48 215.978 1116.13 236.059 1116.34 245.053 C 1116.44 249.431 1119.71 266.124 1119.04 268.097 L 1117.95 267.736 L 1116.54 270.515 C 1110.39 264.386 1108.51 261.915 1104.12 254.38 L 1089.95 257.346 C 1090.31 251.816 1091.01 247.86 1091.97 242.379 C 1074.67 224.219 1072.36 206.013 1076.1 182.388 L 1080.7 168.009 z"/>
<path transform="translate(0,0)" fill="rgb(251,219,138)" d="M 1115.12 185.484 C 1119.74 187.956 1124.36 190.622 1129.31 192.288 C 1128.25 193.953 1127.76 194.99 1126.36 196.385 C 1126.58 200.365 1127.11 201.336 1129.26 204.681 C 1125.3 206.23 1124.1 205.754 1121.14 208.844 C 1122.48 215.978 1116.13 236.059 1116.34 245.053 C 1116.44 249.431 1119.71 266.124 1119.04 268.097 L 1117.95 267.736 C 1094.8 243.397 1108.17 212.822 1115.12 185.484 z"/>
<path transform="translate(0,0)" fill="rgb(255,255,255)" d="M 1121.14 208.844 C 1120.03 207.744 1118.02 202.498 1117.34 200.798 C 1119 197.148 1120.26 197.992 1125.21 195.625 L 1126.36 196.385 C 1126.58 200.365 1127.11 201.336 1129.26 204.681 C 1125.3 206.23 1124.1 205.754 1121.14 208.844 z"/>
<path transform="translate(0,0)" fill="rgb(214,213,213)" d="M 1091.97 242.379 C 1095.42 245.456 1102.39 250.72 1104.12 254.38 L 1089.95 257.346 C 1090.31 251.816 1091.01 247.86 1091.97 242.379 z"/>
<path transform="translate(0,0)" fill="rgb(255,255,255)" d="M 1085.84 178.167 C 1100.82 183.184 1092.86 187.113 1103.28 198.08 C 1102.28 202.307 1100.97 207.212 1100.49 211.457 C 1098.46 223.485 1098.68 229.194 1099.3 241.589 C 1095.48 236.947 1092.43 233.52 1089.51 228.195 C 1082.58 217.52 1081.3 205.086 1082.82 192.736 C 1083.21 187.076 1084.32 183.655 1085.84 178.167 z"/>
<path transform="translate(0,0)" fill="rgb(214,213,213)" d="M 1082.82 192.736 C 1082.62 201.619 1086.56 203.654 1087.38 208.607 C 1090.57 209.277 1097.67 210.555 1100.49 211.457 C 1098.46 223.485 1098.68 229.194 1099.3 241.589 C 1095.48 236.947 1092.43 233.52 1089.51 228.195 C 1082.58 217.52 1081.3 205.086 1082.82 192.736 z"/>
<path transform="translate(0,0)" fill="rgb(232,231,229)" d="M 1082.82 192.736 C 1082.62 201.619 1086.56 203.654 1087.38 208.607 C 1089.26 214.983 1092.28 222.179 1089.51 228.195 C 1082.58 217.52 1081.3 205.086 1082.82 192.736 z"/>
<path transform="translate(0,0)" fill="rgb(243,182,34)" d="M 1191.24 206.002 C 1198.17 210.29 1197.03 209.64 1197.68 218.001 C 1200.17 216.578 1201.12 214.445 1202.7 211.962 C 1210.59 214.629 1219.66 217.46 1227.37 220.368 C 1218.05 241.48 1209.88 256.824 1186.91 266.491 C 1176.31 270.955 1166.45 270.649 1155.43 272.315 C 1149.36 273.235 1147.78 276.446 1139.44 276.169 C 1165.09 267.288 1189.85 232.625 1191.24 206.002 z"/>
<path transform="translate(0,0)" fill="rgb(255,255,255)" d="M 1206.88 221.915 C 1208.98 222.854 1213.92 224.109 1216.33 224.797 C 1207.57 244.711 1197.31 254.726 1177.46 262.532 C 1174.04 263.493 1172.19 264.2 1168.57 264.068 C 1168.61 262.197 1176.62 253.865 1178.66 250.993 C 1183.6 244.03 1186.72 237.419 1190.41 229.825 C 1198.56 227.826 1200.35 227.17 1206.88 221.915 z"/>
<path transform="translate(0,0)" fill="rgb(216,149,26)" d="M 1115.12 185.484 C 1114.24 183.79 1114.45 184.682 1114.59 182.696 C 1119.98 181.439 1125.57 185.399 1133.34 184.147 C 1154.22 189.56 1171.72 197.003 1191.24 206.002 C 1189.85 232.625 1165.09 267.288 1139.44 276.169 L 1136.56 276.295 C 1135.83 277.171 1133.19 280.208 1132.79 281.002 C 1129.59 281.131 1128.06 280.604 1125.36 279.104 L 1126.03 278.763 C 1128.25 274.02 1131.68 276.389 1136.22 270.121 C 1162.34 255.194 1166.67 233.074 1178.31 209.66 C 1162.57 205.446 1143.71 200.045 1129.31 192.288 C 1124.36 190.622 1119.74 187.956 1115.12 185.484 z"/>
<path transform="translate(0,0)" fill="rgb(231,167,30)" d="M 1117.95 267.736 L 1119.04 268.097 C 1126.5 273.696 1127.87 274.866 1136.22 270.121 C 1131.68 276.389 1128.25 274.02 1126.03 278.763 L 1125.36 279.104 C 1122.75 279.231 1121.08 279.361 1118.48 279.116 C 1117.53 277.665 1116.91 276.737 1115.8 275.395 L 1114.96 274.4 L 1116.54 270.515 L 1117.95 267.736 z"/>
<path transform="translate(0,0)" fill="rgb(18,18,18)" d="M 1028.14 303.268 C 1032.19 302.514 1040.84 299.719 1043.75 300.851 L 1048.63 303.064 C 1049.74 306.31 1049.71 306.869 1052.18 309.042 L 1051.8 320.81 C 1045.36 331.98 1034.36 338.224 1022.99 329.342 L 1021.4 330.314 C 1020.85 335.554 1019.86 338.163 1018.2 343.197 C 1017.74 345.222 1016.81 348.069 1017.36 349.906 C 1004.86 358.324 985.222 355.304 970.874 355.234 C 967.694 355.218 968.187 358.335 967.607 361.29 C 967.102 354.765 967.86 355.026 961.557 353.521 C 943.64 349.327 946.244 342.424 944.987 325.805 C 944.145 325.012 941.894 323.753 940.798 323.084 C 937.371 317.987 938.539 306.871 939.919 301.067 C 964.377 307.344 1003.82 309.65 1028.14 303.268 z"/>
<path transform="translate(0,0)" fill="rgb(232,231,229)" d="M 944.987 325.805 C 951.854 327.616 1010.78 330.053 1021.4 330.314 C 1020.85 335.554 1019.86 338.163 1018.2 343.197 C 1017.74 345.222 1016.81 348.069 1017.36 349.906 C 1004.86 358.324 985.222 355.304 970.874 355.234 C 967.694 355.218 968.187 358.335 967.607 361.29 C 967.102 354.765 967.86 355.026 961.557 353.521 C 943.64 349.327 946.244 342.424 944.987 325.805 z"/>
<path transform="translate(0,0)" fill="rgb(214,213,213)" d="M 1028.14 303.268 C 1032.19 302.514 1040.84 299.719 1043.75 300.851 L 1048.63 303.064 C 1049.74 306.31 1049.71 306.869 1052.18 309.042 L 1051.8 320.81 C 1045.36 331.98 1034.36 338.224 1022.99 329.342 C 1029.42 324.073 1030.74 310.458 1028.14 303.268 z"/>
<path transform="translate(0,0)" fill="rgb(214,213,213)" d="M 1075.04 294.34 C 1077.67 291.808 1078.4 279.249 1084.26 274.654 C 1092.26 268.372 1106.74 265.939 1114 273.781 C 1103.45 275.709 1102.61 287.682 1111.14 292.374 C 1107.72 297.704 1104.37 303.456 1098.86 306.796 L 1096.16 308.42 L 1093.92 306.687 C 1088.51 306.356 1089.42 306.443 1085.6 310.507 L 1081.92 309.858 L 1082.28 308.86 C 1080.46 305.992 1079.26 303.509 1077.76 300.496 C 1077.12 297.613 1077.17 296.07 1075.04 294.34 z"/>
<path transform="translate(0,0)" fill="rgb(255,255,255)" d="M 1089.95 257.346 L 1104.12 254.38 C 1108.51 261.915 1110.39 264.386 1116.54 270.515 L 1114.96 274.4 L 1114 273.781 C 1106.74 265.939 1092.26 268.372 1084.26 274.654 C 1078.4 279.249 1077.67 291.808 1075.04 294.34 C 1077.17 296.07 1077.12 297.613 1077.76 300.496 C 1070.79 303.153 1057.08 306.772 1052.18 309.042 C 1049.71 306.869 1049.74 306.31 1048.63 303.064 L 1043.75 300.851 C 1046.87 298.133 1056.84 293.979 1061.04 291.629 C 1070.25 286.614 1079.1 279.434 1083.74 269.82 C 1085.72 265.735 1087.37 261.081 1089.95 257.346 z"/>
<path transform="translate(0,0)" fill="rgb(18,18,18)" d="M 1075.04 294.34 C 1077.17 296.07 1077.12 297.613 1077.76 300.496 C 1070.79 303.153 1057.08 306.772 1052.18 309.042 C 1049.71 306.869 1049.74 306.31 1048.63 303.064 C 1058 301.236 1066.18 297.788 1075.04 294.34 z"/>
<path transform="translate(0,0)" fill="rgb(214,213,213)" d="M 885.111 257.791 C 880.378 257.01 872.885 256.467 872.535 250.371 C 871.91 239.451 870.435 224.072 874.109 213.762 C 874.918 211.489 887.803 209.985 890.54 209.58 C 886.224 225.225 886.497 240.364 889.021 256.266 C 887.3 257.123 887.035 257.328 885.111 257.791 z"/>
<path transform="translate(0,0)" fill="rgb(214,213,213)" d="M 964.262 133.997 C 967.394 126.758 970.888 121.72 978.65 118.748 C 984.593 116.51 991.194 116.799 996.919 119.547 C 1003.95 122.874 1006.61 127.002 1009.71 133.834 C 998.384 132.446 987.612 132.216 976.259 133.298 C 972.223 133.682 968.181 134.937 964.262 133.997 z"/>
<path transform="translate(0,0)" fill="rgb(18,18,18)" d="M 987.687 156.41 C 1008.76 156.627 1024.18 162.589 1040.78 176.467 C 1063.99 195.872 1081.98 240.686 1058.76 266.37 C 1044.05 282.634 1015.46 284.316 994.307 284.986 C 971.844 285.1 941.321 284.935 923.46 270.122 C 898.404 249.343 911.103 205.933 929.57 185.083 C 946.267 166.231 963.283 158.23 987.687 156.41 z"/>
<path transform="translate(0,0)" fill="rgb(232,231,229)" d="M 980.612 229.291 C 988.203 229.133 994.097 229.195 1001.68 229.608 C 1001.99 239.293 1002.21 245.084 997.835 253.611 C 982.452 268.165 979.782 238.845 980.612 229.291 z"/>
<path transform="translate(0,0)" fill="rgb(214,213,213)" d="M 1022.16 203.834 C 1023.59 204.042 1023.73 204.277 1025.1 204.903 C 1023.35 208.098 1014.67 209.17 1008.37 215.449 C 1015.16 216.493 1027.32 216.577 1031.3 222.043 C 1028.97 222.66 1009.42 219.908 1006.25 218.344 C 1004.29 215.704 1004.63 217.132 1005.1 213.943 C 1008.65 209.255 1016.65 205.656 1022.16 203.834 z"/>
<path transform="translate(0,0)" fill="rgb(214,213,213)" d="M 952.198 204.237 C 964.287 204.386 970.211 211.093 976.652 220.332 C 965.133 219.607 960.785 219.401 949.391 222.518 C 947.981 222.639 948.7 222.677 947.179 221.73 C 951.284 215.124 964.687 218.729 968.808 215.379 C 966.1 209.354 956.996 210.437 952.198 204.237 z"/>
<path transform="translate(0,0)" fill="rgb(232,231,229)" d="M 1025.89 363.732 C 1027.8 365.335 1029.84 365.86 1032.13 364.273 C 1051.46 373.831 1053.79 382.639 1054.08 403.571 C 1057.21 407.098 1056.93 405.86 1057.75 409.665 C 1053.71 416.882 1031.99 413.943 1023.63 414.107 C 1003.72 415.171 1004.79 386.425 1008.88 373.626 C 1012.04 363.747 1018.8 367.06 1025.89 363.732 z"/>
<path transform="translate(0,0)" fill="rgb(18,18,18)" d="M 1023.63 414.107 C 1026.86 400.028 1042.54 403.467 1054.08 403.571 C 1057.21 407.098 1056.93 405.86 1057.75 409.665 C 1053.71 416.882 1031.99 413.943 1023.63 414.107 z"/>
<path transform="translate(0,0)" fill="rgb(232,231,229)" d="M 964.751 380.476 C 965.038 388.96 976.229 391.151 977.529 402.479 C 978.709 412.767 977.003 415.372 976.039 425.007 C 978.079 427.624 978.887 428.172 979.193 431.304 C 975.582 438.095 951.996 430.564 944.98 429.011 C 924.519 426.939 932.005 395.363 940.548 384.788 C 943.432 381.218 953.133 381.984 957.733 382.054 C 961.521 383.872 960.592 384.183 963.716 383.351 L 964.751 380.476 z"/>
<path transform="translate(0,0)" fill="rgb(18,18,18)" d="M 944.98 429.011 C 953.158 416.787 963.506 422.214 976.039 425.007 C 978.079 427.624 978.887 428.172 979.193 431.304 C 975.582 438.095 951.996 430.564 944.98 429.011 z"/>
<path transform="translate(0,0)" fill="rgb(232,231,229)" d="M 872.72 345.264 C 868.075 335.489 866.477 321.999 874.998 313.519 C 882.182 306.369 889.113 306.277 898.708 306.1 C 902.142 308.302 907.226 312.136 910.973 312.475 L 910.791 314.519 L 913.058 316.85 C 914.489 321.567 915.774 326.326 916.913 331.121 C 910.883 346.729 908.792 349.911 892.677 355.22 C 890.617 358.044 889.463 360.427 886.297 361.506 C 878.278 356.303 874.393 358.155 870.656 355.156 C 869.918 351.843 871.541 348.645 872.72 345.264 z"/>
<path transform="translate(0,0)" fill="rgb(18,18,18)" d="M 872.72 345.264 C 881.003 352.995 882.309 352.183 892.677 355.22 C 890.617 358.044 889.463 360.427 886.297 361.506 C 878.278 356.303 874.393 358.155 870.656 355.156 C 869.918 351.843 871.541 348.645 872.72 345.264 z"/>
<path transform="translate(0,0)" fill="rgb(18,18,18)" d="M 897.859 572.159 C 903.979 572.004 905.623 573.12 911.138 575.516 C 914.078 573.277 916.667 571.899 920.388 572.573 C 924.469 575.942 924.912 611.275 918.049 617.231 C 908.687 625.355 896.629 622.794 888.608 615.541 C 888.16 613.848 888.316 613.508 888.436 611.738 C 893.444 608.615 898.591 612.777 905.999 613.957 C 910.909 612.546 913.884 609.87 911.673 604.694 L 910.193 604.312 C 890.989 621.525 874.392 583.315 897.859 572.159 z"/>
<path transform="translate(0,0)" fill="rgb(255,255,255)" d="M 902.032 580.6 C 904.349 580.675 906.811 581.033 908.721 582.482 C 910.77 584.061 912.016 586.464 912.125 589.048 C 912.399 594.582 910.439 596.948 907.017 600.58 C 894.392 598.719 894.865 588.728 902.032 580.6 z"/>
<path transform="translate(0,0)" fill="rgb(216,149,26)" d="M 1111.14 292.374 L 1112.5 291.976 C 1112.23 295.929 1111.56 298.634 1113.52 301.933 C 1115.02 302.803 1114.94 302.986 1116.55 303.315 C 1118.6 304.071 1121.35 304.944 1123.1 306.108 C 1123.09 308.435 1122.97 311.753 1123.22 313.981 L 1123.68 313.969 C 1125.27 318.089 1125.36 318.309 1129.91 319.36 L 1131.72 321.655 C 1130.89 327.908 1130.24 327.335 1136.29 330.827 C 1135.69 334.12 1135.53 334.565 1133.9 337.489 C 1131.35 338.518 1078.91 320.962 1076.74 316.196 C 1077.81 312.758 1077.33 313.915 1080.18 311.199 L 1081.92 309.858 L 1085.6 310.507 C 1089.42 306.443 1088.51 306.356 1093.92 306.687 L 1096.16 308.42 L 1098.86 306.796 C 1104.37 303.456 1107.72 297.704 1111.14 292.374 z"/>
<path transform="translate(0,0)" fill="rgb(243,182,34)" d="M 1136.29 330.827 C 1135.69 334.12 1135.53 334.565 1133.9 337.489 C 1131.35 338.518 1078.91 320.962 1076.74 316.196 C 1077.81 312.758 1077.33 313.915 1080.18 311.199 C 1083.44 316.062 1130.7 333.182 1136.29 330.827 z"/>
<path transform="translate(0,0)" fill="rgb(243,182,34)" d="M 1111.14 292.374 L 1112.5 291.976 C 1112.23 295.929 1111.56 298.634 1113.52 301.933 C 1115.02 302.803 1114.94 302.986 1116.55 303.315 C 1118.6 304.071 1121.35 304.944 1123.1 306.108 C 1123.09 308.435 1122.97 311.753 1123.22 313.981 L 1122.22 316.525 C 1119.73 316.783 1119.1 316.313 1116.82 315.368 C 1113.63 314.153 1106.85 312.178 1103.53 312.21 C 1100.78 311.028 1098.76 309.867 1096.16 308.42 L 1098.86 306.796 C 1104.37 303.456 1107.72 297.704 1111.14 292.374 z"/>
<path transform="translate(0,0)" fill="rgb(216,149,26)" d="M 1116.55 303.315 C 1118.6 304.071 1121.35 304.944 1123.1 306.108 C 1123.09 308.435 1122.97 311.753 1123.22 313.981 L 1122.22 316.525 C 1119.73 316.783 1119.1 316.313 1116.82 315.368 L 1117.13 313.501 C 1117.72 310.652 1116.92 306.354 1116.55 303.315 z"/>
<path transform="translate(0,0)" fill="rgb(231,167,30)" d="M 1098.86 306.796 C 1106.06 308.342 1110.38 310.674 1117.13 313.501 L 1116.82 315.368 C 1113.63 314.153 1106.85 312.178 1103.53 312.21 C 1100.78 311.028 1098.76 309.867 1096.16 308.42 L 1098.86 306.796 z"/>
<path transform="translate(0,0)" fill="rgb(243,182,34)" d="M 1103.53 312.21 C 1106.85 312.178 1113.63 314.153 1116.82 315.368 C 1119.1 316.313 1119.73 316.783 1122.22 316.525 L 1123.22 313.981 L 1123.68 313.969 C 1125.27 318.089 1125.36 318.309 1129.91 319.36 C 1126.06 319.607 1124.89 320.995 1121.76 321.715 C 1115.78 323.094 1106 318.178 1100.05 315.789 C 1100.63 315.38 1102.9 312.882 1103.53 312.21 z"/>
<path transform="translate(0,0)" fill="rgb(251,219,138)" d="M 1093.92 306.687 L 1096.16 308.42 C 1098.76 309.867 1100.78 311.028 1103.53 312.21 C 1102.9 312.882 1100.63 315.38 1100.05 315.789 C 1097.02 314.825 1095.26 314.304 1092.4 312.829 C 1091.49 309.93 1092.19 310.092 1093.92 306.687 z"/>
<path transform="translate(0,0)" fill="rgb(18,18,18)" d="M 1165.89 572.281 C 1194.21 571.086 1195.96 602.913 1174.33 610.01 C 1147.51 610.716 1144.23 580.179 1165.89 572.281 z"/>
<path transform="translate(0,0)" fill="rgb(255,255,255)" d="M 1168.97 579.496 C 1180.99 583.496 1179.76 594.584 1172.09 602.403 C 1159.55 599.663 1161.09 587.154 1168.97 579.496 z"/>
<path transform="translate(0,0)" fill="rgb(18,18,18)" d="M 821.988 572.223 C 850.728 571.526 851.105 603.55 830.23 609.99 C 820.053 610.246 812.844 608.231 809.009 597.73 C 807.135 592.553 807.442 586.837 809.859 581.89 C 812.817 575.906 816.125 574.235 821.988 572.223 z"/>
<path transform="translate(0,0)" fill="rgb(255,255,255)" d="M 825.036 579.462 C 836.743 583.617 835.498 594.515 828.066 602.362 C 815.502 599.71 816.631 586.961 825.036 579.462 z"/>
<path transform="translate(0,0)" fill="rgb(18,18,18)" d="M 778.018 560.184 C 787.724 559.535 801.016 560.981 804.092 574.164 C 804.536 576.065 803.345 576.773 802.104 578.106 C 791.337 580.492 793.241 569.946 785.478 569.193 C 762.268 566.94 772.95 615.739 791.937 597.329 C 793.79 593.325 794.646 592.443 798.948 591.305 C 802.111 591.998 800.77 591.253 803.016 593.775 C 805.812 608.941 786.248 612.566 775.46 608.924 C 761.415 604.183 758.4 585.82 763.507 573.555 C 766.79 565.669 770.456 563.382 778.018 560.184 z"/>
<path transform="translate(0,0)" fill="rgb(18,18,18)" d="M 1087.02 572.166 C 1097.58 571.908 1104.67 572.999 1107.21 585.52 C 1108.29 590.822 1108.49 604.78 1105.5 609.232 C 1102.37 609.934 1102.19 609.837 1098.96 609.284 C 1089.9 601.748 1091.16 616.916 1075.91 605.852 C 1066.11 587.411 1089.05 589.788 1095.69 584.035 L 1095.32 582.314 C 1090.89 581.08 1082.69 583.741 1075.75 582.694 L 1074.71 581.239 C 1077.48 576.05 1081.59 573.736 1087.02 572.166 z"/>
<path transform="translate(0,0)" fill="rgb(255,255,255)" d="M 1086.16 594.367 C 1090.21 593.923 1092.88 593.234 1095.91 595.426 C 1095.63 598.8 1095.03 598.663 1092.92 601.668 C 1089.71 601.942 1086.85 601.956 1084.43 599.643 C 1084.25 596.197 1083.98 597.552 1086.16 594.367 z"/>
<path transform="translate(0,0)" fill="rgb(18,18,18)" d="M 966.991 572.231 C 969.339 572.087 971.694 572.082 974.044 572.216 C 991.433 573.333 990.135 605.139 984.122 610.231 C 980.008 610.444 977.323 607.384 976.506 607.407 C 966.111 607.704 967.74 613.327 956.922 606.664 C 944.272 586.746 972.489 589.858 975.95 583.222 C 970.798 577.176 962.656 586.528 956.049 583.136 C 955.918 575.965 961.114 574.179 966.991 572.231 z"/>
<path transform="translate(0,0)" fill="rgb(255,255,255)" d="M 966.939 594.187 C 970.739 593.884 973.343 593.154 976.077 595.843 C 975.878 598.924 974.469 599.899 972.339 602.242 C 969.146 601.885 966.566 601.637 964.495 599.347 C 964.578 596.058 964.354 597.249 966.939 594.187 z"/>
<path transform="translate(0,0)" fill="rgb(18,18,18)" d="M 1210.65 572.069 C 1230.9 571.718 1228.22 588.727 1227.77 604.206 C 1227.69 606.791 1226.91 607.866 1224.97 609.13 C 1223.59 609.226 1219.72 609.611 1218.9 608.918 C 1214.6 605.321 1219.27 590.285 1216.12 584.535 C 1214.3 581.217 1212.92 581.334 1210.06 580.095 C 1199.15 587.545 1206.4 598.02 1203.46 608.315 C 1200.87 609.97 1200.79 610.038 1197.83 609.835 C 1194.8 607.499 1194.43 606.935 1193.7 602.467 C 1192.97 597.978 1193.03 576.193 1195.16 573.417 C 1198.95 572.258 1201.68 573.889 1206.16 574.997 L 1210.65 572.069 z"/>
<path transform="translate(0,0)" fill="rgb(18,18,18)" d="M 866.558 572.016 C 887.848 571.751 885.208 593.707 882.075 608.993 C 864.906 613.173 878.137 591.078 870.679 582.361 C 866.352 580.569 867.782 581.032 862.818 581.667 C 856.742 590.712 862.24 598.997 859.292 607.712 C 856.621 610.752 857.784 610.304 854.41 611.126 C 846.392 607.811 848.59 577.225 851.17 573.825 C 854.048 573.861 856.489 574.124 859.336 574.401 L 860.003 574.918 C 862.932 575.372 863.478 574.121 866.558 572.016 z"/>
<path transform="translate(0,0)" fill="rgb(18,18,18)" d="M 1016.84 572.859 C 1020.41 572.69 1022.89 572.071 1025.67 574.036 C 1031.9 584.483 1022.31 595.328 1030.42 600.687 C 1034.01 601.084 1034.34 601.297 1037.39 599.695 C 1044.82 591.767 1034.66 579.537 1042.59 573.041 C 1045.75 572.37 1046.13 572.393 1049.16 573.48 C 1051.05 576.512 1050.3 578.614 1050.26 582.75 C 1050.38 590.9 1050.73 599.709 1050.04 607.784 C 1048.13 610.351 1049.36 609.519 1046.15 610.254 C 1042.83 609.386 1042.45 608.822 1040.12 606.745 C 1035.7 606.915 1035.96 610.185 1029.46 610.215 C 1012.6 610.292 1016.69 584.849 1016.84 572.859 z"/>
<path transform="translate(0,0)" fill="rgb(18,18,18)" d="M 1111.14 292.374 C 1102.61 287.682 1103.45 275.709 1114 273.781 L 1114.96 274.4 L 1115.8 275.395 C 1116.91 276.737 1117.53 277.665 1118.48 279.116 C 1121.08 279.361 1122.75 279.231 1125.36 279.104 C 1128.06 280.604 1129.59 281.131 1132.79 281.002 C 1133.19 280.208 1135.83 277.171 1136.56 276.295 C 1143.44 293.118 1142.25 303.852 1124.8 312.223 L 1123.68 313.969 L 1123.22 313.981 C 1122.97 311.753 1123.09 308.435 1123.1 306.108 C 1121.35 304.944 1118.6 304.071 1116.55 303.315 C 1114.94 302.986 1115.02 302.803 1113.52 301.933 C 1111.56 298.634 1112.23 295.929 1112.5 291.976 L 1111.14 292.374 z"/>
<path transform="translate(0,0)" fill="rgb(214,213,213)" d="M 1132.79 281.002 C 1133.19 280.208 1135.83 277.171 1136.56 276.295 C 1143.44 293.118 1142.25 303.852 1124.8 312.223 L 1123.68 313.969 L 1123.22 313.981 C 1122.97 311.753 1123.09 308.435 1123.1 306.108 C 1132.91 305.221 1137.74 288.783 1132.79 281.002 z"/>
<path transform="translate(0,0)" fill="rgb(18,18,18)" d="M 1244.02 572.167 C 1244.93 572.107 1245.85 572.079 1246.77 572.082 C 1253.45 572.12 1265.18 574.318 1263.36 583.136 C 1257.96 583.775 1246.68 579.237 1243.35 582.29 C 1247.68 590.041 1258.48 585.374 1263.83 593.303 C 1267.01 603.476 1260.95 607.455 1252.42 610.044 C 1251.51 610.08 1250.61 610.089 1249.7 610.072 C 1243.77 609.971 1237.43 608.643 1233.16 604.188 C 1231.93 600.702 1232 602.197 1233.01 598.534 C 1239.63 594.496 1243.81 603.768 1252.47 601.754 L 1253.85 599.523 L 1253.38 597.573 C 1247.94 592.91 1236.18 595.022 1233.3 587.34 C 1230.29 579.335 1237.76 574.136 1244.02 572.167 z"/>
<path transform="translate(0,0)" fill="rgb(18,18,18)" d="M 994.998 564.044 C 1009.81 563.583 1001.66 564.404 1006.87 572.561 L 1011.56 573.044 C 1013.01 575.875 1012.7 574.388 1012.33 577.695 C 1005.72 583.458 1002.98 591.715 1006.93 599.962 C 1013.31 603.311 1012.56 602.804 1012.62 609.385 C 989.608 611.629 996.473 598.073 994.465 581.401 L 991.314 580.035 C 989.683 577.109 990.18 578.073 990.574 574.102 C 995.992 569.947 994.824 570.48 994.998 564.044 z"/>
<path transform="translate(0,0)" fill="rgb(18,18,18)" d="M 1115.03 564.038 C 1118.17 563.986 1120.37 564.012 1123.5 564.256 C 1127.34 569.711 1121.29 571.951 1131.2 572.953 L 1132.28 574.598 C 1131.99 578.826 1130.44 578.621 1128.21 581.361 C 1124.5 585.916 1123.13 598.954 1129.65 601.686 C 1132.66 602.95 1132.34 606.203 1132.71 609.374 C 1109.76 611.539 1116.28 598.77 1114.54 581.618 C 1113.34 580.796 1113 580.645 1111.69 580.114 L 1110.47 579.626 C 1109.41 577.151 1109.84 576.55 1110.55 573.759 C 1116.12 570.363 1114.89 570.094 1115.03 564.038 z"/>
<path transform="translate(0,0)" fill="rgb(214,213,213)" d="M 921.103 294.082 C 923.928 295.192 937.647 300.658 939.919 301.067 C 938.539 306.871 937.371 317.987 940.798 323.084 C 923.876 326.811 925.593 315.708 913.058 316.85 L 910.791 314.519 L 910.973 312.475 C 917.921 307.461 917.627 302.919 921.103 294.082 z"/>
<path transform="translate(0,0)" fill="rgb(18,18,18)" d="M 1057.18 559.827 C 1060.83 559.726 1064.16 559.172 1067.23 560.877 C 1068.05 565.638 1067.72 602.103 1067.76 609.151 C 1063.97 609.383 1060.86 610.078 1057.76 608.217 C 1056.54 603.112 1057.15 566.957 1057.18 559.827 z"/>
<path transform="translate(0,0)" fill="rgb(18,18,18)" d="M 945.399 571.747 C 949.08 572.062 950.282 571.655 952.108 574.769 C 952.007 577.856 952.518 578.777 950.916 580.92 C 947.076 581.714 946.014 581.928 942.316 583.546 C 937.489 588.366 940.839 598.644 939.709 607.592 C 937.748 609.866 935.613 609.616 932.064 610.391 C 931.925 610.306 930.592 609.535 930.528 609.294 C 928.852 603.021 927.553 576.829 931.543 572.963 C 936.827 571.914 935.425 573.28 941.728 574.772 L 945.399 571.747 z"/>
<path transform="translate(0,0)" fill="rgb(18,18,18)" d="M 1137.07 572.88 C 1141.09 572.687 1142.42 572.519 1146.48 573.433 C 1147.8 576.831 1147.37 603.523 1147.37 609.316 C 1143.74 609.492 1140.12 609.958 1137.39 607.89 C 1136.31 599.858 1136.98 581.701 1137.07 572.88 z"/>
<path transform="translate(0,0)" fill="rgb(18,18,18)" d="M 1271.39 560.832 C 1274.83 560.793 1279.13 560.441 1281.84 562.029 C 1282.67 570.073 1281.8 584.936 1281.53 593.519 C 1277.88 593.539 1276.58 593.652 1273.01 592.696 C 1271.22 589.673 1271.45 565.41 1271.39 560.832 z"/>
<path transform="translate(0,0)" fill="rgb(18,18,18)" d="M 961.557 353.521 C 967.86 355.026 967.102 354.765 967.607 361.29 C 966.418 368.026 965.54 373.652 964.751 380.476 L 963.716 383.351 C 960.592 384.183 961.521 383.872 957.733 382.054 C 960.477 373.969 961.074 362.094 961.557 353.521 z"/>
<path transform="translate(0,0)" fill="rgb(18,18,18)" d="M 1018.2 343.197 C 1027.59 349.893 1029.2 353.038 1032.13 364.273 C 1029.84 365.86 1027.8 365.335 1025.89 363.732 C 1023.62 357.075 1022.42 354.637 1017.36 349.906 C 1016.81 348.069 1017.74 345.222 1018.2 343.197 z"/>
<path transform="translate(0,0)" fill="rgb(18,18,18)" d="M 1273.14 599.589 C 1275.74 597.526 1279.53 597.983 1281.57 600.606 C 1283.61 603.228 1283.12 607.01 1280.48 609.025 C 1277.87 611.015 1274.15 610.532 1272.13 607.943 C 1270.12 605.353 1270.57 601.625 1273.14 599.589 z"/>
<path transform="translate(0,0)" fill="rgb(18,18,18)" d="M 1140.42 557.462 C 1143.1 556.547 1146.04 557.759 1147.29 560.293 C 1148.54 562.828 1147.71 565.897 1145.36 567.463 C 1143.54 568.673 1141.19 568.722 1139.32 567.589 C 1137.46 566.456 1136.42 564.346 1136.65 562.176 C 1136.89 560.006 1138.36 558.168 1140.42 557.462 z"/>
</svg>