<svg version="1.1" xmlns="http://www.w3.org/2000/svg" style="display: block;" viewBox="0 0 2048 1307" width="1000" height="638" preserveAspectRatio="none">
<defs>
	<linearGradient id="Gradient1" gradientUnits="userSpaceOnUse" x1="1035.7" y1="466.911" x2="1051.33" y2="469.935">
		<stop class="stop0" offset="0" stop-opacity="1" stop-color="rgb(74,61,72)"/>
		<stop class="stop1" offset="1" stop-opacity="1" stop-color="rgb(112,114,114)"/>
	</linearGradient>
	<linearGradient id="Gradient2" gradientUnits="userSpaceOnUse" x1="1050.97" y1="462.768" x2="1072.33" y2="472.334">
		<stop class="stop0" offset="0" stop-opacity="1" stop-color="rgb(72,67,71)"/>
		<stop class="stop1" offset="1" stop-opacity="1" stop-color="rgb(127,127,128)"/>
	</linearGradient>
	<linearGradient id="Gradient3" gradientUnits="userSpaceOnUse" x1="1318.65" y1="479.24" x2="1332.7" y2="452.008">
		<stop class="stop0" offset="0" stop-opacity="1" stop-color="rgb(104,104,105)"/>
		<stop class="stop1" offset="1" stop-opacity="1" stop-color="rgb(133,130,130)"/>
	</linearGradient>
	<linearGradient id="Gradient4" gradientUnits="userSpaceOnUse" x1="948.359" y1="465.996" x2="964.863" y2="473.462">
		<stop class="stop0" offset="0" stop-opacity="1" stop-color="rgb(83,76,81)"/>
		<stop class="stop1" offset="1" stop-opacity="1" stop-color="rgb(127,128,129)"/>
	</linearGradient>
	<linearGradient id="Gradient5" gradientUnits="userSpaceOnUse" x1="984.053" y1="474.037" x2="973.873" y2="473.969">
		<stop class="stop0" offset="0" stop-opacity="1" stop-color="rgb(93,91,90)"/>
		<stop class="stop1" offset="1" stop-opacity="1" stop-color="rgb(129,128,130)"/>
	</linearGradient>
	<linearGradient id="Gradient6" gradientUnits="userSpaceOnUse" x1="1366.42" y1="474.239" x2="1356.09" y2="473.738">
		<stop class="stop0" offset="0" stop-opacity="1" stop-color="rgb(95,93,94)"/>
		<stop class="stop1" offset="1" stop-opacity="1" stop-color="rgb(134,133,135)"/>
	</linearGradient>
</defs>
<path transform="translate(0,0)" fill="rgb(255,255,255)" d="M 0 0 L 2048 0 L 2048 1307 L 0 1307 L 0 1104.6 L 0 983.322 L 0 0 z"/>
<path transform="translate(0,0)" fill="rgb(16,138,254)" d="M 0 983.322 C 5.28434 967.788 8.12191 955.674 14.8947 940.174 C 39.4713 884.159 82.9669 838.572 137.768 811.394 C 201.028 780.121 245.665 785.088 313.044 785.09 L 469.183 785.122 L 953.595 785.138 L 1521.61 785.137 L 1707.23 785.119 C 1760.96 785.102 1814.1 780.311 1865.61 797.818 C 1931.74 819.881 1986.23 867.581 2016.86 930.206 C 2046.85 991.634 2051.41 1062.41 2029.54 1127.18 C 2007.11 1193.08 1959.26 1247.27 1896.64 1277.68 C 1866.73 1292.26 1834.25 1300.81 1801.04 1302.86 C 1777.36 1304.39 1748.16 1303.61 1724.01 1303.61 L 1592.96 1303.58 L 1185.18 1303.57 L 616.292 1303.57 L 363.823 1303.59 L 286.811 1303.61 C 243.09 1303.6 211.385 1304.31 169.294 1289.73 C 102.75 1267.07 48.2071 1218.45 18.0911 1154.93 C 13.2029 1144.73 9.09751 1134.18 5.81033 1123.36 C 4.43875 1118.96 1.57962 1108.4 0 1104.6 L 0 983.322 z"/>
<path transform="translate(0,0)" fill="rgb(83,169,250)" d="M 248.279 810.43 C 283.652 809.166 326.958 810.278 362.752 810.278 L 587.074 810.278 L 1263.3 810.285 L 1633.61 810.27 L 1739.61 810.261 C 1762.62 810.246 1792.79 809.401 1814.9 812.501 C 1862.11 818.939 1906.21 839.645 1941.32 871.846 C 1987.19 914.594 2015.02 972.103 2017.01 1035.07 C 2019.57 1097.89 1996.55 1159.07 1953.21 1204.63 C 1909.18 1251.35 1851.7 1275.43 1787.98 1277.32 C 1750.33 1278.37 1708.19 1277.45 1670.13 1277.45 L 1443.3 1277.45 L 756.766 1277.44 L 397.409 1277.47 L 293.205 1277.48 C 270.546 1277.48 240.923 1278.25 219.052 1275.19 C 173.186 1268.49 130.352 1248.29 96.0098 1217.16 C 49.4071 1175.16 21.8146 1116.06 19.5313 1053.36 C 16.9154 991.652 38.9701 931.438 80.8258 886.015 C 125.499 837.245 182.893 813.385 248.279 810.43 z"/>
<path transform="translate(0,0)" fill="rgb(232,232,229)" d="M 180.361 873.36 C 180.767 872.264 181.201 871.179 181.663 870.106 C 185.488 861.181 191.029 854.706 200.367 851.133 C 207.775 848.233 216.042 848.457 223.282 851.756 C 232.295 855.804 237.079 862.69 240.36 871.647 C 278.213 881.247 307.065 902.834 327.428 936.397 C 331.56 943.208 338.481 957.565 340.167 965.243 C 368.194 972.085 365.461 970.262 365.665 1001.31 C 365.827 1025.88 366.145 1026.23 342.453 1028.8 L 340.084 1034.78 C 344.853 1037.73 348.606 1037.4 354.828 1041.12 C 357.547 1038.12 358.62 1036.51 362.518 1035.11 C 370.172 1036.18 366.354 1043.44 375.12 1045.3 C 375.83 1045.44 376.542 1045.58 377.257 1045.69 C 379.735 1047.66 380.154 1047.92 381.042 1050.92 C 380.964 1057.93 373.915 1062.89 369.506 1068.44 C 366.806 1079.39 363.773 1087.76 353.397 1093.95 C 346.454 1098.09 338.125 1099.22 330.328 1097.09 C 323.746 1095.28 320.047 1092.59 315.29 1087.94 C 307.361 1091.99 302.902 1094.3 293.847 1095.29 C 295.145 1104.62 295.552 1110.84 289.37 1118.86 C 286.032 1123.15 281.088 1125.89 275.682 1126.45 C 268.579 1127.23 263.161 1125.04 257.054 1121.72 L 255.915 1122.21 C 254.684 1128.31 253.889 1131.87 251.928 1137.74 L 248.317 1146.82 C 237.752 1157.79 200.666 1155.59 186.196 1153.45 L 177.03 1151.86 C 155.222 1147.87 157.564 1135.82 155.758 1116.78 C 154.835 1116.17 152.809 1115.19 151.741 1114.62 C 147.558 1108.09 147.332 1092.46 150.02 1085.42 C 144.358 1084.16 131.947 1079.08 126.648 1076.58 C 106.139 1065.19 93.5972 1052.55 85.7202 1030.11 C 79.0329 1029.8 64.7471 1029.49 63.5381 1021.07 C 61.5654 1007.32 60.1656 987.919 64.7619 974.753 C 66.2713 970.43 82.4528 968.132 86.7206 967.303 C 103.668 919.775 132.098 889.534 180.361 873.36 z"/>
<path transform="translate(0,0)" fill="rgb(36,35,35)" d="M 264.132 1088.2 C 269.234 1087.51 277.733 1085.03 282.977 1083.66 L 290.188 1089.31 L 293.847 1095.29 C 295.145 1104.62 295.552 1110.84 289.37 1118.86 C 286.032 1123.15 281.088 1125.89 275.682 1126.45 C 268.579 1127.23 263.161 1125.04 257.054 1121.72 L 255.915 1122.21 C 254.684 1128.31 253.889 1131.87 251.928 1137.74 L 248.317 1146.82 C 237.752 1157.79 200.666 1155.59 186.196 1153.45 L 177.03 1151.86 C 155.222 1147.87 157.564 1135.82 155.758 1116.78 C 154.835 1116.17 152.809 1115.19 151.741 1114.62 C 147.558 1108.09 147.332 1092.46 150.02 1085.42 C 181.721 1095.48 231.728 1094.93 264.132 1088.2 z"/>
<path transform="translate(0,0)" fill="rgb(232,232,229)" d="M 155.758 1116.78 C 164.347 1118.55 247.072 1123.74 255.915 1122.21 C 254.684 1128.31 253.889 1131.87 251.928 1137.74 L 248.317 1146.82 C 237.752 1157.79 200.666 1155.59 186.196 1153.45 L 177.03 1151.86 C 155.222 1147.87 157.564 1135.82 155.758 1116.78 z"/>
<path transform="translate(0,0)" fill="rgb(214,214,213)" d="M 264.132 1088.2 C 269.234 1087.51 277.733 1085.03 282.977 1083.66 L 290.188 1089.31 L 293.847 1095.29 C 295.145 1104.62 295.552 1110.84 289.37 1118.86 C 286.032 1123.15 281.088 1125.89 275.682 1126.45 C 268.579 1127.23 263.161 1125.04 257.054 1121.72 C 259.558 1119.36 261.454 1116.86 263.614 1114.2 C 264.033 1108.95 265.469 1092.49 264.132 1088.2 z"/>
<path transform="translate(0,0)" fill="rgb(214,214,213)" d="M 307.369 1072.48 C 319.631 1064.83 328.636 1056.84 335.534 1044 C 336.674 1041.89 339.049 1036.18 340.084 1034.78 C 344.853 1037.73 348.606 1037.4 354.828 1041.12 C 357.547 1038.12 358.62 1036.51 362.518 1035.11 C 370.172 1036.18 366.354 1043.44 375.12 1045.3 C 375.83 1045.44 376.542 1045.58 377.257 1045.69 C 379.735 1047.66 380.154 1047.92 381.042 1050.92 C 380.964 1057.93 373.915 1062.89 369.506 1068.44 C 366.806 1079.39 363.773 1087.76 353.397 1093.95 C 346.454 1098.09 338.125 1099.22 330.328 1097.09 C 323.746 1095.28 320.047 1092.59 315.29 1087.94 C 313.115 1085.57 311.812 1083.16 310.132 1080.43 L 307.369 1072.48 z"/>
<path transform="translate(0,0)" fill="rgb(36,35,35)" d="M 354.828 1041.12 C 357.547 1038.12 358.62 1036.51 362.518 1035.11 C 370.172 1036.18 366.354 1043.44 375.12 1045.3 C 375.83 1045.44 376.542 1045.58 377.257 1045.69 C 379.735 1047.66 380.154 1047.92 381.042 1050.92 C 380.964 1057.93 373.915 1062.89 369.506 1068.44 C 369.441 1067.76 369.365 1067.09 369.277 1066.41 C 367.778 1054.49 363.988 1048.26 354.828 1041.12 z"/>
<path transform="translate(0,0)" fill="rgb(214,214,213)" d="M 85.7202 1030.11 C 79.0329 1029.8 64.7471 1029.49 63.5381 1021.07 C 61.5654 1007.32 60.1656 987.919 64.7619 974.753 C 66.2713 970.43 82.4528 968.132 86.7206 967.303 C 81.8172 990.149 79.9467 1006.92 85.7202 1030.11 z"/>
<path transform="translate(0,0)" fill="rgb(214,214,213)" d="M 340.167 965.243 C 368.194 972.085 365.461 970.262 365.665 1001.31 C 365.827 1025.88 366.145 1026.23 342.453 1028.8 C 348.139 1009.51 346.352 984.238 340.167 965.243 z"/>
<path transform="translate(0,0)" fill="rgb(214,214,213)" d="M 180.361 873.36 C 180.767 872.264 181.201 871.179 181.663 870.106 C 185.488 861.181 191.029 854.706 200.367 851.133 C 207.775 848.233 216.042 848.457 223.282 851.756 C 232.295 855.804 237.079 862.69 240.36 871.647 C 219.365 868.261 201.214 867.586 180.361 873.36 z"/>
<path transform="translate(0,0)" fill="rgb(36,35,35)" d="M 290.188 1089.31 C 293.143 1086.2 304.573 1083.06 310.132 1080.43 C 311.812 1083.16 313.115 1085.57 315.29 1087.94 C 307.361 1091.99 302.902 1094.3 293.847 1095.29 L 290.188 1089.31 z"/>
<path transform="translate(0,0)" fill="rgb(83,169,250)" d="M 307.369 1072.48 L 310.132 1080.43 C 304.573 1083.06 293.143 1086.2 290.188 1089.31 L 282.977 1083.66 C 293.095 1079.59 297.961 1078.15 307.369 1072.48 z"/>
<path transform="translate(0,0)" fill="rgb(36,35,35)" d="M 201.495 900.282 C 259.686 893.412 312.352 940.031 316.533 997.13 C 320.711 1054.19 270.494 1061.89 227.249 1064.62 C 187.963 1066.75 118.593 1065.2 112.179 1014.01 C 105.395 959.874 148.224 907.999 201.495 900.282 z"/>
<path transform="translate(0,0)" fill="rgb(232,232,229)" d="M 203.462 994.134 C 218.848 993.286 237.279 990.342 229.151 1013.69 C 227.525 1018.36 227.328 1020.7 224.368 1025.21 C 204.484 1038.91 200.033 1006.78 203.462 994.134 z"/>
<path transform="translate(0,0)" fill="rgb(232,232,229)" d="M 165.25 962.225 C 175.272 960.76 193.255 968.856 193.613 979.08 C 189.689 982.943 175.592 980.806 164.73 983.822 C 162.742 984.927 162.845 984.795 160.542 984.701 L 159.786 983.19 C 164.274 976.72 182.931 979.068 188.31 976.809 C 186.13 968.486 170.658 967.481 165.25 962.225 z"/>
<path transform="translate(0,0)" fill="rgb(232,232,229)" d="M 258.979 961.237 L 259.712 962.397 C 258.674 965.599 247.727 968.339 244.239 970.986 C 241.26 973.248 239.347 974.82 236.674 977.461 C 244.505 977.637 260.627 978.032 266.694 982.694 L 266.34 984.535 L 267.305 984.451 L 267.331 984.537 L 264.703 984.747 C 251.621 979.477 240.087 984.063 233.992 979.658 C 232.137 969.336 251.172 962.731 258.979 961.237 z"/>
<path transform="translate(0,0)" fill="rgb(0,0,0)" d="M 1140.74 904.718 L 1165.59 904.768 L 1165.56 931.701 C 1184.86 927.655 1200.91 931.506 1205.09 952.876 C 1206.54 959.852 1205.32 973.211 1206.94 976.441 L 1207.3 976.401 C 1207.26 982.077 1207.3 987.754 1207.42 993.428 C 1205.12 995.677 1206.35 1004.76 1205.63 1009.28 L 1180.73 1009.34 C 1180.68 998.361 1182.2 962.944 1179.16 954.927 C 1175.97 952.99 1177.38 953.518 1173.22 953.358 C 1161.41 957.774 1165.57 997.015 1165.72 1009.3 L 1140.68 1009.33 C 1140.72 993.791 1141.5 964.874 1139.6 950.38 L 1124.64 1009.26 L 1100.6 1009.29 C 1098.45 999.258 1094.8 988.047 1091.79 978.103 C 1089.17 988.387 1085.98 999.055 1083.02 1009.26 L 1059.42 1009.32 C 1052.47 983.261 1046.65 957.365 1039.29 931.23 L 1065.49 931.153 C 1067.82 941.096 1070.29 951.008 1072.87 960.888 C 1074.62 951.426 1078.46 940.431 1081.44 931.107 L 1103.13 931.135 C 1106.76 940.79 1108.99 951.304 1111.21 961.353 C 1114.39 950.497 1116.4 942.17 1118.71 931.08 L 1140.66 931.176 L 1140.74 904.718 z"/>
<path transform="translate(0,0)" fill="rgb(45,61,82)" d="M 1205.09 952.876 C 1206.54 959.852 1205.32 973.211 1206.94 976.441 L 1207.3 976.401 C 1207.26 982.077 1207.3 987.754 1207.42 993.428 C 1205.12 995.677 1206.35 1004.76 1205.63 1009.28 C 1204.46 1000.46 1205.17 963.656 1205.09 952.876 z"/>
<path transform="translate(0,0)" fill="rgb(255,255,255)" d="M 1048.89 938.282 C 1052.97 938.134 1054.88 937.92 1058.96 938.848 C 1062.61 942.787 1070.62 987.133 1071.9 995.633 C 1074.76 976.511 1081.12 956.98 1086.47 938.287 L 1098.05 938.342 C 1103.02 956.787 1108.46 974.637 1112.11 993.395 C 1116.71 974.822 1119.71 956.946 1124.84 938.292 C 1128.45 938.138 1132.36 937.257 1134.81 939.961 L 1134.27 943.231 C 1128.91 962.831 1123.77 982.492 1118.86 1002.21 L 1106.51 1002.2 C 1101.3 986.776 1095.97 964.135 1091.83 947.945 C 1089.23 962.983 1081.88 987.008 1077.48 1002.25 L 1064.91 1002.11 C 1061.64 984.322 1053.54 956.806 1048.89 938.282 z"/>
<path transform="translate(0,0)" fill="rgb(255,255,255)" d="M 1147.88 911.764 C 1151.59 911.672 1154.18 911.326 1157.69 912.563 C 1159.26 918.281 1158.21 939.696 1157.98 946.842 L 1158.94 945.93 C 1181.73 924.386 1200.75 942.517 1198.68 967.823 C 1198.19 973.813 1200.4 998.728 1196.27 1002 C 1192.79 1002.63 1192.2 1002.83 1189.05 1001.33 C 1186.91 997.465 1187.91 970.388 1187.93 963.75 C 1187.89 959.469 1187.46 954.483 1185.15 950.728 C 1182.48 945.434 1169.49 944.619 1165.6 948.348 C 1153.78 959.7 1160.27 986.166 1157.96 1000.99 L 1156.3 1002.14 C 1152.73 1002.16 1151.33 1002.8 1148.82 1001.05 C 1147.06 997.229 1147.89 921.398 1147.88 911.764 z"/>
<path transform="translate(0,0)" fill="rgb(0,0,0)" d="M 803.79 930.226 C 824.061 928.824 826.124 935.922 837.52 936.332 C 837.894 934.813 838.253 933.291 838.596 931.764 C 841.958 930.145 858.075 931.082 862.775 931.189 C 863.027 947.035 862.114 963.166 862.794 978.968 C 862.977 983.217 863.457 984.934 866.301 987.299 C 870.636 987.807 868.969 988.1 872.751 986.448 C 880.205 978.535 877.567 944.424 877.527 931.171 L 902.349 931.178 C 903.282 955.319 902.404 984.578 902.624 1009.26 C 899.35 1009.31 878.79 1008.47 877.788 1008.73 C 868.929 1011.1 859.49 1011.48 850.981 1007.44 C 842.293 1003.33 840.672 996.043 837.781 987.649 C 837.022 990.343 836.134 993.585 834.829 996.044 C 831.468 1002.3 825.75 1006.96 818.942 1008.98 C 805.725 1013.02 791.34 1010.01 779.324 1003.78 C 779.32 995.269 779.458 986.755 779.737 978.245 C 786.63 981.517 805.445 992.373 812.246 985.969 C 807.621 979.299 797.823 978.806 792.305 974.589 C 769.381 957.068 780.912 936.281 803.79 930.226 z"/>
<path transform="translate(0,0)" fill="rgb(255,255,255)" d="M 845.008 938.314 C 846.144 938.266 854.709 937.794 855.022 939.054 C 858.306 952.289 846.26 1012.87 878.018 991.269 C 885.177 986.399 884.634 977.111 884.982 969.656 C 885.272 963.425 882.363 942.067 886.855 938.424 C 889.96 938.216 891.872 937.682 894.367 939.361 C 896.115 942.306 895.373 947.986 895.223 951.75 C 895.178 959.866 898.436 1002.89 890.961 1003.55 C 887.096 1000.91 887.722 997.949 884.582 995.201 C 878.025 1000.56 866.179 1007.1 857.73 1003.19 C 839.351 994.665 844.83 955.18 845.008 938.314 z"/>
<path transform="translate(0,0)" fill="rgb(255,255,255)" d="M 807.93 937.276 C 813.013 937.258 825.257 938.288 828.323 942.592 C 825.495 957.908 812.554 941.047 803.675 946.681 C 781.765 960.586 827.651 966.089 829.554 980.869 C 831.554 996.395 823.854 1000.16 810.466 1003.16 C 803.269 1003.41 793.298 1003.67 787.372 998.824 C 786.006 995.488 785.529 995.897 786.178 993.053 C 791.5 989.467 820.631 1003.02 819.529 984.327 C 819.14 977.72 802.597 972.481 796.693 968.445 C 778.274 955.854 788.636 940.04 807.93 937.276 z"/>
<path transform="translate(0,0)" fill="rgb(83,169,250)" d="M 837.538 941.733 C 837.977 944.453 838.023 976.585 838.108 980.8 C 833.245 970.428 831.241 967.197 821.211 962.048 C 817.101 960.243 810.32 957.786 807.783 954.312 L 808.968 953.485 C 817.819 954.191 821.279 956.118 829.123 960.037 C 831.965 953.088 833.914 948.389 837.538 941.733 z"/>
<path transform="translate(0,0)" fill="rgb(0,0,0)" d="M 987.338 1099.62 C 990.047 1069.31 1009.24 1064.51 1035.01 1075.94 C 1031.88 1082.78 1029.85 1090.15 1027.65 1097.36 C 1023.54 1095.96 1018.97 1094.11 1014.81 1095.21 L 1014.78 1096.45 C 1018.24 1098.48 1023.07 1098.06 1027.19 1098.11 L 1027.12 1110.52 C 1050.61 1084.42 1086.75 1096.27 1090.31 1131.56 C 1090.28 1134.28 1090.08 1140.8 1090.38 1143.16 C 1089.82 1152.25 1086.05 1160.85 1079.75 1167.43 C 1073.58 1173.9 1065.07 1177.62 1056.13 1177.75 C 1047.16 1177.91 1038.49 1174.49 1032.05 1168.24 C 1016.95 1153.61 1021.88 1137.39 1021.43 1121.34 C 1019.23 1119.97 1015.41 1120.49 1012.62 1120.57 L 1012.71 1176.26 L 987.695 1176.19 C 987.434 1157.83 987.671 1138.92 987.68 1120.51 L 976.197 1120.43 L 976.104 1103.92 L 987.338 1099.62 z"/>
<path transform="translate(0,0)" fill="rgb(255,255,255)" d="M 1051.61 1104.21 C 1092.07 1102.57 1094.33 1162.43 1059.53 1169.78 C 1018.54 1171.21 1016.81 1111.35 1051.61 1104.21 z"/>
<path transform="translate(0,0)" fill="rgb(0,0,0)" d="M 1049.77 1113.2 C 1074.91 1111.21 1077.04 1136.15 1068.68 1154.38 C 1067.33 1157.3 1064.03 1159.29 1061.23 1160.84 C 1036.39 1162.8 1034.09 1138.1 1042.07 1120.01 C 1043.5 1116.76 1046.72 1114.91 1049.77 1113.2 z"/>
<path transform="translate(0,0)" fill="rgb(83,169,250)" d="M 1051.37 1119.9 C 1054.58 1119.85 1058.74 1119.65 1060.99 1122.13 C 1068.17 1130.05 1066.79 1147.2 1059.58 1154.11 C 1056.17 1154.2 1052.18 1154.46 1049.78 1151.71 C 1042.85 1143.79 1044.07 1126.7 1051.37 1119.9 z"/>
<path transform="translate(0,0)" fill="rgb(255,255,255)" d="M 1008.67 1078.25 C 1014.33 1077.97 1020.63 1077.43 1025.25 1080.98 L 1025.52 1083.13 C 1018.66 1093.26 1012.22 1083.29 1005.38 1092.02 C 1003.84 1096.28 1004.57 1099.6 1005.9 1103.76 C 1007.16 1107.7 1013.85 1103.1 1019.18 1105.88 C 1020.18 1108.73 1019.92 1109.27 1019.55 1112.38 C 1016.59 1113.59 1009.11 1113.19 1005.5 1113.17 C 1004.98 1127 1005.35 1143.48 1005.34 1157.51 C 1005.41 1160.75 1005.96 1166.64 1003.99 1168.74 C 1000.96 1168.6 997.217 1169.03 995.308 1167.47 C 993.931 1156.76 994.727 1125.54 994.759 1113.28 C 989.806 1113.17 987.919 1113.76 984.336 1111.25 L 984.602 1109.38 C 987.189 1106.62 991.086 1105.91 994.765 1104.83 C 994.665 1092.62 994.545 1081.73 1008.67 1078.25 z"/>
<path transform="translate(0,0)" fill="rgb(0,0,0)" d="M 1352.78 916.586 L 1371.1 916.786 L 1371.06 931.184 L 1387.28 931.22 L 1387.32 946.277 C 1396.57 934.125 1410.21 926.357 1425.51 930.839 C 1458.61 940.534 1462.06 990.601 1432.67 1007.45 C 1412.6 1014.4 1401.77 1010.27 1387.86 995.416 L 1387.8 1006.69 C 1378.85 1009.69 1364.76 1013.77 1356.3 1007.24 C 1340.91 995.346 1348.45 971.106 1345.02 954.48 C 1342.89 953.586 1342.62 954.04 1340.74 953.745 C 1335.41 952.91 1336.84 940.574 1336.93 937.176 C 1340.11 935.798 1343.95 933.708 1347.1 932.089 C 1349.17 927.797 1351.19 921.247 1352.78 916.586 z"/>
<path transform="translate(0,0)" fill="rgb(255,255,255)" d="M 1413.38 937.233 C 1446.24 935.597 1454.13 975.954 1435.01 996.818 C 1431.82 1000.31 1426.64 1001.81 1422.16 1003.25 C 1391.63 1003.93 1382.45 976.801 1393.77 950.848 C 1397.11 943.181 1405.5 939.212 1413.38 937.233 z"/>
<path transform="translate(0,0)" fill="rgb(0,0,0)" d="M 1412.85 946.09 C 1437.51 944.865 1438.83 973.466 1428.92 989.701 C 1427.63 991.811 1423.41 993.667 1421.07 994.747 C 1394.23 996.446 1393.54 954.23 1412.85 946.09 z"/>
<path transform="translate(0,0)" fill="rgb(83,169,250)" d="M 1414.37 952.99 C 1414.92 953.001 1415.46 953.023 1416.01 953.054 C 1431.22 953.985 1429.39 980.326 1420.55 987.947 C 1415.65 987.747 1412.23 987.764 1409.69 982.753 C 1405.42 974.323 1405.19 958.114 1414.37 952.99 z"/>
<path transform="translate(0,0)" fill="rgb(255,255,255)" d="M 1358.09 923.536 L 1362.4 924.335 C 1365.14 928.362 1364.15 933.083 1363.91 938.256 L 1365.91 938.192 C 1371.92 938.019 1375.65 937.106 1380.06 941.28 L 1380.09 943.15 C 1375.51 947.636 1370.01 946.419 1363.96 946.246 C 1363.78 958.444 1362.61 977.72 1365.08 989.458 C 1366.8 997.661 1374.86 992.631 1380.26 995.467 L 1380.72 999.34 C 1380.18 1001.47 1380.59 1000.43 1378.62 1002.3 C 1344.19 1012.38 1354.72 968.403 1353.29 950.277 C 1353.09 947.756 1346.23 945.714 1344.07 943.052 C 1345.84 940.649 1350.46 938.58 1353.3 937.032 L 1358.09 923.536 z"/>
<path transform="translate(0,0)" fill="rgb(83,169,250)" d="M 1371.06 953.758 L 1384.05 953.749 C 1381.47 967.266 1381.24 972.104 1384.03 985.302 C 1379.96 986.336 1375.37 987.158 1371.22 987.99 C 1370.81 977.268 1371.1 964.63 1371.06 953.758 z"/>
<path transform="translate(0,0)" fill="rgb(0,0,0)" d="M 720.945 916.654 L 739.133 916.768 L 739.142 931.173 L 755.118 931.161 L 755.146 953.709 L 739.045 953.748 L 739.29 987.927 C 746.422 986.839 749.161 985.833 755.81 983.416 L 755.929 1006.41 C 752.529 1007.81 749.021 1008.93 745.439 1009.76 C 738.832 1011.29 730.727 1011.28 724.88 1007.47 C 707.585 996.186 716.468 968.339 713.304 954.519 L 711.783 953.808 C 708.645 957.36 711.093 970.287 710.812 977.908 C 704.013 1010.12 673.753 1023.42 648.628 997.124 C 640.642 988.765 640.528 973.466 641.365 962.402 C 643.306 936.723 671.107 920.686 693.341 935.039 C 696.259 936.889 701.701 942.81 704.752 943.25 L 705.315 937.954 C 706.716 935.843 712.322 933.462 714.93 932.157 L 720.945 916.654 z"/>
<path transform="translate(0,0)" fill="rgb(255,255,255)" d="M 672.558 937.199 C 700.795 935.975 709.962 965.532 700.282 987.751 C 696.27 996.961 689.996 1000.21 681.067 1003.23 C 649.88 1004.1 641.232 976.073 653.038 949.982 C 656.366 942.627 664.948 938.959 672.558 937.199 z"/>
<path transform="translate(0,0)" fill="rgb(0,0,0)" d="M 670.79 946.255 C 673.126 946.055 678.476 945.74 680.401 946.562 C 698.321 954.212 697.565 985.879 680.841 994.478 C 658.591 996.857 656.056 974.624 660.5 958.034 C 662.19 951.726 665.141 949.159 670.79 946.255 z"/>
<path transform="translate(0,0)" fill="rgb(83,169,250)" d="M 672.244 953.067 C 674.79 953.063 679.633 953.185 681.406 955.252 C 688.702 963.758 687.486 980.333 679.51 987.869 C 660.993 988.211 663.779 959.976 672.244 953.067 z"/>
<path transform="translate(0,0)" fill="rgb(255,255,255)" d="M 725.698 923.523 C 727.293 923.738 728.835 924.057 730.417 924.356 C 733.281 928.853 732.204 932.315 731.947 938.214 C 738.453 938.023 743.434 936.907 748.107 941.296 L 748.136 943.154 C 743.545 947.65 738.097 946.431 732.034 946.252 C 731.836 958.827 730.93 975.621 732.588 987.943 C 734.003 998.453 742.457 991.972 748.58 995.856 L 749.527 1000.14 C 744.914 1004.9 730.509 1004.36 726.714 999.425 C 717.876 987.936 721.242 960.539 721.295 946.569 C 717.525 946.466 713.282 947.301 712.6 942.996 C 714.65 939.828 717.89 938.72 721.304 937.115 L 725.698 923.523 z"/>
<path transform="translate(0,0)" fill="rgb(0,0,0)" d="M 1281.42 916.654 L 1299.81 916.771 L 1299.84 931.159 L 1315.95 931.155 L 1315.97 953.731 L 1299.77 953.748 C 1299.82 964.907 1299.62 977.086 1299.97 988.158 C 1306.84 986.756 1309.78 986.075 1316.27 983.552 L 1316.3 1006.74 C 1258.22 1026.28 1280.67 963.014 1273.52 954.003 L 1270.13 953.933 C 1268.23 956.18 1268.96 1002.89 1269.02 1009.28 C 1261.83 1009.3 1252.83 1008.54 1245.98 1008.85 C 1230.03 1009.58 1213.36 1014.28 1207.42 993.428 C 1207.3 987.754 1207.26 982.077 1207.3 976.401 C 1209.78 968.725 1212.46 966.066 1218.98 962.034 L 1218 960.811 C 1215.18 953.415 1211.7 946.789 1208.16 939.73 C 1220.59 933.217 1234.38 927.138 1248.92 930.829 C 1256.09 932.648 1260.34 939.318 1264.85 940.026 C 1267.94 935.011 1270.21 935.074 1276.05 932.191 C 1277.88 927.026 1279.67 921.847 1281.42 916.654 z"/>
<path transform="translate(0,0)" fill="rgb(16,138,254)" d="M 1218 960.811 C 1224.94 957.122 1235.23 950.943 1243.24 954.209 L 1243.22 955.558 C 1234.69 959.08 1229.18 957.058 1218.98 962.034 L 1218 960.811 z"/>
<path transform="translate(0,0)" fill="rgb(255,255,255)" d="M 1234.6 937.232 C 1266.11 936.437 1261.72 954.921 1261.63 979.552 C 1261.6 986.809 1262.37 993.739 1261.56 1001.1 C 1259.11 1002.74 1259.04 1002.81 1256.04 1002.76 C 1252.89 1000.15 1253.48 999.554 1251.88 995.078 C 1242.22 996.206 1236.42 1013.67 1217.21 997.226 C 1214.29 992.149 1211.42 980.892 1214.31 975.618 C 1221.34 962.78 1240.04 966.935 1250.37 962.876 C 1251.84 959.769 1250.91 953.095 1249.05 950.462 C 1242.32 940.923 1229.29 950.555 1220.75 948.773 C 1218.19 946.435 1218.95 947.589 1218.35 943.633 C 1220.37 940.848 1230.88 937.994 1234.6 937.232 z"/>
<path transform="translate(0,0)" fill="rgb(0,0,0)" d="M 1244.49 971.378 C 1247.23 971.193 1247.4 971.132 1249.98 971.929 C 1253.89 977.418 1250.98 982.647 1247.62 987.566 C 1243.55 993.528 1239.95 994.249 1233.27 995.412 C 1225.37 992.477 1220.38 985.218 1226.81 977.905 C 1232.33 971.619 1236.75 971.873 1244.49 971.378 z"/>
<path transform="translate(0,0)" fill="rgb(83,169,250)" d="M 1235.08 979.236 C 1238.69 978.926 1241.04 978.143 1243.47 980.843 C 1243.01 983.782 1241.39 985.112 1239.4 987.422 L 1234.91 987.918 C 1231.89 986.595 1233.01 987.625 1231.45 984.716 C 1232.7 980.764 1231.84 982.227 1235.08 979.236 z"/>
<path transform="translate(0,0)" fill="rgb(255,255,255)" d="M 1286.89 923.357 C 1288.44 923.6 1289.8 924.033 1291.3 924.46 C 1293.8 927.908 1292.85 933.661 1292.71 938.249 C 1297.56 938.085 1307.74 936.586 1309.06 942.852 C 1304.59 947.684 1298.96 946.401 1292.78 946.233 C 1292.67 954.465 1292.51 962.805 1292.48 970.967 C 1292.67 975.826 1291.84 986.885 1294.39 991.03 C 1299.72 999.699 1307.02 987.909 1310.21 1000.24 C 1305.94 1003.58 1297.94 1004.19 1293.06 1002.59 C 1272.75 995.944 1287.07 963.368 1280.8 948.733 C 1279.95 946.749 1276.52 945.953 1274.67 945.508 L 1273.42 945.214 L 1273.03 943.013 C 1275.12 940.067 1278.69 938.748 1282.04 937.034 L 1286.89 923.357 z"/>
<path transform="translate(0,0)" fill="rgb(0,0,0)" d="M 956.774 947.743 C 958.315 945.495 960.592 942.291 962.386 940.33 C 968.086 934.058 976.089 930.37 984.56 930.109 C 1029.71 928.894 1014.36 978.864 1015.2 1003.85 C 995.218 1013.55 975.928 1014.53 960.05 997.522 C 951.268 984.765 951.69 970.153 954.155 955.619 C 953.08 955.433 952.004 955.254 950.927 955.08 C 945.641 954.223 941.777 952.995 937.269 956.253 C 930.727 965.442 933.123 996.755 933.251 1009.24 L 908.563 1009.31 C 908.12 984.132 908.304 956.294 908.726 931.117 C 918.346 930.938 932.695 933.515 939.648 930.126 C 946.779 929.639 951.55 930.681 958.406 932.109 C 957.889 937.323 957.345 942.535 956.774 947.743 z"/>
<path transform="translate(0,0)" fill="rgb(255,255,255)" d="M 982.193 937.194 C 1006.12 936.867 1010.45 951.559 1010.93 972.221 C 999.894 972.148 988.741 972.039 977.706 972.11 C 973.162 972.139 973.029 972.264 970.678 974.847 C 968.576 981.417 973.198 986.864 978.401 990.387 C 986.091 995.593 992.526 994.322 1001.02 992.454 C 1004.47 991.132 1004.91 990.289 1008.02 991.876 C 1009.96 997.574 1004.7 1000.65 999.817 1002.16 C 956.451 1015.63 943.358 949.179 982.193 937.194 z"/>
<path transform="translate(0,0)" fill="rgb(0,0,0)" d="M 981.814 946.114 C 991.02 945.566 1002.26 952.046 998.101 962.194 C 994.384 964.659 993.762 963.765 988.427 963.778 L 970.849 963.77 C 971.163 961.937 971.533 960.115 971.959 958.305 C 973.638 951.429 976.2 949.458 981.814 946.114 z"/>
<path transform="translate(0,0)" fill="rgb(255,255,255)" d="M 940.908 937.17 L 946.59 937.256 C 949.326 938.678 949.565 939.466 951.379 942.12 L 950.963 944.206 C 946.493 948.523 936.643 948.247 934.071 949.675 C 920.613 957.147 929.979 987.674 924.913 1000.49 C 924.18 1002.34 922.711 1002.32 920.836 1002.86 C 918.048 1002.37 917.649 1002.47 915.537 1000.75 C 915.459 991.866 914.115 942.498 916.502 938.84 C 919.561 938.166 919.946 938.225 922.987 939.014 C 925.595 942.492 924.963 944.799 925.507 949.85 C 931.315 942.624 932.486 940.47 940.908 937.17 z"/>
<path transform="translate(0,0)" fill="rgb(83,169,250)" d="M 978.184 979.892 C 984.077 979.842 1004.68 979.154 1009.02 980.481 L 1007.36 982.001 C 997.111 987.144 985.161 991.87 978.184 979.892 z"/>
<path transform="translate(0,0)" fill="rgb(0,0,0)" d="M 838.279 1102.69 C 856.591 1091.46 876.607 1094.76 884.07 1116.4 C 885.29 1120.59 884.889 1121.71 887.693 1124.42 C 886.501 1135.25 885.947 1140.06 888.135 1151.01 L 884.666 1150.45 C 885.174 1157.59 884.888 1168.79 884.924 1176.23 L 859.826 1176.18 C 859.678 1165.81 861.972 1125.98 857.039 1120.39 C 853.926 1119.79 853.722 1119.63 851.01 1120.95 C 844.352 1128.34 846.782 1164.17 846.884 1176.2 L 821.712 1176.17 C 821.543 1166.31 823.927 1125.35 818.611 1120.28 C 806.265 1119.44 808.27 1137.89 808.148 1146.41 C 808.006 1156.27 808.274 1166.35 808.369 1176.23 L 783.634 1176.2 L 783.699 1097.77 C 802.987 1098.12 823.946 1093.67 838.279 1102.69 z"/>
<path transform="translate(0,0)" fill="rgb(16,138,254)" d="M 884.07 1116.4 C 885.29 1120.59 884.889 1121.71 887.693 1124.42 C 886.501 1135.25 885.947 1140.06 888.135 1151.01 L 884.666 1150.45 C 883.975 1142.82 884.423 1125.3 884.07 1116.4 z"/>
<path transform="translate(0,0)" fill="rgb(255,255,255)" d="M 815.338 1104.19 C 835.766 1103.55 831.678 1111.64 838.36 1113.39 C 846.034 1106.51 850.714 1102.18 861.861 1103.86 C 876.937 1106.14 878.171 1124.28 877.904 1136.08 C 877.661 1146.8 878.332 1157.65 876.536 1168.12 C 874.132 1169.62 874.268 1169.54 871.408 1169.44 C 858.634 1160.01 878.692 1113.78 854.777 1112.46 C 836.455 1111.45 839.388 1141.47 839.457 1152.8 C 839.585 1157.48 840.633 1171.67 832.452 1170.21 C 821.353 1161.92 842.415 1101.26 809.711 1114.45 C 795.18 1120.31 804.478 1155.43 800.505 1168.57 C 793.395 1170.91 789.62 1164.75 790.35 1159.28 C 792.096 1146.21 788.552 1116.59 791.404 1105.69 C 794.713 1103.76 793.367 1103.93 796.795 1104.27 C 799.333 1106.02 800.213 1109.2 801.499 1112.2 C 807.418 1107.8 808.251 1105.95 815.338 1104.19 z"/>
<path transform="translate(0,0)" fill="rgb(0,0,0)" d="M 559.105 910.036 L 582.845 910.006 C 592.677 926.881 602.679 943.656 612.848 960.33 L 612.884 910.031 L 637.018 910.034 L 637.066 1009.33 L 613.326 1009.28 C 603.966 995.302 592.266 974.051 583.417 959.107 C 583.32 975.841 583.325 992.574 583.43 1009.31 L 559.099 1009.29 L 559.105 910.036 z"/>
<path transform="translate(0,0)" fill="rgb(255,255,255)" d="M 621.165 989.269 C 618.99 967.266 620.57 944.98 619.545 922.917 C 619.41 920.02 620.264 919.124 622.004 917.547 C 625.808 917.394 626.21 916.795 629.339 918.407 C 630.733 926.024 630.156 941.037 630.14 949.454 L 630.029 1002.18 L 617.383 1002.18 C 603.579 978.994 588.92 955.105 575.754 931.636 C 576.173 951.399 576.479 971.165 576.67 990.932 C 576.711 995.607 576.635 998.532 573.211 1002.04 C 569.526 1003.36 570.989 1003.42 567.685 1002.06 C 564.807 995.547 566.2 928.912 566.242 917.309 L 578.472 917.288 C 592.982 941.115 607.214 965.111 621.165 989.269 z"/>
<path transform="translate(0,0)" fill="rgb(0,0,0)" d="M 712.015 1097.17 C 724.747 1096.3 734.642 1097.74 742.608 1108.86 C 754.685 1125.71 753.612 1159.18 735.685 1171.92 C 726.518 1178.43 717.905 1177.68 707.514 1175.89 L 707.565 1186.75 L 707.55 1204.85 L 682.72 1204.8 C 682.509 1169.11 682.528 1133.42 682.779 1097.73 C 690.94 1097.6 706.081 1099.59 712.015 1097.17 z"/>
<path transform="translate(0,0)" fill="rgb(255,255,255)" d="M 715.512 1104.17 C 747.05 1102.45 749.616 1145.99 733.77 1163.92 C 723.856 1175.14 709.445 1170.4 699.914 1160.54 L 700.339 1178.27 C 700.421 1183.16 701.279 1192.33 699.143 1196.34 C 696.627 1197.94 692.354 1197.47 690.125 1195.63 C 689.124 1184.67 689.675 1165.68 689.701 1154.23 C 689.734 1139.65 689.164 1120.43 690.312 1106.16 C 693.542 1103.96 692.216 1104.2 695.671 1104.31 C 698.712 1106.38 699.211 1108.89 700.578 1112.41 C 706.888 1107.61 707.909 1105.88 715.512 1104.17 z"/>
<path transform="translate(0,0)" fill="rgb(0,0,0)" d="M 710.71 1113.2 C 712.02 1113.13 717.775 1112.79 718.612 1113.02 C 738.107 1118.49 735.941 1150.48 722.156 1160.82 C 720.167 1161 714.004 1161.3 712.272 1160.67 C 697.394 1155.32 697.728 1130.56 704.059 1118.98 C 705.565 1116.22 708.138 1114.72 710.71 1113.2 z"/>
<path transform="translate(0,0)" fill="rgb(83,169,250)" d="M 712.472 1119.89 C 714.66 1119.85 718.405 1119.65 720.007 1121.05 C 728.323 1128.31 725.198 1146.54 720.291 1154.11 C 718.059 1154.09 713.726 1154.26 712.097 1152.65 C 704.394 1145.03 705.68 1127.47 712.472 1119.89 z"/>
<path transform="translate(0,0)" fill="rgb(0,0,0)" d="M 1364.98 1097.2 C 1395.14 1095.03 1405.5 1115.17 1403.42 1143.74 C 1402.34 1158.47 1393.65 1175.45 1377.4 1176.46 C 1372.42 1176.78 1366.91 1175.65 1361.93 1176.95 C 1360.45 1180.05 1360.94 1184.14 1360.98 1187.75 L 1360.99 1204.85 L 1335.93 1204.8 L 1335.91 1097.76 C 1343.78 1097.59 1359.75 1099.58 1364.98 1097.2 z"/>
<path transform="translate(0,0)" fill="rgb(255,255,255)" d="M 1368.23 1104.22 C 1418.04 1101.44 1395.84 1201.82 1353.12 1160.8 C 1353.6 1165.96 1353.65 1171.54 1353.79 1176.75 C 1353.9 1182.18 1355.35 1193.5 1351.54 1197.19 C 1348.26 1197.21 1346.38 1197.56 1343.56 1195.94 C 1342.68 1189.43 1342.79 1114.55 1343.72 1106.42 C 1346.94 1104.2 1345.55 1104.54 1349.01 1104.71 C 1352.7 1107.31 1351.8 1108.39 1353.7 1112.45 C 1359.2 1108.33 1361.55 1105.83 1368.23 1104.22 z"/>
<path transform="translate(0,0)" fill="rgb(0,0,0)" d="M 1364.75 1113.08 C 1366.58 1113.02 1372.4 1112.78 1373.79 1113.29 C 1386.8 1118.1 1387.75 1137.28 1384.34 1148.41 C 1382.3 1155.04 1379.93 1158.03 1374.35 1161.02 C 1352.16 1161.7 1351.08 1141.97 1354.9 1124.31 C 1356.11 1118.69 1359.71 1115.55 1364.75 1113.08 z"/>
<path transform="translate(0,0)" fill="rgb(83,169,250)" d="M 1365.49 1119.97 C 1367.4 1119.94 1371.83 1119.67 1373.26 1120.92 C 1381.77 1128.37 1379.44 1146.05 1373.23 1154.18 C 1370.64 1154.13 1366.99 1154.33 1365.18 1152.51 C 1357.8 1145.08 1359.38 1126.83 1365.49 1119.97 z"/>
<path transform="translate(0,0)" fill="rgb(0,0,0)" d="M 1524.26 904.775 L 1549.32 904.755 L 1549.37 1009.29 C 1541.53 1009.19 1532.69 1009.02 1524.9 1009.4 C 1517.68 1009.76 1516.02 1010.93 1508.23 1010.35 C 1501.02 1008.33 1493.17 1005 1489.43 998.281 C 1472.41 967.748 1482.43 923.809 1524.19 931.508 L 1524.26 904.775 z"/>
<path transform="translate(0,0)" fill="rgb(255,255,255)" d="M 1531.44 911.855 C 1535.1 911.735 1538.1 911.403 1541.65 912.283 C 1542.56 923.034 1542.11 939.548 1542.09 950.654 C 1542.07 966.935 1542.51 985.057 1541.72 1001.21 L 1540.06 1002.19 C 1528.33 1002.1 1535.92 999.581 1531.6 995.618 C 1518.81 998.2 1522.07 1010.67 1499.89 999.331 C 1475.07 977.391 1494.46 913.658 1531.98 946.147 C 1531.53 935.016 1531.59 923.054 1531.44 911.855 z"/>
<path transform="translate(0,0)" fill="rgb(0,0,0)" d="M 1510.76 946.19 C 1518.62 945.608 1525.79 946.902 1528.98 954.88 C 1534.28 968.113 1534.39 987.198 1520.45 994.424 C 1493.87 997.742 1494.53 956.374 1510.76 946.19 z"/>
<path transform="translate(0,0)" fill="rgb(83,169,250)" d="M 1512.42 953.04 C 1524.94 953.591 1525.06 963.426 1524.57 974.065 C 1524.3 979.723 1523.18 984.495 1518.53 988.139 C 1501.98 987.049 1505 962.088 1512.42 953.04 z"/>
<path transform="translate(0,0)" fill="rgb(0,0,0)" d="M 1171.23 1071.08 L 1196.3 1071.07 L 1196.29 1098.03 C 1197.86 1097.72 1199.44 1097.48 1201.03 1097.31 C 1223.61 1094.9 1234.09 1102.99 1236.18 1125.38 L 1238.87 1124.57 C 1237.7 1132.48 1237.41 1140.16 1238.54 1148.1 L 1235.98 1149.7 L 1236.04 1176.24 L 1211.06 1176.18 C 1211.04 1166.26 1212.34 1128.06 1209.34 1121.54 C 1191.16 1109.33 1196.31 1168.26 1196.27 1176.29 L 1171.23 1176.18 L 1171.23 1071.08 z"/>
<path transform="translate(0,0)" fill="rgb(16,138,254)" d="M 1236.18 1125.38 L 1238.87 1124.57 C 1237.7 1132.48 1237.41 1140.16 1238.54 1148.1 L 1235.98 1149.7 C 1235.9 1141.5 1235.74 1133.58 1236.18 1125.38 z"/>
<path transform="translate(0,0)" fill="rgb(255,255,255)" d="M 1178.68 1078.59 C 1181.85 1078.56 1186.22 1078.02 1188.61 1079.61 C 1189.64 1088.5 1189.04 1103.93 1188.94 1113.34 C 1198.2 1104.14 1213.46 1097.9 1223.9 1110.91 C 1229.39 1118.99 1229.43 1131.4 1229.19 1140.83 C 1229.02 1147.62 1231.03 1165.8 1225.88 1169.1 C 1222.74 1169.47 1222.38 1169.37 1219.55 1167.93 C 1216.99 1163.91 1218.16 1138.43 1218.2 1131.75 C 1218.11 1125.79 1218.33 1115.12 1210.46 1113.53 C 1174.34 1106.25 1198.57 1160.77 1184.47 1169.04 C 1181.43 1169.05 1181.39 1169.58 1179.47 1168.15 C 1178.1 1161.93 1178.66 1143.91 1178.67 1136.74 L 1178.68 1078.59 z"/>
<path transform="translate(0,0)" fill="rgb(0,0,0)" d="M 1582.04 930.123 C 1621.83 927.192 1633.52 975.662 1610.29 1001.46 C 1605.6 1006.66 1599.47 1008.44 1592.86 1010.26 C 1561.09 1014.51 1545.87 984.323 1553.02 956.835 C 1557.18 940.817 1566.66 933.813 1582.04 930.123 z"/>
<path transform="translate(0,0)" fill="rgb(255,255,255)" d="M 1582.18 937.309 C 1611.37 935.54 1620.64 964.296 1610.78 988.302 C 1607.29 996.794 1600.32 1000.41 1591.93 1003.19 C 1550.36 1005.07 1547.11 947.237 1582.18 937.309 z"/>
<path transform="translate(0,0)" fill="rgb(0,0,0)" d="M 1581.73 946.181 C 1606.76 944.415 1608.35 972.434 1598.81 989.244 C 1597.51 991.534 1593.51 993.442 1591.08 994.647 C 1563.33 996.418 1563.27 955.24 1581.73 946.181 z"/>
<path transform="translate(0,0)" fill="rgb(83,169,250)" d="M 1583.19 953.123 C 1596.93 953.32 1597.37 963.788 1596.27 975.509 C 1595.76 980.903 1594.16 984.851 1589.54 988.051 C 1571.88 987.301 1573.87 959.901 1583.19 953.123 z"/>
<path transform="translate(0,0)" fill="rgb(0,0,0)" d="M 887.693 1124.42 C 891.292 1113.64 895.303 1105.59 906.021 1100.07 C 913.706 1096.2 922.606 1095.49 930.807 1098.1 C 962.395 1108.36 948.36 1147.61 949.193 1170.39 C 925.281 1182.63 896.629 1180.14 888.135 1151.01 C 885.947 1140.06 886.501 1135.25 887.693 1124.42 z"/>
<path transform="translate(0,0)" fill="rgb(255,255,255)" d="M 916.521 1104.18 C 940.303 1103.39 945.037 1118.54 945.186 1139.18 C 934.706 1139.08 917.829 1138.49 906.925 1139.5 C 906.106 1140.23 905.409 1140.85 904.835 1141.36 C 904.356 1142.73 903.442 1144.45 903.866 1145.74 C 908.988 1161.36 923.493 1161.17 935.107 1159.35 C 938.164 1158.18 938.971 1157.27 941.695 1158.68 C 942.749 1162.02 942.706 1160.59 941.238 1164.28 C 933.093 1172.07 916.719 1172.08 907.976 1166.3 C 885.997 1151.78 888.642 1110.74 916.521 1104.18 z"/>
<path transform="translate(0,0)" fill="rgb(0,0,0)" d="M 915.699 1113.07 C 925.084 1112.96 936.311 1117.63 932.242 1128.75 C 928.948 1131.09 928.138 1130.34 923.505 1130.55 L 904.572 1130.4 C 904.831 1129.23 905.108 1128.08 905.403 1126.93 C 907.394 1119.22 909.075 1117.02 915.699 1113.07 z"/>
<path transform="translate(0,0)" fill="rgb(83,169,250)" d="M 913.239 1146.46 C 919.113 1146.29 939.222 1145.17 944.015 1147.09 L 941.623 1149.07 C 940.354 1149.53 939.08 1149.98 937.802 1150.41 C 931.286 1152.62 922.599 1155 916.076 1151.8 C 913.374 1148.69 913.937 1150.07 913.239 1146.46 z"/>
<path transform="translate(0,0)" fill="rgb(0,0,0)" d="M 1238.87 1124.57 C 1242.86 1113.48 1246.6 1105.03 1258.21 1099.57 C 1266.01 1095.99 1274.9 1095.61 1282.97 1098.53 C 1295.89 1103.29 1301.35 1114.74 1303.35 1127.56 C 1303.12 1133.22 1302.97 1138.88 1302.89 1144.54 C 1298.89 1149.61 1300.47 1163.22 1300.69 1170.1 C 1274.06 1184.74 1247.79 1178.75 1238.54 1148.1 C 1237.41 1140.16 1237.7 1132.48 1238.87 1124.57 z"/>
<path transform="translate(0,0)" fill="rgb(255,255,255)" d="M 1267.41 1104.22 C 1291.84 1103.51 1295.96 1117.86 1296.46 1139.15 C 1288.3 1139.21 1263.9 1138 1257.08 1139.79 L 1256.27 1141.68 C 1257.45 1161.83 1270 1161.55 1285.67 1159.52 C 1289.06 1158.2 1290.35 1157.14 1293.36 1159.05 C 1293.85 1160.86 1294.26 1161.74 1293.13 1163.36 C 1286.35 1173.03 1267.42 1171.21 1259.36 1166.37 C 1242.84 1156.45 1241.23 1131.58 1250.15 1116.36 C 1254.4 1109.12 1259.64 1106.16 1267.41 1104.22 z"/>
<path transform="translate(0,0)" fill="rgb(0,0,0)" d="M 1266.58 1113.18 C 1281.24 1112.77 1282.44 1116.59 1285.32 1130.27 L 1275.23 1130.56 C 1269.38 1130.46 1260.81 1132.64 1256.95 1128.24 C 1256.41 1121.54 1261.27 1116.44 1266.58 1113.18 z"/>
<path transform="translate(0,0)" fill="rgb(83,169,250)" d="M 1264.05 1146.38 C 1269.81 1146.25 1291.53 1145.1 1295.13 1147.31 L 1292.66 1149.12 C 1291.68 1149.51 1290.69 1149.88 1289.71 1150.23 C 1281.39 1153.23 1267.79 1157.4 1264.05 1146.38 z"/>
<path transform="translate(0,0)" fill="rgb(0,0,0)" d="M 638.794 1097.18 C 654.149 1096.3 674.538 1097.61 676.856 1117.93 C 678.915 1135.98 677.551 1157.76 677.353 1176.26 C 659.105 1175.68 634.864 1181.23 621.293 1169.9 C 614.33 1161.26 613.864 1153.21 615.888 1142.45 C 619.549 1122.99 642.026 1127.83 650.993 1122.47 L 651.1 1121.07 C 644.444 1117.56 633.118 1124 626.731 1127.13 C 623.641 1120.15 620.124 1113.18 616.767 1106.32 C 624.675 1102.32 630.149 1099.37 638.794 1097.18 z"/>
<path transform="translate(0,0)" fill="rgb(255,255,255)" d="M 642.971 1104.23 C 681.026 1102.83 667.777 1131.29 670.156 1156.51 C 670.474 1159.89 670.284 1164.68 669.648 1167.98 C 666.94 1169.74 668.389 1169.36 665.149 1169.16 C 662.437 1167.37 662.095 1166.16 660.896 1163.19 C 655.917 1161.43 644.92 1177.99 626.743 1165.01 C 623.056 1159.66 619.236 1148.18 623.185 1142.22 C 630.07 1131.84 643.822 1132.46 654.604 1130.06 C 658.4 1129.22 659.082 1128.33 660.956 1125.35 C 661.05 1123.66 661.086 1123.23 660.378 1121.69 C 652.643 1104.93 638.382 1118.32 629.3 1114.95 C 627.055 1112.21 627.687 1113.52 627.175 1109.71 C 631.269 1106.41 637.897 1105.27 642.971 1104.23 z"/>
<path transform="translate(0,0)" fill="rgb(0,0,0)" d="M 649.321 1138.28 L 660.173 1137.95 C 659.18 1151.11 659.535 1156.95 645.675 1161.47 C 635.025 1160.97 628.74 1155.13 635.538 1144.4 C 638.671 1139.46 643.919 1139.07 649.321 1138.28 z"/>
<path transform="translate(0,0)" fill="rgb(83,169,250)" d="M 650.3 1145.15 L 651.855 1145.89 C 653.781 1151.2 646.422 1153.95 642.414 1155.22 C 640.011 1152.8 639.901 1151.45 640.828 1148.5 C 643.592 1146.1 646.725 1145.84 650.3 1145.15 z"/>
<path transform="translate(0,0)" fill="rgb(0,0,0)" d="M 548.885 1076.82 L 622.584 1076.84 L 622.611 1100.66 L 598.088 1100.77 L 598.117 1150.5 L 598.146 1176.27 L 572.922 1176.17 L 572.863 1100.74 C 564.984 1100.61 556.787 1100.72 548.879 1100.72 L 548.885 1076.82 z"/>
<path transform="translate(0,0)" fill="rgb(255,255,255)" d="M 555.875 1084.09 C 564.168 1084.03 611.093 1082.93 615.053 1085.33 C 616.832 1097.62 599.884 1093.74 590.988 1093.6 L 590.935 1144.5 C 590.738 1151.96 593.128 1162.46 589.179 1167.43 C 586.268 1169.19 585.467 1168.98 582.012 1168.77 C 578.57 1165.04 580.097 1104.08 580.116 1093.68 C 571.891 1093.42 563.686 1095.49 557.27 1092.43 C 555.103 1089.02 555.87 1088.86 555.875 1084.09 z"/>
<path transform="translate(0,0)" fill="rgb(232,232,229)" d="M 156.336 1249.97 C 134.074 1249.19 137.438 1223.61 141.592 1208.98 C 146.666 1191.12 154.346 1184.41 173.057 1189.3 C 175.852 1190.24 178.812 1191.16 181.512 1192.32 C 200.928 1203.92 204.295 1223.42 196.489 1243.38 C 196.265 1243.95 195.744 1244.32 195.302 1244.68 C 200.777 1247.01 203.186 1248.59 201.666 1255.07 C 194.696 1261.66 166.003 1252.38 156.336 1249.97 z"/>
<path transform="translate(0,0)" fill="rgb(36,35,35)" d="M 156.336 1249.97 C 164.921 1233.59 180.877 1241.07 195.302 1244.68 C 200.777 1247.01 203.186 1248.59 201.666 1255.07 C 194.696 1261.66 166.003 1252.38 156.336 1249.97 z"/>
<path transform="translate(0,0)" fill="rgb(232,232,229)" d="M 64.2713 1141.62 C 54.3358 1128.7 56.1673 1110.27 68.453 1099.56 C 80.7387 1088.84 99.2402 1089.53 110.696 1101.13 C 112.445 1102.9 113.974 1104.88 115.248 1107.02 C 120.911 1116.52 121.054 1128.32 115.625 1137.96 C 110.196 1147.6 100.025 1153.59 88.9639 1153.67 C 87.3022 1158.27 85.5994 1163.36 80.3659 1164.05 C 77.3505 1161.99 75.1447 1159.47 71.6739 1159.12 C 67.8495 1158.73 64.1874 1158.53 61.1782 1155.98 C 59.25 1151.07 62.1162 1146.6 64.2713 1141.62 z"/>
<path transform="translate(0,0)" fill="rgb(36,35,35)" d="M 64.2713 1141.62 C 70.1611 1149.28 79.3001 1153.74 88.9639 1153.67 C 87.3022 1158.27 85.5994 1163.36 80.3659 1164.05 C 77.3505 1161.99 75.1447 1159.47 71.6739 1159.12 C 67.8495 1158.73 64.1874 1158.53 61.1782 1155.98 C 59.25 1151.07 62.1162 1146.6 64.2713 1141.62 z"/>
<path transform="translate(0,0)" fill="rgb(0,0,0)" d="M 1636.83 909.188 C 1668.45 907.054 1685.82 930.246 1669.94 955.834 C 1658.2 974.764 1648.7 962.879 1655.59 994.308 C 1658.8 1008.98 1647.45 1016.05 1631.7 1007.89 C 1630.91 1006.65 1627.71 1001.05 1627.92 999.944 C 1630.9 984.234 1626 962.174 1641.41 952.339 C 1646.37 949.181 1652.98 938.94 1648.37 933.518 C 1640.69 931.112 1629.94 936.813 1622.97 940.217 C 1620.99 934.32 1616.47 924.625 1613.87 918.663 C 1621.97 914.295 1627.97 911.58 1636.83 909.188 z"/>
<path transform="translate(0,0)" fill="rgb(255,255,255)" d="M 1642.17 916.254 C 1660.91 916.258 1673.36 928.029 1665.7 948.052 C 1662.57 956.244 1653.97 959.939 1649.12 966.713 C 1647.8 968.551 1645.37 975.562 1644.48 977.941 C 1640.57 978.735 1641.75 979.068 1638.55 977.745 C 1636.89 974.57 1637.79 971.498 1638.26 967.761 C 1641.68 959.47 1649.95 954.953 1654.77 947.448 C 1656.9 944.139 1659.21 939.308 1657.91 935.363 C 1652.93 920.261 1637.5 926.023 1626.9 930.069 L 1622.76 922.106 C 1629.66 918.806 1634.66 917.359 1642.17 916.254 z"/>
<path transform="translate(0,0)" fill="rgb(255,255,255)" d="M 1639 988.756 C 1641.59 987.673 1644.56 988.069 1646.78 989.792 C 1648.99 991.516 1650.11 994.299 1649.7 997.075 C 1649.29 999.851 1647.41 1002.19 1644.79 1003.2 C 1640.82 1004.72 1636.36 1002.77 1634.78 998.828 C 1633.2 994.881 1635.08 990.396 1639 988.756 z"/>
<path transform="translate(0,0)" fill="rgb(232,232,229)" d="M 260.377 1166.86 L 269.139 1167.48 C 295.389 1174.73 296.729 1192.64 296.706 1216.19 C 289.84 1216.19 277.411 1215.84 271.014 1216.44 C 262.163 1219.23 260.377 1221.75 257.516 1230.39 C 237.742 1229.24 235.926 1218.01 236.034 1201.23 C 236.168 1180.53 234.812 1167.35 260.377 1166.86 z"/>
<path transform="translate(0,0)" fill="rgb(0,0,0)" d="M 1305.3 1071.05 L 1330.1 1071.06 L 1330.17 1176.2 L 1305.23 1176.16 C 1305.25 1167.49 1304.99 1157.21 1305.32 1148.68 C 1304.98 1147.5 1303.63 1145.68 1302.89 1144.54 C 1302.97 1138.88 1303.12 1133.22 1303.35 1127.56 L 1304.32 1127.46 C 1305.42 1120.81 1304.64 1096.86 1305.16 1087.56 L 1305.3 1071.05 z"/>
<path transform="translate(0,0)" fill="rgb(51,99,147)" d="M 1305.16 1087.56 C 1305.57 1094.69 1306.56 1143.91 1305.32 1148.68 C 1304.98 1147.5 1303.63 1145.68 1302.89 1144.54 C 1302.97 1138.88 1303.12 1133.22 1303.35 1127.56 L 1304.32 1127.46 C 1305.42 1120.81 1304.64 1096.86 1305.16 1087.56 z"/>
<path transform="translate(0,0)" fill="rgb(255,255,255)" d="M 1312.41 1078.67 C 1316.52 1078.45 1317.9 1078.26 1322.05 1079.19 C 1323.86 1082.12 1323.05 1159.05 1323.04 1168.88 C 1319.29 1168.96 1316.81 1169.27 1313.24 1168.07 C 1311.92 1162.38 1312.36 1143.63 1312.36 1136.86 L 1312.41 1078.67 z"/>
<path transform="translate(0,0)" fill="rgb(0,0,0)" d="M 1092.65 1097.81 C 1106.53 1098.02 1131.88 1096.17 1143.5 1098.51 L 1139.59 1122.47 C 1133.48 1121.6 1126.17 1119.62 1121.27 1123.24 C 1115.62 1131.95 1117.73 1164.49 1117.84 1176.26 L 1092.64 1176.16 C 1090.02 1169.41 1094.4 1149.68 1090.38 1143.16 C 1090.08 1140.8 1090.28 1134.28 1090.31 1131.56 L 1091.21 1131.42 C 1093.14 1123.58 1090.67 1105.11 1092.65 1097.81 z"/>
<path transform="translate(0,0)" fill="rgb(16,138,254)" d="M 1090.31 1131.56 L 1091.21 1131.42 C 1093.14 1123.58 1090.67 1105.11 1092.65 1097.81 C 1093.59 1110.03 1094.53 1165.53 1092.64 1176.16 C 1090.02 1169.41 1094.4 1149.68 1090.38 1143.16 C 1090.08 1140.8 1090.28 1134.28 1090.31 1131.56 z"/>
<path transform="translate(0,0)" fill="rgb(255,255,255)" d="M 1124.84 1104.23 C 1128.33 1104.04 1131.34 1103.38 1134.06 1105.24 C 1135.21 1108.17 1134.49 1109.51 1133.67 1112.61 C 1098.21 1117.71 1114.63 1142.22 1109.98 1167.94 C 1107.82 1169.34 1102.9 1168.84 1100.04 1168.81 C 1099.98 1158.17 1098.65 1111.81 1101.93 1105.19 C 1104.41 1104.61 1105.02 1104.88 1107.6 1105.31 C 1109.63 1107.95 1109.26 1112.73 1109.51 1116.58 C 1114.63 1110.59 1117.19 1106.44 1124.84 1104.23 z"/>
<path transform="translate(0,0)" fill="rgb(0,0,0)" d="M 1404.91 1076.91 L 1432.86 1076.86 C 1432.51 1100.86 1429.82 1125.51 1430.04 1149.46 C 1430.13 1159.6 1438.95 1160.25 1428.94 1174.53 C 1426.39 1176.21 1424.51 1176.97 1421.43 1177.61 C 1412.84 1179.37 1405 1173.32 1404.11 1164.66 C 1403.5 1158.74 1408.06 1153.06 1407.86 1146.77 C 1407.13 1123.49 1405.97 1100.19 1404.91 1076.91 z"/>
<path transform="translate(0,0)" fill="rgb(255,255,255)" d="M 1412.62 1084.11 L 1425.13 1084.07 C 1424.76 1103.44 1423.48 1124.18 1422.69 1143.68 L 1421.95 1144.34 C 1418.89 1144.98 1418.68 1145.16 1415.93 1143.99 C 1414.38 1141.01 1412.92 1091.69 1412.62 1084.11 z"/>
<path transform="translate(0,0)" fill="rgb(255,255,255)" d="M 1415.1 1155.74 C 1418.82 1153.67 1423.51 1155.01 1425.57 1158.74 C 1427.63 1162.46 1426.29 1167.15 1422.56 1169.21 C 1418.84 1171.26 1414.16 1169.92 1412.1 1166.2 C 1410.04 1162.49 1411.38 1157.81 1415.1 1155.74 z"/>
<path transform="translate(0,0)" fill="rgb(214,214,213)" d="M 126.648 1076.58 C 131.947 1079.08 144.358 1084.16 150.02 1085.42 C 147.332 1092.46 147.558 1108.09 151.741 1114.62 C 136.786 1116.08 132.711 1115.68 122.734 1104.12 C 121.596 1101.74 120.662 1097.67 119.945 1095 C 119.562 1087.07 121.247 1082.28 126.648 1076.58 z"/>
<path transform="translate(0,0)" fill="rgb(36,35,35)" d="M 271.014 1216.44 C 279.982 1216.54 294.368 1214.99 300.966 1219.17 C 302.321 1221.18 303.24 1222.07 302.612 1224.82 C 301.124 1231.31 292.535 1230.66 287.234 1230.7 C 277.407 1230.78 267.413 1230.37 257.516 1230.39 C 260.377 1221.75 262.163 1219.23 271.014 1216.44 z"/>
<path transform="translate(0,0)" fill="rgb(36,35,35)" d="M 177.03 1151.86 L 186.196 1153.45 C 185.83 1163.94 184.762 1182.29 181.512 1192.32 C 178.812 1191.16 175.852 1190.24 173.057 1189.3 C 175.748 1175.42 176.692 1165.98 177.03 1151.86 z"/>
<path transform="translate(0,0)" fill="rgb(36,35,35)" d="M 251.928 1137.74 C 258.437 1143.7 271.327 1157.79 269.139 1167.48 L 260.377 1166.86 C 258.67 1158.17 254.333 1152.84 248.317 1146.82 L 251.928 1137.74 z"/>
<path transform="translate(0,0)" fill="rgb(36,35,35)" d="M 110.696 1101.13 C 110.94 1100.31 118.559 1095.86 119.945 1095 C 120.662 1097.67 121.596 1101.74 122.734 1104.12 L 115.248 1107.02 C 113.974 1104.88 112.445 1102.9 110.696 1101.13 z"/>
<path transform="translate(0,0)" fill="rgb(232,232,229)" d="M 543.435 298.644 C 546.905 287.421 550.202 277.426 561.2 271.227 C 568.117 267.292 576.31 266.254 583.989 268.34 C 596.528 271.876 602.272 281.309 608.021 291.771 C 610.405 293.075 624.884 296.373 629.445 297.966 C 654.313 306.466 676.305 321.758 692.929 342.112 C 697.784 347.956 710.746 371.519 713.075 373.556 C 717.761 374.719 734.794 377.253 736.427 380.302 C 740.92 388.692 741.373 401.126 742.779 410.43 C 745.153 426.138 745.677 432.666 728.583 437.574 C 726.737 437.839 723.087 437.908 722.584 439.649 C 712.368 475.009 698.653 482.858 668.88 501.54 C 665.718 501.109 650.095 507.763 644.977 509.337 C 645.44 515.753 646.274 534.911 643.46 539.945 C 641.973 541.383 639.323 544.113 637.816 545.297 C 635.143 557.013 634.607 571.682 623.914 578.135 C 620.349 577.838 618.104 578.587 614.681 579.414 L 614.298 580.398 C 606.13 582.069 573.619 580.864 562.504 581.753 C 563.078 586.339 563.335 589.531 564.803 593.938 C 564.361 597.403 564.158 597.794 562.271 600.745 C 553.605 603.06 524.874 604.54 520.275 606.573 C 505.267 607.958 489.124 610.203 474.153 611.903 C 448.277 614.842 462.259 605.17 454.999 596.474 C 435.771 595.038 429.319 581.093 424.731 565.152 C 428.542 548.883 431.391 540.146 447.794 534.872 L 453.378 526.882 C 462.776 524.059 475.448 524.403 485.671 522.165 C 486.471 514.884 490.048 511.144 494.515 505.472 C 481.485 501.505 468.608 482.119 462.003 470.738 C 456.833 470.759 452.664 470.611 447.502 470.268 C 445.445 470.039 442.941 469.467 441.577 467.922 C 435.248 460.752 432.996 426.208 433.138 417.32 C 439.222 410.984 447.667 408.617 455.847 406.096 C 456.659 404.04 457.867 398.388 458.473 396.01 C 469.601 352.352 501.105 315.567 543.435 298.644 z"/>
<path transform="translate(0,0)" fill="rgb(251,181,53)" d="M 494.515 505.472 C 497.841 505.738 499.89 507.736 502.946 509.116 C 511.094 512.794 519.15 515.278 527.841 517.283 L 543.988 519.678 C 544.14 521.42 544.538 522.513 543.934 523.893 L 555.638 524.136 C 556.194 531.875 556.446 538.392 558.574 545.908 C 559.626 557.609 560.86 570.128 562.504 581.753 C 563.078 586.339 563.335 589.531 564.803 593.938 C 564.361 597.403 564.158 597.794 562.271 600.745 C 553.605 603.06 524.874 604.54 520.275 606.573 C 505.267 607.958 489.124 610.203 474.153 611.903 C 448.277 614.842 462.259 605.17 454.999 596.474 C 435.771 595.038 429.319 581.093 424.731 565.152 C 428.542 548.883 431.391 540.146 447.794 534.872 L 453.378 526.882 C 462.776 524.059 475.448 524.403 485.671 522.165 C 486.471 514.884 490.048 511.144 494.515 505.472 z"/>
<path transform="translate(0,0)" fill="rgb(236,163,41)" d="M 453.378 526.882 C 474.583 572.383 513.927 597.688 564.803 593.938 C 564.361 597.403 564.158 597.794 562.271 600.745 C 553.605 603.06 524.874 604.54 520.275 606.573 C 505.267 607.958 489.124 610.203 474.153 611.903 C 448.277 614.842 462.259 605.17 454.999 596.474 C 435.771 595.038 429.319 581.093 424.731 565.152 C 428.542 548.883 431.391 540.146 447.794 534.872 L 453.378 526.882 z"/>
<path transform="translate(0,0)" fill="rgb(232,232,229)" d="M 424.731 565.152 C 428.542 548.883 431.391 540.146 447.794 534.872 C 448.742 542.899 450.533 551.732 451.297 559.392 C 445.516 565.238 446.508 565.379 445.442 572.702 C 445.486 572.406 440.155 579.105 439.168 582.115 C 440.05 587.548 450.076 591.092 455.118 593.719 L 454.999 596.474 C 435.771 595.038 429.319 581.093 424.731 565.152 z"/>
<path transform="translate(0,0)" fill="rgb(36,35,35)" d="M 451.297 559.392 C 469.37 566.628 479.285 567.452 465.721 584.125 C 464.096 586.122 466.96 589.719 462.221 593.987 C 458.838 594.781 458.431 594.768 455.118 593.719 C 450.076 591.092 440.05 587.548 439.168 582.115 C 440.155 579.105 445.486 572.406 445.442 572.702 C 446.508 565.379 445.516 565.238 451.297 559.392 z"/>
<path transform="translate(0,0)" fill="rgb(36,35,35)" d="M 485.14 594.522 L 487.109 594.491 C 489.125 597.455 488.757 596.132 489.015 599.611 C 485.453 603.875 476.179 604.018 470.222 604.81 C 468.338 605.169 468.367 604.965 466.568 604.167 C 465.65 599.753 465.378 601.272 466.826 597.74 C 470.897 594.896 479.689 594.939 485.14 594.522 z"/>
<path transform="translate(0,0)" fill="rgb(214,214,213)" d="M 494.515 505.472 C 497.841 505.738 499.89 507.736 502.946 509.116 C 511.094 512.794 519.15 515.278 527.841 517.283 C 526.525 520.896 526.725 522.756 526.642 526.563 C 517.023 527.788 507.421 529.153 497.841 530.657 C 493.47 524.021 493.692 521.53 485.671 522.165 C 486.471 514.884 490.048 511.144 494.515 505.472 z"/>
<path transform="translate(0,0)" fill="rgb(36,35,35)" d="M 527.841 517.283 L 543.988 519.678 C 544.14 521.42 544.538 522.513 543.934 523.893 L 526.642 526.563 C 526.725 522.756 526.525 520.896 527.841 517.283 z"/>
<path transform="translate(0,0)" fill="rgb(36,35,35)" d="M 644.977 509.337 C 645.44 515.753 646.274 534.911 643.46 539.945 C 641.973 541.383 639.323 544.113 637.816 545.297 C 635.143 557.013 634.607 571.682 623.914 578.135 C 620.349 577.838 618.104 578.587 614.681 579.414 L 614.298 580.398 C 606.13 582.069 573.619 580.864 562.504 581.753 C 560.86 570.128 559.626 557.609 558.574 545.908 C 556.446 538.392 556.194 531.875 555.638 524.136 L 543.934 523.893 C 544.538 522.513 544.14 521.42 543.988 519.678 C 565.693 524.643 624.286 516.929 644.977 509.337 z"/>
<path transform="translate(0,0)" fill="rgb(232,232,229)" d="M 558.574 545.908 C 578.277 545.938 620.283 547.136 637.816 545.297 C 635.143 557.013 634.607 571.682 623.914 578.135 C 620.349 577.838 618.104 578.587 614.681 579.414 L 614.298 580.398 C 606.13 582.069 573.619 580.864 562.504 581.753 C 560.86 570.128 559.626 557.609 558.574 545.908 z"/>
<path transform="translate(0,0)" fill="rgb(214,214,213)" d="M 433.138 417.32 C 439.222 410.984 447.667 408.617 455.847 406.096 C 453.324 433.609 454.099 443.649 462.114 469.874 C 457.74 469.913 451.692 469.796 447.502 470.268 C 445.445 470.039 442.941 469.467 441.577 467.922 C 435.248 460.752 432.996 426.208 433.138 417.32 z"/>
<path transform="translate(0,0)" fill="rgb(214,214,213)" d="M 713.075 373.556 C 717.761 374.719 734.794 377.253 736.427 380.302 C 740.92 388.692 741.373 401.126 742.779 410.43 C 745.153 426.138 745.677 432.666 728.583 437.574 C 725.717 437.446 725.285 437.518 722.636 436.557 C 722.539 423.551 723.898 412.158 720.722 399.568 C 718.798 391.939 714.022 380.5 713.075 373.556 z"/>
<path transform="translate(0,0)" fill="rgb(214,214,213)" d="M 543.435 298.644 C 546.905 287.421 550.202 277.426 561.2 271.227 C 568.117 267.292 576.31 266.254 583.989 268.34 C 596.528 271.876 602.272 281.309 608.021 291.771 L 607.127 291.82 C 595.303 292.409 585.587 290.172 572.427 291.942 C 566.533 292.734 545.935 298.653 543.435 298.644 z"/>
<path transform="translate(0,0)" fill="rgb(36,35,35)" d="M 575.556 323.269 C 602.902 319.892 627.678 327.629 650.167 343.861 C 681.948 366.8 709.426 420.856 683.126 456.527 C 666.512 479.06 628.056 486.064 601.24 489.463 C 577.452 494.644 526.888 495.002 507.086 480.18 C 472.025 453.937 482.651 396.366 506.112 365.553 C 524.324 341.635 545.576 327.999 575.556 323.269 z"/>
<path transform="translate(0,0)" fill="rgb(232,232,229)" d="M 552.579 410.738 C 564.842 413.844 567.375 420.742 571.195 431.688 C 567.714 439.712 566.774 441.164 559.483 445.991 C 541.171 448.637 540.396 435.203 541.186 421.949 C 544.813 416.154 546.942 414.363 552.579 410.738 z"/>
<path transform="translate(0,0)" fill="rgb(232,232,229)" d="M 626.088 401.79 C 644.391 405.942 651.65 427.507 630.759 437.284 C 608.831 436.036 608.771 411.753 626.088 401.79 z"/>
<path transform="translate(0,0)" fill="rgb(214,214,213)" d="M 606.101 437.27 C 606.318 437.502 607.007 439.12 607.169 439.473 L 605.886 441.534 C 598.497 446.104 591.182 447.046 582.776 445.677 C 581.706 444.444 581.375 443.815 580.516 442.459 C 583.615 440.253 592.914 441.996 597.268 440.699 C 600.426 439.758 603.124 438.574 606.101 437.27 z"/>
<path transform="translate(0,0)" fill="rgb(232,232,229)" d="M 634.014 599.049 L 635.013 601.023 C 642.145 601.853 651.26 609.904 655.671 615.323 C 662.284 623.447 657.591 641.872 661.932 650.39 C 665.207 652.72 665.888 653.062 667.543 656.671 C 667.004 668.577 631.369 665.152 621.761 665.043 C 590.829 666.284 597.394 633.41 598.198 612.693 C 606.565 601.284 610.942 598.679 624.956 598.894 C 626.754 600.842 631.957 601.161 634.014 599.049 z"/>
<path transform="translate(0,0)" fill="rgb(36,35,35)" d="M 621.761 665.043 C 623.816 645.26 647.294 649.888 661.932 650.39 C 665.207 652.72 665.888 653.062 667.543 656.671 C 667.004 668.577 631.369 665.152 621.761 665.043 z"/>
<path transform="translate(0,0)" fill="rgb(232,232,229)" d="M 684.863 537.652 C 691.775 535.768 696.528 534.637 703.731 535.5 C 722.428 537.738 738.335 558.722 729.329 576.95 C 732.165 583.708 736.653 590.935 734.075 597.396 C 731.815 599.976 731.453 600.169 728.195 601.265 C 717.856 597.881 721.276 605.269 713.949 606.71 C 709.264 605.397 707.633 600.62 705.873 596.516 C 701.736 597.807 700.707 598.079 696.339 598.574 C 685.272 610.561 682.404 602.767 678.466 591.472 C 661.787 575.519 669.464 558.244 677.154 541.425 L 679.01 542.467 C 682.513 541.277 682.229 540.668 684.863 537.652 z"/>
<path transform="translate(0,0)" fill="rgb(36,35,35)" d="M 705.873 596.516 C 704.162 592.594 701.819 586.907 702.897 582.724 C 706.32 579.841 711.193 580.903 714.712 579.348 C 718.467 577.688 718.643 574.712 723.756 573.529 C 726.962 574.169 727.027 574.414 729.329 576.95 C 732.165 583.708 736.653 590.935 734.075 597.396 C 731.815 599.976 731.453 600.169 728.195 601.265 C 717.856 597.881 721.276 605.269 713.949 606.71 C 709.264 605.397 707.633 600.62 705.873 596.516 z"/>
<path transform="translate(0,0)" fill="rgb(36,35,35)" d="M 678.466 591.472 C 682.879 592.788 690.21 596.527 696.339 598.574 C 685.272 610.561 682.404 602.767 678.466 591.472 z"/>
<path transform="translate(0,0)" fill="rgb(232,232,229)" d="M 562.271 600.745 C 567.837 605.519 569.832 607.806 573.072 614.488 C 573.078 633.511 579.068 666.931 550.262 664.965 C 540.525 665.122 504.874 668.883 504.526 656.67 C 506.37 652.868 507.005 652.457 510.226 649.933 C 510.78 647.864 510.868 642.349 510.973 640.159 C 511.788 623.217 512.084 621.801 521.294 608.487 L 520.275 606.573 C 524.874 604.54 553.605 603.06 562.271 600.745 z"/>
<path transform="translate(0,0)" fill="rgb(36,35,35)" d="M 510.226 649.933 C 525.002 650.365 547.656 645.447 550.262 664.965 C 540.525 665.122 504.874 668.883 504.526 656.67 C 506.37 652.868 507.005 652.457 510.226 649.933 z"/>
<path transform="translate(0,0)" fill="rgb(214,214,213)" d="M 644.977 509.337 C 650.095 507.763 665.718 501.109 668.88 501.54 C 674.098 505.474 675.278 506.381 678.808 512.086 C 679.056 523.081 676.071 530.31 684.863 537.652 C 682.229 540.668 682.513 541.277 679.01 542.467 L 677.154 541.425 C 671.129 538.479 661.812 543.898 655.445 546.269 C 651.421 544.216 647.426 542.108 643.46 539.945 C 646.274 534.911 645.44 515.753 644.977 509.337 z"/>
<path transform="translate(0,0)" fill="rgb(255,255,255)" d="M 1367.29 484.659 L 1363.05 482.616 C 1357.67 484.879 1362.69 491 1359.71 496.051 C 1357.01 495.925 1358.21 496.342 1356.01 494.702 C 1354.9 488.568 1354.36 460.203 1356.09 453.958 L 1357.57 453.488 L 1362.98 456.316 L 1366.28 454.738 C 1388.32 450.727 1389.33 486.608 1367.29 484.659 z"/>
<path transform="translate(0,0)" fill="url(#Gradient6)" d="M 1367.29 484.659 L 1363.05 482.616 C 1357.67 484.879 1362.69 491 1359.71 496.051 C 1357.01 495.925 1358.21 496.342 1356.01 494.702 C 1354.9 488.568 1354.36 460.203 1356.09 453.958 L 1357.57 453.488 L 1362.98 456.316 L 1366.28 454.738 L 1368.11 456.661 C 1358.55 465.32 1357.15 475.199 1369.32 482.301 L 1367.29 484.659 z"/>
<path transform="translate(0,0)" fill="rgb(36,35,35)" d="M 1366.28 454.738 C 1388.32 450.727 1389.33 486.608 1367.29 484.659 L 1369.32 482.301 C 1384 477.348 1383.5 458.772 1368.11 456.661 L 1366.28 454.738 z"/>
<path transform="translate(0,0)" fill="rgb(255,255,255)" d="M 987.163 484.808 C 984.009 484.964 981.82 483.601 978.866 482.288 C 975.82 484.723 979.682 491.243 976.374 495.607 L 974.074 495.783 L 972.888 494.268 C 972.182 488.367 970.971 457.483 973.819 453.569 C 976.397 454.532 977.367 455.053 979.751 456.44 L 983.295 454.626 C 1005.85 451.774 1004.09 484.552 987.163 484.808 z"/>
<path transform="translate(0,0)" fill="url(#Gradient5)" d="M 987.163 484.808 C 984.009 484.964 981.82 483.601 978.866 482.288 C 975.82 484.723 979.682 491.243 976.374 495.607 L 974.074 495.783 L 972.888 494.268 C 972.182 488.367 970.971 457.483 973.819 453.569 C 976.397 454.532 977.367 455.053 979.751 456.44 L 983.295 454.626 L 984.986 456.595 C 975.19 465.09 973.414 476.312 986.784 482.095 L 987.592 483.272 L 987.163 484.808 z"/>
<path transform="translate(0,0)" fill="rgb(36,35,35)" d="M 983.295 454.626 C 1005.85 451.774 1004.09 484.552 987.163 484.808 L 987.592 483.272 L 986.784 482.095 C 992.308 480.219 994.722 478.722 996.176 472.603 C 997.129 468.735 996.381 464.644 994.122 461.363 C 991.526 457.594 989.218 457.257 984.986 456.595 L 983.295 454.626 z"/>
<path transform="translate(0,0)" fill="rgb(255,255,255)" d="M 1215.94 453.938 C 1225.72 453.619 1224.73 461.386 1229.62 453.358 L 1231.44 453.3 C 1233.68 456.953 1232.32 482.32 1231.92 487.894 L 1230.71 483.017 L 1229.01 483.015 L 1228.61 478.926 L 1227.67 479.079 C 1205.59 490.54 1196.22 462.314 1215.94 453.938 z"/>
<path transform="translate(0,0)" fill="rgb(77,76,78)" d="M 1215.94 453.938 C 1225.72 453.619 1224.73 461.386 1229.62 453.358 L 1231.44 453.3 C 1233.68 456.953 1232.32 482.32 1231.92 487.894 L 1230.71 483.017 L 1229.01 483.015 L 1228.61 478.926 L 1227.67 479.079 L 1225.09 477.226 C 1230.85 467.253 1227.95 460.641 1217.92 456.487 C 1217.65 455.769 1216.51 454.598 1215.94 453.938 z"/>
<path transform="translate(0,0)" fill="rgb(36,35,35)" d="M 1227.67 479.079 C 1205.59 490.54 1196.22 462.314 1215.94 453.938 C 1216.51 454.598 1217.65 455.769 1217.92 456.487 C 1202.07 462.67 1207.04 485.197 1225.09 477.226 L 1227.67 479.079 z"/>
<path transform="translate(0,0)" fill="rgb(0,0,0)" d="M 1163.91 454.006 C 1184.03 455.283 1185.56 479.167 1167.76 485.036 C 1148.99 482.452 1147.92 461.239 1163.91 454.006 z"/>
<path transform="translate(0,0)" fill="rgb(255,255,255)" d="M 1162.91 456.897 C 1179.78 457.298 1180.83 474.492 1169.06 481.893 C 1153.41 481.753 1152.45 465.893 1162.91 456.897 z"/>
<path transform="translate(0,0)" fill="rgb(36,35,35)" d="M 1090.13 453.982 C 1102.52 454.647 1103.89 459.592 1106.53 470.335 C 1100.01 470.113 1087.04 468.43 1083.05 474.327 L 1083.68 476.575 C 1088.04 481.012 1092.66 482.97 1098.47 480.221 C 1100.83 478.481 1101.23 477.871 1104.01 477.729 L 1104.02 479.207 C 1088.13 499.053 1065.14 465.475 1090.13 453.982 z"/>
<path transform="translate(0,0)" fill="rgb(255,255,255)" d="M 1089.71 456.786 C 1095.07 456.967 1104.44 461.309 1101.05 467.177 L 1098.17 467.677 C 1093.24 467.94 1085 469.54 1084.13 463.327 C 1085.76 459.748 1086.7 459.201 1089.71 456.786 z"/>
<path transform="translate(0,0)" fill="url(#Gradient4)" d="M 953.92 454.067 C 956.884 455.019 959.752 455.847 961.088 459.015 C 963.578 464.916 966.264 480.53 961.242 485.661 C 959.016 485.278 957.793 483.95 955.993 482.51 L 954.127 483.875 C 938.822 488.365 931.639 474.288 945.472 467.877 C 950.797 468.419 958.127 468.434 958.129 461.638 C 956.463 458.604 955.975 458.543 952.876 456.684 L 953.92 454.067 z"/>
<path transform="translate(0,0)" fill="rgb(255,255,255)" d="M 954.127 483.875 C 938.822 488.365 931.639 474.288 945.472 467.877 L 946.776 470.991 C 950.542 470.541 953.41 469.675 956.515 471.503 C 959.923 477.942 951.239 481.269 946.227 482.444 C 949.683 482.454 951.152 482.139 954.127 483.875 z"/>
<path transform="translate(0,0)" fill="rgb(77,76,78)" d="M 954.127 483.875 C 938.822 488.365 931.639 474.288 945.472 467.877 L 946.776 470.991 C 942.986 472.859 943.796 471.791 942.052 474.995 C 942.328 478.639 943.671 479.744 946.227 482.444 C 949.683 482.454 951.152 482.139 954.127 483.875 z"/>
<path transform="translate(0,0)" fill="rgb(36,35,35)" d="M 1252.9 453.915 C 1265.57 454.775 1266.82 459.153 1269.29 470.201 C 1262.94 470.041 1248.35 468.127 1245.59 474.771 C 1248.7 480.085 1254.49 482.255 1260.44 481.328 C 1262.98 479.239 1263.2 478.928 1266.23 477.8 L 1267.06 478.794 C 1254.74 498.863 1227.27 467.992 1252.9 453.915 z"/>
<path transform="translate(0,0)" fill="rgb(255,255,255)" d="M 1252.21 456.953 C 1258.42 456.972 1259.84 457.242 1263.92 462.388 C 1264.73 465.993 1265.02 464.786 1263.43 467.336 L 1260.25 467.812 C 1255.56 467.96 1248.61 469.424 1246.58 464.837 C 1247.57 461.283 1249.67 459.579 1252.21 456.953 z"/>
<path transform="translate(0,0)" fill="rgb(130,129,129)" d="M 1279.35 444.528 C 1283.34 445.412 1282.48 444.617 1284.88 447.149 C 1284.78 453.938 1285.82 451.974 1291.34 454.254 L 1291.8 456.359 C 1283.15 462.149 1282.79 466.639 1285.67 476.491 C 1286.97 480.939 1290.1 478.395 1293.48 484.896 C 1289.32 485.573 1286.6 485.89 1282.82 484.07 C 1276.9 478.505 1281.45 468.88 1279.6 459.476 C 1277.37 458.68 1276.3 458.541 1274.77 456.721 L 1275.47 454.21 C 1280.62 450.319 1279.55 450.711 1279.35 444.528 z"/>
<path transform="translate(0,0)" fill="url(#Gradient3)" d="M 1320.58 444.211 C 1323.14 444.83 1323.02 444.75 1324.85 446.639 C 1324.83 449.887 1324.52 450.794 1326.23 453.331 C 1328.21 453.664 1330.17 454.023 1332.14 454.406 L 1332.76 456.003 L 1331.71 457.66 C 1328.81 457.913 1328.29 457.873 1325.61 458.89 C 1324.25 463.163 1324.92 474.056 1325.01 479.085 C 1328.95 480.342 1331.05 480.682 1333.92 483.762 C 1314.82 491.979 1322.42 466.821 1319.42 458.908 C 1317.02 458.16 1316.61 458.106 1314.54 456.741 L 1314.72 454.856 C 1316.87 453.996 1317.69 453.622 1319.7 452.461 L 1320.58 444.211 z"/>
<path transform="translate(0,0)" fill="rgb(77,76,78)" d="M 1134.03 444.602 C 1138.9 446.382 1137.78 447.804 1138.09 452.513 C 1140.28 454.817 1140.68 454.161 1144.51 454.552 L 1145.58 456.039 C 1143.95 458.541 1143.01 457.137 1138.34 458.341 C 1137.06 463.406 1137.73 468.481 1137.75 473.487 C 1137.78 484.196 1140.77 478.055 1146.53 483.603 C 1142.49 485.656 1140.14 485.492 1136.41 483.418 C 1132.62 478.031 1133.88 466.817 1134.05 459.969 C 1131.59 458.421 1130.23 457.427 1127.96 455.598 C 1129.18 452.628 1130.12 455.845 1133.73 452.851 C 1133.3 449.092 1133.42 448.357 1134.03 444.602 z"/>
<path transform="translate(0,0)" fill="rgb(0,0,0)" d="M 1398.77 453.982 C 1404.69 453.884 1409.7 454.789 1413.2 459.925 L 1412.53 460.78 C 1405.74 457.793 1401.15 454.404 1395.17 460.191 C 1395.33 467.136 1408.24 467.8 1413.93 474.936 C 1415.12 481.543 1409.17 483.418 1403.89 485.285 C 1399.71 484.844 1391.57 482.818 1391.24 477.903 C 1395.61 479.485 1400.19 481.45 1404.78 481.656 C 1407.96 480.53 1408.5 480.54 1410.77 478.209 C 1409.98 470.098 1391.02 471.397 1392.09 460.234 C 1393.89 456.774 1395.56 456.041 1398.77 453.982 z"/>
<path transform="translate(0,0)" fill="rgb(0,0,0)" d="M 905.814 444.435 C 911.216 444.199 933.567 443.27 937.244 445.989 C 932.119 447.423 928.692 447.147 923.354 447.114 L 923.548 470.997 C 923.883 476.934 924.348 479.401 922.212 484.853 L 921.284 484.914 C 919.763 475.135 920.32 457.372 920.346 447.131 C 916.163 447.242 910.522 447.752 906.732 446.476 L 905.814 444.435 z"/>
<path transform="translate(0,0)" fill="rgb(36,35,35)" d="M 614.298 580.398 L 614.681 579.414 C 618.104 578.587 620.349 577.838 623.914 578.135 C 628.803 586.211 631.054 589.866 634.014 599.049 C 631.957 601.161 626.754 600.842 624.956 598.894 C 622.037 590.975 619.594 586.914 614.298 580.398 z"/>
<path transform="translate(0,0)" fill="url(#Gradient2)" d="M 1052.39 457.962 C 1068.46 440.641 1074.63 474.284 1070.13 484.239 L 1067.33 485.355 C 1061.67 481.445 1068.89 466.186 1062.62 458.521 C 1058.84 456.77 1057.8 457.032 1053.83 458.894 L 1052.39 457.962 z"/>
<path transform="translate(0,0)" fill="url(#Gradient1)" d="M 1034.28 456.355 C 1041.69 453.091 1043.97 453.325 1051.03 458.356 L 1052.39 457.962 L 1053.83 458.894 C 1049.49 467.855 1052.81 473.649 1051.69 482.656 C 1049.84 485.416 1050.78 484.89 1048.11 485.72 L 1047.14 484.801 C 1044.54 476.559 1050.35 464.31 1043.97 458.221 C 1040.71 456.725 1039.64 457.316 1036.1 458.088 L 1034.28 456.355 z"/>
<path transform="translate(0,0)" fill="rgb(77,76,78)" d="M 1036.1 458.088 C 1028.81 466.307 1035.19 480.751 1029.82 485.001 L 1028.59 484.072 C 1027.97 475.66 1027.84 462.081 1028.8 453.778 L 1030.42 453.231 L 1032.43 456.626 L 1034.28 456.355 L 1036.1 458.088 z"/>
<path transform="translate(0,0)" fill="rgb(77,76,78)" d="M 1340.15 453.111 L 1342.89 454.332 C 1344.18 458.556 1343.86 480.279 1343.91 485.828 L 1341.02 484.86 C 1338.6 480.529 1339.94 459.426 1340.15 453.111 z"/>
<path transform="translate(0,0)" fill="rgb(36,35,35)" d="M 1229.01 483.015 L 1230.71 483.017 L 1231.92 487.894 C 1225.7 496.827 1207.69 497.436 1207.06 488.892 L 1208.09 488.274 C 1216.93 492.532 1224.94 496.065 1228.69 484.035 L 1229.01 483.015 z"/>
<path transform="translate(0,0)" fill="rgb(36,35,35)" d="M 1445.74 463.887 C 1450.4 464.504 1454.67 466.672 1459.15 468.152 C 1463.32 469.526 1465.39 467.257 1469.95 466.842 C 1468.6 469.673 1466.86 470.656 1464.38 472.6 C 1451.75 470.386 1453.61 463.915 1440.64 469.924 L 1440.12 468.506 C 1441.67 465.752 1442.82 465.49 1445.74 463.887 z"/>
<path transform="translate(0,0)" fill="rgb(36,35,35)" d="M 952.876 456.684 C 945.956 456.687 945.851 460.417 940.182 460.25 L 940.328 459.232 C 945.889 454.678 946.778 454.326 953.92 454.067 L 952.876 456.684 z"/>
</svg>