<svg version="1.1" xmlns="http://www.w3.org/2000/svg" style="display: block;" viewBox="0 0 1367 2048" width="506" height="758" preserveAspectRatio="none">
<defs>
	<linearGradient id="Gradient1" gradientUnits="userSpaceOnUse" x1="415.118" y1="930.104" x2="368.578" y2="867.841">
		<stop class="stop0" offset="0" stop-opacity="1" stop-color="rgb(36,41,30)"/>
		<stop class="stop1" offset="1" stop-opacity="1" stop-color="rgb(36,36,36)"/>
	</linearGradient>
	<linearGradient id="Gradient2" gradientUnits="userSpaceOnUse" x1="415.28" y1="432.23" x2="373.197" y2="475.259">
		<stop class="stop0" offset="0" stop-opacity="1" stop-color="rgb(0,0,0)"/>
		<stop class="stop1" offset="1" stop-opacity="1" stop-color="rgb(41,40,39)"/>
	</linearGradient>
	<linearGradient id="Gradient3" gradientUnits="userSpaceOnUse" x1="417.146" y1="488.459" x2="372.39" y2="550.574">
		<stop class="stop0" offset="0" stop-opacity="1" stop-color="rgb(24,25,23)"/>
		<stop class="stop1" offset="1" stop-opacity="1" stop-color="rgb(55,61,50)"/>
	</linearGradient>
</defs>
<path transform="translate(0,0)" fill="rgb(253,254,253)" d="M 218.025 115.459 C 245.613 114.417 278.647 115.251 306.302 115.484 L 404.171 115.49 L 794.61 115.381 L 1030.17 115.249 L 1099.52 115.212 C 1115.47 115.228 1138.46 115.074 1153.89 117.072 C 1174.89 119.81 1194.54 128.936 1210.17 143.214 C 1235.26 165.703 1248.91 197.406 1249.62 230.626 C 1250.36 265.116 1250.03 300.234 1250.03 334.764 L 1250.04 533.878 L 1249.88 1173.21 L 1249.7 1630.44 L 1249.9 1768.04 C 1249.99 1793.45 1251.12 1820.93 1249.2 1846.1 C 1244.68 1905.25 1198.74 1946.46 1140.25 1949.12 C 1055.51 1949.87 970.756 1949.88 886.012 1949.13 C 756.041 1949.86 626.066 1949.9 496.095 1949.25 L 301.489 1949.34 C 278.52 1949.58 255.551 1949.61 232.582 1949.44 C 222.196 1949.31 207.283 1949.41 197.347 1948.06 C 174.257 1944.97 152.678 1934.85 135.541 1919.07 C 109.308 1894.85 97.1349 1865.91 96.467 1830.58 C 95.7482 1792.55 95.9836 1755.13 95.9373 1717.14 L 96.0059 1497.71 L 96.2673 853.913 L 96.0915 432.98 L 95.9523 300.349 C 95.9376 274.148 95.1176 246.776 97.1832 220.819 C 100.975 173.175 133.639 128.974 181.716 118.733 C 194.79 115.948 204.563 115.824 218.025 115.459 z M 425.716 537.543 C 427.293 531.191 426.978 527.504 420.71 524.711 C 418.553 528.009 417.041 531.184 418.38 535.069 C 421.417 537.928 420.705 537.071 425.716 537.543 z"/>
<path transform="translate(0,0)" fill="rgb(137,191,92)" d="M 663.452 175.504 L 978.806 175.522 L 1062.14 175.322 C 1078.5 175.279 1094.66 175.139 1110.9 176.139 C 1141.29 178.011 1168.22 195.671 1182.31 222.693 C 1193.08 243.364 1192.78 266.31 1192.84 289.09 L 1192.7 1332.29 L 1192.75 1653.02 L 1192.89 1750.71 C 1192.97 1791.92 1198.5 1834.36 1166.73 1865.96 C 1137.56 1894.97 1107.42 1891.27 1070.44 1891.26 L 988.972 1891.32 L 680.25 1891.49 L 367.149 1891.66 L 281.279 1891.82 C 242.072 1891.86 209.924 1895.59 179.262 1864.68 C 154.96 1840.18 153.649 1815.98 153.411 1783.68 C 152.989 1726.47 153.691 1669.25 153.467 1612.01 L 153.528 817.434 L 153.859 439.65 L 153.777 320.427 C 153.66 278.326 146.539 233.771 178.609 201.319 C 190.645 188.936 206.277 180.663 223.285 177.674 C 238.28 174.979 264.146 175.805 280.413 175.823 L 359.708 175.724 L 663.452 175.504 z M 425.716 537.543 C 427.293 531.191 426.978 527.504 420.71 524.711 C 418.553 528.009 417.041 531.184 418.38 535.069 C 421.417 537.928 420.705 537.071 425.716 537.543 z"/>
<path transform="translate(0,0)" fill="rgb(253,254,253)" d="M 281.087 1124.43 C 281.575 1124.4 282.064 1124.37 282.553 1124.34 C 298.482 1123.51 319.927 1124.05 336.183 1124.04 L 432.866 1124.08 L 735.089 1124.11 L 957.204 1123.96 L 1024.28 1123.96 C 1054.96 1123.97 1089.46 1120.25 1113.21 1143.16 C 1129.52 1158.89 1136.72 1173.19 1137.08 1195.78 C 1137.77 1239.16 1137.58 1282.52 1137.63 1325.89 L 1137.63 1575.9 L 1137.81 1701.96 C 1137.87 1725.42 1139.8 1756.13 1135.94 1778.67 C 1130.33 1811.35 1096.72 1833.06 1065.58 1834.02 L 518.787 1834.42 L 358.464 1834.42 C 329.573 1834.5 297.52 1835.72 269.422 1833.47 C 238.589 1831 209.163 1795.35 207.972 1765.18 C 207.262 1747.19 206.941 1730.33 206.923 1712.5 L 206.876 1636.02 L 207.009 1400.19 L 207.098 1260.97 C 207.046 1238.21 206.358 1212.3 207.777 1189.7 C 208.554 1177.33 217.65 1157.66 226.443 1148.53 C 243.39 1130.92 257.786 1125.69 281.087 1124.43 z"/>
<path transform="translate(0,0)" fill="rgb(254,204,1)" d="M 436.519 1568.46 L 508.428 1568.21 C 529.877 1568.18 569.778 1561.86 570.454 1591.25 C 570.921 1611.55 571.363 1632.09 571.02 1652.43 C 570.701 1671.35 571.946 1690.64 569.816 1709.43 C 568.231 1723.79 558.674 1727.52 545.71 1728.51 C 525.468 1729.14 504.723 1728.5 484.41 1728.74 C 467.884 1728.94 451.255 1729.18 434.764 1728.14 C 410.936 1726.64 411.639 1708.79 411.785 1690.07 C 412.145 1657.31 410.932 1624.02 412.384 1591.27 C 413.088 1575.4 421.858 1570.03 436.519 1568.46 z"/>
<path transform="translate(0,0)" fill="rgb(253,254,253)" d="M 477.574 1596.56 C 488.135 1598.91 480.805 1605.4 486.376 1610.12 C 489.706 1608.99 493.508 1600.32 495.301 1596.85 L 496.677 1597.27 C 498.933 1600.5 498.338 1603.23 499.006 1607.83 C 502.453 1611.8 518.334 1612.65 519.464 1626.46 C 520.217 1635.69 513.022 1639.44 507.967 1645.85 C 508.047 1650.39 517.791 1648.76 520.663 1657.28 C 525.282 1671 520.212 1680.97 507.54 1687.09 C 504.422 1687.47 503.082 1687.38 500.42 1688.9 C 497.079 1693.76 499.173 1697.25 496.545 1700.59 L 494.02 1700.42 C 490.778 1696.39 493.449 1695.26 490.54 1689.46 C 487.322 1688.04 488.714 1688.21 485.285 1688.8 C 482.489 1692 484.562 1694.58 482.545 1700.07 C 479.702 1701.07 481.162 1700.99 478.017 1699.91 C 476.264 1696.83 476.896 1694.87 476.848 1690.88 C 473.593 1686.14 471.993 1690.53 466.452 1685.66 C 465.321 1676.72 464.415 1615.23 468.216 1610.08 C 471.122 1609.84 471.206 1609.8 473.984 1608.86 C 477.829 1605.24 477.215 1602.06 477.574 1596.56 z"/>
<path transform="translate(0,0)" fill="rgb(254,204,1)" d="M 477.11 1652.18 C 490.234 1652.05 524.873 1652.6 507.078 1675.56 C 498.444 1680.47 487.012 1679.25 476.973 1679.26 C 477.129 1670.31 477.067 1661.15 477.11 1652.18 z"/>
<path transform="translate(0,0)" fill="rgb(254,204,1)" d="M 477.076 1617.85 C 489.949 1617.87 518.868 1618.33 503.091 1639.62 C 496.507 1643.25 484.796 1642.66 477 1642.86 L 477.076 1617.85 z"/>
<path transform="translate(0,0)" fill="rgb(1,1,1)" d="M 899.594 1581.35 C 964.199 1581.81 944.317 1683.44 899.867 1699.36 C 895.28 1701 891.08 1701.73 886.328 1702.53 C 822.061 1709.47 832.525 1587.87 899.594 1581.35 z"/>
<path transform="translate(0,0)" fill="rgb(253,254,253)" d="M 896.785 1606.92 C 922.413 1611.33 912.381 1668.96 887.743 1676.91 C 880.558 1675.65 875.917 1672.46 874.157 1664.95 C 869.799 1646.37 875.866 1612.9 896.785 1606.92 z"/>
<path transform="translate(0,0)" fill="rgb(1,1,1)" d="M 776.091 1585.83 C 795.09 1585.39 815.328 1585.73 834.421 1585.72 C 833.491 1594.24 832.088 1602.07 830.616 1610.5 L 791.76 1610.41 L 788.32 1623.08 C 828.653 1619.14 843.058 1649.9 821.382 1683.34 C 813.737 1695.14 798.883 1700.23 785.16 1701.99 C 784.982 1702.01 784.804 1702.02 784.626 1702.04 L 783.736 1702.12 C 767.279 1703.69 756.1 1700.64 741.953 1692.66 L 750.772 1665.11 C 752.837 1666.96 754.999 1668.68 757.247 1670.3 C 764.93 1675.84 773.772 1678.62 783.446 1677.21 C 798.369 1675.04 807.781 1654.83 792.865 1645.74 C 782.351 1639.33 768.207 1643.27 756.963 1646.31 L 776.091 1585.83 z"/>
<path transform="translate(0,0)" fill="rgb(1,1,1)" d="M 595.083 1219.21 C 611.649 1217.6 627.364 1222.39 633.236 1238.77 C 643.818 1268.27 642.383 1304.48 611.53 1318.65 C 577.32 1325.03 567.694 1293.85 568.34 1265.71 C 568.821 1244.81 574.19 1227.42 595.083 1219.21 z"/>
<path transform="translate(0,0)" fill="rgb(253,254,253)" d="M 603.297 1236.88 C 617.939 1242.51 618.23 1258.89 617.787 1272.27 C 617.401 1283.91 615.457 1294.26 604.735 1300.16 C 585.609 1295.9 587.163 1265.36 591.142 1250.88 C 593.191 1243.42 596.618 1240.25 603.297 1236.88 z"/>
<path transform="translate(0,0)" fill="rgb(1,1,1)" d="M 593.549 1361.3 C 613.923 1361.05 626.641 1372.46 630.987 1392.04 C 636.965 1418.97 633.549 1453.96 602.337 1461.78 C 579.573 1462.98 567.555 1448.88 563.987 1427.23 C 559.994 1403 563.791 1366.49 593.549 1361.3 z"/>
<path transform="translate(0,0)" fill="rgb(253,254,253)" d="M 597.262 1380.73 C 618.89 1385.88 617.288 1432.36 599.776 1443.2 C 579.936 1439.55 582.903 1409.4 585.997 1394.84 C 587.519 1387.67 591.096 1384.21 597.262 1380.73 z"/>
<path transform="translate(0,0)" fill="rgb(1,1,1)" d="M 507.419 1219.5 C 533.569 1219.3 562.163 1219.84 558.26 1257.13 C 557.276 1266.53 552.841 1272.19 545.143 1277.52 C 549.049 1290.17 555.649 1304.71 560.231 1317.81 C 549.479 1318.97 541.313 1322.33 536.013 1311.4 C 533.474 1305.72 527.525 1284.39 521.565 1283.85 C 518.314 1288.84 518.558 1310.21 518.224 1317.75 C 511.821 1318.04 504.669 1317.92 498.203 1317.95 C 498.243 1285.28 498.11 1252.62 497.803 1219.95 L 507.419 1219.5 z"/>
<path transform="translate(0,0)" fill="rgb(253,254,253)" d="M 520.241 1237.73 C 537.74 1240.41 542.398 1247.19 534.076 1263.78 C 530.513 1264.79 523.07 1265.67 519.109 1266.24 C 519.103 1255.79 519.367 1248.13 520.241 1237.73 z"/>
<path transform="translate(0,0)" fill="rgb(1,1,1)" d="M 744.977 1220.38 L 756.605 1220.25 C 781.658 1220.08 806.383 1220.54 805.346 1253.68 C 804.966 1265.83 801.055 1270.97 792.386 1279.12 L 808.66 1317.86 C 803.625 1318.12 789.935 1319.59 786.543 1316.63 C 782.393 1308.52 775.868 1287.59 769.69 1283.49 L 768.038 1284.11 C 764.684 1290.77 765.801 1309.5 765.885 1317.93 C 759.317 1317.97 752.536 1317.84 745.951 1317.8 C 745.213 1285.5 745.727 1252.99 744.977 1220.38 z"/>
<path transform="translate(0,0)" fill="rgb(253,254,253)" d="M 766.106 1238.76 C 782.634 1239.2 791.914 1246.97 780.702 1262.79 C 776.481 1264.86 770.74 1265.55 766.003 1266.37 C 765.786 1257.08 765.95 1248.06 766.106 1238.76 z"/>
<path transform="translate(0,0)" fill="rgb(1,1,1)" d="M 496.009 1362.81 C 512.143 1362.93 534.766 1360.07 547.511 1371.05 C 560.002 1381.81 560.202 1407.34 549.093 1419.21 C 541.009 1427.84 532.886 1428.74 521.754 1429.22 C 520.093 1429.21 519.216 1429.46 517.595 1429.74 C 514.848 1434.29 516.117 1453.11 516.086 1459.99 C 509.408 1460.24 502.573 1460.15 495.879 1460.14 C 495.129 1429.14 494.832 1393.45 496.009 1362.81 z"/>
<path transform="translate(0,0)" fill="rgb(253,254,253)" d="M 517 1381.73 C 535.932 1381.55 538.593 1389.48 533.058 1406.15 C 529.026 1409.43 523.546 1411.96 518.734 1409.19 C 514.716 1403.2 516.616 1389.33 517 1381.73 z"/>
<path transform="translate(0,0)" fill="rgb(1,1,1)" d="M 434.983 1220.16 C 452.123 1219.88 469.266 1219.84 486.407 1220.05 C 486.687 1225.87 486.188 1233.28 485.952 1239.22 L 456.69 1239.4 C 456.28 1245.64 456.429 1252.45 456.438 1258.74 L 481.382 1258.85 L 481.229 1276.76 L 456.475 1276.82 L 456.5 1294.66 L 456.862 1297.39 C 460.556 1299.87 479.843 1299.21 486.711 1299.52 C 487.037 1305.57 486.74 1311.92 486.577 1318.01 C 469.7 1318.33 452.819 1318.4 435.939 1318.21 C 434.604 1287.64 435.253 1251.24 434.983 1220.16 z"/>
<path transform="translate(0,0)" fill="rgb(1,1,1)" d="M 369.784 1219.89 C 387.841 1219.7 405.899 1219.79 423.953 1220.16 C 424.133 1223.08 424.477 1229.78 423.667 1232.44 C 417.191 1253.7 402.776 1279.44 392.562 1299.18 L 424.113 1299.11 C 424.148 1305.46 424.304 1311.52 423.622 1317.85 L 366.907 1318.34 C 366.48 1314.66 366.147 1308.95 367.348 1305.48 C 375.281 1282.55 388.945 1261.71 398.692 1238.85 C 390.122 1238.88 377.876 1239.28 369.755 1238.01 C 369.258 1230.89 369.343 1227.03 369.784 1219.89 z"/>
<path transform="translate(0,0)" fill="rgb(1,1,1)" d="M 875.826 1219.18 C 884.136 1218.88 898.08 1220.03 903.356 1227.61 C 904.564 1229.35 905.015 1231.51 904.605 1233.59 C 903.55 1238.8 897.239 1241.83 892.923 1244.49 C 871.775 1229.71 863.923 1250.09 882.779 1258.07 C 917.191 1272.63 916.663 1314.15 876.538 1320.07 C 869.552 1319.12 859.173 1317.41 853.715 1312.65 C 845.114 1305.15 853.962 1296.98 858.898 1291.34 C 864.645 1296.08 878.474 1305.7 885.622 1295.67 C 891.819 1284.9 867.049 1274.97 861.247 1269.54 C 841.953 1251.47 849.389 1224.95 875.826 1219.18 z"/>
<path transform="translate(0,0)" fill="rgb(1,1,1)" d="M 765.641 1362.15 C 774.439 1361.17 789.056 1362.69 795.374 1369.99 C 801.994 1377.65 791.406 1384.86 785.99 1389.14 C 758.661 1370.1 754.783 1404.63 757.574 1423.53 C 759.01 1433.25 766.93 1449.05 777.874 1440.35 C 779.821 1438.81 783.26 1437.59 785.64 1436.68 C 789.765 1437.18 789.657 1438.16 793.291 1441.3 L 799.823 1447.84 C 779.566 1468.34 755.293 1469.1 741.025 1440.54 C 734.041 1426.57 735.065 1401.58 740.146 1387.09 C 744.43 1374.87 753.864 1367.2 765.641 1362.15 z"/>
<path transform="translate(0,0)" fill="rgb(1,1,1)" d="M 849.779 1361.99 C 856.899 1362.86 862.119 1362.94 869.224 1363.05 C 861.303 1382.56 848.987 1407.58 845.095 1427.92 C 843.918 1434.07 844.663 1454.12 844.839 1461.09 C 838.371 1461.38 831.655 1461.43 825.163 1461.56 C 824.992 1448.91 825.022 1435.95 823.843 1423.38 C 820.007 1407.64 805.389 1378.33 798.342 1363.17 L 819.547 1362.73 C 825.098 1373.26 830.157 1388.53 834.262 1400.03 C 837.804 1390.32 844.744 1369.82 849.779 1361.99 z"/>
<path transform="translate(0,0)" fill="rgb(1,1,1)" d="M 916.79 1220.49 C 934.847 1220.13 952.908 1220.08 970.967 1220.33 L 970.515 1239.69 L 951.955 1239.35 C 951.197 1260.81 951.742 1284.55 951.816 1306.18 L 951.506 1318.64 C 945.121 1318.74 938.395 1318.54 931.983 1318.45 C 930.809 1292.44 931.272 1265.49 931.353 1239.38 L 912.358 1238.84 C 911.553 1234.46 909.194 1225.4 911.912 1222.01 C 913.074 1220.56 914.435 1220.87 916.79 1220.49 z"/>
<path transform="translate(0,0)" fill="rgb(1,1,1)" d="M 677.609 1220.12 C 696.806 1219.67 716.945 1219.92 736.152 1220.17 C 736.126 1226.42 735.762 1233.21 735.55 1239.51 L 717.09 1239.25 C 716.2 1259.12 716.14 1278.61 716.018 1298.5 L 715.858 1318.05 L 696.55 1318 C 695.535 1292.86 696.037 1265.36 695.833 1239.95 C 689.143 1239.82 684.475 1239.37 677.899 1238.64 C 677.205 1231.11 677.169 1227.67 677.609 1220.12 z"/>
<path transform="translate(0,0)" fill="rgb(1,1,1)" d="M 645.846 1362.86 L 664.639 1363.41 C 665.522 1388.93 665.125 1416.29 665.19 1441.94 L 693.983 1442.2 C 694.828 1448.33 694.842 1454.77 695.005 1460.97 C 678.658 1461.03 662.311 1460.99 645.965 1460.85 C 645.397 1428.74 645.712 1395.01 645.846 1362.86 z"/>
<path transform="translate(0,0)" fill="rgb(1,1,1)" d="M 818.526 1220.11 L 838.808 1220.55 C 838.95 1253.21 838.836 1285.87 838.468 1318.52 C 835.059 1319.22 822.759 1318.62 818.622 1318.51 C 817.103 1292.99 817.482 1245.98 818.526 1220.11 z"/>
<path transform="translate(0,0)" fill="rgb(1,1,1)" d="M 704.277 1363.06 C 710.409 1363.36 717.683 1363.24 723.909 1363.3 C 724.168 1395.84 724.234 1428.39 724.107 1460.93 C 717.608 1461.12 710.787 1460.88 704.263 1460.76 C 703.399 1430.01 703.51 1393.83 704.277 1363.06 z"/>
<path transform="translate(0,0)" fill="rgb(32,34,31)" d="M 386.581 388.396 C 447.307 385.041 481.219 422.147 488.318 479.99 C 514.253 480.083 540.188 479.964 566.121 479.631 C 580.714 479.506 598.256 478.841 612.595 480.039 C 613.916 502.709 611.08 532.294 612.034 555.665 C 612.329 562.878 611.282 576.663 612.925 583.186 C 620.983 586.528 620.827 587.613 622.941 596.028 C 655.752 595.316 688.571 595.017 721.389 595.129 C 725.616 589.628 727.927 586.939 734.174 584.005 C 734.008 569.484 732.43 488.712 736.771 480.906 C 746.355 477.992 843.441 479.834 859.25 479.959 C 862.92 455.863 868.888 435.439 886.014 416.741 C 902.238 399.039 924.973 388.708 948.979 388.13 C 1001.6 386.336 1044.57 423.845 1046.36 477.417 C 1048.19 531.854 1009.37 574.964 954.392 575.857 C 921.787 576.386 904.032 565.671 881.331 543.685 C 871.094 555.678 851.028 573.407 839.147 584.874 C 822.363 601.072 804.418 619.31 786.605 633.854 L 786.992 663.912 L 889.329 664.621 C 903.669 664.693 942.933 663.243 953.882 667.149 C 955.672 669.761 955.724 755.043 955.938 765.964 C 1069.88 776.55 1077.15 926.024 972.223 951.847 C 971.437 952.01 970.647 952.157 969.854 952.288 C 911.869 962.016 868.394 923.924 859.316 868.203 C 840.961 868.283 748.416 870.195 738.358 866.407 C 735.728 860.641 737.2 776.333 737.448 764.038 C 730.097 759.421 729.289 758.594 724.437 751.503 C 691.363 751.775 658.288 751.808 625.213 751.602 C 620.698 757.964 619.5 758.829 612.656 761.908 C 611.397 784.544 612.296 808.436 612.236 831.202 C 612.206 843.032 613.185 856.224 611.929 867.88 C 573.209 870.39 527.284 866.81 487.184 868.647 C 484.696 888.416 480.047 903.063 467.378 919.05 C 451.767 938.386 429.184 950.814 404.495 953.655 C 379.938 956.3 355.34 949.035 336.159 933.473 C 316.877 917.728 304.704 894.916 302.358 870.132 C 296.222 811.19 335.267 772.463 391.981 766.65 C 392.076 745.097 392.035 723.543 391.86 701.99 C 391.822 693.737 391.222 672.747 392.747 665.826 C 402.025 662.579 540.902 664.048 559.127 663.926 C 559.448 654.322 559.545 644.712 559.418 635.103 C 550.208 627.992 532.689 609.775 523.255 600.712 C 504.018 582.233 483.186 564.485 464.257 546.106 C 461.26 549.065 458.095 552.218 454.902 554.954 C 422.911 582.365 371.227 582.763 337.986 556.87 C 318.414 541.658 305.865 519.146 303.219 494.5 C 297.139 439.476 330.528 393.977 386.581 388.396 z M 425.716 537.543 C 427.293 531.191 426.978 527.504 420.71 524.711 C 418.553 528.009 417.041 531.184 418.38 535.069 C 421.417 537.928 420.705 537.071 425.716 537.543 z"/>
<path transform="translate(0,0)" fill="rgb(253,254,253)" d="M 575.354 594.5 C 587.729 593.935 600.108 594.042 612.496 594.05 L 618.623 603.795 C 625.911 605.055 653.713 605.011 662.774 604.869 C 682.93 604.554 708.443 605.949 727.969 604.315 C 730.049 601.66 732.263 597.898 734.105 594.986 C 743.653 594.632 770.396 593.363 776.932 598.674 C 778.773 608.204 780.023 736.222 777.876 744.884 C 777.081 748.09 775.198 748.883 772.66 750.634 C 762.112 752.589 748.824 752.088 738.003 751.95 L 730.951 744.194 C 699.645 739.852 656.884 744.257 624.608 743.315 C 618.181 743.127 615.543 746.461 611.759 751.064 C 601.707 750.966 591.372 751.072 581.411 750.706 C 578.464 750.597 572.535 749.634 571.627 747.185 C 570.367 743.783 569.503 735.017 569.461 731.577 C 569.29 717.333 569.793 703.353 569.684 689.13 C 570.075 677.629 567.285 604.527 569.567 597.369 C 572.188 594.507 570.849 595.383 575.354 594.5 z"/>
<path transform="translate(0,0)" fill="rgb(137,191,92)" d="M 729.411 625.536 C 745.474 626.308 755.092 664.972 753.243 678.175 C 750.915 694.805 746.72 707.509 733.82 718.681 C 715.29 715.207 738.376 691.483 740.434 677.851 C 743.231 659.327 724.479 643.313 724.063 632.375 C 725 628.784 726.549 627.986 729.411 625.536 z"/>
<path transform="translate(0,0)" fill="rgb(137,191,92)" d="M 611.666 625.637 C 616.156 625.345 618.529 626.159 621.439 629.629 C 623.902 643.128 588.786 659.32 618.204 708.912 C 616.42 711.698 614.281 714.719 612.407 717.485 C 611.033 718.587 610.907 718.41 609.108 718.614 C 600.244 712.111 592.107 689.068 591.893 678.224 C 591.51 658.754 598.571 640.013 611.666 625.637 z"/>
<path transform="translate(0,0)" fill="rgb(137,191,92)" d="M 698.571 637.744 C 699.061 637.695 699.553 637.656 700.044 637.626 C 721.258 636.478 729.142 669.153 724.235 684.999 C 721.348 694.325 719.656 697.555 713.096 704.701 C 708.531 704.919 705.142 704.726 702.752 700.761 C 702.915 687.765 725.225 674.775 703.706 653.218 C 698.575 648.078 697.532 644.702 698.571 637.744 z"/>
<path transform="translate(0,0)" fill="rgb(137,191,92)" d="M 633.937 639.695 C 637.918 639.668 640.181 640.064 643.343 642.337 C 645.237 645.899 645.132 646.169 642.726 650.334 C 632.622 665.784 632.576 673.75 639.834 690.464 C 642.466 696.526 643.193 699.468 638.213 704.079 C 618.501 703.391 616.895 660.787 626.736 648.585 C 629.475 645.19 630.737 643.028 633.937 639.695 z"/>
<path transform="translate(0,0)" fill="rgb(1,1,1)" d="M 670.088 667.543 C 669.847 658.753 668.143 637.109 671.541 630.277 L 673.503 629.041 L 676.097 629.709 C 678.717 635.509 676.92 659.376 677.416 668.494 C 684.048 668.354 688.023 666.973 692.501 672.093 C 690.698 678.076 682.519 676.122 677.538 675.715 C 677.103 685.754 678.3 712.106 675.774 718.861 L 674.266 719.237 C 670.942 715.551 670.686 714.469 670.852 709.458 C 669.908 702.771 670.047 684.317 669.916 676.736 C 665.025 676.151 655.403 677.178 653.394 671.68 C 657.152 667.122 664.634 667.752 670.088 667.543 z"/>
<path transform="translate(0,0)" fill="rgb(32,34,31)" d="M 669.916 676.736 C 665.025 676.151 655.403 677.178 653.394 671.68 C 657.152 667.122 664.634 667.752 670.088 667.543 C 672.345 671.991 671.547 703.707 670.852 709.458 C 669.908 702.771 670.047 684.317 669.916 676.736 z"/>
<path transform="translate(0,0)" fill="rgb(253,254,253)" d="M 942.411 397.598 C 988.94 391.38 1031.67 424.129 1037.77 470.675 C 1043.86 517.221 1011 559.868 964.438 565.838 C 918.051 571.786 875.599 539.073 869.528 492.702 C 863.457 446.331 896.056 403.793 942.411 397.598 z"/>
<path transform="translate(0,0)" fill="rgb(137,191,92)" d="M 936.927 481.173 C 946.522 486.7 958.274 486.948 968.093 481.829 C 969.094 483.951 969.466 485.175 971.221 486.767 C 983.065 491.319 993.591 494.828 998.528 507.562 C 1002.05 516.657 1006.73 532.383 996.085 538.146 C 993.094 537.616 981.696 539.069 977.71 539.373 C 964.08 540.411 926.498 541.945 914.87 536.93 C 911.582 537.125 911.018 537.176 907.857 536.317 C 896.824 528.091 906.648 504.976 914.537 497.254 C 921.126 490.805 925.104 489.489 933.7 486.463 C 935.087 484.85 935.918 483.05 936.927 481.173 z"/>
<path transform="translate(0,0)" fill="rgb(32,34,31)" d="M 936.927 481.173 C 946.522 486.7 958.274 486.948 968.093 481.829 C 969.094 483.951 969.466 485.175 971.221 486.767 C 983.065 491.319 993.591 494.828 998.528 507.562 C 1002.05 516.657 1006.73 532.383 996.085 538.146 C 991.267 533.516 994.38 512.871 985.93 505.26 C 974.263 494.75 963.073 503.267 949.843 503.371 C 943.611 502.727 936.932 498.044 930.489 498.947 C 912.182 501.514 914.183 523.046 914.87 536.93 C 911.582 537.125 911.018 537.176 907.857 536.317 C 896.824 528.091 906.648 504.976 914.537 497.254 C 921.126 490.805 925.104 489.489 933.7 486.463 C 935.087 484.85 935.918 483.05 936.927 481.173 z"/>
<path transform="translate(0,0)" fill="rgb(222,232,211)" d="M 936.927 481.173 C 946.522 486.7 958.274 486.948 968.093 481.829 C 969.094 483.951 969.466 485.175 971.221 486.767 C 956.861 496.753 948.272 492.315 933.7 486.463 C 935.087 484.85 935.918 483.05 936.927 481.173 z"/>
<path transform="translate(0,0)" fill="rgb(0,38,0)" d="M 981.616 523.19 C 989.043 525.721 987.077 531.951 986.525 538.767 L 983.309 537.246 C 979.981 532.286 980.74 528.849 981.616 523.19 z"/>
<path transform="translate(0,0)" fill="rgb(32,34,31)" d="M 936.927 481.173 C 924.099 473.783 917.908 458.642 921.883 444.381 C 925.858 430.121 938.989 420.365 953.79 420.677 C 968.591 420.988 981.3 431.288 984.671 445.702 C 988.043 460.117 981.22 474.985 968.093 481.829 C 958.274 486.948 946.522 486.7 936.927 481.173 z"/>
<path transform="translate(0,0)" fill="rgb(137,191,92)" d="M 950.402 430.45 C 962.689 429.039 973.844 437.724 975.489 449.982 C 977.134 462.24 968.662 473.559 956.438 475.437 C 948.32 476.684 940.163 473.449 935.106 466.977 C 930.049 460.506 928.882 451.809 932.054 444.233 C 935.226 436.658 942.243 431.387 950.402 430.45 z"/>
<path transform="translate(0,0)" fill="rgb(253,254,253)" d="M 385.752 397.663 C 432.303 392.784 473.998 426.56 478.887 473.11 C 483.776 519.66 450.01 561.362 403.461 566.263 C 356.897 571.165 315.178 537.385 310.287 490.819 C 305.396 444.254 339.186 402.543 385.752 397.663 z M 425.716 537.543 C 427.293 531.191 426.978 527.504 420.71 524.711 C 418.553 528.009 417.041 531.184 418.38 535.069 C 421.417 537.928 420.705 537.071 425.716 537.543 z"/>
<path transform="translate(0,0)" fill="rgb(137,191,92)" d="M 374.636 486.101 C 390.284 492.943 396.477 497.492 411.873 486.419 C 420.213 489.494 422.629 490.466 429.617 495.658 C 440.495 503.739 451.179 528.546 437.506 538.425 C 432.368 537.448 430.973 537.425 425.716 537.543 C 427.293 531.191 426.978 527.504 420.71 524.711 C 418.553 528.009 417.041 531.184 418.38 535.069 C 421.417 537.928 420.705 537.071 425.716 537.543 C 407.603 540.311 389.244 541.122 370.957 539.963 L 363.346 537.22 C 359.534 533.468 356.055 537.778 346.716 536.791 C 344.114 532.974 343.793 522.884 344.733 518.255 C 348.162 501.374 360.37 493.201 374.636 486.101 z"/>
<path transform="translate(0,0)" fill="url(#Gradient3)" d="M 374.636 486.101 C 390.284 492.943 396.477 497.492 411.873 486.419 C 420.213 489.494 422.629 490.466 429.617 495.658 C 440.495 503.739 451.179 528.546 437.506 538.425 C 436.741 538.038 435.83 537.576 434.774 537.041 C 433.04 527.598 433.651 519.345 429.331 510.348 C 420.955 492.907 408.717 503.238 395.252 504.04 C 386.683 504.551 376.272 496.192 367.041 501.688 C 353.322 509.854 357.873 522.193 354.361 534.518 C 351.784 537.289 351.403 536.454 346.716 536.791 C 344.114 532.974 343.793 522.884 344.733 518.255 C 348.162 501.374 360.37 493.201 374.636 486.101 z"/>
<path transform="translate(0,0)" fill="rgb(72,121,50)" d="M 363.346 537.22 C 363.233 532.369 363.706 526.956 367.107 523.187 L 369.467 522.23 C 374.15 525.127 372.935 536.083 370.957 539.963 L 363.346 537.22 z"/>
<path transform="translate(0,0)" fill="url(#Gradient2)" d="M 387.446 422.675 C 404.786 418.643 422.155 429.26 426.474 446.531 C 430.792 463.801 420.464 481.344 403.268 485.947 C 391.888 488.994 379.749 485.667 371.513 477.243 C 363.277 468.82 360.224 456.609 363.526 445.301 C 366.828 433.992 375.972 425.343 387.446 422.675 z"/>
<path transform="translate(0,0)" fill="rgb(253,254,253)" d="M 392.047 430.571 C 404.797 428.794 416.57 437.698 418.332 450.45 C 420.093 463.203 411.173 474.965 398.419 476.709 C 385.688 478.451 373.951 469.551 372.193 456.822 C 370.435 444.093 379.32 432.345 392.047 430.571 z"/>
<path transform="translate(0,0)" fill="rgb(1,1,1)" fill-opacity="0.988235" d="M 420.71 524.711 C 426.978 527.504 427.293 531.191 425.716 537.543 C 420.705 537.071 421.417 537.928 418.38 535.069 C 417.041 531.184 418.553 528.009 420.71 524.711 z"/>
<path transform="translate(0,0)" fill="rgb(253,254,253)" d="M 946.953 775.92 C 993.339 772.475 1033.74 807.274 1037.21 853.659 C 1040.67 900.043 1005.89 940.461 959.511 943.949 C 913.097 947.44 872.647 912.632 869.178 866.216 C 865.709 819.801 900.536 779.367 946.953 775.92 z"/>
<path transform="translate(0,0)" fill="rgb(137,191,92)" d="M 934.492 864.772 C 940.519 867.283 946.66 870.077 952.981 871.625 C 960.433 869.63 963.431 868.106 970.235 864.791 C 991.665 871.155 1007.56 884.787 1002.08 911.044 C 1001.53 913.643 999.785 914.569 997.694 915.791 C 994.025 915.461 993.877 915.378 991.936 911.765 C 988.768 913.323 988.433 913.571 986.653 916.611 L 979.631 917.184 C 971.432 919.49 936.828 917.402 926.707 916.763 C 922.944 915.668 920.359 914.385 916.847 912.759 C 916.03 911.999 913.706 910.6 912.656 909.919 C 910.324 913.59 911.27 913.242 907.911 915.04 C 900.031 912.814 902.286 899.607 904.028 893.51 C 908.81 876.778 918.463 869.508 934.492 864.772 z"/>
<path transform="translate(0,0)" fill="rgb(32,34,31)" d="M 934.492 864.772 C 940.519 867.283 946.66 870.077 952.981 871.625 C 960.433 869.63 963.431 868.106 970.235 864.791 C 991.665 871.155 1007.56 884.787 1002.08 911.044 C 1001.53 913.643 999.785 914.569 997.694 915.791 C 994.025 915.461 993.877 915.378 991.936 911.765 C 992.98 908.175 990.907 894.128 989.483 890.495 C 980.899 868.594 966.337 881.184 952.892 881.178 C 935.046 881.17 924.645 867.837 914.981 892.013 C 913.962 896.585 912.396 905.275 912.656 909.919 C 910.324 913.59 911.27 913.242 907.911 915.04 C 900.031 912.814 902.286 899.607 904.028 893.51 C 908.81 876.778 918.463 869.508 934.492 864.772 z"/>
<path transform="translate(0,0)" fill="rgb(72,121,50)" d="M 912.656 909.919 C 912.396 905.275 913.962 896.585 914.981 892.013 C 918.518 893.687 919.347 893.515 923.306 893.351 C 927.235 897.542 927.049 908.061 926.849 913.68 C 926.812 914.708 926.764 915.736 926.707 916.763 C 922.944 915.668 920.359 914.385 916.847 912.759 C 916.03 911.999 913.706 910.6 912.656 909.919 z"/>
<path transform="translate(0,0)" fill="rgb(126,180,84)" d="M 912.656 909.919 C 912.396 905.275 913.962 896.585 914.981 892.013 C 918.518 893.687 919.347 893.515 923.306 893.351 C 919.885 897.895 920.162 906.141 916.847 912.759 C 916.03 911.999 913.706 910.6 912.656 909.919 z"/>
<path transform="translate(0,0)" fill="rgb(1,1,1)" d="M 979.631 917.184 C 978.277 911.298 975.579 904.428 981.025 900.36 C 988.628 901.974 987.007 910.635 986.653 916.611 L 979.631 917.184 z"/>
<path transform="translate(0,0)" fill="rgb(1,1,1)" d="M 950.502 800.134 C 968.098 798.986 983.348 812.197 984.72 829.777 C 986.092 847.357 973.076 862.773 955.515 864.369 C 943.955 865.419 932.723 860.17 926.114 850.627 C 919.504 841.084 918.54 828.724 923.589 818.271 C 928.637 807.818 938.919 800.89 950.502 800.134 z"/>
<path transform="translate(0,0)" fill="rgb(253,254,253)" d="M 949.498 808.61 C 962.082 806.976 973.665 815.696 975.576 828.24 C 977.487 840.785 969.024 852.558 956.525 854.744 C 948.191 856.202 939.72 853.035 934.387 846.467 C 929.053 839.9 927.691 830.96 930.828 823.102 C 933.964 815.245 941.108 809.7 949.498 808.61 z"/>
<path transform="translate(0,0)" fill="rgb(253,254,253)" d="M 387.969 776.334 C 434.358 772.705 474.868 807.456 478.338 853.858 C 481.807 900.259 446.916 940.649 400.503 943.959 C 354.316 947.253 314.164 912.568 310.712 866.392 C 307.259 820.216 341.805 779.946 387.969 776.334 z"/>
<path transform="translate(0,0)" fill="rgb(137,191,92)" d="M 411.104 865.013 C 420.04 868.112 424.317 869.372 431.528 875.884 C 439.682 883.249 448.58 906.328 440.282 915.399 C 437.695 915.981 437.687 916.033 435.072 915.882 C 430.599 916.083 429.305 916.151 424.873 917.226 L 419.142 917.216 C 413.67 919.048 377.535 918.225 370.131 917.778 C 365.027 916.877 362.899 916.363 359.078 912.924 L 356.103 910.406 C 353.54 914.691 354.544 914.335 350.619 916.611 C 336.53 915.013 347.073 879.455 358.97 872.828 C 375.442 863.653 379.734 865.619 395.916 871.512 C 401.204 869.386 405.938 867.413 411.104 865.013 z"/>
<path transform="translate(0,0)" fill="url(#Gradient1)" d="M 411.104 865.013 C 420.04 868.112 424.317 869.372 431.528 875.884 C 439.682 883.249 448.58 906.328 440.282 915.399 C 437.695 915.981 437.687 916.033 435.072 915.882 C 434.246 907.299 432.805 889.868 427.168 883.337 C 418.593 874.192 404.526 879.69 394.493 879.181 C 368.043 877.839 354.149 875.525 356.103 910.406 C 353.54 914.691 354.544 914.335 350.619 916.611 C 336.53 915.013 347.073 879.455 358.97 872.828 C 375.442 863.653 379.734 865.619 395.916 871.512 C 401.204 869.386 405.938 867.413 411.104 865.013 z"/>
<path transform="translate(0,0)" fill="rgb(72,121,50)" d="M 359.078 912.924 C 360.137 906.955 360.602 896.172 368.3 896.048 C 374.704 900.297 374.497 912.419 370.131 917.778 C 365.027 916.877 362.899 916.363 359.078 912.924 z"/>
<path transform="translate(0,0)" fill="rgb(1,1,1)" d="M 419.142 917.216 C 419.029 912.814 418.544 907.232 419.86 903.171 L 421.419 901.648 C 427.189 903.581 427.381 909.293 427.083 914.473 C 425.972 916.327 426.465 915.969 424.873 917.226 L 419.142 917.216 z"/>
<path transform="translate(0,0)" fill="rgb(1,1,1)" d="M 388.091 800.771 C 405.453 797.059 422.568 808.008 426.476 825.326 C 430.384 842.645 419.628 859.883 402.355 863.985 C 391.007 866.68 379.086 863.069 371.142 854.529 C 363.197 845.989 360.456 833.838 363.963 822.715 C 367.471 811.591 376.686 803.21 388.091 800.771 z"/>
<path transform="translate(0,0)" fill="rgb(253,254,253)" d="M 389.68 809.414 C 402.173 806.374 414.758 814.067 417.748 826.572 C 420.738 839.077 412.994 851.631 400.477 854.571 C 388.031 857.494 375.564 849.804 372.591 837.369 C 369.618 824.935 377.258 812.437 389.68 809.414 z"/>
<path transform="translate(0,0)" fill="rgb(137,191,92)" d="M 404.496 673.502 C 454.86 672.033 509.14 673.047 559.769 673.138 C 559.971 682.668 559.451 691.937 559.015 701.454 C 541.431 714.839 526.143 730.559 510.323 745.987 C 494.706 760.841 475.661 778.479 461.173 794.026 C 443.429 778.45 425.117 769.82 401.823 766.203 C 401.444 752.546 399.163 683.809 401.81 674.416 L 404.496 673.502 z"/>
<path transform="translate(0,0)" fill="rgb(137,191,92)" d="M 793.045 673.496 C 832.79 672.667 872.753 673.369 912.512 673.018 C 923.51 672.92 935.112 672.868 946.03 673.796 C 946.457 704.054 945.831 736.492 946.898 766.247 C 937.983 767.305 928.884 770.043 920.377 772.832 C 906.828 778.412 897.895 783.82 886.853 793.342 C 874.436 779.457 853.932 760.961 840.039 747.891 C 826.84 735.473 801.683 710.418 787.286 701.906 C 787.105 695.993 785.483 680.095 787.997 674.802 C 788.531 673.678 791.282 673.734 793.045 673.496 z"/>
<path transform="translate(0,0)" fill="rgb(137,191,92)" d="M 558.738 712.944 C 565.123 721.377 547.42 764.081 586.141 760.116 C 590.81 759.638 599.135 760.104 603.998 760.358 C 605.299 769.759 604.867 785.92 604.834 795.783 C 604.794 816.888 604.533 837.991 604.048 859.09 C 575.008 858.694 545.341 858.977 516.25 858.979 L 488.152 859.006 C 484.913 834.967 482.098 819.613 466.034 800.331 C 495.752 776.08 528.038 739.611 558.738 712.944 z"/>
<path transform="translate(0,0)" fill="rgb(137,191,92)" d="M 787.567 713.305 C 791.878 715.703 804.99 728.474 809.393 732.593 C 822.998 745.272 836.519 758.042 849.953 770.901 C 859.364 779.948 871.155 791.962 881.321 799.561 C 865.809 819.743 861.825 834.863 858.704 859.206 L 840.25 858.974 L 746.296 859.024 C 744.408 836.186 744.25 784.196 745.916 761.064 C 793.661 760.058 783.737 754.789 787.567 713.305 z"/>
<path transform="translate(0,0)" fill="rgb(137,191,92)" d="M 487.381 489.069 C 522.875 488.2 568.677 487.829 604.088 488.985 C 605.088 518.552 605.327 556.278 604.199 585.654 C 588.26 585.575 572.768 580.757 561.837 594.691 C 558.958 602.531 559.302 615.35 559.154 623.915 C 547.023 609.106 524.538 589.254 510.429 575.251 C 501.925 566.812 479.754 544.996 471.14 538.851 C 480.545 521.06 485.026 509.313 487.381 489.069 z"/>
<path transform="translate(0,0)" fill="rgb(137,191,92)" d="M 825.452 488.507 L 859.669 488.431 C 862.784 508.869 866.31 519.763 875.863 537.833 C 866.288 545.39 855.608 556.455 846.637 565.064 C 827.813 583.126 809.781 601.178 789.955 618.193 L 788.076 618.655 C 785.94 615.266 789.936 600.039 781.689 592.406 C 773.177 584.527 755.746 586.127 744.237 585.882 C 742.779 556.261 743.656 518.812 744.142 488.975 C 768.138 487.604 800.812 488.542 825.452 488.507 z"/>
</svg>