<svg version="1.1" xmlns="http://www.w3.org/2000/svg" style="display: block;" viewBox="0 0 1336 2048" width="368" height="564" preserveAspectRatio="none">
<path transform="translate(0,0)" fill="rgb(254,254,254)" d="M 193.106 108.419 C 201.532 107.472 222.072 108.042 231.158 108.04 L 310.224 108.18 L 559.253 108.508 L 943.115 108.419 L 1061.83 108.226 C 1084.3 108.112 1114.72 106.91 1136.46 108.978 C 1157.4 110.85 1177.32 118.85 1193.74 131.979 C 1245.06 172.499 1238 231.219 1237.98 288.96 L 1237.96 428.983 L 1238.01 899.483 L 1238.04 1517.02 L 1238.04 1714.11 L 1238.07 1776.17 C 1238.07 1816.44 1237.83 1853.35 1211.19 1886.89 C 1192.32 1910.22 1165.07 1925.24 1135.26 1928.71 C 1107.64 1929.98 1079.31 1929.42 1051.62 1929.31 L 935.655 1929.04 L 550.496 1928.88 L 302.849 1929 L 236.189 1929.12 C 192.426 1929.21 164.102 1931.42 129.41 1900.57 C 107.168 1880.79 89.5975 1849.89 88.2547 1819.87 C 86.7509 1786.26 87.5753 1752.77 87.5422 1719.43 L 87.5581 1527.15 L 87.8046 910.827 L 87.7238 432.2 L 87.4258 292.258 C 87.2121 238.192 79.5549 188.196 118.27 144.642 C 137.466 123.176 164.361 110.158 193.106 108.419 z"/>
<path transform="translate(0,0)" fill="rgb(139,191,93)" d="M 229.742 167.435 C 250.654 166.526 275.372 167.132 296.5 167.138 L 412.662 167.127 L 767.484 167.137 L 985.296 167.384 L 1055.69 167.273 C 1088.27 167.224 1118.54 163.806 1145.34 186.37 C 1164.5 202.249 1176.44 225.19 1178.45 249.994 C 1180.29 272.112 1179.03 312.386 1178.93 335.811 L 1178.93 480.209 L 1179.06 969.098 L 1178.18 1506.64 L 1178.59 1687.55 C 1178.69 1720.03 1179.37 1752.69 1178.26 1785.15 C 1176.62 1832.84 1139.82 1866.82 1093.18 1870.43 C 1072.21 1871.49 1046.56 1870.74 1025.31 1870.71 L 916.158 1870.84 L 563.012 1870.9 L 331.754 1870.56 L 266.315 1870.77 C 252.784 1870.85 238.262 1871.37 224.867 1870.07 C 182.991 1865.74 147.289 1828.19 146.205 1785.91 C 145.313 1751.12 145.692 1716.58 145.712 1681.89 L 145.732 1487.44 L 145.269 909.94 L 145.731 443.257 L 145.549 318.072 C 145.503 309.25 145.415 300.228 145.397 291.551 C 145.322 256.626 141.595 224.791 167.769 196.958 C 187.089 176.413 201.91 169.093 229.742 167.435 z"/>
<path transform="translate(0,0)" fill="rgb(254,254,254)" d="M 518.908 1107.5 L 893.098 1107.54 L 1001.12 1107.29 C 1016.24 1107.27 1047.47 1106.57 1061.11 1108.6 C 1076.44 1111.01 1090.64 1118.16 1101.7 1129.04 C 1120.24 1147.22 1124.75 1166.7 1124.75 1191.55 C 1124.75 1227.46 1124.48 1263.38 1124.53 1299.28 L 1124.85 1569.86 L 1124.91 1681.48 C 1125.02 1718.66 1131.25 1763.65 1102.94 1792.05 C 1081.69 1813.37 1058.64 1814.16 1030.6 1813.56 C 1014.62 1813.23 998.053 1813.44 982.051 1813.41 L 811.5 1813.38 L 426.133 1813.19 L 317.275 1813.21 C 281.772 1813.26 249.011 1819.06 221.92 1791.7 C 198.895 1768.45 198.699 1746.87 199.051 1716.37 C 199.207 1702.87 199.107 1689.07 199.136 1675.67 C 199.383 1635.78 199.283 1595.89 198.834 1556.01 L 198.681 1285.55 L 198.829 1212.81 C 198.915 1198.59 198.755 1182.96 200.567 1168.88 C 203.665 1144.8 230.887 1113.38 255.394 1109.85 C 283.105 1105.85 316.367 1107.65 344.969 1107.64 L 518.908 1107.5 z"/>
<path transform="translate(0,0)" fill="rgb(255,205,18)" d="M 396.079 1585.23 C 412.393 1583.82 519.247 1582.34 528.794 1587.67 C 533.491 1590.3 536.941 1594.85 538.601 1599.91 C 542.23 1610.95 541.363 1706.14 540.056 1722.94 C 539.732 1727.11 539.311 1731.06 537.314 1734.8 C 533.987 1741.04 528.852 1743.73 522.347 1745.77 C 503.587 1747.43 404.56 1748.44 391.115 1743.71 C 386.388 1742.04 383.066 1738.7 381.045 1734.17 C 379.181 1729.98 378.433 1725.22 378.036 1720.69 C 376.673 1705.1 375.939 1608.84 380.456 1598.11 C 383.639 1590.56 388.944 1588.04 396.079 1585.23 z"/>
<path transform="translate(0,0)" fill="rgb(254,254,254)" d="M 433.508 1627.1 C 436.743 1626.33 442.823 1625.49 444.618 1623.44 C 444.646 1620.14 444.154 1616.36 445.995 1613.96 C 449.243 1613.59 447.793 1613.26 450.526 1614.84 C 452.438 1620.12 450.837 1621.9 453.311 1625.08 C 456.049 1625.58 456.139 1625.51 458.773 1624.38 C 460.852 1618.65 458.481 1617.46 461.526 1613.56 C 464.653 1613.55 463.299 1613.05 465.688 1615.18 C 466.536 1619.04 466.444 1620.63 466.421 1624.48 C 508.565 1638.35 476.436 1657.81 476.114 1664.77 C 480.153 1668.98 484.704 1665.53 488.159 1672.22 C 497.414 1690.16 485.467 1703.61 466.729 1705.48 C 466.694 1709.6 467.105 1714.02 464.241 1716.99 L 462.585 1716.66 C 460.4 1714.27 460.029 1713.76 459.419 1710.63 L 458.299 1704.76 C 446.188 1706.74 455.593 1713.99 447.982 1717.32 C 441.865 1715.07 446.834 1710.94 443.051 1706.2 C 441.066 1705.82 434.776 1704.76 434.583 1703.34 C 432.447 1687.6 432.919 1641.56 433.508 1627.1 z"/>
<path transform="translate(0,0)" fill="rgb(236,235,235)" d="M 458.299 1704.76 C 462.124 1706.05 462.883 1706.48 466.729 1705.48 C 466.694 1709.6 467.105 1714.02 464.241 1716.99 L 462.585 1716.66 C 460.4 1714.27 460.029 1713.76 459.419 1710.63 L 458.299 1704.76 z"/>
<path transform="translate(0,0)" fill="rgb(255,205,18)" d="M 444.886 1669 C 458.489 1668.79 492.54 1668.72 475.749 1692.28 C 466.407 1697.74 455.597 1696.42 444.829 1696.31 L 444.886 1669 z"/>
<path transform="translate(0,0)" fill="rgb(255,205,18)" d="M 445.058 1634.39 C 458.253 1634.49 487.302 1634.33 471.518 1656.26 C 463.123 1660.59 454.292 1659.55 444.712 1659.58 C 444.725 1651.18 444.84 1642.78 445.058 1634.39 z"/>
<path transform="translate(0,0)" fill="rgb(0,0,0)" d="M 820.969 1598.32 C 887.336 1593.41 875.544 1708.09 812.611 1720.01 C 744.026 1728.67 755.302 1607.73 820.969 1598.32 z"/>
<path transform="translate(0,0)" fill="rgb(254,254,254)" d="M 817.826 1624.11 C 834.461 1624.34 836.456 1638.83 835.317 1652.47 C 833.998 1668.27 828.622 1687.48 812.907 1694.55 C 784.333 1693.36 795.33 1634.72 817.826 1624.11 z"/>
<path transform="translate(0,0)" fill="rgb(0,0,0)" d="M 922.506 1598.24 C 987.318 1593.8 976.265 1708.46 912.989 1720.07 C 844.583 1728.33 855.67 1607.04 922.506 1598.24 z"/>
<path transform="translate(0,0)" fill="rgb(254,254,254)" d="M 918.966 1624.01 C 948.217 1625 937.004 1683.43 914.247 1694.38 C 895.878 1694.34 895.928 1675.9 897.477 1662.12 C 899.102 1647.67 904.786 1630.32 918.966 1624.01 z"/>
<path transform="translate(0,0)" fill="rgb(0,0,0)" d="M 716.69 1598.27 C 741.686 1597.04 764.511 1606.86 762.25 1636.19 C 760.397 1660.21 735.4 1677.03 717.685 1691.16 L 754.482 1691.12 C 753.579 1699.38 752.306 1708.04 751.22 1716.32 C 724.221 1716.95 695.766 1716.5 668.661 1716.5 L 659.095 1716.39 C 672.285 1704 740.49 1651.16 729.157 1628.4 C 724.535 1619.12 707.809 1621.36 705.785 1640.1 L 705.647 1641.42 C 694.696 1641.45 683.745 1641.42 672.794 1641.32 C 680.917 1617.25 690.281 1602.87 716.69 1598.27 z"/>
<path transform="translate(0,0)" fill="rgb(0,0,0)" d="M 1065.22 1265.7 C 1072.91 1266.19 1080 1266.16 1087.69 1266.16 C 1079.5 1281.56 1065.33 1311.33 1062.16 1328.41 C 1061.01 1334.58 1061.51 1356.1 1061.61 1363.61 L 1041.83 1363.29 L 1041.97 1347.75 C 1042.04 1333.99 1042.22 1327.97 1036.72 1314.62 C 1029.61 1297.36 1021.56 1280.81 1013.82 1263.85 C 1014.23 1270.95 1014.58 1278.06 1014.88 1285.17 L 996.076 1285.25 C 995.362 1309.91 996.323 1337.95 996.24 1363.12 L 975.923 1362.83 L 976.023 1285.61 C 969.929 1285.55 963.834 1285.57 957.74 1285.66 C 957.478 1279.29 957.751 1272.21 957.861 1265.78 C 977.686 1267.3 1015.86 1266.15 1037.44 1266.62 C 1041.51 1278.95 1047.95 1291.84 1050.36 1304.48 C 1055.45 1291.69 1060.81 1278.71 1065.22 1265.7 z"/>
<path transform="translate(0,0)" fill="rgb(0,0,0)" d="M 375.532 1265.86 C 394.905 1267.29 432.432 1260.67 433.972 1291.07 C 434.495 1301.4 431.129 1304.86 424.584 1311.99 C 425.944 1319.41 446.993 1321.16 433.621 1349.77 C 421.242 1367.54 394.506 1363.18 375.096 1362.97 C 375.796 1330.7 374.756 1298.34 375.532 1265.86 z"/>
<path transform="translate(0,0)" fill="rgb(254,254,254)" d="M 395.936 1321.86 C 412.364 1322.88 421.597 1324.87 412.87 1343.48 C 407.649 1344.96 401.727 1344.8 396.253 1344.93 C 395.99 1337.37 396.015 1329.46 395.936 1321.86 z"/>
<path transform="translate(0,0)" fill="rgb(254,254,254)" d="M 396.42 1283.45 C 411.874 1284.7 416.717 1288.1 410.397 1303.43 C 391.432 1309.72 395.376 1296.86 396.42 1283.45 z"/>
<path transform="translate(0,0)" fill="rgb(0,0,0)" d="M 707.111 1266.2 C 728.767 1266.09 765.719 1261.37 765.888 1293.28 C 765.934 1301.94 760.838 1307.05 754.933 1312.59 C 770.543 1321.66 772.318 1332.88 765.375 1349.26 C 751.43 1367.55 728.27 1363.1 707.366 1362.72 L 707.111 1266.2 z"/>
<path transform="translate(0,0)" fill="rgb(254,254,254)" d="M 727.556 1322.09 C 741.912 1322.36 754.811 1324.69 744.775 1342.12 C 739.58 1344.58 733.661 1344.55 727.952 1344.88 C 727.581 1337.35 727.616 1329.64 727.556 1322.09 z"/>
<path transform="translate(0,0)" fill="rgb(254,254,254)" d="M 727.482 1284.47 C 730.115 1284.48 732.746 1284.62 735.365 1284.89 C 739.688 1285.37 741.538 1286.33 744.255 1289.68 C 746.262 1295.13 744.565 1298.29 742.317 1303.35 C 738.671 1304.91 733.904 1306.44 730.077 1305.14 C 725.465 1300.08 727.198 1291.99 727.482 1284.47 z"/>
<path transform="translate(0,0)" fill="rgb(0,0,0)" d="M 853.792 1266.23 C 868.908 1266.28 898.075 1264.15 907.6 1276.84 C 921.253 1295.03 915.399 1312.42 900.36 1325.56 C 906.396 1336.85 911.829 1350.26 916.948 1362.12 C 909.543 1362.39 901.987 1362.5 894.57 1362.67 C 890.984 1356.22 885.017 1329.13 877.104 1328.76 C 874.079 1333.61 874.682 1355.51 874.606 1362.59 C 867.861 1362.43 861.113 1362.37 854.366 1362.4 C 853.55 1330.69 853.854 1297.99 853.792 1266.23 z"/>
<path transform="translate(0,0)" fill="rgb(254,254,254)" d="M 875.264 1284.35 C 891.626 1285.17 900.136 1293.03 890.633 1308.73 C 868.852 1317.42 874.466 1300.39 875.264 1284.35 z"/>
<path transform="translate(0,0)" fill="rgb(0,0,0)" d="M 508.638 1266.26 L 518.279 1266.29 C 542.697 1266.43 570.215 1266.16 568.897 1299.34 C 568.388 1312.16 563.781 1317.28 554.657 1325.73 C 556.653 1328.38 569.984 1356.19 572.959 1361.69 C 565.249 1362.62 558.448 1362.7 550.71 1362.88 C 545.897 1357.83 540.939 1335 533.286 1328.85 L 531.615 1329.15 C 528.659 1334.73 530.199 1355.36 530.432 1362.81 L 509.194 1362.67 L 508.638 1266.26 z"/>
<path transform="translate(0,0)" fill="rgb(254,254,254)" d="M 530.286 1285.23 C 547.667 1285.44 553.462 1292.05 545.557 1308.38 C 540.404 1311.12 536.027 1311.41 530.313 1312.12 C 530.016 1302.57 529.839 1294.75 530.286 1285.23 z"/>
<path transform="translate(0,0)" fill="rgb(0,0,0)" d="M 431.987 1408.32 C 459.847 1407.94 496.444 1404.08 493.876 1444.1 C 492.721 1462.11 479.46 1470.45 463.25 1473.05 C 459.571 1473.18 456.851 1472.98 453.451 1474.37 C 452.426 1480.53 452.901 1497.57 452.94 1504.62 C 446.172 1504.87 438.736 1504.67 431.915 1504.64 C 432.179 1472.53 432.203 1440.43 431.987 1408.32 z"/>
<path transform="translate(0,0)" fill="rgb(254,254,254)" d="M 453.144 1426.19 C 457.356 1426.44 462.293 1426.39 466.012 1428.57 C 474.89 1433.79 473.824 1444.93 468.418 1452.44 C 461.881 1455.07 460.281 1455.12 453.104 1455.8 C 452.779 1445.93 452.792 1436.05 453.144 1426.19 z"/>
<path transform="translate(0,0)" fill="rgb(0,0,0)" d="M 690.576 1409.51 L 711.459 1409.87 C 715.735 1425.69 721.235 1442.23 725.808 1458.14 C 730.152 1473.24 734.408 1490.39 739.462 1504.97 C 731.309 1504.64 725.636 1504.6 717.49 1505.02 C 716.176 1499.35 714.988 1493.51 713.759 1487.81 C 705.725 1487.53 697.497 1487.92 689.449 1488.17 C 688.265 1493.62 687.449 1499.61 686.58 1505.15 C 679.424 1505.23 671.387 1504.91 664.162 1504.77 C 671.557 1474.79 682.319 1440.16 690.576 1409.51 z"/>
<path transform="translate(0,0)" fill="rgb(254,254,254)" d="M 698.021 1449.58 C 698.383 1446.13 698.266 1444.6 700.058 1441.62 C 701.963 1443.15 701.484 1444.28 701.865 1447.37 C 704.269 1455.3 706.595 1463.26 708.843 1471.24 L 693.951 1470.82 C 695.06 1464.32 696.269 1455.77 698.021 1449.58 z"/>
<path transform="translate(0,0)" fill="rgb(236,235,235)" d="M 698.021 1449.58 C 698.383 1446.13 698.266 1444.6 700.058 1441.62 C 701.963 1443.15 701.484 1444.28 701.865 1447.37 C 698.112 1453.24 701.931 1452.24 700.046 1456.57 L 699.939 1454.34 L 698.76 1453.91 L 698.021 1449.58 z"/>
<path transform="translate(0,0)" fill="rgb(0,0,0)" d="M 778.988 1266.32 L 798.788 1266.41 C 799.003 1279.99 796.906 1331.1 801.267 1340.06 C 803.465 1342.2 805.446 1343.3 808.537 1343.65 C 811.738 1344.02 814.96 1342.73 817.323 1340.58 C 823.126 1335.31 820.547 1278.49 820.908 1266.55 L 840.214 1266.91 C 840.4 1274.16 840.391 1281.63 840.469 1288.91 C 840.551 1300.54 840.565 1312.18 840.51 1323.81 C 840.332 1339.42 838.107 1356.31 820.735 1361.91 C 803.615 1368.27 781.521 1359.73 779.112 1339.97 C 776.355 1317.33 778.262 1289.28 778.988 1266.32 z"/>
<path transform="translate(0,0)" fill="rgb(0,0,0)" d="M 503.561 1408.65 C 516.864 1409.52 540.416 1408.68 554.493 1408.64 L 553.633 1427.96 L 524.311 1428.01 C 524.197 1434.27 524.259 1440.7 524.24 1446.97 C 531.565 1446.35 542.035 1446.45 549.601 1446.32 C 549.567 1452.51 549.85 1458.75 550.069 1464.94 L 524.259 1464.41 L 524.21 1478.86 C 524.207 1481.56 524.147 1481.95 524.87 1484.51 C 529.636 1487.61 547.636 1486.51 555.15 1486.76 L 554.974 1505.19 L 503.641 1505.05 C 504.308 1473.58 503.251 1440.52 503.561 1408.65 z"/>
<path transform="translate(0,0)" fill="rgb(0,0,0)" d="M 447.173 1266.8 C 463.528 1267.1 480.874 1266.78 497.305 1266.73 L 496.841 1285.4 L 467.914 1285.79 C 467.627 1292.08 467.801 1298.52 467.878 1304.83 L 492.631 1305.21 L 492.614 1322.97 L 467.701 1322.99 L 467.708 1340.25 L 468.089 1342.89 C 471.059 1345.74 492.465 1344.72 498.059 1344.73 L 498.094 1362.66 L 447.591 1362.96 C 446.018 1333.82 446.897 1296.19 447.173 1266.8 z"/>
<path transform="translate(0,0)" fill="rgb(0,0,0)" d="M 603.964 1265.34 C 618.058 1264.63 624.424 1268.58 634.994 1277.15 C 629.167 1282.54 625.684 1286.27 621.362 1292.88 C 615.542 1287.54 612.32 1283.19 602.044 1286.66 C 599.333 1287.58 599.049 1289.21 598.325 1291.65 C 600.188 1301.72 615.802 1306.55 624.449 1313.07 C 639.043 1324.06 637.939 1340.18 628.231 1354.4 C 623.61 1361.17 614.134 1363.44 605.904 1364.31 C 589.787 1364.34 586.425 1362.27 575.316 1352 C 580.746 1346.11 583.153 1342.54 586.037 1335.15 C 607.905 1357.22 626.727 1337.9 602.771 1325.59 C 582.991 1315.43 568.622 1299.49 583.061 1277.58 C 588.219 1269.75 595.083 1267.11 603.964 1265.34 z"/>
<path transform="translate(0,0)" fill="rgb(0,0,0)" d="M 645.09 1266.38 C 661.797 1266.58 678.506 1266.58 695.213 1266.38 C 695.205 1272.48 694.955 1278.87 694.812 1285 C 685.395 1285.23 675.495 1285.1 666.036 1285.13 L 666.003 1305.03 C 673.708 1304.59 682.786 1305.08 690.598 1305.29 L 690.144 1322.9 L 665.431 1322.9 L 665.575 1338.96 C 665.644 1340.77 665.859 1341.5 666.205 1343.25 C 670.464 1346.02 688.949 1344.54 695.096 1344.42 L 695.643 1362.87 L 644.825 1362.98 L 645.09 1266.38 z"/>
<path transform="translate(0,0)" fill="rgb(0,0,0)" d="M 385.242 1408.2 C 402.882 1406.92 406.793 1407.89 420.123 1418.95 C 418.567 1420.91 409.166 1434.69 407.534 1433.73 C 401.737 1430.33 390.969 1422.52 385.846 1431.09 C 382.47 1436.74 387.411 1441.44 392.007 1444.34 C 404.223 1450.96 416.739 1454.99 420.044 1470.2 C 421.713 1477.94 420.242 1486.03 415.952 1492.69 C 410.316 1501.32 403.579 1504.36 393.978 1506.45 C 377.785 1506.77 373.085 1503.25 360.152 1494.26 C 381.171 1468.81 369.091 1485.47 393.855 1487.06 C 395.096 1487.14 398.031 1484.08 398.547 1482.46 C 403.504 1465.47 369.695 1464.06 365.794 1447.66 C 361.079 1427.84 365.876 1415.72 385.242 1408.2 z"/>
<path transform="translate(0,0)" fill="rgb(0,0,0)" d="M 858.064 1408.24 C 876.355 1406.03 906.932 1413.87 879.927 1433.26 C 874.008 1429.59 859.676 1424.03 856.832 1433.46 C 859.011 1446.98 875.079 1447.31 882.787 1454.13 C 903.694 1472.64 893.16 1503 865.893 1506.38 C 857.432 1506.17 838.31 1502.48 835.093 1493.48 C 836.236 1489.64 843.178 1483.22 846.156 1480.47 C 852.339 1480.85 866.318 1495.81 874.532 1480.89 C 873.058 1468.22 843.825 1462.23 838.768 1445.8 C 833.188 1427.67 841.052 1415.2 858.064 1408.24 z"/>
<path transform="translate(0,0)" fill="rgb(0,0,0)" d="M 269.903 1265.36 C 285.285 1265.7 290.414 1269.25 299.478 1281.52 C 294.698 1285.56 289.999 1289.7 285.382 1293.93 C 244.469 1253.35 247.702 1380.88 285.193 1335.34 C 288.731 1339.37 291.272 1341.7 295.287 1345.29 C 296.772 1346.21 297.087 1346.76 298.281 1348.04 L 297.967 1350.32 C 273.297 1380.18 239.445 1361.16 235.402 1327.2 C 233.133 1308.15 235.477 1284.02 252.253 1271.67 C 258.28 1267.24 262.6 1266.32 269.903 1265.36 z"/>
<path transform="translate(0,0)" fill="rgb(0,0,0)" d="M 592.35 1408.12 C 594.769 1407.93 597.192 1407.79 599.617 1407.72 C 613.009 1407.32 619.021 1412.87 628.18 1421.53 C 625.18 1424.8 617.312 1432.38 613.504 1434.13 C 608.426 1431.24 601.096 1424.17 594.03 1428.72 C 579.149 1438.32 577.996 1483.22 598.794 1487.66 C 602.875 1488.54 609.533 1482.4 612.71 1479.89 C 616.031 1479.75 616.088 1480.73 619.27 1483.19 C 621.144 1484.62 625.61 1489.06 627.536 1490.88 C 607.653 1517.92 575.975 1507.83 566.189 1479.83 C 556.987 1453.5 563.281 1417.92 592.35 1408.12 z"/>
<path transform="translate(0,0)" fill="rgb(0,0,0)" d="M 348.716 1266.22 C 356.452 1266.76 361.762 1266.42 369.448 1265.99 C 362.45 1283.9 354.701 1301.1 346.875 1318.66 C 342.61 1328.07 343.963 1351.64 344.026 1363.2 L 323.757 1363.05 C 323.924 1354.8 324.583 1335.11 323.274 1328.09 C 319.662 1308.73 306.358 1285.45 298.217 1266.75 L 314.295 1266.47 L 318.268 1266.72 C 324.149 1272.37 331.079 1296.25 333.45 1304.6 C 338.036 1293.65 345.278 1277.19 348.716 1266.22 z"/>
<path transform="translate(0,0)" fill="rgb(0,0,0)" d="M 899.551 1409.01 C 918.889 1409.27 939.02 1408.93 958.424 1408.89 C 958.433 1415.66 958.773 1421.98 959.139 1428.72 L 938.883 1428.76 L 939.2 1484.44 L 939.22 1504.81 L 919.465 1504.69 C 919.261 1479.25 919.187 1453.81 919.242 1428.38 C 912.629 1427.96 905.543 1428.05 898.884 1428.01 C 899.026 1421.72 899.324 1415.31 899.551 1409.01 z"/>
<path transform="translate(0,0)" fill="rgb(0,0,0)" d="M 746.546 1408.95 L 766.113 1408.99 C 766.446 1434.71 766.473 1460.43 766.195 1486.14 L 796.92 1486.23 L 796.591 1504.28 C 779.717 1504.36 762.844 1504.54 745.972 1504.84 C 746.886 1473.21 745.043 1440.34 746.546 1408.95 z"/>
<path transform="translate(0,0)" fill="rgb(0,0,0)" d="M 636.223 1408.98 C 642.426 1409.43 650.486 1409.19 656.831 1409.19 C 657.273 1438.24 658.137 1476.38 656.64 1504.96 L 636.159 1504.98 C 636.791 1472.98 636.812 1440.98 636.223 1408.98 z"/>
<path transform="translate(0,0)" fill="rgb(0,0,0)" d="M 927.739 1265.84 C 934.282 1265.82 940.898 1265.95 947.447 1266.02 L 947.263 1362.95 L 927.188 1362.8 C 926.284 1334.64 926.69 1294.03 927.739 1265.84 z"/>
<path transform="translate(0,0)" fill="rgb(0,0,0)" d="M 806.126 1408.48 C 812.898 1408.67 818.817 1408.55 825.557 1408.35 C 824.389 1435.86 825.712 1475.64 825.677 1504.16 C 819.006 1504.42 811.988 1504.48 805.287 1504.63 C 805.594 1473.91 804.859 1438.76 806.126 1408.48 z"/>
<path transform="translate(0,0)" fill="rgb(0,0,0)" d="M 601.564 411.43 C 604.788 411.458 608.012 411.539 611.233 411.672 C 686.973 414.911 742.042 470.668 738.671 547.567 C 757.332 561.231 758.371 586.298 753.737 607.053 C 750.854 619.969 743.057 626.654 732.239 632.937 C 729.128 669.294 725.761 669.228 688.08 669.86 C 684.264 669.924 679.966 670.017 676.096 670.075 C 668.685 681.455 662.733 687.965 653.703 698.053 C 654.372 705.898 655.49 723.359 663.434 727.305 C 684.656 737.851 707.875 743.922 730.014 753.285 C 730.609 744.26 730.516 737.965 730.215 728.9 C 756.321 723.062 786.351 714.499 809.3 700.191 C 809.252 684.845 808.83 669.595 808.582 654.258 C 808.481 647.997 810.001 647.456 814.757 642.831 C 813.425 639.476 811.507 643.181 808.592 638.525 C 808.638 623.425 808.293 587.267 809.308 570.823 C 810.763 569.201 812.004 567.816 813.034 566.668 C 813.133 563.673 810.695 561.506 808.618 558.24 C 807.648 538.886 808.629 518.73 808.276 499.303 C 808.619 496.461 814.049 492.428 811.394 489.801 C 807.516 485.965 807.599 477.811 808 472.12 C 808.726 461.823 805.529 423.147 811.01 417.159 C 822.847 413.72 847.575 415.116 860.574 415.093 L 938.361 415.159 C 956.886 415.235 1002.36 414.332 1019.12 416.743 C 1020.52 434.01 1019.75 460.006 1019.64 478.189 L 1019.24 576.365 L 1019.5 863.888 L 1019.58 865.053 C 1026.75 869.833 1049.97 862.34 1056.79 869.519 C 1057.47 872.629 1057.73 871.668 1056.59 874.096 C 1051.41 876.296 955.5 875.18 945.249 874.309 C 925.647 908.904 906.954 933.355 872.981 955.472 C 862.604 962.226 856.204 966.628 844.52 971.226 C 833.747 965.993 793.861 935.034 791.621 934.702 C 790.416 935.754 789.222 936.817 788.038 937.892 C 779.799 938.712 745.194 937.739 734.695 937.755 C 689.796 937.886 644.897 937.737 600 937.309 L 471.356 937.847 C 453.597 937.862 427.046 938.647 409.837 937.194 C 410.843 921.623 413.978 901.684 416.281 885.919 C 419.989 860.54 423.078 832.497 430.699 808.146 C 450.638 744.444 500.872 750.367 545.755 727.599 C 550.477 716.394 550.408 709.418 551.491 697.343 C 538.183 682.574 526.345 667.24 520.515 647.926 C 518.94 642.709 514.411 619.555 509.706 618.744 C 506.136 624.761 510.989 641.063 496.977 641.955 C 486.539 642.619 477.613 636.558 469.254 630.401 C 450.648 616.698 451.184 576.404 462.982 558.928 C 476.214 542.906 469.792 548.198 471.33 526.774 C 476.401 456.144 534.262 414.837 601.564 411.43 z"/>
<path transform="translate(0,0)" fill="rgb(254,254,254)" d="M 543.303 739.109 C 543.979 739.12 544.654 739.132 545.33 739.144 C 562.09 758.354 581.198 772.836 608.536 770.317 C 630.902 768.256 647.621 755.699 662.254 738.045 C 683.451 747.307 707.488 754.155 729.616 762 C 730.611 834.836 738.11 872.357 786.046 928.794 C 764.964 929.677 740.666 929.253 719.503 928.885 C 719.785 913.042 721.491 862.745 719.182 850.152 L 717.237 849.174 C 715.7 849.38 714.004 849.221 712.89 850.365 C 709.177 854.177 711.055 919.314 711.432 928.57 L 697.25 928.711 C 629.463 929.193 561.673 929.202 493.885 928.738 C 494.244 905.943 494.516 880.889 493.443 858.001 C 493.29 854.745 492.06 851.941 489.102 850.44 L 487.263 851.251 C 484.439 855.478 485.253 919.58 485.524 928.613 C 463.924 929.209 440.645 928.807 418.919 928.828 C 423.374 891.33 430.077 835.136 442.918 800.123 C 457.424 760.57 505.982 753.621 543.303 739.109 z"/>
<path transform="translate(0,0)" fill="rgb(139,191,93)" d="M 848.686 686.883 C 852.115 688.031 855.95 690.829 858.954 692.849 C 880.919 707.619 904.874 721.102 930.3 728.836 C 938.582 731.356 947.576 733.357 955.575 736.749 L 956.706 737.238 C 957.131 745.466 956.399 757.442 956.242 766.08 C 955.639 799.247 953.409 828.834 941.621 860.039 C 925.892 901.673 887.319 942.708 846.338 960.428 C 833.386 959.12 798.646 927.721 788.898 917.692 C 738.667 866.013 737.191 803.132 738.713 735.334 C 773.714 729.043 821.163 709.072 848.686 686.883 z"/>
<path transform="translate(0,0)" fill="rgb(0,0,0)" d="M 848.263 709.729 C 848.754 709.785 849.244 709.841 849.735 709.896 C 869.628 725.625 891.591 735.976 915.611 743.963 C 918.414 744.9 935.097 750.767 935.573 753.846 C 938.316 771.568 934.052 818.363 930.084 833.066 C 916.87 882.027 887.514 913.799 845.533 938.897 C 841.418 934.616 822.881 922.165 816.271 916.213 C 777.649 881.434 759.211 840.939 757.79 789.143 C 757.699 778.68 755.298 763.988 758.251 754.199 C 759.423 750.315 781.445 745.211 785.997 743.134 C 802.104 735.785 836.11 723.597 847.43 710.691 L 848.263 709.729 z"/>
<path transform="translate(0,0)" fill="rgb(139,191,93)" d="M 852.109 723.49 C 855.018 724.729 867.591 732.658 871.717 734.805 C 889.16 743.884 908.606 753.241 927.796 757.701 C 926.631 780.308 927.3 794.814 923.796 817.978 L 923.286 819.51 C 918.022 822.815 861.815 820.74 852.218 820.095 C 851.532 787.899 852.822 755.626 852.109 723.49 z"/>
<path transform="translate(0,0)" fill="rgb(139,191,93)" d="M 841.979 727.12 C 843.52 729.625 842.914 811.035 842.586 820.596 C 819.216 819.584 792.945 819.853 769.356 819.632 C 767.733 798.025 766.687 781 766.109 759.267 C 798.279 749.143 811.725 742.173 841.979 727.12 z"/>
<path transform="translate(0,0)" fill="rgb(139,191,93)" d="M 771.5 828.722 C 794.092 830.016 818.938 828.693 842.365 829.805 C 842.317 861.18 842.101 892.555 841.718 923.928 C 840.869 923.706 839.762 923.458 839.027 922.944 C 814.952 906.121 794.484 883.689 781.8 857.058 C 777.317 847.644 774.523 838.75 771.5 828.722 z"/>
<path transform="translate(0,0)" fill="rgb(139,191,93)" d="M 890.187 829.507 C 900.84 829.229 910.257 829.734 920.919 830.281 C 910.969 867.963 897.06 886.904 868.107 912.323 C 862.347 917.532 857.467 920.64 850.91 924.61 C 852.46 895.954 851.052 859.609 851.608 829.746 C 864.25 829.44 877.494 829.574 890.187 829.507 z"/>
<path transform="translate(0,0)" fill="rgb(254,254,254)" d="M 598.417 530.549 C 603.54 534.732 608.019 543.052 617.055 548.899 C 635.274 560.688 650.354 559.615 669.278 566.689 C 672.821 568.014 675.888 574.821 676.878 578.765 C 683.903 606.731 686.325 635.07 671.697 660.856 C 659.618 663.014 642.036 661.963 629.909 660.48 C 628.867 657.405 627.421 652.694 624.535 651.061 C 620.817 648.939 611.211 646.706 606.898 648.499 C 580.449 659.496 598.889 693.184 624.616 678.687 C 629.487 675.942 628.587 675.888 630.454 671.034 C 631.948 670.394 656.524 671.831 661.086 671.877 L 662.645 672.788 C 644.599 700.218 610.448 716.324 578.824 702.491 C 556.27 692.431 538.6 673.876 529.653 650.859 C 521.755 630.451 522.085 594.463 530.461 574.681 C 541.949 547.548 581.25 570.584 597.924 531.716 L 598.417 530.549 z"/>
<path transform="translate(0,0)" fill="rgb(254,254,254)" d="M 585.841 462.371 C 614.247 459.507 646.717 463.486 668.443 483.63 C 694.153 507.468 694.302 536.622 695.661 568.733 L 684.362 567.987 C 664.557 545.516 635.119 563.341 607.143 527.385 C 604.829 523.45 602.64 519.031 599.151 516.21 C 597.906 516.012 596.06 515.581 595.549 517.085 C 583.908 551.353 563.404 545.996 534.784 555.91 C 525.611 559.087 523.222 571.469 519.02 574.266 L 516.678 573.746 C 514.877 572.077 513.009 570.71 513.073 567.825 C 514.258 514.392 524.157 470.572 585.841 462.371 z"/>
<path transform="translate(0,0)" fill="rgb(139,191,93)" d="M 834.496 497.496 C 893.299 496.673 952.111 496.84 1010.91 497.996 L 1011.07 562.25 L 993.4 562.617 L 816.927 562.705 L 817.109 498.392 C 822.859 498.019 828.731 497.786 834.496 497.496 z"/>
<path transform="translate(0,0)" fill="rgb(0,0,0)" d="M 837.689 525.349 C 846.624 526.243 902.53 524.951 905.179 527.04 C 906.42 530.62 906.044 532.011 905.609 535.673 C 896.091 535.784 840.076 537.578 836.831 534.741 C 835.952 531.195 836.836 528.857 837.689 525.349 z"/>
<path transform="translate(0,0)" fill="rgb(0,0,0)" d="M 980.321 523.571 C 984.072 522.787 987.797 525.015 988.881 528.691 C 989.965 532.366 988.046 536.259 984.469 537.636 C 981.884 538.632 978.959 538.091 976.901 536.236 C 974.843 534.382 974.002 531.528 974.724 528.854 C 975.446 526.179 977.609 524.138 980.321 523.571 z"/>
<path transform="translate(0,0)" fill="rgb(139,191,93)" d="M 816.874 574.297 C 837.278 572.719 867.107 573.651 888.274 573.718 L 1010.9 573.949 C 1010.83 594.833 1011.46 618.46 1010.34 639.002 C 963.13 640.02 915.499 638.559 868.239 638.962 C 851.777 639.103 833.918 639.167 817.595 637.713 C 816.258 619.218 816.939 593.334 816.874 574.297 z"/>
<path transform="translate(0,0)" fill="rgb(0,0,0)" d="M 838.242 603.031 C 846.181 603.232 900.468 602.077 903.35 604.367 C 904.576 607.89 904.065 609.1 903.443 612.766 C 893.556 612.799 841.904 614.303 837.812 611.371 C 836.703 608.118 837.465 606.421 838.242 603.031 z"/>
<path transform="translate(0,0)" fill="rgb(0,0,0)" d="M 977.626 601.029 C 983.456 600.418 987.5 599.837 989.659 605.814 C 989.264 609.702 987.943 610.792 985.473 613.712 C 979.785 614.418 977.077 613.742 974.677 608.594 C 974.66 604.824 975.394 604.157 977.626 601.029 z"/>
<path transform="translate(0,0)" fill="rgb(139,191,93)" d="M 816.825 423.406 C 864.965 421.792 914.252 424.218 962.503 423.428 C 978.563 423.165 995.26 422.937 1011.28 423.587 C 1011.26 443.673 1011.83 467.503 1010.88 487.291 C 948.191 488.009 879.501 488.896 816.953 486.677 C 816.28 472.251 815.299 436.966 816.825 423.406 z"/>
<path transform="translate(0,0)" fill="rgb(0,0,0)" d="M 837.116 450.959 C 846.514 450.929 899.765 449.869 905.037 451.768 C 906.462 455.107 905.795 455.71 905.388 459.616 C 897.609 460.029 840.424 461.023 837.161 459.421 C 835.905 456.606 836.671 454.134 837.116 450.959 z"/>
<path transform="translate(0,0)" fill="rgb(0,0,0)" d="M 979.537 448.315 C 983.142 446.929 987.201 448.612 988.767 452.143 C 990.332 455.674 988.855 459.813 985.407 461.554 C 983.017 462.761 980.157 462.552 977.967 461.012 C 975.778 459.471 974.615 456.85 974.944 454.193 C 975.272 451.536 977.038 449.276 979.537 448.315 z"/>
<path transform="translate(0,0)" fill="rgb(139,191,93)" d="M 825.371 649.436 C 884.723 648.916 952.414 648.027 1011.25 650.14 C 1011.62 670.862 1011.16 692.916 1011.1 713.744 L 944.25 714.222 C 908.015 714.799 895.999 704.649 863.638 688.382 C 871.178 688.377 902.817 689.333 907.439 686.448 C 908.37 682.854 908.596 684.147 907.117 681.325 C 896.273 675.144 862.495 680.954 843.806 676.557 C 835.877 687.854 829.364 690.62 817.123 696.479 C 816.968 685.503 816.339 661.365 818.449 651.268 C 820.747 649.435 822.087 649.831 825.371 649.436 z"/>
<path transform="translate(0,0)" fill="rgb(0,0,0)" d="M 979.769 677.529 C 981.98 676.383 984.649 676.582 986.667 678.042 C 988.684 679.503 989.707 681.976 989.309 684.435 C 988.912 686.894 987.162 688.918 984.787 689.669 C 981.525 690.7 978.016 689.064 976.708 685.901 C 975.401 682.739 976.73 679.103 979.769 677.529 z"/>
<path transform="translate(0,0)" fill="rgb(254,254,254)" d="M 558.472 701.298 C 593.839 720.404 608.72 722.645 644.855 701.994 C 646.045 712.618 648.944 723.661 653.559 733.284 C 650.375 737.81 647.774 740.629 644.026 744.74 C 615.572 771.791 574.482 765.584 552.92 733.573 C 557.076 721.407 558.153 713.769 558.472 701.298 z"/>
<path transform="translate(0,0)" fill="rgb(139,191,93)" d="M 601.254 438.461 C 652.114 439.635 695.937 461.682 710.064 515.086 C 711.99 522.37 716.341 533.751 707.814 537.808 C 707.04 537.738 706.267 537.668 705.493 537.598 C 702.436 531.305 697.956 513.189 695.659 507.461 C 692.339 499.285 687.758 491.68 682.084 484.922 C 662.565 462.023 637.246 454.238 608.625 452.083 C 561.695 451.039 523.292 466.162 510.579 515.89 C 509.72 519.252 506.208 536.452 505.135 538.435 C 500.808 539.49 495.293 536.999 495.411 532.686 C 496.533 491.701 532.653 452.255 571.436 442.346 C 583.097 439.367 590.84 438.881 601.254 438.461 z"/>
<path transform="translate(0,0)" fill="rgb(139,191,93)" d="M 963.351 795.859 L 1010.53 796.129 C 1010.76 819.451 1010.88 842.774 1010.87 866.098 L 1000.25 866.141 L 949.14 865.874 C 957.982 847.753 961.563 815.807 963.351 795.859 z"/>
<path transform="translate(0,0)" fill="rgb(254,254,254)" d="M 596.594 420.448 C 617.363 419.886 634.069 421.212 653.843 428.686 C 683.989 440.288 708.373 463.265 721.743 492.669 C 727.439 505.53 731.06 525.565 729.11 540.874 C 728.998 541.758 727.638 541.788 726.428 542.096 C 719.767 538.427 720.513 529.984 719.71 523.255 C 714.823 482.287 683.393 447.685 644.351 435.783 C 632.811 432.265 623.217 431.295 611.246 430.312 C 602.408 429.829 593.544 430.193 584.775 431.398 C 533.73 438.512 492.32 476.091 488.68 528.07 C 488.339 532.944 488.879 543.754 482.939 544.426 C 480.732 542.633 480.009 541.374 479.929 538.397 C 478.682 491.71 507.521 448.727 550.284 430.609 C 566.564 423.711 579.169 421.848 596.594 420.448 z"/>
<path transform="translate(0,0)" fill="rgb(139,191,93)" d="M 935.058 722.736 C 943.238 722.08 956.485 723.302 965.409 723.683 C 979.641 724.291 997.08 723.416 1010.96 724.973 L 1011.13 787.077 C 996.014 787.006 979.553 787.225 964.552 786.733 C 964.868 771.901 965.481 756.875 965.146 742.062 C 964.952 733.436 963.409 730.248 955.353 727.837 C 951.578 727.815 939.361 723.964 935.058 722.736 z"/>
<path transform="translate(0,0)" fill="rgb(134,174,85)" d="M 935.058 722.736 C 943.238 722.08 956.485 723.302 965.409 723.683 C 979.641 724.291 997.08 723.416 1010.96 724.973 C 999.852 726.19 962.461 722.133 955.777 727.531 C 955.642 727.641 955.494 727.735 955.353 727.837 C 951.578 727.815 939.361 723.964 935.058 722.736 z"/>
<path transform="translate(0,0)" fill="rgb(0,0,0)" d="M 979.74 749.672 C 982.23 748.669 985.072 749.128 987.12 750.864 C 989.168 752.6 990.087 755.327 989.507 757.949 C 988.926 760.57 986.941 762.654 984.352 763.363 C 980.654 764.374 976.809 762.327 975.586 758.694 C 974.362 755.061 976.184 751.104 979.74 749.672 z"/>
<path transform="translate(0,0)" fill="rgb(254,254,254)" d="M 491.251 549.218 C 495.027 548.471 497.364 547.881 500.37 550.319 C 501.848 559.044 502.175 628.573 496.351 632.703 C 490.366 633.416 485.234 630.631 480 628.033 C 460.641 613.85 460.125 592.719 466.314 570.109 C 469.292 559.23 481.479 553.408 491.251 549.218 z"/>
<path transform="translate(0,0)" fill="rgb(254,254,254)" d="M 711.236 546.516 C 714.395 547.304 717.521 548.219 720.606 549.258 C 731.056 552.88 737.61 558.525 742.854 567.99 C 748.827 578.771 747.805 616.638 736.463 621.897 C 733.418 620.003 734.056 619.593 732.65 615.6 C 731.265 612.332 730.635 611.213 727.727 609.336 C 719.275 610.509 722.83 628.653 713.547 627.388 C 707.203 618.902 710.302 559.959 711.236 546.516 z"/>
<path transform="translate(0,0)" fill="rgb(139,191,93)" d="M 698.928 621.767 C 708.118 626.682 696.244 637.61 722.233 635.667 C 721.889 652.827 725.465 658.231 706.194 660.947 C 697.745 661.334 688.799 661.414 680.303 661.629 C 686.439 649.646 687.717 641.785 690.958 628.655 C 693.287 626.219 696.293 623.923 698.928 621.767 z"/>
<path transform="translate(0,0)" fill="rgb(236,235,235)" d="M 685.78 577.383 C 689.11 577.695 691.865 578.265 695.128 578.891 C 702.695 585.066 698.764 605.915 694.857 613.944 C 692.477 616.436 692.454 617.372 689.61 617.721 C 688.781 599.548 688.96 596.268 685.78 577.383 z"/>
<path transform="translate(0,0)" fill="rgb(254,254,254)" d="M 509.839 580.434 C 522.02 584.592 517.341 600.172 516.571 610.883 C 505.929 607.309 509.172 589.471 509.839 580.434 z"/>
<path transform="translate(0,0)" fill="rgb(254,254,254)" d="M 607.303 658.083 C 613.898 657.409 620.377 658.208 621.215 665.896 C 619.925 669.304 618.999 669.554 615.873 671.618 C 609.339 671.805 604.343 671.145 603.012 664.102 C 603.899 660.782 604.652 660.365 607.303 658.083 z"/>
</svg>