<svg version="1.1" xmlns="http://www.w3.org/2000/svg" style="display: block;" viewBox="0 0 1410 2048" width="380" height="552" preserveAspectRatio="none">
<defs>
	<linearGradient id="Gradient1" gradientUnits="userSpaceOnUse" x1="972.507" y1="1505.83" x2="899.76" y2="1469.73">
		<stop class="stop0" offset="0" stop-opacity="1" stop-color="rgb(0,0,0)"/>
		<stop class="stop1" offset="1" stop-opacity="1" stop-color="rgb(38,37,36)"/>
	</linearGradient>
</defs>
<path transform="translate(0,0)" fill="rgb(254,254,253)" d="M 223.162 74.4411 C 244.959 72.0235 279.399 74.0829 301.928 74.154 L 422.072 73.8844 L 820.501 74.6185 L 1071.86 74.1286 L 1142.06 73.771 C 1153.43 73.7963 1171.67 73.677 1182.58 74.966 C 1206.96 77.7937 1229.83 88.2548 1247.92 104.856 C 1274.85 129.274 1287 163.769 1287.52 199.277 C 1288.09 238.012 1287.79 277.148 1287.76 315.882 L 1287.8 529.79 L 1287.71 1184.64 L 1287.72 1615.39 L 1287.78 1746.57 C 1287.82 1770.45 1288.56 1795.32 1287.04 1819.11 C 1283.35 1876.82 1234.49 1926.88 1176.25 1929.16 C 1103.52 1931.57 1023.74 1929.81 950.385 1929.83 L 540.129 1929.72 L 325.034 1929.77 C 287.904 1929.81 248.989 1931.28 212.347 1928.38 C 181.352 1924.03 159.293 1908.66 139.7 1886.34 C 107.931 1850.15 111.373 1819.51 111.596 1775.42 L 111.589 1711.99 L 111.345 1499.53 L 111.556 862.166 L 111.47 408.102 L 111.294 262.592 C 111.27 237.011 110.094 209.345 112.045 183.963 C 116.638 124.219 164.038 78.0749 223.162 74.4411 z M 1003.75 1869.91 L 1091.78 1869.98 C 1134.44 1870 1168.07 1875.04 1201.56 1841.63 C 1232.24 1811.03 1228.11 1776.72 1228.01 1737.28 L 1227.17 662.475 L 1227.71 353.815 L 1227.96 264.432 C 1227.97 247.479 1228.5 229.673 1226.8 212.697 C 1223.18 176.602 1187.29 140.617 1151.48 135.762 C 1132.83 133.233 1109.2 134.889 1090.03 134.812 L 949.499 134.618 L 391.991 134.484 C 367.28 134.762 342.567 134.817 317.856 134.651 C 292.378 134.571 256.657 132.515 233.244 138.396 C 205.064 145.475 172.927 183.619 171.109 212.853 C 170.048 229.911 170.277 247.633 170.354 264.707 L 170.752 355.658 L 170.655 675.124 L 171.317 1287.05 L 171.084 1631.08 C 171.117 1675.87 170.877 1720.57 170.969 1765.46 C 171.029 1794.78 174.831 1820.89 196.643 1842.91 C 207.533 1853.9 232.675 1866.96 247.866 1868.45 C 272.917 1870.89 302.388 1870.36 327.844 1870.28 L 474.499 1869.5 L 1003.75 1869.91 z"/>
<path transform="translate(0,0)" fill="rgb(241,197,58)" d="M 391.991 134.484 L 949.499 134.618 L 1090.03 134.812 C 1109.2 134.889 1132.83 133.233 1151.48 135.762 C 1187.29 140.617 1223.18 176.602 1226.8 212.697 C 1228.5 229.673 1227.97 247.479 1227.96 264.432 L 1227.71 353.815 L 1227.17 662.475 L 1228.01 1737.28 C 1228.11 1776.72 1232.24 1811.03 1201.56 1841.63 C 1168.07 1875.04 1134.44 1870 1091.78 1869.98 L 1003.75 1869.91 L 474.499 1869.5 L 327.844 1870.28 C 302.388 1870.36 272.917 1870.89 247.866 1868.45 C 232.675 1866.96 207.533 1853.9 196.643 1842.91 C 174.831 1820.89 171.029 1794.78 170.969 1765.46 C 170.877 1720.57 171.117 1675.87 171.084 1631.08 L 171.317 1287.05 L 170.655 675.124 L 170.752 355.658 L 170.354 264.707 C 170.277 247.633 170.048 229.911 171.109 212.853 C 172.927 183.619 205.064 145.475 233.244 138.396 C 256.657 132.515 292.378 134.571 317.856 134.651 C 342.567 134.817 367.28 134.762 391.991 134.484 z M 330.488 605.366 C 331.342 604.129 332.259 602.457 332.099 600.949 C 330.792 588.653 334.057 506.489 331.433 501.323 C 328.073 500.854 327.231 500.947 323.839 501.3 C 323.573 501.845 323.274 598.286 324.311 602.418 C 326.772 604.502 327.28 604.466 330.488 605.366 z M 1060.61 811.206 C 1059.85 796.225 1061.84 697.31 1059.12 693.594 C 1057.51 693.11 1056.04 692.632 1054.39 692.264 C 1054.25 694.216 1053.76 701.152 1053.91 702.791 C 1055.2 717.029 1050.96 807.634 1054.1 811.326 C 1056.81 811.457 1057.92 811.444 1060.61 811.206 z"/>
<path transform="translate(0,0)" fill="rgb(254,254,253)" d="M 299.906 1090.38 C 312.373 1089.44 334.731 1090.07 347.938 1090.04 L 445.814 1089.98 L 743.451 1089.95 L 983.963 1089.95 L 1056.1 1089.68 C 1070.79 1089.62 1085.49 1089.13 1100.15 1090.34 C 1134.94 1092.17 1170.58 1122.16 1172.44 1158.31 C 1174.49 1198.16 1173.22 1240.94 1173.06 1281.35 L 1172.55 1502.38 L 1172.57 1670.36 C 1172.56 1678.78 1172.79 1687.43 1172.6 1695.74 C 1171.88 1727.23 1178.45 1758.59 1155.25 1784.23 C 1137.05 1804.35 1121.33 1809.93 1095.45 1812.07 C 1039.05 1814.26 974.202 1812.44 916.843 1812.43 L 583.335 1812.4 L 390.213 1812.58 L 326.664 1812.53 C 295.934 1812.42 280.753 1815.81 254.767 1795.01 C 219.466 1766.77 225.586 1730.15 226.294 1688.08 C 226.704 1666.95 226.894 1645.81 226.862 1624.67 L 226.167 1404.92 C 226.232 1354.39 225.684 1303.84 226.141 1253.2 C 227.058 1222.28 223.102 1189.09 226.026 1158.39 C 229.818 1118.57 262.406 1093.77 299.906 1090.38 z"/>
<path transform="translate(0,0)" fill="rgb(241,197,58)" d="M 428.234 1594.2 C 461.074 1591.84 497.02 1594.84 530.153 1593.61 C 537.972 1593.32 556.695 1593.47 563.089 1597.11 C 568.449 1600.12 572.34 1605.2 573.855 1611.16 C 577.616 1625.95 574.462 1716.03 574.835 1736.54 C 574.898 1740.05 573.372 1747.54 571.204 1750.73 C 566.585 1757.52 562.122 1759.29 554.657 1760.84 C 532.321 1761.98 509.694 1761.25 487.322 1761.29 C 469.783 1761.33 451.523 1762.35 434.074 1760.98 C 429.173 1760.6 423.362 1759.92 418.885 1757.74 C 414.265 1755.49 411.161 1750.79 409.519 1746.06 C 405.34 1734.01 406.105 1638.7 407.418 1621.87 C 407.829 1616.61 408.397 1610.1 410.917 1605.36 C 414.497 1598.63 421.408 1596.2 428.234 1594.2 z"/>
<path transform="translate(0,0)" fill="rgb(254,254,253)" d="M 477.857 1622.22 C 485.338 1625.79 481.036 1627.35 484.831 1635.44 C 487.658 1636.83 486.451 1636.55 490.004 1635.82 C 493.647 1630.53 489.471 1624.2 496.003 1623.2 L 497.965 1624.89 C 498.875 1628.75 499.001 1630.66 499.283 1634.51 C 501.643 1638.06 509.757 1638.11 512.9 1641 C 532.218 1658.77 513.125 1666.8 507.976 1675.52 C 520.229 1680.84 527.686 1687.41 523.08 1702.86 C 520.661 1710.97 516.237 1713.96 508.759 1717.53 C 508.149 1717.66 507.54 1717.8 506.933 1717.95 C 495.392 1720.67 500.466 1725.31 496.553 1731.62 L 494.245 1731.62 C 490.435 1727.2 494.03 1722.81 488.721 1719.38 C 479.436 1720.18 485.693 1727.19 480.559 1731.87 L 478.043 1731.53 C 475.954 1729.18 476.19 1724.84 475.924 1721.39 C 472.749 1717.6 471.134 1721.1 466.035 1717.45 C 463.642 1712.77 463.793 1644.93 465.538 1638.41 C 468.656 1636.18 469.779 1636.74 474.027 1636.26 C 476.41 1634.48 476.952 1626.45 477.857 1622.22 z"/>
<path transform="translate(0,0)" fill="rgb(241,197,58)" d="M 476.159 1681.21 C 490.086 1681.21 528.206 1681.67 507.612 1706.23 C 498.599 1710.92 486.248 1709.85 476.075 1709.82 L 476.159 1681.21 z"/>
<path transform="translate(0,0)" fill="rgb(241,197,58)" d="M 476.326 1645.28 C 488.725 1645.48 520.515 1645.43 504.39 1667.33 C 495.798 1672.73 486.112 1671.39 475.945 1671.34 L 476.326 1645.28 z"/>
<path transform="translate(0,0)" fill="rgb(5,5,4)" d="M 971.23 1609.32 C 1035.94 1601.56 1030.38 1722 961.667 1734.47 C 938.696 1737.21 920.86 1724.02 917.22 1701.48 C 910.721 1661.22 928.77 1617.75 971.23 1609.32 z"/>
<path transform="translate(0,0)" fill="rgb(254,254,253)" d="M 968.172 1636.12 C 997.863 1635 988.19 1696.41 963.554 1708.02 C 935.202 1709.74 943.956 1647.61 968.172 1636.12 z"/>
<path transform="translate(0,0)" fill="rgb(5,5,4)" d="M 865.352 1613.49 C 879.052 1613.48 892.752 1613.59 906.45 1613.82 C 904.987 1622.03 903.898 1630.78 902.73 1639.08 L 862.085 1639.09 L 858.146 1652.13 C 862.27 1651.94 866.277 1651.82 870.357 1652.07 C 909.68 1654.54 912.083 1700.97 885.568 1722.31 C 869.85 1734.95 855.88 1735.68 836.898 1734.05 C 824.274 1731.99 821.119 1730.04 809.916 1724.33 C 812.996 1717 816.953 1703.55 818.903 1695.82 C 821.047 1697.62 823.209 1699.37 825.472 1701.07 C 837.614 1710.15 858.085 1713.85 867.776 1699.27 C 873.361 1690.86 871.158 1680.06 861.956 1675.41 C 850.402 1669.58 837.34 1673.35 825.647 1676.57 C 832.604 1657.29 839.477 1633.38 845.645 1613.65 L 865.352 1613.49 z"/>
<path transform="translate(0,0)" fill="rgb(5,5,4)" d="M 669.59 1433.5 C 677.262 1433.28 683.762 1433.36 691.404 1433.59 C 693.895 1451.51 700.825 1478.91 704.862 1496.85 C 706.573 1475.96 710.42 1454.99 714.017 1434.32 C 719.92 1434.84 726.387 1434.8 732.353 1434.88 C 737.128 1454.24 740.6 1473.24 745.757 1493.45 C 748.242 1473.41 751.645 1453.49 755.955 1433.76 C 762.058 1434.38 769.418 1434.21 775.643 1434.23 L 768.764 1468.45 C 764.889 1489.53 760.013 1510.95 757.01 1532.1 C 749.038 1532.24 740.586 1531.99 732.572 1531.87 C 729.954 1511.13 725.761 1490.42 722.071 1469.81 C 718.148 1488.53 715.915 1511.92 713.458 1531.36 C 706.345 1532.25 699.187 1532.13 692.018 1532.18 C 688.723 1522.78 685.134 1503.16 683.347 1492.77 C 681.31 1480.93 668.261 1442.61 669.59 1433.5 z"/>
<path transform="translate(0,0)" fill="rgb(5,5,4)" d="M 693.807 1290.17 C 700.262 1291 708.078 1290.77 714.685 1290.78 C 718.229 1308.33 721.159 1330.35 724.081 1348.33 C 726.864 1329.23 731.189 1309.73 735.103 1290.77 L 756.824 1291.44 C 759.47 1309.79 762.52 1335.74 767.805 1352.88 C 770.235 1332.05 774.692 1310.6 776.593 1290.97 C 783.624 1292.05 791.551 1292.04 798.722 1292.24 L 790.285 1324.5 C 788.178 1333.17 779.085 1382.94 776.165 1386.61 C 769.623 1389.77 763.916 1388.5 756.767 1387.81 C 753.551 1378.87 748.858 1342.33 746.65 1329.72 C 739.13 1351.95 738.44 1365.71 733.508 1388.25 L 714.163 1387.07 C 711.636 1373.14 706.49 1356.52 702.94 1342.56 C 698.436 1325.38 695.381 1307.86 693.807 1290.17 z"/>
<path transform="translate(0,0)" fill="rgb(5,5,4)" d="M 622.346 1290.37 C 662.106 1290.12 687.48 1292.23 689.096 1340.03 C 689.654 1356.54 686.769 1366.16 675.554 1378.47 C 660.884 1392.15 640.53 1389.18 621.383 1388.76 C 623.324 1358.61 623.045 1320.64 622.346 1290.37 z"/>
<path transform="translate(0,0)" fill="rgb(254,254,253)" d="M 642.345 1310.5 C 647.262 1310.37 652.632 1309.89 656.702 1313.07 C 670.039 1323.47 670.496 1349.49 660.89 1362.32 C 655.595 1366.6 651.658 1366.95 645.075 1368.26 C 642.947 1348.6 641.083 1330.25 642.345 1310.5 z"/>
<path transform="translate(0,0)" fill="rgb(5,5,4)" d="M 879.501 1290.43 C 894.112 1290.5 913.69 1289.11 925.603 1298.01 C 943.705 1311.54 941.251 1333.98 924.525 1347.09 C 929.435 1364.21 931.018 1370.76 941.079 1385.44 C 934.494 1386.97 918.833 1390.26 913.54 1385.66 C 910.41 1379.05 904.05 1356.78 898.875 1354.41 C 895.402 1358.76 896.85 1381.71 896.955 1388.61 L 875.155 1388.24 C 874.765 1376.4 874.13 1298.85 876.93 1291.26 L 879.501 1290.43 z"/>
<path transform="translate(0,0)" fill="rgb(254,254,253)" d="M 896.937 1307.91 C 910.068 1312.01 924.905 1317.03 910.223 1331.4 C 905.311 1334.72 902.604 1335.75 897.075 1338.06 L 896.937 1307.91 z"/>
<path transform="translate(0,0)" fill="rgb(5,5,4)" d="M 540.888 1434 C 558.373 1433.79 586.655 1431.45 597.293 1447.41 C 607.257 1462.36 602.449 1481.69 588.039 1491.5 C 593.178 1505.06 598.551 1518.53 604.157 1531.9 C 597.139 1531.42 587.729 1531.82 580.532 1531.92 C 578.524 1524.3 571.757 1501.28 566.091 1496.92 L 564.495 1497.63 C 561.442 1504.19 562.748 1523.06 562.954 1531.31 C 555.378 1531.28 547.558 1531.47 539.961 1531.55 C 539.721 1499.03 540.03 1466.51 540.888 1434 z"/>
<path transform="translate(0,0)" fill="rgb(254,254,253)" d="M 561.66 1451.2 C 575.902 1452.89 587.041 1458.91 576.274 1474.12 C 570.578 1476.28 568.179 1477.95 562.819 1475.74 C 558.403 1470.02 560.901 1458.89 561.66 1451.2 z"/>
<path transform="translate(0,0)" fill="rgb(5,5,4)" d="M 548.978 1289.75 C 577.465 1289.89 611.302 1287.24 610.269 1325.74 C 609.938 1338.09 605.592 1341.91 597.19 1350.13 C 601.856 1362.79 606.971 1374.79 611.208 1387.67 C 603.863 1387.94 596.516 1388.18 589.168 1388.37 C 585.94 1382.12 578.702 1355.19 572.732 1355.17 C 568.818 1360.2 569.663 1381.09 569.545 1388.36 C 563.703 1388.41 557.265 1388.01 551.381 1387.77 C 548.942 1353.25 548.501 1324.34 548.978 1289.75 z"/>
<path transform="translate(0,0)" fill="rgb(254,254,253)" d="M 570.802 1308.47 C 582.045 1310.98 597.75 1318.36 586.809 1331.93 C 581.889 1333.92 576.54 1335.25 571.406 1336.66 C 570.939 1327.78 570.986 1317.47 570.802 1308.47 z"/>
<path transform="translate(0,0)" fill="rgb(5,5,4)" d="M 397.91 1289.72 L 419.106 1290.17 L 419.162 1328.1 L 439.147 1327.55 L 439.721 1290.06 L 461.684 1290.35 C 462.12 1305.91 460.84 1324.02 461.14 1339.99 C 461.285 1347.71 462.859 1380.98 461.785 1386.73 C 454.74 1387 447.693 1387.22 440.645 1387.4 C 439.806 1375.32 439.959 1360.56 439.773 1348.27 C 432.852 1348.71 426.286 1349.42 419.408 1350.17 C 418.24 1360.89 418.111 1375.98 417.51 1387.26 C 410.274 1387.79 404.353 1387.72 397.151 1387.63 C 395.671 1359.38 397.03 1318.17 397.91 1289.72 z"/>
<path transform="translate(0,0)" fill="rgb(5,5,4)" d="M 497.067 1289.35 C 502.331 1289.04 511.995 1287.82 516.366 1291.15 C 519.713 1293.69 539.852 1376.96 541.423 1387.67 L 519.508 1387.64 C 518.629 1379.74 519.332 1373.06 510.751 1370.56 C 504.794 1370.32 498.523 1369.53 493.717 1373.44 C 490.482 1378.64 495.101 1380.54 490.457 1386.48 C 483.337 1390.25 475.268 1388.36 467.269 1387.46 C 471.08 1376.48 474.46 1365.88 477.652 1355.02 C 481.974 1340.3 488.766 1300.31 497.067 1289.35 z"/>
<path transform="translate(0,0)" fill="rgb(254,254,253)" d="M 505.061 1322.56 C 507.053 1325.64 511.102 1347.29 511.402 1351.76 C 509.273 1353.62 508.288 1353.15 505.032 1353.48 C 501.637 1353.3 499.793 1353.8 497.477 1352.02 C 500.285 1341.97 502.822 1332.75 505.061 1322.56 z"/>
<path transform="translate(0,0)" fill="rgb(5,5,4)" d="M 801.6 1434.43 C 808.418 1434.18 815.51 1434.17 822.355 1434.06 C 828.949 1458.63 836.148 1483.05 842.906 1507.58 C 845.112 1515.59 847.454 1523.55 848.671 1531.78 C 841.932 1532.01 834.715 1531.9 827.935 1531.93 C 826.946 1526.94 826.474 1515.2 821.248 1514.85 C 814.231 1514.62 807.211 1514.49 800.191 1514.45 C 798.351 1520.28 796.191 1526.32 794.216 1532.13 C 787.252 1531.71 781.077 1531.78 774.135 1531.85 C 778.888 1515.04 783.8 1497.45 788.438 1480.7 C 790.687 1472.57 798.499 1439.45 801.6 1434.43 z"/>
<path transform="translate(0,0)" fill="rgb(254,254,253)" d="M 812.5 1468.77 C 814.808 1471.29 818.577 1491.29 819.564 1496.05 C 818.025 1497.41 815.734 1497.21 813.313 1497.48 C 810.2 1497.59 809.056 1498.16 806.71 1496.75 C 804.996 1491.21 810.65 1476.46 812.5 1468.77 z"/>
<path transform="translate(0,0)" fill="rgb(5,5,4)" d="M 819.647 1291.01 L 840.281 1292.33 C 845.045 1303.04 849.436 1319.18 852.888 1330.61 C 858.558 1349.38 865.55 1368.48 868.494 1387.83 C 860.677 1388.17 853.217 1388.18 845.407 1388.18 C 844.901 1382.84 844.322 1377.2 842.453 1372.2 C 835.001 1370.72 826.536 1371.12 818.869 1371.15 C 817.025 1376.55 815.375 1382.5 813.735 1388 C 807.987 1388.68 800.621 1388.54 794.716 1388.61 C 803.019 1355.57 812.007 1324.59 819.647 1291.01 z"/>
<path transform="translate(0,0)" fill="rgb(254,254,253)" d="M 830.38 1323.73 L 831.308 1324.65 C 832.363 1330.27 836.647 1347.83 836.088 1352.55 L 833.908 1353.97 C 830.311 1354.14 829.043 1354.26 825.524 1353.63 C 824.052 1350.54 829.313 1328.73 830.38 1323.73 z"/>
<path transform="translate(0,0)" fill="rgb(5,5,4)" d="M 755.366 1613.49 C 766.13 1613.35 777.513 1613.72 788.325 1613.9 C 783.054 1652.02 776.018 1692.26 770.08 1730.45 L 757.25 1730.52 L 739.706 1730.3 C 742.774 1702.51 749.648 1668 753.683 1639.18 L 737.274 1639.05 C 738.687 1630.63 740.051 1622.2 741.365 1613.75 L 755.366 1613.49 z"/>
<path transform="translate(0,0)" fill="rgb(5,5,4)" d="M 948.952 1290.18 C 966.242 1290.13 983.531 1290.36 1000.81 1290.86 C 1000.79 1297.01 1000.25 1303.7 999.881 1309.87 C 990.898 1310.53 980.818 1310.49 971.726 1310.63 L 971.565 1327.63 C 980.642 1327.28 986.623 1327.16 995.675 1327.76 L 995.875 1348.72 C 987.287 1348.55 978.697 1348.52 970.108 1348.61 L 969.919 1366.1 L 970.156 1367.03 C 973.535 1370.1 995.768 1368.91 1001.95 1368.85 L 1001.02 1387.83 C 984.01 1388.01 966.152 1388.48 949.209 1387.92 C 947.395 1379.16 949.102 1346.94 949.177 1336.43 C 949.285 1321.39 948.849 1305.12 948.952 1290.18 z"/>
<path transform="translate(0,0)" fill="rgb(5,5,4)" d="M 612.544 1432.89 C 629.598 1432.79 646.653 1432.98 663.7 1433.47 C 663.951 1436.01 664.15 1438.55 664.299 1441.1 C 665.149 1457.31 648.077 1453.88 636.14 1454.15 C 635.839 1460.38 635.989 1466.88 636.034 1473.14 C 656.538 1471.52 659 1466.33 660.31 1489.41 C 652.117 1490.72 643.671 1490.71 635.361 1490.94 L 635.097 1509.08 L 635.255 1510 C 638.276 1511.88 655.838 1510.9 663.77 1512.32 C 664.161 1518.49 664.52 1524.67 664.846 1530.85 L 615.936 1531.58 C 614.742 1523.62 614.517 1505.28 614.195 1496.36 C 613.454 1475.81 611.92 1453.31 612.544 1432.89 z"/>
<path transform="translate(0,0)" fill="rgb(5,5,4)" d="M 475.527 1432.48 C 483.088 1432.3 488.703 1432.58 496.189 1433.05 C 497.293 1459.19 488.21 1452.84 466.185 1454.14 C 465.739 1460.43 466 1466.98 466.12 1473.31 C 474.322 1473.14 482.527 1473.38 490.729 1473.55 C 490.975 1478.8 490.947 1484.58 491.032 1489.88 C 483.588 1490.56 472.818 1490.52 465.089 1490.69 L 464.909 1506.75 L 464.827 1531.23 L 443.294 1531.67 C 444.3 1499.19 442.323 1465.41 443.873 1433.19 L 475.527 1432.48 z"/>
<path transform="translate(0,0)" fill="url(#Gradient1)" d="M 914.066 1434.67 C 921.046 1434.37 929.086 1434.82 936.149 1435.04 C 936.142 1460.62 935.231 1486.27 935.276 1511.99 L 964.682 1511.8 L 964.815 1531.51 C 949.247 1531.97 930.804 1531.44 915.007 1531.41 C 914.915 1499.23 913.655 1466.91 914.066 1434.67 z"/>
<path transform="translate(0,0)" fill="rgb(5,5,4)" d="M 855.351 1433.98 C 862.529 1434.09 870.412 1433.86 877.645 1433.79 C 877.234 1459.8 876.688 1485.8 876.007 1511.79 C 885.633 1510.96 895.335 1511.62 904.956 1512.18 L 905.598 1530.66 C 900.441 1532.06 862.313 1531.26 854.42 1531.16 C 857.987 1501.03 855.419 1464.94 855.351 1433.98 z"/>
<path transform="translate(0,0)" fill="rgb(5,5,4)" d="M 506.4 1433.49 L 525.081 1434.17 C 526.28 1444.91 527.529 1526.5 524.683 1530.74 C 517.992 1531.05 510.696 1531.03 503.95 1531.14 C 505.153 1515.9 503.381 1440.69 506.4 1433.49 z"/>
<path transform="translate(0,0)" fill="rgb(5,5,4)" d="M 552.265 431.043 C 554.165 432.131 560.776 437.348 563.359 439.137 C 572.193 445.296 581.248 451.13 590.507 456.628 C 647.367 490.123 679.371 499.819 741.675 515.521 C 741.059 525.728 742.194 535.352 743.237 545.474 C 750.413 545.879 783.737 549.154 787.072 543.529 C 798.299 524.597 781.154 494.588 798.838 477.483 C 807.244 476.606 837.001 475.278 844.986 479.436 C 847.063 480.517 846.781 481.455 847.059 483.238 C 841.57 487.92 813.591 484.568 807.133 485.194 C 786.206 487.224 804.275 535.859 794.792 547.505 C 787.902 555.968 755.211 553.579 742.094 554.7 C 741.948 575.437 742.755 603.602 741.223 623.431 C 764.078 624.333 789.144 623.898 812.173 624.06 L 920.459 625.008 C 940.889 625.068 961.512 624.549 981.926 624.875 C 986.795 625.329 996.595 625.795 1000.54 628.623 C 1008.62 634.566 1020.72 644.537 1021.28 655.624 C 1022.7 684.029 1020.51 713.122 1020.41 741.656 L 1020.85 822.957 C 1020.96 840.676 1021.42 858.988 1019.6 876.587 C 1017.95 892.564 1002.65 900.865 988.165 902.334 C 953.771 904.103 909.521 902.995 874.589 902.845 C 806.739 902.254 738.885 902.137 671.032 902.495 C 655.672 902.671 640.31 902.702 624.949 902.589 C 580.395 902.253 587.821 899.187 553.056 924.269 C 535.238 911.758 513.612 899.874 496.858 887.873 C 476.148 873.038 445.47 841.955 430.575 821.658 C 413.24 798.038 393.147 764.57 383.706 736.709 C 365.79 683.835 361.888 623.322 360.81 567.632 C 360.477 550.393 360.185 530.057 362.693 513.355 C 400.317 511.866 473.153 480.518 506.742 460.763 C 519.841 453.059 538.756 439.802 552.265 431.043 z"/>
<path transform="translate(0,0)" fill="rgb(254,254,253)" d="M 552.751 443.946 C 555.542 444.102 585.065 463.285 590.627 466.462 C 607.388 476.136 624.546 485.105 642.056 493.346 C 668.867 505.653 703.913 515.339 732.573 522.219 C 735.522 581.787 733.07 649.682 719.712 707.714 C 697.739 803.179 632.229 863.666 551.688 913.543 C 520.378 895.973 482.658 866.714 457.875 840.945 C 371.121 750.737 367.772 639.52 370.708 521.798 C 449.931 508.14 486.004 478.949 552.751 443.946 z"/>
<path transform="translate(0,0)" fill="rgb(5,5,4)" d="M 549.942 484.595 C 555.29 485.151 587.436 508.185 597.561 512.71 C 631.777 528.003 660.957 539.079 697.191 548.245 C 697.345 577.479 696.407 606.708 694.381 635.871 C 693.251 653.485 691.193 677.996 687.142 695.159 C 674.161 749.897 643.958 797.001 602.888 834.911 C 587.284 849.315 568.787 857.164 554.502 869.922 L 553.54 870.79 C 526.362 853.372 513.808 847.75 489.925 822.59 C 453.541 784.692 422.063 734.474 413.738 681.559 C 407.388 641.2 405.403 591.448 405.777 550.335 C 418.579 545.672 436.047 541.638 448.173 537.329 C 473.21 528.433 532.844 502.859 549.942 484.595 z"/>
<path transform="translate(0,0)" fill="rgb(254,254,253)" d="M 547.515 680.304 C 551.497 681.17 553.392 680.138 557.308 678.89 L 634.502 679.963 C 649.613 680.101 666.339 679.616 681.283 680.339 C 677.048 697.168 672.213 710.593 667.304 726.897 C 630.679 726.823 594.053 727.105 557.433 727.744 C 557.077 726.215 556.77 725.57 556.167 724.114 L 556.131 725.185 C 553.716 724.589 553.494 724.653 550.947 724.835 L 550.276 724.888 L 549.631 724.283 L 548.46 727.321 C 547.423 723.57 548.208 688.843 547.515 680.304 z"/>
<path transform="translate(0,0)" fill="rgb(5,5,4)" d="M 547.515 680.304 C 551.497 681.17 553.392 680.138 557.308 678.89 C 557.192 689.156 558.32 719.858 557.433 727.744 C 557.077 726.215 556.77 725.57 556.167 724.114 L 556.131 725.185 C 553.716 724.589 553.494 724.653 550.947 724.835 L 550.276 724.888 L 549.631 724.283 L 548.46 727.321 C 547.423 723.57 548.208 688.843 547.515 680.304 z"/>
<path transform="translate(0,0)" fill="rgb(254,254,253)" d="M 423.158 679.242 C 459.482 682.795 509.597 675.96 547.515 680.304 C 548.208 688.843 547.423 723.57 548.46 727.321 C 511.346 727.269 474.234 726.838 437.129 726.028 C 431.072 710.885 426.396 695.226 423.158 679.242 z"/>
<path transform="translate(0,0)" fill="rgb(254,254,253)" d="M 578.146 735.481 C 587.808 735.439 595.135 735.638 604.763 736.362 C 605.398 751.862 605.203 768.56 605.633 784.3 C 579.061 784.147 553.136 782.908 526.104 782.957 C 516.738 783.007 507.374 783.229 498.017 783.622 C 498.195 767.688 498.614 751.758 499.276 735.836 C 525.51 735.156 551.675 736.118 578.146 735.481 z"/>
<path transform="translate(0,0)" fill="rgb(254,254,253)" d="M 550.591 496.9 C 558.633 496.487 595.623 520.645 606.201 526.355 C 606.646 536.827 606.643 547.6 606.758 558.104 C 589.09 558.312 571.42 558.409 553.75 558.393 C 535.167 558.374 516.588 557.924 498.026 557.043 C 498.82 546.985 498.906 536.265 499.148 526.125 C 517.803 517.64 532.925 505.701 550.591 496.9 z"/>
<path transform="translate(0,0)" fill="rgb(254,254,253)" d="M 499.911 622.709 C 534.857 622.089 569.916 623.588 605.03 623.092 C 603.223 634.647 603.519 658.342 603.673 670.527 C 568.861 671.009 534.046 671.183 499.231 671.048 C 499.352 655.834 498.635 637.577 499.911 622.709 z"/>
<path transform="translate(0,0)" fill="rgb(254,254,253)" d="M 472.981 567.526 C 496.88 566.677 523.891 566.194 547.631 567.476 C 547.948 583.493 548.027 597.859 546.995 613.851 C 536.932 614.697 525.403 614.217 515.179 614.037 C 495.396 613.651 462.297 612.34 443.259 613.826 C 443.743 598.688 444.402 583.557 445.236 568.436 C 454.179 567.83 463.955 567.751 472.981 567.526 z"/>
<path transform="translate(0,0)" fill="rgb(254,254,253)" d="M 557.8 566.331 C 574.079 565.689 592.434 566.633 608.909 567.159 C 623.383 567.621 643.695 567.197 657.491 569.607 C 658.881 583.993 658.478 600.406 658.398 614.996 C 623.845 614.042 591.772 613.909 557.122 613.801 C 557.095 601.937 556.446 576.525 557.8 566.331 z"/>
<path transform="translate(0,0)" fill="rgb(254,254,253)" d="M 416.519 622.194 L 490.022 622.568 C 490.176 638.675 490.614 654.777 491.338 670.869 C 468.736 670.651 443.849 670.891 421.446 669.731 C 419.055 653.972 417.411 638.108 416.519 622.194 z"/>
<path transform="translate(0,0)" fill="rgb(254,254,253)" d="M 647.608 622.466 C 660.988 622.107 674.375 622.136 687.753 622.552 C 686.867 638.489 685.107 654.366 682.481 670.11 C 673.966 670.478 664.405 670.379 655.803 670.474 C 641.781 670.474 627.122 670.04 613.053 669.806 C 614.406 655.985 613.943 637.345 613.91 623.19 L 647.608 622.466 z"/>
<path transform="translate(0,0)" fill="rgb(254,254,253)" d="M 563.773 792.39 C 584.824 791.016 610.454 792.263 632.414 791.876 C 622.645 803.785 614.975 811.301 603.607 821.67 C 583.208 838.623 582.36 841.111 556.079 840.741 C 556.725 828.798 554.682 806.202 558.301 794.886 C 558.878 793.079 561.746 792.878 563.773 792.39 z"/>
<path transform="translate(0,0)" fill="rgb(254,254,253)" d="M 472.27 791.121 C 495.829 794.221 522.853 789.487 547.052 793.03 C 547.86 806.3 547.188 826.753 547.409 840.778 C 544.57 840.876 536.123 841.107 533.805 841.077 C 515.205 840.838 485.821 804.806 472.27 791.121 z"/>
<path transform="translate(0,0)" fill="rgb(254,254,253)" d="M 613.505 736.353 C 630.279 736.15 646.953 735.829 663.725 736.348 C 658.433 748.406 653.421 759.787 646.905 771.249 C 644.59 775.439 640.675 780.348 637.725 784.285 C 628.974 784.93 622.689 784.506 613.939 784.029 C 613.244 768.268 613.471 752.152 613.505 736.353 z"/>
<path transform="translate(0,0)" fill="rgb(254,254,253)" d="M 474.841 735.476 C 479.768 735.486 485.296 735.828 490.269 736.021 C 490.28 751.969 490.171 767.916 489.94 783.862 C 481.213 784.451 471.456 786.77 465.267 779.958 C 454.344 766.601 448.651 752.517 441.8 736.911 C 452.926 736.04 463.703 735.78 474.841 735.476 z"/>
<path transform="translate(0,0)" fill="rgb(254,254,253)" d="M 671.586 568.541 L 689.04 567.576 C 688.958 577.133 690.653 607.157 686.658 613.233 L 683.049 613.832 L 665.168 614.015 C 665.773 602.969 664.461 581.288 667.118 570.292 C 667.448 568.927 669.695 568.933 671.586 568.541 z"/>
<path transform="translate(0,0)" fill="rgb(254,254,253)" d="M 614.703 530.489 C 635.05 537.649 654.826 546.415 675.637 552.328 C 679.777 553.504 685.073 554.598 687.569 557.865 C 668.187 558.755 633.585 558.342 614.364 557.305 L 614.703 530.489 z"/>
<path transform="translate(0,0)" fill="rgb(254,254,253)" d="M 486.895 532.136 C 488.637 532.26 487.778 532.017 489.313 533.442 C 490.372 540.771 490.006 550.213 489.96 557.771 C 469.533 558.444 445.439 557.59 424.749 557.344 L 421.803 556.561 L 421.871 555.082 C 426.766 552.133 440.376 549.576 446.679 547.202 C 460.075 542.157 473.373 536.791 486.895 532.136 z"/>
<path transform="translate(0,0)" fill="rgb(254,254,253)" d="M 416.29 567.404 C 424.677 566.996 428.843 567.188 437.139 567.828 C 436.631 582.09 436.591 599.995 433.571 613.575 C 428.906 615.181 422.303 616.298 417.637 614.347 C 413.633 608.68 415.319 575.015 416.29 567.404 z"/>
<path transform="translate(0,0)" fill="rgb(254,254,253)" d="M 562.285 850.481 L 563.497 850.463 L 564.07 851.861 C 561.402 855.721 557.473 858.416 553.763 861.344 L 544.321 855.909 C 543.07 854.938 536.804 851.585 535.073 850.623 C 544.703 850.865 552.667 850.878 562.285 850.481 z"/>
<path transform="translate(0,0)" fill="rgb(141,195,96)" d="M 742.265 633.436 C 744.983 633.299 747.703 633.195 750.423 633.123 C 773.725 632.524 798.607 633.109 822.076 633.134 L 907.759 632.76 L 956.058 632.931 C 980.635 633.055 1013.65 629.66 1013.52 664.233 C 1013.25 735.012 1011.5 805.832 1011.33 876.59 C 1011.31 883.52 998.171 895.221 991.244 894.218 C 960.893 895.516 930.543 893.119 900.169 892.977 C 822.364 892.499 744.556 892.441 666.75 892.802 C 650.59 893.036 612.484 891.678 598.189 894.18 C 616.761 880.826 627.219 872.255 644.058 857.123 C 674.984 853.873 722.545 857.051 754.433 857.732 C 796.241 858.358 838.058 857.804 879.835 856.073 C 908.032 855.061 912.573 863.049 936.808 844.969 L 937.6 745.786 C 937.716 729.232 938.374 698.52 936.614 683.322 C 922.654 666.202 902.722 671.238 882.341 670.625 C 833.863 669.169 784.939 671.476 736.484 670.041 C 737.406 662.116 738.301 640.656 740.074 634.625 L 742.265 633.436 z"/>
<path transform="translate(0,0)" fill="rgb(5,5,4)" d="M 971.371 696.138 C 996.634 694.055 1007.97 726.129 979.329 733.709 C 969.883 734.418 961.086 731.562 957.015 722.18 C 954.94 717.455 954.959 712.072 957.068 707.362 C 960.223 700.335 964.852 698.516 971.371 696.138 z"/>
<path transform="translate(0,0)" fill="rgb(141,195,96)" d="M 974.819 705.145 C 987.197 706.64 995.313 721.257 977.892 725.796 C 959.792 725.843 960.904 711.252 974.819 705.145 z"/>
<path transform="translate(0,0)" fill="rgb(5,5,4)" d="M 964.84 750.614 C 974.881 749.226 985.621 748.477 992.448 757.403 C 1001.31 768.989 992.301 778.806 983.682 785.595 C 962.855 795.505 942.907 765.419 964.84 750.614 z"/>
<path transform="translate(0,0)" fill="rgb(141,195,96)" d="M 971.402 757.544 C 976.738 755.063 983.082 757.191 985.843 762.387 C 988.604 767.583 986.818 774.031 981.776 777.065 C 978.267 779.177 973.879 779.179 970.368 777.07 C 966.857 774.961 964.798 771.086 965.015 766.996 C 965.231 762.906 967.688 759.27 971.402 757.544 z"/>
<path transform="translate(0,0)" fill="rgb(5,5,4)" d="M 974.759 803.01 C 986.692 802.974 999.121 812.995 991.236 825.506 C 988.175 830.362 981.635 830.57 976.348 831.302 L 964.937 832.97 C 960.906 827.49 958.319 824.014 955.038 817.954 C 962.194 810.367 965.608 808.165 974.759 803.01 z"/>
<path transform="translate(0,0)" fill="rgb(141,195,96)" d="M 975.241 811.896 C 977.059 812.098 978.243 812.428 980.007 812.839 C 982.578 815.441 982.103 814.239 982.602 817.482 C 980.422 820.751 981.622 819.665 977.576 821.353 C 973.662 821.1 970.085 821.661 968.692 817.487 C 970.25 814.25 972.057 813.695 975.241 811.896 z"/>
<path transform="translate(0,0)" fill="rgb(254,254,253)" d="M 735.183 679.078 C 789.47 678.079 843.964 679.351 898.272 678.961 C 911.391 678.867 927.939 679.17 927.684 696.666 C 927.004 743.444 929.851 791.382 928.767 837.997 C 917.226 853.434 906.544 849.836 889.216 849.399 C 868.969 849.773 847.035 850.496 826.973 848.914 C 826.035 829.199 827.431 809.007 826.219 789.857 C 816.61 788.212 793.826 788.601 783.512 788.591 C 754.312 788.646 725.112 788.91 695.915 789.385 C 718.725 756.053 728.158 718.398 735.183 679.078 z"/>
<path transform="translate(0,0)" fill="rgb(5,5,4)" d="M 817.033 701.222 C 832.111 699.889 861.295 700.582 876.416 701.297 C 876.712 708.904 877.215 758.221 874.497 761.493 C 855.055 761.619 835.612 761.616 816.169 761.484 C 816.02 753.275 815.744 706.588 817.033 701.222 z"/>
<path transform="translate(0,0)" fill="rgb(254,254,253)" d="M 840.807 710.491 C 849.577 710.339 859.096 710.666 867.929 710.822 C 867.818 725.176 867.611 739.528 867.307 753.879 L 850.75 753.646 L 824.626 753.168 C 824.611 739.162 824.743 725.156 825.02 711.153 L 840.807 710.491 z"/>
<path transform="translate(0,0)" fill="rgb(5,5,4)" d="M 883.131 797.173 C 908.591 796.157 918.372 824.205 891.622 833.688 C 883.107 833.78 873.857 830.145 870.05 821.998 C 868.189 817.972 868.067 813.357 869.713 809.238 C 872.447 802.534 876.884 799.706 883.131 797.173 z"/>
<path transform="translate(0,0)" fill="rgb(177,245,159)" d="M 886.982 806.821 C 901.038 809.98 896.474 820.864 887.951 827.756 C 875.283 822.669 876.19 813.45 886.982 806.821 z"/>
<path transform="translate(0,0)" fill="rgb(254,254,253)" d="M 690.86 797.16 L 770.272 797.21 C 783.813 797.185 805.178 796.548 818.088 798.043 C 819.529 812.35 817.779 832.708 818.727 848.646 C 806.635 848.885 793.832 848.658 781.683 848.647 L 650.382 848.979 C 667.952 830.87 676.96 817.841 690.86 797.16 z"/>
<path transform="translate(0,0)" fill="rgb(5,5,4)" d="M 920.505 375.297 C 956.565 372.164 981.936 390.622 997.269 422.027 C 1011.1 421.938 1022.11 420.968 1035.5 424.804 C 1034.76 443.17 1038.5 520.435 1032.66 532.777 C 1018.24 541.581 865.733 532.467 837.716 534.889 C 835.064 535.119 824.493 534.646 821.222 534.475 C 818.895 533.157 819.041 533.134 817.986 530.81 L 819.263 529.079 C 828.945 524.372 933.266 526.975 952.5 527.048 C 977.397 527.139 1002.29 527.516 1027.18 528.177 C 1028.63 517.271 1027.8 498.204 1027.6 486.63 C 1027.29 467.894 1027.15 447.946 1026.16 429.286 L 1001 429.543 C 1001.9 461.858 1000.03 475.857 974.902 497.556 C 978.064 502.524 978.8 504.239 980.981 509.75 C 950.381 512.142 910.063 509.706 877.444 510.892 L 878.331 509.574 C 879.558 507.733 883.094 502.597 882.46 500.984 C 875.738 483.895 865.24 477.391 861.594 458.467 C 858.04 439.829 862.033 420.543 872.693 404.847 C 884.807 387.182 899.983 379.088 920.505 375.297 z"/>
<path transform="translate(0,0)" fill="rgb(254,254,253)" d="M 925.809 383.382 C 961.572 382.866 989.331 408.449 992.039 444.557 C 993.476 463.722 983.154 478.352 970.939 492.052 C 968.82 488.916 966.634 485.002 964.832 481.613 C 954.875 462.883 943.066 446.148 930.717 428.969 L 929.721 428.565 C 925.342 430.356 893.592 484.575 887.452 493.383 C 851.08 451.407 867.736 389.55 925.809 383.382 z"/>
<path transform="translate(0,0)" fill="rgb(141,195,96)" d="M 930.979 441.485 C 933.337 443.872 939.148 453.9 941.051 457.12 C 950.025 472.294 957.187 488.692 969.06 501.895 C 955.346 502.041 941.005 501.793 927.25 501.733 C 914.687 501.549 902.147 501.226 889.596 501.843 C 899.282 491.16 922.673 455.001 930.979 441.485 z"/>
<path transform="translate(0,0)" fill="rgb(5,5,4)" d="M 1092.15 657.186 C 1095 657.554 1095.18 657.608 1097.89 658.584 C 1099.62 661.568 1099.1 671.655 1099.15 675.825 C 1099.61 715.569 1098.91 755.256 1098.58 795.008 C 1098.52 802.47 1100.89 841.741 1096.81 844.742 C 1093.79 844.812 1093.89 844.889 1091.08 843.87 C 1089.18 840.053 1090.97 810.586 1091.05 803.533 C 1091.53 775.92 1091.69 748.303 1091.54 720.686 C 1091.4 701.656 1090.43 675.459 1092.15 657.186 z"/>
<path transform="translate(0,0)" fill="rgb(5,5,4)" d="M 1128.92 688.728 C 1132.15 689.094 1133.95 688.651 1135.83 691.141 C 1135.87 700.589 1136.95 802.45 1135.56 805.406 C 1132.35 805.278 1131.87 805.349 1128.89 804.331 C 1127.61 801.851 1127.62 780.267 1127.54 776.189 C 1127.02 756.681 1126.81 737.166 1126.92 717.652 C 1126.93 711.356 1125.85 692.698 1128.92 688.728 z"/>
<path transform="translate(0,0)" fill="rgb(5,5,4)" d="M 428.489 872.284 C 418.731 874.796 325.041 877.048 319.068 874.531 C 317.017 873.667 316.967 873.198 316.196 871.256 C 317.334 868.065 316.582 868.698 318.925 867.065 C 349.525 864.417 384.478 869.013 415.556 866.197 C 419.781 865.814 425.866 865.898 429.553 868.144 L 428.489 872.284 z"/>
<path transform="translate(0,0)" fill="rgb(5,5,4)" fill-opacity="0.988235" d="M 323.839 501.3 C 327.231 500.947 328.073 500.854 331.433 501.323 C 334.057 506.489 330.792 588.653 332.099 600.949 C 332.259 602.457 331.342 604.129 330.488 605.366 C 327.28 604.466 326.772 604.502 324.311 602.418 C 323.274 598.286 323.573 501.845 323.839 501.3 z"/>
<path transform="translate(0,0)" fill="rgb(5,5,4)" fill-opacity="0.988235" d="M 1054.39 692.264 C 1056.04 692.632 1057.51 693.11 1059.12 693.594 C 1061.84 697.31 1059.85 796.225 1060.61 811.206 C 1057.92 811.444 1056.81 811.457 1054.1 811.326 C 1050.96 807.634 1055.2 717.029 1053.91 702.791 C 1053.76 701.152 1054.25 694.216 1054.39 692.264 z"/>
<path transform="translate(0,0)" fill="rgb(5,5,4)" d="M 952.057 926.317 C 962.214 926.241 1035.86 924.944 1040.17 928.004 C 1040.71 931.133 1040.54 930.164 1039.23 933.557 L 1036.23 934.691 C 1026.31 934.862 953.324 936.655 948.842 933.59 C 948.801 930.462 950.268 928.98 952.057 926.317 z"/>
<path transform="translate(0,0)" fill="rgb(5,5,4)" d="M 298.429 544.551 C 300.983 545.356 302.999 545.983 303.814 548.793 C 305.89 555.949 306.202 577.043 303.196 583.538 C 300.742 582.862 300.534 582.76 298.261 581.586 C 295.411 575.936 294.223 549.41 298.429 544.551 z"/>
<path transform="translate(0,0)" fill="rgb(61,44,4)" d="M 429.553 868.144 C 435.114 869.179 438.081 867.569 443.975 869.303 C 441.208 871.075 432.008 872.056 428.489 872.284 L 429.553 868.144 z"/>
</svg>