<svg version="1.1" xmlns="http://www.w3.org/2000/svg" style="display: block;" viewBox="0 0 2048 1253" width="1000" height="612" preserveAspectRatio="none">
<path transform="translate(0,0)" fill="rgb(255,255,255)" d="M 0 0 L 2048 0 L 2048 1253 L 0 1253 L 0 0 z"/>
<path transform="translate(0,0)" fill="rgb(232,231,228)" d="M 681.166 447.909 C 681.112 443.923 680.617 438.049 682.09 434.624 C 684.791 433.835 687.025 434.382 689.858 434.723 C 693.372 438.185 692.03 480.185 692.328 488.237 C 693.621 489.956 693.304 495.347 693.353 497.848 L 1291.34 497.772 C 1291.13 483.569 1289.79 447.561 1291.32 434.12 C 1294.68 434.09 1298.64 433.636 1301.47 435.063 C 1302.8 442.067 1302.63 487.782 1302.75 497.933 C 1382.33 496.83 1463.86 497.698 1543.58 497.706 L 1610.8 497.77 C 1620.74 497.787 1638.19 498.329 1647.73 497.489 C 1647.69 480.073 1646.74 450.783 1648.12 434.132 L 1659.29 434.096 C 1660.8 446.009 1659.84 484.214 1659.8 497.889 C 1730.69 497.098 1802.64 497.781 1873.61 497.756 L 1942.16 497.646 C 1953.29 497.628 1971.36 497.134 1982.05 498.377 C 1988.72 499.098 1994.98 501.911 1999.94 506.411 C 2007.39 513.219 2009.93 522.482 2009.98 532.222 C 2010.13 562.627 2010 593.231 2010 623.626 L 2009.97 810.11 L 2009.98 930.195 C 2010.01 950.927 2010.48 971.862 2009.74 992.57 C 2009.2 1007.73 1997.07 1021.88 1981.27 1021.94 C 1941.41 1022.09 1901.5 1022.03 1861.61 1022.03 L 1622.52 1022.04 L 901.844 1022.03 L 338.948 1022.04 L 156.062 1022.05 C 125.385 1022.05 94.6462 1022.22 63.9859 1021.84 C 55.1098 1022.65 39.3945 1009.34 38.6911 1000.5 C 35.7405 963.414 37.1383 916.844 37.1676 880.295 L 37.1468 689.003 L 37.221 584.884 C 37.1644 566.604 36.1749 547.557 37.3602 529.395 C 39.6942 493.633 72.4521 497.564 97.9691 497.645 L 147.466 497.727 L 332.273 497.762 C 332.576 477.583 331.594 453.568 332.752 434.135 L 343.768 434.102 C 345.296 447.764 344.303 483.35 344.273 497.965 C 454.323 496.578 570.955 497.042 681.164 497.842 C 680.984 486.99 679.897 457.782 681.166 447.909 z"/>
<path transform="translate(0,0)" fill="rgb(252,181,53)" d="M 1291.32 434.12 C 1294.68 434.09 1298.64 433.636 1301.47 435.063 C 1302.8 442.067 1302.63 487.782 1302.75 497.933 C 1299.12 498.059 1295.87 498.604 1292.75 497.02 C 1290.65 488.616 1292.7 447.967 1291.44 435.206 L 1291.32 434.12 z"/>
<path transform="translate(0,0)" fill="rgb(252,181,53)" d="M 1648.12 434.132 L 1659.29 434.096 C 1657.53 452.619 1660.07 473.666 1659.14 492.368 C 1659.01 494.982 1657.47 496.755 1655.5 498.206 C 1651.75 498.902 1653.17 499.137 1650.03 497.608 C 1647.02 490.296 1649.23 447.719 1648.22 435.372 L 1648.12 434.132 z"/>
<path transform="translate(0,0)" fill="rgb(252,181,53)" d="M 681.166 447.909 C 681.112 443.923 680.617 438.049 682.09 434.624 C 684.791 433.835 687.025 434.382 689.858 434.723 C 693.372 438.185 692.03 480.185 692.328 488.237 C 692.313 491.31 692.166 493.967 691.968 497.01 L 690.588 497.925 C 687.718 497.861 684.858 498.16 682.505 496.756 C 680.702 487.362 682.21 460.591 681.166 447.909 z"/>
<path transform="translate(0,0)" fill="rgb(252,181,53)" d="M 332.752 434.135 L 343.768 434.102 C 342.648 445.454 344.949 493.309 341.58 497.944 C 338.064 498.974 339.555 498.964 335.926 497.843 C 334.593 496.619 332.948 494.572 332.923 492.717 C 332.664 473.282 333.648 453.562 332.752 434.135 z"/>
<path transform="translate(0,0)" fill="rgb(16,138,254)" d="M 859.654 160.217 C 882.532 54.5461 1017.68 51.1964 1053.01 142.662 C 1075.7 136.793 1096.2 136.989 1117.05 149.468 C 1134.35 159.814 1146.85 176.587 1151.82 196.121 C 1156.43 214.933 1153.61 236.593 1143.41 253.18 C 1133.44 269.258 1117.45 280.669 1099.01 284.862 C 1086.69 287.669 1064.99 286.875 1051.5 286.866 L 981.589 286.792 L 971.185 286.805 L 907.265 286.827 C 876.289 286.89 840.138 290.128 815.966 266.311 C 805.22 255.722 800.135 240.751 800.268 225.795 C 800.449 207.81 807.833 190.648 820.768 178.15 C 832.583 166.906 844.154 162.895 859.654 160.217 z"/>
<path transform="translate(0,0)" fill="rgb(252,181,53)" d="M 971.185 286.805 L 981.589 286.792 L 981.773 340.003 L 1001.51 339.914 L 1001.54 350.44 C 991.254 350.332 945.895 351.455 939.227 349.56 C 937.992 346.901 938.293 344.424 938.279 341.432 C 942.424 338.944 964.871 339.925 971.088 339.988 L 971.185 286.805 z"/>
<path transform="translate(0,0)" fill="rgb(252,181,53)" d="M 339.262 339.943 C 350.163 339.95 392.898 339.108 400.951 340.459 L 401.961 342.012 C 402.268 345.275 402.594 346.613 401.794 349.836 L 399.25 350.392 C 389.104 350.442 337.258 352.769 333.695 346.671 L 337.424 345.41 L 339.262 339.943 z"/>
<path transform="translate(0,0)" fill="rgb(252,181,53)" d="M 1648.58 359.13 C 1652 359.054 1656.17 358.605 1658.61 360.63 C 1660.13 374.081 1659.14 408.412 1659.1 423.381 C 1656.02 423.414 1651.24 423.84 1648.97 422.106 C 1647.45 411.595 1648.5 371.498 1648.58 359.13 z"/>
<path transform="translate(0,0)" fill="rgb(252,181,53)" d="M 679.996 359.196 C 683.953 359.058 687.328 358.469 690.285 360.679 C 691.287 368.837 691.691 414.536 690.955 423.15 C 687.431 423.434 684.907 423.962 681.617 422.762 C 680.191 417.321 680.04 368.716 679.996 359.196 z"/>
<path transform="translate(0,0)" fill="rgb(252,181,53)" d="M 487.916 339.947 C 498.756 339.926 543.859 339.218 551.166 340.517 C 552.913 343.373 552.423 346.912 552.408 350.445 C 541.719 350.45 497.434 351.248 488.882 349.871 C 487.473 347.07 487.899 343.251 487.916 339.947 z"/>
<path transform="translate(0,0)" fill="rgb(252,181,53)" d="M 413.07 339.94 C 423.689 339.933 468.839 339.242 476.107 340.514 C 477.768 343.366 477.32 347.003 477.326 350.482 C 465.664 350.265 422.36 351.468 414.098 349.688 C 412.609 347.113 413.061 343.131 413.07 339.94 z"/>
<path transform="translate(0,0)" fill="rgb(252,181,53)" d="M 333.029 359.172 C 336.841 359.049 338.147 359.004 342.057 359.641 C 344.576 362.499 343.472 414.779 343.526 423.238 C 339.909 423.401 336.895 423.936 333.699 422.452 C 332.069 416.814 332.969 368.145 333.029 359.172 z"/>
<path transform="translate(0,0)" fill="rgb(252,181,53)" d="M 562.974 339.94 C 572.596 339.936 617.949 339.172 625.926 340.511 C 627.6 343.344 627.113 346.984 627.093 350.461 C 615.721 350.331 572.231 351.408 564.11 349.752 C 562.489 347.113 562.967 343.256 562.974 339.94 z"/>
<path transform="translate(0,0)" fill="rgb(252,181,53)" d="M 637.994 339.949 C 649.459 339.95 691.772 339.058 700.939 340.476 C 702.687 343.347 702.195 346.92 702.18 350.469 C 690.372 350.309 647.686 351.423 639.1 349.728 C 637.489 347.104 637.977 343.248 637.994 339.949 z"/>
<path transform="translate(0,0)" fill="rgb(252,181,53)" d="M 712.915 339.945 C 722.431 339.939 768.045 339.189 775.905 340.552 C 777.488 343.341 777.017 347.032 776.994 350.423 C 765.989 350.466 721.892 351.266 714.113 349.78 C 712.443 347.116 712.917 343.306 712.915 339.945 z"/>
<path transform="translate(0,0)" fill="rgb(252,181,53)" d="M 862.872 339.947 C 872.503 339.941 917.887 339.183 925.884 340.56 C 927.423 343.333 926.956 347.011 926.928 350.362 C 913.863 350.421 874.07 351.401 863.883 349.894 C 862.375 347.072 862.841 343.323 862.872 339.947 z"/>
<path transform="translate(0,0)" fill="rgb(252,181,53)" d="M 1537.26 339.94 C 1547.97 339.932 1592.9 339.245 1600.11 340.519 C 1601.72 343.377 1601.27 347.047 1601.27 350.5 C 1589.72 350.489 1548.3 351.282 1538.15 349.75 C 1536.76 347.236 1537.23 343.043 1537.26 339.94 z"/>
<path transform="translate(0,0)" fill="rgb(252,181,53)" d="M 787.995 339.936 C 797.794 339.936 842.889 339.181 850.925 340.539 C 852.41 343.358 851.983 347.135 851.978 350.492 C 840.569 350.344 797.153 351.391 789.105 349.728 C 787.53 347.106 787.992 343.21 787.995 339.936 z"/>
<path transform="translate(0,0)" fill="rgb(252,181,53)" d="M 1237.53 339.939 C 1248.61 339.989 1292.57 339.109 1300.27 340.505 C 1302.24 343.314 1301.77 346.598 1301.81 350.224 C 1294.17 350.593 1245.33 350.972 1238.65 349.812 C 1237.12 347.148 1237.55 343.214 1237.53 339.939 z"/>
<path transform="translate(0,0)" fill="rgb(252,181,53)" d="M 1162.86 339.944 L 1226.37 339.928 L 1226.61 349.737 C 1223.82 351.085 1169.99 350.636 1164.05 349.913 C 1162.36 347.119 1162.84 343.407 1162.86 339.944 z"/>
<path transform="translate(0,0)" fill="rgb(252,181,53)" d="M 1462.26 339.939 C 1472.96 339.93 1517.9 339.244 1525.11 340.519 C 1526.74 343.373 1526.27 346.994 1526.24 350.456 L 1462.48 350.441 L 1462.26 339.939 z"/>
<path transform="translate(0,0)" fill="rgb(252,181,53)" d="M 1012.87 339.947 C 1022.95 339.918 1068.91 339.21 1075.7 340.609 C 1077.32 343.364 1076.84 347.005 1076.83 350.388 C 1064.07 350.429 1023.84 351.376 1013.88 349.881 C 1012.35 347.076 1012.83 343.324 1012.87 339.947 z"/>
<path transform="translate(0,0)" fill="rgb(252,181,53)" d="M 1387.42 339.938 C 1398.11 339.922 1442.99 339.227 1450.19 340.511 C 1451.96 343.367 1451.46 346.904 1451.43 350.451 L 1387.52 350.397 L 1387.42 339.938 z"/>
<path transform="translate(0,0)" fill="rgb(252,181,53)" d="M 1087.78 339.944 C 1098.43 339.921 1143.02 339.199 1150.25 340.502 C 1152.17 343.35 1151.59 346.786 1151.52 350.439 C 1138.67 350.403 1099.41 351.403 1088.88 349.948 C 1087.33 347.077 1087.77 343.377 1087.78 339.944 z"/>
<path transform="translate(0,0)" fill="rgb(252,181,53)" d="M 1312.76 339.937 C 1324.24 339.944 1365.81 339.061 1374.95 340.462 C 1376.75 343.344 1376.25 346.913 1376.24 350.503 C 1362.24 350.289 1325.78 351.604 1313.88 349.946 C 1312.29 347.085 1312.75 343.386 1312.76 339.937 z"/>
<path transform="translate(0,0)" fill="rgb(252,181,53)" d="M 1291.14 359.23 C 1294.98 359.071 1296.23 359.039 1300.14 359.584 C 1302.91 362.562 1301.97 415.974 1301.89 423.246 L 1291.63 423.497 L 1291.14 359.23 z"/>
<path transform="translate(0,0)" fill="rgb(252,181,53)" d="M 1611.99 339.942 C 1621.81 340.071 1642.07 338.512 1650.26 341.26 C 1651.6 342.702 1652 343.208 1652.7 345.137 C 1655.05 345.882 1656.09 346.121 1658.53 346.5 L 1657.73 347.993 C 1648.92 350.232 1620.68 352.166 1612.83 349.667 C 1611.58 347.132 1611.98 342.968 1611.99 339.942 z"/>
</svg>