<svg version="1.1" xmlns="http://www.w3.org/2000/svg" style="display: block;" viewBox="0 0 1383 2048" width="370" height="548" preserveAspectRatio="none">
<path transform="translate(0,0)" fill="rgb(254,254,254)" d="M 199.075 67.3868 C 216.795 65.4217 241.65 66.6815 259.886 66.732 L 364.175 66.8431 L 712.669 66.8344 L 1014.46 66.8625 L 1115.68 66.9342 C 1134.2 66.9352 1156.99 66.4946 1174.76 67.8692 C 1193.29 69.3035 1223.83 84.458 1237.56 97.2475 C 1259.21 117.427 1275.01 151.926 1275.72 181.635 C 1276.32 206.895 1275.69 232.126 1275.64 257.26 L 1275.33 422.278 L 1275.79 1037.72 L 1275.97 1571.51 L 1275.92 1744.14 C 1275.93 1772.77 1276.86 1803.24 1275.53 1831.5 C 1274.57 1851.66 1261.37 1879.72 1247.38 1894.4 C 1223.97 1918.96 1202.33 1932.41 1167.75 1934.16 C 1145.23 1936.58 1115.77 1936 1092.61 1936.05 L 980.281 1936.11 L 615.206 1935.48 L 320.262 1934.58 C 286.251 1934.29 252.239 1935.08 218.232 1934.29 C 211.767 1934.14 205.277 1934.21 198.836 1933.55 C 178.592 1931.35 159.304 1923.78 142.967 1911.63 C 118.724 1893.68 98.0232 1864.64 94.0003 1834.45 C 91.813 1818.04 92.7034 1787.46 92.7322 1769.85 L 92.905 1654.46 L 92.8949 1240.16 L 92.9012 507.74 L 93.0312 290.563 C 93.0235 254.674 92.0023 217.503 93.2852 181.738 C 95.5036 119.893 138.443 76.0648 199.075 67.3868 z"/>
<path transform="translate(0,0)" fill="rgb(41,152,206)" d="M 232.578 128.319 C 243.471 127.272 266.645 127.903 278.266 127.925 L 365.191 128.016 L 651.169 127.865 L 970.597 127.883 L 1073.21 127.842 C 1092.76 127.837 1112.01 127.701 1131.6 128.391 C 1170.72 128.702 1209.02 165.629 1215.61 203.14 C 1217.93 216.361 1216.74 242.601 1216.73 257.032 L 1216.57 360.521 L 1216.26 729.88 L 1215.49 1420.01 L 1215.74 1657.48 C 1215.84 1700.19 1216.25 1743.58 1215.65 1786.26 C 1215.41 1803.87 1208.33 1825.73 1197.82 1839.84 C 1181.74 1861.41 1160.08 1871.54 1134.24 1875.74 C 1115.4 1877.4 1092.06 1876.68 1072.85 1876.58 L 975.635 1876.31 L 632.653 1876.85 L 362.493 1876.87 L 281.595 1877.05 C 245.653 1877.13 221.276 1880.86 190.068 1858.3 C 146.273 1826.63 154.001 1773.4 153.947 1726.33 L 154.015 1590.05 L 153.721 1120.09 L 153.947 485.403 L 153.886 313.935 C 153.746 283.182 152.466 239.159 154.365 209.071 C 155.586 191.814 161.953 175.32 172.642 161.717 C 188.1 141.82 207.902 131.509 232.578 128.319 z"/>
<path transform="translate(0,0)" fill="rgb(254,254,254)" d="M 286.332 1090.46 C 340.335 1088.98 401.234 1090.32 455.754 1090.27 L 810.831 1090.29 L 996.462 1090.24 C 1020.17 1090.22 1071.82 1088.78 1092.53 1091.36 C 1108.9 1093.34 1124.2 1100.52 1136.19 1111.84 C 1160.27 1134.56 1161.09 1155.77 1160.7 1186.48 C 1160.28 1218.47 1160.34 1250.68 1160.3 1282.68 L 1160.18 1534.17 L 1160.47 1680.81 C 1160.53 1712.39 1165.65 1755.02 1148.52 1782.24 C 1134.55 1804.43 1111.36 1817.54 1085.08 1818.17 L 513.49 1818.19 L 355.628 1818.14 C 332.514 1818.17 309.355 1818.39 286.27 1818.14 C 264.304 1817.9 252.121 1812.22 235.546 1798.67 C 203.887 1772.78 208.216 1734.63 208.313 1698.24 L 208.441 1624.88 L 208.058 1388.63 L 207.878 1241.33 C 207.705 1215.11 207.13 1186.16 208.078 1159.98 C 208.517 1147.86 217.988 1127.19 226.538 1118.02 C 244.326 1098.96 261.203 1092.18 286.332 1090.46 z"/>
<path transform="translate(0,0)" fill="rgb(254,204,1)" d="M 419.575 1593.27 C 439.894 1592.51 540.744 1590.22 553.078 1596.38 C 557.975 1598.83 561.32 1603.66 562.893 1608.8 C 566.637 1621.02 565.823 1717.9 564.381 1734.11 C 563.958 1738.86 563.399 1744.39 560.954 1748.59 C 557.159 1755.12 551.138 1757.36 544.223 1758.92 C 504.802 1760.75 462.918 1758.94 423.309 1759.04 C 412.712 1758.83 399.404 1753.37 398.628 1741.03 C 396.072 1700.4 397.306 1658.48 397.904 1617.74 C 398.124 1602.71 405.728 1595.73 419.575 1593.27 z"/>
<path transform="translate(0,0)" fill="rgb(254,254,254)" d="M 473.459 1635.44 C 476.309 1635.12 477.435 1634.9 480.194 1634.12 C 482.038 1629.94 479.861 1623.86 484.814 1621.87 C 490.015 1624.6 488.669 1629.14 488.332 1633.89 C 499.059 1637.58 510.072 1643.24 510.402 1657.17 C 510.596 1665.41 503.161 1668.44 498.172 1673.39 C 499.891 1677.81 509.946 1677.06 512.124 1685.89 C 518.105 1710.13 507.485 1709.51 489.758 1719.05 C 488.28 1719.84 489.643 1725.75 487.885 1728.85 C 484.722 1730.02 486.311 1729.88 482.939 1729.19 C 480.666 1726.16 481.039 1723.83 480.437 1719.62 C 478.528 1717.13 479.758 1717.88 476.56 1717.38 C 472.008 1720.51 474.473 1726.38 470.351 1730.17 L 468.027 1729.44 C 464.845 1725.9 466.651 1725.7 465.269 1719.78 C 461.732 1716.73 459.92 1717.27 454.623 1716.23 C 453.281 1694.28 454.029 1659.26 454.422 1636.9 L 466.064 1634.08 C 469.436 1634.33 470.247 1634.42 473.459 1635.44 z"/>
<path transform="translate(0,0)" fill="rgb(254,204,1)" d="M 466.196 1679.87 C 476.714 1679.8 490.02 1678.81 498.853 1685.46 C 505.514 1690.48 501.828 1699.09 497.457 1704.26 C 488.282 1709.04 476.301 1708.05 466.055 1708.01 L 466.196 1679.87 z"/>
<path transform="translate(0,0)" fill="rgb(254,204,1)" d="M 466.579 1644.35 C 479.133 1644.63 512.105 1645.56 492.865 1667.15 C 485.676 1670.75 474.257 1670.04 465.998 1670.14 C 465.997 1663.78 465.692 1650 466.579 1644.35 z"/>
<path transform="translate(0,0)" fill="rgb(255,254,248)" d="M 466.064 1634.08 C 465.767 1630.26 465.088 1627.72 466.924 1624.5 L 468.851 1623.22 C 472.005 1624.57 470.905 1623.84 473.027 1626.84 C 473.354 1630.04 473.443 1632.23 473.459 1635.44 C 470.247 1634.42 469.436 1634.33 466.064 1634.08 z"/>
<path transform="translate(0,0)" fill="rgb(0,0,0)" d="M 858.308 1606.39 C 908.766 1604.58 906.094 1681.11 882.45 1708.52 C 867.919 1725.37 861.561 1729.74 839.966 1733.14 C 784.652 1733.44 790.856 1660.07 815.322 1629.34 C 827.814 1613.65 839.081 1608.71 858.308 1606.39 z"/>
<path transform="translate(0,0)" fill="rgb(254,254,254)" d="M 848.764 1634.14 C 880.596 1630.64 870.529 1692.96 846.381 1705.81 C 816.912 1709.73 825.716 1647.6 848.764 1634.14 z"/>
<path transform="translate(0,0)" fill="rgb(0,0,0)" d="M 962.012 1606.39 C 968.416 1606.08 979.708 1608.96 984.693 1612.99 C 1020.22 1641.69 999.373 1717.18 957.722 1730.28 C 953.473 1731.62 948.141 1732.44 943.744 1733.12 C 888.16 1733.76 894.35 1658.64 919.724 1628.47 C 932.593 1613.17 942.857 1608.71 962.012 1606.39 z"/>
<path transform="translate(0,0)" fill="rgb(254,254,254)" d="M 952 1634.21 C 976.117 1632.52 973.078 1657.61 970.24 1674.07 C 968.105 1686.44 961.878 1698.48 951.303 1705.39 C 921.323 1712.28 928.339 1650.61 952 1634.21 z"/>
<path transform="translate(0,0)" fill="rgb(0,0,0)" d="M 472.943 1168.88 C 480.587 1168.85 488.231 1168.87 495.874 1168.93 C 501.065 1186.87 506.093 1204.85 510.959 1222.88 C 515.564 1205.13 521.046 1186.88 525.828 1168.97 L 549.827 1169.08 C 550.024 1200.26 550.482 1231.44 551.202 1262.62 L 531.667 1262.64 L 531.769 1228.06 L 532.047 1207.61 C 528.365 1218.96 518.852 1253.84 512.93 1260.19 C 511.285 1260.78 510.417 1261.55 509.389 1260.69 C 500.992 1253.67 492.611 1216.9 489.786 1206.75 C 490.071 1225.44 489.966 1244.13 489.471 1262.82 C 483.033 1262.63 476.592 1262.55 470.152 1262.6 C 472.168 1234.43 472.075 1197.7 472.943 1168.88 z"/>
<path transform="translate(0,0)" fill="rgb(0,0,0)" d="M 718.66 1167.3 C 739.978 1168.61 750.704 1184.72 752.898 1204.62 C 755.744 1230.42 750.572 1260.5 720.251 1263.8 C 700.358 1262.31 688.757 1248.76 686.37 1229.54 C 683.138 1203.51 687.578 1171.06 718.66 1167.3 z"/>
<path transform="translate(0,0)" fill="rgb(254,254,254)" d="M 716.498 1186.91 C 738.123 1185.21 734.911 1223.86 729.176 1236.33 C 727.546 1239.88 724.953 1242.07 722.078 1244.55 C 701.341 1246.41 704.241 1206.96 709.483 1195.12 C 711.233 1191.18 713.302 1189.46 716.498 1186.91 z"/>
<path transform="translate(0,0)" fill="rgb(0,0,0)" d="M 1069.8 1305.16 C 1076.1 1306.08 1083.63 1305.83 1090.08 1305.83 C 1082.87 1325.42 1069.25 1347.94 1066.21 1367.91 C 1065.28 1374.02 1065.71 1392.55 1065.78 1399.62 C 1059.53 1399.61 1052.86 1399.29 1046.58 1399.1 L 1046.69 1374.97 C 1046.61 1354.86 1029.32 1323.96 1020.06 1304.58 L 1020.42 1323.92 L 1001.71 1324.02 L 1001.2 1399.77 C 995.04 1399.86 988.004 1399.45 981.779 1399.23 C 981.298 1374.29 981.4 1348.78 981.136 1323.78 L 964.163 1323.94 C 963.776 1317.66 964.081 1312.07 964.334 1305.81 L 976.157 1305.47 C 996.839 1305.05 1023.12 1306.68 1043.05 1305.04 C 1046.34 1316.69 1052.96 1328.39 1056.38 1341.47 C 1060.27 1329.5 1064.69 1316.63 1069.8 1305.16 z"/>
<path transform="translate(0,0)" fill="rgb(0,0,0)" d="M 400.69 1305.11 C 420.684 1305.21 461.662 1300.49 457.666 1332.87 C 456.854 1339.45 453.242 1343.86 449.728 1349.33 C 450.541 1357.5 468.798 1361.5 456.663 1387.1 C 443.393 1403.49 420.235 1399.4 400.876 1399.16 C 400.507 1367.81 400.445 1336.46 400.69 1305.11 z"/>
<path transform="translate(0,0)" fill="rgb(254,254,254)" d="M 420.239 1360.22 C 436.115 1359.42 444.385 1362.31 437.132 1379.72 C 432.435 1380.9 424.82 1381.32 419.776 1381.77 C 419.763 1374.78 420.072 1367.25 420.239 1360.22 z"/>
<path transform="translate(0,0)" fill="rgb(254,254,254)" d="M 420.775 1322.64 C 422.011 1322.7 423.245 1322.78 424.479 1322.87 C 437.972 1323.9 438.057 1328.91 435.79 1340.56 C 430.984 1342.31 425.819 1342.26 420.691 1342.51 C 420.541 1336.01 420.715 1329.16 420.775 1322.64 z"/>
<path transform="translate(0,0)" fill="rgb(0,0,0)" d="M 531.091 1305.32 C 556.833 1304.99 594.183 1301.4 590.525 1340.42 C 589.598 1350.31 585.383 1356.95 576.861 1362.14 C 582.508 1377.62 585.568 1384.48 593.818 1398.76 L 570.429 1399.32 C 567.186 1392.8 560.299 1369.08 554.487 1365.91 L 552.985 1367.17 C 550.455 1375.5 551.104 1390.3 551.102 1399.39 C 544.354 1399.29 537.606 1399.23 530.857 1399.2 C 531.39 1368.08 530.58 1336.62 531.091 1305.32 z"/>
<path transform="translate(0,0)" fill="rgb(254,254,254)" d="M 551.819 1322.79 C 567.25 1324.52 576.628 1332.18 565.756 1346.9 C 562.025 1348.26 555.544 1349.43 551.435 1350.3 C 551.114 1342.01 550.82 1330.84 551.819 1322.79 z"/>
<path transform="translate(0,0)" fill="rgb(0,0,0)" d="M 498.089 1443.82 C 513.53 1444.02 541.292 1441.91 550.929 1454.85 C 563.237 1471.38 558.014 1489.76 543.439 1501.89 C 548.296 1512.35 555.698 1527.17 559.168 1537.73 C 552.078 1537.82 544.991 1538.07 537.914 1538.49 C 534.989 1531.69 526.923 1508.24 520.823 1506.07 C 516.588 1510.12 518.392 1531.86 518.555 1538.14 L 498.884 1538.18 C 496.738 1513.27 498.051 1469.81 498.089 1443.82 z"/>
<path transform="translate(0,0)" fill="rgb(254,254,254)" d="M 518.786 1462.27 C 534.829 1462.11 543.739 1472.91 532.397 1485.78 C 527.746 1487.29 525.045 1488.37 520.677 1486.64 C 515.912 1481.01 518.215 1470.14 518.786 1462.27 z"/>
<path transform="translate(0,0)" fill="rgb(0,0,0)" d="M 716.792 1444.26 L 735.226 1444.4 C 735.515 1454.87 737.241 1533.55 734.762 1538.4 C 729.269 1538.47 723.322 1538.25 717.791 1538.15 L 693.166 1485.97 C 694.211 1503.31 693.928 1521.2 693.507 1538.57 C 687.384 1538.61 680.693 1538.31 674.526 1538.15 C 672.93 1516.17 673.65 1467.16 674.57 1444.44 L 694.293 1445.05 C 702.727 1461.59 709.936 1479.05 716.986 1496.24 C 715.771 1482.86 716.076 1457.83 716.792 1444.26 z"/>
<path transform="translate(0,0)" fill="rgb(0,0,0)" d="M 864.183 1305.77 C 891.936 1306.92 927.963 1300.44 922.741 1344.33 C 921.75 1352.65 915.574 1357.71 908.991 1362.13 C 914.735 1374.12 920.183 1386.73 925.985 1398.92 L 904.417 1399.18 C 897.984 1384.73 895.477 1374.7 885.984 1361.68 C 884.833 1372.08 885.169 1388.35 885.128 1399.05 L 864.574 1399.05 L 864.183 1305.77 z"/>
<path transform="translate(0,0)" fill="rgb(254,254,254)" d="M 885.046 1323 C 901.461 1322.97 909.006 1331 899.451 1346.28 C 894.932 1348.22 889.968 1348.34 885.041 1348.78 C 884.838 1340.4 885.017 1331.43 885.046 1323 z"/>
<path transform="translate(0,0)" fill="rgb(0,0,0)" d="M 784.915 1444.42 L 803.947 1444.67 C 809.598 1458.05 817.002 1470.97 822.205 1484.6 C 823.585 1488.22 825.199 1491.76 827.064 1495.15 C 826.88 1478.34 826.85 1461.52 826.975 1444.71 C 832.87 1445.13 839.589 1445.07 845.56 1445.16 C 845.841 1467.55 846.714 1511.92 846.335 1536.36 C 845.875 1536.89 845.414 1537.42 844.954 1537.95 L 826.918 1537.98 C 819.11 1520.15 811.874 1502.68 803.743 1484.92 C 803.626 1503.03 804.573 1520.46 803.954 1538.82 L 785.194 1537.92 C 784.679 1508.64 783.281 1473.19 784.915 1444.42 z"/>
<path transform="translate(0,0)" fill="rgb(0,0,0)" d="M 564.421 1168.01 C 591.457 1168.39 627.411 1165.13 625.112 1203.84 C 624.015 1222.32 610.14 1230.35 593.676 1232.85 C 590.652 1232.85 589.096 1232.52 586.564 1233.94 C 583.026 1239.73 584.905 1254.37 584.96 1262.46 C 578.509 1262.83 571.658 1262.77 565.168 1262.83 C 564.993 1231.77 565.382 1198.93 564.421 1168.01 z"/>
<path transform="translate(0,0)" fill="rgb(254,254,254)" d="M 585.099 1186.77 C 600.878 1187.45 611.261 1196.33 600.531 1211.36 C 599.063 1212.04 597.582 1212.69 596.087 1213.32 C 592.346 1214.86 590.734 1215.44 587.127 1213.95 C 582.73 1209.13 584.83 1194.17 585.099 1186.77 z"/>
<path transform="translate(0,0)" fill="rgb(0,0,0)" d="M 725.243 1611.05 L 772.443 1611.08 C 771.619 1621.72 768.5 1637.28 766.911 1648.17 C 763.012 1674.9 758.139 1701.71 754.604 1728.52 C 744.418 1728.72 733.81 1728.57 723.587 1728.57 L 738.052 1637.08 L 721.652 1637 C 722.697 1628.16 723.631 1619.81 725.243 1611.05 z"/>
<path transform="translate(0,0)" fill="rgb(0,0,0)" d="M 587.494 1444.15 C 593.757 1444.05 600.813 1444.34 607.139 1444.45 C 609.199 1455.02 614.422 1471.19 617.571 1482.07 C 622.97 1500.72 628.137 1519.43 633.07 1538.2 L 611.661 1538.56 C 610.915 1534.39 609.706 1525.16 607.78 1521.92 C 600.422 1521.54 592.828 1521.48 585.444 1521.33 L 581.583 1537.86 L 560.653 1537.98 C 569.706 1506.86 576.802 1474.74 587.494 1444.15 z"/>
<path transform="translate(0,0)" fill="rgb(254,254,254)" d="M 596.195 1474.6 C 599.188 1477.14 603.722 1500.41 602.132 1504.47 L 599.234 1505.07 C 595.727 1504.93 593.797 1505.12 590.552 1503.73 C 589.636 1500.25 595.11 1479.18 596.195 1474.6 z"/>
<path transform="translate(0,0)" fill="rgb(0,0,0)" d="M 888.169 1443.35 C 904.237 1442.74 910.296 1446.89 922.198 1456.5 C 917.325 1460.04 914.236 1464.24 909.36 1467.71 C 906.191 1468.86 900.991 1464.64 896.129 1463.74 C 872.906 1459.43 874.644 1504.48 884.083 1515.87 C 890.443 1523.54 904.529 1521.08 905.636 1509.13 C 903.669 1500.76 897.388 1502.37 890.656 1503.2 C 890.512 1496.33 891.045 1490.94 891.652 1484.14 L 905.75 1484.77 L 921.896 1485.18 C 921.383 1498.65 921.83 1512.04 922.141 1525.5 C 916.557 1531.7 910.319 1536.74 902.14 1539.05 C 894.218 1541.27 885.733 1540.19 878.62 1536.05 C 848.19 1518.72 846.826 1452.77 888.169 1443.35 z"/>
<path transform="translate(0,0)" fill="rgb(0,0,0)" d="M 831.676 1305.88 L 850.66 1306.05 L 850.988 1324.75 L 851.037 1330.42 C 851.182 1347.83 854.754 1380.39 841.368 1393.28 C 825.953 1407.89 795.333 1401.06 792.061 1378.43 C 788.787 1355.78 790.222 1329.06 790.435 1305.94 L 809.966 1306.1 C 810.184 1320.7 806.84 1368.14 814.181 1377.84 C 815.656 1379.79 817.721 1381.24 820.215 1381.41 C 822.578 1381.57 825.428 1380.76 827.166 1379.11 C 834.532 1372.1 831.012 1318.76 831.676 1305.88 z"/>
<path transform="translate(0,0)" fill="rgb(0,0,0)" d="M 891.35 1167.97 C 907.488 1168.36 923.631 1168.52 939.775 1168.45 L 939.547 1187.06 L 911.077 1187.57 L 911.038 1204.96 C 919.211 1205.06 927.384 1205.27 935.552 1205.57 C 935.499 1211.63 935.586 1217.7 935.814 1223.76 L 911.065 1223.99 L 911.029 1240.25 L 911.734 1242.46 C 915.695 1243.87 935.434 1243.72 940.95 1243.86 L 941.257 1262.38 C 924.678 1262.69 907.824 1262.67 891.22 1262.8 C 890.536 1231.19 890.579 1199.57 891.35 1167.97 z"/>
<path transform="translate(0,0)" fill="rgb(0,0,0)" d="M 481.004 1305.47 C 493.726 1305.12 506.94 1305.23 519.703 1305.17 L 519.009 1323.76 L 491.417 1324.38 C 491.037 1330.49 491.211 1337.09 491.25 1343.25 C 499.239 1342.74 507.786 1343.02 515.827 1343.1 L 515.666 1360.23 L 491.337 1360.18 C 490.981 1365.66 489.877 1375.55 491.517 1380.54 L 493.75 1381.21 C 502.569 1381.25 511.562 1381.5 520.395 1381.66 L 520.758 1399.55 C 504.178 1399.65 487.063 1399.29 470.441 1399.15 L 470.296 1341.65 C 470.3 1332.25 469.903 1315.51 471.277 1306.78 C 473.299 1305.27 478.19 1305.56 481.004 1305.47 z"/>
<path transform="translate(0,0)" fill="rgb(0,0,0)" d="M 830.196 1168.08 C 841.777 1169.15 867.007 1168.65 879.636 1168.8 L 879.351 1186.54 L 851.159 1186.94 L 851.017 1205.27 C 859.165 1205.18 867.593 1205.33 875.766 1205.37 C 875.525 1211.23 875.33 1217.09 875.181 1222.95 L 850.343 1223.14 C 850.212 1229.38 850.448 1235.52 850.637 1241.75 L 851.498 1242.87 C 855.14 1244.19 875.468 1243.72 880.74 1243.75 L 880.613 1262.51 C 863.98 1262.39 847.346 1262.5 830.715 1262.83 C 830.427 1231.33 830.752 1199.51 830.196 1168.08 z"/>
<path transform="translate(0,0)" fill="rgb(0,0,0)" d="M 411.907 1168.88 L 461.131 1168.85 L 460.621 1187.19 L 431.696 1187.82 L 431.228 1205.3 C 439.29 1205.13 447.861 1205.29 455.967 1205.32 C 455.913 1211.42 455.661 1217.71 455.5 1223.82 L 431.303 1224.07 L 431.322 1239.25 L 431.648 1242.27 C 434.735 1244.85 454.402 1243.93 460.228 1244.03 C 460.757 1249.84 460.703 1256.86 460.811 1262.77 C 445.02 1262.08 427.898 1262.4 412.002 1262.41 C 411.788 1231.23 411.757 1200.06 411.907 1168.88 z"/>
<path transform="translate(0,0)" fill="rgb(0,0,0)" d="M 663.737 1305.89 C 680.219 1305.77 696.702 1305.78 713.183 1305.94 C 713.098 1312.73 712.594 1317.25 711.8 1323.92 C 702.657 1324.01 693.516 1324.23 684.381 1324.59 C 684.191 1330.55 684.259 1336.71 684.245 1342.68 C 692.501 1342.45 700.874 1342.67 709.139 1342.79 L 708.978 1359.96 L 684.167 1359.85 L 684.038 1377.25 C 684.019 1378.66 684.251 1378.72 684.777 1380.15 C 689.586 1381.87 707.689 1381.3 713.678 1381.25 L 713.157 1399.25 L 663.319 1398.94 C 664.706 1370.63 663.664 1334.89 663.737 1305.89 z"/>
<path transform="translate(0,0)" fill="rgb(0,0,0)" d="M 622.493 1304.21 C 629.345 1303.82 642.297 1304.93 647.584 1309.28 C 655.96 1316.17 645.633 1324.75 640.989 1329.38 C 635.223 1324.76 627 1319.62 620.066 1325.26 C 615.015 1337.32 633.408 1341.49 641.305 1348.15 C 663.213 1366.62 655.899 1396.85 625.466 1400.78 C 610.514 1400.59 604.72 1397.67 594.387 1387.7 C 597.637 1384.82 605.486 1375.66 608.242 1374.72 L 610.468 1376.11 C 614.58 1378.64 622.06 1383.53 626.897 1381.97 C 632.699 1380.1 633.849 1370.9 629.567 1366.96 C 619.403 1357.6 603.061 1353.34 598.717 1338.7 C 596.705 1331.93 598.863 1323.08 602.341 1317.06 C 606.814 1309.46 614.224 1306.29 622.493 1304.21 z"/>
<path transform="translate(0,0)" fill="rgb(0,0,0)" d="M 297.158 1304.32 C 311.867 1304.5 316.729 1308.21 327.092 1318.36 C 324.287 1321.03 316.917 1328.08 314.449 1330.31 C 309.922 1330.36 303.793 1321.29 298.51 1322.91 C 279.179 1328.84 279.827 1369.4 294.468 1379.62 C 302.513 1385.24 309.167 1377.36 312.765 1371.33 L 320.788 1378.8 C 323.321 1380.88 323.722 1381.21 325.712 1383.78 C 325.747 1385.49 326.154 1385.99 325.09 1387.35 C 302.549 1416.07 270.477 1397.95 265.372 1366.09 C 261.244 1340.31 267.081 1309.31 297.158 1304.32 z"/>
<path transform="translate(0,0)" fill="rgb(0,0,0)" d="M 754.367 1304.3 C 769.57 1304.46 773.897 1308.07 783.354 1319.65 C 778.41 1323.72 773.581 1327.92 768.872 1332.25 C 750.906 1305.34 736.642 1343.67 741.587 1362.85 C 745.912 1379.63 758.716 1391.24 769.986 1370.78 C 772.612 1374.47 773.375 1375.41 776.661 1378.64 C 779.464 1380.73 779.865 1380.86 781.635 1383.77 C 781.716 1385.53 782.074 1387.56 780.805 1388.99 C 758.542 1413.78 728.181 1398.06 722.469 1368.18 C 717.268 1340.98 723.087 1310.39 754.367 1304.3 z"/>
<path transform="translate(0,0)" fill="rgb(0,0,0)" d="M 326.412 1304.74 C 332.598 1305.24 340.446 1305.07 346.767 1305.11 C 351.95 1317.28 356.851 1328.71 361.313 1341.2 C 365.476 1329.12 369.755 1317.09 374.149 1305.1 C 381.159 1305.22 388.332 1305.18 395.356 1305.22 C 389.198 1320.23 382.735 1335.11 375.973 1349.85 C 367.133 1367.16 369.967 1380.15 370.791 1399.62 C 364.102 1399.61 357.269 1399.45 350.567 1399.36 C 350.959 1392.06 351.941 1374.09 350.78 1367.51 C 347.058 1346.43 333.765 1325.9 326.412 1304.74 z"/>
<path transform="translate(0,0)" fill="rgb(0,0,0)" d="M 804.984 1167.91 C 812.412 1168.45 816.939 1168.94 824.44 1168.09 C 817.999 1187.9 806.138 1207.99 801.58 1227.83 C 799.838 1235.41 800.26 1253.57 800.306 1262.25 L 781.248 1262.25 C 781.452 1250.19 780.998 1238.13 779.888 1226.12 C 773.353 1207.72 764.249 1187.59 756.985 1168.93 L 777.331 1169.01 C 781.665 1179.86 787.815 1194.16 790.698 1205.05 C 795.151 1192.39 799.997 1180.35 804.984 1167.91 z"/>
<path transform="translate(0,0)" fill="rgb(0,0,0)" d="M 488.103 1444.56 L 488.517 1444.73 C 490.159 1447.55 489.148 1458.93 489.042 1463.16 L 470.441 1463.14 C 471.125 1486.38 470.391 1515.23 469.997 1538.5 L 450.497 1538.18 L 450.322 1525.25 C 450.225 1504.79 450.297 1484.34 450.54 1463.88 L 431.12 1463.1 C 431.219 1457.15 431.675 1450.73 431.981 1444.75 C 450.172 1445.2 469.886 1444.88 488.103 1444.56 z"/>
<path transform="translate(0,0)" fill="rgb(0,0,0)" d="M 633.894 1169.11 L 653.855 1169.21 C 653.997 1193.94 653.939 1218.67 653.679 1243.39 C 663.024 1243.75 672.954 1243.71 682.349 1243.82 L 682.641 1262.04 L 634.115 1262.2 C 634.907 1232.1 633.365 1199.95 633.894 1169.11 z"/>
<path transform="translate(0,0)" fill="rgb(0,0,0)" d="M 639.873 1445.09 L 659.797 1445.18 C 659.672 1476.21 659.772 1507.23 660.095 1538.25 C 653.554 1538.57 646.627 1538.58 640.049 1538.7 C 639.66 1507.5 639.602 1476.29 639.873 1445.09 z"/>
<path transform="translate(0,0)" fill="rgb(0,0,0)" d="M 751.15 1444.55 L 770.022 1444.8 C 770.636 1475.3 770.091 1507.44 769.995 1538.08 L 750.64 1538.01 C 749.861 1510.28 749.761 1472.08 751.15 1444.55 z"/>
<path transform="translate(0,0)" fill="rgb(0,0,0)" d="M 934.774 1305.96 L 954.855 1305.87 C 953.562 1335.08 954.338 1368.25 954.511 1397.69 L 954.126 1398.3 C 951.375 1399.62 938.733 1398.95 934.842 1398.89 L 934.774 1305.96 z"/>
<path transform="translate(0,0)" fill="rgb(0,0,0)" d="M 635.426 488.129 C 637.022 487.592 636.249 487.796 638.297 488.341 C 643.382 500.309 635.989 524.547 630.957 536.277 C 635.13 554.452 634.638 563.301 633.478 581.474 C 644.889 600.164 640.219 614.064 624.058 626.898 C 616.049 650.018 612.825 654.463 598.627 674.436 C 599.033 682.245 599.562 685.745 601.665 693.241 C 622.258 707.779 650.544 708.629 672.163 727.279 L 671.708 677.891 C 671.635 668.721 670.918 658.397 672.285 649.412 C 674.603 634.172 682.894 629.984 697.032 629.945 C 751.188 629.795 805.295 630.061 859.43 630.044 L 918.383 629.925 C 930.393 629.901 941.978 629.922 954.005 630.474 C 972.81 631.336 979.212 641.2 979.332 659.551 L 979.258 763.122 C 979.337 781.843 979.983 802.145 978.714 820.718 C 977.085 844.541 939.73 839.927 923.192 839.897 C 901.457 839.829 879.723 839.615 857.991 839.255 C 858.62 849.689 858.706 865.098 858.34 875.316 C 888.373 874.954 892.682 877.341 891.215 907.958 C 880.484 909.027 859.327 908.177 847.707 908.088 C 822.388 907.858 797.069 907.845 771.75 908.049 C 767.631 908.059 764.85 908.44 761.167 906.668 C 755.412 899.921 762.925 880.007 770.326 876.482 C 774.293 874.593 786.91 875.505 791.834 875.682 L 791.573 840.186 L 704.147 839.927 C 707.641 863.702 709.566 882.856 711.349 906.638 C 684.486 908.298 640.824 906.796 612.543 906.873 L 401.007 907.111 C 402.398 888.938 404.58 870.835 407.549 852.852 C 411.847 825.943 422.251 758.075 435.162 737.596 C 441.719 727.196 449.575 721.378 460.561 716.175 C 478.333 707.758 498.353 705.375 514.53 693.657 C 516.306 689.517 519.502 678.072 521.115 672.949 C 505.099 656.486 501.794 648.162 494.856 626.856 C 478.238 613.504 475.156 598.917 485.367 579.484 C 482.792 562.169 482.962 541.049 489.171 525.018 C 509.275 473.11 569.265 496.324 610.161 495.128 C 619.648 494.851 626.895 491.885 635.426 488.129 z"/>
<path transform="translate(0,0)" fill="rgb(254,254,254)" d="M 694.841 638.389 C 722.819 637.621 751.156 638.684 779.177 638.717 C 799.79 638.741 952.229 636.9 961.274 640.475 C 963.404 641.317 966.84 642.928 967.72 645.226 C 969.467 649.793 970.159 655.324 970.479 660.171 C 972.142 685.386 970.813 711.623 970.866 736.937 C 970.917 761.615 972.421 787.311 970.648 811.889 C 970.305 816.65 969.834 821.757 967.804 826.134 C 960.118 833.354 941.461 831.214 930.5 831.047 C 906.287 831.013 882.075 831.099 857.863 831.306 L 857.994 805.083 C 835.782 804.792 813.567 804.708 791.352 804.834 L 791.127 831.129 C 776.598 831.292 694.103 833.487 686.543 828.958 C 684.277 827.601 682.129 823.297 681.491 820.789 C 678.65 809.618 680.259 776.77 680.2 763.333 C 680.044 727.631 678.595 691.298 680.23 655.651 C 680.38 652.378 680.306 647.551 682.188 644.75 C 685.243 640.205 689.84 639.33 694.841 638.389 z"/>
<path transform="translate(0,0)" fill="rgb(0,0,0)" d="M 819.722 696.147 C 835.317 694.255 849.49 705.368 851.374 720.964 C 853.258 736.559 842.137 750.727 826.541 752.603 C 810.956 754.477 796.8 743.367 794.918 727.783 C 793.036 712.199 804.139 698.037 819.722 696.147 z"/>
<path transform="translate(0,0)" fill="rgb(134,191,92)" d="M 816.163 705.748 C 826.137 701.908 837.344 706.821 841.277 716.759 C 845.211 726.697 840.403 737.949 830.502 741.976 C 820.47 746.056 809.035 741.17 805.048 731.099 C 801.062 721.029 806.055 709.64 816.163 705.748 z"/>
<path transform="translate(0,0)" fill="rgb(254,254,254)" d="M 499.111 712.216 C 502.326 713.452 526.015 756.516 531.55 763.897 C 538.413 752.772 550.184 740.561 558.017 728.551 C 564.98 738.455 579.795 755.136 583.479 765.41 C 594.615 749.347 606.903 729.091 617.123 712.231 C 640.446 718.774 650.813 723.919 671.7 735.82 C 672.797 756.96 667.555 815.699 677.18 831.337 C 681.404 838.2 687.828 839.531 695.095 841.334 C 698.123 860.522 701.226 879.097 702.397 898.534 C 684.433 898.714 666.468 898.749 648.504 898.639 C 649.344 872.315 648.818 845.862 649.254 819.517 C 649.361 813.058 649.666 805.732 648.78 799.371 C 646.167 797.707 642.914 797.153 640.544 799.347 C 639.572 808.014 640.288 835.472 640.355 845.5 L 640.627 898.918 L 473.067 898.998 L 473.379 832.392 C 473.423 825.467 474.914 799.426 471.466 795.296 C 467.515 795.373 468.005 794.739 465.373 796.632 C 462.953 805.885 464.623 883.713 464.618 899.03 L 409.742 899.077 C 411.505 868.079 426.63 772.196 440.087 746.58 C 452.099 723.716 476.383 719.099 499.111 712.216 z"/>
<path transform="translate(0,0)" fill="rgb(254,254,254)" d="M 514.447 548.053 C 548.931 553.964 572.103 562.299 608.202 554.98 C 609.66 570.785 609.004 597.178 616.189 609.568 C 613.981 633.425 610.15 647.747 592.838 665.11 C 572.03 682.484 549.838 685.846 527.904 667.291 C 509.285 651.541 504.501 633.403 502.594 609.966 C 511.945 592.328 509.581 567.809 514.447 548.053 z"/>
<path transform="translate(0,0)" fill="rgb(254,254,254)" d="M 540.592 499.393 C 571.984 495.924 589.108 509.281 631.8 500.355 C 631.461 503.259 631.071 506.158 630.63 509.049 C 623.081 557.911 578.952 550.751 541.662 544.726 C 530.984 542.445 520.294 540.055 509.512 538.352 C 503.674 553.07 502.399 577.964 500.952 594.353 C 495.247 584.172 493.336 578.039 492.3 566.342 C 488.983 528.908 501.047 502.978 540.592 499.393 z"/>
<path transform="translate(0,0)" fill="rgb(254,254,254)" d="M 799.835 812.987 C 816.241 813.084 833.445 812.886 849.754 814.027 C 849.286 834.075 849.562 854.802 849.399 874.953 C 846.407 877.272 806.227 875.766 799.825 875.665 C 800.156 854.774 800.16 833.879 799.835 812.987 z"/>
<path transform="translate(0,0)" fill="rgb(254,254,254)" d="M 771.179 884.108 C 791.31 883.565 813.329 884.347 833.604 884.236 C 843.491 884.182 869.114 883.823 877.816 885.429 C 882.288 888.981 883.171 895.015 880.746 900.048 C 867.759 899.925 772.885 900.446 769.165 898.133 C 767.704 893.407 769.481 888.568 771.179 884.108 z"/>
<path transform="translate(0,0)" fill="rgb(254,254,254)" d="M 527.755 677.914 C 553.636 692.076 564.595 692.982 590.186 678.4 C 590.334 683.585 591.2 690.005 591.763 695.259 C 589.299 697.721 586.082 700.302 583.393 702.59 C 575.808 708.683 567.439 713.886 559.277 719.194 C 543.906 710.274 537.844 706.327 524.529 694.732 C 526.119 689.304 526.872 683.516 527.755 677.914 z"/>
<path transform="translate(0,0)" fill="rgb(254,254,254)" d="M 515.482 704.59 C 522.172 704.935 541.904 719.466 548.866 724.148 C 544.782 730.415 540.91 735.516 536.398 741.449 L 531.432 747.765 C 527.499 740.359 511.817 715.688 510.189 709.742 C 511.608 706.503 512.269 706.803 515.482 704.59 z"/>
<path transform="translate(0,0)" fill="rgb(254,254,254)" d="M 599.047 704.787 C 601.769 704.717 602.044 704.924 604.67 705.848 C 605.978 707.861 606.535 707.937 605.986 710.539 C 604.613 717.047 587.441 743.382 583.449 746.47 L 581.868 745.487 L 567.717 725.039 C 576.236 719.04 590.237 709.658 599.047 704.787 z"/>
<path transform="translate(0,0)" fill="rgb(254,254,254)" d="M 620.353 544.33 C 623.39 544.79 622.089 544.177 624.38 546.262 C 627.809 558.309 625.873 576.447 621.312 587.974 L 619.67 587.063 C 617.889 579.991 616.975 561.071 616.152 553.055 C 615.73 548.95 617.582 547.166 620.353 544.33 z"/>
<path transform="translate(0,0)" fill="rgb(254,254,254)" d="M 488.443 592.232 C 494.7 595.815 496.059 607.1 494.57 613.645 C 486.882 610.158 487.912 599.187 488.443 592.232 z"/>
<path transform="translate(0,0)" fill="rgb(254,254,254)" d="M 628.415 592.388 L 629.903 593.219 C 632.131 597.804 630.875 610.329 627.536 614.22 C 626.734 613.551 626.281 612.7 625.647 611.789 C 624.878 603.838 625.804 599.921 628.415 592.388 z"/>
<path transform="translate(0,0)" fill="rgb(0,0,0)" d="M 811.144 375.202 C 871.185 367.959 914.604 434.376 881.116 485.076 C 876.923 491.423 863.803 507.944 862.259 514.337 C 858.149 531.348 856.971 552.637 855.588 570.319 L 845.32 574.271 C 840.3 581.224 838.016 585.283 830.961 590.163 C 813.86 594.191 802.821 588.777 794.302 573.975 L 785.049 569.154 C 784.11 559.032 784.398 534.678 781.671 526.481 C 773.915 503.165 754.998 486.31 749.933 460.466 C 746.353 441.634 750.364 422.151 761.092 406.264 C 773.14 388.626 790.5 379.12 811.144 375.202 z"/>
<path transform="translate(0,0)" fill="rgb(134,191,92)" d="M 812.417 383.239 C 866.77 378.71 903.543 435.355 873.212 481.426 C 861.72 498.882 855.332 505.185 851.625 525.761 C 846.743 525.901 841.42 525.809 836.497 525.826 C 836.078 511.247 836.662 497.827 837.627 483.303 C 839.637 480.358 843.001 476.679 844.653 473.818 C 850.257 464.113 854.756 446.033 846.983 436.465 C 842.791 431.304 836.257 431.981 830.322 431.983 C 821.538 432.216 798.961 430.048 794.042 436.209 C 781.393 452.05 801.989 476.711 805.002 489.581 C 806.615 496.472 806.601 519.101 806.739 525.75 C 801.911 525.772 797.25 525.237 792.448 524.781 C 783.505 503.507 762.79 480.942 758.611 458.53 C 755.39 441.729 759.027 424.337 768.71 410.234 C 779.646 394.503 793.891 386.546 812.417 383.239 z"/>
<path transform="translate(0,0)" fill="rgb(134,191,92)" d="M 799.332 442.934 C 812.141 442.245 827.256 442.653 840.239 442.699 C 841.594 452.525 840.868 457.759 839.336 467.269 C 824.519 477.132 827.833 499.787 827.823 515.917 C 827.957 519.276 828.467 521.874 826.959 524.762 C 823.865 526.743 819.544 525.808 815.57 525.523 C 815.323 515.423 815.198 493.184 812.732 484.716 C 806.436 463.097 797.282 468.509 799.332 442.934 z"/>
<path transform="translate(0,0)" fill="rgb(254,254,254)" d="M 791.127 535.104 C 801.989 534.802 839.445 534.001 848.223 536.504 C 849.903 539.47 849.123 539.817 848.493 543.808 C 841.489 544.844 799.97 545.306 793.609 543.663 C 791.075 540.396 791.726 539.688 791.127 535.104 z"/>
<path transform="translate(0,0)" fill="rgb(254,254,254)" d="M 793.437 552.829 C 802.608 552.819 839.58 552.155 846.864 554.082 C 848.079 556.14 847.383 558.133 847.141 560.953 C 840.791 561.906 801.768 562.177 795.859 561.084 C 793.392 557.991 793.993 557.163 793.437 552.829 z"/>
<path transform="translate(0,0)" fill="rgb(254,254,254)" d="M 805.451 571.305 C 811.945 570.965 831.334 568.333 835.101 573.595 C 834.403 576.96 832.803 577.925 830.256 580.327 C 822.319 584.724 802.592 582.433 803.139 572.746 L 805.451 571.305 z"/>
<path transform="translate(0,0)" fill="rgb(0,0,0)" d="M 698.859 443.931 C 708.689 443.819 723.394 441.769 731.862 445.035 C 734.256 448.047 733.523 447.997 733.687 452.388 C 724.803 453.264 707.151 455.052 699.741 451.152 C 697.658 448.161 698.415 448.281 698.859 443.931 z"/>
<path transform="translate(0,0)" fill="rgb(0,0,0)" d="M 881.669 507.193 C 890.176 508.764 904.131 523.188 908.529 530.545 C 909.682 532.473 908.335 534.571 907.627 536.534 C 899.473 536.304 887.333 521.253 881.77 515.106 C 879.605 512.713 880.967 509.934 881.669 507.193 z"/>
<path transform="translate(0,0)" fill="rgb(0,0,0)" d="M 753.5 507.61 C 756.935 507.997 757.78 508.343 759.465 511.117 C 758.683 517.061 741.806 530.626 736.666 535.281 C 735.319 535.591 734.795 535.351 733.316 535.192 C 731.651 533.417 732.186 533.763 731.868 530.721 C 734.566 523.844 747.73 512.847 753.5 507.61 z"/>
<path transform="translate(0,0)" fill="rgb(0,0,0)" d="M 902.523 361.507 C 905.921 362.731 906.516 363.649 906.997 366.903 C 904.884 373.958 892.417 383.957 886.517 389.31 C 883.989 386.996 882.835 386.421 882.037 383.278 C 883.593 376.931 896.552 367.253 902.523 361.507 z"/>
<path transform="translate(0,0)" fill="rgb(0,0,0)" d="M 906.948 445.133 C 915.613 444.992 933.147 443.092 940.131 446.434 C 942.337 449.329 941.65 448.359 941.495 452.956 C 934.394 453.674 910.78 455.443 906.319 449.534 L 906.948 445.133 z"/>
<path transform="translate(0,0)" fill="rgb(0,0,0)" d="M 816.12 328.097 C 819.182 327.878 821.285 327.398 824.046 328.641 C 825.584 334.923 824.679 353.994 824.46 360.975 C 820.932 360.99 819.851 361.569 817.12 359.95 C 815.87 352.63 816.105 336.132 816.12 328.097 z"/>
<path transform="translate(0,0)" fill="rgb(0,0,0)" d="M 736.945 359.339 C 742.985 362.041 756.55 376.759 759.831 382.892 C 760.453 384.055 758.965 385.907 758.333 387.049 C 749.769 385.278 737.383 373.281 734.37 364.951 C 733.749 363.232 735.984 360.777 736.945 359.339 z"/>
</svg>