<svg version="1.1" xmlns="http://www.w3.org/2000/svg" style="display: block;" viewBox="0 0 1325 2048" width="352" height="544" preserveAspectRatio="none">
<defs>
	<linearGradient id="Gradient1" gradientUnits="userSpaceOnUse" x1="916.916" y1="633.603" x2="858.811" y2="787.974">
		<stop class="stop0" offset="0" stop-opacity="1" stop-color="rgb(0,0,0)"/>
		<stop class="stop1" offset="1" stop-opacity="1" stop-color="rgb(2,17,34)"/>
	</linearGradient>
	<linearGradient id="Gradient2" gradientUnits="userSpaceOnUse" x1="275.242" y1="1546.22" x2="293.548" y2="1448.41">
		<stop class="stop0" offset="0" stop-opacity="1" stop-color="rgb(0,0,0)"/>
		<stop class="stop1" offset="1" stop-opacity="1" stop-color="rgb(36,36,36)"/>
	</linearGradient>
	<linearGradient id="Gradient3" gradientUnits="userSpaceOnUse" x1="1011.31" y1="1487.35" x2="1084.99" y2="1499.88">
		<stop class="stop0" offset="0" stop-opacity="1" stop-color="rgb(0,0,0)"/>
		<stop class="stop1" offset="1" stop-opacity="1" stop-color="rgb(44,43,43)"/>
	</linearGradient>
	<linearGradient id="Gradient4" gradientUnits="userSpaceOnUse" x1="601.446" y1="1482.43" x2="680.506" y2="1503.75">
		<stop class="stop0" offset="0" stop-opacity="1" stop-color="rgb(0,0,0)"/>
		<stop class="stop1" offset="1" stop-opacity="1" stop-color="rgb(37,36,37)"/>
	</linearGradient>
	<linearGradient id="Gradient5" gradientUnits="userSpaceOnUse" x1="989.784" y1="1399.61" x2="1005.58" y2="1304.25">
		<stop class="stop0" offset="0" stop-opacity="1" stop-color="rgb(0,0,0)"/>
		<stop class="stop1" offset="1" stop-opacity="1" stop-color="rgb(35,34,34)"/>
	</linearGradient>
	<linearGradient id="Gradient6" gradientUnits="userSpaceOnUse" x1="991.245" y1="1531.01" x2="942.799" y2="1455.24">
		<stop class="stop0" offset="0" stop-opacity="1" stop-color="rgb(0,0,0)"/>
		<stop class="stop1" offset="1" stop-opacity="1" stop-color="rgb(42,41,41)"/>
	</linearGradient>
</defs>
<path transform="translate(0,0)" fill="rgb(254,254,254)" d="M 198.611 67.4601 L 862.829 67.7563 L 1064.7 67.6511 L 1123.46 67.6978 C 1135.53 67.7196 1151.93 67.3788 1163.65 68.9377 C 1186.93 72.2294 1208.72 82.3504 1226.25 98.0211 C 1249.9 119.295 1264.3 154.238 1264.77 185.51 C 1265.31 221.312 1264.86 258.201 1264.87 294.102 L 1264.9 511.493 L 1264.91 1173.69 L 1264.9 1630.74 L 1264.95 1771.63 C 1264.96 1795.05 1265.61 1821.6 1264.42 1844.64 C 1263.2 1868.02 1251.59 1892.07 1235.65 1909.11 C 1208.14 1938.53 1183.78 1948.06 1144.25 1949.94 C 926.709 1952.56 707.18 1950.21 489.492 1950.23 L 288.997 1950.01 C 251.966 1950.05 210.965 1951.92 174.513 1947.87 C 150.581 1945.21 129.251 1933.09 112.11 1916.78 C 82.0721 1888.2 72.5959 1860.38 72.2176 1819.3 C 71.9835 1793.88 72.2366 1768.14 72.2394 1742.66 L 72.4245 1570.79 L 72.8616 885.578 C 71.6514 724.23 71.6759 562.875 72.9349 401.528 C 73.0121 357.52 72.8657 313.513 72.4955 269.507 C 72.2753 236.161 71.0488 202.279 74.8498 169.127 C 80.1118 123.232 114.629 83.7237 159.465 72.3758 C 174.817 68.4903 182.893 67.8796 198.611 67.4601 z"/>
<path transform="translate(0,0)" fill="rgb(41,150,207)" d="M 216.487 129.343 C 231.384 128.206 254.609 128.962 270.186 128.949 L 371.883 128.86 L 691.631 128.941 L 980.723 128.94 L 1067.76 128.908 C 1099.47 128.884 1135.12 125.084 1162 144 C 1181.01 157.377 1200.56 182.172 1203.6 205.462 C 1205.68 221.474 1204.79 242.231 1204.78 258.573 L 1204.72 352.848 L 1204.62 705.427 L 1203.77 1403.5 L 1204.21 1660.11 L 1204.02 1748.22 C 1203.84 1787.03 1208.31 1829.03 1180.4 1860.26 C 1164.09 1878.51 1143.45 1885.92 1120.19 1889.88 C 1099.6 1891.16 1076.69 1890.52 1055.83 1890.37 C 1022.4 1890.02 988.965 1889.91 955.533 1890.03 C 824.52 1890.95 693.503 1891.13 562.488 1890.57 L 331.76 1890.76 L 261.205 1890.94 C 226.372 1891.02 197.773 1893.87 168.44 1870.59 C 126.411 1837.23 134.415 1780.17 134.295 1731.93 L 134.623 1575.72 L 134.382 1083.18 L 134.503 467.49 C 134.822 418.45 134.815 369.409 134.481 320.369 C 134.218 285.278 133.978 249.288 134.969 214.232 C 135.447 197.36 143.751 175.356 154.718 162.297 C 171.364 142.475 190.962 132.137 216.487 129.343 z"/>
<path transform="translate(0,0)" fill="rgb(254,254,254)" d="M 604.286 1098.49 C 707.695 1097.47 812.273 1099.12 915.918 1098.84 L 1017.73 1098.51 C 1055.24 1098.38 1095.47 1092.78 1124.72 1121.34 C 1156.08 1151.97 1148.8 1192.83 1148.39 1233.48 C 1148.07 1265.94 1147.96 1298.4 1148.06 1330.85 L 1148.26 1736.61 C 1148.55 1766.87 1147.38 1786.41 1124.93 1809.57 C 1100.71 1834.57 1077.08 1832.15 1045.76 1831.97 L 983.609 1831.71 L 739.25 1831.96 L 391.667 1831.83 L 306.49 1832.15 C 289.521 1832.25 269.946 1833.03 253.337 1830.9 C 239.3 1829.1 224.314 1819.86 214.366 1810.05 C 195.94 1791.89 190.007 1773.43 189.943 1748.48 C 189.83 1704.2 189.901 1659.97 189.927 1615.75 L 189.934 1354.56 C 189.98 1313.38 189.735 1272.2 189.198 1231.02 C 188.943 1192.98 182.515 1152.08 211.545 1123.11 C 237.946 1096.76 265.7 1098.83 299.282 1098.88 L 356.267 1098.92 L 604.286 1098.49 z"/>
<path transform="translate(0,0)" fill="rgb(254,204,1)" d="M 409.895 1611.49 L 478.013 1611.44 C 496.05 1611.44 534.7 1606.33 535.522 1632.46 C 536.778 1672.38 536.567 1713.58 535.722 1753.58 C 535.146 1780.8 515.183 1779.37 494.335 1779.34 L 426.824 1779.41 C 404.751 1779.43 369.012 1785.34 368.083 1755.12 C 367.425 1733.73 367.08 1712.48 367.366 1691.06 C 367.606 1673.07 366.806 1654.91 368.056 1636.97 C 369.894 1609.37 388.578 1611.49 409.895 1611.49 z"/>
<path transform="translate(0,0)" fill="rgb(254,254,254)" d="M 450.924 1737.69 C 440.245 1735.87 446.476 1745.14 441.343 1749.76 L 438.445 1749.21 C 436.187 1746.7 436.535 1743.08 436.311 1739.43 C 433.733 1736.2 426.122 1737.47 425.911 1733.89 C 425.157 1721.08 422.392 1665.47 426.257 1656.55 C 428.484 1654.62 429.936 1654.62 432.898 1654.31 C 439.115 1653.65 434.358 1648 438.341 1642.67 C 441.345 1641.99 440.008 1641.75 442.521 1643.14 L 444.956 1652.08 C 447.657 1654.68 446.668 1653.87 451.494 1654.1 C 451.513 1649.96 451.045 1647.13 453.295 1643.78 L 455.63 1642.23 C 458.738 1643.15 457.643 1642.56 459.825 1645.85 C 460.181 1649.22 460.234 1650.53 460.035 1653.9 C 467.534 1655.55 473.815 1657.73 478.206 1664.61 C 480.707 1668.48 481.523 1673.2 480.465 1677.69 C 478.893 1684.49 474.722 1688.65 468.865 1692.01 C 468.321 1692.32 467.774 1692.62 467.224 1692.92 C 480.592 1698 489.463 1706.81 483.082 1722.6 C 479.21 1732.18 469.531 1735.51 460.169 1737.94 C 460.147 1743.06 461.142 1746.61 456.412 1749.41 L 454.024 1748.21 C 451.413 1745.34 451.403 1741.57 450.924 1737.69 z"/>
<path transform="translate(0,0)" fill="rgb(254,249,230)" d="M 451.494 1654.1 C 451.513 1649.96 451.045 1647.13 453.295 1643.78 L 455.63 1642.23 C 458.738 1643.15 457.643 1642.56 459.825 1645.85 C 460.181 1649.22 460.234 1650.53 460.035 1653.9 C 456.43 1653.49 455.046 1653.72 451.494 1654.1 z"/>
<path transform="translate(0,0)" fill="rgb(254,249,230)" d="M 450.924 1737.69 L 460.169 1737.94 C 460.147 1743.06 461.142 1746.61 456.412 1749.41 L 454.024 1748.21 C 451.413 1745.34 451.403 1741.57 450.924 1737.69 z"/>
<path transform="translate(0,0)" fill="rgb(254,204,1)" d="M 436.862 1699.13 C 447.748 1699.11 461.072 1698.14 470.152 1705.31 C 476.577 1710.38 472.457 1719.54 467.687 1724.2 C 458.141 1728.6 447.105 1727.8 436.751 1727.72 L 436.862 1699.13 z"/>
<path transform="translate(0,0)" fill="rgb(254,204,1)" d="M 437.373 1663.4 C 446.791 1663.55 457.603 1662.9 465.657 1668.61 C 471.865 1673.01 468.539 1681.06 464.392 1685.57 C 455.242 1690.35 447.286 1689.17 436.748 1689.18 C 436.734 1682.99 436.384 1668.82 437.373 1663.4 z"/>
<path transform="translate(0,0)" fill="rgb(6,6,6)" d="M 815.287 1625.35 C 880.252 1619.24 873.931 1739.95 804.227 1752.5 C 735.06 1757.8 751.881 1647.87 798.944 1629.8 C 805.281 1627.37 808.56 1626.58 815.287 1625.35 z"/>
<path transform="translate(0,0)" fill="rgb(254,254,254)" d="M 809.915 1653.06 C 841.577 1649.51 831.55 1710.78 808.226 1724.94 C 778.827 1732.11 784.847 1668.19 809.915 1653.06 z"/>
<path transform="translate(0,0)" fill="rgb(6,6,6)" d="M 686.705 1629.9 C 707.282 1629.71 727.86 1629.65 748.437 1629.71 L 744.738 1655.67 C 731.164 1655.93 717.001 1655.77 703.377 1655.78 L 699.877 1669.11 C 711.453 1668.6 722.174 1668.02 731.946 1675.4 C 749.692 1688.82 747.767 1716.52 734.756 1732.5 C 723.643 1746.14 712.128 1750.71 695.268 1752.65 C 677.372 1753.85 666.568 1750.05 650.967 1742.57 C 654.093 1732.98 657.025 1723.34 659.762 1713.63 C 670.226 1721.88 681.107 1728.12 694.957 1726.04 C 704.878 1724.55 715.409 1713.74 712.117 1703.33 C 705.901 1683.69 681.105 1689.55 666.626 1693.66 C 673.145 1674.55 681.373 1649.2 686.705 1629.9 z"/>
<path transform="translate(0,0)" fill="rgb(6,6,6)" d="M 814.931 1387.16 C 789.788 1410.89 763.022 1405.06 751.499 1371.9 C 745.336 1354.17 747.593 1336.31 755.152 1319.48 C 764.222 1299.27 787.462 1291.61 805.078 1305.96 C 808.977 1309.1 811.209 1313.01 816.18 1315.29 C 817.186 1309.45 817.557 1306.78 817.667 1300.89 C 836.808 1301.87 856.568 1300.56 875.955 1301.24 C 876.798 1307.85 877.733 1314.42 878.079 1321.07 L 858.661 1321.77 C 858.32 1341.54 857.833 1361.3 857.197 1381.05 C 856.952 1386.79 856.81 1392.99 856.259 1398.67 C 850.059 1398.65 843.666 1398.72 837.486 1398.52 C 837.193 1393.97 836.642 1388.06 836.645 1383.6 C 836.093 1362.69 835.794 1341.77 835.748 1320.85 C 829.661 1320.76 822.583 1320.88 816.643 1319.98 C 811.948 1319.77 809.783 1319.17 806.071 1321.68 C 804.363 1325.42 803.716 1327.73 800.212 1330.01 C 796.67 1325.43 792.003 1318.32 785.627 1319.5 C 769.16 1322.55 768.632 1349.07 770.939 1361.53 C 772.965 1372.47 777.222 1382.09 789.934 1379.65 C 793.139 1377.77 794.661 1374.31 796.518 1371.05 L 797.801 1371.09 C 803.108 1373.94 810.389 1381.5 814.164 1386.2 L 814.931 1387.16 z"/>
<path transform="translate(0,0)" fill="rgb(35,37,38)" d="M 836.645 1383.6 C 837.508 1384.55 838.083 1384.89 839.1 1385.67 C 846.729 1387.09 848.041 1387.4 855.433 1384.87 L 857.197 1381.05 C 856.952 1386.79 856.81 1392.99 856.259 1398.67 C 850.059 1398.65 843.666 1398.72 837.486 1398.52 C 837.193 1393.97 836.642 1388.06 836.645 1383.6 z"/>
<path transform="translate(0,0)" fill="rgb(6,6,6)" d="M 302.274 1299.84 C 319.249 1299.71 339.757 1298.12 354.07 1308.41 C 376.735 1324.71 373.379 1368.78 358.758 1389.04 C 343.925 1403.03 323.258 1400.27 303.238 1399.88 C 302.005 1369.43 301.814 1330.26 302.274 1299.84 z"/>
<path transform="translate(0,0)" fill="rgb(254,254,254)" d="M 325.105 1321.07 C 329.264 1321.01 334.889 1320.89 338.383 1323.21 C 353.93 1333.56 350.067 1362.47 341.933 1376.07 C 338.297 1379.39 329.449 1381.99 325.603 1377.68 C 323.589 1369.05 324.158 1331.01 325.105 1321.07 z"/>
<path transform="translate(0,0)" fill="url(#Gradient6)" d="M 965.326 1443.33 C 1015.8 1446.12 1018.42 1532.6 971.014 1544.61 C 922.973 1547.15 914.013 1450.74 965.326 1443.33 z"/>
<path transform="translate(0,0)" fill="rgb(254,254,254)" d="M 967.304 1463.91 C 988.297 1469.67 987.29 1516.16 968.387 1523.35 C 948.71 1517.04 950.593 1496.23 954.904 1479.34 C 956.739 1472.15 960.697 1467.28 967.304 1463.91 z"/>
<path transform="translate(0,0)" fill="rgb(6,6,6)" d="M 912.148 1299.3 C 932.018 1299.26 946.4 1307.86 950.744 1327.89 C 956.664 1355.19 956.521 1392.3 924.136 1400.84 C 904.432 1401.73 890.285 1392.34 885.647 1372.94 C 879.433 1346.94 880.939 1307.21 912.148 1299.3 z"/>
<path transform="translate(0,0)" fill="rgb(254,254,254)" d="M 915.245 1320.81 C 937.241 1318.78 937.593 1366.58 919.679 1379.91 C 897.793 1383.13 901.717 1339.49 907.813 1327.91 C 909.823 1324.1 911.766 1322.88 915.245 1320.81 z"/>
<path transform="translate(0,0)" fill="url(#Gradient5)" d="M 966.198 1300.82 C 988.198 1300.78 1021.68 1296.84 1027.83 1325.02 C 1029.83 1334.22 1028.8 1343.91 1022.55 1351.25 C 1020.06 1354.17 1016.35 1356.9 1014.32 1360.02 C 1016.63 1370.71 1027.24 1389.13 1032.7 1399.5 L 1010.63 1400.23 L 1006.47 1399.91 C 1004.99 1398.88 995.622 1369.73 989.855 1361.51 C 987.766 1372.27 987.479 1387.43 986.988 1398.72 L 965.15 1399.47 C 964.415 1366.58 964.764 1333.68 966.198 1300.82 z"/>
<path transform="translate(0,0)" fill="rgb(254,254,254)" d="M 990.93 1321.4 L 991.585 1321.38 C 993.385 1321.36 998.757 1321.13 1000.16 1321.63 C 1010.02 1325.09 1008.6 1340.03 1000.78 1344.72 C 996.258 1345.22 991.548 1345.53 987 1345.89 C 986.585 1341.02 984.655 1327.12 986.982 1322.72 C 987.547 1321.65 989.382 1321.68 990.93 1321.4 z"/>
<path transform="translate(0,0)" fill="url(#Gradient4)" d="M 609.531 1444.47 C 615.353 1444.66 623.68 1444.3 629.675 1444.21 C 631.161 1448.7 633.873 1453.9 636.072 1458.18 C 643.103 1471.84 648.57 1485.67 654.037 1500.01 C 652.543 1484.25 652.823 1461.17 652.591 1444.82 C 660.909 1444.34 666.727 1444.47 675.035 1444.78 C 675.163 1466.08 673.127 1487.54 673.871 1508.9 C 674.24 1519.48 674.579 1530.17 674.543 1540.75 C 669.65 1543.93 660.526 1542.92 654.551 1542.72 C 645.209 1524.76 638.486 1507.64 630.136 1489.27 C 630.033 1507.44 630.059 1525.61 630.215 1543.78 C 624.423 1544.26 616.89 1544.08 610.959 1544.12 C 610.575 1525.45 610.058 1506.79 609.408 1488.13 C 609.006 1476.43 608.112 1455.5 609.531 1444.47 z"/>
<path transform="translate(0,0)" fill="url(#Gradient3)" d="M 1034.03 1444.51 C 1035.88 1444.26 1034.94 1444.25 1036.89 1445.1 C 1040.56 1455.28 1054.36 1486.41 1059.23 1496.73 C 1058.86 1479.98 1058.18 1462.47 1058.76 1445.79 L 1079.98 1446.01 C 1080.08 1478.97 1079.87 1510.76 1081.24 1543.73 C 1074.47 1544.07 1067.08 1543.92 1060.26 1543.92 C 1060.12 1543.71 1056.33 1534.49 1055.7 1533.12 C 1048.98 1518.8 1042.5 1504.38 1036.25 1489.85 L 1036.12 1542.73 C 1029.29 1542.63 1022.47 1542.43 1015.65 1542.13 C 1015.8 1511.59 1014.47 1474.94 1016.24 1445 L 1034.03 1444.51 z"/>
<path transform="translate(0,0)" fill="rgb(6,6,6)" d="M 465.381 1445.24 C 472.424 1445.08 479.808 1445.31 486.879 1445.42 L 486.188 1483.16 L 507.969 1483.13 C 508.003 1471.29 507.714 1457.63 508.882 1446 C 515.789 1445.88 522.911 1446.06 529.834 1446.14 C 530.267 1459.25 532.46 1538.69 529.005 1543.11 L 508.566 1543.64 C 508.823 1530.82 508.896 1517.99 508.785 1505.16 C 500.259 1503.82 494.838 1504.14 486.425 1504.6 C 485.725 1517.13 485.713 1530.1 485.541 1542.68 C 478.78 1542.87 471.607 1542.75 464.811 1542.75 C 463.135 1511.54 464.354 1476.51 465.381 1445.24 z"/>
<path transform="translate(0,0)" fill="rgb(6,6,6)" d="M 320.973 1445.37 C 343.128 1444.13 343.589 1441.68 343.926 1465.61 C 344.048 1474.31 336.508 1542.24 361.642 1521.81 C 365.644 1514.44 364.155 1499.94 364.096 1491.05 C 363.956 1475.69 363.972 1460.33 364.144 1444.97 L 385.859 1445.24 L 385.935 1463.75 C 385.962 1478.02 389.475 1524.77 376.609 1535.59 C 353.122 1555.34 321.74 1542.78 321.286 1509.37 C 321.02 1489.81 320.783 1466.51 320.973 1445.37 z"/>
<path transform="translate(0,0)" fill="rgb(6,6,6)" d="M 385.958 1300.35 L 401.901 1300.1 C 402.414 1312.51 400.978 1370.87 405.279 1376.88 C 406.842 1379.07 409.94 1380.09 412.507 1380.18 C 415.154 1380.27 417.335 1379.22 419.173 1377.34 C 427.566 1368.76 425.231 1314.78 425.427 1300.78 L 445.998 1301.01 C 446.589 1309.9 446.464 1317.59 446.341 1326.5 C 445.915 1340.66 447.91 1372.83 443.248 1383.58 C 430.885 1412.07 380.484 1405.23 381.201 1370.22 C 381.377 1361.59 380.971 1353.12 381.405 1344.66 C 382.134 1330.41 379.558 1315.93 381.733 1301.89 C 381.873 1300.93 385.096 1300.55 385.958 1300.35 z"/>
<path transform="translate(0,0)" fill="rgb(6,6,6)" d="M 476.631 1300.18 C 483.95 1300.24 490.635 1300.59 497.928 1301.01 C 505.618 1322.78 510.118 1345.24 517.534 1367.08 C 521.026 1377.37 524.326 1387.69 526.839 1398.26 C 519.224 1398.15 511.092 1398.74 503.448 1399.14 C 503.22 1394.47 503.186 1387.1 499.985 1383.64 C 491.092 1383.38 483.951 1383.52 475.05 1383.91 C 473.809 1389.71 473.078 1394.2 472.312 1400.09 C 464.955 1400.04 457.6 1399.85 450.251 1399.53 C 455.688 1372.22 464.637 1345.78 471.937 1318.94 C 473.631 1312.71 475.552 1306.56 476.631 1300.18 z"/>
<path transform="translate(0,0)" fill="rgb(254,254,254)" d="M 487.267 1331.72 C 489.585 1333.82 495.273 1362.14 493.889 1365.09 L 492.011 1365.69 C 488.167 1365.82 486.602 1365.99 482.748 1365.1 C 481.025 1361.22 486.171 1337.55 487.267 1331.72 z"/>
<path transform="translate(0,0)" fill="url(#Gradient2)" d="M 267.842 1444.8 C 276.892 1444.61 288.33 1441.8 291.296 1451.53 C 300.074 1480.35 306.106 1515.27 316.939 1543.19 C 309.112 1543.33 300.872 1543.82 293.012 1544.18 C 292.697 1538.7 292.827 1529.29 287.759 1526.71 C 280.724 1526.08 273.665 1526.3 266.6 1526.37 C 264.649 1532.43 263.399 1536.28 262.263 1542.64 C 254.037 1542.71 245.815 1542.99 237.605 1543.5 C 247.931 1521.39 260.163 1470.49 267.842 1444.8 z"/>
<path transform="translate(0,0)" fill="rgb(254,254,254)" d="M 278.281 1477.75 L 279.199 1478.65 C 280.66 1484.42 285.587 1503.73 284.032 1508.41 L 281.233 1509.42 C 277.486 1509.35 275.981 1509.36 272.201 1508.55 C 271.143 1503.8 276.774 1483.74 278.281 1477.75 z"/>
<path transform="translate(0,0)" fill="rgb(6,6,6)" d="M 698.614 1300.15 C 706.632 1300.16 711.535 1300.59 719.447 1301.46 C 728.828 1333.97 737.719 1366.62 746.119 1399.4 C 739.279 1400.08 732.101 1400.12 725.208 1400.29 C 724.268 1392.46 723.112 1387.87 717.791 1382.09 C 709.26 1381.85 704.474 1382.35 696.028 1383.24 C 694.457 1389.97 694.06 1393.41 693.478 1400.33 C 686.414 1400.54 678.969 1400.49 671.87 1400.56 C 675.761 1381.45 681.157 1362.09 686.224 1343.21 C 689.862 1329.66 693.741 1312.98 698.614 1300.15 z"/>
<path transform="translate(0,0)" fill="rgb(254,254,254)" d="M 707.339 1333.8 C 710.255 1337.87 716.973 1360.87 714.612 1365.42 L 711.165 1366 C 707.049 1366.04 705.105 1366.19 701.015 1365.18 C 699.202 1361.16 705.779 1339.42 707.339 1333.8 z"/>
<path transform="translate(0,0)" fill="rgb(6,6,6)" d="M 780.824 1444.85 L 802.234 1444.99 C 803.513 1457.59 824.145 1530.54 829.615 1543.29 C 821.546 1543.39 814.766 1543.89 806.731 1544.56 C 805.905 1537.34 805.098 1533.97 803.296 1527.05 C 795.019 1527 786.742 1527.25 778.482 1527.78 C 777.217 1533.05 776.387 1539.07 775.515 1544.47 C 769.216 1545.03 761.26 1544.74 754.815 1544.68 C 755.957 1529.45 760.887 1515.12 764.965 1500.37 C 769.989 1481.79 775.276 1463.28 780.824 1444.85 z"/>
<path transform="translate(0,0)" fill="rgb(254,254,254)" d="M 790.403 1479.53 C 793.651 1482.14 798.447 1504.71 798.14 1509.17 L 796.184 1510.17 C 792.878 1510.24 790.105 1510.69 787.256 1509.21 C 783.413 1503.74 789.14 1489.1 790.403 1479.53 z"/>
<path transform="translate(0,0)" fill="rgb(6,6,6)" d="M 554.704 1445.49 C 568.89 1445.24 583.078 1445.14 597.266 1445.2 C 597.418 1451.31 597.152 1457.76 597.003 1463.89 C 587.001 1464.84 576.685 1464.97 566.621 1465.23 C 566.406 1471.69 566.507 1478.6 566.483 1485.09 C 574.832 1483.92 585.082 1483.91 593.653 1483.68 C 593.639 1490.14 593.215 1497.26 592.969 1503.77 C 584.57 1504.08 575.117 1503.92 566.632 1503.94 C 566.584 1510.7 566.372 1516.48 567.392 1523.21 C 577.168 1523.06 586.947 1523.02 596.724 1523.11 C 597.084 1529.54 596.99 1536.69 597.046 1543.18 C 579.991 1543.93 562.185 1543.77 545.079 1543.82 C 545.133 1524.42 545.338 1505.02 545.695 1485.62 C 545.84 1474.98 545.57 1456.65 547.364 1446.89 C 549.205 1445.29 552.119 1445.59 554.704 1445.49 z"/>
<path transform="translate(0,0)" fill="rgb(6,6,6)" d="M 719.192 1443.34 C 720.996 1443.28 722.802 1443.33 724.6 1443.48 C 737.586 1444.46 745.037 1452.81 752.914 1461.97 C 747.737 1465.38 741.033 1470.81 735.968 1474.66 C 712.682 1448.88 707.189 1481.51 708.692 1500.33 C 710.223 1519.53 719.996 1533.38 737.635 1515.29 C 741.718 1517.11 743.824 1518.33 747.648 1520.64 C 758.369 1533.35 746.854 1540.01 734.74 1543.65 C 716.494 1549.14 699.096 1538.33 692.031 1521.39 C 686.089 1507.14 686.314 1492.1 689.414 1477.12 C 692.693 1460.54 702.092 1447.12 719.192 1443.34 z"/>
<path transform="translate(0,0)" fill="rgb(6,6,6)" d="M 623.109 1300.24 C 640.036 1300.17 656.964 1300.35 673.886 1300.77 C 673.157 1306.55 673.018 1313.68 672.746 1319.59 L 644.745 1320.96 L 644.798 1340.82 C 652.954 1340.71 661.48 1340.88 669.668 1340.94 C 669.393 1346.92 670.891 1354.98 667.878 1359.45 C 663.801 1361.66 663.084 1360.81 657.75 1360.71 L 646.562 1360.93 C 645.754 1373.34 645.522 1386.69 645.082 1399.18 C 638.036 1399.57 631.138 1399.42 624.088 1399.34 C 624.068 1365.61 622.123 1334.04 623.109 1300.24 z"/>
<path transform="translate(0,0)" fill="rgb(6,6,6)" d="M 399.68 1445.54 C 414.648 1444.37 440.859 1444.47 455.082 1445.87 C 455.692 1451.91 455.519 1458.9 455.53 1465.04 L 436.092 1464.86 C 436.111 1487.32 436.006 1509.79 435.778 1532.25 L 435.272 1543.82 C 428.929 1543.99 421.737 1543.72 415.328 1543.62 C 414.162 1518.05 414.884 1490.29 414.807 1464.48 C 408.199 1464.09 401.021 1464.29 394.361 1464.33 C 394.295 1459.89 393.707 1450.63 395.928 1446.92 C 396.671 1445.67 397.894 1445.86 399.68 1445.54 z"/>
<path transform="translate(0,0)" fill="rgb(6,6,6)" d="M 830.432 1445.49 C 850.252 1445.04 870.077 1444.8 889.903 1444.76 L 889.343 1464.8 C 882.889 1464.9 876.197 1465.46 869.738 1465.89 C 869.648 1484.73 869.408 1503.57 869.017 1522.41 L 868.802 1542.51 C 862.66 1542.82 855.392 1542.59 849.16 1542.55 C 848.964 1516.14 847.893 1492.32 848.17 1465.22 L 830.15 1465.36 C 830.008 1458.19 830.054 1452.68 830.432 1445.49 z"/>
<path transform="translate(0,0)" fill="rgb(6,6,6)" d="M 533.197 1300.05 C 538.748 1300.7 548.216 1300.53 554.079 1300.6 C 554.286 1326.95 554.302 1353.31 554.125 1379.66 L 582.142 1380.43 C 582.413 1386.65 582.817 1392.83 581.635 1398.93 C 569.179 1400.62 546.232 1399.97 533.109 1399.92 C 532.765 1366.63 532.795 1333.33 533.197 1300.05 z"/>
<path transform="translate(0,0)" fill="rgb(6,6,6)" d="M 898.421 1443.91 L 919.3 1444.33 C 920.824 1469.84 919.764 1516.88 918.535 1542.8 L 898.995 1543.69 C 899.374 1510.78 898.44 1476.98 898.421 1443.91 z"/>
<path transform="translate(0,0)" fill="rgb(6,6,6)" d="M 481.68 449.352 C 485.784 448.876 490.255 448.911 494.404 448.946 C 520.993 449.178 546.356 460.163 564.716 479.397 C 598.739 514.403 594.417 559.753 593.781 605.152 C 620.572 607.783 630.516 619.632 632.491 645.288 C 637.749 641.107 643.852 636.761 649.47 633.067 C 681.656 611.901 712.878 589.33 744.87 567.9 C 747.415 535.657 738.115 497.287 763.46 473.047 C 780.213 457.025 799.799 460.006 821.359 460.033 L 885.891 460.482 C 907.114 460.62 928.337 460.628 949.56 460.506 C 962.923 460.363 976.674 459.806 990.138 460.126 C 1001.82 460.106 1023.23 473.484 1027.82 484.218 C 1034.69 500.298 1032.91 531.213 1032.96 548.92 L 1033.43 628.672 C 1034.14 717.369 1033.3 806.686 1032.63 895.433 C 1032.48 914.89 1027.69 925.285 1013.3 938.293 C 1001.96 946.596 994.91 948.365 980.898 948.44 C 920.307 948.868 859.913 949.039 799.3 949.335 C 770.498 949.475 748.428 929.965 746.782 900.657 C 745.496 877.767 745.752 854.577 745.036 831.588 C 727.789 822.472 703.991 803.447 687.449 792.434 C 668.179 779.605 649.44 768.189 631.885 753.15 C 630.692 770.974 634.428 799.971 623.257 813.321 C 617.721 819.937 608.478 823.668 599.926 824.104 C 557.148 826.283 512.993 825.386 470.099 825.385 L 414.671 825.24 C 399.425 825.156 380.408 827.801 368.831 817.267 C 360.04 809.268 358.16 805.632 357.684 793.67 C 356.276 758.247 356.938 722.829 356.801 687.389 C 357.619 669.232 355.597 650.04 357.498 632.014 C 359.665 611.472 377.387 606.802 394.208 606.139 C 393.238 565.009 389.701 518.568 416.742 484.87 C 432.691 464.732 456.12 451.917 481.68 449.352 z"/>
<path transform="translate(0,0)" fill="rgb(254,254,254)" d="M 939.197 469.535 C 948.509 469.202 957.824 468.952 967.14 468.784 C 981.947 468.553 999.92 468.147 1011.18 479.418 C 1028.16 496.426 1024.27 529.18 1024.14 551.979 L 1023.8 621.609 L 1024 873.464 C 1024.13 896.225 1026.05 919.387 1005.56 933.584 C 989.822 944.492 949.487 940.65 930.322 940.431 C 899.636 940.145 868.948 940.03 838.261 940.085 C 815.038 940.065 784.948 946.61 767.109 928.977 C 750.954 913.009 755.23 887.133 755.695 866.062 C 756.14 847.74 756.299 829.413 756.17 811.087 L 754.849 555.989 C 754.721 522.531 747.326 472.004 793.908 469.969 C 807.337 469.382 821.636 470.042 835.148 469.991 L 939.197 469.535 z"/>
<path transform="translate(0,0)" fill="rgb(6,6,6)" d="M 844.221 523.507 C 879.91 523.248 915.601 523.275 951.29 523.589 C 971.495 523.799 993.026 523.561 1013.08 525.046 C 1012.97 549.447 1014.61 576.216 1014.86 601.061 C 1015.26 652.627 1015.16 704.196 1014.54 755.76 C 1014.4 795.913 1014.96 837.641 1013.73 877.651 C 987.102 878.015 960.471 878.167 933.839 878.106 C 912.244 878.031 890.922 879.285 869.277 878.419 C 835.184 877.054 799.884 878.735 765.911 875.9 C 766.395 805.436 766.193 734.968 765.304 664.507 C 764.742 633.787 764.64 603.06 765 572.337 C 765.114 557.536 764.615 538.194 766.171 523.781 C 791.295 522.999 818.911 523.53 844.221 523.507 z"/>
<path transform="translate(0,0)" fill="rgb(41,150,207)" d="M 773.851 531.095 C 826.819 533.308 882.83 531.568 936.078 532.369 C 958.85 532.711 982.182 531.797 1004.91 533.051 C 1007.22 551.92 1005.39 581.556 1005.25 601.502 L 1005.14 721.636 L 1005.23 816.263 C 1005.38 830.065 1006.81 856.794 1005.52 869.635 C 978.411 867.906 945.821 868.656 918.359 868.632 L 775.021 869.126 C 776.888 821.346 774.49 772.534 773.048 724.815 C 772.075 692.64 774.297 659.768 774.231 627.791 C 774.164 595.476 773.692 563.485 773.851 531.095 z"/>
<path transform="translate(0,0)" fill="rgb(6,6,6)" d="M 885.871 604.394 C 920.043 602.086 950.062 618.357 967.872 647.244 C 977.17 662.324 987.043 690.199 982.75 707.465 C 980.199 709.719 981.464 709.144 978.081 709.826 C 976.767 708.937 975.63 708.219 975.312 706.527 C 972.025 689.709 969.644 671.638 961.223 656.386 C 940.021 617.984 903.426 603.724 862.147 617.872 C 782.782 658.241 824.79 740.317 811.497 754.051 C 807.975 754.547 807.739 755.154 804.79 753.852 C 804.622 752.884 804.491 751.911 804.399 750.933 C 804.034 747.125 804.994 730.824 805.018 725.562 C 805.16 693.766 801.512 661.102 823.792 635.204 C 840.323 615.988 860.998 606.477 885.871 604.394 z"/>
<path transform="translate(0,0)" fill="rgb(6,6,6)" d="M 888.472 650.319 C 909.005 650.256 924.672 664.217 930.764 683.031 C 935.247 696.876 940.399 786.497 935.363 796.232 C 933.273 797.494 932.737 797.341 930.339 797.386 C 917.201 786.455 950.191 670.659 892.557 658.509 C 854.542 664.268 862.013 712.937 863.779 739.723 C 864.554 751.483 863.758 764.024 863.044 775.783 C 862.501 784.708 862.969 798.257 852.043 800.504 L 850.554 799.459 C 850.506 799.155 853.822 776.326 854.21 773.216 C 859.237 732.901 832.87 663.039 888.472 650.319 z"/>
<path transform="translate(0,0)" fill="url(#Gradient1)" d="M 881.959 627.216 C 899.564 626.109 913.723 627.487 928.103 638.741 C 954.188 659.158 956.302 682.794 960.299 712.185 C 959.288 712.394 950.38 714.446 950.219 712.762 C 948.15 692.588 946.539 667.286 930.264 652.304 C 905.471 629.478 875.34 630.487 852.343 653.263 C 826.313 684.532 842.039 723.636 839.238 760.659 C 838.787 766.623 836.317 782.312 828.221 781.36 C 822.444 775.033 827.608 761.74 827.586 752.792 C 827.465 704.909 819.959 640.538 881.959 627.216 z"/>
<path transform="translate(0,0)" fill="rgb(6,6,6)" d="M 887.942 678.974 C 916.719 677.277 915.041 718.159 913.76 737.269 C 913.137 746.568 914.546 805.529 911.938 810.113 C 908.877 810.725 904.835 811.367 902.669 808.845 C 902.94 778.767 903.17 748.768 902.816 718.679 C 902.761 713.946 903.465 714.077 906.153 710.13 C 905.993 700.623 905.29 695.5 898.695 688.758 C 894.228 686.782 892.158 685.03 888.148 688.464 C 886.506 692.475 887.221 698.399 887.426 702.901 C 886.813 703.735 886.213 704.577 885.625 705.428 C 883.359 708.763 882.824 709.194 883.403 712.355 C 884.068 712.785 888.101 715.466 888.132 716.257 C 889.207 743.648 887.895 771.203 888.541 798.642 C 888.631 802.451 889.109 807.832 886.311 810.377 C 882.919 810.861 883.249 811.395 880.888 810.075 C 877.159 800.941 883.26 722.869 877.854 705.433 C 875.154 696.724 878.478 684.452 887.942 678.974 z"/>
<path transform="translate(0,0)" fill="rgb(6,6,6)" d="M 950.631 718.971 C 954.174 718.815 955.082 718.757 958.537 719.458 C 961.107 722.405 959.905 759.236 959.854 765.477 C 958.094 765.194 956.161 764.681 954.406 764.269 C 953.884 763.73 953.258 763.083 952.526 762.327 C 951.499 750.335 951.244 730.697 950.631 718.971 z"/>
<path transform="translate(0,0)" fill="rgb(6,6,6)" d="M 884.735 885.185 C 914.665 884.856 923.204 920.095 894.661 931.145 C 864.632 931.471 855.24 897.767 884.735 885.185 z"/>
<path transform="translate(0,0)" fill="rgb(254,254,254)" d="M 886.086 897.506 C 890.073 896.233 894.438 897.214 897.498 900.07 C 900.558 902.927 901.836 907.214 900.839 911.279 C 899.843 915.345 896.728 918.555 892.694 919.674 C 886.621 921.357 880.318 917.87 878.518 911.831 C 876.718 905.792 880.082 899.423 886.086 897.506 z"/>
<path transform="translate(0,0)" fill="rgb(6,6,6)" d="M 843.082 493.071 C 853.579 493.32 926.573 492.845 930.15 495.289 C 931.458 497.771 930.833 499.725 930.47 502.608 C 919.613 503.833 848.759 504.94 844.059 502.502 C 842.39 499.633 842.955 496.546 843.082 493.071 z"/>
<path transform="translate(0,0)" fill="rgb(41,150,207)" d="M 381.7 615.334 C 394.849 614.043 412.581 615.082 426.154 615.128 L 521.924 615.907 C 537.781 616.018 598.932 614.308 609.564 616.942 C 619.325 625.211 622.069 629.605 621.917 642.668 C 621.561 673.183 621.112 703.739 620.869 734.264 C 620.694 756.167 623.67 778.618 620.587 800.187 C 619.647 806.765 611.111 811.847 605.772 814.49 C 599.301 815.687 584.207 814.953 577.065 814.816 C 563.3 814.544 549.533 814.422 535.766 814.451 C 488.204 814.43 440.571 816.182 393.018 815.345 C 388.369 815.263 380.439 815.573 376.271 813.719 C 372.889 812.215 368.223 805.04 366.808 801.614 C 365.086 797.444 364.996 652.03 365.655 636.181 C 365.78 633.182 366.122 630.166 367.29 627.374 C 370.113 620.625 375.368 617.969 381.7 615.334 z"/>
<path transform="translate(0,0)" fill="rgb(6,6,6)" d="M 486.276 665.303 C 497.9 664.54 506.203 666.375 515.632 674.187 C 525.911 682.703 530.361 697.15 524.863 709.683 C 522.937 714.074 512.392 723.755 512.515 728.48 C 512.926 744.194 517.661 756.807 518.753 773.475 L 505.25 773.762 L 466.68 772.888 C 467.816 757.613 471.416 742.838 472.366 727.463 C 469.015 720.928 462.879 714.817 460.863 707.79 C 457.173 694.93 463.626 680.682 473.237 672.123 C 477.449 668.373 480.957 666.823 486.276 665.303 z"/>
<path transform="translate(0,0)" fill="rgb(254,254,254)" d="M 488.001 675.069 C 498.961 674.737 509.027 676.723 515.374 686.758 C 518.412 691.486 519.408 697.242 518.136 702.716 C 515.838 712.828 507.933 717.985 499.84 722.934 C 503.429 730.182 512.787 758.539 507.549 764.899 L 503.25 765.171 L 475.766 765.03 C 476.477 760.078 483.784 723.149 483.694 723.05 C 475.367 713.958 452.599 689.382 488.001 675.069 z"/>
<path transform="translate(0,0)" fill="rgb(41,150,207)" d="M 485.522 492.292 C 487.679 492.041 489.847 491.898 492.019 491.862 C 507.349 491.639 518.32 494.508 529.792 505.215 C 555.164 528.897 547.899 571.784 548.204 605.244 C 532.295 604.808 515.752 605.159 499.796 605.273 C 478.884 606.051 457.957 606.373 437.031 606.236 C 437.848 576.357 429.421 538.967 447.782 514.521 C 457.42 501.689 469.863 494.784 485.522 492.292 z"/>
<path transform="translate(0,0)" fill="rgb(254,254,254)" d="M 488.65 457.445 C 489.635 457.442 490.62 457.451 491.605 457.471 C 549.557 458.473 583.792 498.554 583.453 555.476 C 583.353 572.295 583.28 589.242 582.917 606.124 L 557.38 605.834 C 556.725 553.432 566.822 488.894 492.783 483.792 C 446.173 485.265 427.39 517.601 429.109 560.782 C 429.683 575.215 429.831 592.574 428.987 606.968 C 420.207 607.475 410.23 607.07 401.334 606.894 C 403.072 565.646 395.386 523.524 424.068 490.076 C 441.909 469.27 461.891 460.141 488.65 457.445 z"/>
<path transform="translate(0,0)" fill="rgb(41,150,207)" d="M 740.731 629.033 L 741.472 628.801 L 742.926 629.579 C 744.133 633.881 744.365 638.265 744.506 642.709 C 745.943 687.966 747.729 733.437 745.91 778.699 C 725.308 766.447 706.588 749.574 686.893 735.106 C 669.303 723.102 651.541 711.56 634.085 699.337 C 650.676 688.672 667.022 677.631 683.11 666.223 C 700.421 654.017 721.927 637.994 740.731 629.033 z"/>
<path transform="translate(0,0)" fill="rgb(254,254,254)" d="M 631.256 708.324 C 657.688 725.327 682.959 745.485 709.11 763.02 C 721.498 771.326 734.092 779.508 745.828 788.711 C 746.03 799.853 745.665 810.997 744.735 822.102 C 742.532 821.25 737.506 817.343 735.377 815.852 C 705.775 795.123 675.36 775.52 646.292 754.036 C 641.393 750.416 636.775 747.028 631.556 743.852 C 630.181 731.783 630.532 720.409 631.256 708.324 z"/>
<path transform="translate(0,0)" fill="rgb(254,254,254)" d="M 743.929 580.03 C 745.878 582.641 744.101 608.915 743.865 614.113 C 732.093 621.161 719.403 632.085 708.069 638.983 C 681.013 655.451 657.887 671.583 632.589 690.506 C 629.739 687.159 631.141 662.069 631.406 656.41 C 633.946 654.294 636.806 651.89 639.509 649.991 C 673.796 625.91 709.1 603.331 743.929 580.03 z"/>
<path transform="translate(0,0)" fill="rgb(6,6,6)" d="M 992.235 397.512 C 1013.71 397.227 1043.41 396.349 1063.97 399.173 L 1064.04 399.705 C 1065.45 411.242 1067.29 477.08 1060.68 482.479 L 1058.65 481.948 C 1055.22 477.005 1055.31 435.921 1055.09 426.758 L 1054.75 406.184 C 1015.71 405.131 976.52 406.19 937.464 405.492 C 933.679 405.424 930.324 405.745 927.712 403.043 C 927.667 394.496 983.381 397.502 992.235 397.512 z"/>
<path transform="translate(0,0)" fill="rgb(6,6,6)" d="M 337.1 797.382 C 340.37 797.738 341.011 797.742 343.919 799.22 C 347.597 804.76 346.106 845.371 346.053 854.146 C 375.361 852.747 405.702 854.57 435.118 853.72 C 442.749 853.499 451.234 853.279 458.782 853.708 C 460.348 856.569 459.659 857.992 459.509 861.704 C 418.869 862.326 377.725 862.109 337.046 862.19 C 337.521 840.82 336.841 818.937 337.1 797.382 z"/>
<path transform="translate(0,0)" fill="rgb(6,6,6)" d="M 974.736 427.433 L 983.916 427.062 C 993.506 426.705 1029.75 424.645 1035.26 429.756 L 1034.97 431.439 C 1031.77 434.009 1028.3 434.411 1024.23 435.394 C 1015.59 436.149 963.61 439.096 961.921 429.456 C 964.989 427.674 970.934 427.697 974.736 427.433 z"/>
</svg>