<svg version="1.1" xmlns="http://www.w3.org/2000/svg" style="display: block;" viewBox="0 0 1394 2048" width="516" height="758" preserveAspectRatio="none">
<defs>
	<linearGradient id="Gradient1" gradientUnits="userSpaceOnUse" x1="582.625" y1="752.758" x2="864.794" y2="585.951">
		<stop class="stop0" offset="0" stop-opacity="1" stop-color="rgb(13,12,12)"/>
		<stop class="stop1" offset="1" stop-opacity="1" stop-color="rgb(48,48,48)"/>
	</linearGradient>
</defs>
<path transform="translate(0,0)" fill="rgb(253,253,253)" d="M 297.713 110.488 L 902.487 110.268 L 1082.5 110.083 C 1116.26 110.069 1155.45 108.931 1188.5 112.738 C 1207.27 114.901 1231.78 128.256 1245.08 141.989 C 1274.94 172.829 1280.9 200.767 1281.13 241.549 L 1281.54 1325.7 L 1281.84 1672.26 L 1281.82 1780.54 C 1281.83 1797.41 1282.62 1827.97 1280.93 1843.55 C 1278.01 1868.96 1266.62 1892.63 1248.61 1910.78 C 1209.83 1949.51 1163.61 1943.2 1113.25 1943.44 L 494.656 1943.72 L 316.966 1943.72 C 286.397 1943.69 250.839 1944.93 220.822 1941.62 C 197.655 1937.98 176.482 1925.19 159.927 1909.64 C 121.049 1873.13 125.988 1832.03 125.92 1783.66 L 125.542 1685.07 L 125.437 1282.2 L 125.007 539.969 L 124.913 328.498 C 124.918 291.056 123.937 248.839 127.281 211.739 C 129.367 188.591 143.914 159.51 160.484 142.847 C 198.794 104.323 247.722 110.808 297.713 110.488 z"/>
<path transform="translate(0,0)" fill="rgb(236,136,45)" d="M 422.412 170.502 L 931.163 170.22 L 1070.02 170.154 C 1079.39 170.13 1088.98 170.151 1098.21 170.08 C 1134.6 169.796 1168.97 167.134 1196.94 195.623 C 1215.22 214.244 1222.9 235.86 1223.14 261.904 L 1223.47 1310.79 L 1223.6 1648.45 L 1223.58 1750 C 1223.58 1791.23 1229.39 1828.24 1198.07 1860 C 1166.76 1891.75 1133.95 1886.07 1094.08 1886.11 L 988.218 1886.18 L 476.668 1886.16 L 336.583 1886.49 C 311.157 1886.6 282.173 1887.53 257 1885.21 C 241.554 1883.79 220.152 1871.41 209.453 1860.22 C 188.145 1837.93 183.208 1816.89 183.057 1787.41 L 183.105 733.698 L 183.145 404.964 L 183.093 306.936 C 183.027 266.473 177.171 227.932 208.617 196.56 C 220.271 185.052 234.912 177.034 250.885 173.412 C 267.184 169.584 301.431 170.628 319.264 170.601 L 422.412 170.502 z"/>
<path transform="translate(0,0)" fill="rgb(253,253,253)" d="M 672.541 1118.5 L 962.345 1118.65 L 1049.55 1118.37 C 1068.93 1118.33 1089.29 1118.04 1108.59 1120.3 C 1137.93 1123.74 1164.23 1151.05 1168.16 1179.99 C 1170.94 1200.42 1169.9 1223.56 1169.9 1244.43 L 1169.86 1352.32 L 1170.03 1739.15 C 1170.03 1768.95 1168.74 1786.63 1146.58 1809.2 C 1123.63 1832.58 1100.62 1829.34 1070.94 1829.32 L 1005.52 1829.34 L 735.5 1829.58 L 430.832 1829.52 L 348.786 1829.72 C 331.845 1829.79 311.882 1830.38 295.255 1828.19 C 283.212 1826.59 268.608 1816.79 260.091 1808.46 C 242.466 1791.22 237.075 1770.96 237.039 1746.86 C 236.973 1704.04 236.956 1661.17 236.939 1618.35 L 236.956 1365.49 L 236.932 1250.6 C 236.893 1228.5 235.918 1203.92 238.383 1182.19 C 240.635 1166.73 247.888 1151.83 258.639 1140.71 C 283.378 1115.11 318.884 1118.44 351.492 1118.53 L 420.143 1118.69 L 672.541 1118.5 z"/>
<path transform="translate(0,0)" fill="rgb(254,204,1)" d="M 457.025 1561.43 C 493.29 1560.3 531.38 1561.44 567.766 1561.86 C 580.017 1562 590.783 1570 590.935 1583.11 C 591.401 1623.32 592.493 1664.29 590.342 1704.43 C 589.639 1717.3 577.294 1722 566.15 1722.93 L 493.18 1723.09 C 479.9 1723.11 447.583 1725.44 435.766 1716.86 C 431.997 1714.12 428.957 1698.42 428.971 1693.12 C 429.063 1656.98 427.718 1620.16 429.636 1584.06 C 430.641 1565.88 441.168 1562.4 457.025 1561.43 z"/>
<path transform="translate(0,0)" fill="rgb(253,253,253)" d="M 496.342 1589.25 C 505.947 1591.11 500.233 1595.21 503.165 1600.95 C 505.835 1602.27 506.228 1602.73 508.987 1602.24 C 512.428 1597.73 508.847 1593.26 513.496 1589.93 L 516.07 1590.4 C 517.334 1591.96 517.94 1593.17 517.7 1595.19 C 515.894 1606.26 531.028 1604.3 535.233 1610.69 C 541.252 1619.83 537.777 1631.01 529.876 1637.13 L 527.383 1639.05 L 526.406 1639.79 C 532.396 1649.06 543.951 1638.5 540.761 1669.1 C 535.834 1676.29 534.583 1677.29 526.603 1680.83 C 512.19 1683.33 521.016 1687.54 515.656 1694.39 L 513.084 1694.61 C 509.802 1690.5 512.476 1688.75 509.372 1683.08 C 506.777 1682.09 506.897 1682.18 504.129 1682.82 C 501.2 1687.37 503.713 1688.16 501.444 1693.9 C 498.761 1695.09 500.18 1694.88 497.008 1694.14 C 494.645 1691.19 495.942 1688.26 495.346 1684.98 C 494.716 1681.5 490.469 1683.99 485.833 1680.38 C 482.98 1673.56 484.462 1614.06 484.625 1603.42 C 496.809 1601.48 495.659 1601.67 496.342 1589.25 z"/>
<path transform="translate(0,0)" fill="rgb(254,204,1)" d="M 495.824 1645.93 C 508.403 1645.89 545.617 1646.23 526.355 1669.08 C 518.268 1674.51 505.428 1673.22 495.769 1673.14 C 495.98 1664.31 495.816 1654.82 495.824 1645.93 z"/>
<path transform="translate(0,0)" fill="rgb(254,204,1)" d="M 495.921 1611.26 C 508.304 1611.35 538.524 1611.43 522.447 1632.8 C 513.314 1637.51 506.19 1636.16 495.732 1635.99 L 495.921 1611.26 z"/>
<path transform="translate(0,0)" fill="rgb(1,1,1)" d="M 969.438 1576.31 C 992.688 1574.85 1010.2 1584.29 1014.22 1608.35 C 1020.4 1645.28 1002.74 1689.33 963.223 1696.82 C 895.661 1703.12 908.444 1589.29 969.438 1576.31 z"/>
<path transform="translate(0,0)" fill="rgb(253,253,253)" d="M 968.118 1602.08 C 997.428 1599.69 988.385 1658.78 964.927 1671.09 C 936.204 1672.31 945.968 1615.77 968.118 1602.08 z"/>
<path transform="translate(0,0)" fill="rgb(1,1,1)" d="M 744.663 1345.5 L 764.8 1345.14 C 769.62 1366.7 771.937 1391.09 777.02 1411.98 C 779.468 1389.02 781.82 1368.31 785.872 1345.55 L 807.089 1345.77 C 802.512 1378.01 794.091 1410.51 789.306 1445.34 C 781.226 1445.76 773.147 1445.62 765.055 1445.57 C 763.583 1432.56 760.219 1416.07 757.917 1402.92 C 755.935 1403.3 752.455 1403.85 750.671 1404.45 C 748.961 1417.32 745.959 1432.36 743.712 1445.32 L 721.294 1445.34 C 716.69 1415.73 708.247 1374.86 701.176 1345.75 L 723.675 1345.64 C 726.987 1367.77 729.769 1389.77 733.327 1411.88 C 737.81 1391.93 740.351 1366.7 744.663 1345.5 z"/>
<path transform="translate(0,0)" fill="rgb(253,253,253)" d="M 754.446 1382.26 L 757.917 1402.92 C 755.935 1403.3 752.455 1403.85 750.671 1404.45 L 754.446 1382.26 z"/>
<path transform="translate(0,0)" fill="rgb(1,1,1)" d="M 850.896 1580.17 C 870.417 1580.11 889.938 1580.17 909.457 1580.34 L 905.654 1605.06 L 866.551 1605.04 L 863.067 1617.56 C 903.087 1613.64 918.015 1644.01 896.526 1677.46 C 888.707 1689.63 874.011 1694.7 859.948 1696.66 C 843.654 1698.72 830.744 1695.22 816.825 1687.21 L 825.413 1659.75 C 826.734 1660.87 828.092 1661.95 829.484 1662.98 C 841.702 1672.21 860.897 1678.46 871.902 1662.69 C 874.122 1659.51 875.443 1653.29 874.18 1649.52 C 867.972 1630.99 845.695 1637.02 832.071 1640.96 C 836.896 1622.23 845.252 1599.38 850.896 1580.17 z"/>
<path transform="translate(0,0)" fill="rgb(1,1,1)" d="M 730 1199.56 C 736.351 1198.97 743.775 1199.05 750.23 1198.96 C 751.574 1202.79 753.332 1206.47 755.109 1210.11 C 762.04 1224.32 767.046 1239.42 774.051 1253.59 C 774.123 1235.57 773.355 1217.68 773.534 1199.53 C 780.147 1199.27 787.126 1199.53 793.769 1199.66 L 794.369 1299.52 C 787.144 1299.77 781.845 1299.61 774.709 1299.25 C 766.311 1282.09 759.652 1262.11 751.081 1243.85 C 750.827 1262.32 751.148 1281.34 751.022 1299.94 L 731.177 1299.61 C 730.331 1266.45 730.783 1233.02 730 1199.56 z"/>
<path transform="translate(0,0)" fill="rgb(1,1,1)" d="M 657.098 1199.01 C 673.253 1198.68 697.572 1196.1 710.54 1206.61 C 724.203 1217.68 723.6 1243.93 712.276 1256.51 C 704.12 1265.57 696.496 1266.73 684.945 1267.35 L 680.682 1268.1 C 677.172 1272.25 678.523 1293.28 678.608 1299.47 C 671.798 1299.64 664.889 1299.43 658.071 1299.29 C 656.962 1265.58 657.094 1232.76 657.098 1199.01 z"/>
<path transform="translate(0,0)" fill="rgb(253,253,253)" d="M 679.341 1217.83 C 697.969 1218.33 703.782 1228.14 694.867 1244.31 C 690.276 1247.33 685.468 1249.46 680.547 1246.53 C 676.65 1239.55 678.792 1226.31 679.341 1217.83 z"/>
<path transform="translate(0,0)" fill="rgb(1,1,1)" d="M 532.263 1346.01 C 539.209 1345.74 546.675 1346.1 553.663 1346.29 C 562.403 1378.86 572.156 1412.8 580.167 1445.38 C 572.613 1445.36 564.759 1445.1 557.18 1444.95 C 556.319 1440.27 555.289 1429.53 552.966 1426.81 C 545.319 1426.8 537.268 1427.09 529.587 1427.26 L 526.03 1445.53 C 518.621 1445.83 510.932 1445.52 503.499 1445.35 C 509.228 1426.79 514.6 1408.13 519.609 1389.36 C 523.289 1375.48 527.048 1359.06 532.263 1346.01 z"/>
<path transform="translate(0,0)" fill="rgb(253,253,253)" d="M 542.084 1378.6 C 544.321 1381 550.14 1403.62 548.77 1407.62 L 546.249 1408.26 C 542.414 1408.34 540.082 1408.57 536.314 1407.54 C 535.577 1401.42 540.357 1385.1 542.084 1378.6 z"/>
<path transform="translate(0,0)" fill="rgb(1,1,1)" d="M 831.414 1346 C 839.446 1345.5 845.007 1345.88 852.985 1346.37 C 862.286 1379.2 870.882 1412.21 878.766 1445.41 L 856.461 1445.7 C 855.716 1441.17 854.341 1430.83 852.733 1427.06 C 844.86 1426.81 837.229 1427 829.362 1427.15 L 826.665 1445.19 C 819.677 1445.55 811.35 1445.49 804.265 1445.6 C 806.564 1432.58 812.582 1412.8 816.349 1399.51 C 820.955 1383.26 825.831 1361.43 831.414 1346 z"/>
<path transform="translate(0,0)" fill="rgb(253,253,253)" d="M 840.42 1377.76 C 842.856 1381.98 849.035 1403.44 847.853 1407.7 L 845.25 1408.26 C 841.24 1408.35 838.584 1408.63 834.702 1407.4 C 833.911 1403.37 839.253 1382.62 840.42 1377.76 z"/>
<path transform="translate(0,0)" fill="rgb(1,1,1)" d="M 461.152 1345.21 C 480.123 1343.45 484.071 1346.65 498.533 1358.18 C 494.858 1363.54 490.576 1368.23 486.307 1373.11 C 480.429 1367.44 471.919 1363.29 464.668 1368.07 C 450.518 1377.4 450.768 1406.9 458.988 1419.82 C 463.929 1429.61 480.329 1429.53 480.99 1417.26 C 481.473 1408.28 473.949 1407.81 467.958 1407.57 C 467.84 1401.78 468.149 1395.75 468.355 1389.94 C 474.779 1389.9 481.227 1390.27 487.647 1390.56 L 500.251 1391.04 C 500.261 1402.14 501.532 1423.76 498.845 1434.56 C 496.762 1439.48 489.986 1442.51 485.705 1444.17 C 437.928 1462.74 422.05 1400.18 437.397 1366.5 C 442.494 1355.32 450.082 1349.2 461.152 1345.21 z"/>
<path transform="translate(0,0)" fill="rgb(1,1,1)" d="M 577.012 1199.4 C 583.919 1198.92 592.163 1199.14 599.182 1199.16 C 602.856 1221.38 608.949 1244.91 613.025 1267.91 C 619.378 1249.13 624.206 1219.54 629.34 1199.09 L 650.802 1199.32 C 648.139 1208.69 645.696 1218.44 643.207 1227.89 C 637.685 1247.62 630.769 1283.08 623.828 1299.53 C 616.702 1299.89 609.426 1299.2 602.293 1298.7 C 598.725 1288.03 594.567 1269.61 591.649 1258.19 C 587.043 1240.16 580.188 1217.46 577.012 1199.4 z"/>
<path transform="translate(0,0)" fill="rgb(1,1,1)" d="M 646.031 1345.91 C 662.466 1346.34 680.437 1346.01 696.986 1346.02 L 697.166 1364.38 C 689.338 1365.44 675.342 1365.6 667.024 1365.92 L 667.091 1384.18 C 675.62 1384.37 684.147 1384.64 692.671 1384.99 L 692.386 1402.96 L 666.905 1403.1 L 666.848 1423.09 L 667.064 1423.76 C 670.247 1426.46 692.336 1426.02 698.242 1426.12 C 698.612 1432.39 698.694 1439.08 698.883 1445.39 C 681.297 1446.11 663.602 1445.85 645.999 1445.73 C 645.639 1412.69 645.996 1379 646.031 1345.91 z"/>
<path transform="translate(0,0)" fill="rgb(1,1,1)" d="M 750.322 1580.25 C 765.484 1580.08 780.649 1580.13 795.81 1580.39 C 789.944 1617.47 783.465 1655.61 778.345 1692.72 C 769.515 1693.13 757.95 1692.79 748.907 1692.8 L 762.636 1605.15 L 746.579 1605 C 748.006 1596.78 749.254 1588.53 750.322 1580.25 z"/>
<path transform="translate(0,0)" fill="rgb(1,1,1)" d="M 876.03 1345.28 L 897.138 1345.12 C 902.414 1355.44 908.019 1372.54 911.305 1383.63 C 915.731 1371.12 920.247 1358.71 923.975 1345.96 L 946.276 1345.86 C 939.932 1361.9 933.396 1377.87 926.67 1393.75 C 919.967 1410.02 921.863 1428.43 921.911 1446.2 L 900.989 1445.87 C 901.012 1436.92 901.912 1415.26 899.872 1407.73 C 894.406 1387.55 883.11 1365.4 876.03 1345.28 z"/>
<path transform="translate(0,0)" fill="rgb(1,1,1)" d="M 576.114 1345.97 L 637.446 1345.99 L 636.86 1364.62 L 617.208 1365.68 C 616.781 1386.15 617.067 1407.54 617.052 1428.08 L 616.839 1446.08 L 596.778 1445.67 C 596.172 1419.22 596.68 1392.74 596.236 1366.21 C 589.837 1365.5 583.824 1365.2 577.414 1364.87 C 576.279 1357.33 576.186 1353.44 576.114 1345.97 z"/>
<path transform="translate(0,0)" fill="rgb(56,38,30)" d="M 704.198 429.91 C 715.499 434.123 736.776 454.177 748.607 462.624 C 765.096 474.212 782.446 484.527 800.504 493.477 C 817.991 502.206 836.799 510.096 855.561 515.588 C 867.114 518.969 879.253 521.13 890.564 525.213 C 893.908 526.42 897.078 527.784 899.514 530.473 C 905.896 537.518 900.665 634.971 899.889 651.815 C 937.396 652.351 974.92 652.351 1012.43 651.805 C 1019.79 651.697 1026.2 649.73 1029.24 657.604 C 1027.96 662.9 1025.59 663.457 1020.15 663.63 C 1004.19 664.14 988.089 663.487 972.1 663.299 C 947.514 663.167 922.927 663.302 898.343 663.703 C 896.122 684.122 892.371 700.356 887.978 720.434 C 907.932 721.172 1019.36 717.507 1028.43 721.218 C 1031.03 724.39 1030.43 722.956 1031.13 726.688 L 1029.56 728.75 C 1022.34 732.127 988.128 730.675 978.277 730.655 L 885.53 730.181 C 878.057 751.257 870.309 772.559 860.059 792.462 C 829.545 851.712 766.595 907.308 708.359 939.119 C 700.997 940.053 695.004 934.963 689.287 931.282 C 630.806 893.626 578.137 848.94 548.043 784.683 C 540.051 767.619 533.372 749.161 526.658 730.757 L 415.371 730.974 C 406.604 730.982 383.988 734.384 379.936 727.153 C 380.315 725.877 380.423 724.78 381.199 723.924 C 382.709 722.261 384.93 720.475 387.339 720.465 C 400.51 720.415 414.241 720.551 427.367 720.571 C 459.481 720.841 491.596 720.703 523.707 720.158 C 519.825 701.107 515.994 682.115 513.583 662.81 C 497.764 662.786 391.033 664.041 382.147 660.552 C 380.939 656.404 380.54 657.351 381.612 653.879 C 387.273 650.94 499.584 651.929 512.329 651.941 C 510.535 624.225 509.909 596.447 510.452 568.678 C 510.6 556.927 510.395 540.338 512.408 529.189 C 524.59 522.489 557.514 515.648 573.626 510.071 C 609.983 497.216 643.979 478.47 674.253 454.584 C 684.797 446.417 693.94 438.095 704.198 429.91 z"/>
<path transform="translate(0,0)" fill="rgb(253,253,253)" d="M 705.54 443.791 C 708.178 444.362 721.789 455.259 724.619 457.528 C 761.304 486.943 801.431 509.993 846.566 523.687 C 861.016 528.071 876.896 531.321 890.764 537.042 C 897.515 713.539 868.718 833.994 705.917 927.2 C 702.875 926.196 690.459 918.399 687.417 916.43 C 657.256 896.907 629.157 875.468 604.892 848.867 C 524.57 760.809 515.777 650.494 521.435 536.792 C 540.51 530.069 560.903 526.475 580.336 519.037 C 611.997 506.918 642.14 492.088 669.604 472 C 681.894 463.012 693.22 452.777 705.54 443.791 z"/>
<path transform="translate(0,0)" fill="url(#Gradient1)" d="M 705.7 488.711 C 709.515 490.148 731.235 505.775 736.566 509.25 C 750.569 518.22 764.995 526.511 779.794 534.095 C 796.045 542.321 813.628 548.682 831.02 554.011 C 840.604 556.947 847.601 558.823 855.911 564.638 C 867.573 700.043 828.157 814.609 706.467 885.179 C 680.772 874.897 637.392 833.433 619.437 812.157 C 561.287 743.254 548.051 651.383 556.299 563.839 C 569.146 557.007 581.332 554.192 595.039 549.414 C 606.839 545.3 619.157 540.277 630.488 535.001 C 645.744 527.736 660.44 519.348 674.454 509.908 C 683.815 503.525 695.042 494.928 704.568 489.365 L 705.7 488.711 z"/>
<path transform="translate(0,0)" fill="rgb(253,253,253)" d="M 699.998 506.186 C 702.199 509.336 700.808 578.031 700.711 588.467 C 658.999 598.87 649.746 617.984 650.065 659.183 L 635.603 660.209 C 634.42 675.412 632.662 763.516 637.726 771.685 C 645.502 776.018 687.999 773.929 700.908 774.573 L 700.963 870.035 C 686.653 861.473 672.628 850.376 659.773 839.807 C 646.119 828.814 629.181 809.262 618.923 795.442 C 580.534 743.725 563.547 680.042 563.887 616.154 C 563.968 600.879 563.212 586.549 565.543 571.095 C 575.25 566.004 606.545 556.833 620.974 550.62 C 653.964 536.414 670.692 523.741 699.998 506.186 z"/>
<path transform="translate(0,0)" fill="rgb(147,191,206)" d="M 711.004 505.857 C 714.123 507.432 717.205 509.427 720.109 511.357 C 749.464 530.861 779.577 548.212 813.056 559.709 C 823.208 563.195 835.168 566.24 844.887 570.609 L 845.983 571.11 C 847.739 588.026 846.728 620.424 845.758 637.073 C 841.011 718.602 813.114 785.98 751.389 840.379 C 738.608 851.629 724.771 861.62 710.071 870.212 C 710.485 838.643 709.936 806.27 710.142 774.525 C 718.78 774.199 770.072 776.158 773.863 772.585 C 776.805 769.812 777.525 761.504 777.793 757.633 C 778.576 746.334 779.201 666.272 774.895 661.756 C 771.488 658.184 765.87 658.511 761.279 658.243 C 761.117 621.248 750.993 595.912 711.138 589.435 C 710.403 561.581 710.359 533.713 711.004 505.857 z"/>
<path transform="translate(0,0)" fill="rgb(253,253,253)" d="M 647.501 668.371 C 683.22 668.817 733.837 666.034 767.03 668.657 C 768.044 697.758 767.731 727.159 767.861 756.29 C 767.877 759.838 768.197 762.254 765.101 764.116 C 724.698 765.039 684.281 765.215 643.871 764.643 C 643.694 752.742 642.515 676.439 644.922 669.457 L 647.501 668.371 z"/>
<path transform="translate(0,0)" fill="rgb(1,1,1)" d="M 699.174 687.171 C 705.575 686.735 712.495 686.713 717.723 690.789 C 732.148 702.038 725.447 715.833 717.725 726.947 C 718.124 733.933 721.776 746.753 714.862 749.762 C 706.716 749.855 701.115 750.006 692.983 748.956 L 693.042 726.676 C 691.973 725.105 690.933 723.514 689.925 721.903 C 680.501 706.783 684.564 695.964 699.174 687.171 z"/>
<path transform="translate(0,0)" fill="rgb(253,253,253)" d="M 704.067 717.925 C 700.518 715.64 695.527 712.807 695.397 708.389 C 694.886 690.985 729.415 696.996 708.397 718.637 L 704.067 717.925 z"/>
<path transform="translate(0,0)" fill="rgb(253,253,253)" d="M 704.067 717.925 L 708.397 718.637 C 708.617 725.583 709.517 731.775 706.12 737.917 L 704.887 737.253 C 702.356 729.432 703.434 726.438 704.067 717.925 z"/>
<path transform="translate(0,0)" fill="rgb(253,253,253)" d="M 702.596 599.345 C 729.723 598.605 750.85 617.997 751.49 645.655 C 751.596 650.217 750.242 657.037 746.891 660.281 L 744.766 660.177 C 735.976 652.015 744.965 617.697 709.851 611.474 L 708.645 611.267 C 675.987 610.336 671.302 632.402 671.248 658.895 L 658.985 658.855 C 657.449 627.455 668.578 602.866 702.596 599.345 z"/>
<path transform="translate(0,0)" fill="rgb(143,174,188)" d="M 709.822 622.074 C 719.952 623.999 724.546 626.2 729.037 635.901 C 730.937 643.95 731.277 649.885 731.204 658.172 C 724.15 658.041 717.094 658.021 710.039 658.111 L 709.822 622.074 z"/>
<path transform="translate(0,0)" fill="rgb(147,191,206)" d="M 731.204 658.172 C 726.138 657.266 724.507 656.371 722.711 651.501 C 719.337 642.358 722.027 639.234 729.037 635.901 C 730.937 643.95 731.277 649.885 731.204 658.172 z"/>
<path transform="translate(0,0)" fill="rgb(253,253,253)" d="M 699.743 623.08 L 700.48 623.73 C 701.763 627.97 701.374 652.564 701.386 658.605 L 682.118 659.143 C 678.656 639.96 680.566 629.91 699.743 623.08 z"/>
<path transform="translate(0,0)" fill="rgb(56,38,30)" d="M 1016.13 612.243 C 1030.57 615.717 1067.42 655.901 1081.74 666.531 C 1086.7 670.216 1106.41 687.329 1105.76 692.725 C 1099.51 701.339 1032.55 760.59 1021.1 768.264 C 1017.87 769.129 1017.13 768.459 1014.57 767.297 C 1007.57 755.944 1028.69 748.64 1034.86 743.1 C 1054.15 725.767 1073.81 708.738 1092.52 690.77 C 1072.31 673.838 1052.12 654.491 1032.14 637.071 C 1024.99 630.836 1016.9 629.706 1013.66 623.221 C 1013.05 619.332 1014.74 615.941 1016.13 612.243 z"/>
<path transform="translate(0,0)" fill="rgb(56,38,30)" d="M 388.452 613.918 C 390.364 613.884 390.179 614.039 392.098 614.596 C 394.478 616.938 394.702 617.26 395.263 620.542 C 394.981 622.205 394.654 623.893 393.303 625.016 C 367.988 646.053 343.76 670.266 318.188 690.79 C 339.566 714.179 371.102 736.132 394.592 757.935 C 396.826 760.009 396.497 762.088 396.329 764.639 C 394.369 767.271 393.851 767.19 390.524 768.203 C 382.942 764.408 308.485 698.634 303.076 691.363 C 309.007 684.172 331.822 664.017 340.402 656.58 C 353.997 644.797 374.66 623.934 388.452 613.918 z"/>
</svg>